M48
; DRILL file KiCad 10.0.6-10.0.6~ubuntu24.04.1 date 2026-09-12T11:49:15
; FORMAT={-:-/ absolute / metric / decimal}
; #@! TF.CreationDate,2026-09-12T11:49:15+00:00
; #@! TF.GenerationSoftware,Kicad,Pcbnew,10.0.6-10.0.6~ubuntu24.04.1
; #@! TF.FileFunction,Plated,1,4,PTH
FMAT,2
METRIC
; #@! TA.AperFunction,Plated,PTH,ViaDrill
T1C0.400
; #@! TA.AperFunction,Plated,PTH,ViaDrill
T2C0.500
; #@! TA.AperFunction,Plated,PTH,ComponentDrill
T3C0.750
; #@! TA.AperFunction,Plated,PTH,ComponentDrill
T4C0.800
; #@! TA.AperFunction,Plated,PTH,ComponentDrill
T5C0.900
; #@! TA.AperFunction,Plated,PTH,ComponentDrill
T6C1.000
; #@! TA.AperFunction,Plated,PTH,ComponentDrill
T7C1.100
; #@! TA.AperFunction,Plated,PTH,ComponentDrill
T8C1.300
%
G90
G05
T1
X21.677Y-27.256
X24.374Y-110.844
X26.743Y-110.628
X27.161Y-50.514
X28.379Y-25.196
X28.7Y-29.708
X29.095Y-77.261
X30.058Y-114.282
X30.783Y-66.535
X30.816Y-63.49
X31.582Y-47.157
X31.639Y-37.299
X32.336Y-26.282
X33.162Y-38.578
X33.982Y-33.829
X40.216Y-48.469
X40.237Y-78.097
X40.76Y-22.406
X41.636Y-28.413
X44.114Y-50.601
X44.314Y-35.587
X45.041Y-23.139
X45.596Y-28.66
X45.938Y-62.641
X47.081Y-113.978
X47.146Y-37.24
X47.184Y-33.385
X47.199Y-41.815
X47.97Y-79.671
X49.309Y-47.161
X49.543Y-114.246
X49.767Y-55.167
X49.791Y-53.145
X50.386Y-113.481
X50.51Y-84.73
X50.571Y-50.601
X51.019Y-30.179
X51.405Y-68.648
X51.467Y-52.56
X52.145Y-66.28
X53.639Y-136.214
X54.607Y-51.574
X54.997Y-35.396
X57.65Y-31.883
X58.322Y-50.02
X58.966Y-54.962
X59.323Y-50.02
X63.182Y-49.829
X65.51Y-137.782
X69.372Y-100.292
X72.539Y-32.903
X73.385Y-77.599
X74.478Y-76.818
X74.54Y-97.785
X77.921Y-85.413
X78.268Y-93.306
X82.823Y-113.198
X85.892Y-102.991
X86.825Y-102.084
X87.776Y-64.039
X91.353Y-56.724
X91.889Y-86.417
X93.379Y-70.81
X93.697Y-101.295
X94.83Y-95.7
X95.137Y-100.029
X97.049Y-77.48
X98.939Y-64.043
X100.483Y-70.725
X107.511Y-98.036
X109.062Y-110.894
X109.465Y-73.15
X117.452Y-85.372
X118.99Y-75.32
X119.002Y-72.78
X128.378Y-57.913
X136.533Y-105.599
X144.408Y-83.414
X145.745Y-112.444
T2
X57.4Y-78.466
T3
X87.0Y-62.0
X88.27Y-62.0
X89.54Y-62.0
T4
X8.0Y-67.0
X10.0Y-22.0
X10.0Y-24.54
X10.0Y-27.08
X10.0Y-29.62
X10.0Y-32.16
X10.0Y-34.7
X10.0Y-37.24
X10.0Y-39.78
X10.0Y-42.32
X10.0Y-44.86
X10.0Y-47.4
X10.0Y-49.94
X10.0Y-52.48
X10.0Y-55.02
X10.0Y-57.56
X10.0Y-60.1
X10.54Y-67.0
X13.08Y-67.0
X15.62Y-67.0
X18.16Y-67.0
X20.7Y-67.0
X23.24Y-67.0
X25.24Y-22.0
X25.24Y-24.54
X25.24Y-27.08
X25.24Y-29.62
X25.24Y-32.16
X25.24Y-34.7
X25.24Y-37.24
X25.24Y-39.78
X25.24Y-42.32
X25.24Y-44.86
X25.24Y-47.4
X25.24Y-49.94
X25.24Y-52.48
X25.24Y-55.02
X25.24Y-57.56
X25.24Y-60.1
X25.78Y-67.0
X28.0Y-22.0
X28.32Y-67.0
X30.0Y-90.0
X30.5Y-22.0
X32.0Y-42.5
X32.0Y-57.5
X32.0Y-61.0
X32.54Y-90.0
X34.0Y-72.0
X34.5Y-42.5
X35.08Y-90.0
X36.54Y-72.0
X37.62Y-90.0
X38.0Y-17.0
X38.0Y-19.54
X38.0Y-22.08
X38.0Y-24.62
X38.0Y-27.16
X38.0Y-29.7
X38.0Y-32.24
X38.0Y-34.78
X38.0Y-37.32
X38.0Y-39.86
X38.0Y-42.4
X38.0Y-44.94
X38.0Y-47.48
X38.0Y-50.02
X38.0Y-52.56
X38.0Y-55.1
X38.0Y-57.64
X38.0Y-60.18
X38.0Y-62.72
X38.0Y-65.26
X39.08Y-72.0
X40.16Y-90.0
X41.62Y-72.0
X42.7Y-90.0
X44.16Y-72.0
X45.24Y-90.0
X46.7Y-72.0
X47.78Y-90.0
X49.24Y-72.0
X50.32Y-90.0
X51.78Y-72.0
X53.24Y-17.0
X53.24Y-19.54
X53.24Y-22.08
X53.24Y-24.62
X53.24Y-27.16
X53.24Y-29.7
X53.24Y-32.24
X53.24Y-34.78
X53.24Y-37.32
X53.24Y-39.86
X53.24Y-42.4
X53.24Y-44.94
X53.24Y-47.48
X53.24Y-50.02
X53.24Y-52.56
X53.24Y-55.1
X53.24Y-57.64
X53.24Y-60.18
X53.24Y-62.72
X53.24Y-65.26
X54.32Y-72.0
X59.0Y-59.0
X59.0Y-62.38
X59.0Y-70.0
X60.0Y-94.84
X60.0Y-105.0
X61.5Y-59.0
X61.54Y-62.38
X61.54Y-70.0
X64.08Y-62.38
X64.08Y-70.0
X66.62Y-62.38
X66.62Y-70.0
X68.0Y-94.84
X68.0Y-105.0
X69.16Y-62.38
X69.16Y-70.0
X71.0Y-43.0
X71.7Y-62.38
X71.7Y-70.0
X72.0Y-90.0
X73.5Y-43.0
X74.24Y-62.38
X74.24Y-70.0
X74.54Y-90.0
X76.0Y-94.84
X76.0Y-105.0
X76.78Y-62.38
X76.78Y-70.0
X77.08Y-90.0
X78.0Y-22.0
X78.0Y-24.54
X78.0Y-27.08
X78.0Y-29.62
X78.0Y-32.16
X78.0Y-34.7
X78.0Y-37.24
X78.0Y-39.78
X78.0Y-42.32
X78.0Y-44.86
X78.0Y-47.4
X78.0Y-49.94
X78.0Y-52.48
X78.0Y-55.02
X79.32Y-62.38
X79.32Y-70.0
X79.62Y-90.0
X81.86Y-62.38
X81.86Y-70.0
X82.0Y-137.0
X82.16Y-90.0
X84.0Y-94.84
X84.0Y-105.0
X84.54Y-137.0
X84.7Y-90.0
X85.62Y-22.0
X85.62Y-24.54
X85.62Y-27.08
X85.62Y-29.62
X85.62Y-32.16
X85.62Y-34.7
X85.62Y-37.24
X85.62Y-39.78
X85.62Y-42.32
X85.62Y-44.86
X85.62Y-47.4
X85.62Y-49.94
X85.62Y-52.48
X85.62Y-55.02
X87.08Y-137.0
X87.24Y-90.0
X89.62Y-137.0
X89.78Y-90.0
X92.16Y-137.0
X92.32Y-90.0
X94.0Y-22.0
X94.0Y-24.54
X94.0Y-27.08
X94.0Y-29.62
X94.0Y-32.16
X94.0Y-34.7
X94.0Y-37.24
X94.0Y-39.78
X94.0Y-42.32
X94.0Y-44.86
X94.0Y-47.4
X94.0Y-49.94
X94.7Y-137.0
X96.0Y-82.0
X97.24Y-137.0
X99.5Y-82.0
X99.78Y-137.0
X101.62Y-22.0
X101.62Y-24.54
X101.62Y-27.08
X101.62Y-29.62
X101.62Y-32.16
X101.62Y-34.7
X101.62Y-37.24
X101.62Y-39.78
X101.62Y-42.32
X101.62Y-44.86
X101.62Y-47.4
X101.62Y-49.94
X102.32Y-137.0
X105.0Y-30.0
X105.0Y-55.0
X105.0Y-57.54
X105.0Y-60.08
X105.0Y-62.62
X105.0Y-65.16
X105.0Y-67.7
X105.0Y-70.24
X105.0Y-72.78
X105.0Y-75.32
X105.0Y-77.86
X105.0Y-83.84
X105.0Y-94.0
X107.5Y-30.0
X110.0Y-104.84
X110.0Y-115.0
X110.0Y-124.84
X110.0Y-135.0
X112.62Y-55.0
X112.62Y-57.54
X112.62Y-60.08
X112.62Y-62.62
X112.62Y-65.16
X112.62Y-67.7
X112.62Y-70.24
X112.62Y-72.78
X112.62Y-75.32
X112.62Y-77.86
X114.0Y-83.84
X114.0Y-94.0
X115.2Y-52.5
X115.2Y-55.0
X118.0Y-124.84
X118.0Y-135.0
X123.0Y-83.84
X123.0Y-94.0
X124.0Y-55.0
X124.0Y-57.54
X124.0Y-60.08
X124.0Y-62.62
X124.0Y-65.16
X124.0Y-67.7
X124.0Y-70.24
X124.0Y-72.78
X124.0Y-75.32
X124.0Y-77.86
X126.0Y-124.84
X126.0Y-135.0
X131.62Y-55.0
X131.62Y-57.54
X131.62Y-60.08
X131.62Y-62.62
X131.62Y-65.16
X131.62Y-67.7
X131.62Y-70.24
X131.62Y-72.78
X131.62Y-75.32
X131.62Y-77.86
X132.0Y-83.84
X132.0Y-94.0
X134.2Y-52.5
X134.2Y-55.0
X141.0Y-83.84
X141.0Y-94.0
X142.0Y-104.84
X142.0Y-115.0
X143.0Y-55.0
X143.0Y-57.54
X143.0Y-60.08
X143.0Y-62.62
X143.0Y-65.16
X143.0Y-67.7
X143.0Y-70.24
X143.0Y-72.78
X143.0Y-75.32
X143.0Y-77.86
X150.0Y-104.84
X150.0Y-115.0
X150.62Y-55.0
X150.62Y-57.54
X150.62Y-60.08
X150.62Y-62.62
X150.62Y-65.16
X150.62Y-67.7
X150.62Y-70.24
X150.62Y-72.78
X150.62Y-75.32
X150.62Y-77.86
X155.0Y-52.5
X155.0Y-55.0
X158.0Y-82.0
X161.5Y-82.0
T5
X43.0Y-10.0
X50.0Y-10.0
X74.0Y-10.0
X81.0Y-10.0
X86.0Y-68.0
X88.0Y-10.0
X95.0Y-10.0
T6
X7.8Y-116.22
X7.8Y-134.0
X10.34Y-116.22
X10.34Y-134.0
X12.88Y-116.22
X12.88Y-134.0
X15.42Y-116.22
X15.42Y-134.0
X17.96Y-116.22
X17.96Y-134.0
X20.5Y-116.22
X20.5Y-134.0
X23.04Y-116.22
X23.04Y-134.0
X25.58Y-116.22
X25.58Y-134.0
X27.0Y-12.0
X28.12Y-116.22
X28.12Y-134.0
X30.66Y-116.22
X30.66Y-134.0
X32.0Y-12.0
X33.2Y-116.22
X33.2Y-134.0
X35.74Y-116.22
X35.74Y-134.0
X38.28Y-116.22
X38.28Y-134.0
X40.82Y-116.22
X40.82Y-134.0
X43.36Y-116.22
X43.36Y-134.0
X45.9Y-116.22
X45.9Y-134.0
X48.44Y-116.22
X48.44Y-134.0
X50.98Y-116.22
X50.98Y-134.0
X53.52Y-116.22
X53.52Y-134.0
X56.06Y-116.22
X56.06Y-134.0
T7
X15.0Y-105.0
X25.16Y-105.0
T8
X16.0Y-13.0
X21.0Y-13.0
M30
