M48
; DRILL file KiCad 10.0.6 date 2026-09-11T13:30:13
; FORMAT={-:-/ absolute / metric / decimal}
; #@! TF.CreationDate,2026-09-11T13:30:13+10:00
; #@! TF.GenerationSoftware,Kicad,Pcbnew,10.0.6
; #@! TF.FileFunction,Plated,1,2,PTH
FMAT,2
METRIC
; #@! TA.AperFunction,Plated,PTH,ViaDrill
T1C0.400
; #@! TA.AperFunction,Plated,PTH,ViaDrill
T2C0.500
; #@! TA.AperFunction,Plated,PTH,ComponentDrill
T3C0.750
; #@! TA.AperFunction,Plated,PTH,ComponentDrill
T4C0.800
; #@! TA.AperFunction,Plated,PTH,ComponentDrill
T5C0.900
; #@! TA.AperFunction,Plated,PTH,ComponentDrill
T6C1.000
; #@! TA.AperFunction,Plated,PTH,ComponentDrill
T7C1.100
; #@! TA.AperFunction,Plated,PTH,ComponentDrill
T8C1.300
%
G90
G05
T1
X6.405Y-94.37
X20.699Y-81.367
X22.54Y-42.045
X22.975Y-62.062
X23.296Y-55.02
X26.724Y-113.814
X26.802Y-23.963
X28.819Y-31.395
X29.713Y-25.696
X30.989Y-71.108
X33.094Y-40.009
X33.259Y-56.182
X33.427Y-67.881
X34.967Y-53.75
X36.103Y-55.02
X36.138Y-40.239
X36.218Y-46.227
X36.277Y-52.12
X36.707Y-48.949
X37.029Y-51.21
X38.973Y-43.571
X38.987Y-38.59
X39.34Y-135.451
X41.106Y-51.111
X41.408Y-60.152
X41.623Y-54.567
X42.288Y-70.556
X42.529Y-82.984
X42.545Y-98.906
X43.251Y-24.821
X43.425Y-57.59
X44.095Y-62.559
X45.176Y-74.447
X46.207Y-74.398
X47.493Y-76.703
X48.81Y-70.514
X49.296Y-138.48
X50.04Y-83.359
X50.756Y-38.422
X50.992Y-135.466
X51.797Y-38.773
X52.293Y-41.096
X52.371Y-114.068
X53.063Y-38.517
X53.129Y-65.688
X53.151Y-106.717
X53.375Y-30.374
X54.763Y-105.086
X55.724Y-71.873
X56.282Y-100.22
X56.591Y-80.396
X58.417Y-82.144
X59.337Y-110.854
X59.494Y-82.586
X59.692Y-72.3
X59.98Y-56.252
X62.415Y-34.7
X67.087Y-81.192
X67.357Y-75.043
X67.424Y-56.988
X68.682Y-75.744
X68.786Y-47.288
X70.8Y-57.77
X70.842Y-77.249
X71.963Y-76.751
X72.088Y-66.048
X75.266Y-51.204
X75.792Y-58.941
X76.159Y-37.492
X80.645Y-99.085
X80.697Y-48.71
X82.209Y-33.514
X82.486Y-92.741
X83.489Y-78.06
X83.489Y-86.302
X84.337Y-60.507
X87.623Y-59.544
X87.854Y-90.0
X88.06Y-95.641
X89.012Y-41.977
X90.612Y-77.15
X90.886Y-63.83
X90.944Y-45.252
X92.802Y-94.0
X95.587Y-80.194
X97.111Y-74.178
X97.414Y-81.012
X98.051Y-84.741
X98.822Y-68.961
X99.173Y-33.466
X104.242Y-71.51
X106.95Y-46.233
X106.965Y-56.369
X108.928Y-79.012
X115.454Y-33.466
X115.974Y-43.981
X118.207Y-69.04
X118.338Y-93.145
X118.88Y-76.511
X119.656Y-79.704
X121.251Y-81.389
X126.263Y-55.016
X127.5Y-121.604
X128.318Y-114.893
X128.91Y-120.791
X132.59Y-66.628
X134.735Y-76.611
X145.507Y-75.32
T2
X107.121Y-31.817
T3
X86.0Y-62.0
X87.27Y-62.0
X88.54Y-62.0
T4
X8.0Y-67.0
X8.0Y-79.84
X8.0Y-90.0
X10.0Y-22.0
X10.0Y-24.54
X10.0Y-27.08
X10.0Y-29.62
X10.0Y-32.16
X10.0Y-34.7
X10.0Y-37.24
X10.0Y-39.78
X10.0Y-42.32
X10.0Y-44.86
X10.0Y-47.4
X10.0Y-49.94
X10.0Y-52.48
X10.0Y-55.02
X10.0Y-57.56
X10.0Y-60.1
X10.54Y-67.0
X13.08Y-67.0
X13.6Y-79.84
X13.6Y-90.0
X15.62Y-67.0
X18.16Y-67.0
X19.2Y-79.84
X19.2Y-90.0
X20.7Y-67.0
X23.24Y-67.0
X24.8Y-79.84
X24.8Y-90.0
X25.24Y-22.0
X25.24Y-24.54
X25.24Y-27.08
X25.24Y-29.62
X25.24Y-32.16
X25.24Y-34.7
X25.24Y-37.24
X25.24Y-39.78
X25.24Y-42.32
X25.24Y-44.86
X25.24Y-47.4
X25.24Y-49.94
X25.24Y-52.48
X25.24Y-55.02
X25.24Y-57.56
X25.24Y-60.1
X25.78Y-67.0
X28.0Y-22.0
X28.32Y-67.0
X30.4Y-79.84
X30.4Y-90.0
X30.5Y-22.0
X32.0Y-61.0
X34.0Y-42.5
X34.0Y-72.0
X35.5Y-61.0
X36.0Y-79.84
X36.0Y-90.0
X36.5Y-42.5
X36.54Y-72.0
X39.08Y-72.0
X40.0Y-17.0
X40.0Y-19.54
X40.0Y-22.08
X40.0Y-24.62
X40.0Y-27.16
X40.0Y-29.7
X40.0Y-32.24
X40.0Y-34.78
X40.0Y-37.32
X40.0Y-39.86
X40.0Y-42.4
X40.0Y-44.94
X40.0Y-47.48
X40.0Y-50.02
X40.0Y-52.56
X40.0Y-55.1
X40.0Y-57.64
X40.0Y-60.18
X40.0Y-62.72
X40.0Y-65.26
X41.6Y-79.84
X41.6Y-90.0
X41.62Y-72.0
X44.16Y-72.0
X46.7Y-72.0
X47.2Y-79.84
X47.2Y-90.0
X49.24Y-72.0
X51.78Y-72.0
X52.8Y-79.84
X52.8Y-90.0
X54.32Y-72.0
X55.24Y-17.0
X55.24Y-19.54
X55.24Y-22.08
X55.24Y-24.62
X55.24Y-27.16
X55.24Y-29.7
X55.24Y-32.24
X55.24Y-34.78
X55.24Y-37.32
X55.24Y-39.86
X55.24Y-42.4
X55.24Y-44.94
X55.24Y-47.48
X55.24Y-50.02
X55.24Y-52.56
X55.24Y-55.1
X55.24Y-57.64
X55.24Y-60.18
X55.24Y-62.72
X55.24Y-65.26
X58.0Y-59.0
X58.0Y-62.38
X58.0Y-70.0
X58.4Y-79.84
X58.4Y-90.0
X60.0Y-94.84
X60.0Y-105.0
X60.5Y-59.0
X60.54Y-62.38
X60.54Y-70.0
X63.08Y-62.38
X63.08Y-70.0
X64.0Y-79.84
X64.0Y-90.0
X65.62Y-62.38
X65.62Y-70.0
X68.0Y-94.84
X68.0Y-105.0
X68.16Y-62.38
X68.16Y-70.0
X69.6Y-79.84
X69.6Y-90.0
X70.7Y-62.38
X70.7Y-70.0
X71.0Y-43.0
X73.24Y-62.38
X73.24Y-70.0
X73.5Y-43.0
X75.2Y-79.84
X75.2Y-90.0
X75.78Y-62.38
X75.78Y-70.0
X76.0Y-94.84
X76.0Y-105.0
X78.0Y-22.0
X78.0Y-24.54
X78.0Y-27.08
X78.0Y-29.62
X78.0Y-32.16
X78.0Y-34.7
X78.0Y-37.24
X78.0Y-39.78
X78.0Y-42.32
X78.0Y-44.86
X78.0Y-47.4
X78.0Y-49.94
X78.0Y-52.48
X78.0Y-55.02
X78.32Y-62.38
X78.32Y-70.0
X80.8Y-79.84
X80.8Y-90.0
X80.86Y-62.38
X80.86Y-70.0
X82.0Y-137.0
X84.0Y-94.84
X84.0Y-105.0
X84.54Y-137.0
X85.62Y-22.0
X85.62Y-24.54
X85.62Y-27.08
X85.62Y-29.62
X85.62Y-32.16
X85.62Y-34.7
X85.62Y-37.24
X85.62Y-39.78
X85.62Y-42.32
X85.62Y-44.86
X85.62Y-47.4
X85.62Y-49.94
X85.62Y-52.48
X85.62Y-55.02
X86.4Y-79.84
X86.4Y-90.0
X87.08Y-137.0
X89.62Y-137.0
X92.0Y-79.84
X92.0Y-90.0
X92.16Y-137.0
X94.0Y-22.0
X94.0Y-24.54
X94.0Y-27.08
X94.0Y-29.62
X94.0Y-32.16
X94.0Y-34.7
X94.0Y-37.24
X94.0Y-39.78
X94.0Y-42.32
X94.0Y-44.86
X94.0Y-47.4
X94.0Y-49.94
X94.7Y-137.0
X96.0Y-82.0
X97.24Y-137.0
X99.5Y-82.0
X99.78Y-137.0
X101.62Y-22.0
X101.62Y-24.54
X101.62Y-27.08
X101.62Y-29.62
X101.62Y-32.16
X101.62Y-34.7
X101.62Y-37.24
X101.62Y-39.78
X101.62Y-42.32
X101.62Y-44.86
X101.62Y-47.4
X101.62Y-49.94
X102.32Y-137.0
X105.0Y-30.0
X105.0Y-55.0
X105.0Y-57.54
X105.0Y-60.08
X105.0Y-62.62
X105.0Y-65.16
X105.0Y-67.7
X105.0Y-70.24
X105.0Y-72.78
X105.0Y-75.32
X105.0Y-77.86
X105.0Y-83.84
X105.0Y-94.0
X107.5Y-30.0
X110.0Y-104.84
X110.0Y-115.0
X110.0Y-124.84
X110.0Y-135.0
X112.62Y-55.0
X112.62Y-57.54
X112.62Y-60.08
X112.62Y-62.62
X112.62Y-65.16
X112.62Y-67.7
X112.62Y-70.24
X112.62Y-72.78
X112.62Y-75.32
X112.62Y-77.86
X114.0Y-83.84
X114.0Y-94.0
X115.2Y-52.5
X115.2Y-55.0
X118.0Y-124.84
X118.0Y-135.0
X123.0Y-83.84
X123.0Y-94.0
X124.0Y-55.0
X124.0Y-57.54
X124.0Y-60.08
X124.0Y-62.62
X124.0Y-65.16
X124.0Y-67.7
X124.0Y-70.24
X124.0Y-72.78
X124.0Y-75.32
X124.0Y-77.86
X126.0Y-124.84
X126.0Y-135.0
X131.62Y-55.0
X131.62Y-57.54
X131.62Y-60.08
X131.62Y-62.62
X131.62Y-65.16
X131.62Y-67.7
X131.62Y-70.24
X131.62Y-72.78
X131.62Y-75.32
X131.62Y-77.86
X132.0Y-83.84
X132.0Y-94.0
X134.2Y-52.5
X134.2Y-55.0
X141.0Y-83.84
X141.0Y-94.0
X142.0Y-104.84
X142.0Y-115.0
X143.0Y-55.0
X143.0Y-57.54
X143.0Y-60.08
X143.0Y-62.62
X143.0Y-65.16
X143.0Y-67.7
X143.0Y-70.24
X143.0Y-72.78
X143.0Y-75.32
X143.0Y-77.86
X150.0Y-104.84
X150.0Y-115.0
X150.62Y-55.0
X150.62Y-57.54
X150.62Y-60.08
X150.62Y-62.62
X150.62Y-65.16
X150.62Y-67.7
X150.62Y-70.24
X150.62Y-72.78
X150.62Y-75.32
X150.62Y-77.86
X155.0Y-52.5
X155.0Y-55.0
X158.0Y-82.0
X161.5Y-82.0
T5
X43.0Y-10.0
X50.0Y-10.0
X74.0Y-10.0
X81.0Y-10.0
X85.0Y-68.0
X88.0Y-10.0
X95.0Y-10.0
T6
X7.8Y-116.22
X7.8Y-134.0
X10.34Y-116.22
X10.34Y-134.0
X12.88Y-116.22
X12.88Y-134.0
X15.42Y-116.22
X15.42Y-134.0
X17.96Y-116.22
X17.96Y-134.0
X20.5Y-116.22
X20.5Y-134.0
X23.04Y-116.22
X23.04Y-134.0
X25.58Y-116.22
X25.58Y-134.0
X27.0Y-12.0
X28.12Y-116.22
X28.12Y-134.0
X30.66Y-116.22
X30.66Y-134.0
X32.0Y-12.0
X33.2Y-116.22
X33.2Y-134.0
X35.74Y-116.22
X35.74Y-134.0
X38.28Y-116.22
X38.28Y-134.0
X40.82Y-116.22
X40.82Y-134.0
X43.36Y-116.22
X43.36Y-134.0
X45.9Y-116.22
X45.9Y-134.0
X48.44Y-116.22
X48.44Y-134.0
X50.98Y-116.22
X50.98Y-134.0
X53.52Y-116.22
X53.52Y-134.0
X56.06Y-116.22
X56.06Y-134.0
T7
X15.0Y-105.0
X25.16Y-105.0
T8
X16.0Y-13.0
X21.0Y-13.0
M30
