M48
; DRILL file KiCad 10.0.6 date 2026-09-11T00:24:40
; FORMAT={-:-/ absolute / metric / decimal}
; #@! TF.CreationDate,2026-09-11T00:24:40+10:00
; #@! TF.GenerationSoftware,Kicad,Pcbnew,10.0.6
; #@! TF.FileFunction,Plated,1,2,PTH
FMAT,2
METRIC
; #@! TA.AperFunction,Plated,PTH,ViaDrill
T1C0.400
; #@! TA.AperFunction,Plated,PTH,ComponentDrill
T2C0.750
; #@! TA.AperFunction,Plated,PTH,ComponentDrill
T3C0.800
; #@! TA.AperFunction,Plated,PTH,ComponentDrill
T4C0.900
; #@! TA.AperFunction,Plated,PTH,ComponentDrill
T5C1.000
; #@! TA.AperFunction,Plated,PTH,ComponentDrill
T6C1.100
; #@! TA.AperFunction,Plated,PTH,ComponentDrill
T7C1.300
%
G90
G05
T1
X19.593Y-16.314
X26.807Y-37.645
X26.894Y-50.173
X27.037Y-34.468
X27.049Y-25.037
X27.203Y-32.965
X27.416Y-30.89
X28.789Y-34.211
X29.246Y-78.889
X29.461Y-39.86
X29.54Y-29.974
X30.085Y-23.822
X31.289Y-37.675
X31.567Y-73.964
X32.554Y-73.177
X34.618Y-57.56
X35.401Y-53.641
X36.245Y-50.635
X36.245Y-56.18
X37.732Y-36.561
X39.303Y-67.714
X41.516Y-63.491
X41.697Y-60.381
X42.076Y-53.58
X42.076Y-62.17
X42.216Y-67.015
X43.514Y-11.624
X43.541Y-46.868
X44.067Y-60.484
X44.912Y-44.94
X44.953Y-57.292
X45.722Y-34.891
X45.993Y-14.073
X46.706Y-61.527
X47.033Y-58.972
X47.168Y-33.483
X48.168Y-58.91
X48.948Y-48.633
X49.804Y-30.908
X50.672Y-47.203
X50.74Y-16.981
X50.968Y-13.298
X51.754Y-16.539
X53.302Y-65.706
X55.472Y-66.662
X56.415Y-14.067
X57.193Y-19.821
X57.816Y-28.392
X58.455Y-13.32
X59.416Y-58.91
X60.014Y-80.258
X60.306Y-77.15
X61.254Y-51.89
X61.769Y-75.446
X62.02Y-79.213
X62.845Y-86.72
X63.156Y-30.16
X63.318Y-55.008
X63.406Y-57.64
X63.908Y-43.723
X65.866Y-33.35
X66.412Y-93.033
X66.438Y-49.94
X67.496Y-72.41
X67.622Y-18.369
X69.021Y-66.056
X70.099Y-38.568
X71.096Y-13.843
X71.096Y-26.222
X71.426Y-54.224
X71.448Y-60.18
X72.643Y-13.628
X73.5Y-46.224
X74.592Y-53.569
X76.216Y-12.645
X76.219Y-45.203
X79.141Y-49.068
X80.081Y-50.365
X80.081Y-59.02
X80.832Y-55.269
X82.962Y-56.988
X83.355Y-75.36
X84.138Y-45.472
X87.099Y-85.598
X88.352Y-80.346
X88.437Y-30.405
X88.756Y-11.815
X89.57Y-29.175
X93.623Y-88.597
X95.507Y-91.621
X95.977Y-32.16
X103.543Y-64.162
X104.013Y-66.233
X107.552Y-74.934
X107.552Y-82.398
X111.195Y-75.744
X115.486Y-80.145
X121.515Y-81.998
X128.536Y-80.907
X129.895Y-98.877
X130.468Y-8.5
X131.014Y-117.918
X132.904Y-102.282
X133.188Y-103.397
X135.019Y-109.46
X135.569Y-18.369
X137.055Y-34.195
X140.454Y-99.3
X140.814Y-117.107
X141.798Y-35.905
X143.295Y-106.074
X144.192Y-25.81
X159.04Y-87.606
T2
X80.0Y-61.0
X81.27Y-61.0
X82.54Y-61.0
T3
X8.0Y-67.0
X8.0Y-79.84
X8.0Y-90.0
X10.0Y-22.0
X10.0Y-24.54
X10.0Y-27.08
X10.0Y-29.62
X10.0Y-32.16
X10.0Y-34.7
X10.0Y-37.24
X10.0Y-39.78
X10.0Y-42.32
X10.0Y-44.86
X10.0Y-47.4
X10.0Y-49.94
X10.0Y-52.48
X10.0Y-55.02
X10.0Y-57.56
X10.0Y-60.1
X10.54Y-67.0
X13.08Y-67.0
X13.6Y-79.84
X13.6Y-90.0
X15.62Y-67.0
X18.16Y-67.0
X19.2Y-79.84
X19.2Y-90.0
X20.7Y-67.0
X23.24Y-67.0
X24.8Y-79.84
X24.8Y-90.0
X25.24Y-22.0
X25.24Y-24.54
X25.24Y-27.08
X25.24Y-29.62
X25.24Y-32.16
X25.24Y-34.7
X25.24Y-37.24
X25.24Y-39.78
X25.24Y-42.32
X25.24Y-44.86
X25.24Y-47.4
X25.24Y-49.94
X25.24Y-52.48
X25.24Y-55.02
X25.24Y-57.56
X25.24Y-60.1
X25.78Y-67.0
X28.0Y-22.0
X28.32Y-67.0
X30.4Y-79.84
X30.4Y-90.0
X30.5Y-22.0
X32.0Y-61.0
X34.0Y-42.5
X34.0Y-72.0
X35.5Y-61.0
X36.0Y-79.84
X36.0Y-90.0
X36.5Y-42.5
X36.54Y-72.0
X39.08Y-72.0
X40.0Y-17.0
X40.0Y-19.54
X40.0Y-22.08
X40.0Y-24.62
X40.0Y-27.16
X40.0Y-29.7
X40.0Y-32.24
X40.0Y-34.78
X40.0Y-37.32
X40.0Y-39.86
X40.0Y-42.4
X40.0Y-44.94
X40.0Y-47.48
X40.0Y-50.02
X40.0Y-52.56
X40.0Y-55.1
X40.0Y-57.64
X40.0Y-60.18
X40.0Y-62.72
X40.0Y-65.26
X41.6Y-79.84
X41.6Y-90.0
X41.62Y-72.0
X44.16Y-72.0
X46.7Y-72.0
X47.2Y-79.84
X47.2Y-90.0
X49.24Y-72.0
X51.78Y-72.0
X52.8Y-79.84
X52.8Y-90.0
X54.32Y-72.0
X55.24Y-17.0
X55.24Y-19.54
X55.24Y-22.08
X55.24Y-24.62
X55.24Y-27.16
X55.24Y-29.7
X55.24Y-32.24
X55.24Y-34.78
X55.24Y-37.32
X55.24Y-39.86
X55.24Y-42.4
X55.24Y-44.94
X55.24Y-47.48
X55.24Y-50.02
X55.24Y-52.56
X55.24Y-55.1
X55.24Y-57.64
X55.24Y-60.18
X55.24Y-62.72
X55.24Y-65.26
X58.4Y-79.84
X58.4Y-90.0
X60.0Y-20.0
X60.0Y-22.54
X60.0Y-25.08
X60.0Y-27.62
X60.0Y-30.16
X60.0Y-32.7
X60.0Y-35.24
X60.0Y-37.78
X60.0Y-40.32
X60.0Y-42.86
X61.0Y-72.0
X62.0Y-15.0
X64.0Y-79.84
X64.0Y-90.0
X64.5Y-15.0
X64.5Y-72.0
X67.62Y-20.0
X67.62Y-22.54
X67.62Y-25.08
X67.62Y-27.62
X67.62Y-30.16
X67.62Y-32.7
X67.62Y-35.24
X67.62Y-37.78
X67.62Y-40.32
X67.62Y-42.86
X69.6Y-79.84
X69.6Y-90.0
X71.0Y-43.0
X73.5Y-43.0
X75.2Y-79.84
X75.2Y-90.0
X78.0Y-22.0
X78.0Y-24.54
X78.0Y-27.08
X78.0Y-29.62
X78.0Y-32.16
X78.0Y-34.7
X78.0Y-37.24
X78.0Y-39.78
X78.0Y-42.32
X78.0Y-44.86
X78.0Y-47.4
X78.0Y-49.94
X78.0Y-52.48
X78.0Y-55.02
X80.8Y-79.84
X80.8Y-90.0
X85.62Y-22.0
X85.62Y-24.54
X85.62Y-27.08
X85.62Y-29.62
X85.62Y-32.16
X85.62Y-34.7
X85.62Y-37.24
X85.62Y-39.78
X85.62Y-42.32
X85.62Y-44.86
X85.62Y-47.4
X85.62Y-49.94
X85.62Y-52.48
X85.62Y-55.02
X86.4Y-79.84
X86.4Y-90.0
X90.0Y-124.84
X90.0Y-135.0
X92.0Y-79.84
X92.0Y-90.0
X94.0Y-22.0
X94.0Y-24.54
X94.0Y-27.08
X94.0Y-29.62
X94.0Y-32.16
X94.0Y-34.7
X94.0Y-37.24
X94.0Y-39.78
X94.0Y-42.32
X94.0Y-44.86
X94.0Y-47.4
X94.0Y-49.94
X95.0Y-87.84
X95.0Y-98.0
X95.0Y-104.84
X95.0Y-115.0
X97.0Y-124.84
X97.0Y-135.0
X101.62Y-22.0
X101.62Y-24.54
X101.62Y-27.08
X101.62Y-29.62
X101.62Y-32.16
X101.62Y-34.7
X101.62Y-37.24
X101.62Y-39.78
X101.62Y-42.32
X101.62Y-44.86
X101.62Y-47.4
X101.62Y-49.94
X103.0Y-87.84
X103.0Y-98.0
X103.0Y-104.84
X103.0Y-115.0
X104.0Y-124.84
X104.0Y-135.0
X105.0Y-30.0
X105.0Y-55.0
X105.0Y-57.54
X105.0Y-60.08
X105.0Y-62.62
X105.0Y-65.16
X105.0Y-67.7
X105.0Y-70.24
X105.0Y-72.78
X105.0Y-75.32
X105.0Y-77.86
X107.5Y-30.0
X111.0Y-87.84
X111.0Y-98.0
X111.0Y-104.84
X111.0Y-115.0
X112.62Y-55.0
X112.62Y-57.54
X112.62Y-60.08
X112.62Y-62.62
X112.62Y-65.16
X112.62Y-67.7
X112.62Y-70.24
X112.62Y-72.78
X112.62Y-75.32
X112.62Y-77.86
X115.2Y-52.5
X115.2Y-55.0
X119.0Y-87.84
X119.0Y-98.0
X119.0Y-104.84
X119.0Y-115.0
X124.0Y-55.0
X124.0Y-57.54
X124.0Y-60.08
X124.0Y-62.62
X124.0Y-65.16
X124.0Y-67.7
X124.0Y-70.24
X124.0Y-72.78
X124.0Y-75.32
X124.0Y-77.86
X127.0Y-87.84
X127.0Y-98.0
X127.0Y-104.84
X127.0Y-115.0
X131.62Y-55.0
X131.62Y-57.54
X131.62Y-60.08
X131.62Y-62.62
X131.62Y-65.16
X131.62Y-67.7
X131.62Y-70.24
X131.62Y-72.78
X131.62Y-75.32
X131.62Y-77.86
X134.2Y-52.5
X134.2Y-55.0
X135.0Y-87.84
X135.0Y-98.0
X135.0Y-104.84
X135.0Y-115.0
X143.0Y-55.0
X143.0Y-57.54
X143.0Y-60.08
X143.0Y-62.62
X143.0Y-65.16
X143.0Y-67.7
X143.0Y-70.24
X143.0Y-72.78
X143.0Y-75.32
X143.0Y-77.86
X148.0Y-91.68
X148.0Y-94.22
X148.0Y-96.76
X148.0Y-99.3
X148.0Y-101.84
X148.0Y-104.38
X148.0Y-106.92
X148.0Y-109.46
X148.0Y-112.0
X150.62Y-55.0
X150.62Y-57.54
X150.62Y-60.08
X150.62Y-62.62
X150.62Y-65.16
X150.62Y-67.7
X150.62Y-70.24
X150.62Y-72.78
X150.62Y-75.32
X150.62Y-77.86
X155.0Y-52.5
X155.0Y-55.0
X178.0Y-50.0
X181.5Y-50.0
T4
X43.0Y-10.0
X50.0Y-10.0
X60.0Y-10.0
X74.0Y-10.0
X81.0Y-10.0
X88.0Y-10.0
X95.0Y-10.0
T5
X27.0Y-12.0
X32.0Y-12.0
X155.0Y-88.0
X155.0Y-90.54
X155.0Y-93.08
X155.0Y-95.62
X155.0Y-98.16
X155.0Y-100.7
X155.0Y-103.24
X155.0Y-105.78
X155.0Y-108.32
X155.0Y-110.86
X155.0Y-113.4
X155.0Y-115.94
X155.0Y-118.48
X155.0Y-121.02
X155.0Y-123.56
X155.0Y-126.1
X155.0Y-128.64
X155.0Y-131.18
X155.0Y-133.72
X155.0Y-136.26
X172.78Y-88.0
X172.78Y-90.54
X172.78Y-93.08
X172.78Y-95.62
X172.78Y-98.16
X172.78Y-100.7
X172.78Y-103.24
X172.78Y-105.78
X172.78Y-108.32
X172.78Y-110.86
X172.78Y-113.4
X172.78Y-115.94
X172.78Y-118.48
X172.78Y-121.02
X172.78Y-123.56
X172.78Y-126.1
X172.78Y-128.64
X172.78Y-131.18
X172.78Y-133.72
X172.78Y-136.26
T6
X139.0Y-84.0
X149.16Y-84.0
T7
X16.0Y-13.0
X21.0Y-13.0
M30
