M48
; DRILL file KiCad 10.0.6-10.0.6~ubuntu24.04.1 date 2026-09-12T05:11:53
; FORMAT={-:-/ absolute / metric / decimal}
; #@! TF.CreationDate,2026-09-12T05:11:53+00:00
; #@! TF.GenerationSoftware,Kicad,Pcbnew,10.0.6-10.0.6~ubuntu24.04.1
; #@! TF.FileFunction,Plated,1,4,PTH
FMAT,2
METRIC
; #@! TA.AperFunction,Plated,PTH,ViaDrill
T1C0.400
; #@! TA.AperFunction,Plated,PTH,ComponentDrill
T2C0.750
; #@! TA.AperFunction,Plated,PTH,ComponentDrill
T3C0.800
; #@! TA.AperFunction,Plated,PTH,ComponentDrill
T4C0.900
; #@! TA.AperFunction,Plated,PTH,ComponentDrill
T5C1.000
; #@! TA.AperFunction,Plated,PTH,ComponentDrill
T6C1.100
; #@! TA.AperFunction,Plated,PTH,ComponentDrill
T7C1.300
%
G90
G05
T1
X22.185Y-55.316
X23.54Y-47.351
X26.649Y-24.826
X27.096Y-45.994
X27.298Y-43.987
X27.686Y-28.809
X28.332Y-45.496
X29.248Y-70.479
X29.39Y-105.81
X29.858Y-104.811
X31.28Y-18.28
X31.74Y-76.752
X32.628Y-35.842
X32.667Y-51.21
X32.753Y-48.636
X34.433Y-37.177
X34.488Y-53.791
X34.665Y-68.206
X34.901Y-76.774
X34.964Y-40.041
X35.876Y-39.101
X37.029Y-63.131
X41.415Y-64.534
X41.462Y-69.592
X41.947Y-75.21
X42.469Y-23.883
X44.144Y-20.663
X44.379Y-54.108
X46.253Y-61.911
X46.271Y-113.522
X46.888Y-42.772
X47.118Y-83.666
X47.16Y-32.997
X47.204Y-37.37
X47.205Y-45.058
X47.213Y-40.985
X48.047Y-31.324
X48.727Y-58.863
X48.732Y-53.966
X48.742Y-73.531
X49.18Y-111.304
X49.931Y-80.346
X50.42Y-110.899
X53.45Y-135.464
X53.469Y-84.172
X56.022Y-66.468
X56.789Y-80.346
X56.898Y-54.446
X57.809Y-56.959
X58.512Y-98.469
X59.002Y-65.864
X60.592Y-56.695
X61.375Y-54.391
X61.641Y-56.351
X63.305Y-56.596
X63.967Y-49.163
X65.51Y-137.782
X67.748Y-48.479
X69.868Y-58.323
X72.225Y-114.03
X73.624Y-112.9
X74.381Y-103.826
X75.651Y-99.995
X76.167Y-31.47
X77.105Y-74.457
X79.472Y-82.122
X82.471Y-62.494
X87.073Y-65.208
X90.674Y-67.672
X91.346Y-56.927
X97.698Y-32.613
X99.751Y-57.184
X99.815Y-36.183
X101.353Y-115.566
X101.694Y-57.186
X103.154Y-43.234
X105.902Y-73.945
X106.179Y-115.197
X108.201Y-69.039
X111.371Y-56.661
X114.882Y-57.25
X115.587Y-58.172
X117.409Y-70.24
X117.419Y-75.32
X119.005Y-79.878
X139.705Y-50.445
X145.745Y-112.444
T2
X86.0Y-62.0
X87.27Y-62.0
X88.54Y-62.0
T3
X8.0Y-67.0
X8.0Y-79.84
X8.0Y-90.0
X10.0Y-22.0
X10.0Y-24.54
X10.0Y-27.08
X10.0Y-29.62
X10.0Y-32.16
X10.0Y-34.7
X10.0Y-37.24
X10.0Y-39.78
X10.0Y-42.32
X10.0Y-44.86
X10.0Y-47.4
X10.0Y-49.94
X10.0Y-52.48
X10.0Y-55.02
X10.0Y-57.56
X10.0Y-60.1
X10.54Y-67.0
X13.08Y-67.0
X13.6Y-79.84
X13.6Y-90.0
X15.62Y-67.0
X18.16Y-67.0
X19.2Y-79.84
X19.2Y-90.0
X20.7Y-67.0
X23.24Y-67.0
X24.8Y-79.84
X24.8Y-90.0
X25.24Y-22.0
X25.24Y-24.54
X25.24Y-27.08
X25.24Y-29.62
X25.24Y-32.16
X25.24Y-34.7
X25.24Y-37.24
X25.24Y-39.78
X25.24Y-42.32
X25.24Y-44.86
X25.24Y-47.4
X25.24Y-49.94
X25.24Y-52.48
X25.24Y-55.02
X25.24Y-57.56
X25.24Y-60.1
X25.78Y-67.0
X28.0Y-22.0
X28.32Y-67.0
X30.4Y-79.84
X30.4Y-90.0
X30.5Y-22.0
X32.0Y-61.0
X34.0Y-42.5
X34.0Y-72.0
X35.5Y-61.0
X36.0Y-79.84
X36.0Y-90.0
X36.5Y-42.5
X36.54Y-72.0
X39.08Y-72.0
X40.0Y-17.0
X40.0Y-19.54
X40.0Y-22.08
X40.0Y-24.62
X40.0Y-27.16
X40.0Y-29.7
X40.0Y-32.24
X40.0Y-34.78
X40.0Y-37.32
X40.0Y-39.86
X40.0Y-42.4
X40.0Y-44.94
X40.0Y-47.48
X40.0Y-50.02
X40.0Y-52.56
X40.0Y-55.1
X40.0Y-57.64
X40.0Y-60.18
X40.0Y-62.72
X40.0Y-65.26
X41.6Y-79.84
X41.6Y-90.0
X41.62Y-72.0
X44.16Y-72.0
X46.7Y-72.0
X47.2Y-79.84
X47.2Y-90.0
X49.24Y-72.0
X51.78Y-72.0
X52.8Y-79.84
X52.8Y-90.0
X54.32Y-72.0
X55.24Y-17.0
X55.24Y-19.54
X55.24Y-22.08
X55.24Y-24.62
X55.24Y-27.16
X55.24Y-29.7
X55.24Y-32.24
X55.24Y-34.78
X55.24Y-37.32
X55.24Y-39.86
X55.24Y-42.4
X55.24Y-44.94
X55.24Y-47.48
X55.24Y-50.02
X55.24Y-52.56
X55.24Y-55.1
X55.24Y-57.64
X55.24Y-60.18
X55.24Y-62.72
X55.24Y-65.26
X58.0Y-59.0
X58.0Y-62.38
X58.0Y-70.0
X58.4Y-79.84
X58.4Y-90.0
X60.0Y-94.84
X60.0Y-105.0
X60.5Y-59.0
X60.54Y-62.38
X60.54Y-70.0
X63.08Y-62.38
X63.08Y-70.0
X64.0Y-79.84
X64.0Y-90.0
X65.62Y-62.38
X65.62Y-70.0
X68.0Y-94.84
X68.0Y-105.0
X68.16Y-62.38
X68.16Y-70.0
X69.6Y-79.84
X69.6Y-90.0
X70.7Y-62.38
X70.7Y-70.0
X71.0Y-43.0
X73.24Y-62.38
X73.24Y-70.0
X73.5Y-43.0
X75.2Y-79.84
X75.2Y-90.0
X75.78Y-62.38
X75.78Y-70.0
X76.0Y-94.84
X76.0Y-105.0
X78.0Y-22.0
X78.0Y-24.54
X78.0Y-27.08
X78.0Y-29.62
X78.0Y-32.16
X78.0Y-34.7
X78.0Y-37.24
X78.0Y-39.78
X78.0Y-42.32
X78.0Y-44.86
X78.0Y-47.4
X78.0Y-49.94
X78.0Y-52.48
X78.0Y-55.02
X78.32Y-62.38
X78.32Y-70.0
X80.8Y-79.84
X80.8Y-90.0
X80.86Y-62.38
X80.86Y-70.0
X82.0Y-137.0
X84.0Y-94.84
X84.0Y-105.0
X84.54Y-137.0
X85.62Y-22.0
X85.62Y-24.54
X85.62Y-27.08
X85.62Y-29.62
X85.62Y-32.16
X85.62Y-34.7
X85.62Y-37.24
X85.62Y-39.78
X85.62Y-42.32
X85.62Y-44.86
X85.62Y-47.4
X85.62Y-49.94
X85.62Y-52.48
X85.62Y-55.02
X86.4Y-79.84
X86.4Y-90.0
X87.08Y-137.0
X89.62Y-137.0
X92.0Y-79.84
X92.0Y-90.0
X92.16Y-137.0
X94.0Y-22.0
X94.0Y-24.54
X94.0Y-27.08
X94.0Y-29.62
X94.0Y-32.16
X94.0Y-34.7
X94.0Y-37.24
X94.0Y-39.78
X94.0Y-42.32
X94.0Y-44.86
X94.0Y-47.4
X94.0Y-49.94
X94.7Y-137.0
X96.0Y-82.0
X97.24Y-137.0
X99.5Y-82.0
X99.78Y-137.0
X101.62Y-22.0
X101.62Y-24.54
X101.62Y-27.08
X101.62Y-29.62
X101.62Y-32.16
X101.62Y-34.7
X101.62Y-37.24
X101.62Y-39.78
X101.62Y-42.32
X101.62Y-44.86
X101.62Y-47.4
X101.62Y-49.94
X102.32Y-137.0
X105.0Y-30.0
X105.0Y-55.0
X105.0Y-57.54
X105.0Y-60.08
X105.0Y-62.62
X105.0Y-65.16
X105.0Y-67.7
X105.0Y-70.24
X105.0Y-72.78
X105.0Y-75.32
X105.0Y-77.86
X105.0Y-83.84
X105.0Y-94.0
X107.5Y-30.0
X110.0Y-104.84
X110.0Y-115.0
X110.0Y-124.84
X110.0Y-135.0
X112.62Y-55.0
X112.62Y-57.54
X112.62Y-60.08
X112.62Y-62.62
X112.62Y-65.16
X112.62Y-67.7
X112.62Y-70.24
X112.62Y-72.78
X112.62Y-75.32
X112.62Y-77.86
X114.0Y-83.84
X114.0Y-94.0
X115.2Y-52.5
X115.2Y-55.0
X118.0Y-124.84
X118.0Y-135.0
X123.0Y-83.84
X123.0Y-94.0
X124.0Y-55.0
X124.0Y-57.54
X124.0Y-60.08
X124.0Y-62.62
X124.0Y-65.16
X124.0Y-67.7
X124.0Y-70.24
X124.0Y-72.78
X124.0Y-75.32
X124.0Y-77.86
X126.0Y-124.84
X126.0Y-135.0
X131.62Y-55.0
X131.62Y-57.54
X131.62Y-60.08
X131.62Y-62.62
X131.62Y-65.16
X131.62Y-67.7
X131.62Y-70.24
X131.62Y-72.78
X131.62Y-75.32
X131.62Y-77.86
X132.0Y-83.84
X132.0Y-94.0
X134.2Y-52.5
X134.2Y-55.0
X141.0Y-83.84
X141.0Y-94.0
X142.0Y-104.84
X142.0Y-115.0
X143.0Y-55.0
X143.0Y-57.54
X143.0Y-60.08
X143.0Y-62.62
X143.0Y-65.16
X143.0Y-67.7
X143.0Y-70.24
X143.0Y-72.78
X143.0Y-75.32
X143.0Y-77.86
X150.0Y-104.84
X150.0Y-115.0
X150.62Y-55.0
X150.62Y-57.54
X150.62Y-60.08
X150.62Y-62.62
X150.62Y-65.16
X150.62Y-67.7
X150.62Y-70.24
X150.62Y-72.78
X150.62Y-75.32
X150.62Y-77.86
X155.0Y-52.5
X155.0Y-55.0
X158.0Y-82.0
X161.5Y-82.0
T4
X43.0Y-10.0
X50.0Y-10.0
X74.0Y-10.0
X81.0Y-10.0
X85.0Y-68.0
X88.0Y-10.0
X95.0Y-10.0
T5
X7.8Y-116.22
X7.8Y-134.0
X10.34Y-116.22
X10.34Y-134.0
X12.88Y-116.22
X12.88Y-134.0
X15.42Y-116.22
X15.42Y-134.0
X17.96Y-116.22
X17.96Y-134.0
X20.5Y-116.22
X20.5Y-134.0
X23.04Y-116.22
X23.04Y-134.0
X25.58Y-116.22
X25.58Y-134.0
X27.0Y-12.0
X28.12Y-116.22
X28.12Y-134.0
X30.66Y-116.22
X30.66Y-134.0
X32.0Y-12.0
X33.2Y-116.22
X33.2Y-134.0
X35.74Y-116.22
X35.74Y-134.0
X38.28Y-116.22
X38.28Y-134.0
X40.82Y-116.22
X40.82Y-134.0
X43.36Y-116.22
X43.36Y-134.0
X45.9Y-116.22
X45.9Y-134.0
X48.44Y-116.22
X48.44Y-134.0
X50.98Y-116.22
X50.98Y-134.0
X53.52Y-116.22
X53.52Y-134.0
X56.06Y-116.22
X56.06Y-134.0
T6
X15.0Y-105.0
X25.16Y-105.0
T7
X16.0Y-13.0
X21.0Y-13.0
M30
