M48
; DRILL file KiCad 10.0.6-10.0.6~ubuntu24.04.1 date 2026-09-12T06:35:36
; FORMAT={-:-/ absolute / metric / decimal}
; #@! TF.CreationDate,2026-09-12T06:35:36+00:00
; #@! TF.GenerationSoftware,Kicad,Pcbnew,10.0.6-10.0.6~ubuntu24.04.1
; #@! TF.FileFunction,Plated,1,4,PTH
FMAT,2
METRIC
; #@! TA.AperFunction,Plated,PTH,ViaDrill
T1C0.400
; #@! TA.AperFunction,Plated,PTH,ComponentDrill
T2C0.750
; #@! TA.AperFunction,Plated,PTH,ComponentDrill
T3C0.800
; #@! TA.AperFunction,Plated,PTH,ComponentDrill
T4C0.900
; #@! TA.AperFunction,Plated,PTH,ComponentDrill
T5C1.000
; #@! TA.AperFunction,Plated,PTH,ComponentDrill
T6C1.100
; #@! TA.AperFunction,Plated,PTH,ComponentDrill
T7C1.300
%
G90
G05
T1
X15.682Y-44.86
X26.836Y-50.162
X26.967Y-64.116
X27.155Y-24.565
X29.228Y-75.957
X29.39Y-110.438
X30.083Y-32.593
X30.267Y-24.581
X30.761Y-63.681
X30.78Y-58.81
X31.387Y-55.695
X31.719Y-107.755
X33.447Y-33.253
X36.811Y-35.452
X38.41Y-28.689
X38.994Y-46.012
X39.163Y-38.5
X39.257Y-43.657
X43.776Y-112.067
X47.059Y-114.069
X47.193Y-61.583
X47.215Y-42.024
X47.217Y-38.417
X48.158Y-30.756
X49.239Y-29.686
X49.338Y-70.507
X50.278Y-53.067
X50.302Y-34.723
X50.51Y-77.255
X50.78Y-50.133
X53.05Y-42.953
X53.16Y-40.247
X53.29Y-55.08
X53.639Y-136.214
X53.928Y-69.699
X55.618Y-107.012
X55.974Y-70.676
X56.777Y-77.254
X57.671Y-53.77
X57.872Y-17.504
X59.185Y-64.412
X63.08Y-67.184
X63.926Y-56.178
X64.468Y-61.486
X65.51Y-137.782
X65.84Y-92.646
X66.037Y-60.831
X66.638Y-65.651
X69.53Y-56.61
X70.197Y-92.584
X72.178Y-88.405
X73.279Y-113.965
X74.337Y-72.422
X74.54Y-95.612
X74.924Y-25.116
X75.483Y-30.011
X76.3Y-33.592
X80.929Y-47.906
X82.759Y-68.812
X83.706Y-82.906
X86.989Y-67.436
X88.628Y-102.338
X88.647Y-101.255
X92.027Y-62.696
X92.107Y-96.462
X93.254Y-63.185
X94.768Y-100.475
X97.826Y-25.633
X99.98Y-76.762
X106.406Y-67.467
X106.825Y-114.567
X108.675Y-75.911
X110.304Y-52.052
X117.389Y-77.371
X117.43Y-70.24
X120.762Y-118.229
X134.25Y-92.788
X139.538Y-62.68
X141.25Y-76.472
X145.745Y-112.444
T2
X86.0Y-62.0
X87.27Y-62.0
X88.54Y-62.0
T3
X8.0Y-67.0
X10.0Y-22.0
X10.0Y-24.54
X10.0Y-27.08
X10.0Y-29.62
X10.0Y-32.16
X10.0Y-34.7
X10.0Y-37.24
X10.0Y-39.78
X10.0Y-42.32
X10.0Y-44.86
X10.0Y-47.4
X10.0Y-49.94
X10.0Y-52.48
X10.0Y-55.02
X10.0Y-57.56
X10.0Y-60.1
X10.54Y-67.0
X13.08Y-67.0
X15.62Y-67.0
X18.16Y-67.0
X20.7Y-67.0
X23.24Y-67.0
X25.24Y-22.0
X25.24Y-24.54
X25.24Y-27.08
X25.24Y-29.62
X25.24Y-32.16
X25.24Y-34.7
X25.24Y-37.24
X25.24Y-39.78
X25.24Y-42.32
X25.24Y-44.86
X25.24Y-47.4
X25.24Y-49.94
X25.24Y-52.48
X25.24Y-55.02
X25.24Y-57.56
X25.24Y-60.1
X25.78Y-67.0
X28.0Y-22.0
X28.32Y-67.0
X30.0Y-90.0
X30.5Y-22.0
X32.0Y-61.0
X32.54Y-90.0
X34.0Y-42.5
X34.0Y-72.0
X35.08Y-90.0
X35.5Y-61.0
X36.5Y-42.5
X36.54Y-72.0
X37.62Y-90.0
X39.08Y-72.0
X40.0Y-17.0
X40.0Y-19.54
X40.0Y-22.08
X40.0Y-24.62
X40.0Y-27.16
X40.0Y-29.7
X40.0Y-32.24
X40.0Y-34.78
X40.0Y-37.32
X40.0Y-39.86
X40.0Y-42.4
X40.0Y-44.94
X40.0Y-47.48
X40.0Y-50.02
X40.0Y-52.56
X40.0Y-55.1
X40.0Y-57.64
X40.0Y-60.18
X40.0Y-62.72
X40.0Y-65.26
X40.16Y-90.0
X41.62Y-72.0
X42.7Y-90.0
X44.16Y-72.0
X45.24Y-90.0
X46.7Y-72.0
X47.78Y-90.0
X49.24Y-72.0
X50.32Y-90.0
X51.78Y-72.0
X54.32Y-72.0
X55.24Y-17.0
X55.24Y-19.54
X55.24Y-22.08
X55.24Y-24.62
X55.24Y-27.16
X55.24Y-29.7
X55.24Y-32.24
X55.24Y-34.78
X55.24Y-37.32
X55.24Y-39.86
X55.24Y-42.4
X55.24Y-44.94
X55.24Y-47.48
X55.24Y-50.02
X55.24Y-52.56
X55.24Y-55.1
X55.24Y-57.64
X55.24Y-60.18
X55.24Y-62.72
X55.24Y-65.26
X58.0Y-59.0
X58.0Y-62.38
X58.0Y-70.0
X60.0Y-94.84
X60.0Y-105.0
X60.5Y-59.0
X60.54Y-62.38
X60.54Y-70.0
X63.08Y-62.38
X63.08Y-70.0
X65.62Y-62.38
X65.62Y-70.0
X68.0Y-94.84
X68.0Y-105.0
X68.16Y-62.38
X68.16Y-70.0
X70.7Y-62.38
X70.7Y-70.0
X71.0Y-43.0
X72.0Y-90.0
X73.24Y-62.38
X73.24Y-70.0
X73.5Y-43.0
X74.54Y-90.0
X75.78Y-62.38
X75.78Y-70.0
X76.0Y-94.84
X76.0Y-105.0
X77.08Y-90.0
X78.0Y-22.0
X78.0Y-24.54
X78.0Y-27.08
X78.0Y-29.62
X78.0Y-32.16
X78.0Y-34.7
X78.0Y-37.24
X78.0Y-39.78
X78.0Y-42.32
X78.0Y-44.86
X78.0Y-47.4
X78.0Y-49.94
X78.0Y-52.48
X78.0Y-55.02
X78.32Y-62.38
X78.32Y-70.0
X79.62Y-90.0
X80.86Y-62.38
X80.86Y-70.0
X82.0Y-137.0
X82.16Y-90.0
X84.0Y-94.84
X84.0Y-105.0
X84.54Y-137.0
X84.7Y-90.0
X85.62Y-22.0
X85.62Y-24.54
X85.62Y-27.08
X85.62Y-29.62
X85.62Y-32.16
X85.62Y-34.7
X85.62Y-37.24
X85.62Y-39.78
X85.62Y-42.32
X85.62Y-44.86
X85.62Y-47.4
X85.62Y-49.94
X85.62Y-52.48
X85.62Y-55.02
X87.08Y-137.0
X87.24Y-90.0
X89.62Y-137.0
X89.78Y-90.0
X92.16Y-137.0
X92.32Y-90.0
X94.0Y-22.0
X94.0Y-24.54
X94.0Y-27.08
X94.0Y-29.62
X94.0Y-32.16
X94.0Y-34.7
X94.0Y-37.24
X94.0Y-39.78
X94.0Y-42.32
X94.0Y-44.86
X94.0Y-47.4
X94.0Y-49.94
X94.7Y-137.0
X96.0Y-82.0
X97.24Y-137.0
X99.5Y-82.0
X99.78Y-137.0
X101.62Y-22.0
X101.62Y-24.54
X101.62Y-27.08
X101.62Y-29.62
X101.62Y-32.16
X101.62Y-34.7
X101.62Y-37.24
X101.62Y-39.78
X101.62Y-42.32
X101.62Y-44.86
X101.62Y-47.4
X101.62Y-49.94
X102.32Y-137.0
X105.0Y-30.0
X105.0Y-55.0
X105.0Y-57.54
X105.0Y-60.08
X105.0Y-62.62
X105.0Y-65.16
X105.0Y-67.7
X105.0Y-70.24
X105.0Y-72.78
X105.0Y-75.32
X105.0Y-77.86
X105.0Y-83.84
X105.0Y-94.0
X107.5Y-30.0
X110.0Y-104.84
X110.0Y-115.0
X110.0Y-124.84
X110.0Y-135.0
X112.62Y-55.0
X112.62Y-57.54
X112.62Y-60.08
X112.62Y-62.62
X112.62Y-65.16
X112.62Y-67.7
X112.62Y-70.24
X112.62Y-72.78
X112.62Y-75.32
X112.62Y-77.86
X114.0Y-83.84
X114.0Y-94.0
X115.2Y-52.5
X115.2Y-55.0
X118.0Y-124.84
X118.0Y-135.0
X123.0Y-83.84
X123.0Y-94.0
X124.0Y-55.0
X124.0Y-57.54
X124.0Y-60.08
X124.0Y-62.62
X124.0Y-65.16
X124.0Y-67.7
X124.0Y-70.24
X124.0Y-72.78
X124.0Y-75.32
X124.0Y-77.86
X126.0Y-124.84
X126.0Y-135.0
X131.62Y-55.0
X131.62Y-57.54
X131.62Y-60.08
X131.62Y-62.62
X131.62Y-65.16
X131.62Y-67.7
X131.62Y-70.24
X131.62Y-72.78
X131.62Y-75.32
X131.62Y-77.86
X132.0Y-83.84
X132.0Y-94.0
X134.2Y-52.5
X134.2Y-55.0
X141.0Y-83.84
X141.0Y-94.0
X142.0Y-104.84
X142.0Y-115.0
X143.0Y-55.0
X143.0Y-57.54
X143.0Y-60.08
X143.0Y-62.62
X143.0Y-65.16
X143.0Y-67.7
X143.0Y-70.24
X143.0Y-72.78
X143.0Y-75.32
X143.0Y-77.86
X150.0Y-104.84
X150.0Y-115.0
X150.62Y-55.0
X150.62Y-57.54
X150.62Y-60.08
X150.62Y-62.62
X150.62Y-65.16
X150.62Y-67.7
X150.62Y-70.24
X150.62Y-72.78
X150.62Y-75.32
X150.62Y-77.86
X155.0Y-52.5
X155.0Y-55.0
X158.0Y-82.0
X161.5Y-82.0
T4
X43.0Y-10.0
X50.0Y-10.0
X74.0Y-10.0
X81.0Y-10.0
X85.0Y-68.0
X88.0Y-10.0
X95.0Y-10.0
T5
X7.8Y-116.22
X7.8Y-134.0
X10.34Y-116.22
X10.34Y-134.0
X12.88Y-116.22
X12.88Y-134.0
X15.42Y-116.22
X15.42Y-134.0
X17.96Y-116.22
X17.96Y-134.0
X20.5Y-116.22
X20.5Y-134.0
X23.04Y-116.22
X23.04Y-134.0
X25.58Y-116.22
X25.58Y-134.0
X27.0Y-12.0
X28.12Y-116.22
X28.12Y-134.0
X30.66Y-116.22
X30.66Y-134.0
X32.0Y-12.0
X33.2Y-116.22
X33.2Y-134.0
X35.74Y-116.22
X35.74Y-134.0
X38.28Y-116.22
X38.28Y-134.0
X40.82Y-116.22
X40.82Y-134.0
X43.36Y-116.22
X43.36Y-134.0
X45.9Y-116.22
X45.9Y-134.0
X48.44Y-116.22
X48.44Y-134.0
X50.98Y-116.22
X50.98Y-134.0
X53.52Y-116.22
X53.52Y-134.0
X56.06Y-116.22
X56.06Y-134.0
T6
X15.0Y-105.0
X25.16Y-105.0
T7
X16.0Y-13.0
X21.0Y-13.0
M30
