%TF.GenerationSoftware,KiCad,Pcbnew,10.0.6-10.0.6~ubuntu24.04.1*%
%TF.CreationDate,2026-09-12T06:35:36+00:00*%
%TF.ProjectId,z80_romless_sbc,7a38305f-726f-46d6-9c65-73735f736263,rev?*%
%TF.SameCoordinates,Original*%
%TF.FileFunction,Copper,L4,Bot*%
%TF.FilePolarity,Positive*%
%FSLAX46Y46*%
G04 Gerber Fmt 4.6, Leading zero omitted, Abs format (unit mm)*
G04 Created by KiCad (PCBNEW 10.0.6-10.0.6~ubuntu24.04.1) date 2026-09-12 06:35:36*
%MOMM*%
%LPD*%
G01*
G04 APERTURE LIST*
G04 Aperture macros list*
%AMRoundRect*
0 Rectangle with rounded corners*
0 $1 Rounding radius*
0 $2 $3 $4 $5 $6 $7 $8 $9 X,Y pos of 4 corners*
0 Add a 4 corners polygon primitive as box body*
4,1,4,$2,$3,$4,$5,$6,$7,$8,$9,$2,$3,0*
0 Add four circle primitives for the rounded corners*
1,1,$1+$1,$2,$3*
1,1,$1+$1,$4,$5*
1,1,$1+$1,$6,$7*
1,1,$1+$1,$8,$9*
0 Add four rect primitives between the rounded corners*
20,1,$1+$1,$2,$3,$4,$5,0*
20,1,$1+$1,$4,$5,$6,$7,0*
20,1,$1+$1,$6,$7,$8,$9,0*
20,1,$1+$1,$8,$9,$2,$3,0*%
%AMFreePoly0*
4,1,37,0.603843,0.796157,0.639018,0.796157,0.711114,0.766294,0.766294,0.711114,0.796157,0.639018,0.796157,0.603843,0.800000,0.600000,0.800000,-0.600000,0.796157,-0.603843,0.796157,-0.639018,0.766294,-0.711114,0.711114,-0.766294,0.639018,-0.796157,0.603843,-0.796157,0.600000,-0.800000,0.000000,-0.800000,0.000000,-0.796148,-0.078414,-0.796148,-0.232228,-0.765552,-0.377117,-0.705537,
-0.507515,-0.618408,-0.618408,-0.507515,-0.705537,-0.377117,-0.765552,-0.232228,-0.796148,-0.078414,-0.796148,0.078414,-0.765552,0.232228,-0.705537,0.377117,-0.618408,0.507515,-0.507515,0.618408,-0.377117,0.705537,-0.232228,0.765552,-0.078414,0.796148,0.000000,0.796148,0.000000,0.800000,0.600000,0.800000,0.603843,0.796157,0.603843,0.796157,$1*%
%AMFreePoly1*
4,1,37,0.000000,0.796148,0.078414,0.796148,0.232228,0.765552,0.377117,0.705537,0.507515,0.618408,0.618408,0.507515,0.705537,0.377117,0.765552,0.232228,0.796148,0.078414,0.796148,-0.078414,0.765552,-0.232228,0.705537,-0.377117,0.618408,-0.507515,0.507515,-0.618408,0.377117,-0.705537,0.232228,-0.765552,0.078414,-0.796148,0.000000,-0.796148,0.000000,-0.800000,-0.600000,-0.800000,
-0.603843,-0.796157,-0.639018,-0.796157,-0.711114,-0.766294,-0.766294,-0.711114,-0.796157,-0.639018,-0.796157,-0.603843,-0.800000,-0.600000,-0.800000,0.600000,-0.796157,0.603843,-0.796157,0.639018,-0.766294,0.711114,-0.711114,0.766294,-0.639018,0.796157,-0.603843,0.796157,-0.600000,0.800000,0.000000,0.800000,0.000000,0.796148,0.000000,0.796148,$1*%
G04 Aperture macros list end*
%TA.AperFunction,ComponentPad*%
%ADD10C,1.800000*%
%TD*%
%TA.AperFunction,ComponentPad*%
%ADD11RoundRect,0.250000X-0.550000X-0.550000X0.550000X-0.550000X0.550000X0.550000X-0.550000X0.550000X0*%
%TD*%
%TA.AperFunction,ComponentPad*%
%ADD12C,1.600000*%
%TD*%
%TA.AperFunction,ComponentPad*%
%ADD13RoundRect,0.250000X0.550000X-0.550000X0.550000X0.550000X-0.550000X0.550000X-0.550000X-0.550000X0*%
%TD*%
%TA.AperFunction,ComponentPad*%
%ADD14RoundRect,0.200000X0.600000X-0.600000X0.600000X0.600000X-0.600000X0.600000X-0.600000X-0.600000X0*%
%TD*%
%TA.AperFunction,ComponentPad*%
%ADD15FreePoly0,90.000000*%
%TD*%
%TA.AperFunction,ComponentPad*%
%ADD16FreePoly1,90.000000*%
%TD*%
%TA.AperFunction,ComponentPad*%
%ADD17RoundRect,0.250000X-0.750000X-0.750000X0.750000X-0.750000X0.750000X0.750000X-0.750000X0.750000X0*%
%TD*%
%TA.AperFunction,ComponentPad*%
%ADD18C,2.000000*%
%TD*%
%TA.AperFunction,ComponentPad*%
%ADD19R,1.600000X1.600000*%
%TD*%
%TA.AperFunction,ComponentPad*%
%ADD20RoundRect,0.249999X-1.250001X-1.250001X1.250001X-1.250001X1.250001X1.250001X-1.250001X1.250001X0*%
%TD*%
%TA.AperFunction,ComponentPad*%
%ADD21C,3.000000*%
%TD*%
%TA.AperFunction,ComponentPad*%
%ADD22R,1.050000X1.500000*%
%TD*%
%TA.AperFunction,ComponentPad*%
%ADD23O,1.050000X1.500000*%
%TD*%
%TA.AperFunction,ComponentPad*%
%ADD24RoundRect,0.249999X-0.850001X-0.850001X0.850001X-0.850001X0.850001X0.850001X-0.850001X0.850001X0*%
%TD*%
%TA.AperFunction,ComponentPad*%
%ADD25C,2.200000*%
%TD*%
%TA.AperFunction,ViaPad*%
%ADD26C,0.800000*%
%TD*%
%TA.AperFunction,Conductor*%
%ADD27C,0.600000*%
%TD*%
%TA.AperFunction,Conductor*%
%ADD28C,0.300000*%
%TD*%
G04 APERTURE END LIST*
D10*
%TO.P,TP7,1*%
%TO.N,GND*%
X95000000Y-10000000D03*
%TD*%
D11*
%TO.P,U1,1*%
%TO.N,A11*%
X40000000Y-17000000D03*
D12*
%TO.P,U1,2*%
%TO.N,A12*%
X40000000Y-19540000D03*
%TO.P,U1,3*%
%TO.N,A13*%
X40000000Y-22080000D03*
%TO.P,U1,4*%
%TO.N,A14*%
X40000000Y-24620000D03*
%TO.P,U1,5*%
%TO.N,A15*%
X40000000Y-27160000D03*
%TO.P,U1,6*%
%TO.N,Z80_CLK*%
X40000000Y-29700000D03*
%TO.P,U1,7*%
%TO.N,D4*%
X40000000Y-32240000D03*
%TO.P,U1,8*%
%TO.N,D3*%
X40000000Y-34780000D03*
%TO.P,U1,9*%
%TO.N,D5*%
X40000000Y-37320000D03*
%TO.P,U1,10*%
%TO.N,D6*%
X40000000Y-39860000D03*
%TO.P,U1,11*%
%TO.N,+5V*%
X40000000Y-42400000D03*
%TO.P,U1,12*%
%TO.N,D2*%
X40000000Y-44940000D03*
%TO.P,U1,13*%
%TO.N,D7*%
X40000000Y-47480000D03*
%TO.P,U1,14*%
%TO.N,D0*%
X40000000Y-50020000D03*
%TO.P,U1,15*%
%TO.N,D1*%
X40000000Y-52560000D03*
%TO.P,U1,16*%
%TO.N,INT_N*%
X40000000Y-55100000D03*
%TO.P,U1,17*%
%TO.N,NMI_N*%
X40000000Y-57640000D03*
%TO.P,U1,18*%
%TO.N,N/C*%
X40000000Y-60180000D03*
%TO.P,U1,19*%
%TO.N,MREQ_N*%
X40000000Y-62720000D03*
%TO.P,U1,20*%
%TO.N,IORQ_N*%
X40000000Y-65260000D03*
%TO.P,U1,21*%
%TO.N,RD_N*%
X55240000Y-65260000D03*
%TO.P,U1,22*%
%TO.N,WR_N*%
X55240000Y-62720000D03*
%TO.P,U1,23*%
%TO.N,BUSACK_N*%
X55240000Y-60180000D03*
%TO.P,U1,24*%
%TO.N,WAIT_N*%
X55240000Y-57640000D03*
%TO.P,U1,25*%
%TO.N,BUSREQ_N*%
X55240000Y-55100000D03*
%TO.P,U1,26*%
%TO.N,RESET_N*%
X55240000Y-52560000D03*
%TO.P,U1,27*%
%TO.N,M1_N*%
X55240000Y-50020000D03*
%TO.P,U1,28*%
%TO.N,N/C*%
X55240000Y-47480000D03*
%TO.P,U1,29*%
%TO.N,GND*%
X55240000Y-44940000D03*
%TO.P,U1,30*%
%TO.N,A0*%
X55240000Y-42400000D03*
%TO.P,U1,31*%
%TO.N,A1*%
X55240000Y-39860000D03*
%TO.P,U1,32*%
%TO.N,A2*%
X55240000Y-37320000D03*
%TO.P,U1,33*%
%TO.N,A3*%
X55240000Y-34780000D03*
%TO.P,U1,34*%
%TO.N,A4*%
X55240000Y-32240000D03*
%TO.P,U1,35*%
%TO.N,A5*%
X55240000Y-29700000D03*
%TO.P,U1,36*%
%TO.N,A6*%
X55240000Y-27160000D03*
%TO.P,U1,37*%
%TO.N,A7*%
X55240000Y-24620000D03*
%TO.P,U1,38*%
%TO.N,A8*%
X55240000Y-22080000D03*
%TO.P,U1,39*%
%TO.N,A9*%
X55240000Y-19540000D03*
%TO.P,U1,40*%
%TO.N,A10*%
X55240000Y-17000000D03*
%TD*%
%TO.P,R26,1*%
%TO.N,ADDR_ENABLE*%
X84000000Y-105000000D03*
%TO.P,R26,2*%
%TO.N,GND*%
X84000000Y-94840000D03*
%TD*%
D13*
%TO.P,U4,1*%
%TO.N,GND*%
X58000000Y-70000000D03*
D12*
%TO.P,U4,2*%
%TO.N,PICO_CLK*%
X60540000Y-70000000D03*
%TO.P,U4,3*%
%TO.N,SRAM_CE_N*%
X63080000Y-70000000D03*
%TO.P,U4,4*%
%TO.N,PICO_BUSREQ_N*%
X65620000Y-70000000D03*
%TO.P,U4,5*%
%TO.N,SRAM_OE_N*%
X68160000Y-70000000D03*
%TO.P,U4,6*%
%TO.N,PICO_SPI_CS_N*%
X70700000Y-70000000D03*
%TO.P,U4,7*%
%TO.N,SRAM_WE_N*%
X73240000Y-70000000D03*
%TO.P,U4,8*%
%TO.N,PICO_SPI_SCK*%
X75780000Y-70000000D03*
%TO.P,U4,9*%
%TO.N,MCP_SI*%
X78320000Y-70000000D03*
%TO.P,U4,10*%
%TO.N,GND*%
X80860000Y-70000000D03*
%TO.P,U4,11*%
%TO.N,PICO_SPI_MOSI*%
X80860000Y-62380000D03*
%TO.P,U4,12*%
%TO.N,MCP_SCK*%
X78320000Y-62380000D03*
%TO.P,U4,13*%
%TO.N,SRAM_WE_PRE_N*%
X75780000Y-62380000D03*
%TO.P,U4,14*%
%TO.N,MCP_CS_N*%
X73240000Y-62380000D03*
%TO.P,U4,15*%
%TO.N,SRAM_OE_PRE_N*%
X70700000Y-62380000D03*
%TO.P,U4,16*%
%TO.N,BUSREQ_N*%
X68160000Y-62380000D03*
%TO.P,U4,17*%
%TO.N,SRAM_CE_PRE_N*%
X65620000Y-62380000D03*
%TO.P,U4,18*%
%TO.N,Z80_CLK*%
X63080000Y-62380000D03*
%TO.P,U4,19*%
%TO.N,GND*%
X60540000Y-62380000D03*
%TO.P,U4,20*%
%TO.N,+5V*%
X58000000Y-62380000D03*
%TD*%
D11*
%TO.P,U9,1*%
%TO.N,+5V*%
X105000000Y-55000000D03*
D12*
%TO.P,U9,2*%
%TO.N,PICO_D0*%
X105000000Y-57540000D03*
%TO.P,U9,3*%
%TO.N,PICO_D1*%
X105000000Y-60080000D03*
%TO.P,U9,4*%
%TO.N,PICO_D2*%
X105000000Y-62620000D03*
%TO.P,U9,5*%
%TO.N,PICO_D3*%
X105000000Y-65160000D03*
%TO.P,U9,6*%
%TO.N,PICO_D4*%
X105000000Y-67700000D03*
%TO.P,U9,7*%
%TO.N,PICO_D5*%
X105000000Y-70240000D03*
%TO.P,U9,8*%
%TO.N,PICO_D6*%
X105000000Y-72780000D03*
%TO.P,U9,9*%
%TO.N,PICO_D7*%
X105000000Y-75320000D03*
%TO.P,U9,10*%
%TO.N,GND*%
X105000000Y-77860000D03*
%TO.P,U9,11*%
%TO.N,D7*%
X112620000Y-77860000D03*
%TO.P,U9,12*%
%TO.N,D6*%
X112620000Y-75320000D03*
%TO.P,U9,13*%
%TO.N,D5*%
X112620000Y-72780000D03*
%TO.P,U9,14*%
%TO.N,D4*%
X112620000Y-70240000D03*
%TO.P,U9,15*%
%TO.N,D3*%
X112620000Y-67700000D03*
%TO.P,U9,16*%
%TO.N,D2*%
X112620000Y-65160000D03*
%TO.P,U9,17*%
%TO.N,D1*%
X112620000Y-62620000D03*
%TO.P,U9,18*%
%TO.N,D0*%
X112620000Y-60080000D03*
%TO.P,U9,19*%
%TO.N,DATA_UP_OE_N*%
X112620000Y-57540000D03*
%TO.P,U9,20*%
%TO.N,+5V*%
X112620000Y-55000000D03*
%TD*%
%TO.P,C1,1*%
%TO.N,+5V*%
X34000000Y-42500000D03*
%TO.P,C1,2*%
%TO.N,GND*%
X36500000Y-42500000D03*
%TD*%
D14*
%TO.P,A1,1*%
%TO.N,PICO_BUSACK_N*%
X7800000Y-134000000D03*
D12*
%TO.P,A1,2*%
%TO.N,PICO_IORQ_N*%
X10340000Y-134000000D03*
D15*
%TO.P,A1,3*%
%TO.N,GND*%
X12880000Y-134000000D03*
D12*
%TO.P,A1,4*%
%TO.N,PICO_CLK*%
X15420000Y-134000000D03*
%TO.P,A1,5*%
%TO.N,RESET_N*%
X17960000Y-134000000D03*
%TO.P,A1,6*%
%TO.N,PICO_BUSREQ_N*%
X20500000Y-134000000D03*
%TO.P,A1,7*%
%TO.N,PICO_CE_N*%
X23040000Y-134000000D03*
D15*
%TO.P,A1,8*%
%TO.N,GND*%
X25580000Y-134000000D03*
D12*
%TO.P,A1,9*%
%TO.N,DATA_DIR*%
X28120000Y-134000000D03*
%TO.P,A1,10*%
%TO.N,DATA_ENABLE*%
X30660000Y-134000000D03*
%TO.P,A1,11*%
%TO.N,N/C*%
X33200000Y-134000000D03*
%TO.P,A1,12*%
%TO.N,ADDR_ENABLE*%
X35740000Y-134000000D03*
D15*
%TO.P,A1,13*%
%TO.N,GND*%
X38280000Y-134000000D03*
D12*
%TO.P,A1,14*%
%TO.N,PICO_D0*%
X40820000Y-134000000D03*
%TO.P,A1,15*%
%TO.N,PICO_D1*%
X43360000Y-134000000D03*
%TO.P,A1,16*%
%TO.N,PICO_D2*%
X45900000Y-134000000D03*
%TO.P,A1,17*%
%TO.N,PICO_D3*%
X48440000Y-134000000D03*
D15*
%TO.P,A1,18*%
%TO.N,GND*%
X50980000Y-134000000D03*
D12*
%TO.P,A1,19*%
%TO.N,PICO_D4*%
X53520000Y-134000000D03*
%TO.P,A1,20*%
%TO.N,PICO_D5*%
X56060000Y-134000000D03*
%TO.P,A1,21*%
%TO.N,PICO_D6*%
X56060000Y-116220000D03*
%TO.P,A1,22*%
%TO.N,PICO_D7*%
X53520000Y-116220000D03*
D16*
%TO.P,A1,23*%
%TO.N,GND*%
X50980000Y-116220000D03*
D12*
%TO.P,A1,24*%
%TO.N,PICO_SPI_SCK*%
X48440000Y-116220000D03*
%TO.P,A1,25*%
%TO.N,PICO_SPI_MOSI*%
X45900000Y-116220000D03*
%TO.P,A1,26*%
%TO.N,PICO_SPI_MISO*%
X43360000Y-116220000D03*
%TO.P,A1,27*%
%TO.N,PICO_SPI_CS_N*%
X40820000Y-116220000D03*
D16*
%TO.P,A1,28*%
%TO.N,GND*%
X38280000Y-116220000D03*
D12*
%TO.P,A1,29*%
%TO.N,PICO_WE_N*%
X35740000Y-116220000D03*
%TO.P,A1,30*%
%TO.N,N/C*%
X33200000Y-116220000D03*
%TO.P,A1,31*%
%TO.N,PICO_OE_N*%
X30660000Y-116220000D03*
%TO.P,A1,32*%
%TO.N,PICO_RD_N*%
X28120000Y-116220000D03*
D16*
%TO.P,A1,33*%
%TO.N,GND*%
X25580000Y-116220000D03*
D12*
%TO.P,A1,34*%
%TO.N,PICO_WR_N*%
X23040000Y-116220000D03*
%TO.P,A1,35*%
%TO.N,N/C*%
X20500000Y-116220000D03*
%TO.P,A1,36*%
%TO.N,+3V3*%
X17960000Y-116220000D03*
%TO.P,A1,37*%
%TO.N,N/C*%
X15420000Y-116220000D03*
D16*
%TO.P,A1,38*%
%TO.N,GND*%
X12880000Y-116220000D03*
D12*
%TO.P,A1,39*%
%TO.N,VSYS*%
X10340000Y-116220000D03*
%TO.P,A1,40*%
%TO.N,N/C*%
X7800000Y-116220000D03*
%TD*%
D10*
%TO.P,TP1,1*%
%TO.N,M1_N*%
X43000000Y-10000000D03*
%TD*%
%TO.P,TP5,1*%
%TO.N,BUSREQ_N*%
X81000000Y-10000000D03*
%TD*%
D17*
%TO.P,C12,1*%
%TO.N,+5V*%
X27000000Y-12000000D03*
D18*
%TO.P,C12,2*%
%TO.N,GND*%
X32000000Y-12000000D03*
%TD*%
D12*
%TO.P,R30,1*%
%TO.N,MCP_RESET_BASE*%
X118000000Y-135000000D03*
%TO.P,R30,2*%
%TO.N,GND*%
X118000000Y-124840000D03*
%TD*%
D10*
%TO.P,TP2,1*%
%TO.N,Z80_CLK*%
X85000000Y-68000000D03*
%TD*%
D11*
%TO.P,U3,1*%
%TO.N,RESET_N*%
X94000000Y-22000000D03*
D12*
%TO.P,U3,2*%
%TO.N,BUSACK_N*%
X94000000Y-24540000D03*
%TO.P,U3,3*%
%TO.N,PICO_WE_N*%
X94000000Y-27080000D03*
%TO.P,U3,4*%
%TO.N,WR_N*%
X94000000Y-29620000D03*
%TO.P,U3,5*%
%TO.N,PICO_OE_N*%
X94000000Y-32160000D03*
%TO.P,U3,6*%
%TO.N,RD_N*%
X94000000Y-34700000D03*
%TO.P,U3,7*%
%TO.N,PICO_CE_N*%
X94000000Y-37240000D03*
%TO.P,U3,8*%
%TO.N,MREQ_N*%
X94000000Y-39780000D03*
%TO.P,U3,9*%
%TO.N,DATA_ENABLE*%
X94000000Y-42320000D03*
%TO.P,U3,10*%
%TO.N,ADDR_ENABLE*%
X94000000Y-44860000D03*
%TO.P,U3,11*%
%TO.N,DATA_DIR*%
X94000000Y-47400000D03*
%TO.P,U3,12*%
%TO.N,GND*%
X94000000Y-49940000D03*
%TO.P,U3,13*%
%TO.N,IORQ_N*%
X101620000Y-49940000D03*
%TO.P,U3,14*%
%TO.N,SRAM_WE_PRE_N*%
X101620000Y-47400000D03*
%TO.P,U3,15*%
%TO.N,SRAM_OE_PRE_N*%
X101620000Y-44860000D03*
%TO.P,U3,16*%
%TO.N,SRAM_CE_PRE_N*%
X101620000Y-42320000D03*
%TO.P,U3,17*%
%TO.N,DATA_UP_OE_N*%
X101620000Y-39780000D03*
%TO.P,U3,18*%
%TO.N,DATA_DOWN_OE_N*%
X101620000Y-37240000D03*
%TO.P,U3,19*%
%TO.N,MCP_RESET_DRIVE*%
X101620000Y-34700000D03*
%TO.P,U3,20*%
%TO.N,WAIT_N*%
X101620000Y-32160000D03*
%TO.P,U3,21*%
%TO.N,N/C*%
X101620000Y-29620000D03*
%TO.P,U3,22*%
X101620000Y-27080000D03*
%TO.P,U3,23*%
X101620000Y-24540000D03*
%TO.P,U3,24*%
%TO.N,+5V*%
X101620000Y-22000000D03*
%TD*%
%TO.P,R19,1*%
%TO.N,PICO_SPI_CS_N*%
X123000000Y-94000000D03*
%TO.P,R19,2*%
%TO.N,+3V3*%
X123000000Y-83840000D03*
%TD*%
%TO.P,C8,1*%
%TO.N,+3V3*%
X134200000Y-55000000D03*
%TO.P,C8,2*%
%TO.N,GND*%
X134200000Y-52500000D03*
%TD*%
%TO.P,R20,1*%
%TO.N,PICO_WE_N*%
X132000000Y-94000000D03*
%TO.P,R20,2*%
%TO.N,+3V3*%
X132000000Y-83840000D03*
%TD*%
D11*
%TO.P,U2,1*%
%TO.N,N/C*%
X10000000Y-22000000D03*
D12*
%TO.P,U2,2*%
%TO.N,GND*%
X10000000Y-24540000D03*
%TO.P,U2,3*%
%TO.N,A14*%
X10000000Y-27080000D03*
%TO.P,U2,4*%
%TO.N,A12*%
X10000000Y-29620000D03*
%TO.P,U2,5*%
%TO.N,A7*%
X10000000Y-32160000D03*
%TO.P,U2,6*%
%TO.N,A6*%
X10000000Y-34700000D03*
%TO.P,U2,7*%
%TO.N,A5*%
X10000000Y-37240000D03*
%TO.P,U2,8*%
%TO.N,A4*%
X10000000Y-39780000D03*
%TO.P,U2,9*%
%TO.N,A3*%
X10000000Y-42320000D03*
%TO.P,U2,10*%
%TO.N,A2*%
X10000000Y-44860000D03*
%TO.P,U2,11*%
%TO.N,A1*%
X10000000Y-47400000D03*
%TO.P,U2,12*%
%TO.N,A0*%
X10000000Y-49940000D03*
%TO.P,U2,13*%
%TO.N,D0*%
X10000000Y-52480000D03*
%TO.P,U2,14*%
%TO.N,D1*%
X10000000Y-55020000D03*
%TO.P,U2,15*%
%TO.N,D2*%
X10000000Y-57560000D03*
%TO.P,U2,16*%
%TO.N,GND*%
X10000000Y-60100000D03*
%TO.P,U2,17*%
%TO.N,D3*%
X25240000Y-60100000D03*
%TO.P,U2,18*%
%TO.N,D4*%
X25240000Y-57560000D03*
%TO.P,U2,19*%
%TO.N,D5*%
X25240000Y-55020000D03*
%TO.P,U2,20*%
%TO.N,D6*%
X25240000Y-52480000D03*
%TO.P,U2,21*%
%TO.N,D7*%
X25240000Y-49940000D03*
%TO.P,U2,22*%
%TO.N,SRAM_CE_N*%
X25240000Y-47400000D03*
%TO.P,U2,23*%
%TO.N,A10*%
X25240000Y-44860000D03*
%TO.P,U2,24*%
%TO.N,SRAM_OE_N*%
X25240000Y-42320000D03*
%TO.P,U2,25*%
%TO.N,A11*%
X25240000Y-39780000D03*
%TO.P,U2,26*%
%TO.N,A9*%
X25240000Y-37240000D03*
%TO.P,U2,27*%
%TO.N,A8*%
X25240000Y-34700000D03*
%TO.P,U2,28*%
%TO.N,A13*%
X25240000Y-32160000D03*
%TO.P,U2,29*%
%TO.N,SRAM_WE_N*%
X25240000Y-29620000D03*
%TO.P,U2,30*%
%TO.N,+5V*%
X25240000Y-27080000D03*
%TO.P,U2,31*%
%TO.N,A15*%
X25240000Y-24540000D03*
%TO.P,U2,32*%
%TO.N,+5V*%
X25240000Y-22000000D03*
%TD*%
D19*
%TO.P,RN4,1*%
%TO.N,+5V*%
X30000000Y-90000000D03*
D12*
%TO.P,RN4,2*%
%TO.N,BUSREQ_N*%
X32540000Y-90000000D03*
%TO.P,RN4,3*%
%TO.N,BUSACK_N*%
X35080000Y-90000000D03*
%TO.P,RN4,4*%
%TO.N,MREQ_N*%
X37620000Y-90000000D03*
%TO.P,RN4,5*%
%TO.N,IORQ_N*%
X40160000Y-90000000D03*
%TO.P,RN4,6*%
%TO.N,RD_N*%
X42700000Y-90000000D03*
%TO.P,RN4,7*%
%TO.N,WR_N*%
X45240000Y-90000000D03*
%TO.P,RN4,8*%
%TO.N,INT_N*%
X47780000Y-90000000D03*
%TO.P,RN4,9*%
%TO.N,NMI_N*%
X50320000Y-90000000D03*
%TD*%
%TO.P,R23,1*%
%TO.N,RESET_N*%
X110000000Y-115000000D03*
%TO.P,R23,2*%
%TO.N,GND*%
X110000000Y-104840000D03*
%TD*%
%TO.P,C3,1*%
%TO.N,+5V*%
X105000000Y-30000000D03*
%TO.P,C3,2*%
%TO.N,GND*%
X107500000Y-30000000D03*
%TD*%
%TO.P,R18,1*%
%TO.N,PICO_CE_N*%
X114000000Y-94000000D03*
%TO.P,R18,2*%
%TO.N,+3V3*%
X114000000Y-83840000D03*
%TD*%
%TO.P,R31,1*%
%TO.N,MCP_RESET_N*%
X126000000Y-135000000D03*
%TO.P,R31,2*%
%TO.N,+5V*%
X126000000Y-124840000D03*
%TD*%
D20*
%TO.P,J1,1*%
%TO.N,+5V*%
X16000000Y-13000000D03*
D21*
%TO.P,J1,2*%
%TO.N,GND*%
X21000000Y-13000000D03*
%TD*%
D12*
%TO.P,C5,1*%
%TO.N,+3V3*%
X155000000Y-55000000D03*
%TO.P,C5,2*%
%TO.N,GND*%
X155000000Y-52500000D03*
%TD*%
%TO.P,R21,1*%
%TO.N,PICO_OE_N*%
X141000000Y-94000000D03*
%TO.P,R21,2*%
%TO.N,+3V3*%
X141000000Y-83840000D03*
%TD*%
D22*
%TO.P,Q1,1*%
%TO.N,GND*%
X86000000Y-62000000D03*
D23*
%TO.P,Q1,2*%
%TO.N,MCP_RESET_BASE*%
X87270000Y-62000000D03*
%TO.P,Q1,3*%
%TO.N,MCP_RESET_N*%
X88540000Y-62000000D03*
%TD*%
D10*
%TO.P,TP4,1*%
%TO.N,WAIT_N*%
X74000000Y-10000000D03*
%TD*%
D11*
%TO.P,U10,1*%
%TO.N,GND*%
X124000000Y-55000000D03*
D12*
%TO.P,U10,2*%
%TO.N,PICO_D0*%
X124000000Y-57540000D03*
%TO.P,U10,3*%
%TO.N,PICO_D1*%
X124000000Y-60080000D03*
%TO.P,U10,4*%
%TO.N,PICO_D2*%
X124000000Y-62620000D03*
%TO.P,U10,5*%
%TO.N,PICO_D3*%
X124000000Y-65160000D03*
%TO.P,U10,6*%
%TO.N,PICO_D4*%
X124000000Y-67700000D03*
%TO.P,U10,7*%
%TO.N,PICO_D5*%
X124000000Y-70240000D03*
%TO.P,U10,8*%
%TO.N,PICO_D6*%
X124000000Y-72780000D03*
%TO.P,U10,9*%
%TO.N,PICO_D7*%
X124000000Y-75320000D03*
%TO.P,U10,10*%
%TO.N,GND*%
X124000000Y-77860000D03*
%TO.P,U10,11*%
%TO.N,D7*%
X131620000Y-77860000D03*
%TO.P,U10,12*%
%TO.N,D6*%
X131620000Y-75320000D03*
%TO.P,U10,13*%
%TO.N,D5*%
X131620000Y-72780000D03*
%TO.P,U10,14*%
%TO.N,D4*%
X131620000Y-70240000D03*
%TO.P,U10,15*%
%TO.N,D3*%
X131620000Y-67700000D03*
%TO.P,U10,16*%
%TO.N,D2*%
X131620000Y-65160000D03*
%TO.P,U10,17*%
%TO.N,D1*%
X131620000Y-62620000D03*
%TO.P,U10,18*%
%TO.N,D0*%
X131620000Y-60080000D03*
%TO.P,U10,19*%
%TO.N,DATA_DOWN_OE_N*%
X131620000Y-57540000D03*
%TO.P,U10,20*%
%TO.N,+3V3*%
X131620000Y-55000000D03*
%TD*%
D11*
%TO.P,U7,1*%
%TO.N,GND*%
X143000000Y-55000000D03*
D12*
%TO.P,U7,2*%
%TO.N,BUSACK_N*%
X143000000Y-57540000D03*
%TO.P,U7,3*%
%TO.N,N/C*%
X143000000Y-60080000D03*
%TO.P,U7,4*%
%TO.N,IORQ_N*%
X143000000Y-62620000D03*
%TO.P,U7,5*%
%TO.N,N/C*%
X143000000Y-65160000D03*
%TO.P,U7,6*%
%TO.N,RD_N*%
X143000000Y-67700000D03*
%TO.P,U7,7*%
%TO.N,N/C*%
X143000000Y-70240000D03*
%TO.P,U7,8*%
%TO.N,WR_N*%
X143000000Y-72780000D03*
%TO.P,U7,9*%
%TO.N,PICO_SPI_MISO*%
X143000000Y-75320000D03*
%TO.P,U7,10*%
%TO.N,GND*%
X143000000Y-77860000D03*
%TO.P,U7,11*%
%TO.N,MCP_SO*%
X150620000Y-77860000D03*
%TO.P,U7,12*%
%TO.N,PICO_WR_N*%
X150620000Y-75320000D03*
%TO.P,U7,13*%
%TO.N,GND*%
X150620000Y-72780000D03*
%TO.P,U7,14*%
%TO.N,PICO_RD_N*%
X150620000Y-70240000D03*
%TO.P,U7,15*%
%TO.N,GND*%
X150620000Y-67700000D03*
%TO.P,U7,16*%
%TO.N,PICO_IORQ_N*%
X150620000Y-65160000D03*
%TO.P,U7,17*%
%TO.N,GND*%
X150620000Y-62620000D03*
%TO.P,U7,18*%
%TO.N,PICO_BUSACK_N*%
X150620000Y-60080000D03*
%TO.P,U7,19*%
%TO.N,GND*%
X150620000Y-57540000D03*
%TO.P,U7,20*%
%TO.N,+3V3*%
X150620000Y-55000000D03*
%TD*%
D10*
%TO.P,TP6,1*%
%TO.N,BUSACK_N*%
X88000000Y-10000000D03*
%TD*%
D11*
%TO.P,U8,1*%
%TO.N,A8*%
X78000000Y-22000000D03*
D12*
%TO.P,U8,2*%
%TO.N,A9*%
X78000000Y-24540000D03*
%TO.P,U8,3*%
%TO.N,A10*%
X78000000Y-27080000D03*
%TO.P,U8,4*%
%TO.N,A11*%
X78000000Y-29620000D03*
%TO.P,U8,5*%
%TO.N,A12*%
X78000000Y-32160000D03*
%TO.P,U8,6*%
%TO.N,A13*%
X78000000Y-34700000D03*
%TO.P,U8,7*%
%TO.N,A14*%
X78000000Y-37240000D03*
%TO.P,U8,8*%
%TO.N,A15*%
X78000000Y-39780000D03*
%TO.P,U8,9*%
%TO.N,+5V*%
X78000000Y-42320000D03*
%TO.P,U8,10*%
%TO.N,GND*%
X78000000Y-44860000D03*
%TO.P,U8,11*%
%TO.N,MCP_CS_N*%
X78000000Y-47400000D03*
%TO.P,U8,12*%
%TO.N,MCP_SCK*%
X78000000Y-49940000D03*
%TO.P,U8,13*%
%TO.N,MCP_SI*%
X78000000Y-52480000D03*
%TO.P,U8,14*%
%TO.N,MCP_SO*%
X78000000Y-55020000D03*
%TO.P,U8,15*%
%TO.N,GND*%
X85620000Y-55020000D03*
%TO.P,U8,16*%
X85620000Y-52480000D03*
%TO.P,U8,17*%
X85620000Y-49940000D03*
%TO.P,U8,18*%
%TO.N,MCP_RESET_N*%
X85620000Y-47400000D03*
%TO.P,U8,19*%
%TO.N,N/C*%
X85620000Y-44860000D03*
%TO.P,U8,20*%
X85620000Y-42320000D03*
%TO.P,U8,21*%
%TO.N,A0*%
X85620000Y-39780000D03*
%TO.P,U8,22*%
%TO.N,A1*%
X85620000Y-37240000D03*
%TO.P,U8,23*%
%TO.N,A2*%
X85620000Y-34700000D03*
%TO.P,U8,24*%
%TO.N,A3*%
X85620000Y-32160000D03*
%TO.P,U8,25*%
%TO.N,A4*%
X85620000Y-29620000D03*
%TO.P,U8,26*%
%TO.N,A5*%
X85620000Y-27080000D03*
%TO.P,U8,27*%
%TO.N,A6*%
X85620000Y-24540000D03*
%TO.P,U8,28*%
%TO.N,A7*%
X85620000Y-22000000D03*
%TD*%
%TO.P,R27,1*%
%TO.N,PICO_SPI_SCK*%
X142000000Y-115000000D03*
%TO.P,R27,2*%
%TO.N,GND*%
X142000000Y-104840000D03*
%TD*%
D19*
%TO.P,RN3,1*%
%TO.N,GND*%
X82000000Y-137000000D03*
D12*
%TO.P,RN3,2*%
%TO.N,PICO_D0*%
X84540000Y-137000000D03*
%TO.P,RN3,3*%
%TO.N,PICO_D1*%
X87080000Y-137000000D03*
%TO.P,RN3,4*%
%TO.N,PICO_D2*%
X89620000Y-137000000D03*
%TO.P,RN3,5*%
%TO.N,PICO_D3*%
X92160000Y-137000000D03*
%TO.P,RN3,6*%
%TO.N,PICO_D4*%
X94700000Y-137000000D03*
%TO.P,RN3,7*%
%TO.N,PICO_D5*%
X97240000Y-137000000D03*
%TO.P,RN3,8*%
%TO.N,PICO_D6*%
X99780000Y-137000000D03*
%TO.P,RN3,9*%
%TO.N,PICO_D7*%
X102320000Y-137000000D03*
%TD*%
D19*
%TO.P,RN2,1*%
%TO.N,+5V*%
X34000000Y-72000000D03*
D12*
%TO.P,RN2,2*%
%TO.N,A8*%
X36540000Y-72000000D03*
%TO.P,RN2,3*%
%TO.N,A9*%
X39080000Y-72000000D03*
%TO.P,RN2,4*%
%TO.N,A10*%
X41620000Y-72000000D03*
%TO.P,RN2,5*%
%TO.N,A11*%
X44160000Y-72000000D03*
%TO.P,RN2,6*%
%TO.N,A12*%
X46700000Y-72000000D03*
%TO.P,RN2,7*%
%TO.N,A13*%
X49240000Y-72000000D03*
%TO.P,RN2,8*%
%TO.N,A14*%
X51780000Y-72000000D03*
%TO.P,RN2,9*%
%TO.N,A15*%
X54320000Y-72000000D03*
%TD*%
%TO.P,R25,1*%
%TO.N,DATA_DIR*%
X76000000Y-105000000D03*
%TO.P,R25,2*%
%TO.N,GND*%
X76000000Y-94840000D03*
%TD*%
D11*
%TO.P,C10,1*%
%TO.N,+5V*%
X96000000Y-82000000D03*
D12*
%TO.P,C10,2*%
%TO.N,GND*%
X99500000Y-82000000D03*
%TD*%
%TO.P,C2,1*%
%TO.N,+5V*%
X28000000Y-22000000D03*
%TO.P,C2,2*%
%TO.N,GND*%
X30500000Y-22000000D03*
%TD*%
%TO.P,C6,1*%
%TO.N,+5V*%
X71000000Y-43000000D03*
%TO.P,C6,2*%
%TO.N,GND*%
X73500000Y-43000000D03*
%TD*%
D19*
%TO.P,RN1,1*%
%TO.N,+5V*%
X8000000Y-67000000D03*
D12*
%TO.P,RN1,2*%
%TO.N,A0*%
X10540000Y-67000000D03*
%TO.P,RN1,3*%
%TO.N,A1*%
X13080000Y-67000000D03*
%TO.P,RN1,4*%
%TO.N,A2*%
X15620000Y-67000000D03*
%TO.P,RN1,5*%
%TO.N,A3*%
X18160000Y-67000000D03*
%TO.P,RN1,6*%
%TO.N,A4*%
X20700000Y-67000000D03*
%TO.P,RN1,7*%
%TO.N,A5*%
X23240000Y-67000000D03*
%TO.P,RN1,8*%
%TO.N,A6*%
X25780000Y-67000000D03*
%TO.P,RN1,9*%
%TO.N,A7*%
X28320000Y-67000000D03*
%TD*%
D11*
%TO.P,C11,1*%
%TO.N,+5V*%
X158000000Y-82000000D03*
D12*
%TO.P,C11,2*%
%TO.N,GND*%
X161500000Y-82000000D03*
%TD*%
%TO.P,R24,1*%
%TO.N,DATA_ENABLE*%
X68000000Y-105000000D03*
%TO.P,R24,2*%
%TO.N,GND*%
X68000000Y-94840000D03*
%TD*%
%TO.P,C7,1*%
%TO.N,+5V*%
X115200000Y-55000000D03*
%TO.P,C7,2*%
%TO.N,GND*%
X115200000Y-52500000D03*
%TD*%
%TO.P,R17,1*%
%TO.N,PICO_BUSREQ_N*%
X105000000Y-94000000D03*
%TO.P,R17,2*%
%TO.N,+3V3*%
X105000000Y-83840000D03*
%TD*%
D11*
%TO.P,C9,1*%
%TO.N,+5V*%
X32000000Y-61000000D03*
D12*
%TO.P,C9,2*%
%TO.N,GND*%
X35500000Y-61000000D03*
%TD*%
%TO.P,R29,1*%
%TO.N,MCP_RESET_DRIVE*%
X110000000Y-135000000D03*
%TO.P,R29,2*%
%TO.N,MCP_RESET_BASE*%
X110000000Y-124840000D03*
%TD*%
%TO.P,R28,1*%
%TO.N,PICO_SPI_MOSI*%
X150000000Y-115000000D03*
%TO.P,R28,2*%
%TO.N,GND*%
X150000000Y-104840000D03*
%TD*%
D19*
%TO.P,RN5,1*%
%TO.N,+5V*%
X72000000Y-90000000D03*
D12*
%TO.P,RN5,2*%
%TO.N,MCP_SO*%
X74540000Y-90000000D03*
%TO.P,RN5,3*%
%TO.N,SRAM_CE_N*%
X77080000Y-90000000D03*
%TO.P,RN5,4*%
%TO.N,SRAM_OE_N*%
X79620000Y-90000000D03*
%TO.P,RN5,5*%
%TO.N,SRAM_WE_N*%
X82160000Y-90000000D03*
%TO.P,RN5,6*%
%TO.N,WAIT_N*%
X84700000Y-90000000D03*
%TO.P,RN5,7*%
%TO.N,SRAM_WE_PRE_N*%
X87240000Y-90000000D03*
%TO.P,RN5,8*%
%TO.N,SRAM_OE_PRE_N*%
X89780000Y-90000000D03*
%TO.P,RN5,9*%
%TO.N,SRAM_CE_PRE_N*%
X92320000Y-90000000D03*
%TD*%
%TO.P,C4,1*%
%TO.N,+5V*%
X58000000Y-59000000D03*
%TO.P,C4,2*%
%TO.N,GND*%
X60500000Y-59000000D03*
%TD*%
%TO.P,R22,1*%
%TO.N,PICO_CLK*%
X60000000Y-105000000D03*
%TO.P,R22,2*%
%TO.N,GND*%
X60000000Y-94840000D03*
%TD*%
D10*
%TO.P,TP3,1*%
%TO.N,RESET_N*%
X50000000Y-10000000D03*
%TD*%
D24*
%TO.P,D1,1*%
%TO.N,VSYS*%
X15000000Y-105000000D03*
D25*
%TO.P,D1,2*%
%TO.N,+5V*%
X25160000Y-105000000D03*
%TD*%
D26*
%TO.N,A0*%
X47215000Y-42023700D03*
%TO.N,A1*%
X47217200Y-38416900D03*
%TO.N,A10*%
X30083200Y-32592600D03*
X30780400Y-58809900D03*
%TO.N,A11*%
X31387500Y-55694600D03*
X74923800Y-25116100D03*
X36810600Y-35451700D03*
%TO.N,A12*%
X75482700Y-30011200D03*
%TO.N,A14*%
X50302300Y-34722700D03*
%TO.N,A15*%
X53159800Y-40247100D03*
X49238900Y-29686000D03*
%TO.N,A2*%
X15681800Y-44860000D03*
X39162900Y-38500000D03*
%TO.N,A4*%
X48158400Y-30756200D03*
X38409700Y-28689400D03*
%TO.N,A6*%
X30267200Y-24581000D03*
%TO.N,A7*%
X27155000Y-24565400D03*
%TO.N,A8*%
X33446800Y-33252900D03*
%TO.N,A9*%
X30760600Y-63680600D03*
%TO.N,BUSACK_N*%
X50510000Y-77255100D03*
X97826500Y-25632600D03*
%TO.N,BUSREQ_N*%
X49338400Y-70507000D03*
%TO.N,D0*%
X57670800Y-53770000D03*
%TO.N,D1*%
X59184600Y-64412100D03*
X47193200Y-61583200D03*
%TO.N,D2*%
X50779600Y-50133500D03*
%TO.N,D3*%
X26835800Y-50162500D03*
X66638200Y-65650600D03*
X38993700Y-46012300D03*
X66037000Y-60830600D03*
X53289700Y-55080300D03*
%TO.N,D5*%
X99980400Y-76761600D03*
X29228400Y-75957100D03*
%TO.N,D6*%
X80929500Y-47906000D03*
X82758700Y-68812300D03*
X53049700Y-42952600D03*
%TO.N,D7*%
X50277900Y-53066900D03*
%TO.N,DATA_DIR*%
X55618500Y-107012200D03*
%TO.N,DATA_ENABLE*%
X88627900Y-102337600D03*
%TO.N,GND*%
X39256600Y-43657100D03*
X117388700Y-77370600D03*
%TO.N,IORQ_N*%
X63926500Y-56177700D03*
%TO.N,MCP_RESET_BASE*%
X86989200Y-67435800D03*
X108675500Y-75911400D03*
%TO.N,MCP_RESET_DRIVE*%
X120761900Y-118229200D03*
X110304500Y-52051800D03*
%TO.N,MCP_RESET_N*%
X106405800Y-67466800D03*
%TO.N,MCP_SO*%
X69529800Y-56610000D03*
X72177600Y-88405100D03*
X74540000Y-95611600D03*
%TO.N,PICO_BUSREQ_N*%
X65840200Y-92645900D03*
X31718900Y-107755000D03*
%TO.N,PICO_CE_N*%
X29390000Y-110437900D03*
%TO.N,PICO_D1*%
X53639000Y-136214500D03*
%TO.N,PICO_D3*%
X65509600Y-137781800D03*
%TO.N,PICO_D5*%
X117430500Y-70240000D03*
%TO.N,PICO_D7*%
X106824500Y-114567000D03*
%TO.N,PICO_OE_N*%
X94768000Y-100475500D03*
X47059100Y-114068600D03*
%TO.N,PICO_RD_N*%
X134250300Y-92788100D03*
%TO.N,PICO_SPI_CS_N*%
X70196600Y-92583500D03*
%TO.N,PICO_SPI_MOSI*%
X145745500Y-112443600D03*
X93254500Y-63184800D03*
X88647000Y-101255500D03*
%TO.N,PICO_SPI_SCK*%
X73279500Y-113964900D03*
%TO.N,PICO_WR_N*%
X43776400Y-112066900D03*
X141249900Y-76471700D03*
%TO.N,RD_N*%
X56777200Y-77253500D03*
%TO.N,RESET_N*%
X92106800Y-96462200D03*
X92027300Y-62695800D03*
X57871800Y-17503800D03*
%TO.N,SRAM_CE_N*%
X53928000Y-69699000D03*
%TO.N,SRAM_OE_PRE_N*%
X83706100Y-82906100D03*
%TO.N,SRAM_WE_N*%
X55974300Y-70675800D03*
X74337200Y-72422300D03*
X26966900Y-64116400D03*
%TO.N,WAIT_N*%
X76300100Y-33592200D03*
X64468300Y-61486200D03*
%TO.N,WR_N*%
X139538200Y-62679600D03*
%TO.N,Z80_CLK*%
X63080000Y-67184100D03*
%TD*%
%TO.N,+3V3*%
D27*
X132000000Y-83840000D02*
X134200000Y-81640000D01*
X134200000Y-81640000D02*
X134200000Y-55000000D01*
%TO.N,+5V*%
X34000000Y-72000000D02*
X34000000Y-73301700D01*
X32000000Y-61000000D02*
X32289200Y-60710800D01*
X32289200Y-60710800D02*
X32289200Y-42500000D01*
X71000000Y-46000000D02*
X71000000Y-43000000D01*
X25160000Y-105000000D02*
X30000000Y-100160000D01*
X28104200Y-24891400D02*
X28104200Y-22104200D01*
X30000000Y-77301700D02*
X30000000Y-90000000D01*
X27000000Y-21000000D02*
X28000000Y-22000000D01*
X32289200Y-33523400D02*
X25845800Y-27080000D01*
X25240000Y-27080000D02*
X25915600Y-27080000D01*
X30000000Y-100160000D02*
X30000000Y-90000000D01*
X58000000Y-59000000D02*
X58000000Y-62380000D01*
X32289200Y-42500000D02*
X32289200Y-33523400D01*
X105000000Y-44762700D02*
X105000000Y-30000000D01*
X32000000Y-61000000D02*
X32000000Y-68698300D01*
X96000000Y-82000000D02*
X96000000Y-64000000D01*
X96000000Y-64000000D02*
X105000000Y-55000000D01*
X25845800Y-27080000D02*
X25240000Y-27080000D01*
X27000000Y-12000000D02*
X27000000Y-21000000D01*
X25915600Y-27080000D02*
X28104200Y-24891400D01*
X115200000Y-55000000D02*
X115200000Y-54962700D01*
X32289200Y-42500000D02*
X34000000Y-42500000D01*
X28104200Y-22104200D02*
X28000000Y-22000000D01*
X34000000Y-72000000D02*
X34000000Y-70698300D01*
X34000000Y-73301700D02*
X30000000Y-77301700D01*
X58000000Y-59000000D02*
X71000000Y-46000000D01*
X32000000Y-68698300D02*
X34000000Y-70698300D01*
X115200000Y-54962700D02*
X105000000Y-44762700D01*
%TO.N,A0*%
D28*
X10540000Y-67000000D02*
X11730700Y-68190700D01*
X13522600Y-68190700D02*
X14246500Y-67466800D01*
X14246500Y-54186500D02*
X10000000Y-49940000D01*
X11730700Y-68190700D02*
X13522600Y-68190700D01*
X14246500Y-67466800D02*
X14246500Y-54186500D01*
%TO.N,A1*%
X13080000Y-67000000D02*
X8817200Y-62737200D01*
X8817200Y-48582800D02*
X10000000Y-47400000D01*
X8817200Y-62737200D02*
X8817200Y-48582800D01*
%TO.N,A10*%
X30635800Y-50255800D02*
X25240000Y-44860000D01*
X25240000Y-44860000D02*
X24078600Y-43698600D01*
X25623800Y-38510000D02*
X30083200Y-34050600D01*
X30635800Y-58665300D02*
X30635800Y-50255800D01*
X24873000Y-38510000D02*
X25623800Y-38510000D01*
X30083200Y-34050600D02*
X30083200Y-32592600D01*
X24078600Y-43698600D02*
X24078600Y-39304400D01*
X30780400Y-58809900D02*
X30635800Y-58665300D01*
X24078600Y-39304400D02*
X24873000Y-38510000D01*
%TO.N,A11*%
X31387500Y-55694600D02*
X31387500Y-45927500D01*
X36810600Y-20189400D02*
X40000000Y-17000000D01*
X31387500Y-45927500D02*
X25240000Y-39780000D01*
X78000000Y-29620000D02*
X74923800Y-26543800D01*
X36810600Y-35451700D02*
X36810600Y-20189400D01*
X74923800Y-26543800D02*
X74923800Y-25116100D01*
%TO.N,A12*%
X77631500Y-32160000D02*
X75482700Y-30011200D01*
X44555400Y-69855400D02*
X46700000Y-72000000D01*
X39584300Y-56370000D02*
X40459600Y-56370000D01*
X37658000Y-21882000D02*
X37658000Y-54443700D01*
X37658000Y-54443700D02*
X39584300Y-56370000D01*
X44555400Y-60465800D02*
X44555400Y-69855400D01*
X40459600Y-56370000D02*
X44555400Y-60465800D01*
X78000000Y-32160000D02*
X77631500Y-32160000D01*
X40000000Y-19540000D02*
X37658000Y-21882000D01*
%TO.N,A13*%
X48565700Y-71325700D02*
X48565700Y-31411900D01*
X49240000Y-72000000D02*
X48565700Y-71325700D01*
X48910100Y-30444900D02*
X40545200Y-22080000D01*
X48565700Y-31411900D02*
X48910100Y-31067500D01*
X48910100Y-31067500D02*
X48910100Y-30444900D01*
X40545200Y-22080000D02*
X40000000Y-22080000D01*
%TO.N,A14*%
X41553600Y-20904700D02*
X39445800Y-20904700D01*
X50302300Y-34722700D02*
X50302300Y-29653400D01*
X50302300Y-29653400D02*
X41553600Y-20904700D01*
X39445800Y-20904700D02*
X38783200Y-21567300D01*
X38783200Y-21567300D02*
X38783200Y-23403200D01*
X38783200Y-23403200D02*
X40000000Y-24620000D01*
%TO.N,A15*%
X49411800Y-36499100D02*
X49411800Y-29858900D01*
X53159800Y-40247100D02*
X49411800Y-36499100D01*
X49411800Y-29858900D02*
X49238900Y-29686000D01*
%TO.N,A3*%
X11151700Y-43471700D02*
X11151700Y-50125000D01*
X10000000Y-42320000D02*
X11151700Y-43471700D01*
X11151700Y-50125000D02*
X18160000Y-57133300D01*
X18160000Y-57133300D02*
X18160000Y-67000000D01*
%TO.N,A4*%
X47862900Y-31051700D02*
X39414200Y-31051700D01*
X11937000Y-50116100D02*
X18735000Y-56914100D01*
X10000000Y-39780000D02*
X11937000Y-41717000D01*
X39414200Y-31051700D02*
X38409700Y-30047200D01*
X18735000Y-56914100D02*
X18735000Y-65035000D01*
X18735000Y-65035000D02*
X20700000Y-67000000D01*
X38409700Y-30047200D02*
X38409700Y-28689400D01*
X48158400Y-30756200D02*
X47862900Y-31051700D01*
X11937000Y-41717000D02*
X11937000Y-50116100D01*
%TO.N,A5*%
X23240000Y-67000000D02*
X19236700Y-62996700D01*
X19236700Y-46476700D02*
X10000000Y-37240000D01*
X19236700Y-62996700D02*
X19236700Y-46476700D01*
%TO.N,A6*%
X19738400Y-60958400D02*
X19738400Y-44438400D01*
X19738400Y-44438400D02*
X10000000Y-34700000D01*
X25780000Y-67000000D02*
X19738400Y-60958400D01*
%TO.N,A7*%
X23027900Y-45897300D02*
X23027900Y-61707900D01*
X23027900Y-61707900D02*
X28320000Y-67000000D01*
X10000000Y-32869400D02*
X23027900Y-45897300D01*
X10000000Y-32160000D02*
X10000000Y-32869400D01*
%TO.N,A8*%
X35192700Y-51472400D02*
X35192700Y-34998800D01*
X34333800Y-69793800D02*
X34333800Y-52331300D01*
X36540000Y-72000000D02*
X34333800Y-69793800D01*
X35192700Y-34998800D02*
X33446800Y-33252900D01*
X34333800Y-52331300D02*
X35192700Y-51472400D01*
%TO.N,A9*%
X27998800Y-60918800D02*
X27998800Y-48429100D01*
X27998800Y-48429100D02*
X25581400Y-46011700D01*
X23565600Y-38914400D02*
X25240000Y-37240000D01*
X25581400Y-46011700D02*
X24747000Y-46011700D01*
X24747000Y-46011700D02*
X23565600Y-44830300D01*
X23565600Y-44830300D02*
X23565600Y-38914400D01*
X30760600Y-63680600D02*
X27998800Y-60918800D01*
%TO.N,ADDR_ENABLE*%
X95163200Y-46023200D02*
X95163200Y-50504300D01*
X94000000Y-44860000D02*
X95163200Y-46023200D01*
X91050000Y-54617500D02*
X91050000Y-97789600D01*
X84000000Y-104839600D02*
X84000000Y-105000000D01*
X95163200Y-50504300D02*
X91050000Y-54617500D01*
X91050000Y-97789600D02*
X84000000Y-104839600D01*
%TO.N,BUSACK_N*%
X88000000Y-18540000D02*
X94000000Y-24540000D01*
X50510000Y-64910000D02*
X55240000Y-60180000D01*
X82622000Y-23369300D02*
X87451300Y-18540000D01*
X55240000Y-59482500D02*
X69630600Y-45091900D01*
X50510000Y-77255100D02*
X50510000Y-64910000D01*
X69630600Y-45091900D02*
X69630600Y-41849800D01*
X55240000Y-60180000D02*
X55240000Y-59482500D01*
X72761700Y-38718700D02*
X72761700Y-26180900D01*
X88000000Y-10000000D02*
X88000000Y-18540000D01*
X72761700Y-26180900D02*
X75573300Y-23369300D01*
X69630600Y-41849800D02*
X72761700Y-38718700D01*
X75573300Y-23369300D02*
X82622000Y-23369300D01*
X87451300Y-18540000D02*
X88000000Y-18540000D01*
%TO.N,BUSREQ_N*%
X72198100Y-18801900D02*
X72198100Y-38141900D01*
X81000000Y-10000000D02*
X72198100Y-18801900D01*
X49338400Y-61001600D02*
X49338400Y-70507000D01*
X72198100Y-38141900D02*
X55240000Y-55100000D01*
X55240000Y-55100000D02*
X49338400Y-61001600D01*
%TO.N,D1*%
X40000000Y-52560000D02*
X47193200Y-59753200D01*
X47193200Y-59753200D02*
X47193200Y-61583200D01*
%TO.N,D3*%
X66827000Y-61620600D02*
X66827000Y-65461800D01*
X40000000Y-34780000D02*
X38366900Y-36413100D01*
X24083600Y-54534900D02*
X24868500Y-53750000D01*
X24083600Y-58943600D02*
X24083600Y-54534900D01*
X66827000Y-65461800D02*
X66638200Y-65650600D01*
X24868500Y-53750000D02*
X25629300Y-53750000D01*
X25629300Y-53750000D02*
X26835800Y-52543500D01*
X66037000Y-60830600D02*
X66827000Y-61620600D01*
X38366900Y-45385500D02*
X38993700Y-46012300D01*
X25240000Y-60100000D02*
X24083600Y-58943600D01*
X26835800Y-52543500D02*
X26835800Y-50162500D01*
X38366900Y-36413100D02*
X38366900Y-45385500D01*
%TO.N,D5*%
X27143700Y-62916400D02*
X29487500Y-65260200D01*
X29487500Y-75698000D02*
X29228400Y-75957100D01*
X27143700Y-56923700D02*
X27143700Y-62916400D01*
X29487500Y-65260200D02*
X29487500Y-75698000D01*
X25240000Y-55020000D02*
X27143700Y-56923700D01*
%TO.N,D6*%
X80929500Y-47906000D02*
X82758700Y-49735200D01*
X82758700Y-49735200D02*
X82758700Y-68812300D01*
%TO.N,DATA_DIR*%
X42208300Y-115642200D02*
X50838300Y-107012200D01*
X90099400Y-76739000D02*
X88444600Y-78393800D01*
X38758200Y-115052400D02*
X39653000Y-115947200D01*
X37012700Y-115828300D02*
X37788600Y-115052400D01*
X37012700Y-125107300D02*
X37012700Y-115828300D01*
X40361800Y-117420800D02*
X41269900Y-117420800D01*
X42208300Y-116482400D02*
X42208300Y-115642200D01*
X28120000Y-134000000D02*
X37012700Y-125107300D01*
X39653000Y-116712000D02*
X40361800Y-117420800D01*
X88444600Y-78393800D02*
X88444600Y-92555400D01*
X94000000Y-47400000D02*
X90099400Y-51300600D01*
X90099400Y-51300600D02*
X90099400Y-76739000D01*
X39653000Y-115947200D02*
X39653000Y-116712000D01*
X88444600Y-92555400D02*
X76000000Y-105000000D01*
X37788600Y-115052400D02*
X38758200Y-115052400D01*
X50838300Y-107012200D02*
X55618500Y-107012200D01*
X41269900Y-117420800D02*
X42208300Y-116482400D01*
%TO.N,DATA_ENABLE*%
X94020400Y-88206900D02*
X94020400Y-52443400D01*
X94497900Y-88684400D02*
X94020400Y-88206900D01*
X38721000Y-135187700D02*
X39653100Y-134255600D01*
X39653100Y-134255600D02*
X39653100Y-125751700D01*
X94497900Y-96467600D02*
X94497900Y-88684400D01*
X88627900Y-102337600D02*
X94497900Y-96467600D01*
X95710600Y-44030600D02*
X94000000Y-42320000D01*
X95710600Y-50753200D02*
X95710600Y-44030600D01*
X64469900Y-108530100D02*
X68000000Y-105000000D01*
X47169700Y-118235100D02*
X47169700Y-115788300D01*
X94020400Y-52443400D02*
X95710600Y-50753200D01*
X54427900Y-108530100D02*
X64469900Y-108530100D01*
X31847700Y-135187700D02*
X38721000Y-135187700D01*
X39653100Y-125751700D02*
X47169700Y-118235100D01*
X47169700Y-115788300D02*
X54427900Y-108530100D01*
X30660000Y-134000000D02*
X31847700Y-135187700D01*
%TO.N,GND*%
X60000000Y-72000000D02*
X58000000Y-70000000D01*
X152280000Y-72780000D02*
X161500000Y-82000000D01*
X150620000Y-72780000D02*
X152280000Y-72780000D01*
X36500000Y-60000000D02*
X35500000Y-61000000D01*
X58000000Y-64533800D02*
X58000000Y-70000000D01*
X38280000Y-116220000D02*
X38280000Y-134000000D01*
X124000000Y-77860000D02*
X125216100Y-76643900D01*
X86000000Y-60898300D02*
X85620000Y-60518300D01*
X60500000Y-59000000D02*
X60540000Y-59040000D01*
X36500000Y-42500000D02*
X36500000Y-60000000D01*
X85620000Y-49940000D02*
X80540000Y-44860000D01*
X36500000Y-36203900D02*
X36500000Y-42500000D01*
X85620000Y-52480000D02*
X85620000Y-55020000D01*
X85620000Y-60518300D02*
X85620000Y-55020000D01*
X30500000Y-22000000D02*
X36058900Y-27558900D01*
X115200000Y-37700000D02*
X115200000Y-52500000D01*
X86000000Y-62000000D02*
X86000000Y-60898300D01*
X80540000Y-44860000D02*
X78000000Y-44860000D01*
X36499900Y-36203900D02*
X36500000Y-36203900D01*
X36058900Y-27558900D02*
X36058900Y-35762900D01*
X118000000Y-112840000D02*
X118000000Y-124840000D01*
X143000000Y-103840000D02*
X143000000Y-77860000D01*
X85620000Y-49940000D02*
X85620000Y-52480000D01*
X107500000Y-30000000D02*
X115200000Y-37700000D01*
X60540000Y-62380000D02*
X60153800Y-62380000D01*
X142000000Y-104840000D02*
X143000000Y-103840000D01*
X60153800Y-62380000D02*
X58000000Y-64533800D01*
X60000000Y-94840000D02*
X60000000Y-72000000D01*
X110000000Y-104840000D02*
X118000000Y-112840000D01*
X60540000Y-59040000D02*
X60540000Y-62380000D01*
X36058900Y-35762900D02*
X36499900Y-36203900D01*
X125216100Y-76643900D02*
X125216100Y-56216100D01*
X125216100Y-56216100D02*
X124000000Y-55000000D01*
%TO.N,INT_N*%
X47874900Y-63327800D02*
X47874900Y-89905100D01*
X45057100Y-60510000D02*
X47874900Y-63327800D01*
X47874900Y-89905100D02*
X47780000Y-90000000D01*
X45057100Y-60157100D02*
X45057100Y-60510000D01*
X40000000Y-55100000D02*
X45057100Y-60157100D01*
%TO.N,IORQ_N*%
X40255000Y-89905000D02*
X40160000Y-90000000D01*
X40000000Y-65260000D02*
X40255000Y-65515000D01*
X40255000Y-65515000D02*
X40255000Y-89905000D01*
%TO.N,M1_N*%
X53911500Y-48691500D02*
X53911500Y-20911500D01*
X53911500Y-20911500D02*
X43000000Y-10000000D01*
X55240000Y-50020000D02*
X53911500Y-48691500D01*
%TO.N,MCP_CS_N*%
X73240000Y-52160000D02*
X78000000Y-47400000D01*
X73240000Y-62380000D02*
X73240000Y-52160000D01*
%TO.N,MCP_RESET_BASE*%
X87270000Y-67155000D02*
X86989200Y-67435800D01*
X87270000Y-62000000D02*
X87270000Y-67155000D01*
X110000000Y-124840000D02*
X108675500Y-123515500D01*
X108675500Y-123515500D02*
X108675500Y-75911400D01*
%TO.N,MCP_RESET_DRIVE*%
X111468300Y-82937000D02*
X111468300Y-53215600D01*
X120761900Y-92230600D02*
X111468300Y-82937000D01*
X111468300Y-53215600D02*
X110304500Y-52051800D01*
X120761900Y-118229200D02*
X120761900Y-92230600D01*
%TO.N,MCP_RESET_N*%
X109457600Y-97690700D02*
X109457600Y-70518600D01*
X119151700Y-107384800D02*
X109457600Y-97690700D01*
X88540000Y-50320000D02*
X85620000Y-47400000D01*
X88540000Y-62000000D02*
X88540000Y-50320000D01*
X109457600Y-70518600D02*
X106405800Y-67466800D01*
X126000000Y-135000000D02*
X119151700Y-128151700D01*
X119151700Y-128151700D02*
X119151700Y-107384800D01*
%TO.N,MCP_SCK*%
X79182000Y-61518000D02*
X79182000Y-51122000D01*
X79182000Y-51122000D02*
X78000000Y-49940000D01*
X78320000Y-62380000D02*
X79182000Y-61518000D01*
%TO.N,MCP_SI*%
X74616400Y-55863600D02*
X78000000Y-52480000D01*
X78320000Y-70000000D02*
X74616400Y-66296400D01*
X74616400Y-66296400D02*
X74616400Y-55863600D01*
%TO.N,MCP_SO*%
X71970000Y-65450000D02*
X69529800Y-63009800D01*
X71970000Y-88197500D02*
X71970000Y-65450000D01*
X72177600Y-88405100D02*
X71970000Y-88197500D01*
X69529800Y-63009800D02*
X69529800Y-56610000D01*
X74540000Y-90000000D02*
X74540000Y-95611600D01*
%TO.N,MREQ_N*%
X37810000Y-89810000D02*
X37620000Y-90000000D01*
X37810000Y-64910000D02*
X37810000Y-89810000D01*
X40000000Y-62720000D02*
X37810000Y-64910000D01*
%TO.N,NMI_N*%
X42830000Y-80219900D02*
X43970000Y-81359900D01*
X43970000Y-90384600D02*
X45295100Y-91709700D01*
X43970000Y-81359900D02*
X43970000Y-90384600D01*
X48610300Y-91709700D02*
X50320000Y-90000000D01*
X40000000Y-57640000D02*
X42830000Y-60470000D01*
X45295100Y-91709700D02*
X48610300Y-91709700D01*
X42830000Y-60470000D02*
X42830000Y-80219900D01*
%TO.N,PICO_BUSREQ_N*%
X65620000Y-70000000D02*
X65840200Y-70220200D01*
X26957800Y-127542200D02*
X26957800Y-111731400D01*
X65840200Y-70220200D02*
X65840200Y-92645900D01*
X30934200Y-107755000D02*
X31718900Y-107755000D01*
X26957800Y-111731400D02*
X30934200Y-107755000D01*
X20500000Y-134000000D02*
X26957800Y-127542200D01*
%TO.N,PICO_CE_N*%
X114000000Y-94000000D02*
X110430600Y-90430600D01*
X29390000Y-127650000D02*
X29390000Y-110437900D01*
X101981600Y-43590000D02*
X100350000Y-43590000D01*
X110430600Y-90430600D02*
X110430600Y-59941600D01*
X109457500Y-58968500D02*
X109457500Y-51065900D01*
X100350000Y-43590000D02*
X94000000Y-37240000D01*
X23040000Y-134000000D02*
X29390000Y-127650000D01*
X110430600Y-59941600D02*
X109457500Y-58968500D01*
X109457500Y-51065900D02*
X101981600Y-43590000D01*
%TO.N,PICO_D0*%
X98348300Y-64191700D02*
X105000000Y-57540000D01*
X98348300Y-99678700D02*
X98348300Y-64191700D01*
X84540000Y-113487000D02*
X98348300Y-99678700D01*
X84540000Y-137000000D02*
X84540000Y-113487000D01*
%TO.N,PICO_D1*%
X45574500Y-136214500D02*
X53639000Y-136214500D01*
X87080000Y-137000000D02*
X87080000Y-117534000D01*
X101803800Y-63276200D02*
X105000000Y-60080000D01*
X43360000Y-134000000D02*
X45574500Y-136214500D01*
X101803800Y-102810200D02*
X101803800Y-63276200D01*
X87080000Y-117534000D02*
X101803800Y-102810200D01*
%TO.N,PICO_D2*%
X105000000Y-62620000D02*
X102305500Y-65314500D01*
X102305500Y-65314500D02*
X102305500Y-103017900D01*
X100714900Y-104608500D02*
X100714900Y-125905100D01*
X102305500Y-103017900D02*
X100714900Y-104608500D01*
X100714900Y-125905100D02*
X89620000Y-137000000D01*
%TO.N,PICO_D3*%
X101393400Y-127766600D02*
X101393400Y-104763400D01*
X102807200Y-103349600D02*
X102807200Y-67352800D01*
X92160000Y-137000000D02*
X101393400Y-127766600D01*
X101393400Y-104763400D02*
X102807200Y-103349600D01*
X102807200Y-67352800D02*
X105000000Y-65160000D01*
%TO.N,PICO_D4*%
X106388300Y-101430200D02*
X101895100Y-105923400D01*
X106388300Y-98224600D02*
X106388300Y-101430200D01*
X103346600Y-69353400D02*
X103346600Y-95182900D01*
X101895100Y-105923400D02*
X101895100Y-129804900D01*
X103346600Y-95182900D02*
X106388300Y-98224600D01*
X105000000Y-67700000D02*
X103346600Y-69353400D01*
X101895100Y-129804900D02*
X94700000Y-137000000D01*
%TO.N,PICO_D5*%
X105000000Y-70240000D02*
X103848300Y-71391700D01*
X106890000Y-101637900D02*
X102396800Y-106131100D01*
X106890000Y-94233700D02*
X106890000Y-101637900D01*
X103848300Y-91192000D02*
X106890000Y-94233700D01*
X102396800Y-106131100D02*
X102396800Y-131843200D01*
X102396800Y-131843200D02*
X97240000Y-137000000D01*
X103848300Y-71391700D02*
X103848300Y-91192000D01*
%TO.N,PICO_D6*%
X107893400Y-128886600D02*
X99780000Y-137000000D01*
X105000000Y-72780000D02*
X107893400Y-75673400D01*
X107893400Y-75673400D02*
X107893400Y-128886600D01*
%TO.N,PICO_D7*%
X107391700Y-113999800D02*
X106824500Y-114567000D01*
X105000000Y-75320000D02*
X107391700Y-77711700D01*
X107391700Y-77711700D02*
X107391700Y-113999800D01*
%TO.N,PICO_OE_N*%
X94768000Y-100475500D02*
X94999600Y-100243900D01*
X96212300Y-40262700D02*
X94577900Y-38628300D01*
X92796300Y-37667800D02*
X92796300Y-33363700D01*
X96212300Y-51047900D02*
X96212300Y-40262700D01*
X92796300Y-33363700D02*
X94000000Y-32160000D01*
X94999600Y-88476700D02*
X94769200Y-88246300D01*
X94999600Y-100243900D02*
X94999600Y-88476700D01*
X94769200Y-52491000D02*
X96212300Y-51047900D01*
X94769200Y-88246300D02*
X94769200Y-52491000D01*
X93756800Y-38628300D02*
X92796300Y-37667800D01*
X94577900Y-38628300D02*
X93756800Y-38628300D01*
%TO.N,PICO_RD_N*%
X150620000Y-70240000D02*
X144388300Y-76471700D01*
X144388300Y-76471700D02*
X142756600Y-76471700D01*
X134250300Y-84978000D02*
X134250300Y-92788100D01*
X142756600Y-76471700D02*
X134250300Y-84978000D01*
%TO.N,PICO_SPI_CS_N*%
X70196600Y-92583500D02*
X70196600Y-70503400D01*
X63642200Y-93397800D02*
X40820000Y-116220000D01*
X70196600Y-70503400D02*
X70700000Y-70000000D01*
X70196600Y-92583500D02*
X69382300Y-93397800D01*
X69382300Y-93397800D02*
X63642200Y-93397800D01*
%TO.N,PICO_SPI_MOSI*%
X93996200Y-95906300D02*
X93996200Y-88892100D01*
X88647000Y-101255500D02*
X93996200Y-95906300D01*
X93254500Y-88150400D02*
X93254500Y-63184800D01*
X93996200Y-88892100D02*
X93254500Y-88150400D01*
%TO.N,PICO_SPI_SCK*%
X75780000Y-70000000D02*
X75696600Y-70000000D01*
X75696600Y-70000000D02*
X73279500Y-72417100D01*
X73279500Y-72417100D02*
X73279500Y-113964900D01*
%TO.N,PICO_WE_N*%
X111056200Y-51792600D02*
X111056200Y-51740500D01*
X101997100Y-38510000D02*
X101224000Y-38510000D01*
X100097100Y-33177100D02*
X94000000Y-27080000D01*
X100097100Y-37383100D02*
X100097100Y-33177100D01*
X103736900Y-40249800D02*
X101997100Y-38510000D01*
X132000000Y-94000000D02*
X132000000Y-88587100D01*
X113910000Y-54646400D02*
X111056200Y-51792600D01*
X111056200Y-51740500D02*
X110615800Y-51300100D01*
X113910000Y-70497100D02*
X113910000Y-54646400D01*
X132000000Y-88587100D02*
X113910000Y-70497100D01*
X110615800Y-51300100D02*
X110563700Y-51300100D01*
X110563700Y-51300100D02*
X103736900Y-44473300D01*
X103736900Y-44473300D02*
X103736900Y-40249800D01*
X101224000Y-38510000D02*
X100097100Y-37383100D01*
%TO.N,RD_N*%
X56777200Y-66797200D02*
X56777200Y-77253500D01*
X55240000Y-65260000D02*
X56777200Y-66797200D01*
%TO.N,RESET_N*%
X55240000Y-52560000D02*
X57871800Y-49928200D01*
X57871800Y-49928200D02*
X57871800Y-17503800D01*
X93494500Y-95074500D02*
X92106800Y-96462200D01*
X93494500Y-89350000D02*
X93494500Y-95074500D01*
X92027300Y-62695800D02*
X92027300Y-87882800D01*
X92027300Y-87882800D02*
X93494500Y-89350000D01*
%TO.N,SRAM_OE_PRE_N*%
X76931700Y-76131700D02*
X76931700Y-69513400D01*
X76931700Y-69513400D02*
X70700000Y-63281700D01*
X83706100Y-82906100D02*
X76931700Y-76131700D01*
X70700000Y-63281700D02*
X70700000Y-62380000D01*
%TO.N,SRAM_WE_N*%
X26966900Y-64116400D02*
X23529600Y-60679100D01*
X74337200Y-82177200D02*
X74337200Y-72422300D01*
X82160000Y-90000000D02*
X74337200Y-82177200D01*
X23529600Y-45689600D02*
X22438200Y-44598200D01*
X22438200Y-32421800D02*
X25240000Y-29620000D01*
X23529600Y-60679100D02*
X23529600Y-45689600D01*
X22438200Y-44598200D02*
X22438200Y-32421800D01*
%TO.N,SRAM_WE_PRE_N*%
X75780000Y-62380000D02*
X75780000Y-62896500D01*
X87240000Y-74356500D02*
X87240000Y-90000000D01*
X75780000Y-62896500D02*
X87240000Y-74356500D01*
%TO.N,WAIT_N*%
X64468300Y-59681600D02*
X64468300Y-61486200D01*
X76300100Y-47849800D02*
X64468300Y-59681600D01*
X76300100Y-33592200D02*
X76300100Y-47849800D01*
%TO.N,WR_N*%
X49050000Y-90408600D02*
X49050000Y-79778900D01*
X53166100Y-64793900D02*
X55240000Y-62720000D01*
X53166100Y-75662800D02*
X53166100Y-64793900D01*
X48276500Y-91182100D02*
X49050000Y-90408600D01*
X143000000Y-72780000D02*
X139538200Y-69318200D01*
X46422100Y-91182100D02*
X48276500Y-91182100D01*
X45240000Y-90000000D02*
X46422100Y-91182100D01*
X49050000Y-79778900D02*
X53166100Y-75662800D01*
X139538200Y-69318200D02*
X139538200Y-62679600D01*
%TD*%
M02*
