%TF.GenerationSoftware,KiCad,Pcbnew,10.0.6-10.0.6~ubuntu24.04.1*%
%TF.CreationDate,2026-09-12T05:11:53+00:00*%
%TF.ProjectId,z80_romless_sbc,7a38305f-726f-46d6-9c65-73735f736263,rev?*%
%TF.SameCoordinates,Original*%
%TF.FileFunction,Copper,L4,Bot*%
%TF.FilePolarity,Positive*%
%FSLAX46Y46*%
G04 Gerber Fmt 4.6, Leading zero omitted, Abs format (unit mm)*
G04 Created by KiCad (PCBNEW 10.0.6-10.0.6~ubuntu24.04.1) date 2026-09-12 05:11:53*
%MOMM*%
%LPD*%
G01*
G04 APERTURE LIST*
G04 Aperture macros list*
%AMRoundRect*
0 Rectangle with rounded corners*
0 $1 Rounding radius*
0 $2 $3 $4 $5 $6 $7 $8 $9 X,Y pos of 4 corners*
0 Add a 4 corners polygon primitive as box body*
4,1,4,$2,$3,$4,$5,$6,$7,$8,$9,$2,$3,0*
0 Add four circle primitives for the rounded corners*
1,1,$1+$1,$2,$3*
1,1,$1+$1,$4,$5*
1,1,$1+$1,$6,$7*
1,1,$1+$1,$8,$9*
0 Add four rect primitives between the rounded corners*
20,1,$1+$1,$2,$3,$4,$5,0*
20,1,$1+$1,$4,$5,$6,$7,0*
20,1,$1+$1,$6,$7,$8,$9,0*
20,1,$1+$1,$8,$9,$2,$3,0*%
%AMFreePoly0*
4,1,37,0.603843,0.796157,0.639018,0.796157,0.711114,0.766294,0.766294,0.711114,0.796157,0.639018,0.796157,0.603843,0.800000,0.600000,0.800000,-0.600000,0.796157,-0.603843,0.796157,-0.639018,0.766294,-0.711114,0.711114,-0.766294,0.639018,-0.796157,0.603843,-0.796157,0.600000,-0.800000,0.000000,-0.800000,0.000000,-0.796148,-0.078414,-0.796148,-0.232228,-0.765552,-0.377117,-0.705537,
-0.507515,-0.618408,-0.618408,-0.507515,-0.705537,-0.377117,-0.765552,-0.232228,-0.796148,-0.078414,-0.796148,0.078414,-0.765552,0.232228,-0.705537,0.377117,-0.618408,0.507515,-0.507515,0.618408,-0.377117,0.705537,-0.232228,0.765552,-0.078414,0.796148,0.000000,0.796148,0.000000,0.800000,0.600000,0.800000,0.603843,0.796157,0.603843,0.796157,$1*%
%AMFreePoly1*
4,1,37,0.000000,0.796148,0.078414,0.796148,0.232228,0.765552,0.377117,0.705537,0.507515,0.618408,0.618408,0.507515,0.705537,0.377117,0.765552,0.232228,0.796148,0.078414,0.796148,-0.078414,0.765552,-0.232228,0.705537,-0.377117,0.618408,-0.507515,0.507515,-0.618408,0.377117,-0.705537,0.232228,-0.765552,0.078414,-0.796148,0.000000,-0.796148,0.000000,-0.800000,-0.600000,-0.800000,
-0.603843,-0.796157,-0.639018,-0.796157,-0.711114,-0.766294,-0.766294,-0.711114,-0.796157,-0.639018,-0.796157,-0.603843,-0.800000,-0.600000,-0.800000,0.600000,-0.796157,0.603843,-0.796157,0.639018,-0.766294,0.711114,-0.711114,0.766294,-0.639018,0.796157,-0.603843,0.796157,-0.600000,0.800000,0.000000,0.800000,0.000000,0.796148,0.000000,0.796148,$1*%
G04 Aperture macros list end*
%TA.AperFunction,ComponentPad*%
%ADD10C,1.600000*%
%TD*%
%TA.AperFunction,ComponentPad*%
%ADD11RoundRect,0.250000X-0.550000X-0.550000X0.550000X-0.550000X0.550000X0.550000X-0.550000X0.550000X0*%
%TD*%
%TA.AperFunction,ComponentPad*%
%ADD12C,1.800000*%
%TD*%
%TA.AperFunction,ComponentPad*%
%ADD13R,1.050000X1.500000*%
%TD*%
%TA.AperFunction,ComponentPad*%
%ADD14O,1.050000X1.500000*%
%TD*%
%TA.AperFunction,ComponentPad*%
%ADD15R,1.600000X1.600000*%
%TD*%
%TA.AperFunction,ComponentPad*%
%ADD16RoundRect,0.200000X0.600000X-0.600000X0.600000X0.600000X-0.600000X0.600000X-0.600000X-0.600000X0*%
%TD*%
%TA.AperFunction,ComponentPad*%
%ADD17FreePoly0,90.000000*%
%TD*%
%TA.AperFunction,ComponentPad*%
%ADD18FreePoly1,90.000000*%
%TD*%
%TA.AperFunction,ComponentPad*%
%ADD19RoundRect,0.250000X0.550000X-0.550000X0.550000X0.550000X-0.550000X0.550000X-0.550000X-0.550000X0*%
%TD*%
%TA.AperFunction,ComponentPad*%
%ADD20RoundRect,0.249999X-0.850001X-0.850001X0.850001X-0.850001X0.850001X0.850001X-0.850001X0.850001X0*%
%TD*%
%TA.AperFunction,ComponentPad*%
%ADD21C,2.200000*%
%TD*%
%TA.AperFunction,ComponentPad*%
%ADD22RoundRect,0.250000X-0.750000X-0.750000X0.750000X-0.750000X0.750000X0.750000X-0.750000X0.750000X0*%
%TD*%
%TA.AperFunction,ComponentPad*%
%ADD23C,2.000000*%
%TD*%
%TA.AperFunction,ComponentPad*%
%ADD24RoundRect,0.249999X-1.250001X-1.250001X1.250001X-1.250001X1.250001X1.250001X-1.250001X1.250001X0*%
%TD*%
%TA.AperFunction,ComponentPad*%
%ADD25C,3.000000*%
%TD*%
%TA.AperFunction,ViaPad*%
%ADD26C,0.800000*%
%TD*%
%TA.AperFunction,Conductor*%
%ADD27C,0.600000*%
%TD*%
%TA.AperFunction,Conductor*%
%ADD28C,0.300000*%
%TD*%
G04 APERTURE END LIST*
D10*
%TO.P,C8,1*%
%TO.N,+3V3*%
X134200000Y-55000000D03*
%TO.P,C8,2*%
%TO.N,GND*%
X134200000Y-52500000D03*
%TD*%
%TO.P,C4,1*%
%TO.N,+5V*%
X58000000Y-59000000D03*
%TO.P,C4,2*%
%TO.N,GND*%
X60500000Y-59000000D03*
%TD*%
D11*
%TO.P,U8,1*%
%TO.N,A8*%
X78000000Y-22000000D03*
D10*
%TO.P,U8,2*%
%TO.N,A9*%
X78000000Y-24540000D03*
%TO.P,U8,3*%
%TO.N,A10*%
X78000000Y-27080000D03*
%TO.P,U8,4*%
%TO.N,A11*%
X78000000Y-29620000D03*
%TO.P,U8,5*%
%TO.N,A12*%
X78000000Y-32160000D03*
%TO.P,U8,6*%
%TO.N,A13*%
X78000000Y-34700000D03*
%TO.P,U8,7*%
%TO.N,A14*%
X78000000Y-37240000D03*
%TO.P,U8,8*%
%TO.N,A15*%
X78000000Y-39780000D03*
%TO.P,U8,9*%
%TO.N,+5V*%
X78000000Y-42320000D03*
%TO.P,U8,10*%
%TO.N,GND*%
X78000000Y-44860000D03*
%TO.P,U8,11*%
%TO.N,MCP_CS_N*%
X78000000Y-47400000D03*
%TO.P,U8,12*%
%TO.N,MCP_SCK*%
X78000000Y-49940000D03*
%TO.P,U8,13*%
%TO.N,MCP_SI*%
X78000000Y-52480000D03*
%TO.P,U8,14*%
%TO.N,MCP_SO*%
X78000000Y-55020000D03*
%TO.P,U8,15*%
%TO.N,GND*%
X85620000Y-55020000D03*
%TO.P,U8,16*%
X85620000Y-52480000D03*
%TO.P,U8,17*%
X85620000Y-49940000D03*
%TO.P,U8,18*%
%TO.N,MCP_RESET_N*%
X85620000Y-47400000D03*
%TO.P,U8,19*%
%TO.N,N/C*%
X85620000Y-44860000D03*
%TO.P,U8,20*%
X85620000Y-42320000D03*
%TO.P,U8,21*%
%TO.N,A0*%
X85620000Y-39780000D03*
%TO.P,U8,22*%
%TO.N,A1*%
X85620000Y-37240000D03*
%TO.P,U8,23*%
%TO.N,A2*%
X85620000Y-34700000D03*
%TO.P,U8,24*%
%TO.N,A3*%
X85620000Y-32160000D03*
%TO.P,U8,25*%
%TO.N,A4*%
X85620000Y-29620000D03*
%TO.P,U8,26*%
%TO.N,A5*%
X85620000Y-27080000D03*
%TO.P,U8,27*%
%TO.N,A6*%
X85620000Y-24540000D03*
%TO.P,U8,28*%
%TO.N,A7*%
X85620000Y-22000000D03*
%TD*%
%TO.P,R14,1*%
%TO.N,SRAM_WE_PRE_N*%
X80800000Y-90000000D03*
%TO.P,R14,2*%
%TO.N,+5V*%
X80800000Y-79840000D03*
%TD*%
D11*
%TO.P,C11,1*%
%TO.N,+5V*%
X158000000Y-82000000D03*
D10*
%TO.P,C11,2*%
%TO.N,GND*%
X161500000Y-82000000D03*
%TD*%
D12*
%TO.P,TP5,1*%
%TO.N,BUSREQ_N*%
X81000000Y-10000000D03*
%TD*%
%TO.P,TP1,1*%
%TO.N,M1_N*%
X43000000Y-10000000D03*
%TD*%
D13*
%TO.P,Q1,1*%
%TO.N,GND*%
X86000000Y-62000000D03*
D14*
%TO.P,Q1,2*%
%TO.N,MCP_RESET_BASE*%
X87270000Y-62000000D03*
%TO.P,Q1,3*%
%TO.N,MCP_RESET_N*%
X88540000Y-62000000D03*
%TD*%
D10*
%TO.P,R11,1*%
%TO.N,WAIT_N*%
X64000000Y-90000000D03*
%TO.P,R11,2*%
%TO.N,+5V*%
X64000000Y-79840000D03*
%TD*%
%TO.P,C2,1*%
%TO.N,+5V*%
X28000000Y-22000000D03*
%TO.P,C2,2*%
%TO.N,GND*%
X30500000Y-22000000D03*
%TD*%
D15*
%TO.P,RN2,1*%
%TO.N,+5V*%
X34000000Y-72000000D03*
D10*
%TO.P,RN2,2*%
%TO.N,A8*%
X36540000Y-72000000D03*
%TO.P,RN2,3*%
%TO.N,A9*%
X39080000Y-72000000D03*
%TO.P,RN2,4*%
%TO.N,A10*%
X41620000Y-72000000D03*
%TO.P,RN2,5*%
%TO.N,A11*%
X44160000Y-72000000D03*
%TO.P,RN2,6*%
%TO.N,A12*%
X46700000Y-72000000D03*
%TO.P,RN2,7*%
%TO.N,A13*%
X49240000Y-72000000D03*
%TO.P,RN2,8*%
%TO.N,A14*%
X51780000Y-72000000D03*
%TO.P,RN2,9*%
%TO.N,A15*%
X54320000Y-72000000D03*
%TD*%
%TO.P,R17,1*%
%TO.N,PICO_BUSREQ_N*%
X105000000Y-94000000D03*
%TO.P,R17,2*%
%TO.N,+3V3*%
X105000000Y-83840000D03*
%TD*%
%TO.P,R4,1*%
%TO.N,IORQ_N*%
X24800000Y-90000000D03*
%TO.P,R4,2*%
%TO.N,+5V*%
X24800000Y-79840000D03*
%TD*%
D11*
%TO.P,U2,1*%
%TO.N,N/C*%
X10000000Y-22000000D03*
D10*
%TO.P,U2,2*%
%TO.N,GND*%
X10000000Y-24540000D03*
%TO.P,U2,3*%
%TO.N,A14*%
X10000000Y-27080000D03*
%TO.P,U2,4*%
%TO.N,A12*%
X10000000Y-29620000D03*
%TO.P,U2,5*%
%TO.N,A7*%
X10000000Y-32160000D03*
%TO.P,U2,6*%
%TO.N,A6*%
X10000000Y-34700000D03*
%TO.P,U2,7*%
%TO.N,A5*%
X10000000Y-37240000D03*
%TO.P,U2,8*%
%TO.N,A4*%
X10000000Y-39780000D03*
%TO.P,U2,9*%
%TO.N,A3*%
X10000000Y-42320000D03*
%TO.P,U2,10*%
%TO.N,A2*%
X10000000Y-44860000D03*
%TO.P,U2,11*%
%TO.N,A1*%
X10000000Y-47400000D03*
%TO.P,U2,12*%
%TO.N,A0*%
X10000000Y-49940000D03*
%TO.P,U2,13*%
%TO.N,D0*%
X10000000Y-52480000D03*
%TO.P,U2,14*%
%TO.N,D1*%
X10000000Y-55020000D03*
%TO.P,U2,15*%
%TO.N,D2*%
X10000000Y-57560000D03*
%TO.P,U2,16*%
%TO.N,GND*%
X10000000Y-60100000D03*
%TO.P,U2,17*%
%TO.N,D3*%
X25240000Y-60100000D03*
%TO.P,U2,18*%
%TO.N,D4*%
X25240000Y-57560000D03*
%TO.P,U2,19*%
%TO.N,D5*%
X25240000Y-55020000D03*
%TO.P,U2,20*%
%TO.N,D6*%
X25240000Y-52480000D03*
%TO.P,U2,21*%
%TO.N,D7*%
X25240000Y-49940000D03*
%TO.P,U2,22*%
%TO.N,SRAM_CE_N*%
X25240000Y-47400000D03*
%TO.P,U2,23*%
%TO.N,A10*%
X25240000Y-44860000D03*
%TO.P,U2,24*%
%TO.N,SRAM_OE_N*%
X25240000Y-42320000D03*
%TO.P,U2,25*%
%TO.N,A11*%
X25240000Y-39780000D03*
%TO.P,U2,26*%
%TO.N,A9*%
X25240000Y-37240000D03*
%TO.P,U2,27*%
%TO.N,A8*%
X25240000Y-34700000D03*
%TO.P,U2,28*%
%TO.N,A13*%
X25240000Y-32160000D03*
%TO.P,U2,29*%
%TO.N,SRAM_WE_N*%
X25240000Y-29620000D03*
%TO.P,U2,30*%
%TO.N,+5V*%
X25240000Y-27080000D03*
%TO.P,U2,31*%
%TO.N,A15*%
X25240000Y-24540000D03*
%TO.P,U2,32*%
%TO.N,+5V*%
X25240000Y-22000000D03*
%TD*%
%TO.P,R16,1*%
%TO.N,SRAM_CE_PRE_N*%
X92000000Y-90000000D03*
%TO.P,R16,2*%
%TO.N,+5V*%
X92000000Y-79840000D03*
%TD*%
D12*
%TO.P,TP7,1*%
%TO.N,GND*%
X95000000Y-10000000D03*
%TD*%
D10*
%TO.P,R20,1*%
%TO.N,PICO_WE_N*%
X132000000Y-94000000D03*
%TO.P,R20,2*%
%TO.N,+3V3*%
X132000000Y-83840000D03*
%TD*%
D11*
%TO.P,C9,1*%
%TO.N,+5V*%
X32000000Y-61000000D03*
D10*
%TO.P,C9,2*%
%TO.N,GND*%
X35500000Y-61000000D03*
%TD*%
D11*
%TO.P,U3,1*%
%TO.N,RESET_N*%
X94000000Y-22000000D03*
D10*
%TO.P,U3,2*%
%TO.N,BUSACK_N*%
X94000000Y-24540000D03*
%TO.P,U3,3*%
%TO.N,PICO_WE_N*%
X94000000Y-27080000D03*
%TO.P,U3,4*%
%TO.N,WR_N*%
X94000000Y-29620000D03*
%TO.P,U3,5*%
%TO.N,PICO_OE_N*%
X94000000Y-32160000D03*
%TO.P,U3,6*%
%TO.N,RD_N*%
X94000000Y-34700000D03*
%TO.P,U3,7*%
%TO.N,PICO_CE_N*%
X94000000Y-37240000D03*
%TO.P,U3,8*%
%TO.N,MREQ_N*%
X94000000Y-39780000D03*
%TO.P,U3,9*%
%TO.N,DATA_ENABLE*%
X94000000Y-42320000D03*
%TO.P,U3,10*%
%TO.N,ADDR_ENABLE*%
X94000000Y-44860000D03*
%TO.P,U3,11*%
%TO.N,DATA_DIR*%
X94000000Y-47400000D03*
%TO.P,U3,12*%
%TO.N,GND*%
X94000000Y-49940000D03*
%TO.P,U3,13*%
%TO.N,IORQ_N*%
X101620000Y-49940000D03*
%TO.P,U3,14*%
%TO.N,SRAM_WE_PRE_N*%
X101620000Y-47400000D03*
%TO.P,U3,15*%
%TO.N,SRAM_OE_PRE_N*%
X101620000Y-44860000D03*
%TO.P,U3,16*%
%TO.N,SRAM_CE_PRE_N*%
X101620000Y-42320000D03*
%TO.P,U3,17*%
%TO.N,DATA_UP_OE_N*%
X101620000Y-39780000D03*
%TO.P,U3,18*%
%TO.N,DATA_DOWN_OE_N*%
X101620000Y-37240000D03*
%TO.P,U3,19*%
%TO.N,MCP_RESET_DRIVE*%
X101620000Y-34700000D03*
%TO.P,U3,20*%
%TO.N,WAIT_N*%
X101620000Y-32160000D03*
%TO.P,U3,21*%
%TO.N,N/C*%
X101620000Y-29620000D03*
%TO.P,U3,22*%
X101620000Y-27080000D03*
%TO.P,U3,23*%
X101620000Y-24540000D03*
%TO.P,U3,24*%
%TO.N,+5V*%
X101620000Y-22000000D03*
%TD*%
D16*
%TO.P,A1,1*%
%TO.N,PICO_BUSACK_N*%
X7800000Y-134000000D03*
D10*
%TO.P,A1,2*%
%TO.N,PICO_IORQ_N*%
X10340000Y-134000000D03*
D17*
%TO.P,A1,3*%
%TO.N,GND*%
X12880000Y-134000000D03*
D10*
%TO.P,A1,4*%
%TO.N,PICO_CLK*%
X15420000Y-134000000D03*
%TO.P,A1,5*%
%TO.N,RESET_N*%
X17960000Y-134000000D03*
%TO.P,A1,6*%
%TO.N,PICO_BUSREQ_N*%
X20500000Y-134000000D03*
%TO.P,A1,7*%
%TO.N,PICO_CE_N*%
X23040000Y-134000000D03*
D17*
%TO.P,A1,8*%
%TO.N,GND*%
X25580000Y-134000000D03*
D10*
%TO.P,A1,9*%
%TO.N,DATA_DIR*%
X28120000Y-134000000D03*
%TO.P,A1,10*%
%TO.N,DATA_ENABLE*%
X30660000Y-134000000D03*
%TO.P,A1,11*%
%TO.N,N/C*%
X33200000Y-134000000D03*
%TO.P,A1,12*%
%TO.N,ADDR_ENABLE*%
X35740000Y-134000000D03*
D17*
%TO.P,A1,13*%
%TO.N,GND*%
X38280000Y-134000000D03*
D10*
%TO.P,A1,14*%
%TO.N,PICO_D0*%
X40820000Y-134000000D03*
%TO.P,A1,15*%
%TO.N,PICO_D1*%
X43360000Y-134000000D03*
%TO.P,A1,16*%
%TO.N,PICO_D2*%
X45900000Y-134000000D03*
%TO.P,A1,17*%
%TO.N,PICO_D3*%
X48440000Y-134000000D03*
D17*
%TO.P,A1,18*%
%TO.N,GND*%
X50980000Y-134000000D03*
D10*
%TO.P,A1,19*%
%TO.N,PICO_D4*%
X53520000Y-134000000D03*
%TO.P,A1,20*%
%TO.N,PICO_D5*%
X56060000Y-134000000D03*
%TO.P,A1,21*%
%TO.N,PICO_D6*%
X56060000Y-116220000D03*
%TO.P,A1,22*%
%TO.N,PICO_D7*%
X53520000Y-116220000D03*
D18*
%TO.P,A1,23*%
%TO.N,GND*%
X50980000Y-116220000D03*
D10*
%TO.P,A1,24*%
%TO.N,PICO_SPI_SCK*%
X48440000Y-116220000D03*
%TO.P,A1,25*%
%TO.N,PICO_SPI_MOSI*%
X45900000Y-116220000D03*
%TO.P,A1,26*%
%TO.N,PICO_SPI_MISO*%
X43360000Y-116220000D03*
%TO.P,A1,27*%
%TO.N,PICO_SPI_CS_N*%
X40820000Y-116220000D03*
D18*
%TO.P,A1,28*%
%TO.N,GND*%
X38280000Y-116220000D03*
D10*
%TO.P,A1,29*%
%TO.N,PICO_WE_N*%
X35740000Y-116220000D03*
%TO.P,A1,30*%
%TO.N,N/C*%
X33200000Y-116220000D03*
%TO.P,A1,31*%
%TO.N,PICO_OE_N*%
X30660000Y-116220000D03*
%TO.P,A1,32*%
%TO.N,PICO_RD_N*%
X28120000Y-116220000D03*
D18*
%TO.P,A1,33*%
%TO.N,GND*%
X25580000Y-116220000D03*
D10*
%TO.P,A1,34*%
%TO.N,PICO_WR_N*%
X23040000Y-116220000D03*
%TO.P,A1,35*%
%TO.N,N/C*%
X20500000Y-116220000D03*
%TO.P,A1,36*%
%TO.N,+3V3*%
X17960000Y-116220000D03*
%TO.P,A1,37*%
%TO.N,N/C*%
X15420000Y-116220000D03*
D18*
%TO.P,A1,38*%
%TO.N,GND*%
X12880000Y-116220000D03*
D10*
%TO.P,A1,39*%
%TO.N,VSYS*%
X10340000Y-116220000D03*
%TO.P,A1,40*%
%TO.N,N/C*%
X7800000Y-116220000D03*
%TD*%
%TO.P,R15,1*%
%TO.N,SRAM_OE_PRE_N*%
X86400000Y-90000000D03*
%TO.P,R15,2*%
%TO.N,+5V*%
X86400000Y-79840000D03*
%TD*%
%TO.P,R26,1*%
%TO.N,ADDR_ENABLE*%
X84000000Y-105000000D03*
%TO.P,R26,2*%
%TO.N,GND*%
X84000000Y-94840000D03*
%TD*%
%TO.P,R19,1*%
%TO.N,PICO_SPI_CS_N*%
X123000000Y-94000000D03*
%TO.P,R19,2*%
%TO.N,+3V3*%
X123000000Y-83840000D03*
%TD*%
%TO.P,R24,1*%
%TO.N,DATA_ENABLE*%
X68000000Y-105000000D03*
%TO.P,R24,2*%
%TO.N,GND*%
X68000000Y-94840000D03*
%TD*%
%TO.P,R27,1*%
%TO.N,PICO_SPI_SCK*%
X142000000Y-115000000D03*
%TO.P,R27,2*%
%TO.N,GND*%
X142000000Y-104840000D03*
%TD*%
%TO.P,R21,1*%
%TO.N,PICO_OE_N*%
X141000000Y-94000000D03*
%TO.P,R21,2*%
%TO.N,+3V3*%
X141000000Y-83840000D03*
%TD*%
%TO.P,R2,1*%
%TO.N,BUSACK_N*%
X13600000Y-90000000D03*
%TO.P,R2,2*%
%TO.N,+5V*%
X13600000Y-79840000D03*
%TD*%
D12*
%TO.P,TP4,1*%
%TO.N,WAIT_N*%
X74000000Y-10000000D03*
%TD*%
D10*
%TO.P,R10,1*%
%TO.N,SRAM_WE_N*%
X58400000Y-90000000D03*
%TO.P,R10,2*%
%TO.N,+5V*%
X58400000Y-79840000D03*
%TD*%
D19*
%TO.P,U4,1*%
%TO.N,GND*%
X58000000Y-70000000D03*
D10*
%TO.P,U4,2*%
%TO.N,PICO_CLK*%
X60540000Y-70000000D03*
%TO.P,U4,3*%
%TO.N,SRAM_CE_N*%
X63080000Y-70000000D03*
%TO.P,U4,4*%
%TO.N,PICO_BUSREQ_N*%
X65620000Y-70000000D03*
%TO.P,U4,5*%
%TO.N,SRAM_OE_N*%
X68160000Y-70000000D03*
%TO.P,U4,6*%
%TO.N,PICO_SPI_CS_N*%
X70700000Y-70000000D03*
%TO.P,U4,7*%
%TO.N,SRAM_WE_N*%
X73240000Y-70000000D03*
%TO.P,U4,8*%
%TO.N,PICO_SPI_SCK*%
X75780000Y-70000000D03*
%TO.P,U4,9*%
%TO.N,MCP_SI*%
X78320000Y-70000000D03*
%TO.P,U4,10*%
%TO.N,GND*%
X80860000Y-70000000D03*
%TO.P,U4,11*%
%TO.N,PICO_SPI_MOSI*%
X80860000Y-62380000D03*
%TO.P,U4,12*%
%TO.N,MCP_SCK*%
X78320000Y-62380000D03*
%TO.P,U4,13*%
%TO.N,SRAM_WE_PRE_N*%
X75780000Y-62380000D03*
%TO.P,U4,14*%
%TO.N,MCP_CS_N*%
X73240000Y-62380000D03*
%TO.P,U4,15*%
%TO.N,SRAM_OE_PRE_N*%
X70700000Y-62380000D03*
%TO.P,U4,16*%
%TO.N,BUSREQ_N*%
X68160000Y-62380000D03*
%TO.P,U4,17*%
%TO.N,SRAM_CE_PRE_N*%
X65620000Y-62380000D03*
%TO.P,U4,18*%
%TO.N,Z80_CLK*%
X63080000Y-62380000D03*
%TO.P,U4,19*%
%TO.N,GND*%
X60540000Y-62380000D03*
%TO.P,U4,20*%
%TO.N,+5V*%
X58000000Y-62380000D03*
%TD*%
%TO.P,R5,1*%
%TO.N,RD_N*%
X30400000Y-90000000D03*
%TO.P,R5,2*%
%TO.N,+5V*%
X30400000Y-79840000D03*
%TD*%
D11*
%TO.P,U10,1*%
%TO.N,GND*%
X124000000Y-55000000D03*
D10*
%TO.P,U10,2*%
%TO.N,PICO_D0*%
X124000000Y-57540000D03*
%TO.P,U10,3*%
%TO.N,PICO_D1*%
X124000000Y-60080000D03*
%TO.P,U10,4*%
%TO.N,PICO_D2*%
X124000000Y-62620000D03*
%TO.P,U10,5*%
%TO.N,PICO_D3*%
X124000000Y-65160000D03*
%TO.P,U10,6*%
%TO.N,PICO_D4*%
X124000000Y-67700000D03*
%TO.P,U10,7*%
%TO.N,PICO_D5*%
X124000000Y-70240000D03*
%TO.P,U10,8*%
%TO.N,PICO_D6*%
X124000000Y-72780000D03*
%TO.P,U10,9*%
%TO.N,PICO_D7*%
X124000000Y-75320000D03*
%TO.P,U10,10*%
%TO.N,GND*%
X124000000Y-77860000D03*
%TO.P,U10,11*%
%TO.N,D7*%
X131620000Y-77860000D03*
%TO.P,U10,12*%
%TO.N,D6*%
X131620000Y-75320000D03*
%TO.P,U10,13*%
%TO.N,D5*%
X131620000Y-72780000D03*
%TO.P,U10,14*%
%TO.N,D4*%
X131620000Y-70240000D03*
%TO.P,U10,15*%
%TO.N,D3*%
X131620000Y-67700000D03*
%TO.P,U10,16*%
%TO.N,D2*%
X131620000Y-65160000D03*
%TO.P,U10,17*%
%TO.N,D1*%
X131620000Y-62620000D03*
%TO.P,U10,18*%
%TO.N,D0*%
X131620000Y-60080000D03*
%TO.P,U10,19*%
%TO.N,DATA_DOWN_OE_N*%
X131620000Y-57540000D03*
%TO.P,U10,20*%
%TO.N,+3V3*%
X131620000Y-55000000D03*
%TD*%
%TO.P,R13,1*%
%TO.N,NMI_N*%
X75200000Y-90000000D03*
%TO.P,R13,2*%
%TO.N,+5V*%
X75200000Y-79840000D03*
%TD*%
%TO.P,R6,1*%
%TO.N,WR_N*%
X36000000Y-90000000D03*
%TO.P,R6,2*%
%TO.N,+5V*%
X36000000Y-79840000D03*
%TD*%
%TO.P,C7,1*%
%TO.N,+5V*%
X115200000Y-55000000D03*
%TO.P,C7,2*%
%TO.N,GND*%
X115200000Y-52500000D03*
%TD*%
%TO.P,C6,1*%
%TO.N,+5V*%
X71000000Y-43000000D03*
%TO.P,C6,2*%
%TO.N,GND*%
X73500000Y-43000000D03*
%TD*%
%TO.P,R7,1*%
%TO.N,MCP_SO*%
X41600000Y-90000000D03*
%TO.P,R7,2*%
%TO.N,+5V*%
X41600000Y-79840000D03*
%TD*%
%TO.P,R3,1*%
%TO.N,MREQ_N*%
X19200000Y-90000000D03*
%TO.P,R3,2*%
%TO.N,+5V*%
X19200000Y-79840000D03*
%TD*%
%TO.P,R8,1*%
%TO.N,SRAM_CE_N*%
X47200000Y-90000000D03*
%TO.P,R8,2*%
%TO.N,+5V*%
X47200000Y-79840000D03*
%TD*%
%TO.P,R29,1*%
%TO.N,MCP_RESET_DRIVE*%
X110000000Y-135000000D03*
%TO.P,R29,2*%
%TO.N,MCP_RESET_BASE*%
X110000000Y-124840000D03*
%TD*%
%TO.P,R30,1*%
%TO.N,MCP_RESET_BASE*%
X118000000Y-135000000D03*
%TO.P,R30,2*%
%TO.N,GND*%
X118000000Y-124840000D03*
%TD*%
D12*
%TO.P,TP2,1*%
%TO.N,Z80_CLK*%
X85000000Y-68000000D03*
%TD*%
D10*
%TO.P,R25,1*%
%TO.N,DATA_DIR*%
X76000000Y-105000000D03*
%TO.P,R25,2*%
%TO.N,GND*%
X76000000Y-94840000D03*
%TD*%
D12*
%TO.P,TP6,1*%
%TO.N,BUSACK_N*%
X88000000Y-10000000D03*
%TD*%
D10*
%TO.P,R23,1*%
%TO.N,RESET_N*%
X110000000Y-115000000D03*
%TO.P,R23,2*%
%TO.N,GND*%
X110000000Y-104840000D03*
%TD*%
D15*
%TO.P,RN1,1*%
%TO.N,+5V*%
X8000000Y-67000000D03*
D10*
%TO.P,RN1,2*%
%TO.N,A0*%
X10540000Y-67000000D03*
%TO.P,RN1,3*%
%TO.N,A1*%
X13080000Y-67000000D03*
%TO.P,RN1,4*%
%TO.N,A2*%
X15620000Y-67000000D03*
%TO.P,RN1,5*%
%TO.N,A3*%
X18160000Y-67000000D03*
%TO.P,RN1,6*%
%TO.N,A4*%
X20700000Y-67000000D03*
%TO.P,RN1,7*%
%TO.N,A5*%
X23240000Y-67000000D03*
%TO.P,RN1,8*%
%TO.N,A6*%
X25780000Y-67000000D03*
%TO.P,RN1,9*%
%TO.N,A7*%
X28320000Y-67000000D03*
%TD*%
%TO.P,C3,1*%
%TO.N,+5V*%
X105000000Y-30000000D03*
%TO.P,C3,2*%
%TO.N,GND*%
X107500000Y-30000000D03*
%TD*%
D11*
%TO.P,U9,1*%
%TO.N,+5V*%
X105000000Y-55000000D03*
D10*
%TO.P,U9,2*%
%TO.N,PICO_D0*%
X105000000Y-57540000D03*
%TO.P,U9,3*%
%TO.N,PICO_D1*%
X105000000Y-60080000D03*
%TO.P,U9,4*%
%TO.N,PICO_D2*%
X105000000Y-62620000D03*
%TO.P,U9,5*%
%TO.N,PICO_D3*%
X105000000Y-65160000D03*
%TO.P,U9,6*%
%TO.N,PICO_D4*%
X105000000Y-67700000D03*
%TO.P,U9,7*%
%TO.N,PICO_D5*%
X105000000Y-70240000D03*
%TO.P,U9,8*%
%TO.N,PICO_D6*%
X105000000Y-72780000D03*
%TO.P,U9,9*%
%TO.N,PICO_D7*%
X105000000Y-75320000D03*
%TO.P,U9,10*%
%TO.N,GND*%
X105000000Y-77860000D03*
%TO.P,U9,11*%
%TO.N,D7*%
X112620000Y-77860000D03*
%TO.P,U9,12*%
%TO.N,D6*%
X112620000Y-75320000D03*
%TO.P,U9,13*%
%TO.N,D5*%
X112620000Y-72780000D03*
%TO.P,U9,14*%
%TO.N,D4*%
X112620000Y-70240000D03*
%TO.P,U9,15*%
%TO.N,D3*%
X112620000Y-67700000D03*
%TO.P,U9,16*%
%TO.N,D2*%
X112620000Y-65160000D03*
%TO.P,U9,17*%
%TO.N,D1*%
X112620000Y-62620000D03*
%TO.P,U9,18*%
%TO.N,D0*%
X112620000Y-60080000D03*
%TO.P,U9,19*%
%TO.N,DATA_UP_OE_N*%
X112620000Y-57540000D03*
%TO.P,U9,20*%
%TO.N,+5V*%
X112620000Y-55000000D03*
%TD*%
%TO.P,R12,1*%
%TO.N,INT_N*%
X69600000Y-90000000D03*
%TO.P,R12,2*%
%TO.N,+5V*%
X69600000Y-79840000D03*
%TD*%
D20*
%TO.P,D1,1*%
%TO.N,VSYS*%
X15000000Y-105000000D03*
D21*
%TO.P,D1,2*%
%TO.N,+5V*%
X25160000Y-105000000D03*
%TD*%
D11*
%TO.P,C10,1*%
%TO.N,+5V*%
X96000000Y-82000000D03*
D10*
%TO.P,C10,2*%
%TO.N,GND*%
X99500000Y-82000000D03*
%TD*%
D11*
%TO.P,U7,1*%
%TO.N,GND*%
X143000000Y-55000000D03*
D10*
%TO.P,U7,2*%
%TO.N,BUSACK_N*%
X143000000Y-57540000D03*
%TO.P,U7,3*%
%TO.N,N/C*%
X143000000Y-60080000D03*
%TO.P,U7,4*%
%TO.N,IORQ_N*%
X143000000Y-62620000D03*
%TO.P,U7,5*%
%TO.N,N/C*%
X143000000Y-65160000D03*
%TO.P,U7,6*%
%TO.N,RD_N*%
X143000000Y-67700000D03*
%TO.P,U7,7*%
%TO.N,N/C*%
X143000000Y-70240000D03*
%TO.P,U7,8*%
%TO.N,WR_N*%
X143000000Y-72780000D03*
%TO.P,U7,9*%
%TO.N,PICO_SPI_MISO*%
X143000000Y-75320000D03*
%TO.P,U7,10*%
%TO.N,GND*%
X143000000Y-77860000D03*
%TO.P,U7,11*%
%TO.N,MCP_SO*%
X150620000Y-77860000D03*
%TO.P,U7,12*%
%TO.N,PICO_WR_N*%
X150620000Y-75320000D03*
%TO.P,U7,13*%
%TO.N,GND*%
X150620000Y-72780000D03*
%TO.P,U7,14*%
%TO.N,PICO_RD_N*%
X150620000Y-70240000D03*
%TO.P,U7,15*%
%TO.N,GND*%
X150620000Y-67700000D03*
%TO.P,U7,16*%
%TO.N,PICO_IORQ_N*%
X150620000Y-65160000D03*
%TO.P,U7,17*%
%TO.N,GND*%
X150620000Y-62620000D03*
%TO.P,U7,18*%
%TO.N,PICO_BUSACK_N*%
X150620000Y-60080000D03*
%TO.P,U7,19*%
%TO.N,GND*%
X150620000Y-57540000D03*
%TO.P,U7,20*%
%TO.N,+3V3*%
X150620000Y-55000000D03*
%TD*%
%TO.P,C5,1*%
%TO.N,+3V3*%
X155000000Y-55000000D03*
%TO.P,C5,2*%
%TO.N,GND*%
X155000000Y-52500000D03*
%TD*%
%TO.P,R9,1*%
%TO.N,SRAM_OE_N*%
X52800000Y-90000000D03*
%TO.P,R9,2*%
%TO.N,+5V*%
X52800000Y-79840000D03*
%TD*%
D12*
%TO.P,TP3,1*%
%TO.N,RESET_N*%
X50000000Y-10000000D03*
%TD*%
D10*
%TO.P,C1,1*%
%TO.N,+5V*%
X34000000Y-42500000D03*
%TO.P,C1,2*%
%TO.N,GND*%
X36500000Y-42500000D03*
%TD*%
%TO.P,R31,1*%
%TO.N,MCP_RESET_N*%
X126000000Y-135000000D03*
%TO.P,R31,2*%
%TO.N,+5V*%
X126000000Y-124840000D03*
%TD*%
%TO.P,R18,1*%
%TO.N,PICO_CE_N*%
X114000000Y-94000000D03*
%TO.P,R18,2*%
%TO.N,+3V3*%
X114000000Y-83840000D03*
%TD*%
%TO.P,R22,1*%
%TO.N,PICO_CLK*%
X60000000Y-105000000D03*
%TO.P,R22,2*%
%TO.N,GND*%
X60000000Y-94840000D03*
%TD*%
D15*
%TO.P,RN3,1*%
%TO.N,GND*%
X82000000Y-137000000D03*
D10*
%TO.P,RN3,2*%
%TO.N,PICO_D0*%
X84540000Y-137000000D03*
%TO.P,RN3,3*%
%TO.N,PICO_D1*%
X87080000Y-137000000D03*
%TO.P,RN3,4*%
%TO.N,PICO_D2*%
X89620000Y-137000000D03*
%TO.P,RN3,5*%
%TO.N,PICO_D3*%
X92160000Y-137000000D03*
%TO.P,RN3,6*%
%TO.N,PICO_D4*%
X94700000Y-137000000D03*
%TO.P,RN3,7*%
%TO.N,PICO_D5*%
X97240000Y-137000000D03*
%TO.P,RN3,8*%
%TO.N,PICO_D6*%
X99780000Y-137000000D03*
%TO.P,RN3,9*%
%TO.N,PICO_D7*%
X102320000Y-137000000D03*
%TD*%
D11*
%TO.P,U1,1*%
%TO.N,A11*%
X40000000Y-17000000D03*
D10*
%TO.P,U1,2*%
%TO.N,A12*%
X40000000Y-19540000D03*
%TO.P,U1,3*%
%TO.N,A13*%
X40000000Y-22080000D03*
%TO.P,U1,4*%
%TO.N,A14*%
X40000000Y-24620000D03*
%TO.P,U1,5*%
%TO.N,A15*%
X40000000Y-27160000D03*
%TO.P,U1,6*%
%TO.N,Z80_CLK*%
X40000000Y-29700000D03*
%TO.P,U1,7*%
%TO.N,D4*%
X40000000Y-32240000D03*
%TO.P,U1,8*%
%TO.N,D3*%
X40000000Y-34780000D03*
%TO.P,U1,9*%
%TO.N,D5*%
X40000000Y-37320000D03*
%TO.P,U1,10*%
%TO.N,D6*%
X40000000Y-39860000D03*
%TO.P,U1,11*%
%TO.N,+5V*%
X40000000Y-42400000D03*
%TO.P,U1,12*%
%TO.N,D2*%
X40000000Y-44940000D03*
%TO.P,U1,13*%
%TO.N,D7*%
X40000000Y-47480000D03*
%TO.P,U1,14*%
%TO.N,D0*%
X40000000Y-50020000D03*
%TO.P,U1,15*%
%TO.N,D1*%
X40000000Y-52560000D03*
%TO.P,U1,16*%
%TO.N,INT_N*%
X40000000Y-55100000D03*
%TO.P,U1,17*%
%TO.N,NMI_N*%
X40000000Y-57640000D03*
%TO.P,U1,18*%
%TO.N,N/C*%
X40000000Y-60180000D03*
%TO.P,U1,19*%
%TO.N,MREQ_N*%
X40000000Y-62720000D03*
%TO.P,U1,20*%
%TO.N,IORQ_N*%
X40000000Y-65260000D03*
%TO.P,U1,21*%
%TO.N,RD_N*%
X55240000Y-65260000D03*
%TO.P,U1,22*%
%TO.N,WR_N*%
X55240000Y-62720000D03*
%TO.P,U1,23*%
%TO.N,BUSACK_N*%
X55240000Y-60180000D03*
%TO.P,U1,24*%
%TO.N,WAIT_N*%
X55240000Y-57640000D03*
%TO.P,U1,25*%
%TO.N,BUSREQ_N*%
X55240000Y-55100000D03*
%TO.P,U1,26*%
%TO.N,RESET_N*%
X55240000Y-52560000D03*
%TO.P,U1,27*%
%TO.N,M1_N*%
X55240000Y-50020000D03*
%TO.P,U1,28*%
%TO.N,N/C*%
X55240000Y-47480000D03*
%TO.P,U1,29*%
%TO.N,GND*%
X55240000Y-44940000D03*
%TO.P,U1,30*%
%TO.N,A0*%
X55240000Y-42400000D03*
%TO.P,U1,31*%
%TO.N,A1*%
X55240000Y-39860000D03*
%TO.P,U1,32*%
%TO.N,A2*%
X55240000Y-37320000D03*
%TO.P,U1,33*%
%TO.N,A3*%
X55240000Y-34780000D03*
%TO.P,U1,34*%
%TO.N,A4*%
X55240000Y-32240000D03*
%TO.P,U1,35*%
%TO.N,A5*%
X55240000Y-29700000D03*
%TO.P,U1,36*%
%TO.N,A6*%
X55240000Y-27160000D03*
%TO.P,U1,37*%
%TO.N,A7*%
X55240000Y-24620000D03*
%TO.P,U1,38*%
%TO.N,A8*%
X55240000Y-22080000D03*
%TO.P,U1,39*%
%TO.N,A9*%
X55240000Y-19540000D03*
%TO.P,U1,40*%
%TO.N,A10*%
X55240000Y-17000000D03*
%TD*%
D22*
%TO.P,C12,1*%
%TO.N,+5V*%
X27000000Y-12000000D03*
D23*
%TO.P,C12,2*%
%TO.N,GND*%
X32000000Y-12000000D03*
%TD*%
D10*
%TO.P,R1,1*%
%TO.N,BUSREQ_N*%
X8000000Y-90000000D03*
%TO.P,R1,2*%
%TO.N,+5V*%
X8000000Y-79840000D03*
%TD*%
D24*
%TO.P,J1,1*%
%TO.N,+5V*%
X16000000Y-13000000D03*
D25*
%TO.P,J1,2*%
%TO.N,GND*%
X21000000Y-13000000D03*
%TD*%
D10*
%TO.P,R28,1*%
%TO.N,PICO_SPI_MOSI*%
X150000000Y-115000000D03*
%TO.P,R28,2*%
%TO.N,GND*%
X150000000Y-104840000D03*
%TD*%
D26*
%TO.N,A0*%
X37028500Y-63130700D03*
%TO.N,A1*%
X47212800Y-40984700D03*
%TO.N,A10*%
X31279900Y-18280200D03*
%TO.N,A11*%
X28332300Y-45496100D03*
%TO.N,A12*%
X42468600Y-23883000D03*
X44379400Y-54108500D03*
%TO.N,A13*%
X76166600Y-31470400D03*
X48727500Y-58863000D03*
%TO.N,A2*%
X27297900Y-43987100D03*
X46887800Y-42772100D03*
%TO.N,A3*%
X47203800Y-37370500D03*
X35875900Y-39101400D03*
%TO.N,A4*%
X34432900Y-37177200D03*
X47160000Y-32997200D03*
%TO.N,A5*%
X27686100Y-28808600D03*
X48047500Y-31324500D03*
%TO.N,A6*%
X26648900Y-24825700D03*
%TO.N,A7*%
X44143600Y-20662800D03*
%TO.N,A8*%
X22185100Y-55316100D03*
%TO.N,A9*%
X23540200Y-47350600D03*
%TO.N,BUSACK_N*%
X82471500Y-62494100D03*
%TO.N,D0*%
X47205000Y-45058400D03*
X32667200Y-51210000D03*
X69867900Y-58322700D03*
%TO.N,D1*%
X61640900Y-56350600D03*
X101693700Y-57185900D03*
X34487900Y-53791100D03*
%TO.N,D2*%
X99751300Y-57183600D03*
X63304800Y-56596200D03*
X57809300Y-56959500D03*
%TO.N,D3*%
X67748200Y-48478700D03*
X111371200Y-56661000D03*
%TO.N,D5*%
X56898400Y-54446400D03*
%TO.N,D6*%
X34964100Y-40040600D03*
X48742300Y-73530900D03*
X29248300Y-70479300D03*
%TO.N,D7*%
X48732300Y-53966200D03*
X32752700Y-48635800D03*
%TO.N,DATA_ENABLE*%
X50419700Y-110898900D03*
X75650800Y-99994800D03*
%TO.N,GND*%
X79471700Y-82121600D03*
X119005100Y-79877600D03*
%TO.N,INT_N*%
X53469400Y-84172500D03*
X41462000Y-69591800D03*
%TO.N,IORQ_N*%
X60591600Y-56695000D03*
X34901400Y-76773900D03*
%TO.N,MCP_RESET_BASE*%
X105902500Y-73945500D03*
%TO.N,MCP_RESET_DRIVE*%
X103153700Y-43233700D03*
%TO.N,MCP_RESET_N*%
X108201100Y-69039200D03*
%TO.N,MCP_SO*%
X115587300Y-58171900D03*
X56788700Y-80346200D03*
%TO.N,MREQ_N*%
X61374600Y-54390800D03*
X31739800Y-76752100D03*
%TO.N,NMI_N*%
X41946500Y-75209800D03*
X47118500Y-83666100D03*
%TO.N,PICO_BUSREQ_N*%
X29857800Y-104810800D03*
%TO.N,PICO_CE_N*%
X29390000Y-105810100D03*
%TO.N,PICO_D0*%
X114881800Y-57250000D03*
%TO.N,PICO_D2*%
X53450400Y-135464100D03*
%TO.N,PICO_D3*%
X65509600Y-137781800D03*
%TO.N,PICO_D5*%
X117408600Y-70240000D03*
%TO.N,PICO_D6*%
X101352600Y-115566100D03*
%TO.N,PICO_D7*%
X106178900Y-115197500D03*
X117419500Y-75320000D03*
%TO.N,PICO_OE_N*%
X46271500Y-113521700D03*
X99814800Y-36182900D03*
%TO.N,PICO_RD_N*%
X49180300Y-111304100D03*
%TO.N,PICO_SPI_CS_N*%
X58511700Y-98469100D03*
%TO.N,PICO_SPI_MOSI*%
X74381400Y-103826300D03*
X145745500Y-112443600D03*
%TO.N,PICO_SPI_SCK*%
X72224900Y-114030100D03*
%TO.N,RD_N*%
X87073300Y-65207700D03*
X49930800Y-80346200D03*
%TO.N,RESET_N*%
X73624000Y-112900100D03*
%TO.N,SRAM_CE_N*%
X34664800Y-68206500D03*
%TO.N,SRAM_CE_PRE_N*%
X90674200Y-67672400D03*
%TO.N,SRAM_OE_N*%
X27095900Y-45993700D03*
X56021800Y-66468200D03*
X41415000Y-64533600D03*
%TO.N,SRAM_OE_PRE_N*%
X91345800Y-56927500D03*
%TO.N,SRAM_WE_N*%
X46252800Y-61911100D03*
X32628100Y-35842200D03*
X59001800Y-65864100D03*
%TO.N,SRAM_WE_PRE_N*%
X77104900Y-74457100D03*
%TO.N,WAIT_N*%
X63966900Y-49163500D03*
%TO.N,WR_N*%
X97698000Y-32612900D03*
X139705300Y-50445200D03*
%TD*%
%TO.N,+3V3*%
D27*
X132000000Y-83840000D02*
X134200000Y-81640000D01*
X134200000Y-81640000D02*
X134200000Y-55000000D01*
%TO.N,+5V*%
X26151200Y-104008800D02*
X26151200Y-81191200D01*
X35351600Y-63000000D02*
X34000000Y-63000000D01*
X33730800Y-63269200D02*
X33730800Y-70429100D01*
X8000000Y-79840000D02*
X8000000Y-67000000D01*
X115200000Y-55000000D02*
X113804700Y-53604700D01*
X25160000Y-105000000D02*
X26151200Y-104008800D01*
X37741500Y-60610100D02*
X35351600Y-63000000D01*
X32000000Y-61000000D02*
X34000000Y-63000000D01*
X27000000Y-12000000D02*
X27000000Y-21000000D01*
X56540200Y-76099800D02*
X56540200Y-68698800D01*
X34000000Y-63000000D02*
X33730800Y-63269200D01*
X25669800Y-27080000D02*
X28000000Y-24749800D01*
X58000000Y-67239000D02*
X58000000Y-62380000D01*
X37741500Y-44658500D02*
X37741500Y-60610100D01*
X26151200Y-81191200D02*
X24800000Y-79840000D01*
X58000000Y-62380000D02*
X58000000Y-59000000D01*
X25240000Y-27080000D02*
X25669800Y-27080000D01*
X34000000Y-72000000D02*
X34000000Y-70698300D01*
X33730800Y-70429100D02*
X34000000Y-70698300D01*
X113804700Y-38804700D02*
X105000000Y-30000000D01*
X28000000Y-24749800D02*
X28000000Y-22000000D01*
X40000000Y-42400000D02*
X37741500Y-44658500D01*
X56540200Y-68698800D02*
X58000000Y-67239000D01*
X113804700Y-53604700D02*
X113804700Y-38804700D01*
X27000000Y-21000000D02*
X28000000Y-22000000D01*
X52800000Y-79840000D02*
X56540200Y-76099800D01*
%TO.N,A0*%
D28*
X13532700Y-68178900D02*
X11718900Y-68178900D01*
X10000000Y-49940000D02*
X10000000Y-50203800D01*
X55605800Y-51290000D02*
X56412000Y-50483800D01*
X56412000Y-50483800D02*
X56412000Y-43572000D01*
X14247800Y-67463800D02*
X13532700Y-68178900D01*
X47004500Y-62222400D02*
X47004500Y-61653700D01*
X14247800Y-54451600D02*
X14247800Y-67463800D01*
X41987100Y-61513700D02*
X43193400Y-62720000D01*
X54799400Y-51290000D02*
X55605800Y-51290000D01*
X37028500Y-63130700D02*
X38645500Y-61513700D01*
X11718900Y-68178900D02*
X10540000Y-67000000D01*
X10000000Y-50203800D02*
X14247800Y-54451600D01*
X47004500Y-61653700D02*
X50201500Y-58456700D01*
X43193400Y-62720000D02*
X46506900Y-62720000D01*
X56412000Y-43572000D02*
X55240000Y-42400000D01*
X46506900Y-62720000D02*
X47004500Y-62222400D01*
X50201500Y-55887900D02*
X54799400Y-51290000D01*
X50201500Y-58456700D02*
X50201500Y-55887900D01*
X38645500Y-61513700D02*
X41987100Y-61513700D01*
%TO.N,A1*%
X8817200Y-62737200D02*
X8817200Y-48582800D01*
X48337500Y-39860000D02*
X47212800Y-40984700D01*
X55240000Y-39860000D02*
X48337500Y-39860000D01*
X13080000Y-67000000D02*
X8817200Y-62737200D01*
X8817200Y-48582800D02*
X10000000Y-47400000D01*
%TO.N,A10*%
X26486200Y-28629000D02*
X29348300Y-25766900D01*
X26486200Y-37622600D02*
X26486200Y-28629000D01*
X25240000Y-44860000D02*
X24054400Y-43674400D01*
X24054400Y-43674400D02*
X24054400Y-39286000D01*
X25717100Y-38391700D02*
X26486200Y-37622600D01*
X24948700Y-38391700D02*
X25717100Y-38391700D01*
X24054400Y-39286000D02*
X24948700Y-38391700D01*
X29348300Y-20211800D02*
X31279900Y-18280200D01*
X29348300Y-25766900D02*
X29348300Y-20211800D01*
%TO.N,A11*%
X28332300Y-42872300D02*
X28332300Y-45496100D01*
X27439700Y-30118000D02*
X40000000Y-17557700D01*
X25240000Y-39780000D02*
X27439700Y-37580300D01*
X27439700Y-37580300D02*
X27439700Y-30118000D01*
X40000000Y-17557700D02*
X40000000Y-17000000D01*
X25240000Y-39780000D02*
X28332300Y-42872300D01*
%TO.N,A12*%
X42468600Y-22008600D02*
X42468600Y-23883000D01*
X44379400Y-25793800D02*
X42468600Y-23883000D01*
X40000000Y-19540000D02*
X42468600Y-22008600D01*
X44379400Y-54108500D02*
X44379400Y-25793800D01*
%TO.N,A13*%
X43627700Y-54419700D02*
X48071000Y-58863000D01*
X78000000Y-34700000D02*
X76166600Y-32866600D01*
X41389800Y-23469800D02*
X41389800Y-33420600D01*
X41389800Y-33420600D02*
X43627700Y-35658500D01*
X40000000Y-22080000D02*
X41389800Y-23469800D01*
X76166600Y-32866600D02*
X76166600Y-31470400D01*
X48071000Y-58863000D02*
X48727500Y-58863000D01*
X43627700Y-35658500D02*
X43627700Y-54419700D01*
%TO.N,A3*%
X13820800Y-53315200D02*
X18160000Y-57654400D01*
X18160000Y-57654400D02*
X18160000Y-67000000D01*
X10000000Y-42320000D02*
X13820800Y-46140800D01*
X13820800Y-46140800D02*
X13820800Y-53315200D01*
%TO.N,A4*%
X14322500Y-44102500D02*
X14322500Y-53107500D01*
X14322500Y-53107500D02*
X20700000Y-59485000D01*
X20700000Y-59485000D02*
X20700000Y-67000000D01*
X10000000Y-39780000D02*
X14322500Y-44102500D01*
%TO.N,A5*%
X21727700Y-65487700D02*
X23240000Y-67000000D01*
X21727700Y-59802300D02*
X21727700Y-65487700D01*
X10000000Y-37240000D02*
X14886200Y-42126200D01*
X14886200Y-42126200D02*
X14886200Y-52960800D01*
X14886200Y-52960800D02*
X21727700Y-59802300D01*
%TO.N,A6*%
X10000000Y-34700000D02*
X15503800Y-40203800D01*
X15503800Y-40203800D02*
X15503800Y-52868000D01*
X15503800Y-52868000D02*
X22229400Y-59593600D01*
X22229400Y-59593600D02*
X22229400Y-63449400D01*
X22229400Y-63449400D02*
X25780000Y-67000000D01*
%TO.N,A7*%
X28319900Y-65518000D02*
X28320000Y-65518000D01*
X16213400Y-52702100D02*
X22731100Y-59219800D01*
X22731100Y-59929200D02*
X28319900Y-65518000D01*
X22731100Y-59219800D02*
X22731100Y-59929200D01*
X10000000Y-32160000D02*
X16213400Y-38373400D01*
X28320000Y-65518000D02*
X28320000Y-67000000D01*
X16213400Y-38373400D02*
X16213400Y-52702100D01*
%TO.N,A8*%
X25240000Y-34700000D02*
X22185100Y-37754900D01*
X22185100Y-37754900D02*
X22185100Y-55316100D01*
%TO.N,A9*%
X23540200Y-47350600D02*
X23540200Y-38939800D01*
X23540200Y-38939800D02*
X25240000Y-37240000D01*
%TO.N,ADDR_ENABLE*%
X84000000Y-105000000D02*
X89922500Y-99077500D01*
X95163300Y-46023300D02*
X94000000Y-44860000D01*
X89922500Y-99077500D02*
X89922500Y-65630200D01*
X95163300Y-60389400D02*
X95163300Y-46023300D01*
X89922500Y-65630200D02*
X95163300Y-60389400D01*
%TO.N,BUSACK_N*%
X85920000Y-46248300D02*
X85068400Y-46248300D01*
X90821800Y-27718200D02*
X90821800Y-41346500D01*
X85068400Y-46248300D02*
X82471500Y-48845200D01*
X82471500Y-48845200D02*
X82471500Y-62494100D01*
X47851700Y-72544200D02*
X47851700Y-67568300D01*
X13600000Y-89335800D02*
X24247500Y-78688300D01*
X24247500Y-78688300D02*
X41707600Y-78688300D01*
X88000000Y-10000000D02*
X88000000Y-18540000D01*
X13600000Y-90000000D02*
X13600000Y-89335800D01*
X88000000Y-18540000D02*
X94000000Y-24540000D01*
X94000000Y-24540000D02*
X90821800Y-27718200D01*
X41707600Y-78688300D02*
X47851700Y-72544200D01*
X90821800Y-41346500D02*
X85920000Y-46248300D01*
X47851700Y-67568300D02*
X55240000Y-60180000D01*
%TO.N,BUSREQ_N*%
X40290000Y-72479200D02*
X40290000Y-69699300D01*
X10688000Y-90000000D02*
X22501400Y-78186600D01*
X55240000Y-55405700D02*
X55240000Y-55100000D01*
X68160000Y-62380000D02*
X68499900Y-62040100D01*
X46922300Y-63723400D02*
X55240000Y-55405700D01*
X34582600Y-78186600D02*
X40290000Y-72479200D01*
X40290000Y-69699300D02*
X46265900Y-63723400D01*
X8000000Y-90000000D02*
X10688000Y-90000000D01*
X22501400Y-78186600D02*
X34582600Y-78186600D01*
X46265900Y-63723400D02*
X46922300Y-63723400D01*
X68499900Y-62040100D02*
X68499900Y-22500100D01*
X68499900Y-22500100D02*
X81000000Y-10000000D01*
%TO.N,D2*%
X59221200Y-55547600D02*
X57809300Y-56959500D01*
X62256200Y-55547600D02*
X59221200Y-55547600D01*
X63304800Y-56596200D02*
X62256200Y-55547600D01*
%TO.N,D3*%
X24088200Y-55510100D02*
X24986400Y-56408300D01*
X24088200Y-51918600D02*
X24088200Y-55510100D01*
X111371200Y-66451200D02*
X112620000Y-67700000D01*
X111371200Y-56661000D02*
X111371200Y-66451200D01*
X29774600Y-44139800D02*
X29774600Y-47141200D01*
X24986400Y-56408300D02*
X25717100Y-56408300D01*
X39134400Y-34780000D02*
X29774600Y-44139800D01*
X40000000Y-34780000D02*
X39134400Y-34780000D01*
X24800700Y-51206100D02*
X24088200Y-51918600D01*
X26391700Y-57082900D02*
X26391700Y-58948300D01*
X25709700Y-51206100D02*
X24800700Y-51206100D01*
X25717100Y-56408300D02*
X26391700Y-57082900D01*
X26391700Y-58948300D02*
X25240000Y-60100000D01*
X29774600Y-47141200D02*
X25709700Y-51206100D01*
%TO.N,D5*%
X35250000Y-45010000D02*
X25240000Y-55020000D01*
X40000000Y-37320000D02*
X35250000Y-42070000D01*
X35250000Y-42070000D02*
X35250000Y-45010000D01*
%TO.N,D6*%
X34964100Y-40040600D02*
X34815000Y-40040600D01*
X30276300Y-44579300D02*
X30276300Y-47443700D01*
X30276300Y-47443700D02*
X25240000Y-52480000D01*
X34815000Y-40040600D02*
X30276300Y-44579300D01*
%TO.N,DATA_DIR*%
X83351400Y-93405600D02*
X76000000Y-100757000D01*
X86985500Y-73669800D02*
X83351400Y-77303900D01*
X94000000Y-47400000D02*
X90594100Y-50805900D01*
X90594100Y-50805900D02*
X90594100Y-63537800D01*
X86985500Y-67146400D02*
X86985500Y-73669800D01*
X76000000Y-100757000D02*
X76000000Y-105000000D01*
X83351400Y-77303900D02*
X83351400Y-93405600D01*
X90594100Y-63537800D02*
X86985500Y-67146400D01*
%TO.N,DATA_ENABLE*%
X39653100Y-134320800D02*
X39653100Y-125751700D01*
X39653100Y-125751700D02*
X47170000Y-118234800D01*
X90092400Y-46227600D02*
X90092400Y-63251600D01*
X82552000Y-93093600D02*
X75650800Y-99994800D01*
X47170000Y-118234800D02*
X47170000Y-114404100D01*
X30660000Y-134000000D02*
X31831600Y-135171600D01*
X90092400Y-63251600D02*
X86460200Y-66883800D01*
X50419700Y-111154400D02*
X50419700Y-110898900D01*
X47170000Y-114404100D02*
X50419700Y-111154400D01*
X86460200Y-68637000D02*
X82552000Y-72545200D01*
X86460200Y-66883800D02*
X86460200Y-68637000D01*
X94000000Y-42320000D02*
X90092400Y-46227600D01*
X82552000Y-72545200D02*
X82552000Y-93093600D01*
X38802300Y-135171600D02*
X39653100Y-134320800D01*
X31831600Y-135171600D02*
X38802300Y-135171600D01*
%TO.N,GND*%
X85620000Y-52480000D02*
X85620000Y-55020000D01*
X86000000Y-62000000D02*
X86000000Y-60898300D01*
X76353200Y-94486800D02*
X76000000Y-94840000D01*
X60540000Y-62380000D02*
X60540000Y-67460000D01*
X85620000Y-60518300D02*
X85620000Y-55020000D01*
X150620000Y-72780000D02*
X152280000Y-72780000D01*
X60540000Y-59040000D02*
X60540000Y-62380000D01*
X58268500Y-99775300D02*
X60000000Y-98043800D01*
X60000000Y-98043800D02*
X60000000Y-94840000D01*
X79471700Y-82121600D02*
X79471700Y-75760900D01*
X79471700Y-75760900D02*
X77416200Y-73705400D01*
X143000000Y-103840000D02*
X143000000Y-77860000D01*
X50980000Y-116220000D02*
X58268500Y-108931500D01*
X85620000Y-49940000D02*
X85620000Y-52480000D01*
X77416200Y-73443800D02*
X77416200Y-73705400D01*
X115200000Y-37700000D02*
X115200000Y-52500000D01*
X58268500Y-108931500D02*
X58268500Y-99775300D01*
X107500000Y-30000000D02*
X115200000Y-37700000D01*
X60500000Y-59000000D02*
X60540000Y-59040000D01*
X36500000Y-42500000D02*
X36500000Y-60000000D01*
X142000000Y-104840000D02*
X143000000Y-103840000D01*
X118000000Y-112840000D02*
X118000000Y-124840000D01*
X36500000Y-60000000D02*
X35500000Y-61000000D01*
X38280000Y-116220000D02*
X38280000Y-134000000D01*
X86000000Y-60898300D02*
X85620000Y-60518300D01*
X76353200Y-74145900D02*
X76353200Y-94486800D01*
X76793700Y-73705400D02*
X76353200Y-74145900D01*
X152280000Y-72780000D02*
X161500000Y-82000000D01*
X77416200Y-73705400D02*
X76793700Y-73705400D01*
X60540000Y-67460000D02*
X58000000Y-70000000D01*
X110000000Y-104840000D02*
X118000000Y-112840000D01*
X80860000Y-70000000D02*
X77416200Y-73443800D01*
%TO.N,IORQ_N*%
X40000000Y-65260000D02*
X37810000Y-67450000D01*
X37810000Y-73865300D02*
X34901400Y-76773900D01*
X37810000Y-67450000D02*
X37810000Y-73865300D01*
%TO.N,M1_N*%
X47066300Y-41846300D02*
X55240000Y-50020000D01*
X43000000Y-10000000D02*
X46351200Y-13351200D01*
X46351200Y-41268500D02*
X46929000Y-41846300D01*
X46351200Y-13351200D02*
X46351200Y-41268500D01*
X46929000Y-41846300D02*
X47066300Y-41846300D01*
%TO.N,MCP_CS_N*%
X73240000Y-52160000D02*
X73240000Y-62380000D01*
X78000000Y-47400000D02*
X73240000Y-52160000D01*
%TO.N,MCP_RESET_BASE*%
X105902500Y-73945500D02*
X106930700Y-74973700D01*
X106930700Y-121770700D02*
X110000000Y-124840000D01*
X106930700Y-74973700D02*
X106930700Y-121770700D01*
%TO.N,MCP_RESET_DRIVE*%
X107432400Y-118001900D02*
X107432400Y-47512400D01*
X110000000Y-135000000D02*
X111200100Y-133799900D01*
X107432400Y-47512400D02*
X103153700Y-43233700D01*
X111200100Y-133799900D02*
X111200100Y-121769600D01*
X111200100Y-121769600D02*
X107432400Y-118001900D01*
%TO.N,MCP_RESET_N*%
X88540000Y-50320000D02*
X85620000Y-47400000D01*
X88540000Y-62000000D02*
X88540000Y-50320000D01*
X108201100Y-117201100D02*
X108201100Y-69039200D01*
X126000000Y-135000000D02*
X108201100Y-117201100D01*
%TO.N,MCP_SCK*%
X76839700Y-60899700D02*
X78320000Y-62380000D01*
X78000000Y-49940000D02*
X76839700Y-51100300D01*
X76839700Y-51100300D02*
X76839700Y-60899700D01*
%TO.N,MCP_SI*%
X79479300Y-53959300D02*
X78000000Y-52480000D01*
X79479300Y-68840700D02*
X79479300Y-53959300D01*
X78320000Y-70000000D02*
X79479300Y-68840700D01*
%TO.N,MREQ_N*%
X54748500Y-53909700D02*
X50703200Y-57955000D01*
X61374600Y-54390800D02*
X60678500Y-53694700D01*
X56587200Y-53694700D02*
X56372200Y-53909700D01*
X35416500Y-68517800D02*
X35384200Y-68550100D01*
X47506200Y-62430100D02*
X46714600Y-63221700D01*
X60678500Y-53694700D02*
X56587200Y-53694700D01*
X35384200Y-73107700D02*
X31739800Y-76752100D01*
X50703200Y-58664400D02*
X47506200Y-61861400D01*
X40000000Y-62720000D02*
X35416500Y-67303500D01*
X40501700Y-63221700D02*
X40000000Y-62720000D01*
X50703200Y-57955000D02*
X50703200Y-58664400D01*
X35416500Y-67303500D02*
X35416500Y-68517800D01*
X35384200Y-68550100D02*
X35384200Y-73107700D01*
X46714600Y-63221700D02*
X40501700Y-63221700D01*
X47506200Y-61861400D02*
X47506200Y-62430100D01*
X56372200Y-53909700D02*
X54748500Y-53909700D01*
%TO.N,PICO_BUSREQ_N*%
X26801400Y-127698600D02*
X26801400Y-107324600D01*
X29315200Y-104810800D02*
X29857800Y-104810800D01*
X20500000Y-134000000D02*
X26801400Y-127698600D01*
X26801400Y-107324600D02*
X29315200Y-104810800D01*
%TO.N,PICO_CE_N*%
X110117700Y-90117700D02*
X114000000Y-94000000D01*
X110117700Y-49125600D02*
X110117700Y-90117700D01*
X97810000Y-41050000D02*
X102042100Y-41050000D01*
X102042100Y-41050000D02*
X110117700Y-49125600D01*
X94000000Y-37240000D02*
X97810000Y-41050000D01*
X29390000Y-127650000D02*
X29390000Y-105810100D01*
X23040000Y-134000000D02*
X29390000Y-127650000D01*
%TO.N,PICO_D0*%
X100838100Y-89973300D02*
X84540000Y-106271400D01*
X84540000Y-106271400D02*
X84540000Y-137000000D01*
X100838100Y-61701900D02*
X100838100Y-89973300D01*
X105000000Y-57540000D02*
X100838100Y-61701900D01*
%TO.N,PICO_D1*%
X101339800Y-63740200D02*
X101339800Y-95704200D01*
X101591500Y-102122000D02*
X87080000Y-116633500D01*
X101339800Y-95704200D02*
X101591500Y-95955900D01*
X101591500Y-95955900D02*
X101591500Y-102122000D01*
X87080000Y-116633500D02*
X87080000Y-137000000D01*
X105000000Y-60080000D02*
X101339800Y-63740200D01*
%TO.N,PICO_D2*%
X96079300Y-133200500D02*
X96079300Y-109053000D01*
X102343200Y-95288800D02*
X102343200Y-68728100D01*
X89620000Y-137000000D02*
X90818200Y-138198200D01*
X45900000Y-134000000D02*
X47364100Y-135464100D01*
X106697500Y-65117600D02*
X106697500Y-63681000D01*
X105385100Y-66430000D02*
X106697500Y-65117600D01*
X102343200Y-68728100D02*
X104641300Y-66430000D01*
X104119800Y-101012500D02*
X104119800Y-97065400D01*
X104119800Y-97065400D02*
X102343200Y-95288800D01*
X106697500Y-63681000D02*
X105636500Y-62620000D01*
X104641300Y-66430000D02*
X105385100Y-66430000D01*
X93430000Y-135849800D02*
X96079300Y-133200500D01*
X47364100Y-135464100D02*
X53450400Y-135464100D01*
X96079300Y-109053000D02*
X104119800Y-101012500D01*
X90818200Y-138198200D02*
X92653600Y-138198200D01*
X92653600Y-138198200D02*
X93430000Y-137421800D01*
X93430000Y-137421800D02*
X93430000Y-135849800D01*
X105636500Y-62620000D02*
X105000000Y-62620000D01*
%TO.N,PICO_D3*%
X101841500Y-95496500D02*
X103618100Y-97273100D01*
X105000000Y-65160000D02*
X101841500Y-68318500D01*
X103618100Y-97273100D02*
X103618100Y-100804800D01*
X92160000Y-112972300D02*
X92160000Y-137000000D01*
X103618100Y-100804800D02*
X95515600Y-108907300D01*
X101841500Y-68318500D02*
X101841500Y-95496500D01*
X95515600Y-109616700D02*
X92160000Y-112972300D01*
X95515600Y-108907300D02*
X95515600Y-109616700D01*
%TO.N,PICO_D4*%
X97343800Y-108497900D02*
X97343800Y-134356200D01*
X97343800Y-134356200D02*
X94700000Y-137000000D01*
X102844900Y-69855100D02*
X102844900Y-94892400D01*
X103346600Y-95394100D02*
X103346600Y-95582800D01*
X104621500Y-101220200D02*
X97343800Y-108497900D01*
X105000000Y-67700000D02*
X102844900Y-69855100D01*
X102844900Y-94892400D02*
X103346600Y-95394100D01*
X103346600Y-95582800D02*
X104621500Y-96857700D01*
X104621500Y-96857700D02*
X104621500Y-101220200D01*
%TO.N,PICO_D5*%
X103346600Y-71893400D02*
X103346600Y-94684700D01*
X97845500Y-136394500D02*
X97240000Y-137000000D01*
X105000000Y-70240000D02*
X103346600Y-71893400D01*
X103346600Y-94684700D02*
X105123200Y-96461300D01*
X97845500Y-108705600D02*
X97845500Y-136394500D01*
X105123200Y-96461300D02*
X105123200Y-101427900D01*
X105123200Y-101427900D02*
X97845500Y-108705600D01*
%TO.N,PICO_D6*%
X104523000Y-95151700D02*
X104604100Y-95151700D01*
X105677700Y-96225300D02*
X105677700Y-111241000D01*
X105677700Y-111241000D02*
X101352600Y-115566100D01*
X103848300Y-73931700D02*
X103848300Y-94477000D01*
X104604100Y-95151700D02*
X105677700Y-96225300D01*
X103848300Y-94477000D02*
X104523000Y-95151700D01*
X105000000Y-72780000D02*
X103848300Y-73931700D01*
%TO.N,PICO_D7*%
X105000000Y-75320000D02*
X106241500Y-76561500D01*
X106241500Y-115134900D02*
X106178900Y-115197500D01*
X106241500Y-76561500D02*
X106241500Y-115134900D01*
%TO.N,PICO_OE_N*%
X99921300Y-36076400D02*
X102137800Y-36076400D01*
X113910000Y-61815900D02*
X123604100Y-71510000D01*
X99814800Y-36182900D02*
X99921300Y-36076400D01*
X111827700Y-52564100D02*
X113910000Y-54646400D01*
X140521500Y-94000000D02*
X141000000Y-94000000D01*
X111827700Y-45766300D02*
X111827700Y-52564100D01*
X123604100Y-71510000D02*
X124396800Y-71510000D01*
X124396800Y-71510000D02*
X130374900Y-77488100D01*
X102137800Y-36076400D02*
X111827700Y-45766300D01*
X113910000Y-54646400D02*
X113910000Y-61815900D01*
X130374900Y-77488100D02*
X130374900Y-83853400D01*
X130374900Y-83853400D02*
X140521500Y-94000000D01*
%TO.N,PICO_SPI_CS_N*%
X58511700Y-98469100D02*
X40820000Y-116160800D01*
X40820000Y-116160800D02*
X40820000Y-116220000D01*
X70700000Y-70000000D02*
X70700000Y-76050300D01*
X57214700Y-97172100D02*
X58511700Y-98469100D01*
X70700000Y-76050300D02*
X57214700Y-89535600D01*
X57214700Y-89535600D02*
X57214700Y-97172100D01*
%TO.N,PICO_SPI_MOSI*%
X82050300Y-91646200D02*
X74381400Y-99315100D01*
X82050300Y-63570300D02*
X82050300Y-91646200D01*
X74381400Y-99315100D02*
X74381400Y-103826300D01*
X80860000Y-62380000D02*
X82050300Y-63570300D01*
%TO.N,PICO_SPI_SCK*%
X72224900Y-81899100D02*
X72224900Y-114030100D01*
X73122300Y-81001700D02*
X72224900Y-81899100D01*
X73122300Y-75849000D02*
X73122300Y-81001700D01*
X75780000Y-73191300D02*
X73122300Y-75849000D01*
X75780000Y-70000000D02*
X75780000Y-73191300D01*
%TO.N,PICO_WE_N*%
X101079000Y-38510000D02*
X101980800Y-38510000D01*
X101980800Y-38510000D02*
X110619500Y-47148700D01*
X110619500Y-47148700D02*
X110619500Y-67398200D01*
X110619500Y-67398200D02*
X112191300Y-68970000D01*
X99063100Y-36494100D02*
X101079000Y-38510000D01*
X112191300Y-68970000D02*
X112998900Y-68970000D01*
X99063100Y-32143100D02*
X99063100Y-36494100D01*
X112998900Y-68970000D02*
X132000000Y-87971100D01*
X132000000Y-87971100D02*
X132000000Y-94000000D01*
X94000000Y-27080000D02*
X99063100Y-32143100D01*
%TO.N,RD_N*%
X92610200Y-36089800D02*
X92610200Y-42620200D01*
X92610200Y-42620200D02*
X89590700Y-45639700D01*
X94000000Y-34700000D02*
X92610200Y-36089800D01*
X53050000Y-77227000D02*
X49930800Y-80346200D01*
X89590700Y-45639700D02*
X89590700Y-62690300D01*
X55240000Y-65260000D02*
X53050000Y-67450000D01*
X89590700Y-62690300D02*
X87073300Y-65207700D01*
X53050000Y-67450000D02*
X53050000Y-77227000D01*
%TO.N,RESET_N*%
X56913700Y-52560000D02*
X55240000Y-52560000D01*
X68028800Y-63922100D02*
X66890000Y-62783300D01*
X66890000Y-58806100D02*
X60643900Y-52560000D01*
X56913700Y-27170600D02*
X55633100Y-25890000D01*
X76963900Y-69533900D02*
X71352100Y-63922100D01*
X71352100Y-63922100D02*
X68028800Y-63922100D01*
X73624000Y-76165700D02*
X76963900Y-72825800D01*
X54876000Y-25890000D02*
X50000000Y-21014000D01*
X66890000Y-62783300D02*
X66890000Y-58806100D01*
X55633100Y-25890000D02*
X54876000Y-25890000D01*
X76963900Y-72825800D02*
X76963900Y-69533900D01*
X60643900Y-52560000D02*
X56913700Y-52560000D01*
X50000000Y-21014000D02*
X50000000Y-10000000D01*
X73624000Y-112900100D02*
X73624000Y-76165700D01*
X56913700Y-52560000D02*
X56913700Y-27170600D01*
%TO.N,SRAM_CE_N*%
X63080000Y-71612900D02*
X63080000Y-70000000D01*
X47200000Y-90000000D02*
X47200000Y-87492900D01*
X47200000Y-87492900D02*
X63080000Y-71612900D01*
%TO.N,SRAM_CE_PRE_N*%
X95665000Y-48275000D02*
X101620000Y-42320000D01*
X92000000Y-90000000D02*
X90674200Y-88674200D01*
X95665000Y-62681600D02*
X95665000Y-48275000D01*
X90674200Y-67672400D02*
X95665000Y-62681600D01*
X90674200Y-88674200D02*
X90674200Y-67672400D01*
%TO.N,SRAM_OE_N*%
X25240000Y-42992100D02*
X27095800Y-44847900D01*
X27095800Y-44847900D02*
X27095900Y-44847900D01*
X27095900Y-44847900D02*
X27095900Y-45993700D01*
X59785000Y-83015000D02*
X59785000Y-78375000D01*
X59785000Y-78375000D02*
X68160000Y-70000000D01*
X25240000Y-42320000D02*
X25240000Y-42992100D01*
X52800000Y-90000000D02*
X59785000Y-83015000D01*
%TO.N,SRAM_OE_PRE_N*%
X86400000Y-90000000D02*
X88277100Y-88122900D01*
X88277100Y-66566200D02*
X91706800Y-63136500D01*
X91706800Y-57288500D02*
X91345800Y-56927500D01*
X88277100Y-88122900D02*
X88277100Y-66566200D01*
X91706800Y-63136500D02*
X91706800Y-57288500D01*
%TO.N,SRAM_WE_N*%
X41891500Y-57549800D02*
X46252800Y-61911100D01*
X73240000Y-70000000D02*
X72118900Y-71121100D01*
X58400000Y-89375400D02*
X58400000Y-90000000D01*
X34849300Y-33621000D02*
X40497300Y-33621000D01*
X72118900Y-71121100D02*
X72118900Y-75656500D01*
X40497300Y-33621000D02*
X41891500Y-35015200D01*
X72118900Y-75656500D02*
X58400000Y-89375400D01*
X32628100Y-35842200D02*
X34849300Y-33621000D01*
X41891500Y-35015200D02*
X41891500Y-57549800D01*
%TO.N,SRAM_WE_PRE_N*%
X77104900Y-74457100D02*
X77104900Y-86304900D01*
X77104900Y-86304900D02*
X80800000Y-90000000D01*
%TO.N,WAIT_N*%
X74000000Y-10000000D02*
X63966900Y-20033100D01*
X64000000Y-89290600D02*
X64000000Y-90000000D01*
X55343400Y-57743400D02*
X60885000Y-57743400D01*
X64450100Y-61308500D02*
X64450100Y-62859800D01*
X70088900Y-65201800D02*
X74411900Y-69524800D01*
X66792100Y-65201800D02*
X70088900Y-65201800D01*
X63966900Y-20033100D02*
X63966900Y-49163500D01*
X64450100Y-62859800D02*
X66792100Y-65201800D01*
X74411900Y-69524800D02*
X74411900Y-73031700D01*
X60885000Y-57743400D02*
X64450100Y-61308500D01*
X72620600Y-80670000D02*
X64000000Y-89290600D01*
X72620600Y-74823000D02*
X72620600Y-80670000D01*
X74411900Y-73031700D02*
X72620600Y-74823000D01*
X55240000Y-57640000D02*
X55343400Y-57743400D01*
%TO.N,WR_N*%
X50510000Y-72826200D02*
X50510000Y-67450000D01*
X139705300Y-69485300D02*
X143000000Y-72780000D01*
X139705300Y-50445200D02*
X139705300Y-69485300D01*
X36000000Y-87336200D02*
X50510000Y-72826200D01*
X96992900Y-32612900D02*
X97698000Y-32612900D01*
X50510000Y-67450000D02*
X55240000Y-62720000D01*
X36000000Y-90000000D02*
X36000000Y-87336200D01*
X94000000Y-29620000D02*
X96992900Y-32612900D01*
%TD*%
M02*
