%TF.GenerationSoftware,KiCad,Pcbnew,10.0.6*%
%TF.CreationDate,2026-09-11T00:24:39+10:00*%
%TF.ProjectId,z80_romless_sbc,7a38305f-726f-46d6-9c65-73735f736263,rev?*%
%TF.SameCoordinates,Original*%
%TF.FileFunction,Legend,Top*%
%TF.FilePolarity,Positive*%
%FSLAX46Y46*%
G04 Gerber Fmt 4.6, Leading zero omitted, Abs format (unit mm)*
G04 Created by KiCad (PCBNEW 10.0.6) date 2026-09-11 00:24:39*
%MOMM*%
%LPD*%
G01*
G04 APERTURE LIST*
%ADD10C,0.120000*%
%ADD11C,0.240000*%
%ADD12C,0.150000*%
G04 APERTURE END LIST*
D10*
X26485714Y-19287664D02*
X26447618Y-19325760D01*
X26447618Y-19325760D02*
X26333333Y-19363855D01*
X26333333Y-19363855D02*
X26257142Y-19363855D01*
X26257142Y-19363855D02*
X26142856Y-19325760D01*
X26142856Y-19325760D02*
X26066666Y-19249569D01*
X26066666Y-19249569D02*
X26028571Y-19173379D01*
X26028571Y-19173379D02*
X25990475Y-19020998D01*
X25990475Y-19020998D02*
X25990475Y-18906712D01*
X25990475Y-18906712D02*
X26028571Y-18754331D01*
X26028571Y-18754331D02*
X26066666Y-18678140D01*
X26066666Y-18678140D02*
X26142856Y-18601950D01*
X26142856Y-18601950D02*
X26257142Y-18563855D01*
X26257142Y-18563855D02*
X26333333Y-18563855D01*
X26333333Y-18563855D02*
X26447618Y-18601950D01*
X26447618Y-18601950D02*
X26485714Y-18640045D01*
X27247618Y-19363855D02*
X26790475Y-19363855D01*
X27019047Y-19363855D02*
X27019047Y-18563855D01*
X27019047Y-18563855D02*
X26942856Y-18678140D01*
X26942856Y-18678140D02*
X26866666Y-18754331D01*
X26866666Y-18754331D02*
X26790475Y-18792426D01*
X27552380Y-18640045D02*
X27590476Y-18601950D01*
X27590476Y-18601950D02*
X27666666Y-18563855D01*
X27666666Y-18563855D02*
X27857142Y-18563855D01*
X27857142Y-18563855D02*
X27933333Y-18601950D01*
X27933333Y-18601950D02*
X27971428Y-18640045D01*
X27971428Y-18640045D02*
X28009523Y-18716236D01*
X28009523Y-18716236D02*
X28009523Y-18792426D01*
X28009523Y-18792426D02*
X27971428Y-18906712D01*
X27971428Y-18906712D02*
X27514285Y-19363855D01*
X27514285Y-19363855D02*
X28009523Y-19363855D01*
X30866667Y-26287664D02*
X30828571Y-26325760D01*
X30828571Y-26325760D02*
X30714286Y-26363855D01*
X30714286Y-26363855D02*
X30638095Y-26363855D01*
X30638095Y-26363855D02*
X30523809Y-26325760D01*
X30523809Y-26325760D02*
X30447619Y-26249569D01*
X30447619Y-26249569D02*
X30409524Y-26173379D01*
X30409524Y-26173379D02*
X30371428Y-26020998D01*
X30371428Y-26020998D02*
X30371428Y-25906712D01*
X30371428Y-25906712D02*
X30409524Y-25754331D01*
X30409524Y-25754331D02*
X30447619Y-25678140D01*
X30447619Y-25678140D02*
X30523809Y-25601950D01*
X30523809Y-25601950D02*
X30638095Y-25563855D01*
X30638095Y-25563855D02*
X30714286Y-25563855D01*
X30714286Y-25563855D02*
X30828571Y-25601950D01*
X30828571Y-25601950D02*
X30866667Y-25640045D01*
X31171428Y-25640045D02*
X31209524Y-25601950D01*
X31209524Y-25601950D02*
X31285714Y-25563855D01*
X31285714Y-25563855D02*
X31476190Y-25563855D01*
X31476190Y-25563855D02*
X31552381Y-25601950D01*
X31552381Y-25601950D02*
X31590476Y-25640045D01*
X31590476Y-25640045D02*
X31628571Y-25716236D01*
X31628571Y-25716236D02*
X31628571Y-25792426D01*
X31628571Y-25792426D02*
X31590476Y-25906712D01*
X31590476Y-25906712D02*
X31133333Y-26363855D01*
X31133333Y-26363855D02*
X31628571Y-26363855D01*
X30866667Y-42787664D02*
X30828571Y-42825760D01*
X30828571Y-42825760D02*
X30714286Y-42863855D01*
X30714286Y-42863855D02*
X30638095Y-42863855D01*
X30638095Y-42863855D02*
X30523809Y-42825760D01*
X30523809Y-42825760D02*
X30447619Y-42749569D01*
X30447619Y-42749569D02*
X30409524Y-42673379D01*
X30409524Y-42673379D02*
X30371428Y-42520998D01*
X30371428Y-42520998D02*
X30371428Y-42406712D01*
X30371428Y-42406712D02*
X30409524Y-42254331D01*
X30409524Y-42254331D02*
X30447619Y-42178140D01*
X30447619Y-42178140D02*
X30523809Y-42101950D01*
X30523809Y-42101950D02*
X30638095Y-42063855D01*
X30638095Y-42063855D02*
X30714286Y-42063855D01*
X30714286Y-42063855D02*
X30828571Y-42101950D01*
X30828571Y-42101950D02*
X30866667Y-42140045D01*
X31628571Y-42863855D02*
X31171428Y-42863855D01*
X31400000Y-42863855D02*
X31400000Y-42063855D01*
X31400000Y-42063855D02*
X31323809Y-42178140D01*
X31323809Y-42178140D02*
X31247619Y-42254331D01*
X31247619Y-42254331D02*
X31171428Y-42292426D01*
X36866667Y-61287664D02*
X36828571Y-61325760D01*
X36828571Y-61325760D02*
X36714286Y-61363855D01*
X36714286Y-61363855D02*
X36638095Y-61363855D01*
X36638095Y-61363855D02*
X36523809Y-61325760D01*
X36523809Y-61325760D02*
X36447619Y-61249569D01*
X36447619Y-61249569D02*
X36409524Y-61173379D01*
X36409524Y-61173379D02*
X36371428Y-61020998D01*
X36371428Y-61020998D02*
X36371428Y-60906712D01*
X36371428Y-60906712D02*
X36409524Y-60754331D01*
X36409524Y-60754331D02*
X36447619Y-60678140D01*
X36447619Y-60678140D02*
X36523809Y-60601950D01*
X36523809Y-60601950D02*
X36638095Y-60563855D01*
X36638095Y-60563855D02*
X36714286Y-60563855D01*
X36714286Y-60563855D02*
X36828571Y-60601950D01*
X36828571Y-60601950D02*
X36866667Y-60640045D01*
X37247619Y-61363855D02*
X37400000Y-61363855D01*
X37400000Y-61363855D02*
X37476190Y-61325760D01*
X37476190Y-61325760D02*
X37514286Y-61287664D01*
X37514286Y-61287664D02*
X37590476Y-61173379D01*
X37590476Y-61173379D02*
X37628571Y-61020998D01*
X37628571Y-61020998D02*
X37628571Y-60716236D01*
X37628571Y-60716236D02*
X37590476Y-60640045D01*
X37590476Y-60640045D02*
X37552381Y-60601950D01*
X37552381Y-60601950D02*
X37476190Y-60563855D01*
X37476190Y-60563855D02*
X37323809Y-60563855D01*
X37323809Y-60563855D02*
X37247619Y-60601950D01*
X37247619Y-60601950D02*
X37209524Y-60640045D01*
X37209524Y-60640045D02*
X37171428Y-60716236D01*
X37171428Y-60716236D02*
X37171428Y-60906712D01*
X37171428Y-60906712D02*
X37209524Y-60982902D01*
X37209524Y-60982902D02*
X37247619Y-61020998D01*
X37247619Y-61020998D02*
X37323809Y-61059093D01*
X37323809Y-61059093D02*
X37476190Y-61059093D01*
X37476190Y-61059093D02*
X37552381Y-61020998D01*
X37552381Y-61020998D02*
X37590476Y-60982902D01*
X37590476Y-60982902D02*
X37628571Y-60906712D01*
X60485714Y-78287664D02*
X60447618Y-78325760D01*
X60447618Y-78325760D02*
X60333333Y-78363855D01*
X60333333Y-78363855D02*
X60257142Y-78363855D01*
X60257142Y-78363855D02*
X60142856Y-78325760D01*
X60142856Y-78325760D02*
X60066666Y-78249569D01*
X60066666Y-78249569D02*
X60028571Y-78173379D01*
X60028571Y-78173379D02*
X59990475Y-78020998D01*
X59990475Y-78020998D02*
X59990475Y-77906712D01*
X59990475Y-77906712D02*
X60028571Y-77754331D01*
X60028571Y-77754331D02*
X60066666Y-77678140D01*
X60066666Y-77678140D02*
X60142856Y-77601950D01*
X60142856Y-77601950D02*
X60257142Y-77563855D01*
X60257142Y-77563855D02*
X60333333Y-77563855D01*
X60333333Y-77563855D02*
X60447618Y-77601950D01*
X60447618Y-77601950D02*
X60485714Y-77640045D01*
X61247618Y-78363855D02*
X60790475Y-78363855D01*
X61019047Y-78363855D02*
X61019047Y-77563855D01*
X61019047Y-77563855D02*
X60942856Y-77678140D01*
X60942856Y-77678140D02*
X60866666Y-77754331D01*
X60866666Y-77754331D02*
X60790475Y-77792426D01*
X61742857Y-77563855D02*
X61819047Y-77563855D01*
X61819047Y-77563855D02*
X61895238Y-77601950D01*
X61895238Y-77601950D02*
X61933333Y-77640045D01*
X61933333Y-77640045D02*
X61971428Y-77716236D01*
X61971428Y-77716236D02*
X62009523Y-77868617D01*
X62009523Y-77868617D02*
X62009523Y-78059093D01*
X62009523Y-78059093D02*
X61971428Y-78211474D01*
X61971428Y-78211474D02*
X61933333Y-78287664D01*
X61933333Y-78287664D02*
X61895238Y-78325760D01*
X61895238Y-78325760D02*
X61819047Y-78363855D01*
X61819047Y-78363855D02*
X61742857Y-78363855D01*
X61742857Y-78363855D02*
X61666666Y-78325760D01*
X61666666Y-78325760D02*
X61628571Y-78287664D01*
X61628571Y-78287664D02*
X61590476Y-78211474D01*
X61590476Y-78211474D02*
X61552380Y-78059093D01*
X61552380Y-78059093D02*
X61552380Y-77868617D01*
X61552380Y-77868617D02*
X61590476Y-77716236D01*
X61590476Y-77716236D02*
X61628571Y-77640045D01*
X61628571Y-77640045D02*
X61666666Y-77601950D01*
X61666666Y-77601950D02*
X61742857Y-77563855D01*
X66866667Y-15287664D02*
X66828571Y-15325760D01*
X66828571Y-15325760D02*
X66714286Y-15363855D01*
X66714286Y-15363855D02*
X66638095Y-15363855D01*
X66638095Y-15363855D02*
X66523809Y-15325760D01*
X66523809Y-15325760D02*
X66447619Y-15249569D01*
X66447619Y-15249569D02*
X66409524Y-15173379D01*
X66409524Y-15173379D02*
X66371428Y-15020998D01*
X66371428Y-15020998D02*
X66371428Y-14906712D01*
X66371428Y-14906712D02*
X66409524Y-14754331D01*
X66409524Y-14754331D02*
X66447619Y-14678140D01*
X66447619Y-14678140D02*
X66523809Y-14601950D01*
X66523809Y-14601950D02*
X66638095Y-14563855D01*
X66638095Y-14563855D02*
X66714286Y-14563855D01*
X66714286Y-14563855D02*
X66828571Y-14601950D01*
X66828571Y-14601950D02*
X66866667Y-14640045D01*
X67552381Y-14830521D02*
X67552381Y-15363855D01*
X67361905Y-14525760D02*
X67171428Y-15097188D01*
X67171428Y-15097188D02*
X67666667Y-15097188D01*
X67866667Y-47287664D02*
X67828571Y-47325760D01*
X67828571Y-47325760D02*
X67714286Y-47363855D01*
X67714286Y-47363855D02*
X67638095Y-47363855D01*
X67638095Y-47363855D02*
X67523809Y-47325760D01*
X67523809Y-47325760D02*
X67447619Y-47249569D01*
X67447619Y-47249569D02*
X67409524Y-47173379D01*
X67409524Y-47173379D02*
X67371428Y-47020998D01*
X67371428Y-47020998D02*
X67371428Y-46906712D01*
X67371428Y-46906712D02*
X67409524Y-46754331D01*
X67409524Y-46754331D02*
X67447619Y-46678140D01*
X67447619Y-46678140D02*
X67523809Y-46601950D01*
X67523809Y-46601950D02*
X67638095Y-46563855D01*
X67638095Y-46563855D02*
X67714286Y-46563855D01*
X67714286Y-46563855D02*
X67828571Y-46601950D01*
X67828571Y-46601950D02*
X67866667Y-46640045D01*
X68552381Y-46563855D02*
X68400000Y-46563855D01*
X68400000Y-46563855D02*
X68323809Y-46601950D01*
X68323809Y-46601950D02*
X68285714Y-46640045D01*
X68285714Y-46640045D02*
X68209524Y-46754331D01*
X68209524Y-46754331D02*
X68171428Y-46906712D01*
X68171428Y-46906712D02*
X68171428Y-47211474D01*
X68171428Y-47211474D02*
X68209524Y-47287664D01*
X68209524Y-47287664D02*
X68247619Y-47325760D01*
X68247619Y-47325760D02*
X68323809Y-47363855D01*
X68323809Y-47363855D02*
X68476190Y-47363855D01*
X68476190Y-47363855D02*
X68552381Y-47325760D01*
X68552381Y-47325760D02*
X68590476Y-47287664D01*
X68590476Y-47287664D02*
X68628571Y-47211474D01*
X68628571Y-47211474D02*
X68628571Y-47020998D01*
X68628571Y-47020998D02*
X68590476Y-46944807D01*
X68590476Y-46944807D02*
X68552381Y-46906712D01*
X68552381Y-46906712D02*
X68476190Y-46868617D01*
X68476190Y-46868617D02*
X68323809Y-46868617D01*
X68323809Y-46868617D02*
X68247619Y-46906712D01*
X68247619Y-46906712D02*
X68209524Y-46944807D01*
X68209524Y-46944807D02*
X68171428Y-47020998D01*
X104866667Y-35287664D02*
X104828571Y-35325760D01*
X104828571Y-35325760D02*
X104714286Y-35363855D01*
X104714286Y-35363855D02*
X104638095Y-35363855D01*
X104638095Y-35363855D02*
X104523809Y-35325760D01*
X104523809Y-35325760D02*
X104447619Y-35249569D01*
X104447619Y-35249569D02*
X104409524Y-35173379D01*
X104409524Y-35173379D02*
X104371428Y-35020998D01*
X104371428Y-35020998D02*
X104371428Y-34906712D01*
X104371428Y-34906712D02*
X104409524Y-34754331D01*
X104409524Y-34754331D02*
X104447619Y-34678140D01*
X104447619Y-34678140D02*
X104523809Y-34601950D01*
X104523809Y-34601950D02*
X104638095Y-34563855D01*
X104638095Y-34563855D02*
X104714286Y-34563855D01*
X104714286Y-34563855D02*
X104828571Y-34601950D01*
X104828571Y-34601950D02*
X104866667Y-34640045D01*
X105133333Y-34563855D02*
X105628571Y-34563855D01*
X105628571Y-34563855D02*
X105361905Y-34868617D01*
X105361905Y-34868617D02*
X105476190Y-34868617D01*
X105476190Y-34868617D02*
X105552381Y-34906712D01*
X105552381Y-34906712D02*
X105590476Y-34944807D01*
X105590476Y-34944807D02*
X105628571Y-35020998D01*
X105628571Y-35020998D02*
X105628571Y-35211474D01*
X105628571Y-35211474D02*
X105590476Y-35287664D01*
X105590476Y-35287664D02*
X105552381Y-35325760D01*
X105552381Y-35325760D02*
X105476190Y-35363855D01*
X105476190Y-35363855D02*
X105247619Y-35363855D01*
X105247619Y-35363855D02*
X105171428Y-35325760D01*
X105171428Y-35325760D02*
X105133333Y-35287664D01*
X117366667Y-60287664D02*
X117328571Y-60325760D01*
X117328571Y-60325760D02*
X117214286Y-60363855D01*
X117214286Y-60363855D02*
X117138095Y-60363855D01*
X117138095Y-60363855D02*
X117023809Y-60325760D01*
X117023809Y-60325760D02*
X116947619Y-60249569D01*
X116947619Y-60249569D02*
X116909524Y-60173379D01*
X116909524Y-60173379D02*
X116871428Y-60020998D01*
X116871428Y-60020998D02*
X116871428Y-59906712D01*
X116871428Y-59906712D02*
X116909524Y-59754331D01*
X116909524Y-59754331D02*
X116947619Y-59678140D01*
X116947619Y-59678140D02*
X117023809Y-59601950D01*
X117023809Y-59601950D02*
X117138095Y-59563855D01*
X117138095Y-59563855D02*
X117214286Y-59563855D01*
X117214286Y-59563855D02*
X117328571Y-59601950D01*
X117328571Y-59601950D02*
X117366667Y-59640045D01*
X117633333Y-59563855D02*
X118166667Y-59563855D01*
X118166667Y-59563855D02*
X117823809Y-60363855D01*
X136366667Y-60287664D02*
X136328571Y-60325760D01*
X136328571Y-60325760D02*
X136214286Y-60363855D01*
X136214286Y-60363855D02*
X136138095Y-60363855D01*
X136138095Y-60363855D02*
X136023809Y-60325760D01*
X136023809Y-60325760D02*
X135947619Y-60249569D01*
X135947619Y-60249569D02*
X135909524Y-60173379D01*
X135909524Y-60173379D02*
X135871428Y-60020998D01*
X135871428Y-60020998D02*
X135871428Y-59906712D01*
X135871428Y-59906712D02*
X135909524Y-59754331D01*
X135909524Y-59754331D02*
X135947619Y-59678140D01*
X135947619Y-59678140D02*
X136023809Y-59601950D01*
X136023809Y-59601950D02*
X136138095Y-59563855D01*
X136138095Y-59563855D02*
X136214286Y-59563855D01*
X136214286Y-59563855D02*
X136328571Y-59601950D01*
X136328571Y-59601950D02*
X136366667Y-59640045D01*
X136823809Y-59906712D02*
X136747619Y-59868617D01*
X136747619Y-59868617D02*
X136709524Y-59830521D01*
X136709524Y-59830521D02*
X136671428Y-59754331D01*
X136671428Y-59754331D02*
X136671428Y-59716236D01*
X136671428Y-59716236D02*
X136709524Y-59640045D01*
X136709524Y-59640045D02*
X136747619Y-59601950D01*
X136747619Y-59601950D02*
X136823809Y-59563855D01*
X136823809Y-59563855D02*
X136976190Y-59563855D01*
X136976190Y-59563855D02*
X137052381Y-59601950D01*
X137052381Y-59601950D02*
X137090476Y-59640045D01*
X137090476Y-59640045D02*
X137128571Y-59716236D01*
X137128571Y-59716236D02*
X137128571Y-59754331D01*
X137128571Y-59754331D02*
X137090476Y-59830521D01*
X137090476Y-59830521D02*
X137052381Y-59868617D01*
X137052381Y-59868617D02*
X136976190Y-59906712D01*
X136976190Y-59906712D02*
X136823809Y-59906712D01*
X136823809Y-59906712D02*
X136747619Y-59944807D01*
X136747619Y-59944807D02*
X136709524Y-59982902D01*
X136709524Y-59982902D02*
X136671428Y-60059093D01*
X136671428Y-60059093D02*
X136671428Y-60211474D01*
X136671428Y-60211474D02*
X136709524Y-60287664D01*
X136709524Y-60287664D02*
X136747619Y-60325760D01*
X136747619Y-60325760D02*
X136823809Y-60363855D01*
X136823809Y-60363855D02*
X136976190Y-60363855D01*
X136976190Y-60363855D02*
X137052381Y-60325760D01*
X137052381Y-60325760D02*
X137090476Y-60287664D01*
X137090476Y-60287664D02*
X137128571Y-60211474D01*
X137128571Y-60211474D02*
X137128571Y-60059093D01*
X137128571Y-60059093D02*
X137090476Y-59982902D01*
X137090476Y-59982902D02*
X137052381Y-59944807D01*
X137052381Y-59944807D02*
X136976190Y-59906712D01*
X144409524Y-88363855D02*
X144409524Y-87563855D01*
X144409524Y-87563855D02*
X144600000Y-87563855D01*
X144600000Y-87563855D02*
X144714286Y-87601950D01*
X144714286Y-87601950D02*
X144790476Y-87678140D01*
X144790476Y-87678140D02*
X144828571Y-87754331D01*
X144828571Y-87754331D02*
X144866667Y-87906712D01*
X144866667Y-87906712D02*
X144866667Y-88020998D01*
X144866667Y-88020998D02*
X144828571Y-88173379D01*
X144828571Y-88173379D02*
X144790476Y-88249569D01*
X144790476Y-88249569D02*
X144714286Y-88325760D01*
X144714286Y-88325760D02*
X144600000Y-88363855D01*
X144600000Y-88363855D02*
X144409524Y-88363855D01*
X145628571Y-88363855D02*
X145171428Y-88363855D01*
X145400000Y-88363855D02*
X145400000Y-87563855D01*
X145400000Y-87563855D02*
X145323809Y-87678140D01*
X145323809Y-87678140D02*
X145247619Y-87754331D01*
X145247619Y-87754331D02*
X145171428Y-87792426D01*
X157866667Y-55287664D02*
X157828571Y-55325760D01*
X157828571Y-55325760D02*
X157714286Y-55363855D01*
X157714286Y-55363855D02*
X157638095Y-55363855D01*
X157638095Y-55363855D02*
X157523809Y-55325760D01*
X157523809Y-55325760D02*
X157447619Y-55249569D01*
X157447619Y-55249569D02*
X157409524Y-55173379D01*
X157409524Y-55173379D02*
X157371428Y-55020998D01*
X157371428Y-55020998D02*
X157371428Y-54906712D01*
X157371428Y-54906712D02*
X157409524Y-54754331D01*
X157409524Y-54754331D02*
X157447619Y-54678140D01*
X157447619Y-54678140D02*
X157523809Y-54601950D01*
X157523809Y-54601950D02*
X157638095Y-54563855D01*
X157638095Y-54563855D02*
X157714286Y-54563855D01*
X157714286Y-54563855D02*
X157828571Y-54601950D01*
X157828571Y-54601950D02*
X157866667Y-54640045D01*
X158590476Y-54563855D02*
X158209524Y-54563855D01*
X158209524Y-54563855D02*
X158171428Y-54944807D01*
X158171428Y-54944807D02*
X158209524Y-54906712D01*
X158209524Y-54906712D02*
X158285714Y-54868617D01*
X158285714Y-54868617D02*
X158476190Y-54868617D01*
X158476190Y-54868617D02*
X158552381Y-54906712D01*
X158552381Y-54906712D02*
X158590476Y-54944807D01*
X158590476Y-54944807D02*
X158628571Y-55020998D01*
X158628571Y-55020998D02*
X158628571Y-55211474D01*
X158628571Y-55211474D02*
X158590476Y-55287664D01*
X158590476Y-55287664D02*
X158552381Y-55325760D01*
X158552381Y-55325760D02*
X158476190Y-55363855D01*
X158476190Y-55363855D02*
X158285714Y-55363855D01*
X158285714Y-55363855D02*
X158209524Y-55325760D01*
X158209524Y-55325760D02*
X158171428Y-55287664D01*
X156133333Y-61563855D02*
X156133333Y-62211474D01*
X156133333Y-62211474D02*
X156171428Y-62287664D01*
X156171428Y-62287664D02*
X156209523Y-62325760D01*
X156209523Y-62325760D02*
X156285714Y-62363855D01*
X156285714Y-62363855D02*
X156438095Y-62363855D01*
X156438095Y-62363855D02*
X156514285Y-62325760D01*
X156514285Y-62325760D02*
X156552380Y-62287664D01*
X156552380Y-62287664D02*
X156590476Y-62211474D01*
X156590476Y-62211474D02*
X156590476Y-61563855D01*
X156933332Y-62325760D02*
X157047618Y-62363855D01*
X157047618Y-62363855D02*
X157238094Y-62363855D01*
X157238094Y-62363855D02*
X157314285Y-62325760D01*
X157314285Y-62325760D02*
X157352380Y-62287664D01*
X157352380Y-62287664D02*
X157390475Y-62211474D01*
X157390475Y-62211474D02*
X157390475Y-62135283D01*
X157390475Y-62135283D02*
X157352380Y-62059093D01*
X157352380Y-62059093D02*
X157314285Y-62020998D01*
X157314285Y-62020998D02*
X157238094Y-61982902D01*
X157238094Y-61982902D02*
X157085713Y-61944807D01*
X157085713Y-61944807D02*
X157009523Y-61906712D01*
X157009523Y-61906712D02*
X156971428Y-61868617D01*
X156971428Y-61868617D02*
X156933332Y-61792426D01*
X156933332Y-61792426D02*
X156933332Y-61716236D01*
X156933332Y-61716236D02*
X156971428Y-61640045D01*
X156971428Y-61640045D02*
X157009523Y-61601950D01*
X157009523Y-61601950D02*
X157085713Y-61563855D01*
X157085713Y-61563855D02*
X157276190Y-61563855D01*
X157276190Y-61563855D02*
X157390475Y-61601950D01*
X157999999Y-61944807D02*
X158114285Y-61982902D01*
X158114285Y-61982902D02*
X158152380Y-62020998D01*
X158152380Y-62020998D02*
X158190476Y-62097188D01*
X158190476Y-62097188D02*
X158190476Y-62211474D01*
X158190476Y-62211474D02*
X158152380Y-62287664D01*
X158152380Y-62287664D02*
X158114285Y-62325760D01*
X158114285Y-62325760D02*
X158038095Y-62363855D01*
X158038095Y-62363855D02*
X157733333Y-62363855D01*
X157733333Y-62363855D02*
X157733333Y-61563855D01*
X157733333Y-61563855D02*
X157999999Y-61563855D01*
X157999999Y-61563855D02*
X158076190Y-61601950D01*
X158076190Y-61601950D02*
X158114285Y-61640045D01*
X158114285Y-61640045D02*
X158152380Y-61716236D01*
X158152380Y-61716236D02*
X158152380Y-61792426D01*
X158152380Y-61792426D02*
X158114285Y-61868617D01*
X158114285Y-61868617D02*
X158076190Y-61906712D01*
X158076190Y-61906712D02*
X157999999Y-61944807D01*
X157999999Y-61944807D02*
X157733333Y-61944807D01*
X159600000Y-62287664D02*
X159561904Y-62325760D01*
X159561904Y-62325760D02*
X159447619Y-62363855D01*
X159447619Y-62363855D02*
X159371428Y-62363855D01*
X159371428Y-62363855D02*
X159257142Y-62325760D01*
X159257142Y-62325760D02*
X159180952Y-62249569D01*
X159180952Y-62249569D02*
X159142857Y-62173379D01*
X159142857Y-62173379D02*
X159104761Y-62020998D01*
X159104761Y-62020998D02*
X159104761Y-61906712D01*
X159104761Y-61906712D02*
X159142857Y-61754331D01*
X159142857Y-61754331D02*
X159180952Y-61678140D01*
X159180952Y-61678140D02*
X159257142Y-61601950D01*
X159257142Y-61601950D02*
X159371428Y-61563855D01*
X159371428Y-61563855D02*
X159447619Y-61563855D01*
X159447619Y-61563855D02*
X159561904Y-61601950D01*
X159561904Y-61601950D02*
X159600000Y-61640045D01*
X159904761Y-62135283D02*
X160285714Y-62135283D01*
X159828571Y-62363855D02*
X160095238Y-61563855D01*
X160095238Y-61563855D02*
X160361904Y-62363855D01*
X160895237Y-61944807D02*
X161009523Y-61982902D01*
X161009523Y-61982902D02*
X161047618Y-62020998D01*
X161047618Y-62020998D02*
X161085714Y-62097188D01*
X161085714Y-62097188D02*
X161085714Y-62211474D01*
X161085714Y-62211474D02*
X161047618Y-62287664D01*
X161047618Y-62287664D02*
X161009523Y-62325760D01*
X161009523Y-62325760D02*
X160933333Y-62363855D01*
X160933333Y-62363855D02*
X160628571Y-62363855D01*
X160628571Y-62363855D02*
X160628571Y-61563855D01*
X160628571Y-61563855D02*
X160895237Y-61563855D01*
X160895237Y-61563855D02*
X160971428Y-61601950D01*
X160971428Y-61601950D02*
X161009523Y-61640045D01*
X161009523Y-61640045D02*
X161047618Y-61716236D01*
X161047618Y-61716236D02*
X161047618Y-61792426D01*
X161047618Y-61792426D02*
X161009523Y-61868617D01*
X161009523Y-61868617D02*
X160971428Y-61906712D01*
X160971428Y-61906712D02*
X160895237Y-61944807D01*
X160895237Y-61944807D02*
X160628571Y-61944807D01*
X161809523Y-62363855D02*
X161428571Y-62363855D01*
X161428571Y-62363855D02*
X161428571Y-61563855D01*
X162076190Y-61944807D02*
X162342856Y-61944807D01*
X162457142Y-62363855D02*
X162076190Y-62363855D01*
X162076190Y-62363855D02*
X162076190Y-61563855D01*
X162076190Y-61563855D02*
X162457142Y-61563855D01*
X163295238Y-61563855D02*
X163752381Y-61563855D01*
X163523809Y-62363855D02*
X163523809Y-61563855D01*
X164171429Y-61563855D02*
X164323810Y-61563855D01*
X164323810Y-61563855D02*
X164400000Y-61601950D01*
X164400000Y-61601950D02*
X164476191Y-61678140D01*
X164476191Y-61678140D02*
X164514286Y-61830521D01*
X164514286Y-61830521D02*
X164514286Y-62097188D01*
X164514286Y-62097188D02*
X164476191Y-62249569D01*
X164476191Y-62249569D02*
X164400000Y-62325760D01*
X164400000Y-62325760D02*
X164323810Y-62363855D01*
X164323810Y-62363855D02*
X164171429Y-62363855D01*
X164171429Y-62363855D02*
X164095238Y-62325760D01*
X164095238Y-62325760D02*
X164019048Y-62249569D01*
X164019048Y-62249569D02*
X163980952Y-62097188D01*
X163980952Y-62097188D02*
X163980952Y-61830521D01*
X163980952Y-61830521D02*
X164019048Y-61678140D01*
X164019048Y-61678140D02*
X164095238Y-61601950D01*
X164095238Y-61601950D02*
X164171429Y-61563855D01*
X165733333Y-61944807D02*
X165847619Y-61982902D01*
X165847619Y-61982902D02*
X165885714Y-62020998D01*
X165885714Y-62020998D02*
X165923810Y-62097188D01*
X165923810Y-62097188D02*
X165923810Y-62211474D01*
X165923810Y-62211474D02*
X165885714Y-62287664D01*
X165885714Y-62287664D02*
X165847619Y-62325760D01*
X165847619Y-62325760D02*
X165771429Y-62363855D01*
X165771429Y-62363855D02*
X165466667Y-62363855D01*
X165466667Y-62363855D02*
X165466667Y-61563855D01*
X165466667Y-61563855D02*
X165733333Y-61563855D01*
X165733333Y-61563855D02*
X165809524Y-61601950D01*
X165809524Y-61601950D02*
X165847619Y-61640045D01*
X165847619Y-61640045D02*
X165885714Y-61716236D01*
X165885714Y-61716236D02*
X165885714Y-61792426D01*
X165885714Y-61792426D02*
X165847619Y-61868617D01*
X165847619Y-61868617D02*
X165809524Y-61906712D01*
X165809524Y-61906712D02*
X165733333Y-61944807D01*
X165733333Y-61944807D02*
X165466667Y-61944807D01*
X166419048Y-61563855D02*
X166571429Y-61563855D01*
X166571429Y-61563855D02*
X166647619Y-61601950D01*
X166647619Y-61601950D02*
X166723810Y-61678140D01*
X166723810Y-61678140D02*
X166761905Y-61830521D01*
X166761905Y-61830521D02*
X166761905Y-62097188D01*
X166761905Y-62097188D02*
X166723810Y-62249569D01*
X166723810Y-62249569D02*
X166647619Y-62325760D01*
X166647619Y-62325760D02*
X166571429Y-62363855D01*
X166571429Y-62363855D02*
X166419048Y-62363855D01*
X166419048Y-62363855D02*
X166342857Y-62325760D01*
X166342857Y-62325760D02*
X166266667Y-62249569D01*
X166266667Y-62249569D02*
X166228571Y-62097188D01*
X166228571Y-62097188D02*
X166228571Y-61830521D01*
X166228571Y-61830521D02*
X166266667Y-61678140D01*
X166266667Y-61678140D02*
X166342857Y-61601950D01*
X166342857Y-61601950D02*
X166419048Y-61563855D01*
X167066666Y-62135283D02*
X167447619Y-62135283D01*
X166990476Y-62363855D02*
X167257143Y-61563855D01*
X167257143Y-61563855D02*
X167523809Y-62363855D01*
X168247619Y-62363855D02*
X167980952Y-61982902D01*
X167790476Y-62363855D02*
X167790476Y-61563855D01*
X167790476Y-61563855D02*
X168095238Y-61563855D01*
X168095238Y-61563855D02*
X168171428Y-61601950D01*
X168171428Y-61601950D02*
X168209523Y-61640045D01*
X168209523Y-61640045D02*
X168247619Y-61716236D01*
X168247619Y-61716236D02*
X168247619Y-61830521D01*
X168247619Y-61830521D02*
X168209523Y-61906712D01*
X168209523Y-61906712D02*
X168171428Y-61944807D01*
X168171428Y-61944807D02*
X168095238Y-61982902D01*
X168095238Y-61982902D02*
X167790476Y-61982902D01*
X168590476Y-62363855D02*
X168590476Y-61563855D01*
X168590476Y-61563855D02*
X168780952Y-61563855D01*
X168780952Y-61563855D02*
X168895238Y-61601950D01*
X168895238Y-61601950D02*
X168971428Y-61678140D01*
X168971428Y-61678140D02*
X169009523Y-61754331D01*
X169009523Y-61754331D02*
X169047619Y-61906712D01*
X169047619Y-61906712D02*
X169047619Y-62020998D01*
X169047619Y-62020998D02*
X169009523Y-62173379D01*
X169009523Y-62173379D02*
X168971428Y-62249569D01*
X168971428Y-62249569D02*
X168895238Y-62325760D01*
X168895238Y-62325760D02*
X168780952Y-62363855D01*
X168780952Y-62363855D02*
X168590476Y-62363855D01*
X169885714Y-61563855D02*
X170342857Y-61563855D01*
X170114285Y-62363855D02*
X170114285Y-61563855D01*
X170761905Y-61563855D02*
X170914286Y-61563855D01*
X170914286Y-61563855D02*
X170990476Y-61601950D01*
X170990476Y-61601950D02*
X171066667Y-61678140D01*
X171066667Y-61678140D02*
X171104762Y-61830521D01*
X171104762Y-61830521D02*
X171104762Y-62097188D01*
X171104762Y-62097188D02*
X171066667Y-62249569D01*
X171066667Y-62249569D02*
X170990476Y-62325760D01*
X170990476Y-62325760D02*
X170914286Y-62363855D01*
X170914286Y-62363855D02*
X170761905Y-62363855D01*
X170761905Y-62363855D02*
X170685714Y-62325760D01*
X170685714Y-62325760D02*
X170609524Y-62249569D01*
X170609524Y-62249569D02*
X170571428Y-62097188D01*
X170571428Y-62097188D02*
X170571428Y-61830521D01*
X170571428Y-61830521D02*
X170609524Y-61678140D01*
X170609524Y-61678140D02*
X170685714Y-61601950D01*
X170685714Y-61601950D02*
X170761905Y-61563855D01*
X171447619Y-62363855D02*
X171447619Y-61563855D01*
X171447619Y-61563855D02*
X171752381Y-61563855D01*
X171752381Y-61563855D02*
X171828571Y-61601950D01*
X171828571Y-61601950D02*
X171866666Y-61640045D01*
X171866666Y-61640045D02*
X171904762Y-61716236D01*
X171904762Y-61716236D02*
X171904762Y-61830521D01*
X171904762Y-61830521D02*
X171866666Y-61906712D01*
X171866666Y-61906712D02*
X171828571Y-61944807D01*
X171828571Y-61944807D02*
X171752381Y-61982902D01*
X171752381Y-61982902D02*
X171447619Y-61982902D01*
X177485714Y-44287664D02*
X177447618Y-44325760D01*
X177447618Y-44325760D02*
X177333333Y-44363855D01*
X177333333Y-44363855D02*
X177257142Y-44363855D01*
X177257142Y-44363855D02*
X177142856Y-44325760D01*
X177142856Y-44325760D02*
X177066666Y-44249569D01*
X177066666Y-44249569D02*
X177028571Y-44173379D01*
X177028571Y-44173379D02*
X176990475Y-44020998D01*
X176990475Y-44020998D02*
X176990475Y-43906712D01*
X176990475Y-43906712D02*
X177028571Y-43754331D01*
X177028571Y-43754331D02*
X177066666Y-43678140D01*
X177066666Y-43678140D02*
X177142856Y-43601950D01*
X177142856Y-43601950D02*
X177257142Y-43563855D01*
X177257142Y-43563855D02*
X177333333Y-43563855D01*
X177333333Y-43563855D02*
X177447618Y-43601950D01*
X177447618Y-43601950D02*
X177485714Y-43640045D01*
X178247618Y-44363855D02*
X177790475Y-44363855D01*
X178019047Y-44363855D02*
X178019047Y-43563855D01*
X178019047Y-43563855D02*
X177942856Y-43678140D01*
X177942856Y-43678140D02*
X177866666Y-43754331D01*
X177866666Y-43754331D02*
X177790475Y-43792426D01*
X179009523Y-44363855D02*
X178552380Y-44363855D01*
X178780952Y-44363855D02*
X178780952Y-43563855D01*
X178780952Y-43563855D02*
X178704761Y-43678140D01*
X178704761Y-43678140D02*
X178628571Y-43754331D01*
X178628571Y-43754331D02*
X178552380Y-43792426D01*
X123619047Y-136456379D02*
X123285714Y-135980188D01*
X123047619Y-136456379D02*
X123047619Y-135456379D01*
X123047619Y-135456379D02*
X123428571Y-135456379D01*
X123428571Y-135456379D02*
X123523809Y-135503998D01*
X123523809Y-135503998D02*
X123571428Y-135551617D01*
X123571428Y-135551617D02*
X123619047Y-135646855D01*
X123619047Y-135646855D02*
X123619047Y-135789712D01*
X123619047Y-135789712D02*
X123571428Y-135884950D01*
X123571428Y-135884950D02*
X123523809Y-135932569D01*
X123523809Y-135932569D02*
X123428571Y-135980188D01*
X123428571Y-135980188D02*
X123047619Y-135980188D01*
X124047619Y-135932569D02*
X124380952Y-135932569D01*
X124523809Y-136456379D02*
X124047619Y-136456379D01*
X124047619Y-136456379D02*
X124047619Y-135456379D01*
X124047619Y-135456379D02*
X124523809Y-135456379D01*
X124809524Y-135456379D02*
X125142857Y-136456379D01*
X125142857Y-136456379D02*
X125476190Y-135456379D01*
X126523810Y-136170664D02*
X127000000Y-136170664D01*
X126428572Y-136456379D02*
X126761905Y-135456379D01*
X126761905Y-135456379D02*
X127095238Y-136456379D01*
X159233333Y-124170664D02*
X159709523Y-124170664D01*
X159138095Y-124456379D02*
X159471428Y-123456379D01*
X159471428Y-123456379D02*
X159804761Y-124456379D01*
X160661904Y-124456379D02*
X160090476Y-124456379D01*
X160376190Y-124456379D02*
X160376190Y-123456379D01*
X160376190Y-123456379D02*
X160280952Y-123599236D01*
X160280952Y-123599236D02*
X160185714Y-123694474D01*
X160185714Y-123694474D02*
X160090476Y-123742093D01*
X161852381Y-124456379D02*
X161852381Y-123456379D01*
X161852381Y-123456379D02*
X162233333Y-123456379D01*
X162233333Y-123456379D02*
X162328571Y-123503998D01*
X162328571Y-123503998D02*
X162376190Y-123551617D01*
X162376190Y-123551617D02*
X162423809Y-123646855D01*
X162423809Y-123646855D02*
X162423809Y-123789712D01*
X162423809Y-123789712D02*
X162376190Y-123884950D01*
X162376190Y-123884950D02*
X162328571Y-123932569D01*
X162328571Y-123932569D02*
X162233333Y-123980188D01*
X162233333Y-123980188D02*
X161852381Y-123980188D01*
X162852381Y-124456379D02*
X162852381Y-123456379D01*
X163899999Y-124361140D02*
X163852380Y-124408760D01*
X163852380Y-124408760D02*
X163709523Y-124456379D01*
X163709523Y-124456379D02*
X163614285Y-124456379D01*
X163614285Y-124456379D02*
X163471428Y-124408760D01*
X163471428Y-124408760D02*
X163376190Y-124313521D01*
X163376190Y-124313521D02*
X163328571Y-124218283D01*
X163328571Y-124218283D02*
X163280952Y-124027807D01*
X163280952Y-124027807D02*
X163280952Y-123884950D01*
X163280952Y-123884950D02*
X163328571Y-123694474D01*
X163328571Y-123694474D02*
X163376190Y-123599236D01*
X163376190Y-123599236D02*
X163471428Y-123503998D01*
X163471428Y-123503998D02*
X163614285Y-123456379D01*
X163614285Y-123456379D02*
X163709523Y-123456379D01*
X163709523Y-123456379D02*
X163852380Y-123503998D01*
X163852380Y-123503998D02*
X163899999Y-123551617D01*
X164519047Y-123456379D02*
X164709523Y-123456379D01*
X164709523Y-123456379D02*
X164804761Y-123503998D01*
X164804761Y-123503998D02*
X164899999Y-123599236D01*
X164899999Y-123599236D02*
X164947618Y-123789712D01*
X164947618Y-123789712D02*
X164947618Y-124123045D01*
X164947618Y-124123045D02*
X164899999Y-124313521D01*
X164899999Y-124313521D02*
X164804761Y-124408760D01*
X164804761Y-124408760D02*
X164709523Y-124456379D01*
X164709523Y-124456379D02*
X164519047Y-124456379D01*
X164519047Y-124456379D02*
X164423809Y-124408760D01*
X164423809Y-124408760D02*
X164328571Y-124313521D01*
X164328571Y-124313521D02*
X164280952Y-124123045D01*
X164280952Y-124123045D02*
X164280952Y-123789712D01*
X164280952Y-123789712D02*
X164328571Y-123599236D01*
X164328571Y-123599236D02*
X164423809Y-123503998D01*
X164423809Y-123503998D02*
X164519047Y-123456379D01*
X166090476Y-123551617D02*
X166138095Y-123503998D01*
X166138095Y-123503998D02*
X166233333Y-123456379D01*
X166233333Y-123456379D02*
X166471428Y-123456379D01*
X166471428Y-123456379D02*
X166566666Y-123503998D01*
X166566666Y-123503998D02*
X166614285Y-123551617D01*
X166614285Y-123551617D02*
X166661904Y-123646855D01*
X166661904Y-123646855D02*
X166661904Y-123742093D01*
X166661904Y-123742093D02*
X166614285Y-123884950D01*
X166614285Y-123884950D02*
X166042857Y-124456379D01*
X166042857Y-124456379D02*
X166661904Y-124456379D01*
X167757143Y-123456379D02*
X167995238Y-124456379D01*
X167995238Y-124456379D02*
X168185714Y-123742093D01*
X168185714Y-123742093D02*
X168376190Y-124456379D01*
X168376190Y-124456379D02*
X168614286Y-123456379D01*
D11*
X116761904Y-7912758D02*
X118095237Y-7912758D01*
X118095237Y-7912758D02*
X116761904Y-9912758D01*
X116761904Y-9912758D02*
X118095237Y-9912758D01*
X119142856Y-8769900D02*
X118952380Y-8674662D01*
X118952380Y-8674662D02*
X118857142Y-8579424D01*
X118857142Y-8579424D02*
X118761904Y-8388948D01*
X118761904Y-8388948D02*
X118761904Y-8293710D01*
X118761904Y-8293710D02*
X118857142Y-8103234D01*
X118857142Y-8103234D02*
X118952380Y-8007996D01*
X118952380Y-8007996D02*
X119142856Y-7912758D01*
X119142856Y-7912758D02*
X119523809Y-7912758D01*
X119523809Y-7912758D02*
X119714285Y-8007996D01*
X119714285Y-8007996D02*
X119809523Y-8103234D01*
X119809523Y-8103234D02*
X119904761Y-8293710D01*
X119904761Y-8293710D02*
X119904761Y-8388948D01*
X119904761Y-8388948D02*
X119809523Y-8579424D01*
X119809523Y-8579424D02*
X119714285Y-8674662D01*
X119714285Y-8674662D02*
X119523809Y-8769900D01*
X119523809Y-8769900D02*
X119142856Y-8769900D01*
X119142856Y-8769900D02*
X118952380Y-8865139D01*
X118952380Y-8865139D02*
X118857142Y-8960377D01*
X118857142Y-8960377D02*
X118761904Y-9150853D01*
X118761904Y-9150853D02*
X118761904Y-9531805D01*
X118761904Y-9531805D02*
X118857142Y-9722281D01*
X118857142Y-9722281D02*
X118952380Y-9817520D01*
X118952380Y-9817520D02*
X119142856Y-9912758D01*
X119142856Y-9912758D02*
X119523809Y-9912758D01*
X119523809Y-9912758D02*
X119714285Y-9817520D01*
X119714285Y-9817520D02*
X119809523Y-9722281D01*
X119809523Y-9722281D02*
X119904761Y-9531805D01*
X119904761Y-9531805D02*
X119904761Y-9150853D01*
X119904761Y-9150853D02*
X119809523Y-8960377D01*
X119809523Y-8960377D02*
X119714285Y-8865139D01*
X119714285Y-8865139D02*
X119523809Y-8769900D01*
X121142856Y-7912758D02*
X121333333Y-7912758D01*
X121333333Y-7912758D02*
X121523809Y-8007996D01*
X121523809Y-8007996D02*
X121619047Y-8103234D01*
X121619047Y-8103234D02*
X121714285Y-8293710D01*
X121714285Y-8293710D02*
X121809523Y-8674662D01*
X121809523Y-8674662D02*
X121809523Y-9150853D01*
X121809523Y-9150853D02*
X121714285Y-9531805D01*
X121714285Y-9531805D02*
X121619047Y-9722281D01*
X121619047Y-9722281D02*
X121523809Y-9817520D01*
X121523809Y-9817520D02*
X121333333Y-9912758D01*
X121333333Y-9912758D02*
X121142856Y-9912758D01*
X121142856Y-9912758D02*
X120952380Y-9817520D01*
X120952380Y-9817520D02*
X120857142Y-9722281D01*
X120857142Y-9722281D02*
X120761904Y-9531805D01*
X120761904Y-9531805D02*
X120666666Y-9150853D01*
X120666666Y-9150853D02*
X120666666Y-8674662D01*
X120666666Y-8674662D02*
X120761904Y-8293710D01*
X120761904Y-8293710D02*
X120857142Y-8103234D01*
X120857142Y-8103234D02*
X120952380Y-8007996D01*
X120952380Y-8007996D02*
X121142856Y-7912758D01*
X125333333Y-9912758D02*
X124666666Y-8960377D01*
X124190476Y-9912758D02*
X124190476Y-7912758D01*
X124190476Y-7912758D02*
X124952381Y-7912758D01*
X124952381Y-7912758D02*
X125142857Y-8007996D01*
X125142857Y-8007996D02*
X125238095Y-8103234D01*
X125238095Y-8103234D02*
X125333333Y-8293710D01*
X125333333Y-8293710D02*
X125333333Y-8579424D01*
X125333333Y-8579424D02*
X125238095Y-8769900D01*
X125238095Y-8769900D02*
X125142857Y-8865139D01*
X125142857Y-8865139D02*
X124952381Y-8960377D01*
X124952381Y-8960377D02*
X124190476Y-8960377D01*
X126571428Y-7912758D02*
X126952381Y-7912758D01*
X126952381Y-7912758D02*
X127142857Y-8007996D01*
X127142857Y-8007996D02*
X127333333Y-8198472D01*
X127333333Y-8198472D02*
X127428571Y-8579424D01*
X127428571Y-8579424D02*
X127428571Y-9246091D01*
X127428571Y-9246091D02*
X127333333Y-9627043D01*
X127333333Y-9627043D02*
X127142857Y-9817520D01*
X127142857Y-9817520D02*
X126952381Y-9912758D01*
X126952381Y-9912758D02*
X126571428Y-9912758D01*
X126571428Y-9912758D02*
X126380952Y-9817520D01*
X126380952Y-9817520D02*
X126190476Y-9627043D01*
X126190476Y-9627043D02*
X126095238Y-9246091D01*
X126095238Y-9246091D02*
X126095238Y-8579424D01*
X126095238Y-8579424D02*
X126190476Y-8198472D01*
X126190476Y-8198472D02*
X126380952Y-8007996D01*
X126380952Y-8007996D02*
X126571428Y-7912758D01*
X128285714Y-9912758D02*
X128285714Y-7912758D01*
X128285714Y-7912758D02*
X128952381Y-9341329D01*
X128952381Y-9341329D02*
X129619047Y-7912758D01*
X129619047Y-7912758D02*
X129619047Y-9912758D01*
X130857142Y-9912758D02*
X130666666Y-9817520D01*
X130666666Y-9817520D02*
X130571428Y-9627043D01*
X130571428Y-9627043D02*
X130571428Y-7912758D01*
X132380952Y-9817520D02*
X132190476Y-9912758D01*
X132190476Y-9912758D02*
X131809523Y-9912758D01*
X131809523Y-9912758D02*
X131619047Y-9817520D01*
X131619047Y-9817520D02*
X131523809Y-9627043D01*
X131523809Y-9627043D02*
X131523809Y-8865139D01*
X131523809Y-8865139D02*
X131619047Y-8674662D01*
X131619047Y-8674662D02*
X131809523Y-8579424D01*
X131809523Y-8579424D02*
X132190476Y-8579424D01*
X132190476Y-8579424D02*
X132380952Y-8674662D01*
X132380952Y-8674662D02*
X132476190Y-8865139D01*
X132476190Y-8865139D02*
X132476190Y-9055615D01*
X132476190Y-9055615D02*
X131523809Y-9246091D01*
X133238095Y-9817520D02*
X133428571Y-9912758D01*
X133428571Y-9912758D02*
X133809523Y-9912758D01*
X133809523Y-9912758D02*
X134000000Y-9817520D01*
X134000000Y-9817520D02*
X134095238Y-9627043D01*
X134095238Y-9627043D02*
X134095238Y-9531805D01*
X134095238Y-9531805D02*
X134000000Y-9341329D01*
X134000000Y-9341329D02*
X133809523Y-9246091D01*
X133809523Y-9246091D02*
X133523809Y-9246091D01*
X133523809Y-9246091D02*
X133333333Y-9150853D01*
X133333333Y-9150853D02*
X133238095Y-8960377D01*
X133238095Y-8960377D02*
X133238095Y-8865139D01*
X133238095Y-8865139D02*
X133333333Y-8674662D01*
X133333333Y-8674662D02*
X133523809Y-8579424D01*
X133523809Y-8579424D02*
X133809523Y-8579424D01*
X133809523Y-8579424D02*
X134000000Y-8674662D01*
X134857143Y-9817520D02*
X135047619Y-9912758D01*
X135047619Y-9912758D02*
X135428571Y-9912758D01*
X135428571Y-9912758D02*
X135619048Y-9817520D01*
X135619048Y-9817520D02*
X135714286Y-9627043D01*
X135714286Y-9627043D02*
X135714286Y-9531805D01*
X135714286Y-9531805D02*
X135619048Y-9341329D01*
X135619048Y-9341329D02*
X135428571Y-9246091D01*
X135428571Y-9246091D02*
X135142857Y-9246091D01*
X135142857Y-9246091D02*
X134952381Y-9150853D01*
X134952381Y-9150853D02*
X134857143Y-8960377D01*
X134857143Y-8960377D02*
X134857143Y-8865139D01*
X134857143Y-8865139D02*
X134952381Y-8674662D01*
X134952381Y-8674662D02*
X135142857Y-8579424D01*
X135142857Y-8579424D02*
X135428571Y-8579424D01*
X135428571Y-8579424D02*
X135619048Y-8674662D01*
X138000001Y-9817520D02*
X138285715Y-9912758D01*
X138285715Y-9912758D02*
X138761906Y-9912758D01*
X138761906Y-9912758D02*
X138952382Y-9817520D01*
X138952382Y-9817520D02*
X139047620Y-9722281D01*
X139047620Y-9722281D02*
X139142858Y-9531805D01*
X139142858Y-9531805D02*
X139142858Y-9341329D01*
X139142858Y-9341329D02*
X139047620Y-9150853D01*
X139047620Y-9150853D02*
X138952382Y-9055615D01*
X138952382Y-9055615D02*
X138761906Y-8960377D01*
X138761906Y-8960377D02*
X138380953Y-8865139D01*
X138380953Y-8865139D02*
X138190477Y-8769900D01*
X138190477Y-8769900D02*
X138095239Y-8674662D01*
X138095239Y-8674662D02*
X138000001Y-8484186D01*
X138000001Y-8484186D02*
X138000001Y-8293710D01*
X138000001Y-8293710D02*
X138095239Y-8103234D01*
X138095239Y-8103234D02*
X138190477Y-8007996D01*
X138190477Y-8007996D02*
X138380953Y-7912758D01*
X138380953Y-7912758D02*
X138857144Y-7912758D01*
X138857144Y-7912758D02*
X139142858Y-8007996D01*
X140666668Y-8865139D02*
X140952382Y-8960377D01*
X140952382Y-8960377D02*
X141047620Y-9055615D01*
X141047620Y-9055615D02*
X141142858Y-9246091D01*
X141142858Y-9246091D02*
X141142858Y-9531805D01*
X141142858Y-9531805D02*
X141047620Y-9722281D01*
X141047620Y-9722281D02*
X140952382Y-9817520D01*
X140952382Y-9817520D02*
X140761906Y-9912758D01*
X140761906Y-9912758D02*
X140000001Y-9912758D01*
X140000001Y-9912758D02*
X140000001Y-7912758D01*
X140000001Y-7912758D02*
X140666668Y-7912758D01*
X140666668Y-7912758D02*
X140857144Y-8007996D01*
X140857144Y-8007996D02*
X140952382Y-8103234D01*
X140952382Y-8103234D02*
X141047620Y-8293710D01*
X141047620Y-8293710D02*
X141047620Y-8484186D01*
X141047620Y-8484186D02*
X140952382Y-8674662D01*
X140952382Y-8674662D02*
X140857144Y-8769900D01*
X140857144Y-8769900D02*
X140666668Y-8865139D01*
X140666668Y-8865139D02*
X140000001Y-8865139D01*
X143142858Y-9722281D02*
X143047620Y-9817520D01*
X143047620Y-9817520D02*
X142761906Y-9912758D01*
X142761906Y-9912758D02*
X142571430Y-9912758D01*
X142571430Y-9912758D02*
X142285715Y-9817520D01*
X142285715Y-9817520D02*
X142095239Y-9627043D01*
X142095239Y-9627043D02*
X142000001Y-9436567D01*
X142000001Y-9436567D02*
X141904763Y-9055615D01*
X141904763Y-9055615D02*
X141904763Y-8769900D01*
X141904763Y-8769900D02*
X142000001Y-8388948D01*
X142000001Y-8388948D02*
X142095239Y-8198472D01*
X142095239Y-8198472D02*
X142285715Y-8007996D01*
X142285715Y-8007996D02*
X142571430Y-7912758D01*
X142571430Y-7912758D02*
X142761906Y-7912758D01*
X142761906Y-7912758D02*
X143047620Y-8007996D01*
X143047620Y-8007996D02*
X143142858Y-8103234D01*
D12*
X90084819Y-85562857D02*
X89608628Y-85896190D01*
X90084819Y-86134285D02*
X89084819Y-86134285D01*
X89084819Y-86134285D02*
X89084819Y-85753333D01*
X89084819Y-85753333D02*
X89132438Y-85658095D01*
X89132438Y-85658095D02*
X89180057Y-85610476D01*
X89180057Y-85610476D02*
X89275295Y-85562857D01*
X89275295Y-85562857D02*
X89418152Y-85562857D01*
X89418152Y-85562857D02*
X89513390Y-85610476D01*
X89513390Y-85610476D02*
X89561009Y-85658095D01*
X89561009Y-85658095D02*
X89608628Y-85753333D01*
X89608628Y-85753333D02*
X89608628Y-86134285D01*
X90084819Y-84610476D02*
X90084819Y-85181904D01*
X90084819Y-84896190D02*
X89084819Y-84896190D01*
X89084819Y-84896190D02*
X89227676Y-84991428D01*
X89227676Y-84991428D02*
X89322914Y-85086666D01*
X89322914Y-85086666D02*
X89370533Y-85181904D01*
X89084819Y-83753333D02*
X89084819Y-83943809D01*
X89084819Y-83943809D02*
X89132438Y-84039047D01*
X89132438Y-84039047D02*
X89180057Y-84086666D01*
X89180057Y-84086666D02*
X89322914Y-84181904D01*
X89322914Y-84181904D02*
X89513390Y-84229523D01*
X89513390Y-84229523D02*
X89894342Y-84229523D01*
X89894342Y-84229523D02*
X89989580Y-84181904D01*
X89989580Y-84181904D02*
X90037200Y-84134285D01*
X90037200Y-84134285D02*
X90084819Y-84039047D01*
X90084819Y-84039047D02*
X90084819Y-83848571D01*
X90084819Y-83848571D02*
X90037200Y-83753333D01*
X90037200Y-83753333D02*
X89989580Y-83705714D01*
X89989580Y-83705714D02*
X89894342Y-83658095D01*
X89894342Y-83658095D02*
X89656247Y-83658095D01*
X89656247Y-83658095D02*
X89561009Y-83705714D01*
X89561009Y-83705714D02*
X89513390Y-83753333D01*
X89513390Y-83753333D02*
X89465771Y-83848571D01*
X89465771Y-83848571D02*
X89465771Y-84039047D01*
X89465771Y-84039047D02*
X89513390Y-84134285D01*
X89513390Y-84134285D02*
X89561009Y-84181904D01*
X89561009Y-84181904D02*
X89656247Y-84229523D01*
X146144819Y-101260476D02*
X145668628Y-101593809D01*
X146144819Y-101831904D02*
X145144819Y-101831904D01*
X145144819Y-101831904D02*
X145144819Y-101450952D01*
X145144819Y-101450952D02*
X145192438Y-101355714D01*
X145192438Y-101355714D02*
X145240057Y-101308095D01*
X145240057Y-101308095D02*
X145335295Y-101260476D01*
X145335295Y-101260476D02*
X145478152Y-101260476D01*
X145478152Y-101260476D02*
X145573390Y-101308095D01*
X145573390Y-101308095D02*
X145621009Y-101355714D01*
X145621009Y-101355714D02*
X145668628Y-101450952D01*
X145668628Y-101450952D02*
X145668628Y-101831904D01*
X146144819Y-100831904D02*
X145144819Y-100831904D01*
X145144819Y-100831904D02*
X146144819Y-100260476D01*
X146144819Y-100260476D02*
X145144819Y-100260476D01*
X145144819Y-99879523D02*
X145144819Y-99260476D01*
X145144819Y-99260476D02*
X145525771Y-99593809D01*
X145525771Y-99593809D02*
X145525771Y-99450952D01*
X145525771Y-99450952D02*
X145573390Y-99355714D01*
X145573390Y-99355714D02*
X145621009Y-99308095D01*
X145621009Y-99308095D02*
X145716247Y-99260476D01*
X145716247Y-99260476D02*
X145954342Y-99260476D01*
X145954342Y-99260476D02*
X146049580Y-99308095D01*
X146049580Y-99308095D02*
X146097200Y-99355714D01*
X146097200Y-99355714D02*
X146144819Y-99450952D01*
X146144819Y-99450952D02*
X146144819Y-99736666D01*
X146144819Y-99736666D02*
X146097200Y-99831904D01*
X146097200Y-99831904D02*
X146049580Y-99879523D01*
X22884819Y-85086666D02*
X22408628Y-85419999D01*
X22884819Y-85658094D02*
X21884819Y-85658094D01*
X21884819Y-85658094D02*
X21884819Y-85277142D01*
X21884819Y-85277142D02*
X21932438Y-85181904D01*
X21932438Y-85181904D02*
X21980057Y-85134285D01*
X21980057Y-85134285D02*
X22075295Y-85086666D01*
X22075295Y-85086666D02*
X22218152Y-85086666D01*
X22218152Y-85086666D02*
X22313390Y-85134285D01*
X22313390Y-85134285D02*
X22361009Y-85181904D01*
X22361009Y-85181904D02*
X22408628Y-85277142D01*
X22408628Y-85277142D02*
X22408628Y-85658094D01*
X22218152Y-84229523D02*
X22884819Y-84229523D01*
X21837200Y-84467618D02*
X22551485Y-84705713D01*
X22551485Y-84705713D02*
X22551485Y-84086666D01*
X108048095Y-52124819D02*
X108048095Y-52934342D01*
X108048095Y-52934342D02*
X108095714Y-53029580D01*
X108095714Y-53029580D02*
X108143333Y-53077200D01*
X108143333Y-53077200D02*
X108238571Y-53124819D01*
X108238571Y-53124819D02*
X108429047Y-53124819D01*
X108429047Y-53124819D02*
X108524285Y-53077200D01*
X108524285Y-53077200D02*
X108571904Y-53029580D01*
X108571904Y-53029580D02*
X108619523Y-52934342D01*
X108619523Y-52934342D02*
X108619523Y-52124819D01*
X109143333Y-53124819D02*
X109333809Y-53124819D01*
X109333809Y-53124819D02*
X109429047Y-53077200D01*
X109429047Y-53077200D02*
X109476666Y-53029580D01*
X109476666Y-53029580D02*
X109571904Y-52886723D01*
X109571904Y-52886723D02*
X109619523Y-52696247D01*
X109619523Y-52696247D02*
X109619523Y-52315295D01*
X109619523Y-52315295D02*
X109571904Y-52220057D01*
X109571904Y-52220057D02*
X109524285Y-52172438D01*
X109524285Y-52172438D02*
X109429047Y-52124819D01*
X109429047Y-52124819D02*
X109238571Y-52124819D01*
X109238571Y-52124819D02*
X109143333Y-52172438D01*
X109143333Y-52172438D02*
X109095714Y-52220057D01*
X109095714Y-52220057D02*
X109048095Y-52315295D01*
X109048095Y-52315295D02*
X109048095Y-52553390D01*
X109048095Y-52553390D02*
X109095714Y-52648628D01*
X109095714Y-52648628D02*
X109143333Y-52696247D01*
X109143333Y-52696247D02*
X109238571Y-52743866D01*
X109238571Y-52743866D02*
X109429047Y-52743866D01*
X109429047Y-52743866D02*
X109524285Y-52696247D01*
X109524285Y-52696247D02*
X109571904Y-52648628D01*
X109571904Y-52648628D02*
X109619523Y-52553390D01*
X80438095Y-11954819D02*
X81009523Y-11954819D01*
X80723809Y-12954819D02*
X80723809Y-11954819D01*
X81342857Y-12954819D02*
X81342857Y-11954819D01*
X81342857Y-11954819D02*
X81723809Y-11954819D01*
X81723809Y-11954819D02*
X81819047Y-12002438D01*
X81819047Y-12002438D02*
X81866666Y-12050057D01*
X81866666Y-12050057D02*
X81914285Y-12145295D01*
X81914285Y-12145295D02*
X81914285Y-12288152D01*
X81914285Y-12288152D02*
X81866666Y-12383390D01*
X81866666Y-12383390D02*
X81819047Y-12431009D01*
X81819047Y-12431009D02*
X81723809Y-12478628D01*
X81723809Y-12478628D02*
X81342857Y-12478628D01*
X82819047Y-11954819D02*
X82342857Y-11954819D01*
X82342857Y-11954819D02*
X82295238Y-12431009D01*
X82295238Y-12431009D02*
X82342857Y-12383390D01*
X82342857Y-12383390D02*
X82438095Y-12335771D01*
X82438095Y-12335771D02*
X82676190Y-12335771D01*
X82676190Y-12335771D02*
X82771428Y-12383390D01*
X82771428Y-12383390D02*
X82819047Y-12431009D01*
X82819047Y-12431009D02*
X82866666Y-12526247D01*
X82866666Y-12526247D02*
X82866666Y-12764342D01*
X82866666Y-12764342D02*
X82819047Y-12859580D01*
X82819047Y-12859580D02*
X82771428Y-12907200D01*
X82771428Y-12907200D02*
X82676190Y-12954819D01*
X82676190Y-12954819D02*
X82438095Y-12954819D01*
X82438095Y-12954819D02*
X82342857Y-12907200D01*
X82342857Y-12907200D02*
X82295238Y-12859580D01*
X6084819Y-85086666D02*
X5608628Y-85419999D01*
X6084819Y-85658094D02*
X5084819Y-85658094D01*
X5084819Y-85658094D02*
X5084819Y-85277142D01*
X5084819Y-85277142D02*
X5132438Y-85181904D01*
X5132438Y-85181904D02*
X5180057Y-85134285D01*
X5180057Y-85134285D02*
X5275295Y-85086666D01*
X5275295Y-85086666D02*
X5418152Y-85086666D01*
X5418152Y-85086666D02*
X5513390Y-85134285D01*
X5513390Y-85134285D02*
X5561009Y-85181904D01*
X5561009Y-85181904D02*
X5608628Y-85277142D01*
X5608628Y-85277142D02*
X5608628Y-85658094D01*
X6084819Y-84134285D02*
X6084819Y-84705713D01*
X6084819Y-84419999D02*
X5084819Y-84419999D01*
X5084819Y-84419999D02*
X5227676Y-84515237D01*
X5227676Y-84515237D02*
X5322914Y-84610475D01*
X5322914Y-84610475D02*
X5370533Y-84705713D01*
X73284819Y-85562857D02*
X72808628Y-85896190D01*
X73284819Y-86134285D02*
X72284819Y-86134285D01*
X72284819Y-86134285D02*
X72284819Y-85753333D01*
X72284819Y-85753333D02*
X72332438Y-85658095D01*
X72332438Y-85658095D02*
X72380057Y-85610476D01*
X72380057Y-85610476D02*
X72475295Y-85562857D01*
X72475295Y-85562857D02*
X72618152Y-85562857D01*
X72618152Y-85562857D02*
X72713390Y-85610476D01*
X72713390Y-85610476D02*
X72761009Y-85658095D01*
X72761009Y-85658095D02*
X72808628Y-85753333D01*
X72808628Y-85753333D02*
X72808628Y-86134285D01*
X73284819Y-84610476D02*
X73284819Y-85181904D01*
X73284819Y-84896190D02*
X72284819Y-84896190D01*
X72284819Y-84896190D02*
X72427676Y-84991428D01*
X72427676Y-84991428D02*
X72522914Y-85086666D01*
X72522914Y-85086666D02*
X72570533Y-85181904D01*
X72284819Y-84277142D02*
X72284819Y-83658095D01*
X72284819Y-83658095D02*
X72665771Y-83991428D01*
X72665771Y-83991428D02*
X72665771Y-83848571D01*
X72665771Y-83848571D02*
X72713390Y-83753333D01*
X72713390Y-83753333D02*
X72761009Y-83705714D01*
X72761009Y-83705714D02*
X72856247Y-83658095D01*
X72856247Y-83658095D02*
X73094342Y-83658095D01*
X73094342Y-83658095D02*
X73189580Y-83705714D01*
X73189580Y-83705714D02*
X73237200Y-83753333D01*
X73237200Y-83753333D02*
X73284819Y-83848571D01*
X73284819Y-83848571D02*
X73284819Y-84134285D01*
X73284819Y-84134285D02*
X73237200Y-84229523D01*
X73237200Y-84229523D02*
X73189580Y-84277142D01*
X102084819Y-130562857D02*
X101608628Y-130896190D01*
X102084819Y-131134285D02*
X101084819Y-131134285D01*
X101084819Y-131134285D02*
X101084819Y-130753333D01*
X101084819Y-130753333D02*
X101132438Y-130658095D01*
X101132438Y-130658095D02*
X101180057Y-130610476D01*
X101180057Y-130610476D02*
X101275295Y-130562857D01*
X101275295Y-130562857D02*
X101418152Y-130562857D01*
X101418152Y-130562857D02*
X101513390Y-130610476D01*
X101513390Y-130610476D02*
X101561009Y-130658095D01*
X101561009Y-130658095D02*
X101608628Y-130753333D01*
X101608628Y-130753333D02*
X101608628Y-131134285D01*
X101084819Y-130229523D02*
X101084819Y-129610476D01*
X101084819Y-129610476D02*
X101465771Y-129943809D01*
X101465771Y-129943809D02*
X101465771Y-129800952D01*
X101465771Y-129800952D02*
X101513390Y-129705714D01*
X101513390Y-129705714D02*
X101561009Y-129658095D01*
X101561009Y-129658095D02*
X101656247Y-129610476D01*
X101656247Y-129610476D02*
X101894342Y-129610476D01*
X101894342Y-129610476D02*
X101989580Y-129658095D01*
X101989580Y-129658095D02*
X102037200Y-129705714D01*
X102037200Y-129705714D02*
X102084819Y-129800952D01*
X102084819Y-129800952D02*
X102084819Y-130086666D01*
X102084819Y-130086666D02*
X102037200Y-130181904D01*
X102037200Y-130181904D02*
X101989580Y-130229523D01*
X102084819Y-128658095D02*
X102084819Y-129229523D01*
X102084819Y-128943809D02*
X101084819Y-128943809D01*
X101084819Y-128943809D02*
X101227676Y-129039047D01*
X101227676Y-129039047D02*
X101322914Y-129134285D01*
X101322914Y-129134285D02*
X101370533Y-129229523D01*
X46858095Y-14124819D02*
X46858095Y-14934342D01*
X46858095Y-14934342D02*
X46905714Y-15029580D01*
X46905714Y-15029580D02*
X46953333Y-15077200D01*
X46953333Y-15077200D02*
X47048571Y-15124819D01*
X47048571Y-15124819D02*
X47239047Y-15124819D01*
X47239047Y-15124819D02*
X47334285Y-15077200D01*
X47334285Y-15077200D02*
X47381904Y-15029580D01*
X47381904Y-15029580D02*
X47429523Y-14934342D01*
X47429523Y-14934342D02*
X47429523Y-14124819D01*
X48429523Y-15124819D02*
X47858095Y-15124819D01*
X48143809Y-15124819D02*
X48143809Y-14124819D01*
X48143809Y-14124819D02*
X48048571Y-14267676D01*
X48048571Y-14267676D02*
X47953333Y-14362914D01*
X47953333Y-14362914D02*
X47858095Y-14410533D01*
X117084819Y-110562857D02*
X116608628Y-110896190D01*
X117084819Y-111134285D02*
X116084819Y-111134285D01*
X116084819Y-111134285D02*
X116084819Y-110753333D01*
X116084819Y-110753333D02*
X116132438Y-110658095D01*
X116132438Y-110658095D02*
X116180057Y-110610476D01*
X116180057Y-110610476D02*
X116275295Y-110562857D01*
X116275295Y-110562857D02*
X116418152Y-110562857D01*
X116418152Y-110562857D02*
X116513390Y-110610476D01*
X116513390Y-110610476D02*
X116561009Y-110658095D01*
X116561009Y-110658095D02*
X116608628Y-110753333D01*
X116608628Y-110753333D02*
X116608628Y-111134285D01*
X116180057Y-110181904D02*
X116132438Y-110134285D01*
X116132438Y-110134285D02*
X116084819Y-110039047D01*
X116084819Y-110039047D02*
X116084819Y-109800952D01*
X116084819Y-109800952D02*
X116132438Y-109705714D01*
X116132438Y-109705714D02*
X116180057Y-109658095D01*
X116180057Y-109658095D02*
X116275295Y-109610476D01*
X116275295Y-109610476D02*
X116370533Y-109610476D01*
X116370533Y-109610476D02*
X116513390Y-109658095D01*
X116513390Y-109658095D02*
X117084819Y-110229523D01*
X117084819Y-110229523D02*
X117084819Y-109610476D01*
X116084819Y-108753333D02*
X116084819Y-108943809D01*
X116084819Y-108943809D02*
X116132438Y-109039047D01*
X116132438Y-109039047D02*
X116180057Y-109086666D01*
X116180057Y-109086666D02*
X116322914Y-109181904D01*
X116322914Y-109181904D02*
X116513390Y-109229523D01*
X116513390Y-109229523D02*
X116894342Y-109229523D01*
X116894342Y-109229523D02*
X116989580Y-109181904D01*
X116989580Y-109181904D02*
X117037200Y-109134285D01*
X117037200Y-109134285D02*
X117084819Y-109039047D01*
X117084819Y-109039047D02*
X117084819Y-108848571D01*
X117084819Y-108848571D02*
X117037200Y-108753333D01*
X117037200Y-108753333D02*
X116989580Y-108705714D01*
X116989580Y-108705714D02*
X116894342Y-108658095D01*
X116894342Y-108658095D02*
X116656247Y-108658095D01*
X116656247Y-108658095D02*
X116561009Y-108705714D01*
X116561009Y-108705714D02*
X116513390Y-108753333D01*
X116513390Y-108753333D02*
X116465771Y-108848571D01*
X116465771Y-108848571D02*
X116465771Y-109039047D01*
X116465771Y-109039047D02*
X116513390Y-109134285D01*
X116513390Y-109134285D02*
X116561009Y-109181904D01*
X116561009Y-109181904D02*
X116656247Y-109229523D01*
X125084819Y-93562857D02*
X124608628Y-93896190D01*
X125084819Y-94134285D02*
X124084819Y-94134285D01*
X124084819Y-94134285D02*
X124084819Y-93753333D01*
X124084819Y-93753333D02*
X124132438Y-93658095D01*
X124132438Y-93658095D02*
X124180057Y-93610476D01*
X124180057Y-93610476D02*
X124275295Y-93562857D01*
X124275295Y-93562857D02*
X124418152Y-93562857D01*
X124418152Y-93562857D02*
X124513390Y-93610476D01*
X124513390Y-93610476D02*
X124561009Y-93658095D01*
X124561009Y-93658095D02*
X124608628Y-93753333D01*
X124608628Y-93753333D02*
X124608628Y-94134285D01*
X124180057Y-93181904D02*
X124132438Y-93134285D01*
X124132438Y-93134285D02*
X124084819Y-93039047D01*
X124084819Y-93039047D02*
X124084819Y-92800952D01*
X124084819Y-92800952D02*
X124132438Y-92705714D01*
X124132438Y-92705714D02*
X124180057Y-92658095D01*
X124180057Y-92658095D02*
X124275295Y-92610476D01*
X124275295Y-92610476D02*
X124370533Y-92610476D01*
X124370533Y-92610476D02*
X124513390Y-92658095D01*
X124513390Y-92658095D02*
X125084819Y-93229523D01*
X125084819Y-93229523D02*
X125084819Y-92610476D01*
X125084819Y-91658095D02*
X125084819Y-92229523D01*
X125084819Y-91943809D02*
X124084819Y-91943809D01*
X124084819Y-91943809D02*
X124227676Y-92039047D01*
X124227676Y-92039047D02*
X124322914Y-92134285D01*
X124322914Y-92134285D02*
X124370533Y-92229523D01*
X101084819Y-93562857D02*
X100608628Y-93896190D01*
X101084819Y-94134285D02*
X100084819Y-94134285D01*
X100084819Y-94134285D02*
X100084819Y-93753333D01*
X100084819Y-93753333D02*
X100132438Y-93658095D01*
X100132438Y-93658095D02*
X100180057Y-93610476D01*
X100180057Y-93610476D02*
X100275295Y-93562857D01*
X100275295Y-93562857D02*
X100418152Y-93562857D01*
X100418152Y-93562857D02*
X100513390Y-93610476D01*
X100513390Y-93610476D02*
X100561009Y-93658095D01*
X100561009Y-93658095D02*
X100608628Y-93753333D01*
X100608628Y-93753333D02*
X100608628Y-94134285D01*
X101084819Y-92610476D02*
X101084819Y-93181904D01*
X101084819Y-92896190D02*
X100084819Y-92896190D01*
X100084819Y-92896190D02*
X100227676Y-92991428D01*
X100227676Y-92991428D02*
X100322914Y-93086666D01*
X100322914Y-93086666D02*
X100370533Y-93181904D01*
X100513390Y-92039047D02*
X100465771Y-92134285D01*
X100465771Y-92134285D02*
X100418152Y-92181904D01*
X100418152Y-92181904D02*
X100322914Y-92229523D01*
X100322914Y-92229523D02*
X100275295Y-92229523D01*
X100275295Y-92229523D02*
X100180057Y-92181904D01*
X100180057Y-92181904D02*
X100132438Y-92134285D01*
X100132438Y-92134285D02*
X100084819Y-92039047D01*
X100084819Y-92039047D02*
X100084819Y-91848571D01*
X100084819Y-91848571D02*
X100132438Y-91753333D01*
X100132438Y-91753333D02*
X100180057Y-91705714D01*
X100180057Y-91705714D02*
X100275295Y-91658095D01*
X100275295Y-91658095D02*
X100322914Y-91658095D01*
X100322914Y-91658095D02*
X100418152Y-91705714D01*
X100418152Y-91705714D02*
X100465771Y-91753333D01*
X100465771Y-91753333D02*
X100513390Y-91848571D01*
X100513390Y-91848571D02*
X100513390Y-92039047D01*
X100513390Y-92039047D02*
X100561009Y-92134285D01*
X100561009Y-92134285D02*
X100608628Y-92181904D01*
X100608628Y-92181904D02*
X100703866Y-92229523D01*
X100703866Y-92229523D02*
X100894342Y-92229523D01*
X100894342Y-92229523D02*
X100989580Y-92181904D01*
X100989580Y-92181904D02*
X101037200Y-92134285D01*
X101037200Y-92134285D02*
X101084819Y-92039047D01*
X101084819Y-92039047D02*
X101084819Y-91848571D01*
X101084819Y-91848571D02*
X101037200Y-91753333D01*
X101037200Y-91753333D02*
X100989580Y-91705714D01*
X100989580Y-91705714D02*
X100894342Y-91658095D01*
X100894342Y-91658095D02*
X100703866Y-91658095D01*
X100703866Y-91658095D02*
X100608628Y-91705714D01*
X100608628Y-91705714D02*
X100561009Y-91753333D01*
X100561009Y-91753333D02*
X100513390Y-91848571D01*
X87438095Y-11954819D02*
X88009523Y-11954819D01*
X87723809Y-12954819D02*
X87723809Y-11954819D01*
X88342857Y-12954819D02*
X88342857Y-11954819D01*
X88342857Y-11954819D02*
X88723809Y-11954819D01*
X88723809Y-11954819D02*
X88819047Y-12002438D01*
X88819047Y-12002438D02*
X88866666Y-12050057D01*
X88866666Y-12050057D02*
X88914285Y-12145295D01*
X88914285Y-12145295D02*
X88914285Y-12288152D01*
X88914285Y-12288152D02*
X88866666Y-12383390D01*
X88866666Y-12383390D02*
X88819047Y-12431009D01*
X88819047Y-12431009D02*
X88723809Y-12478628D01*
X88723809Y-12478628D02*
X88342857Y-12478628D01*
X89771428Y-11954819D02*
X89580952Y-11954819D01*
X89580952Y-11954819D02*
X89485714Y-12002438D01*
X89485714Y-12002438D02*
X89438095Y-12050057D01*
X89438095Y-12050057D02*
X89342857Y-12192914D01*
X89342857Y-12192914D02*
X89295238Y-12383390D01*
X89295238Y-12383390D02*
X89295238Y-12764342D01*
X89295238Y-12764342D02*
X89342857Y-12859580D01*
X89342857Y-12859580D02*
X89390476Y-12907200D01*
X89390476Y-12907200D02*
X89485714Y-12954819D01*
X89485714Y-12954819D02*
X89676190Y-12954819D01*
X89676190Y-12954819D02*
X89771428Y-12907200D01*
X89771428Y-12907200D02*
X89819047Y-12859580D01*
X89819047Y-12859580D02*
X89866666Y-12764342D01*
X89866666Y-12764342D02*
X89866666Y-12526247D01*
X89866666Y-12526247D02*
X89819047Y-12431009D01*
X89819047Y-12431009D02*
X89771428Y-12383390D01*
X89771428Y-12383390D02*
X89676190Y-12335771D01*
X89676190Y-12335771D02*
X89485714Y-12335771D01*
X89485714Y-12335771D02*
X89390476Y-12383390D01*
X89390476Y-12383390D02*
X89342857Y-12431009D01*
X89342857Y-12431009D02*
X89295238Y-12526247D01*
X42438095Y-11954819D02*
X43009523Y-11954819D01*
X42723809Y-12954819D02*
X42723809Y-11954819D01*
X43342857Y-12954819D02*
X43342857Y-11954819D01*
X43342857Y-11954819D02*
X43723809Y-11954819D01*
X43723809Y-11954819D02*
X43819047Y-12002438D01*
X43819047Y-12002438D02*
X43866666Y-12050057D01*
X43866666Y-12050057D02*
X43914285Y-12145295D01*
X43914285Y-12145295D02*
X43914285Y-12288152D01*
X43914285Y-12288152D02*
X43866666Y-12383390D01*
X43866666Y-12383390D02*
X43819047Y-12431009D01*
X43819047Y-12431009D02*
X43723809Y-12478628D01*
X43723809Y-12478628D02*
X43342857Y-12478628D01*
X44866666Y-12954819D02*
X44295238Y-12954819D01*
X44580952Y-12954819D02*
X44580952Y-11954819D01*
X44580952Y-11954819D02*
X44485714Y-12097676D01*
X44485714Y-12097676D02*
X44390476Y-12192914D01*
X44390476Y-12192914D02*
X44295238Y-12240533D01*
X62084819Y-85562857D02*
X61608628Y-85896190D01*
X62084819Y-86134285D02*
X61084819Y-86134285D01*
X61084819Y-86134285D02*
X61084819Y-85753333D01*
X61084819Y-85753333D02*
X61132438Y-85658095D01*
X61132438Y-85658095D02*
X61180057Y-85610476D01*
X61180057Y-85610476D02*
X61275295Y-85562857D01*
X61275295Y-85562857D02*
X61418152Y-85562857D01*
X61418152Y-85562857D02*
X61513390Y-85610476D01*
X61513390Y-85610476D02*
X61561009Y-85658095D01*
X61561009Y-85658095D02*
X61608628Y-85753333D01*
X61608628Y-85753333D02*
X61608628Y-86134285D01*
X62084819Y-84610476D02*
X62084819Y-85181904D01*
X62084819Y-84896190D02*
X61084819Y-84896190D01*
X61084819Y-84896190D02*
X61227676Y-84991428D01*
X61227676Y-84991428D02*
X61322914Y-85086666D01*
X61322914Y-85086666D02*
X61370533Y-85181904D01*
X62084819Y-83658095D02*
X62084819Y-84229523D01*
X62084819Y-83943809D02*
X61084819Y-83943809D01*
X61084819Y-83943809D02*
X61227676Y-84039047D01*
X61227676Y-84039047D02*
X61322914Y-84134285D01*
X61322914Y-84134285D02*
X61370533Y-84229523D01*
X126571905Y-52124819D02*
X126571905Y-52934342D01*
X126571905Y-52934342D02*
X126619524Y-53029580D01*
X126619524Y-53029580D02*
X126667143Y-53077200D01*
X126667143Y-53077200D02*
X126762381Y-53124819D01*
X126762381Y-53124819D02*
X126952857Y-53124819D01*
X126952857Y-53124819D02*
X127048095Y-53077200D01*
X127048095Y-53077200D02*
X127095714Y-53029580D01*
X127095714Y-53029580D02*
X127143333Y-52934342D01*
X127143333Y-52934342D02*
X127143333Y-52124819D01*
X128143333Y-53124819D02*
X127571905Y-53124819D01*
X127857619Y-53124819D02*
X127857619Y-52124819D01*
X127857619Y-52124819D02*
X127762381Y-52267676D01*
X127762381Y-52267676D02*
X127667143Y-52362914D01*
X127667143Y-52362914D02*
X127571905Y-52410533D01*
X128762381Y-52124819D02*
X128857619Y-52124819D01*
X128857619Y-52124819D02*
X128952857Y-52172438D01*
X128952857Y-52172438D02*
X129000476Y-52220057D01*
X129000476Y-52220057D02*
X129048095Y-52315295D01*
X129048095Y-52315295D02*
X129095714Y-52505771D01*
X129095714Y-52505771D02*
X129095714Y-52743866D01*
X129095714Y-52743866D02*
X129048095Y-52934342D01*
X129048095Y-52934342D02*
X129000476Y-53029580D01*
X129000476Y-53029580D02*
X128952857Y-53077200D01*
X128952857Y-53077200D02*
X128857619Y-53124819D01*
X128857619Y-53124819D02*
X128762381Y-53124819D01*
X128762381Y-53124819D02*
X128667143Y-53077200D01*
X128667143Y-53077200D02*
X128619524Y-53029580D01*
X128619524Y-53029580D02*
X128571905Y-52934342D01*
X128571905Y-52934342D02*
X128524286Y-52743866D01*
X128524286Y-52743866D02*
X128524286Y-52505771D01*
X128524286Y-52505771D02*
X128571905Y-52315295D01*
X128571905Y-52315295D02*
X128619524Y-52220057D01*
X128619524Y-52220057D02*
X128667143Y-52172438D01*
X128667143Y-52172438D02*
X128762381Y-52124819D01*
X88084819Y-130562857D02*
X87608628Y-130896190D01*
X88084819Y-131134285D02*
X87084819Y-131134285D01*
X87084819Y-131134285D02*
X87084819Y-130753333D01*
X87084819Y-130753333D02*
X87132438Y-130658095D01*
X87132438Y-130658095D02*
X87180057Y-130610476D01*
X87180057Y-130610476D02*
X87275295Y-130562857D01*
X87275295Y-130562857D02*
X87418152Y-130562857D01*
X87418152Y-130562857D02*
X87513390Y-130610476D01*
X87513390Y-130610476D02*
X87561009Y-130658095D01*
X87561009Y-130658095D02*
X87608628Y-130753333D01*
X87608628Y-130753333D02*
X87608628Y-131134285D01*
X87180057Y-130181904D02*
X87132438Y-130134285D01*
X87132438Y-130134285D02*
X87084819Y-130039047D01*
X87084819Y-130039047D02*
X87084819Y-129800952D01*
X87084819Y-129800952D02*
X87132438Y-129705714D01*
X87132438Y-129705714D02*
X87180057Y-129658095D01*
X87180057Y-129658095D02*
X87275295Y-129610476D01*
X87275295Y-129610476D02*
X87370533Y-129610476D01*
X87370533Y-129610476D02*
X87513390Y-129658095D01*
X87513390Y-129658095D02*
X88084819Y-130229523D01*
X88084819Y-130229523D02*
X88084819Y-129610476D01*
X88084819Y-129134285D02*
X88084819Y-128943809D01*
X88084819Y-128943809D02*
X88037200Y-128848571D01*
X88037200Y-128848571D02*
X87989580Y-128800952D01*
X87989580Y-128800952D02*
X87846723Y-128705714D01*
X87846723Y-128705714D02*
X87656247Y-128658095D01*
X87656247Y-128658095D02*
X87275295Y-128658095D01*
X87275295Y-128658095D02*
X87180057Y-128705714D01*
X87180057Y-128705714D02*
X87132438Y-128753333D01*
X87132438Y-128753333D02*
X87084819Y-128848571D01*
X87084819Y-128848571D02*
X87084819Y-129039047D01*
X87084819Y-129039047D02*
X87132438Y-129134285D01*
X87132438Y-129134285D02*
X87180057Y-129181904D01*
X87180057Y-129181904D02*
X87275295Y-129229523D01*
X87275295Y-129229523D02*
X87513390Y-129229523D01*
X87513390Y-129229523D02*
X87608628Y-129181904D01*
X87608628Y-129181904D02*
X87656247Y-129134285D01*
X87656247Y-129134285D02*
X87703866Y-129039047D01*
X87703866Y-129039047D02*
X87703866Y-128848571D01*
X87703866Y-128848571D02*
X87656247Y-128753333D01*
X87656247Y-128753333D02*
X87608628Y-128705714D01*
X87608628Y-128705714D02*
X87513390Y-128658095D01*
X49438095Y-11954819D02*
X50009523Y-11954819D01*
X49723809Y-12954819D02*
X49723809Y-11954819D01*
X50342857Y-12954819D02*
X50342857Y-11954819D01*
X50342857Y-11954819D02*
X50723809Y-11954819D01*
X50723809Y-11954819D02*
X50819047Y-12002438D01*
X50819047Y-12002438D02*
X50866666Y-12050057D01*
X50866666Y-12050057D02*
X50914285Y-12145295D01*
X50914285Y-12145295D02*
X50914285Y-12288152D01*
X50914285Y-12288152D02*
X50866666Y-12383390D01*
X50866666Y-12383390D02*
X50819047Y-12431009D01*
X50819047Y-12431009D02*
X50723809Y-12478628D01*
X50723809Y-12478628D02*
X50342857Y-12478628D01*
X51247619Y-11954819D02*
X51866666Y-11954819D01*
X51866666Y-11954819D02*
X51533333Y-12335771D01*
X51533333Y-12335771D02*
X51676190Y-12335771D01*
X51676190Y-12335771D02*
X51771428Y-12383390D01*
X51771428Y-12383390D02*
X51819047Y-12431009D01*
X51819047Y-12431009D02*
X51866666Y-12526247D01*
X51866666Y-12526247D02*
X51866666Y-12764342D01*
X51866666Y-12764342D02*
X51819047Y-12859580D01*
X51819047Y-12859580D02*
X51771428Y-12907200D01*
X51771428Y-12907200D02*
X51676190Y-12954819D01*
X51676190Y-12954819D02*
X51390476Y-12954819D01*
X51390476Y-12954819D02*
X51295238Y-12907200D01*
X51295238Y-12907200D02*
X51247619Y-12859580D01*
X34084819Y-85086666D02*
X33608628Y-85419999D01*
X34084819Y-85658094D02*
X33084819Y-85658094D01*
X33084819Y-85658094D02*
X33084819Y-85277142D01*
X33084819Y-85277142D02*
X33132438Y-85181904D01*
X33132438Y-85181904D02*
X33180057Y-85134285D01*
X33180057Y-85134285D02*
X33275295Y-85086666D01*
X33275295Y-85086666D02*
X33418152Y-85086666D01*
X33418152Y-85086666D02*
X33513390Y-85134285D01*
X33513390Y-85134285D02*
X33561009Y-85181904D01*
X33561009Y-85181904D02*
X33608628Y-85277142D01*
X33608628Y-85277142D02*
X33608628Y-85658094D01*
X33084819Y-84229523D02*
X33084819Y-84419999D01*
X33084819Y-84419999D02*
X33132438Y-84515237D01*
X33132438Y-84515237D02*
X33180057Y-84562856D01*
X33180057Y-84562856D02*
X33322914Y-84658094D01*
X33322914Y-84658094D02*
X33513390Y-84705713D01*
X33513390Y-84705713D02*
X33894342Y-84705713D01*
X33894342Y-84705713D02*
X33989580Y-84658094D01*
X33989580Y-84658094D02*
X34037200Y-84610475D01*
X34037200Y-84610475D02*
X34084819Y-84515237D01*
X34084819Y-84515237D02*
X34084819Y-84324761D01*
X34084819Y-84324761D02*
X34037200Y-84229523D01*
X34037200Y-84229523D02*
X33989580Y-84181904D01*
X33989580Y-84181904D02*
X33894342Y-84134285D01*
X33894342Y-84134285D02*
X33656247Y-84134285D01*
X33656247Y-84134285D02*
X33561009Y-84181904D01*
X33561009Y-84181904D02*
X33513390Y-84229523D01*
X33513390Y-84229523D02*
X33465771Y-84324761D01*
X33465771Y-84324761D02*
X33465771Y-84515237D01*
X33465771Y-84515237D02*
X33513390Y-84610475D01*
X33513390Y-84610475D02*
X33561009Y-84658094D01*
X33561009Y-84658094D02*
X33656247Y-84705713D01*
X56484819Y-85562857D02*
X56008628Y-85896190D01*
X56484819Y-86134285D02*
X55484819Y-86134285D01*
X55484819Y-86134285D02*
X55484819Y-85753333D01*
X55484819Y-85753333D02*
X55532438Y-85658095D01*
X55532438Y-85658095D02*
X55580057Y-85610476D01*
X55580057Y-85610476D02*
X55675295Y-85562857D01*
X55675295Y-85562857D02*
X55818152Y-85562857D01*
X55818152Y-85562857D02*
X55913390Y-85610476D01*
X55913390Y-85610476D02*
X55961009Y-85658095D01*
X55961009Y-85658095D02*
X56008628Y-85753333D01*
X56008628Y-85753333D02*
X56008628Y-86134285D01*
X56484819Y-84610476D02*
X56484819Y-85181904D01*
X56484819Y-84896190D02*
X55484819Y-84896190D01*
X55484819Y-84896190D02*
X55627676Y-84991428D01*
X55627676Y-84991428D02*
X55722914Y-85086666D01*
X55722914Y-85086666D02*
X55770533Y-85181904D01*
X55484819Y-83991428D02*
X55484819Y-83896190D01*
X55484819Y-83896190D02*
X55532438Y-83800952D01*
X55532438Y-83800952D02*
X55580057Y-83753333D01*
X55580057Y-83753333D02*
X55675295Y-83705714D01*
X55675295Y-83705714D02*
X55865771Y-83658095D01*
X55865771Y-83658095D02*
X56103866Y-83658095D01*
X56103866Y-83658095D02*
X56294342Y-83705714D01*
X56294342Y-83705714D02*
X56389580Y-83753333D01*
X56389580Y-83753333D02*
X56437200Y-83800952D01*
X56437200Y-83800952D02*
X56484819Y-83896190D01*
X56484819Y-83896190D02*
X56484819Y-83991428D01*
X56484819Y-83991428D02*
X56437200Y-84086666D01*
X56437200Y-84086666D02*
X56389580Y-84134285D01*
X56389580Y-84134285D02*
X56294342Y-84181904D01*
X56294342Y-84181904D02*
X56103866Y-84229523D01*
X56103866Y-84229523D02*
X55865771Y-84229523D01*
X55865771Y-84229523D02*
X55675295Y-84181904D01*
X55675295Y-84181904D02*
X55580057Y-84134285D01*
X55580057Y-84134285D02*
X55532438Y-84086666D01*
X55532438Y-84086666D02*
X55484819Y-83991428D01*
X39684819Y-85086666D02*
X39208628Y-85419999D01*
X39684819Y-85658094D02*
X38684819Y-85658094D01*
X38684819Y-85658094D02*
X38684819Y-85277142D01*
X38684819Y-85277142D02*
X38732438Y-85181904D01*
X38732438Y-85181904D02*
X38780057Y-85134285D01*
X38780057Y-85134285D02*
X38875295Y-85086666D01*
X38875295Y-85086666D02*
X39018152Y-85086666D01*
X39018152Y-85086666D02*
X39113390Y-85134285D01*
X39113390Y-85134285D02*
X39161009Y-85181904D01*
X39161009Y-85181904D02*
X39208628Y-85277142D01*
X39208628Y-85277142D02*
X39208628Y-85658094D01*
X38684819Y-84753332D02*
X38684819Y-84086666D01*
X38684819Y-84086666D02*
X39684819Y-84515237D01*
X84484819Y-85562857D02*
X84008628Y-85896190D01*
X84484819Y-86134285D02*
X83484819Y-86134285D01*
X83484819Y-86134285D02*
X83484819Y-85753333D01*
X83484819Y-85753333D02*
X83532438Y-85658095D01*
X83532438Y-85658095D02*
X83580057Y-85610476D01*
X83580057Y-85610476D02*
X83675295Y-85562857D01*
X83675295Y-85562857D02*
X83818152Y-85562857D01*
X83818152Y-85562857D02*
X83913390Y-85610476D01*
X83913390Y-85610476D02*
X83961009Y-85658095D01*
X83961009Y-85658095D02*
X84008628Y-85753333D01*
X84008628Y-85753333D02*
X84008628Y-86134285D01*
X84484819Y-84610476D02*
X84484819Y-85181904D01*
X84484819Y-84896190D02*
X83484819Y-84896190D01*
X83484819Y-84896190D02*
X83627676Y-84991428D01*
X83627676Y-84991428D02*
X83722914Y-85086666D01*
X83722914Y-85086666D02*
X83770533Y-85181904D01*
X83484819Y-83705714D02*
X83484819Y-84181904D01*
X83484819Y-84181904D02*
X83961009Y-84229523D01*
X83961009Y-84229523D02*
X83913390Y-84181904D01*
X83913390Y-84181904D02*
X83865771Y-84086666D01*
X83865771Y-84086666D02*
X83865771Y-83848571D01*
X83865771Y-83848571D02*
X83913390Y-83753333D01*
X83913390Y-83753333D02*
X83961009Y-83705714D01*
X83961009Y-83705714D02*
X84056247Y-83658095D01*
X84056247Y-83658095D02*
X84294342Y-83658095D01*
X84294342Y-83658095D02*
X84389580Y-83705714D01*
X84389580Y-83705714D02*
X84437200Y-83753333D01*
X84437200Y-83753333D02*
X84484819Y-83848571D01*
X84484819Y-83848571D02*
X84484819Y-84086666D01*
X84484819Y-84086666D02*
X84437200Y-84181904D01*
X84437200Y-84181904D02*
X84389580Y-84229523D01*
X94438095Y-11954819D02*
X95009523Y-11954819D01*
X94723809Y-12954819D02*
X94723809Y-11954819D01*
X95342857Y-12954819D02*
X95342857Y-11954819D01*
X95342857Y-11954819D02*
X95723809Y-11954819D01*
X95723809Y-11954819D02*
X95819047Y-12002438D01*
X95819047Y-12002438D02*
X95866666Y-12050057D01*
X95866666Y-12050057D02*
X95914285Y-12145295D01*
X95914285Y-12145295D02*
X95914285Y-12288152D01*
X95914285Y-12288152D02*
X95866666Y-12383390D01*
X95866666Y-12383390D02*
X95819047Y-12431009D01*
X95819047Y-12431009D02*
X95723809Y-12478628D01*
X95723809Y-12478628D02*
X95342857Y-12478628D01*
X96247619Y-11954819D02*
X96914285Y-11954819D01*
X96914285Y-11954819D02*
X96485714Y-12954819D01*
X146048095Y-52124819D02*
X146048095Y-52934342D01*
X146048095Y-52934342D02*
X146095714Y-53029580D01*
X146095714Y-53029580D02*
X146143333Y-53077200D01*
X146143333Y-53077200D02*
X146238571Y-53124819D01*
X146238571Y-53124819D02*
X146429047Y-53124819D01*
X146429047Y-53124819D02*
X146524285Y-53077200D01*
X146524285Y-53077200D02*
X146571904Y-53029580D01*
X146571904Y-53029580D02*
X146619523Y-52934342D01*
X146619523Y-52934342D02*
X146619523Y-52124819D01*
X147000476Y-52124819D02*
X147667142Y-52124819D01*
X147667142Y-52124819D02*
X147238571Y-53124819D01*
X101084819Y-110562857D02*
X100608628Y-110896190D01*
X101084819Y-111134285D02*
X100084819Y-111134285D01*
X100084819Y-111134285D02*
X100084819Y-110753333D01*
X100084819Y-110753333D02*
X100132438Y-110658095D01*
X100132438Y-110658095D02*
X100180057Y-110610476D01*
X100180057Y-110610476D02*
X100275295Y-110562857D01*
X100275295Y-110562857D02*
X100418152Y-110562857D01*
X100418152Y-110562857D02*
X100513390Y-110610476D01*
X100513390Y-110610476D02*
X100561009Y-110658095D01*
X100561009Y-110658095D02*
X100608628Y-110753333D01*
X100608628Y-110753333D02*
X100608628Y-111134285D01*
X100180057Y-110181904D02*
X100132438Y-110134285D01*
X100132438Y-110134285D02*
X100084819Y-110039047D01*
X100084819Y-110039047D02*
X100084819Y-109800952D01*
X100084819Y-109800952D02*
X100132438Y-109705714D01*
X100132438Y-109705714D02*
X100180057Y-109658095D01*
X100180057Y-109658095D02*
X100275295Y-109610476D01*
X100275295Y-109610476D02*
X100370533Y-109610476D01*
X100370533Y-109610476D02*
X100513390Y-109658095D01*
X100513390Y-109658095D02*
X101084819Y-110229523D01*
X101084819Y-110229523D02*
X101084819Y-109610476D01*
X100418152Y-108753333D02*
X101084819Y-108753333D01*
X100037200Y-108991428D02*
X100751485Y-109229523D01*
X100751485Y-109229523D02*
X100751485Y-108610476D01*
X16858095Y-19124819D02*
X16858095Y-19934342D01*
X16858095Y-19934342D02*
X16905714Y-20029580D01*
X16905714Y-20029580D02*
X16953333Y-20077200D01*
X16953333Y-20077200D02*
X17048571Y-20124819D01*
X17048571Y-20124819D02*
X17239047Y-20124819D01*
X17239047Y-20124819D02*
X17334285Y-20077200D01*
X17334285Y-20077200D02*
X17381904Y-20029580D01*
X17381904Y-20029580D02*
X17429523Y-19934342D01*
X17429523Y-19934342D02*
X17429523Y-19124819D01*
X17858095Y-19220057D02*
X17905714Y-19172438D01*
X17905714Y-19172438D02*
X18000952Y-19124819D01*
X18000952Y-19124819D02*
X18239047Y-19124819D01*
X18239047Y-19124819D02*
X18334285Y-19172438D01*
X18334285Y-19172438D02*
X18381904Y-19220057D01*
X18381904Y-19220057D02*
X18429523Y-19315295D01*
X18429523Y-19315295D02*
X18429523Y-19410533D01*
X18429523Y-19410533D02*
X18381904Y-19553390D01*
X18381904Y-19553390D02*
X17810476Y-20124819D01*
X17810476Y-20124819D02*
X18429523Y-20124819D01*
X81048095Y-19124819D02*
X81048095Y-19934342D01*
X81048095Y-19934342D02*
X81095714Y-20029580D01*
X81095714Y-20029580D02*
X81143333Y-20077200D01*
X81143333Y-20077200D02*
X81238571Y-20124819D01*
X81238571Y-20124819D02*
X81429047Y-20124819D01*
X81429047Y-20124819D02*
X81524285Y-20077200D01*
X81524285Y-20077200D02*
X81571904Y-20029580D01*
X81571904Y-20029580D02*
X81619523Y-19934342D01*
X81619523Y-19934342D02*
X81619523Y-19124819D01*
X82238571Y-19553390D02*
X82143333Y-19505771D01*
X82143333Y-19505771D02*
X82095714Y-19458152D01*
X82095714Y-19458152D02*
X82048095Y-19362914D01*
X82048095Y-19362914D02*
X82048095Y-19315295D01*
X82048095Y-19315295D02*
X82095714Y-19220057D01*
X82095714Y-19220057D02*
X82143333Y-19172438D01*
X82143333Y-19172438D02*
X82238571Y-19124819D01*
X82238571Y-19124819D02*
X82429047Y-19124819D01*
X82429047Y-19124819D02*
X82524285Y-19172438D01*
X82524285Y-19172438D02*
X82571904Y-19220057D01*
X82571904Y-19220057D02*
X82619523Y-19315295D01*
X82619523Y-19315295D02*
X82619523Y-19362914D01*
X82619523Y-19362914D02*
X82571904Y-19458152D01*
X82571904Y-19458152D02*
X82524285Y-19505771D01*
X82524285Y-19505771D02*
X82429047Y-19553390D01*
X82429047Y-19553390D02*
X82238571Y-19553390D01*
X82238571Y-19553390D02*
X82143333Y-19601009D01*
X82143333Y-19601009D02*
X82095714Y-19648628D01*
X82095714Y-19648628D02*
X82048095Y-19743866D01*
X82048095Y-19743866D02*
X82048095Y-19934342D01*
X82048095Y-19934342D02*
X82095714Y-20029580D01*
X82095714Y-20029580D02*
X82143333Y-20077200D01*
X82143333Y-20077200D02*
X82238571Y-20124819D01*
X82238571Y-20124819D02*
X82429047Y-20124819D01*
X82429047Y-20124819D02*
X82524285Y-20077200D01*
X82524285Y-20077200D02*
X82571904Y-20029580D01*
X82571904Y-20029580D02*
X82619523Y-19934342D01*
X82619523Y-19934342D02*
X82619523Y-19743866D01*
X82619523Y-19743866D02*
X82571904Y-19648628D01*
X82571904Y-19648628D02*
X82524285Y-19601009D01*
X82524285Y-19601009D02*
X82429047Y-19553390D01*
X59438095Y-11954819D02*
X60009523Y-11954819D01*
X59723809Y-12954819D02*
X59723809Y-11954819D01*
X60342857Y-12954819D02*
X60342857Y-11954819D01*
X60342857Y-11954819D02*
X60723809Y-11954819D01*
X60723809Y-11954819D02*
X60819047Y-12002438D01*
X60819047Y-12002438D02*
X60866666Y-12050057D01*
X60866666Y-12050057D02*
X60914285Y-12145295D01*
X60914285Y-12145295D02*
X60914285Y-12288152D01*
X60914285Y-12288152D02*
X60866666Y-12383390D01*
X60866666Y-12383390D02*
X60819047Y-12431009D01*
X60819047Y-12431009D02*
X60723809Y-12478628D01*
X60723809Y-12478628D02*
X60342857Y-12478628D01*
X61295238Y-12050057D02*
X61342857Y-12002438D01*
X61342857Y-12002438D02*
X61438095Y-11954819D01*
X61438095Y-11954819D02*
X61676190Y-11954819D01*
X61676190Y-11954819D02*
X61771428Y-12002438D01*
X61771428Y-12002438D02*
X61819047Y-12050057D01*
X61819047Y-12050057D02*
X61866666Y-12145295D01*
X61866666Y-12145295D02*
X61866666Y-12240533D01*
X61866666Y-12240533D02*
X61819047Y-12383390D01*
X61819047Y-12383390D02*
X61247619Y-12954819D01*
X61247619Y-12954819D02*
X61866666Y-12954819D01*
X138738095Y-82354819D02*
X138738095Y-81354819D01*
X139309523Y-82354819D02*
X138880952Y-81783390D01*
X139309523Y-81354819D02*
X138738095Y-81926247D01*
X93084819Y-93562857D02*
X92608628Y-93896190D01*
X93084819Y-94134285D02*
X92084819Y-94134285D01*
X92084819Y-94134285D02*
X92084819Y-93753333D01*
X92084819Y-93753333D02*
X92132438Y-93658095D01*
X92132438Y-93658095D02*
X92180057Y-93610476D01*
X92180057Y-93610476D02*
X92275295Y-93562857D01*
X92275295Y-93562857D02*
X92418152Y-93562857D01*
X92418152Y-93562857D02*
X92513390Y-93610476D01*
X92513390Y-93610476D02*
X92561009Y-93658095D01*
X92561009Y-93658095D02*
X92608628Y-93753333D01*
X92608628Y-93753333D02*
X92608628Y-94134285D01*
X93084819Y-92610476D02*
X93084819Y-93181904D01*
X93084819Y-92896190D02*
X92084819Y-92896190D01*
X92084819Y-92896190D02*
X92227676Y-92991428D01*
X92227676Y-92991428D02*
X92322914Y-93086666D01*
X92322914Y-93086666D02*
X92370533Y-93181904D01*
X92084819Y-92277142D02*
X92084819Y-91610476D01*
X92084819Y-91610476D02*
X93084819Y-92039047D01*
X133084819Y-93562857D02*
X132608628Y-93896190D01*
X133084819Y-94134285D02*
X132084819Y-94134285D01*
X132084819Y-94134285D02*
X132084819Y-93753333D01*
X132084819Y-93753333D02*
X132132438Y-93658095D01*
X132132438Y-93658095D02*
X132180057Y-93610476D01*
X132180057Y-93610476D02*
X132275295Y-93562857D01*
X132275295Y-93562857D02*
X132418152Y-93562857D01*
X132418152Y-93562857D02*
X132513390Y-93610476D01*
X132513390Y-93610476D02*
X132561009Y-93658095D01*
X132561009Y-93658095D02*
X132608628Y-93753333D01*
X132608628Y-93753333D02*
X132608628Y-94134285D01*
X132180057Y-93181904D02*
X132132438Y-93134285D01*
X132132438Y-93134285D02*
X132084819Y-93039047D01*
X132084819Y-93039047D02*
X132084819Y-92800952D01*
X132084819Y-92800952D02*
X132132438Y-92705714D01*
X132132438Y-92705714D02*
X132180057Y-92658095D01*
X132180057Y-92658095D02*
X132275295Y-92610476D01*
X132275295Y-92610476D02*
X132370533Y-92610476D01*
X132370533Y-92610476D02*
X132513390Y-92658095D01*
X132513390Y-92658095D02*
X133084819Y-93229523D01*
X133084819Y-93229523D02*
X133084819Y-92610476D01*
X132180057Y-92229523D02*
X132132438Y-92181904D01*
X132132438Y-92181904D02*
X132084819Y-92086666D01*
X132084819Y-92086666D02*
X132084819Y-91848571D01*
X132084819Y-91848571D02*
X132132438Y-91753333D01*
X132132438Y-91753333D02*
X132180057Y-91705714D01*
X132180057Y-91705714D02*
X132275295Y-91658095D01*
X132275295Y-91658095D02*
X132370533Y-91658095D01*
X132370533Y-91658095D02*
X132513390Y-91705714D01*
X132513390Y-91705714D02*
X133084819Y-92277142D01*
X133084819Y-92277142D02*
X133084819Y-91658095D01*
X117084819Y-93562857D02*
X116608628Y-93896190D01*
X117084819Y-94134285D02*
X116084819Y-94134285D01*
X116084819Y-94134285D02*
X116084819Y-93753333D01*
X116084819Y-93753333D02*
X116132438Y-93658095D01*
X116132438Y-93658095D02*
X116180057Y-93610476D01*
X116180057Y-93610476D02*
X116275295Y-93562857D01*
X116275295Y-93562857D02*
X116418152Y-93562857D01*
X116418152Y-93562857D02*
X116513390Y-93610476D01*
X116513390Y-93610476D02*
X116561009Y-93658095D01*
X116561009Y-93658095D02*
X116608628Y-93753333D01*
X116608628Y-93753333D02*
X116608628Y-94134285D01*
X116180057Y-93181904D02*
X116132438Y-93134285D01*
X116132438Y-93134285D02*
X116084819Y-93039047D01*
X116084819Y-93039047D02*
X116084819Y-92800952D01*
X116084819Y-92800952D02*
X116132438Y-92705714D01*
X116132438Y-92705714D02*
X116180057Y-92658095D01*
X116180057Y-92658095D02*
X116275295Y-92610476D01*
X116275295Y-92610476D02*
X116370533Y-92610476D01*
X116370533Y-92610476D02*
X116513390Y-92658095D01*
X116513390Y-92658095D02*
X117084819Y-93229523D01*
X117084819Y-93229523D02*
X117084819Y-92610476D01*
X116084819Y-91991428D02*
X116084819Y-91896190D01*
X116084819Y-91896190D02*
X116132438Y-91800952D01*
X116132438Y-91800952D02*
X116180057Y-91753333D01*
X116180057Y-91753333D02*
X116275295Y-91705714D01*
X116275295Y-91705714D02*
X116465771Y-91658095D01*
X116465771Y-91658095D02*
X116703866Y-91658095D01*
X116703866Y-91658095D02*
X116894342Y-91705714D01*
X116894342Y-91705714D02*
X116989580Y-91753333D01*
X116989580Y-91753333D02*
X117037200Y-91800952D01*
X117037200Y-91800952D02*
X117084819Y-91896190D01*
X117084819Y-91896190D02*
X117084819Y-91991428D01*
X117084819Y-91991428D02*
X117037200Y-92086666D01*
X117037200Y-92086666D02*
X116989580Y-92134285D01*
X116989580Y-92134285D02*
X116894342Y-92181904D01*
X116894342Y-92181904D02*
X116703866Y-92229523D01*
X116703866Y-92229523D02*
X116465771Y-92229523D01*
X116465771Y-92229523D02*
X116275295Y-92181904D01*
X116275295Y-92181904D02*
X116180057Y-92134285D01*
X116180057Y-92134285D02*
X116132438Y-92086666D01*
X116132438Y-92086666D02*
X116084819Y-91991428D01*
X109084819Y-110562857D02*
X108608628Y-110896190D01*
X109084819Y-111134285D02*
X108084819Y-111134285D01*
X108084819Y-111134285D02*
X108084819Y-110753333D01*
X108084819Y-110753333D02*
X108132438Y-110658095D01*
X108132438Y-110658095D02*
X108180057Y-110610476D01*
X108180057Y-110610476D02*
X108275295Y-110562857D01*
X108275295Y-110562857D02*
X108418152Y-110562857D01*
X108418152Y-110562857D02*
X108513390Y-110610476D01*
X108513390Y-110610476D02*
X108561009Y-110658095D01*
X108561009Y-110658095D02*
X108608628Y-110753333D01*
X108608628Y-110753333D02*
X108608628Y-111134285D01*
X108180057Y-110181904D02*
X108132438Y-110134285D01*
X108132438Y-110134285D02*
X108084819Y-110039047D01*
X108084819Y-110039047D02*
X108084819Y-109800952D01*
X108084819Y-109800952D02*
X108132438Y-109705714D01*
X108132438Y-109705714D02*
X108180057Y-109658095D01*
X108180057Y-109658095D02*
X108275295Y-109610476D01*
X108275295Y-109610476D02*
X108370533Y-109610476D01*
X108370533Y-109610476D02*
X108513390Y-109658095D01*
X108513390Y-109658095D02*
X109084819Y-110229523D01*
X109084819Y-110229523D02*
X109084819Y-109610476D01*
X108084819Y-108705714D02*
X108084819Y-109181904D01*
X108084819Y-109181904D02*
X108561009Y-109229523D01*
X108561009Y-109229523D02*
X108513390Y-109181904D01*
X108513390Y-109181904D02*
X108465771Y-109086666D01*
X108465771Y-109086666D02*
X108465771Y-108848571D01*
X108465771Y-108848571D02*
X108513390Y-108753333D01*
X108513390Y-108753333D02*
X108561009Y-108705714D01*
X108561009Y-108705714D02*
X108656247Y-108658095D01*
X108656247Y-108658095D02*
X108894342Y-108658095D01*
X108894342Y-108658095D02*
X108989580Y-108705714D01*
X108989580Y-108705714D02*
X109037200Y-108753333D01*
X109037200Y-108753333D02*
X109084819Y-108848571D01*
X109084819Y-108848571D02*
X109084819Y-109086666D01*
X109084819Y-109086666D02*
X109037200Y-109181904D01*
X109037200Y-109181904D02*
X108989580Y-109229523D01*
X44739523Y-70144819D02*
X44406190Y-69668628D01*
X44168095Y-70144819D02*
X44168095Y-69144819D01*
X44168095Y-69144819D02*
X44549047Y-69144819D01*
X44549047Y-69144819D02*
X44644285Y-69192438D01*
X44644285Y-69192438D02*
X44691904Y-69240057D01*
X44691904Y-69240057D02*
X44739523Y-69335295D01*
X44739523Y-69335295D02*
X44739523Y-69478152D01*
X44739523Y-69478152D02*
X44691904Y-69573390D01*
X44691904Y-69573390D02*
X44644285Y-69621009D01*
X44644285Y-69621009D02*
X44549047Y-69668628D01*
X44549047Y-69668628D02*
X44168095Y-69668628D01*
X45168095Y-70144819D02*
X45168095Y-69144819D01*
X45168095Y-69144819D02*
X45739523Y-70144819D01*
X45739523Y-70144819D02*
X45739523Y-69144819D01*
X46168095Y-69240057D02*
X46215714Y-69192438D01*
X46215714Y-69192438D02*
X46310952Y-69144819D01*
X46310952Y-69144819D02*
X46549047Y-69144819D01*
X46549047Y-69144819D02*
X46644285Y-69192438D01*
X46644285Y-69192438D02*
X46691904Y-69240057D01*
X46691904Y-69240057D02*
X46739523Y-69335295D01*
X46739523Y-69335295D02*
X46739523Y-69430533D01*
X46739523Y-69430533D02*
X46691904Y-69573390D01*
X46691904Y-69573390D02*
X46120476Y-70144819D01*
X46120476Y-70144819D02*
X46739523Y-70144819D01*
X17284819Y-85086666D02*
X16808628Y-85419999D01*
X17284819Y-85658094D02*
X16284819Y-85658094D01*
X16284819Y-85658094D02*
X16284819Y-85277142D01*
X16284819Y-85277142D02*
X16332438Y-85181904D01*
X16332438Y-85181904D02*
X16380057Y-85134285D01*
X16380057Y-85134285D02*
X16475295Y-85086666D01*
X16475295Y-85086666D02*
X16618152Y-85086666D01*
X16618152Y-85086666D02*
X16713390Y-85134285D01*
X16713390Y-85134285D02*
X16761009Y-85181904D01*
X16761009Y-85181904D02*
X16808628Y-85277142D01*
X16808628Y-85277142D02*
X16808628Y-85658094D01*
X16284819Y-84753332D02*
X16284819Y-84134285D01*
X16284819Y-84134285D02*
X16665771Y-84467618D01*
X16665771Y-84467618D02*
X16665771Y-84324761D01*
X16665771Y-84324761D02*
X16713390Y-84229523D01*
X16713390Y-84229523D02*
X16761009Y-84181904D01*
X16761009Y-84181904D02*
X16856247Y-84134285D01*
X16856247Y-84134285D02*
X17094342Y-84134285D01*
X17094342Y-84134285D02*
X17189580Y-84181904D01*
X17189580Y-84181904D02*
X17237200Y-84229523D01*
X17237200Y-84229523D02*
X17284819Y-84324761D01*
X17284819Y-84324761D02*
X17284819Y-84610475D01*
X17284819Y-84610475D02*
X17237200Y-84705713D01*
X17237200Y-84705713D02*
X17189580Y-84753332D01*
X67684819Y-85562857D02*
X67208628Y-85896190D01*
X67684819Y-86134285D02*
X66684819Y-86134285D01*
X66684819Y-86134285D02*
X66684819Y-85753333D01*
X66684819Y-85753333D02*
X66732438Y-85658095D01*
X66732438Y-85658095D02*
X66780057Y-85610476D01*
X66780057Y-85610476D02*
X66875295Y-85562857D01*
X66875295Y-85562857D02*
X67018152Y-85562857D01*
X67018152Y-85562857D02*
X67113390Y-85610476D01*
X67113390Y-85610476D02*
X67161009Y-85658095D01*
X67161009Y-85658095D02*
X67208628Y-85753333D01*
X67208628Y-85753333D02*
X67208628Y-86134285D01*
X67684819Y-84610476D02*
X67684819Y-85181904D01*
X67684819Y-84896190D02*
X66684819Y-84896190D01*
X66684819Y-84896190D02*
X66827676Y-84991428D01*
X66827676Y-84991428D02*
X66922914Y-85086666D01*
X66922914Y-85086666D02*
X66970533Y-85181904D01*
X66780057Y-84229523D02*
X66732438Y-84181904D01*
X66732438Y-84181904D02*
X66684819Y-84086666D01*
X66684819Y-84086666D02*
X66684819Y-83848571D01*
X66684819Y-83848571D02*
X66732438Y-83753333D01*
X66732438Y-83753333D02*
X66780057Y-83705714D01*
X66780057Y-83705714D02*
X66875295Y-83658095D01*
X66875295Y-83658095D02*
X66970533Y-83658095D01*
X66970533Y-83658095D02*
X67113390Y-83705714D01*
X67113390Y-83705714D02*
X67684819Y-84277142D01*
X67684819Y-84277142D02*
X67684819Y-83658095D01*
X81174761Y-57990057D02*
X81079523Y-57942438D01*
X81079523Y-57942438D02*
X80984285Y-57847200D01*
X80984285Y-57847200D02*
X80841428Y-57704342D01*
X80841428Y-57704342D02*
X80746190Y-57656723D01*
X80746190Y-57656723D02*
X80650952Y-57656723D01*
X80698571Y-57894819D02*
X80603333Y-57847200D01*
X80603333Y-57847200D02*
X80508095Y-57751961D01*
X80508095Y-57751961D02*
X80460476Y-57561485D01*
X80460476Y-57561485D02*
X80460476Y-57228152D01*
X80460476Y-57228152D02*
X80508095Y-57037676D01*
X80508095Y-57037676D02*
X80603333Y-56942438D01*
X80603333Y-56942438D02*
X80698571Y-56894819D01*
X80698571Y-56894819D02*
X80889047Y-56894819D01*
X80889047Y-56894819D02*
X80984285Y-56942438D01*
X80984285Y-56942438D02*
X81079523Y-57037676D01*
X81079523Y-57037676D02*
X81127142Y-57228152D01*
X81127142Y-57228152D02*
X81127142Y-57561485D01*
X81127142Y-57561485D02*
X81079523Y-57751961D01*
X81079523Y-57751961D02*
X80984285Y-57847200D01*
X80984285Y-57847200D02*
X80889047Y-57894819D01*
X80889047Y-57894819D02*
X80698571Y-57894819D01*
X82079523Y-57894819D02*
X81508095Y-57894819D01*
X81793809Y-57894819D02*
X81793809Y-56894819D01*
X81793809Y-56894819D02*
X81698571Y-57037676D01*
X81698571Y-57037676D02*
X81603333Y-57132914D01*
X81603333Y-57132914D02*
X81508095Y-57180533D01*
X11684819Y-85086666D02*
X11208628Y-85419999D01*
X11684819Y-85658094D02*
X10684819Y-85658094D01*
X10684819Y-85658094D02*
X10684819Y-85277142D01*
X10684819Y-85277142D02*
X10732438Y-85181904D01*
X10732438Y-85181904D02*
X10780057Y-85134285D01*
X10780057Y-85134285D02*
X10875295Y-85086666D01*
X10875295Y-85086666D02*
X11018152Y-85086666D01*
X11018152Y-85086666D02*
X11113390Y-85134285D01*
X11113390Y-85134285D02*
X11161009Y-85181904D01*
X11161009Y-85181904D02*
X11208628Y-85277142D01*
X11208628Y-85277142D02*
X11208628Y-85658094D01*
X10780057Y-84705713D02*
X10732438Y-84658094D01*
X10732438Y-84658094D02*
X10684819Y-84562856D01*
X10684819Y-84562856D02*
X10684819Y-84324761D01*
X10684819Y-84324761D02*
X10732438Y-84229523D01*
X10732438Y-84229523D02*
X10780057Y-84181904D01*
X10780057Y-84181904D02*
X10875295Y-84134285D01*
X10875295Y-84134285D02*
X10970533Y-84134285D01*
X10970533Y-84134285D02*
X11113390Y-84181904D01*
X11113390Y-84181904D02*
X11684819Y-84753332D01*
X11684819Y-84753332D02*
X11684819Y-84134285D01*
X18739523Y-65144819D02*
X18406190Y-64668628D01*
X18168095Y-65144819D02*
X18168095Y-64144819D01*
X18168095Y-64144819D02*
X18549047Y-64144819D01*
X18549047Y-64144819D02*
X18644285Y-64192438D01*
X18644285Y-64192438D02*
X18691904Y-64240057D01*
X18691904Y-64240057D02*
X18739523Y-64335295D01*
X18739523Y-64335295D02*
X18739523Y-64478152D01*
X18739523Y-64478152D02*
X18691904Y-64573390D01*
X18691904Y-64573390D02*
X18644285Y-64621009D01*
X18644285Y-64621009D02*
X18549047Y-64668628D01*
X18549047Y-64668628D02*
X18168095Y-64668628D01*
X19168095Y-65144819D02*
X19168095Y-64144819D01*
X19168095Y-64144819D02*
X19739523Y-65144819D01*
X19739523Y-65144819D02*
X19739523Y-64144819D01*
X20739523Y-65144819D02*
X20168095Y-65144819D01*
X20453809Y-65144819D02*
X20453809Y-64144819D01*
X20453809Y-64144819D02*
X20358571Y-64287676D01*
X20358571Y-64287676D02*
X20263333Y-64382914D01*
X20263333Y-64382914D02*
X20168095Y-64430533D01*
X63048095Y-17124819D02*
X63048095Y-17934342D01*
X63048095Y-17934342D02*
X63095714Y-18029580D01*
X63095714Y-18029580D02*
X63143333Y-18077200D01*
X63143333Y-18077200D02*
X63238571Y-18124819D01*
X63238571Y-18124819D02*
X63429047Y-18124819D01*
X63429047Y-18124819D02*
X63524285Y-18077200D01*
X63524285Y-18077200D02*
X63571904Y-18029580D01*
X63571904Y-18029580D02*
X63619523Y-17934342D01*
X63619523Y-17934342D02*
X63619523Y-17124819D01*
X64524285Y-17458152D02*
X64524285Y-18124819D01*
X64286190Y-17077200D02*
X64048095Y-17791485D01*
X64048095Y-17791485D02*
X64667142Y-17791485D01*
X133084819Y-110562857D02*
X132608628Y-110896190D01*
X133084819Y-111134285D02*
X132084819Y-111134285D01*
X132084819Y-111134285D02*
X132084819Y-110753333D01*
X132084819Y-110753333D02*
X132132438Y-110658095D01*
X132132438Y-110658095D02*
X132180057Y-110610476D01*
X132180057Y-110610476D02*
X132275295Y-110562857D01*
X132275295Y-110562857D02*
X132418152Y-110562857D01*
X132418152Y-110562857D02*
X132513390Y-110610476D01*
X132513390Y-110610476D02*
X132561009Y-110658095D01*
X132561009Y-110658095D02*
X132608628Y-110753333D01*
X132608628Y-110753333D02*
X132608628Y-111134285D01*
X132180057Y-110181904D02*
X132132438Y-110134285D01*
X132132438Y-110134285D02*
X132084819Y-110039047D01*
X132084819Y-110039047D02*
X132084819Y-109800952D01*
X132084819Y-109800952D02*
X132132438Y-109705714D01*
X132132438Y-109705714D02*
X132180057Y-109658095D01*
X132180057Y-109658095D02*
X132275295Y-109610476D01*
X132275295Y-109610476D02*
X132370533Y-109610476D01*
X132370533Y-109610476D02*
X132513390Y-109658095D01*
X132513390Y-109658095D02*
X133084819Y-110229523D01*
X133084819Y-110229523D02*
X133084819Y-109610476D01*
X132513390Y-109039047D02*
X132465771Y-109134285D01*
X132465771Y-109134285D02*
X132418152Y-109181904D01*
X132418152Y-109181904D02*
X132322914Y-109229523D01*
X132322914Y-109229523D02*
X132275295Y-109229523D01*
X132275295Y-109229523D02*
X132180057Y-109181904D01*
X132180057Y-109181904D02*
X132132438Y-109134285D01*
X132132438Y-109134285D02*
X132084819Y-109039047D01*
X132084819Y-109039047D02*
X132084819Y-108848571D01*
X132084819Y-108848571D02*
X132132438Y-108753333D01*
X132132438Y-108753333D02*
X132180057Y-108705714D01*
X132180057Y-108705714D02*
X132275295Y-108658095D01*
X132275295Y-108658095D02*
X132322914Y-108658095D01*
X132322914Y-108658095D02*
X132418152Y-108705714D01*
X132418152Y-108705714D02*
X132465771Y-108753333D01*
X132465771Y-108753333D02*
X132513390Y-108848571D01*
X132513390Y-108848571D02*
X132513390Y-109039047D01*
X132513390Y-109039047D02*
X132561009Y-109134285D01*
X132561009Y-109134285D02*
X132608628Y-109181904D01*
X132608628Y-109181904D02*
X132703866Y-109229523D01*
X132703866Y-109229523D02*
X132894342Y-109229523D01*
X132894342Y-109229523D02*
X132989580Y-109181904D01*
X132989580Y-109181904D02*
X133037200Y-109134285D01*
X133037200Y-109134285D02*
X133084819Y-109039047D01*
X133084819Y-109039047D02*
X133084819Y-108848571D01*
X133084819Y-108848571D02*
X133037200Y-108753333D01*
X133037200Y-108753333D02*
X132989580Y-108705714D01*
X132989580Y-108705714D02*
X132894342Y-108658095D01*
X132894342Y-108658095D02*
X132703866Y-108658095D01*
X132703866Y-108658095D02*
X132608628Y-108705714D01*
X132608628Y-108705714D02*
X132561009Y-108753333D01*
X132561009Y-108753333D02*
X132513390Y-108848571D01*
X109084819Y-93562857D02*
X108608628Y-93896190D01*
X109084819Y-94134285D02*
X108084819Y-94134285D01*
X108084819Y-94134285D02*
X108084819Y-93753333D01*
X108084819Y-93753333D02*
X108132438Y-93658095D01*
X108132438Y-93658095D02*
X108180057Y-93610476D01*
X108180057Y-93610476D02*
X108275295Y-93562857D01*
X108275295Y-93562857D02*
X108418152Y-93562857D01*
X108418152Y-93562857D02*
X108513390Y-93610476D01*
X108513390Y-93610476D02*
X108561009Y-93658095D01*
X108561009Y-93658095D02*
X108608628Y-93753333D01*
X108608628Y-93753333D02*
X108608628Y-94134285D01*
X109084819Y-92610476D02*
X109084819Y-93181904D01*
X109084819Y-92896190D02*
X108084819Y-92896190D01*
X108084819Y-92896190D02*
X108227676Y-92991428D01*
X108227676Y-92991428D02*
X108322914Y-93086666D01*
X108322914Y-93086666D02*
X108370533Y-93181904D01*
X109084819Y-92134285D02*
X109084819Y-91943809D01*
X109084819Y-91943809D02*
X109037200Y-91848571D01*
X109037200Y-91848571D02*
X108989580Y-91800952D01*
X108989580Y-91800952D02*
X108846723Y-91705714D01*
X108846723Y-91705714D02*
X108656247Y-91658095D01*
X108656247Y-91658095D02*
X108275295Y-91658095D01*
X108275295Y-91658095D02*
X108180057Y-91705714D01*
X108180057Y-91705714D02*
X108132438Y-91753333D01*
X108132438Y-91753333D02*
X108084819Y-91848571D01*
X108084819Y-91848571D02*
X108084819Y-92039047D01*
X108084819Y-92039047D02*
X108132438Y-92134285D01*
X108132438Y-92134285D02*
X108180057Y-92181904D01*
X108180057Y-92181904D02*
X108275295Y-92229523D01*
X108275295Y-92229523D02*
X108513390Y-92229523D01*
X108513390Y-92229523D02*
X108608628Y-92181904D01*
X108608628Y-92181904D02*
X108656247Y-92134285D01*
X108656247Y-92134285D02*
X108703866Y-92039047D01*
X108703866Y-92039047D02*
X108703866Y-91848571D01*
X108703866Y-91848571D02*
X108656247Y-91753333D01*
X108656247Y-91753333D02*
X108608628Y-91705714D01*
X108608628Y-91705714D02*
X108513390Y-91658095D01*
X78884819Y-85562857D02*
X78408628Y-85896190D01*
X78884819Y-86134285D02*
X77884819Y-86134285D01*
X77884819Y-86134285D02*
X77884819Y-85753333D01*
X77884819Y-85753333D02*
X77932438Y-85658095D01*
X77932438Y-85658095D02*
X77980057Y-85610476D01*
X77980057Y-85610476D02*
X78075295Y-85562857D01*
X78075295Y-85562857D02*
X78218152Y-85562857D01*
X78218152Y-85562857D02*
X78313390Y-85610476D01*
X78313390Y-85610476D02*
X78361009Y-85658095D01*
X78361009Y-85658095D02*
X78408628Y-85753333D01*
X78408628Y-85753333D02*
X78408628Y-86134285D01*
X78884819Y-84610476D02*
X78884819Y-85181904D01*
X78884819Y-84896190D02*
X77884819Y-84896190D01*
X77884819Y-84896190D02*
X78027676Y-84991428D01*
X78027676Y-84991428D02*
X78122914Y-85086666D01*
X78122914Y-85086666D02*
X78170533Y-85181904D01*
X78218152Y-83753333D02*
X78884819Y-83753333D01*
X77837200Y-83991428D02*
X78551485Y-84229523D01*
X78551485Y-84229523D02*
X78551485Y-83610476D01*
X28484819Y-85086666D02*
X28008628Y-85419999D01*
X28484819Y-85658094D02*
X27484819Y-85658094D01*
X27484819Y-85658094D02*
X27484819Y-85277142D01*
X27484819Y-85277142D02*
X27532438Y-85181904D01*
X27532438Y-85181904D02*
X27580057Y-85134285D01*
X27580057Y-85134285D02*
X27675295Y-85086666D01*
X27675295Y-85086666D02*
X27818152Y-85086666D01*
X27818152Y-85086666D02*
X27913390Y-85134285D01*
X27913390Y-85134285D02*
X27961009Y-85181904D01*
X27961009Y-85181904D02*
X28008628Y-85277142D01*
X28008628Y-85277142D02*
X28008628Y-85658094D01*
X27484819Y-84181904D02*
X27484819Y-84658094D01*
X27484819Y-84658094D02*
X27961009Y-84705713D01*
X27961009Y-84705713D02*
X27913390Y-84658094D01*
X27913390Y-84658094D02*
X27865771Y-84562856D01*
X27865771Y-84562856D02*
X27865771Y-84324761D01*
X27865771Y-84324761D02*
X27913390Y-84229523D01*
X27913390Y-84229523D02*
X27961009Y-84181904D01*
X27961009Y-84181904D02*
X28056247Y-84134285D01*
X28056247Y-84134285D02*
X28294342Y-84134285D01*
X28294342Y-84134285D02*
X28389580Y-84181904D01*
X28389580Y-84181904D02*
X28437200Y-84229523D01*
X28437200Y-84229523D02*
X28484819Y-84324761D01*
X28484819Y-84324761D02*
X28484819Y-84562856D01*
X28484819Y-84562856D02*
X28437200Y-84658094D01*
X28437200Y-84658094D02*
X28389580Y-84705713D01*
X95084819Y-130562857D02*
X94608628Y-130896190D01*
X95084819Y-131134285D02*
X94084819Y-131134285D01*
X94084819Y-131134285D02*
X94084819Y-130753333D01*
X94084819Y-130753333D02*
X94132438Y-130658095D01*
X94132438Y-130658095D02*
X94180057Y-130610476D01*
X94180057Y-130610476D02*
X94275295Y-130562857D01*
X94275295Y-130562857D02*
X94418152Y-130562857D01*
X94418152Y-130562857D02*
X94513390Y-130610476D01*
X94513390Y-130610476D02*
X94561009Y-130658095D01*
X94561009Y-130658095D02*
X94608628Y-130753333D01*
X94608628Y-130753333D02*
X94608628Y-131134285D01*
X94084819Y-130229523D02*
X94084819Y-129610476D01*
X94084819Y-129610476D02*
X94465771Y-129943809D01*
X94465771Y-129943809D02*
X94465771Y-129800952D01*
X94465771Y-129800952D02*
X94513390Y-129705714D01*
X94513390Y-129705714D02*
X94561009Y-129658095D01*
X94561009Y-129658095D02*
X94656247Y-129610476D01*
X94656247Y-129610476D02*
X94894342Y-129610476D01*
X94894342Y-129610476D02*
X94989580Y-129658095D01*
X94989580Y-129658095D02*
X95037200Y-129705714D01*
X95037200Y-129705714D02*
X95084819Y-129800952D01*
X95084819Y-129800952D02*
X95084819Y-130086666D01*
X95084819Y-130086666D02*
X95037200Y-130181904D01*
X95037200Y-130181904D02*
X94989580Y-130229523D01*
X94084819Y-128991428D02*
X94084819Y-128896190D01*
X94084819Y-128896190D02*
X94132438Y-128800952D01*
X94132438Y-128800952D02*
X94180057Y-128753333D01*
X94180057Y-128753333D02*
X94275295Y-128705714D01*
X94275295Y-128705714D02*
X94465771Y-128658095D01*
X94465771Y-128658095D02*
X94703866Y-128658095D01*
X94703866Y-128658095D02*
X94894342Y-128705714D01*
X94894342Y-128705714D02*
X94989580Y-128753333D01*
X94989580Y-128753333D02*
X95037200Y-128800952D01*
X95037200Y-128800952D02*
X95084819Y-128896190D01*
X95084819Y-128896190D02*
X95084819Y-128991428D01*
X95084819Y-128991428D02*
X95037200Y-129086666D01*
X95037200Y-129086666D02*
X94989580Y-129134285D01*
X94989580Y-129134285D02*
X94894342Y-129181904D01*
X94894342Y-129181904D02*
X94703866Y-129229523D01*
X94703866Y-129229523D02*
X94465771Y-129229523D01*
X94465771Y-129229523D02*
X94275295Y-129181904D01*
X94275295Y-129181904D02*
X94180057Y-129134285D01*
X94180057Y-129134285D02*
X94132438Y-129086666D01*
X94132438Y-129086666D02*
X94084819Y-128991428D01*
X45284819Y-85086666D02*
X44808628Y-85419999D01*
X45284819Y-85658094D02*
X44284819Y-85658094D01*
X44284819Y-85658094D02*
X44284819Y-85277142D01*
X44284819Y-85277142D02*
X44332438Y-85181904D01*
X44332438Y-85181904D02*
X44380057Y-85134285D01*
X44380057Y-85134285D02*
X44475295Y-85086666D01*
X44475295Y-85086666D02*
X44618152Y-85086666D01*
X44618152Y-85086666D02*
X44713390Y-85134285D01*
X44713390Y-85134285D02*
X44761009Y-85181904D01*
X44761009Y-85181904D02*
X44808628Y-85277142D01*
X44808628Y-85277142D02*
X44808628Y-85658094D01*
X44713390Y-84515237D02*
X44665771Y-84610475D01*
X44665771Y-84610475D02*
X44618152Y-84658094D01*
X44618152Y-84658094D02*
X44522914Y-84705713D01*
X44522914Y-84705713D02*
X44475295Y-84705713D01*
X44475295Y-84705713D02*
X44380057Y-84658094D01*
X44380057Y-84658094D02*
X44332438Y-84610475D01*
X44332438Y-84610475D02*
X44284819Y-84515237D01*
X44284819Y-84515237D02*
X44284819Y-84324761D01*
X44284819Y-84324761D02*
X44332438Y-84229523D01*
X44332438Y-84229523D02*
X44380057Y-84181904D01*
X44380057Y-84181904D02*
X44475295Y-84134285D01*
X44475295Y-84134285D02*
X44522914Y-84134285D01*
X44522914Y-84134285D02*
X44618152Y-84181904D01*
X44618152Y-84181904D02*
X44665771Y-84229523D01*
X44665771Y-84229523D02*
X44713390Y-84324761D01*
X44713390Y-84324761D02*
X44713390Y-84515237D01*
X44713390Y-84515237D02*
X44761009Y-84610475D01*
X44761009Y-84610475D02*
X44808628Y-84658094D01*
X44808628Y-84658094D02*
X44903866Y-84705713D01*
X44903866Y-84705713D02*
X45094342Y-84705713D01*
X45094342Y-84705713D02*
X45189580Y-84658094D01*
X45189580Y-84658094D02*
X45237200Y-84610475D01*
X45237200Y-84610475D02*
X45284819Y-84515237D01*
X45284819Y-84515237D02*
X45284819Y-84324761D01*
X45284819Y-84324761D02*
X45237200Y-84229523D01*
X45237200Y-84229523D02*
X45189580Y-84181904D01*
X45189580Y-84181904D02*
X45094342Y-84134285D01*
X45094342Y-84134285D02*
X44903866Y-84134285D01*
X44903866Y-84134285D02*
X44808628Y-84181904D01*
X44808628Y-84181904D02*
X44761009Y-84229523D01*
X44761009Y-84229523D02*
X44713390Y-84324761D01*
X97048095Y-19124819D02*
X97048095Y-19934342D01*
X97048095Y-19934342D02*
X97095714Y-20029580D01*
X97095714Y-20029580D02*
X97143333Y-20077200D01*
X97143333Y-20077200D02*
X97238571Y-20124819D01*
X97238571Y-20124819D02*
X97429047Y-20124819D01*
X97429047Y-20124819D02*
X97524285Y-20077200D01*
X97524285Y-20077200D02*
X97571904Y-20029580D01*
X97571904Y-20029580D02*
X97619523Y-19934342D01*
X97619523Y-19934342D02*
X97619523Y-19124819D01*
X98000476Y-19124819D02*
X98619523Y-19124819D01*
X98619523Y-19124819D02*
X98286190Y-19505771D01*
X98286190Y-19505771D02*
X98429047Y-19505771D01*
X98429047Y-19505771D02*
X98524285Y-19553390D01*
X98524285Y-19553390D02*
X98571904Y-19601009D01*
X98571904Y-19601009D02*
X98619523Y-19696247D01*
X98619523Y-19696247D02*
X98619523Y-19934342D01*
X98619523Y-19934342D02*
X98571904Y-20029580D01*
X98571904Y-20029580D02*
X98524285Y-20077200D01*
X98524285Y-20077200D02*
X98429047Y-20124819D01*
X98429047Y-20124819D02*
X98143333Y-20124819D01*
X98143333Y-20124819D02*
X98048095Y-20077200D01*
X98048095Y-20077200D02*
X98000476Y-20029580D01*
X125084819Y-110562857D02*
X124608628Y-110896190D01*
X125084819Y-111134285D02*
X124084819Y-111134285D01*
X124084819Y-111134285D02*
X124084819Y-110753333D01*
X124084819Y-110753333D02*
X124132438Y-110658095D01*
X124132438Y-110658095D02*
X124180057Y-110610476D01*
X124180057Y-110610476D02*
X124275295Y-110562857D01*
X124275295Y-110562857D02*
X124418152Y-110562857D01*
X124418152Y-110562857D02*
X124513390Y-110610476D01*
X124513390Y-110610476D02*
X124561009Y-110658095D01*
X124561009Y-110658095D02*
X124608628Y-110753333D01*
X124608628Y-110753333D02*
X124608628Y-111134285D01*
X124180057Y-110181904D02*
X124132438Y-110134285D01*
X124132438Y-110134285D02*
X124084819Y-110039047D01*
X124084819Y-110039047D02*
X124084819Y-109800952D01*
X124084819Y-109800952D02*
X124132438Y-109705714D01*
X124132438Y-109705714D02*
X124180057Y-109658095D01*
X124180057Y-109658095D02*
X124275295Y-109610476D01*
X124275295Y-109610476D02*
X124370533Y-109610476D01*
X124370533Y-109610476D02*
X124513390Y-109658095D01*
X124513390Y-109658095D02*
X125084819Y-110229523D01*
X125084819Y-110229523D02*
X125084819Y-109610476D01*
X124084819Y-109277142D02*
X124084819Y-108610476D01*
X124084819Y-108610476D02*
X125084819Y-109039047D01*
X73438095Y-11954819D02*
X74009523Y-11954819D01*
X73723809Y-12954819D02*
X73723809Y-11954819D01*
X74342857Y-12954819D02*
X74342857Y-11954819D01*
X74342857Y-11954819D02*
X74723809Y-11954819D01*
X74723809Y-11954819D02*
X74819047Y-12002438D01*
X74819047Y-12002438D02*
X74866666Y-12050057D01*
X74866666Y-12050057D02*
X74914285Y-12145295D01*
X74914285Y-12145295D02*
X74914285Y-12288152D01*
X74914285Y-12288152D02*
X74866666Y-12383390D01*
X74866666Y-12383390D02*
X74819047Y-12431009D01*
X74819047Y-12431009D02*
X74723809Y-12478628D01*
X74723809Y-12478628D02*
X74342857Y-12478628D01*
X75771428Y-12288152D02*
X75771428Y-12954819D01*
X75533333Y-11907200D02*
X75295238Y-12621485D01*
X75295238Y-12621485D02*
X75914285Y-12621485D01*
X18166666Y-6334819D02*
X18166666Y-7049104D01*
X18166666Y-7049104D02*
X18119047Y-7191961D01*
X18119047Y-7191961D02*
X18023809Y-7287200D01*
X18023809Y-7287200D02*
X17880952Y-7334819D01*
X17880952Y-7334819D02*
X17785714Y-7334819D01*
X19166666Y-7334819D02*
X18595238Y-7334819D01*
X18880952Y-7334819D02*
X18880952Y-6334819D01*
X18880952Y-6334819D02*
X18785714Y-6477676D01*
X18785714Y-6477676D02*
X18690476Y-6572914D01*
X18690476Y-6572914D02*
X18595238Y-6620533D01*
X50884819Y-85086666D02*
X50408628Y-85419999D01*
X50884819Y-85658094D02*
X49884819Y-85658094D01*
X49884819Y-85658094D02*
X49884819Y-85277142D01*
X49884819Y-85277142D02*
X49932438Y-85181904D01*
X49932438Y-85181904D02*
X49980057Y-85134285D01*
X49980057Y-85134285D02*
X50075295Y-85086666D01*
X50075295Y-85086666D02*
X50218152Y-85086666D01*
X50218152Y-85086666D02*
X50313390Y-85134285D01*
X50313390Y-85134285D02*
X50361009Y-85181904D01*
X50361009Y-85181904D02*
X50408628Y-85277142D01*
X50408628Y-85277142D02*
X50408628Y-85658094D01*
X50884819Y-84610475D02*
X50884819Y-84419999D01*
X50884819Y-84419999D02*
X50837200Y-84324761D01*
X50837200Y-84324761D02*
X50789580Y-84277142D01*
X50789580Y-84277142D02*
X50646723Y-84181904D01*
X50646723Y-84181904D02*
X50456247Y-84134285D01*
X50456247Y-84134285D02*
X50075295Y-84134285D01*
X50075295Y-84134285D02*
X49980057Y-84181904D01*
X49980057Y-84181904D02*
X49932438Y-84229523D01*
X49932438Y-84229523D02*
X49884819Y-84324761D01*
X49884819Y-84324761D02*
X49884819Y-84515237D01*
X49884819Y-84515237D02*
X49932438Y-84610475D01*
X49932438Y-84610475D02*
X49980057Y-84658094D01*
X49980057Y-84658094D02*
X50075295Y-84705713D01*
X50075295Y-84705713D02*
X50313390Y-84705713D01*
X50313390Y-84705713D02*
X50408628Y-84658094D01*
X50408628Y-84658094D02*
X50456247Y-84610475D01*
X50456247Y-84610475D02*
X50503866Y-84515237D01*
X50503866Y-84515237D02*
X50503866Y-84324761D01*
X50503866Y-84324761D02*
X50456247Y-84229523D01*
X50456247Y-84229523D02*
X50408628Y-84181904D01*
X50408628Y-84181904D02*
X50313390Y-84134285D01*
X93084819Y-110562857D02*
X92608628Y-110896190D01*
X93084819Y-111134285D02*
X92084819Y-111134285D01*
X92084819Y-111134285D02*
X92084819Y-110753333D01*
X92084819Y-110753333D02*
X92132438Y-110658095D01*
X92132438Y-110658095D02*
X92180057Y-110610476D01*
X92180057Y-110610476D02*
X92275295Y-110562857D01*
X92275295Y-110562857D02*
X92418152Y-110562857D01*
X92418152Y-110562857D02*
X92513390Y-110610476D01*
X92513390Y-110610476D02*
X92561009Y-110658095D01*
X92561009Y-110658095D02*
X92608628Y-110753333D01*
X92608628Y-110753333D02*
X92608628Y-111134285D01*
X92180057Y-110181904D02*
X92132438Y-110134285D01*
X92132438Y-110134285D02*
X92084819Y-110039047D01*
X92084819Y-110039047D02*
X92084819Y-109800952D01*
X92084819Y-109800952D02*
X92132438Y-109705714D01*
X92132438Y-109705714D02*
X92180057Y-109658095D01*
X92180057Y-109658095D02*
X92275295Y-109610476D01*
X92275295Y-109610476D02*
X92370533Y-109610476D01*
X92370533Y-109610476D02*
X92513390Y-109658095D01*
X92513390Y-109658095D02*
X93084819Y-110229523D01*
X93084819Y-110229523D02*
X93084819Y-109610476D01*
X92084819Y-109277142D02*
X92084819Y-108658095D01*
X92084819Y-108658095D02*
X92465771Y-108991428D01*
X92465771Y-108991428D02*
X92465771Y-108848571D01*
X92465771Y-108848571D02*
X92513390Y-108753333D01*
X92513390Y-108753333D02*
X92561009Y-108705714D01*
X92561009Y-108705714D02*
X92656247Y-108658095D01*
X92656247Y-108658095D02*
X92894342Y-108658095D01*
X92894342Y-108658095D02*
X92989580Y-108705714D01*
X92989580Y-108705714D02*
X93037200Y-108753333D01*
X93037200Y-108753333D02*
X93084819Y-108848571D01*
X93084819Y-108848571D02*
X93084819Y-109134285D01*
X93084819Y-109134285D02*
X93037200Y-109229523D01*
X93037200Y-109229523D02*
X92989580Y-109277142D01*
%TO.C,R16*%
D10*
X92000000Y-80880000D02*
X92000000Y-81650000D01*
X92000000Y-88960000D02*
X92000000Y-88190000D01*
X90630000Y-81650000D02*
X93370000Y-81650000D01*
X93370000Y-88190000D01*
X90630000Y-88190000D01*
X90630000Y-81650000D01*
%TO.C,RN3*%
X146690000Y-110730000D02*
X149310000Y-110730000D01*
X146690000Y-90330000D02*
X149310000Y-90330000D01*
X149310000Y-113350000D01*
X146690000Y-113350000D01*
X146690000Y-90330000D01*
%TO.C,R4*%
X24800000Y-80880000D02*
X24800000Y-81650000D01*
X24800000Y-88960000D02*
X24800000Y-88190000D01*
X23430000Y-81650000D02*
X26170000Y-81650000D01*
X26170000Y-88190000D01*
X23430000Y-88190000D01*
X23430000Y-81650000D01*
%TO.C,U9*%
X106160000Y-53670000D02*
X106160000Y-79190000D01*
X106160000Y-79190000D02*
X111460000Y-79190000D01*
X107810000Y-53670000D02*
X106160000Y-53670000D01*
X111460000Y-53670000D02*
X109810000Y-53670000D01*
X111460000Y-79190000D02*
X111460000Y-53670000D01*
X109810000Y-53670000D02*
G75*
G02*
X107810000Y-53670000I-1000000J0D01*
G01*
%TO.C,TP5*%
X82700000Y-10000000D02*
G75*
G02*
X79300000Y-10000000I-1700000J0D01*
G01*
X79300000Y-10000000D02*
G75*
G02*
X82700000Y-10000000I1700000J0D01*
G01*
%TO.C,R1*%
X8000000Y-80880000D02*
X8000000Y-81650000D01*
X8000000Y-88960000D02*
X8000000Y-88190000D01*
X6630000Y-81650000D02*
X9370000Y-81650000D01*
X9370000Y-88190000D01*
X6630000Y-88190000D01*
X6630000Y-81650000D01*
%TO.C,R13*%
X75200000Y-80880000D02*
X75200000Y-81650000D01*
X75200000Y-88960000D02*
X75200000Y-88190000D01*
X73830000Y-81650000D02*
X76570000Y-81650000D01*
X76570000Y-88190000D01*
X73830000Y-88190000D01*
X73830000Y-81650000D01*
%TO.C,R31*%
X104000000Y-125880000D02*
X104000000Y-126650000D01*
X104000000Y-133960000D02*
X104000000Y-133190000D01*
X102630000Y-126650000D02*
X105370000Y-126650000D01*
X105370000Y-133190000D01*
X102630000Y-133190000D01*
X102630000Y-126650000D01*
%TO.C,U1*%
X41160000Y-15670000D02*
X41160000Y-66590000D01*
X41160000Y-66590000D02*
X54080000Y-66590000D01*
X46620000Y-15670000D02*
X41160000Y-15670000D01*
X54080000Y-15670000D02*
X48620000Y-15670000D01*
X54080000Y-66590000D02*
X54080000Y-15670000D01*
X48620000Y-15670000D02*
G75*
G02*
X46620000Y-15670000I-1000000J0D01*
G01*
%TO.C,R26*%
X119000000Y-105880000D02*
X119000000Y-106650000D01*
X119000000Y-113960000D02*
X119000000Y-113190000D01*
X117630000Y-106650000D02*
X120370000Y-106650000D01*
X120370000Y-113190000D01*
X117630000Y-113190000D01*
X117630000Y-106650000D01*
%TO.C,R21*%
X127000000Y-88880000D02*
X127000000Y-89650000D01*
X127000000Y-96960000D02*
X127000000Y-96190000D01*
X125630000Y-89650000D02*
X128370000Y-89650000D01*
X128370000Y-96190000D01*
X125630000Y-96190000D01*
X125630000Y-89650000D01*
%TO.C,R18*%
X103000000Y-88880000D02*
X103000000Y-89650000D01*
X103000000Y-96960000D02*
X103000000Y-96190000D01*
X101630000Y-89650000D02*
X104370000Y-89650000D01*
X104370000Y-96190000D01*
X101630000Y-96190000D01*
X101630000Y-89650000D01*
%TO.C,TP6*%
X89700000Y-10000000D02*
G75*
G02*
X86300000Y-10000000I-1700000J0D01*
G01*
X86300000Y-10000000D02*
G75*
G02*
X89700000Y-10000000I1700000J0D01*
G01*
%TO.C,TP1*%
X44700000Y-10000000D02*
G75*
G02*
X41300000Y-10000000I-1700000J0D01*
G01*
X41300000Y-10000000D02*
G75*
G02*
X44700000Y-10000000I1700000J0D01*
G01*
%TO.C,R11*%
X64000000Y-80880000D02*
X64000000Y-81650000D01*
X64000000Y-88960000D02*
X64000000Y-88190000D01*
X62630000Y-81650000D02*
X65370000Y-81650000D01*
X65370000Y-88190000D01*
X62630000Y-88190000D01*
X62630000Y-81650000D01*
%TO.C,U10*%
X125160000Y-53670000D02*
X125160000Y-79190000D01*
X125160000Y-79190000D02*
X130460000Y-79190000D01*
X126810000Y-53670000D02*
X125160000Y-53670000D01*
X130460000Y-53670000D02*
X128810000Y-53670000D01*
X130460000Y-79190000D02*
X130460000Y-53670000D01*
X128810000Y-53670000D02*
G75*
G02*
X126810000Y-53670000I-1000000J0D01*
G01*
%TO.C,R29*%
X90000000Y-125880000D02*
X90000000Y-126650000D01*
X90000000Y-133960000D02*
X90000000Y-133190000D01*
X88630000Y-126650000D02*
X91370000Y-126650000D01*
X91370000Y-133190000D01*
X88630000Y-133190000D01*
X88630000Y-126650000D01*
%TO.C,TP3*%
X51700000Y-10000000D02*
G75*
G02*
X48300000Y-10000000I-1700000J0D01*
G01*
X48300000Y-10000000D02*
G75*
G02*
X51700000Y-10000000I1700000J0D01*
G01*
%TO.C,R6*%
X36000000Y-80880000D02*
X36000000Y-81650000D01*
X36000000Y-88960000D02*
X36000000Y-88190000D01*
X34630000Y-81650000D02*
X37370000Y-81650000D01*
X37370000Y-88190000D01*
X34630000Y-88190000D01*
X34630000Y-81650000D01*
%TO.C,R10*%
X58400000Y-80880000D02*
X58400000Y-81650000D01*
X58400000Y-88960000D02*
X58400000Y-88190000D01*
X57030000Y-81650000D02*
X59770000Y-81650000D01*
X59770000Y-88190000D01*
X57030000Y-88190000D01*
X57030000Y-81650000D01*
%TO.C,R7*%
X41600000Y-80880000D02*
X41600000Y-81650000D01*
X41600000Y-88960000D02*
X41600000Y-88190000D01*
X40230000Y-81650000D02*
X42970000Y-81650000D01*
X42970000Y-88190000D01*
X40230000Y-88190000D01*
X40230000Y-81650000D01*
%TO.C,R15*%
X86400000Y-80880000D02*
X86400000Y-81650000D01*
X86400000Y-88960000D02*
X86400000Y-88190000D01*
X85030000Y-81650000D02*
X87770000Y-81650000D01*
X87770000Y-88190000D01*
X85030000Y-88190000D01*
X85030000Y-81650000D01*
%TO.C,TP7*%
X96700000Y-10000000D02*
G75*
G02*
X93300000Y-10000000I-1700000J0D01*
G01*
X93300000Y-10000000D02*
G75*
G02*
X96700000Y-10000000I1700000J0D01*
G01*
%TO.C,U7*%
X144160000Y-53670000D02*
X144160000Y-79190000D01*
X144160000Y-79190000D02*
X149460000Y-79190000D01*
X145810000Y-53670000D02*
X144160000Y-53670000D01*
X149460000Y-53670000D02*
X147810000Y-53670000D01*
X149460000Y-79190000D02*
X149460000Y-53670000D01*
X147810000Y-53670000D02*
G75*
G02*
X145810000Y-53670000I-1000000J0D01*
G01*
%TO.C,R24*%
X103000000Y-105880000D02*
X103000000Y-106650000D01*
X103000000Y-113960000D02*
X103000000Y-113190000D01*
X101630000Y-106650000D02*
X104370000Y-106650000D01*
X104370000Y-113190000D01*
X101630000Y-113190000D01*
X101630000Y-106650000D01*
%TO.C,U2*%
X11160000Y-20670000D02*
X11160000Y-61430000D01*
X11160000Y-61430000D02*
X24080000Y-61430000D01*
X16620000Y-20670000D02*
X11160000Y-20670000D01*
X24080000Y-20670000D02*
X18620000Y-20670000D01*
X24080000Y-61430000D02*
X24080000Y-20670000D01*
X18620000Y-20670000D02*
G75*
G02*
X16620000Y-20670000I-1000000J0D01*
G01*
%TO.C,U8*%
X79160000Y-20670000D02*
X79160000Y-56350000D01*
X79160000Y-56350000D02*
X84460000Y-56350000D01*
X80810000Y-20670000D02*
X79160000Y-20670000D01*
X84460000Y-20670000D02*
X82810000Y-20670000D01*
X84460000Y-56350000D02*
X84460000Y-20670000D01*
X82810000Y-20670000D02*
G75*
G02*
X80810000Y-20670000I-1000000J0D01*
G01*
%TO.C,TP2*%
X61700000Y-10000000D02*
G75*
G02*
X58300000Y-10000000I-1700000J0D01*
G01*
X58300000Y-10000000D02*
G75*
G02*
X61700000Y-10000000I1700000J0D01*
G01*
%TO.C,D1*%
X140340000Y-84000000D02*
X141360000Y-84000000D01*
X142140000Y-82530000D02*
X142140000Y-85470000D01*
X142260000Y-82530000D02*
X142260000Y-85470000D01*
X142380000Y-82530000D02*
X142380000Y-85470000D01*
X147820000Y-84000000D02*
X146800000Y-84000000D01*
X141360000Y-82530000D02*
X146800000Y-82530000D01*
X146800000Y-85470000D01*
X141360000Y-85470000D01*
X141360000Y-82530000D01*
%TO.C,R17*%
X95000000Y-88880000D02*
X95000000Y-89650000D01*
X95000000Y-96960000D02*
X95000000Y-96190000D01*
X93630000Y-89650000D02*
X96370000Y-89650000D01*
X96370000Y-96190000D01*
X93630000Y-96190000D01*
X93630000Y-89650000D01*
%TO.C,R22*%
X135000000Y-88880000D02*
X135000000Y-89650000D01*
X135000000Y-96960000D02*
X135000000Y-96190000D01*
X133630000Y-89650000D02*
X136370000Y-89650000D01*
X136370000Y-96190000D01*
X133630000Y-96190000D01*
X133630000Y-89650000D01*
%TO.C,R20*%
X119000000Y-88880000D02*
X119000000Y-89650000D01*
X119000000Y-96960000D02*
X119000000Y-96190000D01*
X117630000Y-89650000D02*
X120370000Y-89650000D01*
X120370000Y-96190000D01*
X117630000Y-96190000D01*
X117630000Y-89650000D01*
%TO.C,R25*%
X111000000Y-105880000D02*
X111000000Y-106650000D01*
X111000000Y-113960000D02*
X111000000Y-113190000D01*
X109630000Y-106650000D02*
X112370000Y-106650000D01*
X112370000Y-113190000D01*
X109630000Y-113190000D01*
X109630000Y-106650000D01*
%TO.C,RN2*%
X35270000Y-70690000D02*
X35270000Y-73310000D01*
X32650000Y-70690000D02*
X55670000Y-70690000D01*
X55670000Y-73310000D01*
X32650000Y-73310000D01*
X32650000Y-70690000D01*
%TO.C,R3*%
X19200000Y-80880000D02*
X19200000Y-81650000D01*
X19200000Y-88960000D02*
X19200000Y-88190000D01*
X17830000Y-81650000D02*
X20570000Y-81650000D01*
X20570000Y-88190000D01*
X17830000Y-88190000D01*
X17830000Y-81650000D01*
%TO.C,R12*%
X69600000Y-80880000D02*
X69600000Y-81650000D01*
X69600000Y-88960000D02*
X69600000Y-88190000D01*
X68230000Y-81650000D02*
X70970000Y-81650000D01*
X70970000Y-88190000D01*
X68230000Y-88190000D01*
X68230000Y-81650000D01*
%TO.C,Q1*%
X79470000Y-62850000D02*
X83070000Y-62850000D01*
X79431522Y-62838478D02*
G75*
G02*
X81270000Y-58399999I1838478J1838478D01*
G01*
X81270000Y-58400000D02*
G75*
G02*
X83108478Y-62838478I0J-2600000D01*
G01*
%TO.C,R2*%
X13600000Y-80880000D02*
X13600000Y-81650000D01*
X13600000Y-88960000D02*
X13600000Y-88190000D01*
X12230000Y-81650000D02*
X14970000Y-81650000D01*
X14970000Y-88190000D01*
X12230000Y-88190000D01*
X12230000Y-81650000D01*
%TO.C,RN1*%
X9270000Y-65690000D02*
X9270000Y-68310000D01*
X6650000Y-65690000D02*
X29670000Y-65690000D01*
X29670000Y-68310000D01*
X6650000Y-68310000D01*
X6650000Y-65690000D01*
%TO.C,U4*%
X61160000Y-18670000D02*
X61160000Y-44190000D01*
X61160000Y-44190000D02*
X66460000Y-44190000D01*
X62810000Y-18670000D02*
X61160000Y-18670000D01*
X66460000Y-18670000D02*
X64810000Y-18670000D01*
X66460000Y-44190000D02*
X66460000Y-18670000D01*
X64810000Y-18670000D02*
G75*
G02*
X62810000Y-18670000I-1000000J0D01*
G01*
%TO.C,R28*%
X135000000Y-105880000D02*
X135000000Y-106650000D01*
X135000000Y-113960000D02*
X135000000Y-113190000D01*
X133630000Y-106650000D02*
X136370000Y-106650000D01*
X136370000Y-113190000D01*
X133630000Y-113190000D01*
X133630000Y-106650000D01*
%TO.C,R19*%
X111000000Y-88880000D02*
X111000000Y-89650000D01*
X111000000Y-96960000D02*
X111000000Y-96190000D01*
X109630000Y-89650000D02*
X112370000Y-89650000D01*
X112370000Y-96190000D01*
X109630000Y-96190000D01*
X109630000Y-89650000D01*
%TO.C,R14*%
X80800000Y-80880000D02*
X80800000Y-81650000D01*
X80800000Y-88960000D02*
X80800000Y-88190000D01*
X79430000Y-81650000D02*
X82170000Y-81650000D01*
X82170000Y-88190000D01*
X79430000Y-88190000D01*
X79430000Y-81650000D01*
%TO.C,R5*%
X30400000Y-80880000D02*
X30400000Y-81650000D01*
X30400000Y-88960000D02*
X30400000Y-88190000D01*
X29030000Y-81650000D02*
X31770000Y-81650000D01*
X31770000Y-88190000D01*
X29030000Y-88190000D01*
X29030000Y-81650000D01*
%TO.C,R30*%
X97000000Y-125880000D02*
X97000000Y-126650000D01*
X97000000Y-133960000D02*
X97000000Y-133190000D01*
X95630000Y-126650000D02*
X98370000Y-126650000D01*
X98370000Y-133190000D01*
X95630000Y-133190000D01*
X95630000Y-126650000D01*
%TO.C,R8*%
X47200000Y-80880000D02*
X47200000Y-81650000D01*
X47200000Y-88960000D02*
X47200000Y-88190000D01*
X45830000Y-81650000D02*
X48570000Y-81650000D01*
X48570000Y-88190000D01*
X45830000Y-88190000D01*
X45830000Y-81650000D01*
%TO.C,U3*%
X95160000Y-20670000D02*
X95160000Y-51270000D01*
X95160000Y-51270000D02*
X100460000Y-51270000D01*
X96810000Y-20670000D02*
X95160000Y-20670000D01*
X100460000Y-20670000D02*
X98810000Y-20670000D01*
X100460000Y-51270000D02*
X100460000Y-20670000D01*
X98810000Y-20670000D02*
G75*
G02*
X96810000Y-20670000I-1000000J0D01*
G01*
%TO.C,R27*%
X127000000Y-105880000D02*
X127000000Y-106650000D01*
X127000000Y-113960000D02*
X127000000Y-113190000D01*
X125630000Y-106650000D02*
X128370000Y-106650000D01*
X128370000Y-113190000D01*
X125630000Y-113190000D01*
X125630000Y-106650000D01*
%TO.C,TP4*%
X75700000Y-10000000D02*
G75*
G02*
X72300000Y-10000000I-1700000J0D01*
G01*
X72300000Y-10000000D02*
G75*
G02*
X75700000Y-10000000I1700000J0D01*
G01*
%TO.C,J1*%
X13380000Y-7880000D02*
X23620000Y-7880000D01*
X13380000Y-15000000D02*
X23620000Y-15000000D01*
X13380000Y-17120000D02*
X13380000Y-7880000D01*
X15700000Y-17120000D02*
X13380000Y-17120000D01*
X23620000Y-7880000D02*
X23620000Y-17120000D01*
X23620000Y-17120000D02*
X16300000Y-17120000D01*
X17000000Y-9800000D02*
G75*
G02*
X15000000Y-9800000I-1000000J0D01*
G01*
X15000000Y-9800000D02*
G75*
G02*
X17000000Y-9800000I1000000J0D01*
G01*
X22000000Y-9800000D02*
G75*
G02*
X20000000Y-9800000I-1000000J0D01*
G01*
X20000000Y-9800000D02*
G75*
G02*
X22000000Y-9800000I1000000J0D01*
G01*
X16000000Y-17120000D02*
X16440000Y-17730000D01*
X15560000Y-17730000D01*
X16000000Y-17120000D01*
G36*
X16440000Y-17730000D02*
G01*
X15560000Y-17730000D01*
X16000000Y-17120000D01*
X16440000Y-17730000D01*
G37*
%TO.C,R9*%
X52800000Y-80880000D02*
X52800000Y-81650000D01*
X52800000Y-88960000D02*
X52800000Y-88190000D01*
X51430000Y-81650000D02*
X54170000Y-81650000D01*
X54170000Y-88190000D01*
X51430000Y-88190000D01*
X51430000Y-81650000D01*
%TO.C,R23*%
X95000000Y-105880000D02*
X95000000Y-106650000D01*
X95000000Y-113960000D02*
X95000000Y-113190000D01*
X93630000Y-106650000D02*
X96370000Y-106650000D01*
X96370000Y-113190000D01*
X93630000Y-113190000D01*
X93630000Y-106650000D01*
%TD*%
M02*
