%TF.GenerationSoftware,KiCad,Pcbnew,10.0.6-10.0.6~ubuntu24.04.1*%
%TF.CreationDate,2026-09-12T06:35:36+00:00*%
%TF.ProjectId,z80_romless_sbc,7a38305f-726f-46d6-9c65-73735f736263,rev?*%
%TF.SameCoordinates,Original*%
%TF.FileFunction,Legend,Top*%
%TF.FilePolarity,Positive*%
%FSLAX46Y46*%
G04 Gerber Fmt 4.6, Leading zero omitted, Abs format (unit mm)*
G04 Created by KiCad (PCBNEW 10.0.6-10.0.6~ubuntu24.04.1) date 2026-09-12 06:35:36*
%MOMM*%
%LPD*%
G01*
G04 APERTURE LIST*
%ADD10C,0.120000*%
%ADD11C,0.240000*%
%ADD12C,0.150000*%
G04 APERTURE END LIST*
D10*
X5990476Y-107563855D02*
X5990476Y-108211474D01*
X5990476Y-108211474D02*
X6028571Y-108287664D01*
X6028571Y-108287664D02*
X6066666Y-108325760D01*
X6066666Y-108325760D02*
X6142857Y-108363855D01*
X6142857Y-108363855D02*
X6295238Y-108363855D01*
X6295238Y-108363855D02*
X6371428Y-108325760D01*
X6371428Y-108325760D02*
X6409523Y-108287664D01*
X6409523Y-108287664D02*
X6447619Y-108211474D01*
X6447619Y-108211474D02*
X6447619Y-107563855D01*
X6790475Y-108325760D02*
X6904761Y-108363855D01*
X6904761Y-108363855D02*
X7095237Y-108363855D01*
X7095237Y-108363855D02*
X7171428Y-108325760D01*
X7171428Y-108325760D02*
X7209523Y-108287664D01*
X7209523Y-108287664D02*
X7247618Y-108211474D01*
X7247618Y-108211474D02*
X7247618Y-108135283D01*
X7247618Y-108135283D02*
X7209523Y-108059093D01*
X7209523Y-108059093D02*
X7171428Y-108020998D01*
X7171428Y-108020998D02*
X7095237Y-107982902D01*
X7095237Y-107982902D02*
X6942856Y-107944807D01*
X6942856Y-107944807D02*
X6866666Y-107906712D01*
X6866666Y-107906712D02*
X6828571Y-107868617D01*
X6828571Y-107868617D02*
X6790475Y-107792426D01*
X6790475Y-107792426D02*
X6790475Y-107716236D01*
X6790475Y-107716236D02*
X6828571Y-107640045D01*
X6828571Y-107640045D02*
X6866666Y-107601950D01*
X6866666Y-107601950D02*
X6942856Y-107563855D01*
X6942856Y-107563855D02*
X7133333Y-107563855D01*
X7133333Y-107563855D02*
X7247618Y-107601950D01*
X7857142Y-107944807D02*
X7971428Y-107982902D01*
X7971428Y-107982902D02*
X8009523Y-108020998D01*
X8009523Y-108020998D02*
X8047619Y-108097188D01*
X8047619Y-108097188D02*
X8047619Y-108211474D01*
X8047619Y-108211474D02*
X8009523Y-108287664D01*
X8009523Y-108287664D02*
X7971428Y-108325760D01*
X7971428Y-108325760D02*
X7895238Y-108363855D01*
X7895238Y-108363855D02*
X7590476Y-108363855D01*
X7590476Y-108363855D02*
X7590476Y-107563855D01*
X7590476Y-107563855D02*
X7857142Y-107563855D01*
X7857142Y-107563855D02*
X7933333Y-107601950D01*
X7933333Y-107601950D02*
X7971428Y-107640045D01*
X7971428Y-107640045D02*
X8009523Y-107716236D01*
X8009523Y-107716236D02*
X8009523Y-107792426D01*
X8009523Y-107792426D02*
X7971428Y-107868617D01*
X7971428Y-107868617D02*
X7933333Y-107906712D01*
X7933333Y-107906712D02*
X7857142Y-107944807D01*
X7857142Y-107944807D02*
X7590476Y-107944807D01*
X19409524Y-99363855D02*
X19409524Y-98563855D01*
X19409524Y-98563855D02*
X19600000Y-98563855D01*
X19600000Y-98563855D02*
X19714286Y-98601950D01*
X19714286Y-98601950D02*
X19790476Y-98678140D01*
X19790476Y-98678140D02*
X19828571Y-98754331D01*
X19828571Y-98754331D02*
X19866667Y-98906712D01*
X19866667Y-98906712D02*
X19866667Y-99020998D01*
X19866667Y-99020998D02*
X19828571Y-99173379D01*
X19828571Y-99173379D02*
X19790476Y-99249569D01*
X19790476Y-99249569D02*
X19714286Y-99325760D01*
X19714286Y-99325760D02*
X19600000Y-99363855D01*
X19600000Y-99363855D02*
X19409524Y-99363855D01*
X20628571Y-99363855D02*
X20171428Y-99363855D01*
X20400000Y-99363855D02*
X20400000Y-98563855D01*
X20400000Y-98563855D02*
X20323809Y-98678140D01*
X20323809Y-98678140D02*
X20247619Y-98754331D01*
X20247619Y-98754331D02*
X20171428Y-98792426D01*
X26485714Y-19287664D02*
X26447618Y-19325760D01*
X26447618Y-19325760D02*
X26333333Y-19363855D01*
X26333333Y-19363855D02*
X26257142Y-19363855D01*
X26257142Y-19363855D02*
X26142856Y-19325760D01*
X26142856Y-19325760D02*
X26066666Y-19249569D01*
X26066666Y-19249569D02*
X26028571Y-19173379D01*
X26028571Y-19173379D02*
X25990475Y-19020998D01*
X25990475Y-19020998D02*
X25990475Y-18906712D01*
X25990475Y-18906712D02*
X26028571Y-18754331D01*
X26028571Y-18754331D02*
X26066666Y-18678140D01*
X26066666Y-18678140D02*
X26142856Y-18601950D01*
X26142856Y-18601950D02*
X26257142Y-18563855D01*
X26257142Y-18563855D02*
X26333333Y-18563855D01*
X26333333Y-18563855D02*
X26447618Y-18601950D01*
X26447618Y-18601950D02*
X26485714Y-18640045D01*
X27247618Y-19363855D02*
X26790475Y-19363855D01*
X27019047Y-19363855D02*
X27019047Y-18563855D01*
X27019047Y-18563855D02*
X26942856Y-18678140D01*
X26942856Y-18678140D02*
X26866666Y-18754331D01*
X26866666Y-18754331D02*
X26790475Y-18792426D01*
X27552380Y-18640045D02*
X27590476Y-18601950D01*
X27590476Y-18601950D02*
X27666666Y-18563855D01*
X27666666Y-18563855D02*
X27857142Y-18563855D01*
X27857142Y-18563855D02*
X27933333Y-18601950D01*
X27933333Y-18601950D02*
X27971428Y-18640045D01*
X27971428Y-18640045D02*
X28009523Y-18716236D01*
X28009523Y-18716236D02*
X28009523Y-18792426D01*
X28009523Y-18792426D02*
X27971428Y-18906712D01*
X27971428Y-18906712D02*
X27514285Y-19363855D01*
X27514285Y-19363855D02*
X28009523Y-19363855D01*
X30866667Y-26287664D02*
X30828571Y-26325760D01*
X30828571Y-26325760D02*
X30714286Y-26363855D01*
X30714286Y-26363855D02*
X30638095Y-26363855D01*
X30638095Y-26363855D02*
X30523809Y-26325760D01*
X30523809Y-26325760D02*
X30447619Y-26249569D01*
X30447619Y-26249569D02*
X30409524Y-26173379D01*
X30409524Y-26173379D02*
X30371428Y-26020998D01*
X30371428Y-26020998D02*
X30371428Y-25906712D01*
X30371428Y-25906712D02*
X30409524Y-25754331D01*
X30409524Y-25754331D02*
X30447619Y-25678140D01*
X30447619Y-25678140D02*
X30523809Y-25601950D01*
X30523809Y-25601950D02*
X30638095Y-25563855D01*
X30638095Y-25563855D02*
X30714286Y-25563855D01*
X30714286Y-25563855D02*
X30828571Y-25601950D01*
X30828571Y-25601950D02*
X30866667Y-25640045D01*
X31171428Y-25640045D02*
X31209524Y-25601950D01*
X31209524Y-25601950D02*
X31285714Y-25563855D01*
X31285714Y-25563855D02*
X31476190Y-25563855D01*
X31476190Y-25563855D02*
X31552381Y-25601950D01*
X31552381Y-25601950D02*
X31590476Y-25640045D01*
X31590476Y-25640045D02*
X31628571Y-25716236D01*
X31628571Y-25716236D02*
X31628571Y-25792426D01*
X31628571Y-25792426D02*
X31590476Y-25906712D01*
X31590476Y-25906712D02*
X31133333Y-26363855D01*
X31133333Y-26363855D02*
X31628571Y-26363855D01*
X30866667Y-42787664D02*
X30828571Y-42825760D01*
X30828571Y-42825760D02*
X30714286Y-42863855D01*
X30714286Y-42863855D02*
X30638095Y-42863855D01*
X30638095Y-42863855D02*
X30523809Y-42825760D01*
X30523809Y-42825760D02*
X30447619Y-42749569D01*
X30447619Y-42749569D02*
X30409524Y-42673379D01*
X30409524Y-42673379D02*
X30371428Y-42520998D01*
X30371428Y-42520998D02*
X30371428Y-42406712D01*
X30371428Y-42406712D02*
X30409524Y-42254331D01*
X30409524Y-42254331D02*
X30447619Y-42178140D01*
X30447619Y-42178140D02*
X30523809Y-42101950D01*
X30523809Y-42101950D02*
X30638095Y-42063855D01*
X30638095Y-42063855D02*
X30714286Y-42063855D01*
X30714286Y-42063855D02*
X30828571Y-42101950D01*
X30828571Y-42101950D02*
X30866667Y-42140045D01*
X31628571Y-42863855D02*
X31171428Y-42863855D01*
X31400000Y-42863855D02*
X31400000Y-42063855D01*
X31400000Y-42063855D02*
X31323809Y-42178140D01*
X31323809Y-42178140D02*
X31247619Y-42254331D01*
X31247619Y-42254331D02*
X31171428Y-42292426D01*
X36866667Y-61287664D02*
X36828571Y-61325760D01*
X36828571Y-61325760D02*
X36714286Y-61363855D01*
X36714286Y-61363855D02*
X36638095Y-61363855D01*
X36638095Y-61363855D02*
X36523809Y-61325760D01*
X36523809Y-61325760D02*
X36447619Y-61249569D01*
X36447619Y-61249569D02*
X36409524Y-61173379D01*
X36409524Y-61173379D02*
X36371428Y-61020998D01*
X36371428Y-61020998D02*
X36371428Y-60906712D01*
X36371428Y-60906712D02*
X36409524Y-60754331D01*
X36409524Y-60754331D02*
X36447619Y-60678140D01*
X36447619Y-60678140D02*
X36523809Y-60601950D01*
X36523809Y-60601950D02*
X36638095Y-60563855D01*
X36638095Y-60563855D02*
X36714286Y-60563855D01*
X36714286Y-60563855D02*
X36828571Y-60601950D01*
X36828571Y-60601950D02*
X36866667Y-60640045D01*
X37247619Y-61363855D02*
X37400000Y-61363855D01*
X37400000Y-61363855D02*
X37476190Y-61325760D01*
X37476190Y-61325760D02*
X37514286Y-61287664D01*
X37514286Y-61287664D02*
X37590476Y-61173379D01*
X37590476Y-61173379D02*
X37628571Y-61020998D01*
X37628571Y-61020998D02*
X37628571Y-60716236D01*
X37628571Y-60716236D02*
X37590476Y-60640045D01*
X37590476Y-60640045D02*
X37552381Y-60601950D01*
X37552381Y-60601950D02*
X37476190Y-60563855D01*
X37476190Y-60563855D02*
X37323809Y-60563855D01*
X37323809Y-60563855D02*
X37247619Y-60601950D01*
X37247619Y-60601950D02*
X37209524Y-60640045D01*
X37209524Y-60640045D02*
X37171428Y-60716236D01*
X37171428Y-60716236D02*
X37171428Y-60906712D01*
X37171428Y-60906712D02*
X37209524Y-60982902D01*
X37209524Y-60982902D02*
X37247619Y-61020998D01*
X37247619Y-61020998D02*
X37323809Y-61059093D01*
X37323809Y-61059093D02*
X37476190Y-61059093D01*
X37476190Y-61059093D02*
X37552381Y-61020998D01*
X37552381Y-61020998D02*
X37590476Y-60982902D01*
X37590476Y-60982902D02*
X37628571Y-60906712D01*
X66866667Y-59287664D02*
X66828571Y-59325760D01*
X66828571Y-59325760D02*
X66714286Y-59363855D01*
X66714286Y-59363855D02*
X66638095Y-59363855D01*
X66638095Y-59363855D02*
X66523809Y-59325760D01*
X66523809Y-59325760D02*
X66447619Y-59249569D01*
X66447619Y-59249569D02*
X66409524Y-59173379D01*
X66409524Y-59173379D02*
X66371428Y-59020998D01*
X66371428Y-59020998D02*
X66371428Y-58906712D01*
X66371428Y-58906712D02*
X66409524Y-58754331D01*
X66409524Y-58754331D02*
X66447619Y-58678140D01*
X66447619Y-58678140D02*
X66523809Y-58601950D01*
X66523809Y-58601950D02*
X66638095Y-58563855D01*
X66638095Y-58563855D02*
X66714286Y-58563855D01*
X66714286Y-58563855D02*
X66828571Y-58601950D01*
X66828571Y-58601950D02*
X66866667Y-58640045D01*
X67552381Y-58830521D02*
X67552381Y-59363855D01*
X67361905Y-58525760D02*
X67171428Y-59097188D01*
X67171428Y-59097188D02*
X67666667Y-59097188D01*
X67866667Y-47287664D02*
X67828571Y-47325760D01*
X67828571Y-47325760D02*
X67714286Y-47363855D01*
X67714286Y-47363855D02*
X67638095Y-47363855D01*
X67638095Y-47363855D02*
X67523809Y-47325760D01*
X67523809Y-47325760D02*
X67447619Y-47249569D01*
X67447619Y-47249569D02*
X67409524Y-47173379D01*
X67409524Y-47173379D02*
X67371428Y-47020998D01*
X67371428Y-47020998D02*
X67371428Y-46906712D01*
X67371428Y-46906712D02*
X67409524Y-46754331D01*
X67409524Y-46754331D02*
X67447619Y-46678140D01*
X67447619Y-46678140D02*
X67523809Y-46601950D01*
X67523809Y-46601950D02*
X67638095Y-46563855D01*
X67638095Y-46563855D02*
X67714286Y-46563855D01*
X67714286Y-46563855D02*
X67828571Y-46601950D01*
X67828571Y-46601950D02*
X67866667Y-46640045D01*
X68552381Y-46563855D02*
X68400000Y-46563855D01*
X68400000Y-46563855D02*
X68323809Y-46601950D01*
X68323809Y-46601950D02*
X68285714Y-46640045D01*
X68285714Y-46640045D02*
X68209524Y-46754331D01*
X68209524Y-46754331D02*
X68171428Y-46906712D01*
X68171428Y-46906712D02*
X68171428Y-47211474D01*
X68171428Y-47211474D02*
X68209524Y-47287664D01*
X68209524Y-47287664D02*
X68247619Y-47325760D01*
X68247619Y-47325760D02*
X68323809Y-47363855D01*
X68323809Y-47363855D02*
X68476190Y-47363855D01*
X68476190Y-47363855D02*
X68552381Y-47325760D01*
X68552381Y-47325760D02*
X68590476Y-47287664D01*
X68590476Y-47287664D02*
X68628571Y-47211474D01*
X68628571Y-47211474D02*
X68628571Y-47020998D01*
X68628571Y-47020998D02*
X68590476Y-46944807D01*
X68590476Y-46944807D02*
X68552381Y-46906712D01*
X68552381Y-46906712D02*
X68476190Y-46868617D01*
X68476190Y-46868617D02*
X68323809Y-46868617D01*
X68323809Y-46868617D02*
X68247619Y-46906712D01*
X68247619Y-46906712D02*
X68209524Y-46944807D01*
X68209524Y-46944807D02*
X68171428Y-47020998D01*
X95485714Y-87287664D02*
X95447618Y-87325760D01*
X95447618Y-87325760D02*
X95333333Y-87363855D01*
X95333333Y-87363855D02*
X95257142Y-87363855D01*
X95257142Y-87363855D02*
X95142856Y-87325760D01*
X95142856Y-87325760D02*
X95066666Y-87249569D01*
X95066666Y-87249569D02*
X95028571Y-87173379D01*
X95028571Y-87173379D02*
X94990475Y-87020998D01*
X94990475Y-87020998D02*
X94990475Y-86906712D01*
X94990475Y-86906712D02*
X95028571Y-86754331D01*
X95028571Y-86754331D02*
X95066666Y-86678140D01*
X95066666Y-86678140D02*
X95142856Y-86601950D01*
X95142856Y-86601950D02*
X95257142Y-86563855D01*
X95257142Y-86563855D02*
X95333333Y-86563855D01*
X95333333Y-86563855D02*
X95447618Y-86601950D01*
X95447618Y-86601950D02*
X95485714Y-86640045D01*
X96247618Y-87363855D02*
X95790475Y-87363855D01*
X96019047Y-87363855D02*
X96019047Y-86563855D01*
X96019047Y-86563855D02*
X95942856Y-86678140D01*
X95942856Y-86678140D02*
X95866666Y-86754331D01*
X95866666Y-86754331D02*
X95790475Y-86792426D01*
X96742857Y-86563855D02*
X96819047Y-86563855D01*
X96819047Y-86563855D02*
X96895238Y-86601950D01*
X96895238Y-86601950D02*
X96933333Y-86640045D01*
X96933333Y-86640045D02*
X96971428Y-86716236D01*
X96971428Y-86716236D02*
X97009523Y-86868617D01*
X97009523Y-86868617D02*
X97009523Y-87059093D01*
X97009523Y-87059093D02*
X96971428Y-87211474D01*
X96971428Y-87211474D02*
X96933333Y-87287664D01*
X96933333Y-87287664D02*
X96895238Y-87325760D01*
X96895238Y-87325760D02*
X96819047Y-87363855D01*
X96819047Y-87363855D02*
X96742857Y-87363855D01*
X96742857Y-87363855D02*
X96666666Y-87325760D01*
X96666666Y-87325760D02*
X96628571Y-87287664D01*
X96628571Y-87287664D02*
X96590476Y-87211474D01*
X96590476Y-87211474D02*
X96552380Y-87059093D01*
X96552380Y-87059093D02*
X96552380Y-86868617D01*
X96552380Y-86868617D02*
X96590476Y-86716236D01*
X96590476Y-86716236D02*
X96628571Y-86640045D01*
X96628571Y-86640045D02*
X96666666Y-86601950D01*
X96666666Y-86601950D02*
X96742857Y-86563855D01*
X104866667Y-35287664D02*
X104828571Y-35325760D01*
X104828571Y-35325760D02*
X104714286Y-35363855D01*
X104714286Y-35363855D02*
X104638095Y-35363855D01*
X104638095Y-35363855D02*
X104523809Y-35325760D01*
X104523809Y-35325760D02*
X104447619Y-35249569D01*
X104447619Y-35249569D02*
X104409524Y-35173379D01*
X104409524Y-35173379D02*
X104371428Y-35020998D01*
X104371428Y-35020998D02*
X104371428Y-34906712D01*
X104371428Y-34906712D02*
X104409524Y-34754331D01*
X104409524Y-34754331D02*
X104447619Y-34678140D01*
X104447619Y-34678140D02*
X104523809Y-34601950D01*
X104523809Y-34601950D02*
X104638095Y-34563855D01*
X104638095Y-34563855D02*
X104714286Y-34563855D01*
X104714286Y-34563855D02*
X104828571Y-34601950D01*
X104828571Y-34601950D02*
X104866667Y-34640045D01*
X105133333Y-34563855D02*
X105628571Y-34563855D01*
X105628571Y-34563855D02*
X105361905Y-34868617D01*
X105361905Y-34868617D02*
X105476190Y-34868617D01*
X105476190Y-34868617D02*
X105552381Y-34906712D01*
X105552381Y-34906712D02*
X105590476Y-34944807D01*
X105590476Y-34944807D02*
X105628571Y-35020998D01*
X105628571Y-35020998D02*
X105628571Y-35211474D01*
X105628571Y-35211474D02*
X105590476Y-35287664D01*
X105590476Y-35287664D02*
X105552381Y-35325760D01*
X105552381Y-35325760D02*
X105476190Y-35363855D01*
X105476190Y-35363855D02*
X105247619Y-35363855D01*
X105247619Y-35363855D02*
X105171428Y-35325760D01*
X105171428Y-35325760D02*
X105133333Y-35287664D01*
X117366667Y-60287664D02*
X117328571Y-60325760D01*
X117328571Y-60325760D02*
X117214286Y-60363855D01*
X117214286Y-60363855D02*
X117138095Y-60363855D01*
X117138095Y-60363855D02*
X117023809Y-60325760D01*
X117023809Y-60325760D02*
X116947619Y-60249569D01*
X116947619Y-60249569D02*
X116909524Y-60173379D01*
X116909524Y-60173379D02*
X116871428Y-60020998D01*
X116871428Y-60020998D02*
X116871428Y-59906712D01*
X116871428Y-59906712D02*
X116909524Y-59754331D01*
X116909524Y-59754331D02*
X116947619Y-59678140D01*
X116947619Y-59678140D02*
X117023809Y-59601950D01*
X117023809Y-59601950D02*
X117138095Y-59563855D01*
X117138095Y-59563855D02*
X117214286Y-59563855D01*
X117214286Y-59563855D02*
X117328571Y-59601950D01*
X117328571Y-59601950D02*
X117366667Y-59640045D01*
X117633333Y-59563855D02*
X118166667Y-59563855D01*
X118166667Y-59563855D02*
X117823809Y-60363855D01*
X136366667Y-60287664D02*
X136328571Y-60325760D01*
X136328571Y-60325760D02*
X136214286Y-60363855D01*
X136214286Y-60363855D02*
X136138095Y-60363855D01*
X136138095Y-60363855D02*
X136023809Y-60325760D01*
X136023809Y-60325760D02*
X135947619Y-60249569D01*
X135947619Y-60249569D02*
X135909524Y-60173379D01*
X135909524Y-60173379D02*
X135871428Y-60020998D01*
X135871428Y-60020998D02*
X135871428Y-59906712D01*
X135871428Y-59906712D02*
X135909524Y-59754331D01*
X135909524Y-59754331D02*
X135947619Y-59678140D01*
X135947619Y-59678140D02*
X136023809Y-59601950D01*
X136023809Y-59601950D02*
X136138095Y-59563855D01*
X136138095Y-59563855D02*
X136214286Y-59563855D01*
X136214286Y-59563855D02*
X136328571Y-59601950D01*
X136328571Y-59601950D02*
X136366667Y-59640045D01*
X136823809Y-59906712D02*
X136747619Y-59868617D01*
X136747619Y-59868617D02*
X136709524Y-59830521D01*
X136709524Y-59830521D02*
X136671428Y-59754331D01*
X136671428Y-59754331D02*
X136671428Y-59716236D01*
X136671428Y-59716236D02*
X136709524Y-59640045D01*
X136709524Y-59640045D02*
X136747619Y-59601950D01*
X136747619Y-59601950D02*
X136823809Y-59563855D01*
X136823809Y-59563855D02*
X136976190Y-59563855D01*
X136976190Y-59563855D02*
X137052381Y-59601950D01*
X137052381Y-59601950D02*
X137090476Y-59640045D01*
X137090476Y-59640045D02*
X137128571Y-59716236D01*
X137128571Y-59716236D02*
X137128571Y-59754331D01*
X137128571Y-59754331D02*
X137090476Y-59830521D01*
X137090476Y-59830521D02*
X137052381Y-59868617D01*
X137052381Y-59868617D02*
X136976190Y-59906712D01*
X136976190Y-59906712D02*
X136823809Y-59906712D01*
X136823809Y-59906712D02*
X136747619Y-59944807D01*
X136747619Y-59944807D02*
X136709524Y-59982902D01*
X136709524Y-59982902D02*
X136671428Y-60059093D01*
X136671428Y-60059093D02*
X136671428Y-60211474D01*
X136671428Y-60211474D02*
X136709524Y-60287664D01*
X136709524Y-60287664D02*
X136747619Y-60325760D01*
X136747619Y-60325760D02*
X136823809Y-60363855D01*
X136823809Y-60363855D02*
X136976190Y-60363855D01*
X136976190Y-60363855D02*
X137052381Y-60325760D01*
X137052381Y-60325760D02*
X137090476Y-60287664D01*
X137090476Y-60287664D02*
X137128571Y-60211474D01*
X137128571Y-60211474D02*
X137128571Y-60059093D01*
X137128571Y-60059093D02*
X137090476Y-59982902D01*
X137090476Y-59982902D02*
X137052381Y-59944807D01*
X137052381Y-59944807D02*
X136976190Y-59906712D01*
X157866667Y-55287664D02*
X157828571Y-55325760D01*
X157828571Y-55325760D02*
X157714286Y-55363855D01*
X157714286Y-55363855D02*
X157638095Y-55363855D01*
X157638095Y-55363855D02*
X157523809Y-55325760D01*
X157523809Y-55325760D02*
X157447619Y-55249569D01*
X157447619Y-55249569D02*
X157409524Y-55173379D01*
X157409524Y-55173379D02*
X157371428Y-55020998D01*
X157371428Y-55020998D02*
X157371428Y-54906712D01*
X157371428Y-54906712D02*
X157409524Y-54754331D01*
X157409524Y-54754331D02*
X157447619Y-54678140D01*
X157447619Y-54678140D02*
X157523809Y-54601950D01*
X157523809Y-54601950D02*
X157638095Y-54563855D01*
X157638095Y-54563855D02*
X157714286Y-54563855D01*
X157714286Y-54563855D02*
X157828571Y-54601950D01*
X157828571Y-54601950D02*
X157866667Y-54640045D01*
X158590476Y-54563855D02*
X158209524Y-54563855D01*
X158209524Y-54563855D02*
X158171428Y-54944807D01*
X158171428Y-54944807D02*
X158209524Y-54906712D01*
X158209524Y-54906712D02*
X158285714Y-54868617D01*
X158285714Y-54868617D02*
X158476190Y-54868617D01*
X158476190Y-54868617D02*
X158552381Y-54906712D01*
X158552381Y-54906712D02*
X158590476Y-54944807D01*
X158590476Y-54944807D02*
X158628571Y-55020998D01*
X158628571Y-55020998D02*
X158628571Y-55211474D01*
X158628571Y-55211474D02*
X158590476Y-55287664D01*
X158590476Y-55287664D02*
X158552381Y-55325760D01*
X158552381Y-55325760D02*
X158476190Y-55363855D01*
X158476190Y-55363855D02*
X158285714Y-55363855D01*
X158285714Y-55363855D02*
X158209524Y-55325760D01*
X158209524Y-55325760D02*
X158171428Y-55287664D01*
X157485714Y-76287664D02*
X157447618Y-76325760D01*
X157447618Y-76325760D02*
X157333333Y-76363855D01*
X157333333Y-76363855D02*
X157257142Y-76363855D01*
X157257142Y-76363855D02*
X157142856Y-76325760D01*
X157142856Y-76325760D02*
X157066666Y-76249569D01*
X157066666Y-76249569D02*
X157028571Y-76173379D01*
X157028571Y-76173379D02*
X156990475Y-76020998D01*
X156990475Y-76020998D02*
X156990475Y-75906712D01*
X156990475Y-75906712D02*
X157028571Y-75754331D01*
X157028571Y-75754331D02*
X157066666Y-75678140D01*
X157066666Y-75678140D02*
X157142856Y-75601950D01*
X157142856Y-75601950D02*
X157257142Y-75563855D01*
X157257142Y-75563855D02*
X157333333Y-75563855D01*
X157333333Y-75563855D02*
X157447618Y-75601950D01*
X157447618Y-75601950D02*
X157485714Y-75640045D01*
X158247618Y-76363855D02*
X157790475Y-76363855D01*
X158019047Y-76363855D02*
X158019047Y-75563855D01*
X158019047Y-75563855D02*
X157942856Y-75678140D01*
X157942856Y-75678140D02*
X157866666Y-75754331D01*
X157866666Y-75754331D02*
X157790475Y-75792426D01*
X159009523Y-76363855D02*
X158552380Y-76363855D01*
X158780952Y-76363855D02*
X158780952Y-75563855D01*
X158780952Y-75563855D02*
X158704761Y-75678140D01*
X158704761Y-75678140D02*
X158628571Y-75754331D01*
X158628571Y-75754331D02*
X158552380Y-75792426D01*
X23333333Y-113170664D02*
X23809523Y-113170664D01*
X23238095Y-113456379D02*
X23571428Y-112456379D01*
X23571428Y-112456379D02*
X23904761Y-113456379D01*
X24761904Y-113456379D02*
X24190476Y-113456379D01*
X24476190Y-113456379D02*
X24476190Y-112456379D01*
X24476190Y-112456379D02*
X24380952Y-112599236D01*
X24380952Y-112599236D02*
X24285714Y-112694474D01*
X24285714Y-112694474D02*
X24190476Y-112742093D01*
X25952381Y-113456379D02*
X25952381Y-112456379D01*
X25952381Y-112456379D02*
X26333333Y-112456379D01*
X26333333Y-112456379D02*
X26428571Y-112503998D01*
X26428571Y-112503998D02*
X26476190Y-112551617D01*
X26476190Y-112551617D02*
X26523809Y-112646855D01*
X26523809Y-112646855D02*
X26523809Y-112789712D01*
X26523809Y-112789712D02*
X26476190Y-112884950D01*
X26476190Y-112884950D02*
X26428571Y-112932569D01*
X26428571Y-112932569D02*
X26333333Y-112980188D01*
X26333333Y-112980188D02*
X25952381Y-112980188D01*
X26952381Y-113456379D02*
X26952381Y-112456379D01*
X27999999Y-113361140D02*
X27952380Y-113408760D01*
X27952380Y-113408760D02*
X27809523Y-113456379D01*
X27809523Y-113456379D02*
X27714285Y-113456379D01*
X27714285Y-113456379D02*
X27571428Y-113408760D01*
X27571428Y-113408760D02*
X27476190Y-113313521D01*
X27476190Y-113313521D02*
X27428571Y-113218283D01*
X27428571Y-113218283D02*
X27380952Y-113027807D01*
X27380952Y-113027807D02*
X27380952Y-112884950D01*
X27380952Y-112884950D02*
X27428571Y-112694474D01*
X27428571Y-112694474D02*
X27476190Y-112599236D01*
X27476190Y-112599236D02*
X27571428Y-112503998D01*
X27571428Y-112503998D02*
X27714285Y-112456379D01*
X27714285Y-112456379D02*
X27809523Y-112456379D01*
X27809523Y-112456379D02*
X27952380Y-112503998D01*
X27952380Y-112503998D02*
X27999999Y-112551617D01*
X28619047Y-112456379D02*
X28809523Y-112456379D01*
X28809523Y-112456379D02*
X28904761Y-112503998D01*
X28904761Y-112503998D02*
X28999999Y-112599236D01*
X28999999Y-112599236D02*
X29047618Y-112789712D01*
X29047618Y-112789712D02*
X29047618Y-113123045D01*
X29047618Y-113123045D02*
X28999999Y-113313521D01*
X28999999Y-113313521D02*
X28904761Y-113408760D01*
X28904761Y-113408760D02*
X28809523Y-113456379D01*
X28809523Y-113456379D02*
X28619047Y-113456379D01*
X28619047Y-113456379D02*
X28523809Y-113408760D01*
X28523809Y-113408760D02*
X28428571Y-113313521D01*
X28428571Y-113313521D02*
X28380952Y-113123045D01*
X28380952Y-113123045D02*
X28380952Y-112789712D01*
X28380952Y-112789712D02*
X28428571Y-112599236D01*
X28428571Y-112599236D02*
X28523809Y-112503998D01*
X28523809Y-112503998D02*
X28619047Y-112456379D01*
X30190476Y-112551617D02*
X30238095Y-112503998D01*
X30238095Y-112503998D02*
X30333333Y-112456379D01*
X30333333Y-112456379D02*
X30571428Y-112456379D01*
X30571428Y-112456379D02*
X30666666Y-112503998D01*
X30666666Y-112503998D02*
X30714285Y-112551617D01*
X30714285Y-112551617D02*
X30761904Y-112646855D01*
X30761904Y-112646855D02*
X30761904Y-112742093D01*
X30761904Y-112742093D02*
X30714285Y-112884950D01*
X30714285Y-112884950D02*
X30142857Y-113456379D01*
X30142857Y-113456379D02*
X30761904Y-113456379D01*
X31857143Y-112456379D02*
X32095238Y-113456379D01*
X32095238Y-113456379D02*
X32285714Y-112742093D01*
X32285714Y-112742093D02*
X32476190Y-113456379D01*
X32476190Y-113456379D02*
X32714286Y-112456379D01*
X153619047Y-136456379D02*
X153285714Y-135980188D01*
X153047619Y-136456379D02*
X153047619Y-135456379D01*
X153047619Y-135456379D02*
X153428571Y-135456379D01*
X153428571Y-135456379D02*
X153523809Y-135503998D01*
X153523809Y-135503998D02*
X153571428Y-135551617D01*
X153571428Y-135551617D02*
X153619047Y-135646855D01*
X153619047Y-135646855D02*
X153619047Y-135789712D01*
X153619047Y-135789712D02*
X153571428Y-135884950D01*
X153571428Y-135884950D02*
X153523809Y-135932569D01*
X153523809Y-135932569D02*
X153428571Y-135980188D01*
X153428571Y-135980188D02*
X153047619Y-135980188D01*
X154047619Y-135932569D02*
X154380952Y-135932569D01*
X154523809Y-136456379D02*
X154047619Y-136456379D01*
X154047619Y-136456379D02*
X154047619Y-135456379D01*
X154047619Y-135456379D02*
X154523809Y-135456379D01*
X154809524Y-135456379D02*
X155142857Y-136456379D01*
X155142857Y-136456379D02*
X155476190Y-135456379D01*
X156523810Y-136170664D02*
X157000000Y-136170664D01*
X156428572Y-136456379D02*
X156761905Y-135456379D01*
X156761905Y-135456379D02*
X157095238Y-136456379D01*
D11*
X116761904Y-7912758D02*
X118095237Y-7912758D01*
X118095237Y-7912758D02*
X116761904Y-9912758D01*
X116761904Y-9912758D02*
X118095237Y-9912758D01*
X119142856Y-8769900D02*
X118952380Y-8674662D01*
X118952380Y-8674662D02*
X118857142Y-8579424D01*
X118857142Y-8579424D02*
X118761904Y-8388948D01*
X118761904Y-8388948D02*
X118761904Y-8293710D01*
X118761904Y-8293710D02*
X118857142Y-8103234D01*
X118857142Y-8103234D02*
X118952380Y-8007996D01*
X118952380Y-8007996D02*
X119142856Y-7912758D01*
X119142856Y-7912758D02*
X119523809Y-7912758D01*
X119523809Y-7912758D02*
X119714285Y-8007996D01*
X119714285Y-8007996D02*
X119809523Y-8103234D01*
X119809523Y-8103234D02*
X119904761Y-8293710D01*
X119904761Y-8293710D02*
X119904761Y-8388948D01*
X119904761Y-8388948D02*
X119809523Y-8579424D01*
X119809523Y-8579424D02*
X119714285Y-8674662D01*
X119714285Y-8674662D02*
X119523809Y-8769900D01*
X119523809Y-8769900D02*
X119142856Y-8769900D01*
X119142856Y-8769900D02*
X118952380Y-8865139D01*
X118952380Y-8865139D02*
X118857142Y-8960377D01*
X118857142Y-8960377D02*
X118761904Y-9150853D01*
X118761904Y-9150853D02*
X118761904Y-9531805D01*
X118761904Y-9531805D02*
X118857142Y-9722281D01*
X118857142Y-9722281D02*
X118952380Y-9817520D01*
X118952380Y-9817520D02*
X119142856Y-9912758D01*
X119142856Y-9912758D02*
X119523809Y-9912758D01*
X119523809Y-9912758D02*
X119714285Y-9817520D01*
X119714285Y-9817520D02*
X119809523Y-9722281D01*
X119809523Y-9722281D02*
X119904761Y-9531805D01*
X119904761Y-9531805D02*
X119904761Y-9150853D01*
X119904761Y-9150853D02*
X119809523Y-8960377D01*
X119809523Y-8960377D02*
X119714285Y-8865139D01*
X119714285Y-8865139D02*
X119523809Y-8769900D01*
X121142856Y-7912758D02*
X121333333Y-7912758D01*
X121333333Y-7912758D02*
X121523809Y-8007996D01*
X121523809Y-8007996D02*
X121619047Y-8103234D01*
X121619047Y-8103234D02*
X121714285Y-8293710D01*
X121714285Y-8293710D02*
X121809523Y-8674662D01*
X121809523Y-8674662D02*
X121809523Y-9150853D01*
X121809523Y-9150853D02*
X121714285Y-9531805D01*
X121714285Y-9531805D02*
X121619047Y-9722281D01*
X121619047Y-9722281D02*
X121523809Y-9817520D01*
X121523809Y-9817520D02*
X121333333Y-9912758D01*
X121333333Y-9912758D02*
X121142856Y-9912758D01*
X121142856Y-9912758D02*
X120952380Y-9817520D01*
X120952380Y-9817520D02*
X120857142Y-9722281D01*
X120857142Y-9722281D02*
X120761904Y-9531805D01*
X120761904Y-9531805D02*
X120666666Y-9150853D01*
X120666666Y-9150853D02*
X120666666Y-8674662D01*
X120666666Y-8674662D02*
X120761904Y-8293710D01*
X120761904Y-8293710D02*
X120857142Y-8103234D01*
X120857142Y-8103234D02*
X120952380Y-8007996D01*
X120952380Y-8007996D02*
X121142856Y-7912758D01*
X125333333Y-9912758D02*
X124666666Y-8960377D01*
X124190476Y-9912758D02*
X124190476Y-7912758D01*
X124190476Y-7912758D02*
X124952381Y-7912758D01*
X124952381Y-7912758D02*
X125142857Y-8007996D01*
X125142857Y-8007996D02*
X125238095Y-8103234D01*
X125238095Y-8103234D02*
X125333333Y-8293710D01*
X125333333Y-8293710D02*
X125333333Y-8579424D01*
X125333333Y-8579424D02*
X125238095Y-8769900D01*
X125238095Y-8769900D02*
X125142857Y-8865139D01*
X125142857Y-8865139D02*
X124952381Y-8960377D01*
X124952381Y-8960377D02*
X124190476Y-8960377D01*
X126571428Y-7912758D02*
X126952381Y-7912758D01*
X126952381Y-7912758D02*
X127142857Y-8007996D01*
X127142857Y-8007996D02*
X127333333Y-8198472D01*
X127333333Y-8198472D02*
X127428571Y-8579424D01*
X127428571Y-8579424D02*
X127428571Y-9246091D01*
X127428571Y-9246091D02*
X127333333Y-9627043D01*
X127333333Y-9627043D02*
X127142857Y-9817520D01*
X127142857Y-9817520D02*
X126952381Y-9912758D01*
X126952381Y-9912758D02*
X126571428Y-9912758D01*
X126571428Y-9912758D02*
X126380952Y-9817520D01*
X126380952Y-9817520D02*
X126190476Y-9627043D01*
X126190476Y-9627043D02*
X126095238Y-9246091D01*
X126095238Y-9246091D02*
X126095238Y-8579424D01*
X126095238Y-8579424D02*
X126190476Y-8198472D01*
X126190476Y-8198472D02*
X126380952Y-8007996D01*
X126380952Y-8007996D02*
X126571428Y-7912758D01*
X128285714Y-9912758D02*
X128285714Y-7912758D01*
X128285714Y-7912758D02*
X128952381Y-9341329D01*
X128952381Y-9341329D02*
X129619047Y-7912758D01*
X129619047Y-7912758D02*
X129619047Y-9912758D01*
X130857142Y-9912758D02*
X130666666Y-9817520D01*
X130666666Y-9817520D02*
X130571428Y-9627043D01*
X130571428Y-9627043D02*
X130571428Y-7912758D01*
X132380952Y-9817520D02*
X132190476Y-9912758D01*
X132190476Y-9912758D02*
X131809523Y-9912758D01*
X131809523Y-9912758D02*
X131619047Y-9817520D01*
X131619047Y-9817520D02*
X131523809Y-9627043D01*
X131523809Y-9627043D02*
X131523809Y-8865139D01*
X131523809Y-8865139D02*
X131619047Y-8674662D01*
X131619047Y-8674662D02*
X131809523Y-8579424D01*
X131809523Y-8579424D02*
X132190476Y-8579424D01*
X132190476Y-8579424D02*
X132380952Y-8674662D01*
X132380952Y-8674662D02*
X132476190Y-8865139D01*
X132476190Y-8865139D02*
X132476190Y-9055615D01*
X132476190Y-9055615D02*
X131523809Y-9246091D01*
X133238095Y-9817520D02*
X133428571Y-9912758D01*
X133428571Y-9912758D02*
X133809523Y-9912758D01*
X133809523Y-9912758D02*
X134000000Y-9817520D01*
X134000000Y-9817520D02*
X134095238Y-9627043D01*
X134095238Y-9627043D02*
X134095238Y-9531805D01*
X134095238Y-9531805D02*
X134000000Y-9341329D01*
X134000000Y-9341329D02*
X133809523Y-9246091D01*
X133809523Y-9246091D02*
X133523809Y-9246091D01*
X133523809Y-9246091D02*
X133333333Y-9150853D01*
X133333333Y-9150853D02*
X133238095Y-8960377D01*
X133238095Y-8960377D02*
X133238095Y-8865139D01*
X133238095Y-8865139D02*
X133333333Y-8674662D01*
X133333333Y-8674662D02*
X133523809Y-8579424D01*
X133523809Y-8579424D02*
X133809523Y-8579424D01*
X133809523Y-8579424D02*
X134000000Y-8674662D01*
X134857143Y-9817520D02*
X135047619Y-9912758D01*
X135047619Y-9912758D02*
X135428571Y-9912758D01*
X135428571Y-9912758D02*
X135619048Y-9817520D01*
X135619048Y-9817520D02*
X135714286Y-9627043D01*
X135714286Y-9627043D02*
X135714286Y-9531805D01*
X135714286Y-9531805D02*
X135619048Y-9341329D01*
X135619048Y-9341329D02*
X135428571Y-9246091D01*
X135428571Y-9246091D02*
X135142857Y-9246091D01*
X135142857Y-9246091D02*
X134952381Y-9150853D01*
X134952381Y-9150853D02*
X134857143Y-8960377D01*
X134857143Y-8960377D02*
X134857143Y-8865139D01*
X134857143Y-8865139D02*
X134952381Y-8674662D01*
X134952381Y-8674662D02*
X135142857Y-8579424D01*
X135142857Y-8579424D02*
X135428571Y-8579424D01*
X135428571Y-8579424D02*
X135619048Y-8674662D01*
X138000001Y-9817520D02*
X138285715Y-9912758D01*
X138285715Y-9912758D02*
X138761906Y-9912758D01*
X138761906Y-9912758D02*
X138952382Y-9817520D01*
X138952382Y-9817520D02*
X139047620Y-9722281D01*
X139047620Y-9722281D02*
X139142858Y-9531805D01*
X139142858Y-9531805D02*
X139142858Y-9341329D01*
X139142858Y-9341329D02*
X139047620Y-9150853D01*
X139047620Y-9150853D02*
X138952382Y-9055615D01*
X138952382Y-9055615D02*
X138761906Y-8960377D01*
X138761906Y-8960377D02*
X138380953Y-8865139D01*
X138380953Y-8865139D02*
X138190477Y-8769900D01*
X138190477Y-8769900D02*
X138095239Y-8674662D01*
X138095239Y-8674662D02*
X138000001Y-8484186D01*
X138000001Y-8484186D02*
X138000001Y-8293710D01*
X138000001Y-8293710D02*
X138095239Y-8103234D01*
X138095239Y-8103234D02*
X138190477Y-8007996D01*
X138190477Y-8007996D02*
X138380953Y-7912758D01*
X138380953Y-7912758D02*
X138857144Y-7912758D01*
X138857144Y-7912758D02*
X139142858Y-8007996D01*
X140666668Y-8865139D02*
X140952382Y-8960377D01*
X140952382Y-8960377D02*
X141047620Y-9055615D01*
X141047620Y-9055615D02*
X141142858Y-9246091D01*
X141142858Y-9246091D02*
X141142858Y-9531805D01*
X141142858Y-9531805D02*
X141047620Y-9722281D01*
X141047620Y-9722281D02*
X140952382Y-9817520D01*
X140952382Y-9817520D02*
X140761906Y-9912758D01*
X140761906Y-9912758D02*
X140000001Y-9912758D01*
X140000001Y-9912758D02*
X140000001Y-7912758D01*
X140000001Y-7912758D02*
X140666668Y-7912758D01*
X140666668Y-7912758D02*
X140857144Y-8007996D01*
X140857144Y-8007996D02*
X140952382Y-8103234D01*
X140952382Y-8103234D02*
X141047620Y-8293710D01*
X141047620Y-8293710D02*
X141047620Y-8484186D01*
X141047620Y-8484186D02*
X140952382Y-8674662D01*
X140952382Y-8674662D02*
X140857144Y-8769900D01*
X140857144Y-8769900D02*
X140666668Y-8865139D01*
X140666668Y-8865139D02*
X140000001Y-8865139D01*
X143142858Y-9722281D02*
X143047620Y-9817520D01*
X143047620Y-9817520D02*
X142761906Y-9912758D01*
X142761906Y-9912758D02*
X142571430Y-9912758D01*
X142571430Y-9912758D02*
X142285715Y-9817520D01*
X142285715Y-9817520D02*
X142095239Y-9627043D01*
X142095239Y-9627043D02*
X142000001Y-9436567D01*
X142000001Y-9436567D02*
X141904763Y-9055615D01*
X141904763Y-9055615D02*
X141904763Y-8769900D01*
X141904763Y-8769900D02*
X142000001Y-8388948D01*
X142000001Y-8388948D02*
X142095239Y-8198472D01*
X142095239Y-8198472D02*
X142285715Y-8007996D01*
X142285715Y-8007996D02*
X142571430Y-7912758D01*
X142571430Y-7912758D02*
X142761906Y-7912758D01*
X142761906Y-7912758D02*
X143047620Y-8007996D01*
X143047620Y-8007996D02*
X143142858Y-8103234D01*
D12*
X94438095Y-11954819D02*
X95009523Y-11954819D01*
X94723809Y-12954819D02*
X94723809Y-11954819D01*
X95342857Y-12954819D02*
X95342857Y-11954819D01*
X95342857Y-11954819D02*
X95723809Y-11954819D01*
X95723809Y-11954819D02*
X95819047Y-12002438D01*
X95819047Y-12002438D02*
X95866666Y-12050057D01*
X95866666Y-12050057D02*
X95914285Y-12145295D01*
X95914285Y-12145295D02*
X95914285Y-12288152D01*
X95914285Y-12288152D02*
X95866666Y-12383390D01*
X95866666Y-12383390D02*
X95819047Y-12431009D01*
X95819047Y-12431009D02*
X95723809Y-12478628D01*
X95723809Y-12478628D02*
X95342857Y-12478628D01*
X96247619Y-11954819D02*
X96914285Y-11954819D01*
X96914285Y-11954819D02*
X96485714Y-12954819D01*
X46858095Y-14124819D02*
X46858095Y-14934342D01*
X46858095Y-14934342D02*
X46905714Y-15029580D01*
X46905714Y-15029580D02*
X46953333Y-15077200D01*
X46953333Y-15077200D02*
X47048571Y-15124819D01*
X47048571Y-15124819D02*
X47239047Y-15124819D01*
X47239047Y-15124819D02*
X47334285Y-15077200D01*
X47334285Y-15077200D02*
X47381904Y-15029580D01*
X47381904Y-15029580D02*
X47429523Y-14934342D01*
X47429523Y-14934342D02*
X47429523Y-14124819D01*
X48429523Y-15124819D02*
X47858095Y-15124819D01*
X48143809Y-15124819D02*
X48143809Y-14124819D01*
X48143809Y-14124819D02*
X48048571Y-14267676D01*
X48048571Y-14267676D02*
X47953333Y-14362914D01*
X47953333Y-14362914D02*
X47858095Y-14410533D01*
X82084819Y-100562857D02*
X81608628Y-100896190D01*
X82084819Y-101134285D02*
X81084819Y-101134285D01*
X81084819Y-101134285D02*
X81084819Y-100753333D01*
X81084819Y-100753333D02*
X81132438Y-100658095D01*
X81132438Y-100658095D02*
X81180057Y-100610476D01*
X81180057Y-100610476D02*
X81275295Y-100562857D01*
X81275295Y-100562857D02*
X81418152Y-100562857D01*
X81418152Y-100562857D02*
X81513390Y-100610476D01*
X81513390Y-100610476D02*
X81561009Y-100658095D01*
X81561009Y-100658095D02*
X81608628Y-100753333D01*
X81608628Y-100753333D02*
X81608628Y-101134285D01*
X81180057Y-100181904D02*
X81132438Y-100134285D01*
X81132438Y-100134285D02*
X81084819Y-100039047D01*
X81084819Y-100039047D02*
X81084819Y-99800952D01*
X81084819Y-99800952D02*
X81132438Y-99705714D01*
X81132438Y-99705714D02*
X81180057Y-99658095D01*
X81180057Y-99658095D02*
X81275295Y-99610476D01*
X81275295Y-99610476D02*
X81370533Y-99610476D01*
X81370533Y-99610476D02*
X81513390Y-99658095D01*
X81513390Y-99658095D02*
X82084819Y-100229523D01*
X82084819Y-100229523D02*
X82084819Y-99610476D01*
X81084819Y-98753333D02*
X81084819Y-98943809D01*
X81084819Y-98943809D02*
X81132438Y-99039047D01*
X81132438Y-99039047D02*
X81180057Y-99086666D01*
X81180057Y-99086666D02*
X81322914Y-99181904D01*
X81322914Y-99181904D02*
X81513390Y-99229523D01*
X81513390Y-99229523D02*
X81894342Y-99229523D01*
X81894342Y-99229523D02*
X81989580Y-99181904D01*
X81989580Y-99181904D02*
X82037200Y-99134285D01*
X82037200Y-99134285D02*
X82084819Y-99039047D01*
X82084819Y-99039047D02*
X82084819Y-98848571D01*
X82084819Y-98848571D02*
X82037200Y-98753333D01*
X82037200Y-98753333D02*
X81989580Y-98705714D01*
X81989580Y-98705714D02*
X81894342Y-98658095D01*
X81894342Y-98658095D02*
X81656247Y-98658095D01*
X81656247Y-98658095D02*
X81561009Y-98705714D01*
X81561009Y-98705714D02*
X81513390Y-98753333D01*
X81513390Y-98753333D02*
X81465771Y-98848571D01*
X81465771Y-98848571D02*
X81465771Y-99039047D01*
X81465771Y-99039047D02*
X81513390Y-99134285D01*
X81513390Y-99134285D02*
X81561009Y-99181904D01*
X81561009Y-99181904D02*
X81656247Y-99229523D01*
X69454819Y-73761904D02*
X70264342Y-73761904D01*
X70264342Y-73761904D02*
X70359580Y-73714285D01*
X70359580Y-73714285D02*
X70407200Y-73666666D01*
X70407200Y-73666666D02*
X70454819Y-73571428D01*
X70454819Y-73571428D02*
X70454819Y-73380952D01*
X70454819Y-73380952D02*
X70407200Y-73285714D01*
X70407200Y-73285714D02*
X70359580Y-73238095D01*
X70359580Y-73238095D02*
X70264342Y-73190476D01*
X70264342Y-73190476D02*
X69454819Y-73190476D01*
X69788152Y-72285714D02*
X70454819Y-72285714D01*
X69407200Y-72523809D02*
X70121485Y-72761904D01*
X70121485Y-72761904D02*
X70121485Y-72142857D01*
X108048095Y-52124819D02*
X108048095Y-52934342D01*
X108048095Y-52934342D02*
X108095714Y-53029580D01*
X108095714Y-53029580D02*
X108143333Y-53077200D01*
X108143333Y-53077200D02*
X108238571Y-53124819D01*
X108238571Y-53124819D02*
X108429047Y-53124819D01*
X108429047Y-53124819D02*
X108524285Y-53077200D01*
X108524285Y-53077200D02*
X108571904Y-53029580D01*
X108571904Y-53029580D02*
X108619523Y-52934342D01*
X108619523Y-52934342D02*
X108619523Y-52124819D01*
X109143333Y-53124819D02*
X109333809Y-53124819D01*
X109333809Y-53124819D02*
X109429047Y-53077200D01*
X109429047Y-53077200D02*
X109476666Y-53029580D01*
X109476666Y-53029580D02*
X109571904Y-52886723D01*
X109571904Y-52886723D02*
X109619523Y-52696247D01*
X109619523Y-52696247D02*
X109619523Y-52315295D01*
X109619523Y-52315295D02*
X109571904Y-52220057D01*
X109571904Y-52220057D02*
X109524285Y-52172438D01*
X109524285Y-52172438D02*
X109429047Y-52124819D01*
X109429047Y-52124819D02*
X109238571Y-52124819D01*
X109238571Y-52124819D02*
X109143333Y-52172438D01*
X109143333Y-52172438D02*
X109095714Y-52220057D01*
X109095714Y-52220057D02*
X109048095Y-52315295D01*
X109048095Y-52315295D02*
X109048095Y-52553390D01*
X109048095Y-52553390D02*
X109095714Y-52648628D01*
X109095714Y-52648628D02*
X109143333Y-52696247D01*
X109143333Y-52696247D02*
X109238571Y-52743866D01*
X109238571Y-52743866D02*
X109429047Y-52743866D01*
X109429047Y-52743866D02*
X109524285Y-52696247D01*
X109524285Y-52696247D02*
X109571904Y-52648628D01*
X109571904Y-52648628D02*
X109619523Y-52553390D01*
X42438095Y-11954819D02*
X43009523Y-11954819D01*
X42723809Y-12954819D02*
X42723809Y-11954819D01*
X43342857Y-12954819D02*
X43342857Y-11954819D01*
X43342857Y-11954819D02*
X43723809Y-11954819D01*
X43723809Y-11954819D02*
X43819047Y-12002438D01*
X43819047Y-12002438D02*
X43866666Y-12050057D01*
X43866666Y-12050057D02*
X43914285Y-12145295D01*
X43914285Y-12145295D02*
X43914285Y-12288152D01*
X43914285Y-12288152D02*
X43866666Y-12383390D01*
X43866666Y-12383390D02*
X43819047Y-12431009D01*
X43819047Y-12431009D02*
X43723809Y-12478628D01*
X43723809Y-12478628D02*
X43342857Y-12478628D01*
X44866666Y-12954819D02*
X44295238Y-12954819D01*
X44580952Y-12954819D02*
X44580952Y-11954819D01*
X44580952Y-11954819D02*
X44485714Y-12097676D01*
X44485714Y-12097676D02*
X44390476Y-12192914D01*
X44390476Y-12192914D02*
X44295238Y-12240533D01*
X80438095Y-11954819D02*
X81009523Y-11954819D01*
X80723809Y-12954819D02*
X80723809Y-11954819D01*
X81342857Y-12954819D02*
X81342857Y-11954819D01*
X81342857Y-11954819D02*
X81723809Y-11954819D01*
X81723809Y-11954819D02*
X81819047Y-12002438D01*
X81819047Y-12002438D02*
X81866666Y-12050057D01*
X81866666Y-12050057D02*
X81914285Y-12145295D01*
X81914285Y-12145295D02*
X81914285Y-12288152D01*
X81914285Y-12288152D02*
X81866666Y-12383390D01*
X81866666Y-12383390D02*
X81819047Y-12431009D01*
X81819047Y-12431009D02*
X81723809Y-12478628D01*
X81723809Y-12478628D02*
X81342857Y-12478628D01*
X82819047Y-11954819D02*
X82342857Y-11954819D01*
X82342857Y-11954819D02*
X82295238Y-12431009D01*
X82295238Y-12431009D02*
X82342857Y-12383390D01*
X82342857Y-12383390D02*
X82438095Y-12335771D01*
X82438095Y-12335771D02*
X82676190Y-12335771D01*
X82676190Y-12335771D02*
X82771428Y-12383390D01*
X82771428Y-12383390D02*
X82819047Y-12431009D01*
X82819047Y-12431009D02*
X82866666Y-12526247D01*
X82866666Y-12526247D02*
X82866666Y-12764342D01*
X82866666Y-12764342D02*
X82819047Y-12859580D01*
X82819047Y-12859580D02*
X82771428Y-12907200D01*
X82771428Y-12907200D02*
X82676190Y-12954819D01*
X82676190Y-12954819D02*
X82438095Y-12954819D01*
X82438095Y-12954819D02*
X82342857Y-12907200D01*
X82342857Y-12907200D02*
X82295238Y-12859580D01*
X116084819Y-130562857D02*
X115608628Y-130896190D01*
X116084819Y-131134285D02*
X115084819Y-131134285D01*
X115084819Y-131134285D02*
X115084819Y-130753333D01*
X115084819Y-130753333D02*
X115132438Y-130658095D01*
X115132438Y-130658095D02*
X115180057Y-130610476D01*
X115180057Y-130610476D02*
X115275295Y-130562857D01*
X115275295Y-130562857D02*
X115418152Y-130562857D01*
X115418152Y-130562857D02*
X115513390Y-130610476D01*
X115513390Y-130610476D02*
X115561009Y-130658095D01*
X115561009Y-130658095D02*
X115608628Y-130753333D01*
X115608628Y-130753333D02*
X115608628Y-131134285D01*
X115084819Y-130229523D02*
X115084819Y-129610476D01*
X115084819Y-129610476D02*
X115465771Y-129943809D01*
X115465771Y-129943809D02*
X115465771Y-129800952D01*
X115465771Y-129800952D02*
X115513390Y-129705714D01*
X115513390Y-129705714D02*
X115561009Y-129658095D01*
X115561009Y-129658095D02*
X115656247Y-129610476D01*
X115656247Y-129610476D02*
X115894342Y-129610476D01*
X115894342Y-129610476D02*
X115989580Y-129658095D01*
X115989580Y-129658095D02*
X116037200Y-129705714D01*
X116037200Y-129705714D02*
X116084819Y-129800952D01*
X116084819Y-129800952D02*
X116084819Y-130086666D01*
X116084819Y-130086666D02*
X116037200Y-130181904D01*
X116037200Y-130181904D02*
X115989580Y-130229523D01*
X115084819Y-128991428D02*
X115084819Y-128896190D01*
X115084819Y-128896190D02*
X115132438Y-128800952D01*
X115132438Y-128800952D02*
X115180057Y-128753333D01*
X115180057Y-128753333D02*
X115275295Y-128705714D01*
X115275295Y-128705714D02*
X115465771Y-128658095D01*
X115465771Y-128658095D02*
X115703866Y-128658095D01*
X115703866Y-128658095D02*
X115894342Y-128705714D01*
X115894342Y-128705714D02*
X115989580Y-128753333D01*
X115989580Y-128753333D02*
X116037200Y-128800952D01*
X116037200Y-128800952D02*
X116084819Y-128896190D01*
X116084819Y-128896190D02*
X116084819Y-128991428D01*
X116084819Y-128991428D02*
X116037200Y-129086666D01*
X116037200Y-129086666D02*
X115989580Y-129134285D01*
X115989580Y-129134285D02*
X115894342Y-129181904D01*
X115894342Y-129181904D02*
X115703866Y-129229523D01*
X115703866Y-129229523D02*
X115465771Y-129229523D01*
X115465771Y-129229523D02*
X115275295Y-129181904D01*
X115275295Y-129181904D02*
X115180057Y-129134285D01*
X115180057Y-129134285D02*
X115132438Y-129086666D01*
X115132438Y-129086666D02*
X115084819Y-128991428D01*
X84438095Y-69954819D02*
X85009523Y-69954819D01*
X84723809Y-70954819D02*
X84723809Y-69954819D01*
X85342857Y-70954819D02*
X85342857Y-69954819D01*
X85342857Y-69954819D02*
X85723809Y-69954819D01*
X85723809Y-69954819D02*
X85819047Y-70002438D01*
X85819047Y-70002438D02*
X85866666Y-70050057D01*
X85866666Y-70050057D02*
X85914285Y-70145295D01*
X85914285Y-70145295D02*
X85914285Y-70288152D01*
X85914285Y-70288152D02*
X85866666Y-70383390D01*
X85866666Y-70383390D02*
X85819047Y-70431009D01*
X85819047Y-70431009D02*
X85723809Y-70478628D01*
X85723809Y-70478628D02*
X85342857Y-70478628D01*
X86295238Y-70050057D02*
X86342857Y-70002438D01*
X86342857Y-70002438D02*
X86438095Y-69954819D01*
X86438095Y-69954819D02*
X86676190Y-69954819D01*
X86676190Y-69954819D02*
X86771428Y-70002438D01*
X86771428Y-70002438D02*
X86819047Y-70050057D01*
X86819047Y-70050057D02*
X86866666Y-70145295D01*
X86866666Y-70145295D02*
X86866666Y-70240533D01*
X86866666Y-70240533D02*
X86819047Y-70383390D01*
X86819047Y-70383390D02*
X86247619Y-70954819D01*
X86247619Y-70954819D02*
X86866666Y-70954819D01*
X97048095Y-19124819D02*
X97048095Y-19934342D01*
X97048095Y-19934342D02*
X97095714Y-20029580D01*
X97095714Y-20029580D02*
X97143333Y-20077200D01*
X97143333Y-20077200D02*
X97238571Y-20124819D01*
X97238571Y-20124819D02*
X97429047Y-20124819D01*
X97429047Y-20124819D02*
X97524285Y-20077200D01*
X97524285Y-20077200D02*
X97571904Y-20029580D01*
X97571904Y-20029580D02*
X97619523Y-19934342D01*
X97619523Y-19934342D02*
X97619523Y-19124819D01*
X98000476Y-19124819D02*
X98619523Y-19124819D01*
X98619523Y-19124819D02*
X98286190Y-19505771D01*
X98286190Y-19505771D02*
X98429047Y-19505771D01*
X98429047Y-19505771D02*
X98524285Y-19553390D01*
X98524285Y-19553390D02*
X98571904Y-19601009D01*
X98571904Y-19601009D02*
X98619523Y-19696247D01*
X98619523Y-19696247D02*
X98619523Y-19934342D01*
X98619523Y-19934342D02*
X98571904Y-20029580D01*
X98571904Y-20029580D02*
X98524285Y-20077200D01*
X98524285Y-20077200D02*
X98429047Y-20124819D01*
X98429047Y-20124819D02*
X98143333Y-20124819D01*
X98143333Y-20124819D02*
X98048095Y-20077200D01*
X98048095Y-20077200D02*
X98000476Y-20029580D01*
X121084819Y-89562857D02*
X120608628Y-89896190D01*
X121084819Y-90134285D02*
X120084819Y-90134285D01*
X120084819Y-90134285D02*
X120084819Y-89753333D01*
X120084819Y-89753333D02*
X120132438Y-89658095D01*
X120132438Y-89658095D02*
X120180057Y-89610476D01*
X120180057Y-89610476D02*
X120275295Y-89562857D01*
X120275295Y-89562857D02*
X120418152Y-89562857D01*
X120418152Y-89562857D02*
X120513390Y-89610476D01*
X120513390Y-89610476D02*
X120561009Y-89658095D01*
X120561009Y-89658095D02*
X120608628Y-89753333D01*
X120608628Y-89753333D02*
X120608628Y-90134285D01*
X121084819Y-88610476D02*
X121084819Y-89181904D01*
X121084819Y-88896190D02*
X120084819Y-88896190D01*
X120084819Y-88896190D02*
X120227676Y-88991428D01*
X120227676Y-88991428D02*
X120322914Y-89086666D01*
X120322914Y-89086666D02*
X120370533Y-89181904D01*
X121084819Y-88134285D02*
X121084819Y-87943809D01*
X121084819Y-87943809D02*
X121037200Y-87848571D01*
X121037200Y-87848571D02*
X120989580Y-87800952D01*
X120989580Y-87800952D02*
X120846723Y-87705714D01*
X120846723Y-87705714D02*
X120656247Y-87658095D01*
X120656247Y-87658095D02*
X120275295Y-87658095D01*
X120275295Y-87658095D02*
X120180057Y-87705714D01*
X120180057Y-87705714D02*
X120132438Y-87753333D01*
X120132438Y-87753333D02*
X120084819Y-87848571D01*
X120084819Y-87848571D02*
X120084819Y-88039047D01*
X120084819Y-88039047D02*
X120132438Y-88134285D01*
X120132438Y-88134285D02*
X120180057Y-88181904D01*
X120180057Y-88181904D02*
X120275295Y-88229523D01*
X120275295Y-88229523D02*
X120513390Y-88229523D01*
X120513390Y-88229523D02*
X120608628Y-88181904D01*
X120608628Y-88181904D02*
X120656247Y-88134285D01*
X120656247Y-88134285D02*
X120703866Y-88039047D01*
X120703866Y-88039047D02*
X120703866Y-87848571D01*
X120703866Y-87848571D02*
X120656247Y-87753333D01*
X120656247Y-87753333D02*
X120608628Y-87705714D01*
X120608628Y-87705714D02*
X120513390Y-87658095D01*
X130084819Y-89562857D02*
X129608628Y-89896190D01*
X130084819Y-90134285D02*
X129084819Y-90134285D01*
X129084819Y-90134285D02*
X129084819Y-89753333D01*
X129084819Y-89753333D02*
X129132438Y-89658095D01*
X129132438Y-89658095D02*
X129180057Y-89610476D01*
X129180057Y-89610476D02*
X129275295Y-89562857D01*
X129275295Y-89562857D02*
X129418152Y-89562857D01*
X129418152Y-89562857D02*
X129513390Y-89610476D01*
X129513390Y-89610476D02*
X129561009Y-89658095D01*
X129561009Y-89658095D02*
X129608628Y-89753333D01*
X129608628Y-89753333D02*
X129608628Y-90134285D01*
X129180057Y-89181904D02*
X129132438Y-89134285D01*
X129132438Y-89134285D02*
X129084819Y-89039047D01*
X129084819Y-89039047D02*
X129084819Y-88800952D01*
X129084819Y-88800952D02*
X129132438Y-88705714D01*
X129132438Y-88705714D02*
X129180057Y-88658095D01*
X129180057Y-88658095D02*
X129275295Y-88610476D01*
X129275295Y-88610476D02*
X129370533Y-88610476D01*
X129370533Y-88610476D02*
X129513390Y-88658095D01*
X129513390Y-88658095D02*
X130084819Y-89229523D01*
X130084819Y-89229523D02*
X130084819Y-88610476D01*
X129084819Y-87991428D02*
X129084819Y-87896190D01*
X129084819Y-87896190D02*
X129132438Y-87800952D01*
X129132438Y-87800952D02*
X129180057Y-87753333D01*
X129180057Y-87753333D02*
X129275295Y-87705714D01*
X129275295Y-87705714D02*
X129465771Y-87658095D01*
X129465771Y-87658095D02*
X129703866Y-87658095D01*
X129703866Y-87658095D02*
X129894342Y-87705714D01*
X129894342Y-87705714D02*
X129989580Y-87753333D01*
X129989580Y-87753333D02*
X130037200Y-87800952D01*
X130037200Y-87800952D02*
X130084819Y-87896190D01*
X130084819Y-87896190D02*
X130084819Y-87991428D01*
X130084819Y-87991428D02*
X130037200Y-88086666D01*
X130037200Y-88086666D02*
X129989580Y-88134285D01*
X129989580Y-88134285D02*
X129894342Y-88181904D01*
X129894342Y-88181904D02*
X129703866Y-88229523D01*
X129703866Y-88229523D02*
X129465771Y-88229523D01*
X129465771Y-88229523D02*
X129275295Y-88181904D01*
X129275295Y-88181904D02*
X129180057Y-88134285D01*
X129180057Y-88134285D02*
X129132438Y-88086666D01*
X129132438Y-88086666D02*
X129084819Y-87991428D01*
X16858095Y-19124819D02*
X16858095Y-19934342D01*
X16858095Y-19934342D02*
X16905714Y-20029580D01*
X16905714Y-20029580D02*
X16953333Y-20077200D01*
X16953333Y-20077200D02*
X17048571Y-20124819D01*
X17048571Y-20124819D02*
X17239047Y-20124819D01*
X17239047Y-20124819D02*
X17334285Y-20077200D01*
X17334285Y-20077200D02*
X17381904Y-20029580D01*
X17381904Y-20029580D02*
X17429523Y-19934342D01*
X17429523Y-19934342D02*
X17429523Y-19124819D01*
X17858095Y-19220057D02*
X17905714Y-19172438D01*
X17905714Y-19172438D02*
X18000952Y-19124819D01*
X18000952Y-19124819D02*
X18239047Y-19124819D01*
X18239047Y-19124819D02*
X18334285Y-19172438D01*
X18334285Y-19172438D02*
X18381904Y-19220057D01*
X18381904Y-19220057D02*
X18429523Y-19315295D01*
X18429523Y-19315295D02*
X18429523Y-19410533D01*
X18429523Y-19410533D02*
X18381904Y-19553390D01*
X18381904Y-19553390D02*
X17810476Y-20124819D01*
X17810476Y-20124819D02*
X18429523Y-20124819D01*
X40739523Y-88144819D02*
X40406190Y-87668628D01*
X40168095Y-88144819D02*
X40168095Y-87144819D01*
X40168095Y-87144819D02*
X40549047Y-87144819D01*
X40549047Y-87144819D02*
X40644285Y-87192438D01*
X40644285Y-87192438D02*
X40691904Y-87240057D01*
X40691904Y-87240057D02*
X40739523Y-87335295D01*
X40739523Y-87335295D02*
X40739523Y-87478152D01*
X40739523Y-87478152D02*
X40691904Y-87573390D01*
X40691904Y-87573390D02*
X40644285Y-87621009D01*
X40644285Y-87621009D02*
X40549047Y-87668628D01*
X40549047Y-87668628D02*
X40168095Y-87668628D01*
X41168095Y-88144819D02*
X41168095Y-87144819D01*
X41168095Y-87144819D02*
X41739523Y-88144819D01*
X41739523Y-88144819D02*
X41739523Y-87144819D01*
X42644285Y-87478152D02*
X42644285Y-88144819D01*
X42406190Y-87097200D02*
X42168095Y-87811485D01*
X42168095Y-87811485D02*
X42787142Y-87811485D01*
X108084819Y-110562857D02*
X107608628Y-110896190D01*
X108084819Y-111134285D02*
X107084819Y-111134285D01*
X107084819Y-111134285D02*
X107084819Y-110753333D01*
X107084819Y-110753333D02*
X107132438Y-110658095D01*
X107132438Y-110658095D02*
X107180057Y-110610476D01*
X107180057Y-110610476D02*
X107275295Y-110562857D01*
X107275295Y-110562857D02*
X107418152Y-110562857D01*
X107418152Y-110562857D02*
X107513390Y-110610476D01*
X107513390Y-110610476D02*
X107561009Y-110658095D01*
X107561009Y-110658095D02*
X107608628Y-110753333D01*
X107608628Y-110753333D02*
X107608628Y-111134285D01*
X107180057Y-110181904D02*
X107132438Y-110134285D01*
X107132438Y-110134285D02*
X107084819Y-110039047D01*
X107084819Y-110039047D02*
X107084819Y-109800952D01*
X107084819Y-109800952D02*
X107132438Y-109705714D01*
X107132438Y-109705714D02*
X107180057Y-109658095D01*
X107180057Y-109658095D02*
X107275295Y-109610476D01*
X107275295Y-109610476D02*
X107370533Y-109610476D01*
X107370533Y-109610476D02*
X107513390Y-109658095D01*
X107513390Y-109658095D02*
X108084819Y-110229523D01*
X108084819Y-110229523D02*
X108084819Y-109610476D01*
X107084819Y-109277142D02*
X107084819Y-108658095D01*
X107084819Y-108658095D02*
X107465771Y-108991428D01*
X107465771Y-108991428D02*
X107465771Y-108848571D01*
X107465771Y-108848571D02*
X107513390Y-108753333D01*
X107513390Y-108753333D02*
X107561009Y-108705714D01*
X107561009Y-108705714D02*
X107656247Y-108658095D01*
X107656247Y-108658095D02*
X107894342Y-108658095D01*
X107894342Y-108658095D02*
X107989580Y-108705714D01*
X107989580Y-108705714D02*
X108037200Y-108753333D01*
X108037200Y-108753333D02*
X108084819Y-108848571D01*
X108084819Y-108848571D02*
X108084819Y-109134285D01*
X108084819Y-109134285D02*
X108037200Y-109229523D01*
X108037200Y-109229523D02*
X107989580Y-109277142D01*
X112084819Y-89562857D02*
X111608628Y-89896190D01*
X112084819Y-90134285D02*
X111084819Y-90134285D01*
X111084819Y-90134285D02*
X111084819Y-89753333D01*
X111084819Y-89753333D02*
X111132438Y-89658095D01*
X111132438Y-89658095D02*
X111180057Y-89610476D01*
X111180057Y-89610476D02*
X111275295Y-89562857D01*
X111275295Y-89562857D02*
X111418152Y-89562857D01*
X111418152Y-89562857D02*
X111513390Y-89610476D01*
X111513390Y-89610476D02*
X111561009Y-89658095D01*
X111561009Y-89658095D02*
X111608628Y-89753333D01*
X111608628Y-89753333D02*
X111608628Y-90134285D01*
X112084819Y-88610476D02*
X112084819Y-89181904D01*
X112084819Y-88896190D02*
X111084819Y-88896190D01*
X111084819Y-88896190D02*
X111227676Y-88991428D01*
X111227676Y-88991428D02*
X111322914Y-89086666D01*
X111322914Y-89086666D02*
X111370533Y-89181904D01*
X111513390Y-88039047D02*
X111465771Y-88134285D01*
X111465771Y-88134285D02*
X111418152Y-88181904D01*
X111418152Y-88181904D02*
X111322914Y-88229523D01*
X111322914Y-88229523D02*
X111275295Y-88229523D01*
X111275295Y-88229523D02*
X111180057Y-88181904D01*
X111180057Y-88181904D02*
X111132438Y-88134285D01*
X111132438Y-88134285D02*
X111084819Y-88039047D01*
X111084819Y-88039047D02*
X111084819Y-87848571D01*
X111084819Y-87848571D02*
X111132438Y-87753333D01*
X111132438Y-87753333D02*
X111180057Y-87705714D01*
X111180057Y-87705714D02*
X111275295Y-87658095D01*
X111275295Y-87658095D02*
X111322914Y-87658095D01*
X111322914Y-87658095D02*
X111418152Y-87705714D01*
X111418152Y-87705714D02*
X111465771Y-87753333D01*
X111465771Y-87753333D02*
X111513390Y-87848571D01*
X111513390Y-87848571D02*
X111513390Y-88039047D01*
X111513390Y-88039047D02*
X111561009Y-88134285D01*
X111561009Y-88134285D02*
X111608628Y-88181904D01*
X111608628Y-88181904D02*
X111703866Y-88229523D01*
X111703866Y-88229523D02*
X111894342Y-88229523D01*
X111894342Y-88229523D02*
X111989580Y-88181904D01*
X111989580Y-88181904D02*
X112037200Y-88134285D01*
X112037200Y-88134285D02*
X112084819Y-88039047D01*
X112084819Y-88039047D02*
X112084819Y-87848571D01*
X112084819Y-87848571D02*
X112037200Y-87753333D01*
X112037200Y-87753333D02*
X111989580Y-87705714D01*
X111989580Y-87705714D02*
X111894342Y-87658095D01*
X111894342Y-87658095D02*
X111703866Y-87658095D01*
X111703866Y-87658095D02*
X111608628Y-87705714D01*
X111608628Y-87705714D02*
X111561009Y-87753333D01*
X111561009Y-87753333D02*
X111513390Y-87848571D01*
X124084819Y-130562857D02*
X123608628Y-130896190D01*
X124084819Y-131134285D02*
X123084819Y-131134285D01*
X123084819Y-131134285D02*
X123084819Y-130753333D01*
X123084819Y-130753333D02*
X123132438Y-130658095D01*
X123132438Y-130658095D02*
X123180057Y-130610476D01*
X123180057Y-130610476D02*
X123275295Y-130562857D01*
X123275295Y-130562857D02*
X123418152Y-130562857D01*
X123418152Y-130562857D02*
X123513390Y-130610476D01*
X123513390Y-130610476D02*
X123561009Y-130658095D01*
X123561009Y-130658095D02*
X123608628Y-130753333D01*
X123608628Y-130753333D02*
X123608628Y-131134285D01*
X123084819Y-130229523D02*
X123084819Y-129610476D01*
X123084819Y-129610476D02*
X123465771Y-129943809D01*
X123465771Y-129943809D02*
X123465771Y-129800952D01*
X123465771Y-129800952D02*
X123513390Y-129705714D01*
X123513390Y-129705714D02*
X123561009Y-129658095D01*
X123561009Y-129658095D02*
X123656247Y-129610476D01*
X123656247Y-129610476D02*
X123894342Y-129610476D01*
X123894342Y-129610476D02*
X123989580Y-129658095D01*
X123989580Y-129658095D02*
X124037200Y-129705714D01*
X124037200Y-129705714D02*
X124084819Y-129800952D01*
X124084819Y-129800952D02*
X124084819Y-130086666D01*
X124084819Y-130086666D02*
X124037200Y-130181904D01*
X124037200Y-130181904D02*
X123989580Y-130229523D01*
X124084819Y-128658095D02*
X124084819Y-129229523D01*
X124084819Y-128943809D02*
X123084819Y-128943809D01*
X123084819Y-128943809D02*
X123227676Y-129039047D01*
X123227676Y-129039047D02*
X123322914Y-129134285D01*
X123322914Y-129134285D02*
X123370533Y-129229523D01*
X18166666Y-6334819D02*
X18166666Y-7049104D01*
X18166666Y-7049104D02*
X18119047Y-7191961D01*
X18119047Y-7191961D02*
X18023809Y-7287200D01*
X18023809Y-7287200D02*
X17880952Y-7334819D01*
X17880952Y-7334819D02*
X17785714Y-7334819D01*
X19166666Y-7334819D02*
X18595238Y-7334819D01*
X18880952Y-7334819D02*
X18880952Y-6334819D01*
X18880952Y-6334819D02*
X18785714Y-6477676D01*
X18785714Y-6477676D02*
X18690476Y-6572914D01*
X18690476Y-6572914D02*
X18595238Y-6620533D01*
X139084819Y-89562857D02*
X138608628Y-89896190D01*
X139084819Y-90134285D02*
X138084819Y-90134285D01*
X138084819Y-90134285D02*
X138084819Y-89753333D01*
X138084819Y-89753333D02*
X138132438Y-89658095D01*
X138132438Y-89658095D02*
X138180057Y-89610476D01*
X138180057Y-89610476D02*
X138275295Y-89562857D01*
X138275295Y-89562857D02*
X138418152Y-89562857D01*
X138418152Y-89562857D02*
X138513390Y-89610476D01*
X138513390Y-89610476D02*
X138561009Y-89658095D01*
X138561009Y-89658095D02*
X138608628Y-89753333D01*
X138608628Y-89753333D02*
X138608628Y-90134285D01*
X138180057Y-89181904D02*
X138132438Y-89134285D01*
X138132438Y-89134285D02*
X138084819Y-89039047D01*
X138084819Y-89039047D02*
X138084819Y-88800952D01*
X138084819Y-88800952D02*
X138132438Y-88705714D01*
X138132438Y-88705714D02*
X138180057Y-88658095D01*
X138180057Y-88658095D02*
X138275295Y-88610476D01*
X138275295Y-88610476D02*
X138370533Y-88610476D01*
X138370533Y-88610476D02*
X138513390Y-88658095D01*
X138513390Y-88658095D02*
X139084819Y-89229523D01*
X139084819Y-89229523D02*
X139084819Y-88610476D01*
X139084819Y-87658095D02*
X139084819Y-88229523D01*
X139084819Y-87943809D02*
X138084819Y-87943809D01*
X138084819Y-87943809D02*
X138227676Y-88039047D01*
X138227676Y-88039047D02*
X138322914Y-88134285D01*
X138322914Y-88134285D02*
X138370533Y-88229523D01*
X87174761Y-58990057D02*
X87079523Y-58942438D01*
X87079523Y-58942438D02*
X86984285Y-58847200D01*
X86984285Y-58847200D02*
X86841428Y-58704342D01*
X86841428Y-58704342D02*
X86746190Y-58656723D01*
X86746190Y-58656723D02*
X86650952Y-58656723D01*
X86698571Y-58894819D02*
X86603333Y-58847200D01*
X86603333Y-58847200D02*
X86508095Y-58751961D01*
X86508095Y-58751961D02*
X86460476Y-58561485D01*
X86460476Y-58561485D02*
X86460476Y-58228152D01*
X86460476Y-58228152D02*
X86508095Y-58037676D01*
X86508095Y-58037676D02*
X86603333Y-57942438D01*
X86603333Y-57942438D02*
X86698571Y-57894819D01*
X86698571Y-57894819D02*
X86889047Y-57894819D01*
X86889047Y-57894819D02*
X86984285Y-57942438D01*
X86984285Y-57942438D02*
X87079523Y-58037676D01*
X87079523Y-58037676D02*
X87127142Y-58228152D01*
X87127142Y-58228152D02*
X87127142Y-58561485D01*
X87127142Y-58561485D02*
X87079523Y-58751961D01*
X87079523Y-58751961D02*
X86984285Y-58847200D01*
X86984285Y-58847200D02*
X86889047Y-58894819D01*
X86889047Y-58894819D02*
X86698571Y-58894819D01*
X88079523Y-58894819D02*
X87508095Y-58894819D01*
X87793809Y-58894819D02*
X87793809Y-57894819D01*
X87793809Y-57894819D02*
X87698571Y-58037676D01*
X87698571Y-58037676D02*
X87603333Y-58132914D01*
X87603333Y-58132914D02*
X87508095Y-58180533D01*
X73438095Y-11954819D02*
X74009523Y-11954819D01*
X73723809Y-12954819D02*
X73723809Y-11954819D01*
X74342857Y-12954819D02*
X74342857Y-11954819D01*
X74342857Y-11954819D02*
X74723809Y-11954819D01*
X74723809Y-11954819D02*
X74819047Y-12002438D01*
X74819047Y-12002438D02*
X74866666Y-12050057D01*
X74866666Y-12050057D02*
X74914285Y-12145295D01*
X74914285Y-12145295D02*
X74914285Y-12288152D01*
X74914285Y-12288152D02*
X74866666Y-12383390D01*
X74866666Y-12383390D02*
X74819047Y-12431009D01*
X74819047Y-12431009D02*
X74723809Y-12478628D01*
X74723809Y-12478628D02*
X74342857Y-12478628D01*
X75771428Y-12288152D02*
X75771428Y-12954819D01*
X75533333Y-11907200D02*
X75295238Y-12621485D01*
X75295238Y-12621485D02*
X75914285Y-12621485D01*
X126571905Y-52124819D02*
X126571905Y-52934342D01*
X126571905Y-52934342D02*
X126619524Y-53029580D01*
X126619524Y-53029580D02*
X126667143Y-53077200D01*
X126667143Y-53077200D02*
X126762381Y-53124819D01*
X126762381Y-53124819D02*
X126952857Y-53124819D01*
X126952857Y-53124819D02*
X127048095Y-53077200D01*
X127048095Y-53077200D02*
X127095714Y-53029580D01*
X127095714Y-53029580D02*
X127143333Y-52934342D01*
X127143333Y-52934342D02*
X127143333Y-52124819D01*
X128143333Y-53124819D02*
X127571905Y-53124819D01*
X127857619Y-53124819D02*
X127857619Y-52124819D01*
X127857619Y-52124819D02*
X127762381Y-52267676D01*
X127762381Y-52267676D02*
X127667143Y-52362914D01*
X127667143Y-52362914D02*
X127571905Y-52410533D01*
X128762381Y-52124819D02*
X128857619Y-52124819D01*
X128857619Y-52124819D02*
X128952857Y-52172438D01*
X128952857Y-52172438D02*
X129000476Y-52220057D01*
X129000476Y-52220057D02*
X129048095Y-52315295D01*
X129048095Y-52315295D02*
X129095714Y-52505771D01*
X129095714Y-52505771D02*
X129095714Y-52743866D01*
X129095714Y-52743866D02*
X129048095Y-52934342D01*
X129048095Y-52934342D02*
X129000476Y-53029580D01*
X129000476Y-53029580D02*
X128952857Y-53077200D01*
X128952857Y-53077200D02*
X128857619Y-53124819D01*
X128857619Y-53124819D02*
X128762381Y-53124819D01*
X128762381Y-53124819D02*
X128667143Y-53077200D01*
X128667143Y-53077200D02*
X128619524Y-53029580D01*
X128619524Y-53029580D02*
X128571905Y-52934342D01*
X128571905Y-52934342D02*
X128524286Y-52743866D01*
X128524286Y-52743866D02*
X128524286Y-52505771D01*
X128524286Y-52505771D02*
X128571905Y-52315295D01*
X128571905Y-52315295D02*
X128619524Y-52220057D01*
X128619524Y-52220057D02*
X128667143Y-52172438D01*
X128667143Y-52172438D02*
X128762381Y-52124819D01*
X146048095Y-52124819D02*
X146048095Y-52934342D01*
X146048095Y-52934342D02*
X146095714Y-53029580D01*
X146095714Y-53029580D02*
X146143333Y-53077200D01*
X146143333Y-53077200D02*
X146238571Y-53124819D01*
X146238571Y-53124819D02*
X146429047Y-53124819D01*
X146429047Y-53124819D02*
X146524285Y-53077200D01*
X146524285Y-53077200D02*
X146571904Y-53029580D01*
X146571904Y-53029580D02*
X146619523Y-52934342D01*
X146619523Y-52934342D02*
X146619523Y-52124819D01*
X147000476Y-52124819D02*
X147667142Y-52124819D01*
X147667142Y-52124819D02*
X147238571Y-53124819D01*
X87438095Y-11954819D02*
X88009523Y-11954819D01*
X87723809Y-12954819D02*
X87723809Y-11954819D01*
X88342857Y-12954819D02*
X88342857Y-11954819D01*
X88342857Y-11954819D02*
X88723809Y-11954819D01*
X88723809Y-11954819D02*
X88819047Y-12002438D01*
X88819047Y-12002438D02*
X88866666Y-12050057D01*
X88866666Y-12050057D02*
X88914285Y-12145295D01*
X88914285Y-12145295D02*
X88914285Y-12288152D01*
X88914285Y-12288152D02*
X88866666Y-12383390D01*
X88866666Y-12383390D02*
X88819047Y-12431009D01*
X88819047Y-12431009D02*
X88723809Y-12478628D01*
X88723809Y-12478628D02*
X88342857Y-12478628D01*
X89771428Y-11954819D02*
X89580952Y-11954819D01*
X89580952Y-11954819D02*
X89485714Y-12002438D01*
X89485714Y-12002438D02*
X89438095Y-12050057D01*
X89438095Y-12050057D02*
X89342857Y-12192914D01*
X89342857Y-12192914D02*
X89295238Y-12383390D01*
X89295238Y-12383390D02*
X89295238Y-12764342D01*
X89295238Y-12764342D02*
X89342857Y-12859580D01*
X89342857Y-12859580D02*
X89390476Y-12907200D01*
X89390476Y-12907200D02*
X89485714Y-12954819D01*
X89485714Y-12954819D02*
X89676190Y-12954819D01*
X89676190Y-12954819D02*
X89771428Y-12907200D01*
X89771428Y-12907200D02*
X89819047Y-12859580D01*
X89819047Y-12859580D02*
X89866666Y-12764342D01*
X89866666Y-12764342D02*
X89866666Y-12526247D01*
X89866666Y-12526247D02*
X89819047Y-12431009D01*
X89819047Y-12431009D02*
X89771428Y-12383390D01*
X89771428Y-12383390D02*
X89676190Y-12335771D01*
X89676190Y-12335771D02*
X89485714Y-12335771D01*
X89485714Y-12335771D02*
X89390476Y-12383390D01*
X89390476Y-12383390D02*
X89342857Y-12431009D01*
X89342857Y-12431009D02*
X89295238Y-12526247D01*
X81048095Y-19124819D02*
X81048095Y-19934342D01*
X81048095Y-19934342D02*
X81095714Y-20029580D01*
X81095714Y-20029580D02*
X81143333Y-20077200D01*
X81143333Y-20077200D02*
X81238571Y-20124819D01*
X81238571Y-20124819D02*
X81429047Y-20124819D01*
X81429047Y-20124819D02*
X81524285Y-20077200D01*
X81524285Y-20077200D02*
X81571904Y-20029580D01*
X81571904Y-20029580D02*
X81619523Y-19934342D01*
X81619523Y-19934342D02*
X81619523Y-19124819D01*
X82238571Y-19553390D02*
X82143333Y-19505771D01*
X82143333Y-19505771D02*
X82095714Y-19458152D01*
X82095714Y-19458152D02*
X82048095Y-19362914D01*
X82048095Y-19362914D02*
X82048095Y-19315295D01*
X82048095Y-19315295D02*
X82095714Y-19220057D01*
X82095714Y-19220057D02*
X82143333Y-19172438D01*
X82143333Y-19172438D02*
X82238571Y-19124819D01*
X82238571Y-19124819D02*
X82429047Y-19124819D01*
X82429047Y-19124819D02*
X82524285Y-19172438D01*
X82524285Y-19172438D02*
X82571904Y-19220057D01*
X82571904Y-19220057D02*
X82619523Y-19315295D01*
X82619523Y-19315295D02*
X82619523Y-19362914D01*
X82619523Y-19362914D02*
X82571904Y-19458152D01*
X82571904Y-19458152D02*
X82524285Y-19505771D01*
X82524285Y-19505771D02*
X82429047Y-19553390D01*
X82429047Y-19553390D02*
X82238571Y-19553390D01*
X82238571Y-19553390D02*
X82143333Y-19601009D01*
X82143333Y-19601009D02*
X82095714Y-19648628D01*
X82095714Y-19648628D02*
X82048095Y-19743866D01*
X82048095Y-19743866D02*
X82048095Y-19934342D01*
X82048095Y-19934342D02*
X82095714Y-20029580D01*
X82095714Y-20029580D02*
X82143333Y-20077200D01*
X82143333Y-20077200D02*
X82238571Y-20124819D01*
X82238571Y-20124819D02*
X82429047Y-20124819D01*
X82429047Y-20124819D02*
X82524285Y-20077200D01*
X82524285Y-20077200D02*
X82571904Y-20029580D01*
X82571904Y-20029580D02*
X82619523Y-19934342D01*
X82619523Y-19934342D02*
X82619523Y-19743866D01*
X82619523Y-19743866D02*
X82571904Y-19648628D01*
X82571904Y-19648628D02*
X82524285Y-19601009D01*
X82524285Y-19601009D02*
X82429047Y-19553390D01*
X140084819Y-110562857D02*
X139608628Y-110896190D01*
X140084819Y-111134285D02*
X139084819Y-111134285D01*
X139084819Y-111134285D02*
X139084819Y-110753333D01*
X139084819Y-110753333D02*
X139132438Y-110658095D01*
X139132438Y-110658095D02*
X139180057Y-110610476D01*
X139180057Y-110610476D02*
X139275295Y-110562857D01*
X139275295Y-110562857D02*
X139418152Y-110562857D01*
X139418152Y-110562857D02*
X139513390Y-110610476D01*
X139513390Y-110610476D02*
X139561009Y-110658095D01*
X139561009Y-110658095D02*
X139608628Y-110753333D01*
X139608628Y-110753333D02*
X139608628Y-111134285D01*
X139180057Y-110181904D02*
X139132438Y-110134285D01*
X139132438Y-110134285D02*
X139084819Y-110039047D01*
X139084819Y-110039047D02*
X139084819Y-109800952D01*
X139084819Y-109800952D02*
X139132438Y-109705714D01*
X139132438Y-109705714D02*
X139180057Y-109658095D01*
X139180057Y-109658095D02*
X139275295Y-109610476D01*
X139275295Y-109610476D02*
X139370533Y-109610476D01*
X139370533Y-109610476D02*
X139513390Y-109658095D01*
X139513390Y-109658095D02*
X140084819Y-110229523D01*
X140084819Y-110229523D02*
X140084819Y-109610476D01*
X139084819Y-109277142D02*
X139084819Y-108610476D01*
X139084819Y-108610476D02*
X140084819Y-109039047D01*
X92739523Y-135144819D02*
X92406190Y-134668628D01*
X92168095Y-135144819D02*
X92168095Y-134144819D01*
X92168095Y-134144819D02*
X92549047Y-134144819D01*
X92549047Y-134144819D02*
X92644285Y-134192438D01*
X92644285Y-134192438D02*
X92691904Y-134240057D01*
X92691904Y-134240057D02*
X92739523Y-134335295D01*
X92739523Y-134335295D02*
X92739523Y-134478152D01*
X92739523Y-134478152D02*
X92691904Y-134573390D01*
X92691904Y-134573390D02*
X92644285Y-134621009D01*
X92644285Y-134621009D02*
X92549047Y-134668628D01*
X92549047Y-134668628D02*
X92168095Y-134668628D01*
X93168095Y-135144819D02*
X93168095Y-134144819D01*
X93168095Y-134144819D02*
X93739523Y-135144819D01*
X93739523Y-135144819D02*
X93739523Y-134144819D01*
X94120476Y-134144819D02*
X94739523Y-134144819D01*
X94739523Y-134144819D02*
X94406190Y-134525771D01*
X94406190Y-134525771D02*
X94549047Y-134525771D01*
X94549047Y-134525771D02*
X94644285Y-134573390D01*
X94644285Y-134573390D02*
X94691904Y-134621009D01*
X94691904Y-134621009D02*
X94739523Y-134716247D01*
X94739523Y-134716247D02*
X94739523Y-134954342D01*
X94739523Y-134954342D02*
X94691904Y-135049580D01*
X94691904Y-135049580D02*
X94644285Y-135097200D01*
X94644285Y-135097200D02*
X94549047Y-135144819D01*
X94549047Y-135144819D02*
X94263333Y-135144819D01*
X94263333Y-135144819D02*
X94168095Y-135097200D01*
X94168095Y-135097200D02*
X94120476Y-135049580D01*
X44739523Y-70144819D02*
X44406190Y-69668628D01*
X44168095Y-70144819D02*
X44168095Y-69144819D01*
X44168095Y-69144819D02*
X44549047Y-69144819D01*
X44549047Y-69144819D02*
X44644285Y-69192438D01*
X44644285Y-69192438D02*
X44691904Y-69240057D01*
X44691904Y-69240057D02*
X44739523Y-69335295D01*
X44739523Y-69335295D02*
X44739523Y-69478152D01*
X44739523Y-69478152D02*
X44691904Y-69573390D01*
X44691904Y-69573390D02*
X44644285Y-69621009D01*
X44644285Y-69621009D02*
X44549047Y-69668628D01*
X44549047Y-69668628D02*
X44168095Y-69668628D01*
X45168095Y-70144819D02*
X45168095Y-69144819D01*
X45168095Y-69144819D02*
X45739523Y-70144819D01*
X45739523Y-70144819D02*
X45739523Y-69144819D01*
X46168095Y-69240057D02*
X46215714Y-69192438D01*
X46215714Y-69192438D02*
X46310952Y-69144819D01*
X46310952Y-69144819D02*
X46549047Y-69144819D01*
X46549047Y-69144819D02*
X46644285Y-69192438D01*
X46644285Y-69192438D02*
X46691904Y-69240057D01*
X46691904Y-69240057D02*
X46739523Y-69335295D01*
X46739523Y-69335295D02*
X46739523Y-69430533D01*
X46739523Y-69430533D02*
X46691904Y-69573390D01*
X46691904Y-69573390D02*
X46120476Y-70144819D01*
X46120476Y-70144819D02*
X46739523Y-70144819D01*
X74084819Y-100562857D02*
X73608628Y-100896190D01*
X74084819Y-101134285D02*
X73084819Y-101134285D01*
X73084819Y-101134285D02*
X73084819Y-100753333D01*
X73084819Y-100753333D02*
X73132438Y-100658095D01*
X73132438Y-100658095D02*
X73180057Y-100610476D01*
X73180057Y-100610476D02*
X73275295Y-100562857D01*
X73275295Y-100562857D02*
X73418152Y-100562857D01*
X73418152Y-100562857D02*
X73513390Y-100610476D01*
X73513390Y-100610476D02*
X73561009Y-100658095D01*
X73561009Y-100658095D02*
X73608628Y-100753333D01*
X73608628Y-100753333D02*
X73608628Y-101134285D01*
X73180057Y-100181904D02*
X73132438Y-100134285D01*
X73132438Y-100134285D02*
X73084819Y-100039047D01*
X73084819Y-100039047D02*
X73084819Y-99800952D01*
X73084819Y-99800952D02*
X73132438Y-99705714D01*
X73132438Y-99705714D02*
X73180057Y-99658095D01*
X73180057Y-99658095D02*
X73275295Y-99610476D01*
X73275295Y-99610476D02*
X73370533Y-99610476D01*
X73370533Y-99610476D02*
X73513390Y-99658095D01*
X73513390Y-99658095D02*
X74084819Y-100229523D01*
X74084819Y-100229523D02*
X74084819Y-99610476D01*
X73084819Y-98705714D02*
X73084819Y-99181904D01*
X73084819Y-99181904D02*
X73561009Y-99229523D01*
X73561009Y-99229523D02*
X73513390Y-99181904D01*
X73513390Y-99181904D02*
X73465771Y-99086666D01*
X73465771Y-99086666D02*
X73465771Y-98848571D01*
X73465771Y-98848571D02*
X73513390Y-98753333D01*
X73513390Y-98753333D02*
X73561009Y-98705714D01*
X73561009Y-98705714D02*
X73656247Y-98658095D01*
X73656247Y-98658095D02*
X73894342Y-98658095D01*
X73894342Y-98658095D02*
X73989580Y-98705714D01*
X73989580Y-98705714D02*
X74037200Y-98753333D01*
X74037200Y-98753333D02*
X74084819Y-98848571D01*
X74084819Y-98848571D02*
X74084819Y-99086666D01*
X74084819Y-99086666D02*
X74037200Y-99181904D01*
X74037200Y-99181904D02*
X73989580Y-99229523D01*
X18739523Y-65144819D02*
X18406190Y-64668628D01*
X18168095Y-65144819D02*
X18168095Y-64144819D01*
X18168095Y-64144819D02*
X18549047Y-64144819D01*
X18549047Y-64144819D02*
X18644285Y-64192438D01*
X18644285Y-64192438D02*
X18691904Y-64240057D01*
X18691904Y-64240057D02*
X18739523Y-64335295D01*
X18739523Y-64335295D02*
X18739523Y-64478152D01*
X18739523Y-64478152D02*
X18691904Y-64573390D01*
X18691904Y-64573390D02*
X18644285Y-64621009D01*
X18644285Y-64621009D02*
X18549047Y-64668628D01*
X18549047Y-64668628D02*
X18168095Y-64668628D01*
X19168095Y-65144819D02*
X19168095Y-64144819D01*
X19168095Y-64144819D02*
X19739523Y-65144819D01*
X19739523Y-65144819D02*
X19739523Y-64144819D01*
X20739523Y-65144819D02*
X20168095Y-65144819D01*
X20453809Y-65144819D02*
X20453809Y-64144819D01*
X20453809Y-64144819D02*
X20358571Y-64287676D01*
X20358571Y-64287676D02*
X20263333Y-64382914D01*
X20263333Y-64382914D02*
X20168095Y-64430533D01*
X66084819Y-100562857D02*
X65608628Y-100896190D01*
X66084819Y-101134285D02*
X65084819Y-101134285D01*
X65084819Y-101134285D02*
X65084819Y-100753333D01*
X65084819Y-100753333D02*
X65132438Y-100658095D01*
X65132438Y-100658095D02*
X65180057Y-100610476D01*
X65180057Y-100610476D02*
X65275295Y-100562857D01*
X65275295Y-100562857D02*
X65418152Y-100562857D01*
X65418152Y-100562857D02*
X65513390Y-100610476D01*
X65513390Y-100610476D02*
X65561009Y-100658095D01*
X65561009Y-100658095D02*
X65608628Y-100753333D01*
X65608628Y-100753333D02*
X65608628Y-101134285D01*
X65180057Y-100181904D02*
X65132438Y-100134285D01*
X65132438Y-100134285D02*
X65084819Y-100039047D01*
X65084819Y-100039047D02*
X65084819Y-99800952D01*
X65084819Y-99800952D02*
X65132438Y-99705714D01*
X65132438Y-99705714D02*
X65180057Y-99658095D01*
X65180057Y-99658095D02*
X65275295Y-99610476D01*
X65275295Y-99610476D02*
X65370533Y-99610476D01*
X65370533Y-99610476D02*
X65513390Y-99658095D01*
X65513390Y-99658095D02*
X66084819Y-100229523D01*
X66084819Y-100229523D02*
X66084819Y-99610476D01*
X65418152Y-98753333D02*
X66084819Y-98753333D01*
X65037200Y-98991428D02*
X65751485Y-99229523D01*
X65751485Y-99229523D02*
X65751485Y-98610476D01*
X103084819Y-89562857D02*
X102608628Y-89896190D01*
X103084819Y-90134285D02*
X102084819Y-90134285D01*
X102084819Y-90134285D02*
X102084819Y-89753333D01*
X102084819Y-89753333D02*
X102132438Y-89658095D01*
X102132438Y-89658095D02*
X102180057Y-89610476D01*
X102180057Y-89610476D02*
X102275295Y-89562857D01*
X102275295Y-89562857D02*
X102418152Y-89562857D01*
X102418152Y-89562857D02*
X102513390Y-89610476D01*
X102513390Y-89610476D02*
X102561009Y-89658095D01*
X102561009Y-89658095D02*
X102608628Y-89753333D01*
X102608628Y-89753333D02*
X102608628Y-90134285D01*
X103084819Y-88610476D02*
X103084819Y-89181904D01*
X103084819Y-88896190D02*
X102084819Y-88896190D01*
X102084819Y-88896190D02*
X102227676Y-88991428D01*
X102227676Y-88991428D02*
X102322914Y-89086666D01*
X102322914Y-89086666D02*
X102370533Y-89181904D01*
X102084819Y-88277142D02*
X102084819Y-87610476D01*
X102084819Y-87610476D02*
X103084819Y-88039047D01*
X108084819Y-130562857D02*
X107608628Y-130896190D01*
X108084819Y-131134285D02*
X107084819Y-131134285D01*
X107084819Y-131134285D02*
X107084819Y-130753333D01*
X107084819Y-130753333D02*
X107132438Y-130658095D01*
X107132438Y-130658095D02*
X107180057Y-130610476D01*
X107180057Y-130610476D02*
X107275295Y-130562857D01*
X107275295Y-130562857D02*
X107418152Y-130562857D01*
X107418152Y-130562857D02*
X107513390Y-130610476D01*
X107513390Y-130610476D02*
X107561009Y-130658095D01*
X107561009Y-130658095D02*
X107608628Y-130753333D01*
X107608628Y-130753333D02*
X107608628Y-131134285D01*
X107180057Y-130181904D02*
X107132438Y-130134285D01*
X107132438Y-130134285D02*
X107084819Y-130039047D01*
X107084819Y-130039047D02*
X107084819Y-129800952D01*
X107084819Y-129800952D02*
X107132438Y-129705714D01*
X107132438Y-129705714D02*
X107180057Y-129658095D01*
X107180057Y-129658095D02*
X107275295Y-129610476D01*
X107275295Y-129610476D02*
X107370533Y-129610476D01*
X107370533Y-129610476D02*
X107513390Y-129658095D01*
X107513390Y-129658095D02*
X108084819Y-130229523D01*
X108084819Y-130229523D02*
X108084819Y-129610476D01*
X108084819Y-129134285D02*
X108084819Y-128943809D01*
X108084819Y-128943809D02*
X108037200Y-128848571D01*
X108037200Y-128848571D02*
X107989580Y-128800952D01*
X107989580Y-128800952D02*
X107846723Y-128705714D01*
X107846723Y-128705714D02*
X107656247Y-128658095D01*
X107656247Y-128658095D02*
X107275295Y-128658095D01*
X107275295Y-128658095D02*
X107180057Y-128705714D01*
X107180057Y-128705714D02*
X107132438Y-128753333D01*
X107132438Y-128753333D02*
X107084819Y-128848571D01*
X107084819Y-128848571D02*
X107084819Y-129039047D01*
X107084819Y-129039047D02*
X107132438Y-129134285D01*
X107132438Y-129134285D02*
X107180057Y-129181904D01*
X107180057Y-129181904D02*
X107275295Y-129229523D01*
X107275295Y-129229523D02*
X107513390Y-129229523D01*
X107513390Y-129229523D02*
X107608628Y-129181904D01*
X107608628Y-129181904D02*
X107656247Y-129134285D01*
X107656247Y-129134285D02*
X107703866Y-129039047D01*
X107703866Y-129039047D02*
X107703866Y-128848571D01*
X107703866Y-128848571D02*
X107656247Y-128753333D01*
X107656247Y-128753333D02*
X107608628Y-128705714D01*
X107608628Y-128705714D02*
X107513390Y-128658095D01*
X148084819Y-110562857D02*
X147608628Y-110896190D01*
X148084819Y-111134285D02*
X147084819Y-111134285D01*
X147084819Y-111134285D02*
X147084819Y-110753333D01*
X147084819Y-110753333D02*
X147132438Y-110658095D01*
X147132438Y-110658095D02*
X147180057Y-110610476D01*
X147180057Y-110610476D02*
X147275295Y-110562857D01*
X147275295Y-110562857D02*
X147418152Y-110562857D01*
X147418152Y-110562857D02*
X147513390Y-110610476D01*
X147513390Y-110610476D02*
X147561009Y-110658095D01*
X147561009Y-110658095D02*
X147608628Y-110753333D01*
X147608628Y-110753333D02*
X147608628Y-111134285D01*
X147180057Y-110181904D02*
X147132438Y-110134285D01*
X147132438Y-110134285D02*
X147084819Y-110039047D01*
X147084819Y-110039047D02*
X147084819Y-109800952D01*
X147084819Y-109800952D02*
X147132438Y-109705714D01*
X147132438Y-109705714D02*
X147180057Y-109658095D01*
X147180057Y-109658095D02*
X147275295Y-109610476D01*
X147275295Y-109610476D02*
X147370533Y-109610476D01*
X147370533Y-109610476D02*
X147513390Y-109658095D01*
X147513390Y-109658095D02*
X148084819Y-110229523D01*
X148084819Y-110229523D02*
X148084819Y-109610476D01*
X147513390Y-109039047D02*
X147465771Y-109134285D01*
X147465771Y-109134285D02*
X147418152Y-109181904D01*
X147418152Y-109181904D02*
X147322914Y-109229523D01*
X147322914Y-109229523D02*
X147275295Y-109229523D01*
X147275295Y-109229523D02*
X147180057Y-109181904D01*
X147180057Y-109181904D02*
X147132438Y-109134285D01*
X147132438Y-109134285D02*
X147084819Y-109039047D01*
X147084819Y-109039047D02*
X147084819Y-108848571D01*
X147084819Y-108848571D02*
X147132438Y-108753333D01*
X147132438Y-108753333D02*
X147180057Y-108705714D01*
X147180057Y-108705714D02*
X147275295Y-108658095D01*
X147275295Y-108658095D02*
X147322914Y-108658095D01*
X147322914Y-108658095D02*
X147418152Y-108705714D01*
X147418152Y-108705714D02*
X147465771Y-108753333D01*
X147465771Y-108753333D02*
X147513390Y-108848571D01*
X147513390Y-108848571D02*
X147513390Y-109039047D01*
X147513390Y-109039047D02*
X147561009Y-109134285D01*
X147561009Y-109134285D02*
X147608628Y-109181904D01*
X147608628Y-109181904D02*
X147703866Y-109229523D01*
X147703866Y-109229523D02*
X147894342Y-109229523D01*
X147894342Y-109229523D02*
X147989580Y-109181904D01*
X147989580Y-109181904D02*
X148037200Y-109134285D01*
X148037200Y-109134285D02*
X148084819Y-109039047D01*
X148084819Y-109039047D02*
X148084819Y-108848571D01*
X148084819Y-108848571D02*
X148037200Y-108753333D01*
X148037200Y-108753333D02*
X147989580Y-108705714D01*
X147989580Y-108705714D02*
X147894342Y-108658095D01*
X147894342Y-108658095D02*
X147703866Y-108658095D01*
X147703866Y-108658095D02*
X147608628Y-108705714D01*
X147608628Y-108705714D02*
X147561009Y-108753333D01*
X147561009Y-108753333D02*
X147513390Y-108848571D01*
X82739523Y-88144819D02*
X82406190Y-87668628D01*
X82168095Y-88144819D02*
X82168095Y-87144819D01*
X82168095Y-87144819D02*
X82549047Y-87144819D01*
X82549047Y-87144819D02*
X82644285Y-87192438D01*
X82644285Y-87192438D02*
X82691904Y-87240057D01*
X82691904Y-87240057D02*
X82739523Y-87335295D01*
X82739523Y-87335295D02*
X82739523Y-87478152D01*
X82739523Y-87478152D02*
X82691904Y-87573390D01*
X82691904Y-87573390D02*
X82644285Y-87621009D01*
X82644285Y-87621009D02*
X82549047Y-87668628D01*
X82549047Y-87668628D02*
X82168095Y-87668628D01*
X83168095Y-88144819D02*
X83168095Y-87144819D01*
X83168095Y-87144819D02*
X83739523Y-88144819D01*
X83739523Y-88144819D02*
X83739523Y-87144819D01*
X84691904Y-87144819D02*
X84215714Y-87144819D01*
X84215714Y-87144819D02*
X84168095Y-87621009D01*
X84168095Y-87621009D02*
X84215714Y-87573390D01*
X84215714Y-87573390D02*
X84310952Y-87525771D01*
X84310952Y-87525771D02*
X84549047Y-87525771D01*
X84549047Y-87525771D02*
X84644285Y-87573390D01*
X84644285Y-87573390D02*
X84691904Y-87621009D01*
X84691904Y-87621009D02*
X84739523Y-87716247D01*
X84739523Y-87716247D02*
X84739523Y-87954342D01*
X84739523Y-87954342D02*
X84691904Y-88049580D01*
X84691904Y-88049580D02*
X84644285Y-88097200D01*
X84644285Y-88097200D02*
X84549047Y-88144819D01*
X84549047Y-88144819D02*
X84310952Y-88144819D01*
X84310952Y-88144819D02*
X84215714Y-88097200D01*
X84215714Y-88097200D02*
X84168095Y-88049580D01*
X58084819Y-100562857D02*
X57608628Y-100896190D01*
X58084819Y-101134285D02*
X57084819Y-101134285D01*
X57084819Y-101134285D02*
X57084819Y-100753333D01*
X57084819Y-100753333D02*
X57132438Y-100658095D01*
X57132438Y-100658095D02*
X57180057Y-100610476D01*
X57180057Y-100610476D02*
X57275295Y-100562857D01*
X57275295Y-100562857D02*
X57418152Y-100562857D01*
X57418152Y-100562857D02*
X57513390Y-100610476D01*
X57513390Y-100610476D02*
X57561009Y-100658095D01*
X57561009Y-100658095D02*
X57608628Y-100753333D01*
X57608628Y-100753333D02*
X57608628Y-101134285D01*
X57180057Y-100181904D02*
X57132438Y-100134285D01*
X57132438Y-100134285D02*
X57084819Y-100039047D01*
X57084819Y-100039047D02*
X57084819Y-99800952D01*
X57084819Y-99800952D02*
X57132438Y-99705714D01*
X57132438Y-99705714D02*
X57180057Y-99658095D01*
X57180057Y-99658095D02*
X57275295Y-99610476D01*
X57275295Y-99610476D02*
X57370533Y-99610476D01*
X57370533Y-99610476D02*
X57513390Y-99658095D01*
X57513390Y-99658095D02*
X58084819Y-100229523D01*
X58084819Y-100229523D02*
X58084819Y-99610476D01*
X57180057Y-99229523D02*
X57132438Y-99181904D01*
X57132438Y-99181904D02*
X57084819Y-99086666D01*
X57084819Y-99086666D02*
X57084819Y-98848571D01*
X57084819Y-98848571D02*
X57132438Y-98753333D01*
X57132438Y-98753333D02*
X57180057Y-98705714D01*
X57180057Y-98705714D02*
X57275295Y-98658095D01*
X57275295Y-98658095D02*
X57370533Y-98658095D01*
X57370533Y-98658095D02*
X57513390Y-98705714D01*
X57513390Y-98705714D02*
X58084819Y-99277142D01*
X58084819Y-99277142D02*
X58084819Y-98658095D01*
X49438095Y-11954819D02*
X50009523Y-11954819D01*
X49723809Y-12954819D02*
X49723809Y-11954819D01*
X50342857Y-12954819D02*
X50342857Y-11954819D01*
X50342857Y-11954819D02*
X50723809Y-11954819D01*
X50723809Y-11954819D02*
X50819047Y-12002438D01*
X50819047Y-12002438D02*
X50866666Y-12050057D01*
X50866666Y-12050057D02*
X50914285Y-12145295D01*
X50914285Y-12145295D02*
X50914285Y-12288152D01*
X50914285Y-12288152D02*
X50866666Y-12383390D01*
X50866666Y-12383390D02*
X50819047Y-12431009D01*
X50819047Y-12431009D02*
X50723809Y-12478628D01*
X50723809Y-12478628D02*
X50342857Y-12478628D01*
X51247619Y-11954819D02*
X51866666Y-11954819D01*
X51866666Y-11954819D02*
X51533333Y-12335771D01*
X51533333Y-12335771D02*
X51676190Y-12335771D01*
X51676190Y-12335771D02*
X51771428Y-12383390D01*
X51771428Y-12383390D02*
X51819047Y-12431009D01*
X51819047Y-12431009D02*
X51866666Y-12526247D01*
X51866666Y-12526247D02*
X51866666Y-12764342D01*
X51866666Y-12764342D02*
X51819047Y-12859580D01*
X51819047Y-12859580D02*
X51771428Y-12907200D01*
X51771428Y-12907200D02*
X51676190Y-12954819D01*
X51676190Y-12954819D02*
X51390476Y-12954819D01*
X51390476Y-12954819D02*
X51295238Y-12907200D01*
X51295238Y-12907200D02*
X51247619Y-12859580D01*
X14738095Y-103354819D02*
X14738095Y-102354819D01*
X15309523Y-103354819D02*
X14880952Y-102783390D01*
X15309523Y-102354819D02*
X14738095Y-102926247D01*
%TO.C,TP7*%
D10*
X96700000Y-10000000D02*
G75*
G02*
X93300000Y-10000000I-1700000J0D01*
G01*
X93300000Y-10000000D02*
G75*
G02*
X96700000Y-10000000I1700000J0D01*
G01*
%TO.C,U1*%
X41160000Y-15670000D02*
X41160000Y-66590000D01*
X41160000Y-66590000D02*
X54080000Y-66590000D01*
X46620000Y-15670000D02*
X41160000Y-15670000D01*
X54080000Y-15670000D02*
X48620000Y-15670000D01*
X54080000Y-66590000D02*
X54080000Y-15670000D01*
X48620000Y-15670000D02*
G75*
G02*
X46620000Y-15670000I-1000000J0D01*
G01*
%TO.C,R26*%
X84000000Y-95880000D02*
X84000000Y-96650000D01*
X84000000Y-103960000D02*
X84000000Y-103190000D01*
X82630000Y-96650000D02*
X85370000Y-96650000D01*
X85370000Y-103190000D01*
X82630000Y-103190000D01*
X82630000Y-96650000D01*
%TO.C,U4*%
X56670000Y-63540000D02*
X56670000Y-65190000D01*
X56670000Y-67190000D02*
X56670000Y-68840000D01*
X56670000Y-68840000D02*
X82190000Y-68840000D01*
X82190000Y-63540000D02*
X56670000Y-63540000D01*
X82190000Y-68840000D02*
X82190000Y-63540000D01*
X56670000Y-65190000D02*
G75*
G02*
X56670000Y-67190000I0J-1000000D01*
G01*
%TO.C,U9*%
X106160000Y-53670000D02*
X106160000Y-79190000D01*
X106160000Y-79190000D02*
X111460000Y-79190000D01*
X107810000Y-53670000D02*
X106160000Y-53670000D01*
X111460000Y-53670000D02*
X109810000Y-53670000D01*
X111460000Y-79190000D02*
X111460000Y-53670000D01*
X109810000Y-53670000D02*
G75*
G02*
X107810000Y-53670000I-1000000J0D01*
G01*
%TO.C,TP1*%
X44700000Y-10000000D02*
G75*
G02*
X41300000Y-10000000I-1700000J0D01*
G01*
X41300000Y-10000000D02*
G75*
G02*
X44700000Y-10000000I1700000J0D01*
G01*
%TO.C,TP5*%
X82700000Y-10000000D02*
G75*
G02*
X79300000Y-10000000I-1700000J0D01*
G01*
X79300000Y-10000000D02*
G75*
G02*
X82700000Y-10000000I1700000J0D01*
G01*
%TO.C,R30*%
X118000000Y-125880000D02*
X118000000Y-126650000D01*
X118000000Y-133960000D02*
X118000000Y-133190000D01*
X116630000Y-126650000D02*
X119370000Y-126650000D01*
X119370000Y-133190000D01*
X116630000Y-133190000D01*
X116630000Y-126650000D01*
%TO.C,TP2*%
X86700000Y-68000000D02*
G75*
G02*
X83300000Y-68000000I-1700000J0D01*
G01*
X83300000Y-68000000D02*
G75*
G02*
X86700000Y-68000000I1700000J0D01*
G01*
%TO.C,U3*%
X95160000Y-20670000D02*
X95160000Y-51270000D01*
X95160000Y-51270000D02*
X100460000Y-51270000D01*
X96810000Y-20670000D02*
X95160000Y-20670000D01*
X100460000Y-20670000D02*
X98810000Y-20670000D01*
X100460000Y-51270000D02*
X100460000Y-20670000D01*
X98810000Y-20670000D02*
G75*
G02*
X96810000Y-20670000I-1000000J0D01*
G01*
%TO.C,R19*%
X123000000Y-84880000D02*
X123000000Y-85650000D01*
X123000000Y-92960000D02*
X123000000Y-92190000D01*
X121630000Y-85650000D02*
X124370000Y-85650000D01*
X124370000Y-92190000D01*
X121630000Y-92190000D01*
X121630000Y-85650000D01*
%TO.C,R20*%
X132000000Y-84880000D02*
X132000000Y-85650000D01*
X132000000Y-92960000D02*
X132000000Y-92190000D01*
X130630000Y-85650000D02*
X133370000Y-85650000D01*
X133370000Y-92190000D01*
X130630000Y-92190000D01*
X130630000Y-85650000D01*
%TO.C,U2*%
X11160000Y-20670000D02*
X11160000Y-61430000D01*
X11160000Y-61430000D02*
X24080000Y-61430000D01*
X16620000Y-20670000D02*
X11160000Y-20670000D01*
X24080000Y-20670000D02*
X18620000Y-20670000D01*
X24080000Y-61430000D02*
X24080000Y-20670000D01*
X18620000Y-20670000D02*
G75*
G02*
X16620000Y-20670000I-1000000J0D01*
G01*
%TO.C,RN4*%
X31270000Y-88690000D02*
X31270000Y-91310000D01*
X28650000Y-88690000D02*
X51670000Y-88690000D01*
X51670000Y-91310000D01*
X28650000Y-91310000D01*
X28650000Y-88690000D01*
%TO.C,R23*%
X110000000Y-105880000D02*
X110000000Y-106650000D01*
X110000000Y-113960000D02*
X110000000Y-113190000D01*
X108630000Y-106650000D02*
X111370000Y-106650000D01*
X111370000Y-113190000D01*
X108630000Y-113190000D01*
X108630000Y-106650000D01*
%TO.C,R18*%
X114000000Y-84880000D02*
X114000000Y-85650000D01*
X114000000Y-92960000D02*
X114000000Y-92190000D01*
X112630000Y-85650000D02*
X115370000Y-85650000D01*
X115370000Y-92190000D01*
X112630000Y-92190000D01*
X112630000Y-85650000D01*
%TO.C,R31*%
X126000000Y-125880000D02*
X126000000Y-126650000D01*
X126000000Y-133960000D02*
X126000000Y-133190000D01*
X124630000Y-126650000D02*
X127370000Y-126650000D01*
X127370000Y-133190000D01*
X124630000Y-133190000D01*
X124630000Y-126650000D01*
%TO.C,J1*%
X13380000Y-7880000D02*
X23620000Y-7880000D01*
X13380000Y-15000000D02*
X23620000Y-15000000D01*
X13380000Y-17120000D02*
X13380000Y-7880000D01*
X15700000Y-17120000D02*
X13380000Y-17120000D01*
X23620000Y-7880000D02*
X23620000Y-17120000D01*
X23620000Y-17120000D02*
X16300000Y-17120000D01*
X17000000Y-9800000D02*
G75*
G02*
X15000000Y-9800000I-1000000J0D01*
G01*
X15000000Y-9800000D02*
G75*
G02*
X17000000Y-9800000I1000000J0D01*
G01*
X22000000Y-9800000D02*
G75*
G02*
X20000000Y-9800000I-1000000J0D01*
G01*
X20000000Y-9800000D02*
G75*
G02*
X22000000Y-9800000I1000000J0D01*
G01*
X16000000Y-17120000D02*
X16440000Y-17730000D01*
X15560000Y-17730000D01*
X16000000Y-17120000D01*
G36*
X16440000Y-17730000D02*
G01*
X15560000Y-17730000D01*
X16000000Y-17120000D01*
X16440000Y-17730000D01*
G37*
%TO.C,R21*%
X141000000Y-84880000D02*
X141000000Y-85650000D01*
X141000000Y-92960000D02*
X141000000Y-92190000D01*
X139630000Y-85650000D02*
X142370000Y-85650000D01*
X142370000Y-92190000D01*
X139630000Y-92190000D01*
X139630000Y-85650000D01*
%TO.C,Q1*%
X85470000Y-63850000D02*
X89070000Y-63850000D01*
X85431522Y-63838478D02*
G75*
G02*
X87270000Y-59399999I1838478J1838478D01*
G01*
X87270000Y-59400000D02*
G75*
G02*
X89108478Y-63838478I0J-2600000D01*
G01*
%TO.C,TP4*%
X75700000Y-10000000D02*
G75*
G02*
X72300000Y-10000000I-1700000J0D01*
G01*
X72300000Y-10000000D02*
G75*
G02*
X75700000Y-10000000I1700000J0D01*
G01*
%TO.C,U10*%
X125160000Y-53670000D02*
X125160000Y-79190000D01*
X125160000Y-79190000D02*
X130460000Y-79190000D01*
X126810000Y-53670000D02*
X125160000Y-53670000D01*
X130460000Y-53670000D02*
X128810000Y-53670000D01*
X130460000Y-79190000D02*
X130460000Y-53670000D01*
X128810000Y-53670000D02*
G75*
G02*
X126810000Y-53670000I-1000000J0D01*
G01*
%TO.C,U7*%
X144160000Y-53670000D02*
X144160000Y-79190000D01*
X144160000Y-79190000D02*
X149460000Y-79190000D01*
X145810000Y-53670000D02*
X144160000Y-53670000D01*
X149460000Y-53670000D02*
X147810000Y-53670000D01*
X149460000Y-79190000D02*
X149460000Y-53670000D01*
X147810000Y-53670000D02*
G75*
G02*
X145810000Y-53670000I-1000000J0D01*
G01*
%TO.C,TP6*%
X89700000Y-10000000D02*
G75*
G02*
X86300000Y-10000000I-1700000J0D01*
G01*
X86300000Y-10000000D02*
G75*
G02*
X89700000Y-10000000I1700000J0D01*
G01*
%TO.C,U8*%
X79160000Y-20670000D02*
X79160000Y-56350000D01*
X79160000Y-56350000D02*
X84460000Y-56350000D01*
X80810000Y-20670000D02*
X79160000Y-20670000D01*
X84460000Y-20670000D02*
X82810000Y-20670000D01*
X84460000Y-56350000D02*
X84460000Y-20670000D01*
X82810000Y-20670000D02*
G75*
G02*
X80810000Y-20670000I-1000000J0D01*
G01*
%TO.C,R27*%
X142000000Y-105880000D02*
X142000000Y-106650000D01*
X142000000Y-113960000D02*
X142000000Y-113190000D01*
X140630000Y-106650000D02*
X143370000Y-106650000D01*
X143370000Y-113190000D01*
X140630000Y-113190000D01*
X140630000Y-106650000D01*
%TO.C,RN3*%
X83270000Y-135690000D02*
X83270000Y-138310000D01*
X80650000Y-135690000D02*
X103670000Y-135690000D01*
X103670000Y-138310000D01*
X80650000Y-138310000D01*
X80650000Y-135690000D01*
%TO.C,RN2*%
X35270000Y-70690000D02*
X35270000Y-73310000D01*
X32650000Y-70690000D02*
X55670000Y-70690000D01*
X55670000Y-73310000D01*
X32650000Y-73310000D01*
X32650000Y-70690000D01*
%TO.C,R25*%
X76000000Y-95880000D02*
X76000000Y-96650000D01*
X76000000Y-103960000D02*
X76000000Y-103190000D01*
X74630000Y-96650000D02*
X77370000Y-96650000D01*
X77370000Y-103190000D01*
X74630000Y-103190000D01*
X74630000Y-96650000D01*
%TO.C,RN1*%
X9270000Y-65690000D02*
X9270000Y-68310000D01*
X6650000Y-65690000D02*
X29670000Y-65690000D01*
X29670000Y-68310000D01*
X6650000Y-68310000D01*
X6650000Y-65690000D01*
%TO.C,R24*%
X68000000Y-95880000D02*
X68000000Y-96650000D01*
X68000000Y-103960000D02*
X68000000Y-103190000D01*
X66630000Y-96650000D02*
X69370000Y-96650000D01*
X69370000Y-103190000D01*
X66630000Y-103190000D01*
X66630000Y-96650000D01*
%TO.C,R17*%
X105000000Y-84880000D02*
X105000000Y-85650000D01*
X105000000Y-92960000D02*
X105000000Y-92190000D01*
X103630000Y-85650000D02*
X106370000Y-85650000D01*
X106370000Y-92190000D01*
X103630000Y-92190000D01*
X103630000Y-85650000D01*
%TO.C,R29*%
X110000000Y-125880000D02*
X110000000Y-126650000D01*
X110000000Y-133960000D02*
X110000000Y-133190000D01*
X108630000Y-126650000D02*
X111370000Y-126650000D01*
X111370000Y-133190000D01*
X108630000Y-133190000D01*
X108630000Y-126650000D01*
%TO.C,R28*%
X150000000Y-105880000D02*
X150000000Y-106650000D01*
X150000000Y-113960000D02*
X150000000Y-113190000D01*
X148630000Y-106650000D02*
X151370000Y-106650000D01*
X151370000Y-113190000D01*
X148630000Y-113190000D01*
X148630000Y-106650000D01*
%TO.C,RN5*%
X73270000Y-88690000D02*
X73270000Y-91310000D01*
X70650000Y-88690000D02*
X93670000Y-88690000D01*
X93670000Y-91310000D01*
X70650000Y-91310000D01*
X70650000Y-88690000D01*
%TO.C,R22*%
X60000000Y-95880000D02*
X60000000Y-96650000D01*
X60000000Y-103960000D02*
X60000000Y-103190000D01*
X58630000Y-96650000D02*
X61370000Y-96650000D01*
X61370000Y-103190000D01*
X58630000Y-103190000D01*
X58630000Y-96650000D01*
%TO.C,TP3*%
X51700000Y-10000000D02*
G75*
G02*
X48300000Y-10000000I-1700000J0D01*
G01*
X48300000Y-10000000D02*
G75*
G02*
X51700000Y-10000000I1700000J0D01*
G01*
%TO.C,D1*%
X16340000Y-105000000D02*
X17360000Y-105000000D01*
X18140000Y-103530000D02*
X18140000Y-106470000D01*
X18260000Y-103530000D02*
X18260000Y-106470000D01*
X18380000Y-103530000D02*
X18380000Y-106470000D01*
X23820000Y-105000000D02*
X22800000Y-105000000D01*
X17360000Y-103530000D02*
X22800000Y-103530000D01*
X22800000Y-106470000D01*
X17360000Y-106470000D01*
X17360000Y-103530000D01*
%TD*%
M02*
