%TF.GenerationSoftware,KiCad,Pcbnew,10.0.6-10.0.6~ubuntu24.04.1*%
%TF.CreationDate,2026-09-12T11:49:14+00:00*%
%TF.ProjectId,z80_romless_sbc,7a38305f-726f-46d6-9c65-73735f736263,rev?*%
%TF.SameCoordinates,Original*%
%TF.FileFunction,Copper,L4,Bot*%
%TF.FilePolarity,Positive*%
%FSLAX46Y46*%
G04 Gerber Fmt 4.6, Leading zero omitted, Abs format (unit mm)*
G04 Created by KiCad (PCBNEW 10.0.6-10.0.6~ubuntu24.04.1) date 2026-09-12 11:49:14*
%MOMM*%
%LPD*%
G01*
G04 APERTURE LIST*
G04 Aperture macros list*
%AMRoundRect*
0 Rectangle with rounded corners*
0 $1 Rounding radius*
0 $2 $3 $4 $5 $6 $7 $8 $9 X,Y pos of 4 corners*
0 Add a 4 corners polygon primitive as box body*
4,1,4,$2,$3,$4,$5,$6,$7,$8,$9,$2,$3,0*
0 Add four circle primitives for the rounded corners*
1,1,$1+$1,$2,$3*
1,1,$1+$1,$4,$5*
1,1,$1+$1,$6,$7*
1,1,$1+$1,$8,$9*
0 Add four rect primitives between the rounded corners*
20,1,$1+$1,$2,$3,$4,$5,0*
20,1,$1+$1,$4,$5,$6,$7,0*
20,1,$1+$1,$6,$7,$8,$9,0*
20,1,$1+$1,$8,$9,$2,$3,0*%
%AMFreePoly0*
4,1,37,0.603843,0.796157,0.639018,0.796157,0.711114,0.766294,0.766294,0.711114,0.796157,0.639018,0.796157,0.603843,0.800000,0.600000,0.800000,-0.600000,0.796157,-0.603843,0.796157,-0.639018,0.766294,-0.711114,0.711114,-0.766294,0.639018,-0.796157,0.603843,-0.796157,0.600000,-0.800000,0.000000,-0.800000,0.000000,-0.796148,-0.078414,-0.796148,-0.232228,-0.765552,-0.377117,-0.705537,
-0.507515,-0.618408,-0.618408,-0.507515,-0.705537,-0.377117,-0.765552,-0.232228,-0.796148,-0.078414,-0.796148,0.078414,-0.765552,0.232228,-0.705537,0.377117,-0.618408,0.507515,-0.507515,0.618408,-0.377117,0.705537,-0.232228,0.765552,-0.078414,0.796148,0.000000,0.796148,0.000000,0.800000,0.600000,0.800000,0.603843,0.796157,0.603843,0.796157,$1*%
%AMFreePoly1*
4,1,37,0.000000,0.796148,0.078414,0.796148,0.232228,0.765552,0.377117,0.705537,0.507515,0.618408,0.618408,0.507515,0.705537,0.377117,0.765552,0.232228,0.796148,0.078414,0.796148,-0.078414,0.765552,-0.232228,0.705537,-0.377117,0.618408,-0.507515,0.507515,-0.618408,0.377117,-0.705537,0.232228,-0.765552,0.078414,-0.796148,0.000000,-0.796148,0.000000,-0.800000,-0.600000,-0.800000,
-0.603843,-0.796157,-0.639018,-0.796157,-0.711114,-0.766294,-0.766294,-0.711114,-0.796157,-0.639018,-0.796157,-0.603843,-0.800000,-0.600000,-0.800000,0.600000,-0.796157,0.603843,-0.796157,0.639018,-0.766294,0.711114,-0.711114,0.766294,-0.639018,0.796157,-0.603843,0.796157,-0.600000,0.800000,0.000000,0.800000,0.000000,0.796148,0.000000,0.796148,$1*%
G04 Aperture macros list end*
%TA.AperFunction,ComponentPad*%
%ADD10C,1.600000*%
%TD*%
%TA.AperFunction,ComponentPad*%
%ADD11R,1.600000X1.600000*%
%TD*%
%TA.AperFunction,ComponentPad*%
%ADD12RoundRect,0.250000X-0.550000X-0.550000X0.550000X-0.550000X0.550000X0.550000X-0.550000X0.550000X0*%
%TD*%
%TA.AperFunction,ComponentPad*%
%ADD13RoundRect,0.250000X0.550000X-0.550000X0.550000X0.550000X-0.550000X0.550000X-0.550000X-0.550000X0*%
%TD*%
%TA.AperFunction,ComponentPad*%
%ADD14R,1.050000X1.500000*%
%TD*%
%TA.AperFunction,ComponentPad*%
%ADD15O,1.050000X1.500000*%
%TD*%
%TA.AperFunction,ComponentPad*%
%ADD16RoundRect,0.249999X-0.850001X-0.850001X0.850001X-0.850001X0.850001X0.850001X-0.850001X0.850001X0*%
%TD*%
%TA.AperFunction,ComponentPad*%
%ADD17C,2.200000*%
%TD*%
%TA.AperFunction,ComponentPad*%
%ADD18C,1.800000*%
%TD*%
%TA.AperFunction,ComponentPad*%
%ADD19RoundRect,0.250000X-0.750000X-0.750000X0.750000X-0.750000X0.750000X0.750000X-0.750000X0.750000X0*%
%TD*%
%TA.AperFunction,ComponentPad*%
%ADD20C,2.000000*%
%TD*%
%TA.AperFunction,ComponentPad*%
%ADD21RoundRect,0.200000X0.600000X-0.600000X0.600000X0.600000X-0.600000X0.600000X-0.600000X-0.600000X0*%
%TD*%
%TA.AperFunction,ComponentPad*%
%ADD22FreePoly0,90.000000*%
%TD*%
%TA.AperFunction,ComponentPad*%
%ADD23FreePoly1,90.000000*%
%TD*%
%TA.AperFunction,ComponentPad*%
%ADD24RoundRect,0.249999X-1.250001X-1.250001X1.250001X-1.250001X1.250001X1.250001X-1.250001X1.250001X0*%
%TD*%
%TA.AperFunction,ComponentPad*%
%ADD25C,3.000000*%
%TD*%
%TA.AperFunction,ViaPad*%
%ADD26C,1.000000*%
%TD*%
%TA.AperFunction,ViaPad*%
%ADD27C,0.800000*%
%TD*%
%TA.AperFunction,Conductor*%
%ADD28C,0.600000*%
%TD*%
%TA.AperFunction,Conductor*%
%ADD29C,0.300000*%
%TD*%
G04 APERTURE END LIST*
D10*
%TO.P,R20,1*%
%TO.N,PICO_WE_N*%
X132000000Y-94000000D03*
%TO.P,R20,2*%
%TO.N,+3V3*%
X132000000Y-83840000D03*
%TD*%
D11*
%TO.P,RN2,1*%
%TO.N,+5V*%
X34000000Y-72000000D03*
D10*
%TO.P,RN2,2*%
%TO.N,A8*%
X36540000Y-72000000D03*
%TO.P,RN2,3*%
%TO.N,A9*%
X39080000Y-72000000D03*
%TO.P,RN2,4*%
%TO.N,A10*%
X41620000Y-72000000D03*
%TO.P,RN2,5*%
%TO.N,A11*%
X44160000Y-72000000D03*
%TO.P,RN2,6*%
%TO.N,A12*%
X46700000Y-72000000D03*
%TO.P,RN2,7*%
%TO.N,A13*%
X49240000Y-72000000D03*
%TO.P,RN2,8*%
%TO.N,A14*%
X51780000Y-72000000D03*
%TO.P,RN2,9*%
%TO.N,A15*%
X54320000Y-72000000D03*
%TD*%
%TO.P,R31,1*%
%TO.N,MCP_RESET_N*%
X126000000Y-135000000D03*
%TO.P,R31,2*%
%TO.N,+5V*%
X126000000Y-124840000D03*
%TD*%
%TO.P,R22,1*%
%TO.N,PICO_CLK*%
X60000000Y-105000000D03*
%TO.P,R22,2*%
%TO.N,GND*%
X60000000Y-94840000D03*
%TD*%
D12*
%TO.P,U8,1*%
%TO.N,A8*%
X78000000Y-22000000D03*
D10*
%TO.P,U8,2*%
%TO.N,A9*%
X78000000Y-24540000D03*
%TO.P,U8,3*%
%TO.N,A10*%
X78000000Y-27080000D03*
%TO.P,U8,4*%
%TO.N,A11*%
X78000000Y-29620000D03*
%TO.P,U8,5*%
%TO.N,A12*%
X78000000Y-32160000D03*
%TO.P,U8,6*%
%TO.N,A13*%
X78000000Y-34700000D03*
%TO.P,U8,7*%
%TO.N,A14*%
X78000000Y-37240000D03*
%TO.P,U8,8*%
%TO.N,A15*%
X78000000Y-39780000D03*
%TO.P,U8,9*%
%TO.N,+5V*%
X78000000Y-42320000D03*
%TO.P,U8,10*%
%TO.N,GND*%
X78000000Y-44860000D03*
%TO.P,U8,11*%
%TO.N,MCP_CS_N*%
X78000000Y-47400000D03*
%TO.P,U8,12*%
%TO.N,MCP_SCK*%
X78000000Y-49940000D03*
%TO.P,U8,13*%
%TO.N,MCP_SI*%
X78000000Y-52480000D03*
%TO.P,U8,14*%
%TO.N,MCP_SO*%
X78000000Y-55020000D03*
%TO.P,U8,15*%
%TO.N,GND*%
X85620000Y-55020000D03*
%TO.P,U8,16*%
X85620000Y-52480000D03*
%TO.P,U8,17*%
X85620000Y-49940000D03*
%TO.P,U8,18*%
%TO.N,MCP_RESET_N*%
X85620000Y-47400000D03*
%TO.P,U8,19*%
%TO.N,N/C*%
X85620000Y-44860000D03*
%TO.P,U8,20*%
X85620000Y-42320000D03*
%TO.P,U8,21*%
%TO.N,A0*%
X85620000Y-39780000D03*
%TO.P,U8,22*%
%TO.N,A1*%
X85620000Y-37240000D03*
%TO.P,U8,23*%
%TO.N,A2*%
X85620000Y-34700000D03*
%TO.P,U8,24*%
%TO.N,A3*%
X85620000Y-32160000D03*
%TO.P,U8,25*%
%TO.N,A4*%
X85620000Y-29620000D03*
%TO.P,U8,26*%
%TO.N,A5*%
X85620000Y-27080000D03*
%TO.P,U8,27*%
%TO.N,A6*%
X85620000Y-24540000D03*
%TO.P,U8,28*%
%TO.N,A7*%
X85620000Y-22000000D03*
%TD*%
%TO.P,C8,1*%
%TO.N,+3V3*%
X134200000Y-55000000D03*
%TO.P,C8,2*%
%TO.N,GND*%
X134200000Y-52500000D03*
%TD*%
%TO.P,C5,1*%
%TO.N,+3V3*%
X155000000Y-55000000D03*
%TO.P,C5,2*%
%TO.N,GND*%
X155000000Y-52500000D03*
%TD*%
%TO.P,C1,1*%
%TO.N,+5V*%
X32000000Y-42500000D03*
%TO.P,C1,2*%
%TO.N,GND*%
X34500000Y-42500000D03*
%TD*%
%TO.P,C6,1*%
%TO.N,+5V*%
X71000000Y-43000000D03*
%TO.P,C6,2*%
%TO.N,GND*%
X73500000Y-43000000D03*
%TD*%
D12*
%TO.P,C11,1*%
%TO.N,+5V*%
X158000000Y-82000000D03*
D10*
%TO.P,C11,2*%
%TO.N,GND*%
X161500000Y-82000000D03*
%TD*%
D12*
%TO.P,U9,1*%
%TO.N,+5V*%
X105000000Y-55000000D03*
D10*
%TO.P,U9,2*%
%TO.N,PICO_D0*%
X105000000Y-57540000D03*
%TO.P,U9,3*%
%TO.N,PICO_D1*%
X105000000Y-60080000D03*
%TO.P,U9,4*%
%TO.N,PICO_D2*%
X105000000Y-62620000D03*
%TO.P,U9,5*%
%TO.N,PICO_D3*%
X105000000Y-65160000D03*
%TO.P,U9,6*%
%TO.N,PICO_D4*%
X105000000Y-67700000D03*
%TO.P,U9,7*%
%TO.N,PICO_D5*%
X105000000Y-70240000D03*
%TO.P,U9,8*%
%TO.N,PICO_D6*%
X105000000Y-72780000D03*
%TO.P,U9,9*%
%TO.N,PICO_D7*%
X105000000Y-75320000D03*
%TO.P,U9,10*%
%TO.N,GND*%
X105000000Y-77860000D03*
%TO.P,U9,11*%
%TO.N,D7*%
X112620000Y-77860000D03*
%TO.P,U9,12*%
%TO.N,D6*%
X112620000Y-75320000D03*
%TO.P,U9,13*%
%TO.N,D5*%
X112620000Y-72780000D03*
%TO.P,U9,14*%
%TO.N,D4*%
X112620000Y-70240000D03*
%TO.P,U9,15*%
%TO.N,D3*%
X112620000Y-67700000D03*
%TO.P,U9,16*%
%TO.N,D2*%
X112620000Y-65160000D03*
%TO.P,U9,17*%
%TO.N,D1*%
X112620000Y-62620000D03*
%TO.P,U9,18*%
%TO.N,D0*%
X112620000Y-60080000D03*
%TO.P,U9,19*%
%TO.N,DATA_UP_OE_N*%
X112620000Y-57540000D03*
%TO.P,U9,20*%
%TO.N,+5V*%
X112620000Y-55000000D03*
%TD*%
%TO.P,R28,1*%
%TO.N,PICO_SPI_MOSI*%
X150000000Y-115000000D03*
%TO.P,R28,2*%
%TO.N,GND*%
X150000000Y-104840000D03*
%TD*%
D13*
%TO.P,U4,1*%
%TO.N,GND*%
X59000000Y-70000000D03*
D10*
%TO.P,U4,2*%
%TO.N,PICO_CLK*%
X61540000Y-70000000D03*
%TO.P,U4,3*%
%TO.N,SRAM_CE_N*%
X64080000Y-70000000D03*
%TO.P,U4,4*%
%TO.N,PICO_BUSREQ_N*%
X66620000Y-70000000D03*
%TO.P,U4,5*%
%TO.N,SRAM_OE_N*%
X69160000Y-70000000D03*
%TO.P,U4,6*%
%TO.N,PICO_SPI_CS_N*%
X71700000Y-70000000D03*
%TO.P,U4,7*%
%TO.N,SRAM_WE_N*%
X74240000Y-70000000D03*
%TO.P,U4,8*%
%TO.N,PICO_SPI_SCK*%
X76780000Y-70000000D03*
%TO.P,U4,9*%
%TO.N,MCP_SI*%
X79320000Y-70000000D03*
%TO.P,U4,10*%
%TO.N,GND*%
X81860000Y-70000000D03*
%TO.P,U4,11*%
%TO.N,PICO_SPI_MOSI*%
X81860000Y-62380000D03*
%TO.P,U4,12*%
%TO.N,MCP_SCK*%
X79320000Y-62380000D03*
%TO.P,U4,13*%
%TO.N,SRAM_WE_PRE_N*%
X76780000Y-62380000D03*
%TO.P,U4,14*%
%TO.N,MCP_CS_N*%
X74240000Y-62380000D03*
%TO.P,U4,15*%
%TO.N,SRAM_OE_PRE_N*%
X71700000Y-62380000D03*
%TO.P,U4,16*%
%TO.N,BUSREQ_N*%
X69160000Y-62380000D03*
%TO.P,U4,17*%
%TO.N,SRAM_CE_PRE_N*%
X66620000Y-62380000D03*
%TO.P,U4,18*%
%TO.N,Z80_CLK*%
X64080000Y-62380000D03*
%TO.P,U4,19*%
%TO.N,GND*%
X61540000Y-62380000D03*
%TO.P,U4,20*%
%TO.N,+5V*%
X59000000Y-62380000D03*
%TD*%
D12*
%TO.P,U7,1*%
%TO.N,GND*%
X143000000Y-55000000D03*
D10*
%TO.P,U7,2*%
%TO.N,BUSACK_N*%
X143000000Y-57540000D03*
%TO.P,U7,3*%
%TO.N,N/C*%
X143000000Y-60080000D03*
%TO.P,U7,4*%
%TO.N,IORQ_N*%
X143000000Y-62620000D03*
%TO.P,U7,5*%
%TO.N,N/C*%
X143000000Y-65160000D03*
%TO.P,U7,6*%
%TO.N,RD_N*%
X143000000Y-67700000D03*
%TO.P,U7,7*%
%TO.N,N/C*%
X143000000Y-70240000D03*
%TO.P,U7,8*%
%TO.N,WR_N*%
X143000000Y-72780000D03*
%TO.P,U7,9*%
%TO.N,PICO_SPI_MISO*%
X143000000Y-75320000D03*
%TO.P,U7,10*%
%TO.N,GND*%
X143000000Y-77860000D03*
%TO.P,U7,11*%
%TO.N,MCP_SO*%
X150620000Y-77860000D03*
%TO.P,U7,12*%
%TO.N,PICO_WR_N*%
X150620000Y-75320000D03*
%TO.P,U7,13*%
%TO.N,GND*%
X150620000Y-72780000D03*
%TO.P,U7,14*%
%TO.N,PICO_RD_N*%
X150620000Y-70240000D03*
%TO.P,U7,15*%
%TO.N,GND*%
X150620000Y-67700000D03*
%TO.P,U7,16*%
%TO.N,PICO_IORQ_N*%
X150620000Y-65160000D03*
%TO.P,U7,17*%
%TO.N,GND*%
X150620000Y-62620000D03*
%TO.P,U7,18*%
%TO.N,PICO_BUSACK_N*%
X150620000Y-60080000D03*
%TO.P,U7,19*%
%TO.N,GND*%
X150620000Y-57540000D03*
%TO.P,U7,20*%
%TO.N,+3V3*%
X150620000Y-55000000D03*
%TD*%
%TO.P,R17,1*%
%TO.N,PICO_BUSREQ_N*%
X105000000Y-94000000D03*
%TO.P,R17,2*%
%TO.N,+3V3*%
X105000000Y-83840000D03*
%TD*%
%TO.P,R26,1*%
%TO.N,ADDR_ENABLE*%
X84000000Y-105000000D03*
%TO.P,R26,2*%
%TO.N,GND*%
X84000000Y-94840000D03*
%TD*%
D12*
%TO.P,U10,1*%
%TO.N,GND*%
X124000000Y-55000000D03*
D10*
%TO.P,U10,2*%
%TO.N,PICO_D0*%
X124000000Y-57540000D03*
%TO.P,U10,3*%
%TO.N,PICO_D1*%
X124000000Y-60080000D03*
%TO.P,U10,4*%
%TO.N,PICO_D2*%
X124000000Y-62620000D03*
%TO.P,U10,5*%
%TO.N,PICO_D3*%
X124000000Y-65160000D03*
%TO.P,U10,6*%
%TO.N,PICO_D4*%
X124000000Y-67700000D03*
%TO.P,U10,7*%
%TO.N,PICO_D5*%
X124000000Y-70240000D03*
%TO.P,U10,8*%
%TO.N,PICO_D6*%
X124000000Y-72780000D03*
%TO.P,U10,9*%
%TO.N,PICO_D7*%
X124000000Y-75320000D03*
%TO.P,U10,10*%
%TO.N,GND*%
X124000000Y-77860000D03*
%TO.P,U10,11*%
%TO.N,D7*%
X131620000Y-77860000D03*
%TO.P,U10,12*%
%TO.N,D6*%
X131620000Y-75320000D03*
%TO.P,U10,13*%
%TO.N,D5*%
X131620000Y-72780000D03*
%TO.P,U10,14*%
%TO.N,D4*%
X131620000Y-70240000D03*
%TO.P,U10,15*%
%TO.N,D3*%
X131620000Y-67700000D03*
%TO.P,U10,16*%
%TO.N,D2*%
X131620000Y-65160000D03*
%TO.P,U10,17*%
%TO.N,D1*%
X131620000Y-62620000D03*
%TO.P,U10,18*%
%TO.N,D0*%
X131620000Y-60080000D03*
%TO.P,U10,19*%
%TO.N,DATA_DOWN_OE_N*%
X131620000Y-57540000D03*
%TO.P,U10,20*%
%TO.N,+3V3*%
X131620000Y-55000000D03*
%TD*%
D12*
%TO.P,C10,1*%
%TO.N,+5V*%
X96000000Y-82000000D03*
D10*
%TO.P,C10,2*%
%TO.N,GND*%
X99500000Y-82000000D03*
%TD*%
D11*
%TO.P,RN5,1*%
%TO.N,+5V*%
X72000000Y-90000000D03*
D10*
%TO.P,RN5,2*%
%TO.N,MCP_SO*%
X74540000Y-90000000D03*
%TO.P,RN5,3*%
%TO.N,SRAM_CE_N*%
X77080000Y-90000000D03*
%TO.P,RN5,4*%
%TO.N,SRAM_OE_N*%
X79620000Y-90000000D03*
%TO.P,RN5,5*%
%TO.N,SRAM_WE_N*%
X82160000Y-90000000D03*
%TO.P,RN5,6*%
%TO.N,WAIT_N*%
X84700000Y-90000000D03*
%TO.P,RN5,7*%
%TO.N,SRAM_WE_PRE_N*%
X87240000Y-90000000D03*
%TO.P,RN5,8*%
%TO.N,SRAM_OE_PRE_N*%
X89780000Y-90000000D03*
%TO.P,RN5,9*%
%TO.N,SRAM_CE_PRE_N*%
X92320000Y-90000000D03*
%TD*%
D14*
%TO.P,Q1,1*%
%TO.N,GND*%
X87000000Y-62000000D03*
D15*
%TO.P,Q1,2*%
%TO.N,MCP_RESET_BASE*%
X88270000Y-62000000D03*
%TO.P,Q1,3*%
%TO.N,MCP_RESET_N*%
X89540000Y-62000000D03*
%TD*%
D10*
%TO.P,C4,1*%
%TO.N,+5V*%
X59000000Y-59000000D03*
%TO.P,C4,2*%
%TO.N,GND*%
X61500000Y-59000000D03*
%TD*%
%TO.P,C3,1*%
%TO.N,+5V*%
X105000000Y-30000000D03*
%TO.P,C3,2*%
%TO.N,GND*%
X107500000Y-30000000D03*
%TD*%
D11*
%TO.P,RN3,1*%
%TO.N,GND*%
X82000000Y-137000000D03*
D10*
%TO.P,RN3,2*%
%TO.N,PICO_D0*%
X84540000Y-137000000D03*
%TO.P,RN3,3*%
%TO.N,PICO_D1*%
X87080000Y-137000000D03*
%TO.P,RN3,4*%
%TO.N,PICO_D2*%
X89620000Y-137000000D03*
%TO.P,RN3,5*%
%TO.N,PICO_D3*%
X92160000Y-137000000D03*
%TO.P,RN3,6*%
%TO.N,PICO_D4*%
X94700000Y-137000000D03*
%TO.P,RN3,7*%
%TO.N,PICO_D5*%
X97240000Y-137000000D03*
%TO.P,RN3,8*%
%TO.N,PICO_D6*%
X99780000Y-137000000D03*
%TO.P,RN3,9*%
%TO.N,PICO_D7*%
X102320000Y-137000000D03*
%TD*%
D16*
%TO.P,D1,1*%
%TO.N,VSYS*%
X15000000Y-105000000D03*
D17*
%TO.P,D1,2*%
%TO.N,+5V*%
X25160000Y-105000000D03*
%TD*%
D13*
%TO.P,C9,1*%
%TO.N,+5V*%
X32000000Y-61000000D03*
D10*
%TO.P,C9,2*%
%TO.N,GND*%
X32000000Y-57500000D03*
%TD*%
D18*
%TO.P,TP7,1*%
%TO.N,GND*%
X95000000Y-10000000D03*
%TD*%
D12*
%TO.P,U1,1*%
%TO.N,A11*%
X38000000Y-17000000D03*
D10*
%TO.P,U1,2*%
%TO.N,A12*%
X38000000Y-19540000D03*
%TO.P,U1,3*%
%TO.N,A13*%
X38000000Y-22080000D03*
%TO.P,U1,4*%
%TO.N,A14*%
X38000000Y-24620000D03*
%TO.P,U1,5*%
%TO.N,A15*%
X38000000Y-27160000D03*
%TO.P,U1,6*%
%TO.N,Z80_CLK*%
X38000000Y-29700000D03*
%TO.P,U1,7*%
%TO.N,D4*%
X38000000Y-32240000D03*
%TO.P,U1,8*%
%TO.N,D3*%
X38000000Y-34780000D03*
%TO.P,U1,9*%
%TO.N,D5*%
X38000000Y-37320000D03*
%TO.P,U1,10*%
%TO.N,D6*%
X38000000Y-39860000D03*
%TO.P,U1,11*%
%TO.N,+5V*%
X38000000Y-42400000D03*
%TO.P,U1,12*%
%TO.N,D2*%
X38000000Y-44940000D03*
%TO.P,U1,13*%
%TO.N,D7*%
X38000000Y-47480000D03*
%TO.P,U1,14*%
%TO.N,D0*%
X38000000Y-50020000D03*
%TO.P,U1,15*%
%TO.N,D1*%
X38000000Y-52560000D03*
%TO.P,U1,16*%
%TO.N,INT_N*%
X38000000Y-55100000D03*
%TO.P,U1,17*%
%TO.N,NMI_N*%
X38000000Y-57640000D03*
%TO.P,U1,18*%
%TO.N,N/C*%
X38000000Y-60180000D03*
%TO.P,U1,19*%
%TO.N,MREQ_N*%
X38000000Y-62720000D03*
%TO.P,U1,20*%
%TO.N,IORQ_N*%
X38000000Y-65260000D03*
%TO.P,U1,21*%
%TO.N,RD_N*%
X53240000Y-65260000D03*
%TO.P,U1,22*%
%TO.N,WR_N*%
X53240000Y-62720000D03*
%TO.P,U1,23*%
%TO.N,BUSACK_N*%
X53240000Y-60180000D03*
%TO.P,U1,24*%
%TO.N,WAIT_N*%
X53240000Y-57640000D03*
%TO.P,U1,25*%
%TO.N,BUSREQ_N*%
X53240000Y-55100000D03*
%TO.P,U1,26*%
%TO.N,RESET_N*%
X53240000Y-52560000D03*
%TO.P,U1,27*%
%TO.N,M1_N*%
X53240000Y-50020000D03*
%TO.P,U1,28*%
%TO.N,N/C*%
X53240000Y-47480000D03*
%TO.P,U1,29*%
%TO.N,GND*%
X53240000Y-44940000D03*
%TO.P,U1,30*%
%TO.N,A0*%
X53240000Y-42400000D03*
%TO.P,U1,31*%
%TO.N,A1*%
X53240000Y-39860000D03*
%TO.P,U1,32*%
%TO.N,A2*%
X53240000Y-37320000D03*
%TO.P,U1,33*%
%TO.N,A3*%
X53240000Y-34780000D03*
%TO.P,U1,34*%
%TO.N,A4*%
X53240000Y-32240000D03*
%TO.P,U1,35*%
%TO.N,A5*%
X53240000Y-29700000D03*
%TO.P,U1,36*%
%TO.N,A6*%
X53240000Y-27160000D03*
%TO.P,U1,37*%
%TO.N,A7*%
X53240000Y-24620000D03*
%TO.P,U1,38*%
%TO.N,A8*%
X53240000Y-22080000D03*
%TO.P,U1,39*%
%TO.N,A9*%
X53240000Y-19540000D03*
%TO.P,U1,40*%
%TO.N,A10*%
X53240000Y-17000000D03*
%TD*%
%TO.P,R21,1*%
%TO.N,PICO_OE_N*%
X141000000Y-94000000D03*
%TO.P,R21,2*%
%TO.N,+3V3*%
X141000000Y-83840000D03*
%TD*%
D18*
%TO.P,TP2,1*%
%TO.N,Z80_CLK*%
X86000000Y-68000000D03*
%TD*%
D10*
%TO.P,C2,1*%
%TO.N,+5V*%
X28000000Y-22000000D03*
%TO.P,C2,2*%
%TO.N,GND*%
X30500000Y-22000000D03*
%TD*%
%TO.P,R24,1*%
%TO.N,DATA_ENABLE*%
X68000000Y-105000000D03*
%TO.P,R24,2*%
%TO.N,GND*%
X68000000Y-94840000D03*
%TD*%
%TO.P,R23,1*%
%TO.N,RESET_N*%
X110000000Y-115000000D03*
%TO.P,R23,2*%
%TO.N,GND*%
X110000000Y-104840000D03*
%TD*%
D18*
%TO.P,TP5,1*%
%TO.N,BUSREQ_N*%
X81000000Y-10000000D03*
%TD*%
D12*
%TO.P,U2,1*%
%TO.N,N/C*%
X10000000Y-22000000D03*
D10*
%TO.P,U2,2*%
%TO.N,GND*%
X10000000Y-24540000D03*
%TO.P,U2,3*%
%TO.N,A14*%
X10000000Y-27080000D03*
%TO.P,U2,4*%
%TO.N,A12*%
X10000000Y-29620000D03*
%TO.P,U2,5*%
%TO.N,A7*%
X10000000Y-32160000D03*
%TO.P,U2,6*%
%TO.N,A6*%
X10000000Y-34700000D03*
%TO.P,U2,7*%
%TO.N,A5*%
X10000000Y-37240000D03*
%TO.P,U2,8*%
%TO.N,A4*%
X10000000Y-39780000D03*
%TO.P,U2,9*%
%TO.N,A3*%
X10000000Y-42320000D03*
%TO.P,U2,10*%
%TO.N,A2*%
X10000000Y-44860000D03*
%TO.P,U2,11*%
%TO.N,A1*%
X10000000Y-47400000D03*
%TO.P,U2,12*%
%TO.N,A0*%
X10000000Y-49940000D03*
%TO.P,U2,13*%
%TO.N,D0*%
X10000000Y-52480000D03*
%TO.P,U2,14*%
%TO.N,D1*%
X10000000Y-55020000D03*
%TO.P,U2,15*%
%TO.N,D2*%
X10000000Y-57560000D03*
%TO.P,U2,16*%
%TO.N,GND*%
X10000000Y-60100000D03*
%TO.P,U2,17*%
%TO.N,D3*%
X25240000Y-60100000D03*
%TO.P,U2,18*%
%TO.N,D4*%
X25240000Y-57560000D03*
%TO.P,U2,19*%
%TO.N,D5*%
X25240000Y-55020000D03*
%TO.P,U2,20*%
%TO.N,D6*%
X25240000Y-52480000D03*
%TO.P,U2,21*%
%TO.N,D7*%
X25240000Y-49940000D03*
%TO.P,U2,22*%
%TO.N,SRAM_CE_N*%
X25240000Y-47400000D03*
%TO.P,U2,23*%
%TO.N,A10*%
X25240000Y-44860000D03*
%TO.P,U2,24*%
%TO.N,SRAM_OE_N*%
X25240000Y-42320000D03*
%TO.P,U2,25*%
%TO.N,A11*%
X25240000Y-39780000D03*
%TO.P,U2,26*%
%TO.N,A9*%
X25240000Y-37240000D03*
%TO.P,U2,27*%
%TO.N,A8*%
X25240000Y-34700000D03*
%TO.P,U2,28*%
%TO.N,A13*%
X25240000Y-32160000D03*
%TO.P,U2,29*%
%TO.N,SRAM_WE_N*%
X25240000Y-29620000D03*
%TO.P,U2,30*%
%TO.N,+5V*%
X25240000Y-27080000D03*
%TO.P,U2,31*%
%TO.N,A15*%
X25240000Y-24540000D03*
%TO.P,U2,32*%
%TO.N,+5V*%
X25240000Y-22000000D03*
%TD*%
D18*
%TO.P,TP3,1*%
%TO.N,RESET_N*%
X50000000Y-10000000D03*
%TD*%
D19*
%TO.P,C12,1*%
%TO.N,+5V*%
X27000000Y-12000000D03*
D20*
%TO.P,C12,2*%
%TO.N,GND*%
X32000000Y-12000000D03*
%TD*%
D10*
%TO.P,R19,1*%
%TO.N,PICO_SPI_CS_N*%
X123000000Y-94000000D03*
%TO.P,R19,2*%
%TO.N,+3V3*%
X123000000Y-83840000D03*
%TD*%
%TO.P,R25,1*%
%TO.N,DATA_DIR*%
X76000000Y-105000000D03*
%TO.P,R25,2*%
%TO.N,GND*%
X76000000Y-94840000D03*
%TD*%
%TO.P,R30,1*%
%TO.N,MCP_RESET_BASE*%
X118000000Y-135000000D03*
%TO.P,R30,2*%
%TO.N,GND*%
X118000000Y-124840000D03*
%TD*%
%TO.P,C7,1*%
%TO.N,+5V*%
X115200000Y-55000000D03*
%TO.P,C7,2*%
%TO.N,GND*%
X115200000Y-52500000D03*
%TD*%
D11*
%TO.P,RN4,1*%
%TO.N,+5V*%
X30000000Y-90000000D03*
D10*
%TO.P,RN4,2*%
%TO.N,BUSREQ_N*%
X32540000Y-90000000D03*
%TO.P,RN4,3*%
%TO.N,BUSACK_N*%
X35080000Y-90000000D03*
%TO.P,RN4,4*%
%TO.N,MREQ_N*%
X37620000Y-90000000D03*
%TO.P,RN4,5*%
%TO.N,IORQ_N*%
X40160000Y-90000000D03*
%TO.P,RN4,6*%
%TO.N,RD_N*%
X42700000Y-90000000D03*
%TO.P,RN4,7*%
%TO.N,WR_N*%
X45240000Y-90000000D03*
%TO.P,RN4,8*%
%TO.N,INT_N*%
X47780000Y-90000000D03*
%TO.P,RN4,9*%
%TO.N,NMI_N*%
X50320000Y-90000000D03*
%TD*%
D18*
%TO.P,TP4,1*%
%TO.N,WAIT_N*%
X74000000Y-10000000D03*
%TD*%
%TO.P,TP1,1*%
%TO.N,M1_N*%
X43000000Y-10000000D03*
%TD*%
D11*
%TO.P,RN1,1*%
%TO.N,+5V*%
X8000000Y-67000000D03*
D10*
%TO.P,RN1,2*%
%TO.N,A0*%
X10540000Y-67000000D03*
%TO.P,RN1,3*%
%TO.N,A1*%
X13080000Y-67000000D03*
%TO.P,RN1,4*%
%TO.N,A2*%
X15620000Y-67000000D03*
%TO.P,RN1,5*%
%TO.N,A3*%
X18160000Y-67000000D03*
%TO.P,RN1,6*%
%TO.N,A4*%
X20700000Y-67000000D03*
%TO.P,RN1,7*%
%TO.N,A5*%
X23240000Y-67000000D03*
%TO.P,RN1,8*%
%TO.N,A6*%
X25780000Y-67000000D03*
%TO.P,RN1,9*%
%TO.N,A7*%
X28320000Y-67000000D03*
%TD*%
%TO.P,R27,1*%
%TO.N,PICO_SPI_SCK*%
X142000000Y-115000000D03*
%TO.P,R27,2*%
%TO.N,GND*%
X142000000Y-104840000D03*
%TD*%
%TO.P,R18,1*%
%TO.N,PICO_CE_N*%
X114000000Y-94000000D03*
%TO.P,R18,2*%
%TO.N,+3V3*%
X114000000Y-83840000D03*
%TD*%
D21*
%TO.P,A1,1*%
%TO.N,PICO_BUSACK_N*%
X7800000Y-134000000D03*
D10*
%TO.P,A1,2*%
%TO.N,PICO_IORQ_N*%
X10340000Y-134000000D03*
D22*
%TO.P,A1,3*%
%TO.N,GND*%
X12880000Y-134000000D03*
D10*
%TO.P,A1,4*%
%TO.N,PICO_CLK*%
X15420000Y-134000000D03*
%TO.P,A1,5*%
%TO.N,RESET_N*%
X17960000Y-134000000D03*
%TO.P,A1,6*%
%TO.N,PICO_BUSREQ_N*%
X20500000Y-134000000D03*
%TO.P,A1,7*%
%TO.N,PICO_CE_N*%
X23040000Y-134000000D03*
D22*
%TO.P,A1,8*%
%TO.N,GND*%
X25580000Y-134000000D03*
D10*
%TO.P,A1,9*%
%TO.N,DATA_DIR*%
X28120000Y-134000000D03*
%TO.P,A1,10*%
%TO.N,DATA_ENABLE*%
X30660000Y-134000000D03*
%TO.P,A1,11*%
%TO.N,N/C*%
X33200000Y-134000000D03*
%TO.P,A1,12*%
%TO.N,ADDR_ENABLE*%
X35740000Y-134000000D03*
D22*
%TO.P,A1,13*%
%TO.N,GND*%
X38280000Y-134000000D03*
D10*
%TO.P,A1,14*%
%TO.N,PICO_D0*%
X40820000Y-134000000D03*
%TO.P,A1,15*%
%TO.N,PICO_D1*%
X43360000Y-134000000D03*
%TO.P,A1,16*%
%TO.N,PICO_D2*%
X45900000Y-134000000D03*
%TO.P,A1,17*%
%TO.N,PICO_D3*%
X48440000Y-134000000D03*
D22*
%TO.P,A1,18*%
%TO.N,GND*%
X50980000Y-134000000D03*
D10*
%TO.P,A1,19*%
%TO.N,PICO_D4*%
X53520000Y-134000000D03*
%TO.P,A1,20*%
%TO.N,PICO_D5*%
X56060000Y-134000000D03*
%TO.P,A1,21*%
%TO.N,PICO_D6*%
X56060000Y-116220000D03*
%TO.P,A1,22*%
%TO.N,PICO_D7*%
X53520000Y-116220000D03*
D23*
%TO.P,A1,23*%
%TO.N,GND*%
X50980000Y-116220000D03*
D10*
%TO.P,A1,24*%
%TO.N,PICO_SPI_SCK*%
X48440000Y-116220000D03*
%TO.P,A1,25*%
%TO.N,PICO_SPI_MOSI*%
X45900000Y-116220000D03*
%TO.P,A1,26*%
%TO.N,PICO_SPI_MISO*%
X43360000Y-116220000D03*
%TO.P,A1,27*%
%TO.N,PICO_SPI_CS_N*%
X40820000Y-116220000D03*
D23*
%TO.P,A1,28*%
%TO.N,GND*%
X38280000Y-116220000D03*
D10*
%TO.P,A1,29*%
%TO.N,PICO_WE_N*%
X35740000Y-116220000D03*
%TO.P,A1,30*%
%TO.N,N/C*%
X33200000Y-116220000D03*
%TO.P,A1,31*%
%TO.N,PICO_OE_N*%
X30660000Y-116220000D03*
%TO.P,A1,32*%
%TO.N,PICO_RD_N*%
X28120000Y-116220000D03*
D23*
%TO.P,A1,33*%
%TO.N,GND*%
X25580000Y-116220000D03*
D10*
%TO.P,A1,34*%
%TO.N,PICO_WR_N*%
X23040000Y-116220000D03*
%TO.P,A1,35*%
%TO.N,N/C*%
X20500000Y-116220000D03*
%TO.P,A1,36*%
%TO.N,+3V3*%
X17960000Y-116220000D03*
%TO.P,A1,37*%
%TO.N,N/C*%
X15420000Y-116220000D03*
D23*
%TO.P,A1,38*%
%TO.N,GND*%
X12880000Y-116220000D03*
D10*
%TO.P,A1,39*%
%TO.N,VSYS*%
X10340000Y-116220000D03*
%TO.P,A1,40*%
%TO.N,N/C*%
X7800000Y-116220000D03*
%TD*%
D24*
%TO.P,J1,1*%
%TO.N,+5V*%
X16000000Y-13000000D03*
D25*
%TO.P,J1,2*%
%TO.N,GND*%
X21000000Y-13000000D03*
%TD*%
D10*
%TO.P,R29,1*%
%TO.N,MCP_RESET_DRIVE*%
X110000000Y-135000000D03*
%TO.P,R29,2*%
%TO.N,MCP_RESET_BASE*%
X110000000Y-124840000D03*
%TD*%
D12*
%TO.P,U3,1*%
%TO.N,RESET_N*%
X94000000Y-22000000D03*
D10*
%TO.P,U3,2*%
%TO.N,BUSACK_N*%
X94000000Y-24540000D03*
%TO.P,U3,3*%
%TO.N,PICO_WE_N*%
X94000000Y-27080000D03*
%TO.P,U3,4*%
%TO.N,WR_N*%
X94000000Y-29620000D03*
%TO.P,U3,5*%
%TO.N,PICO_OE_N*%
X94000000Y-32160000D03*
%TO.P,U3,6*%
%TO.N,RD_N*%
X94000000Y-34700000D03*
%TO.P,U3,7*%
%TO.N,PICO_CE_N*%
X94000000Y-37240000D03*
%TO.P,U3,8*%
%TO.N,MREQ_N*%
X94000000Y-39780000D03*
%TO.P,U3,9*%
%TO.N,DATA_ENABLE*%
X94000000Y-42320000D03*
%TO.P,U3,10*%
%TO.N,ADDR_ENABLE*%
X94000000Y-44860000D03*
%TO.P,U3,11*%
%TO.N,DATA_DIR*%
X94000000Y-47400000D03*
%TO.P,U3,12*%
%TO.N,GND*%
X94000000Y-49940000D03*
%TO.P,U3,13*%
%TO.N,IORQ_N*%
X101620000Y-49940000D03*
%TO.P,U3,14*%
%TO.N,SRAM_WE_PRE_N*%
X101620000Y-47400000D03*
%TO.P,U3,15*%
%TO.N,SRAM_OE_PRE_N*%
X101620000Y-44860000D03*
%TO.P,U3,16*%
%TO.N,SRAM_CE_PRE_N*%
X101620000Y-42320000D03*
%TO.P,U3,17*%
%TO.N,DATA_UP_OE_N*%
X101620000Y-39780000D03*
%TO.P,U3,18*%
%TO.N,DATA_DOWN_OE_N*%
X101620000Y-37240000D03*
%TO.P,U3,19*%
%TO.N,MCP_RESET_DRIVE*%
X101620000Y-34700000D03*
%TO.P,U3,20*%
%TO.N,WAIT_N*%
X101620000Y-32160000D03*
%TO.P,U3,21*%
%TO.N,N/C*%
X101620000Y-29620000D03*
%TO.P,U3,22*%
X101620000Y-27080000D03*
%TO.P,U3,23*%
X101620000Y-24540000D03*
%TO.P,U3,24*%
%TO.N,+5V*%
X101620000Y-22000000D03*
%TD*%
D18*
%TO.P,TP6,1*%
%TO.N,BUSACK_N*%
X88000000Y-10000000D03*
%TD*%
D26*
%TO.N,+5V*%
X57400000Y-78465800D03*
D27*
%TO.N,A0*%
X47199400Y-41814600D03*
%TO.N,A1*%
X49309200Y-47160800D03*
X27161300Y-50514100D03*
X40215600Y-48469300D03*
%TO.N,A10*%
X40760100Y-22406500D03*
X30815500Y-63489800D03*
%TO.N,A12*%
X57649900Y-31882600D03*
%TO.N,A13*%
X51019400Y-30179200D03*
X54996900Y-35396200D03*
%TO.N,A14*%
X72539500Y-32903100D03*
X21677100Y-27256400D03*
%TO.N,A15*%
X32336200Y-26282300D03*
%TO.N,A2*%
X31639100Y-37298700D03*
X33982000Y-33828900D03*
X44314300Y-35587500D03*
%TO.N,A3*%
X47146400Y-37240400D03*
X33161600Y-38578100D03*
%TO.N,A4*%
X47184400Y-33385300D03*
X28700500Y-29707700D03*
%TO.N,A5*%
X28379200Y-25196000D03*
%TO.N,A6*%
X45595500Y-28659800D03*
%TO.N,A7*%
X45041300Y-23138600D03*
%TO.N,A8*%
X41635900Y-28413500D03*
%TO.N,A9*%
X30782700Y-66534700D03*
%TO.N,ADDR_ENABLE*%
X47080800Y-113978300D03*
%TO.N,BUSACK_N*%
X51405000Y-68648000D03*
%TO.N,BUSREQ_N*%
X47970000Y-79670900D03*
%TO.N,D0*%
X44113900Y-50601400D03*
X50571200Y-50601400D03*
%TO.N,D1*%
X98939100Y-64043100D03*
X51466800Y-52559900D03*
%TO.N,D2*%
X49790900Y-53145000D03*
%TO.N,D3*%
X59323400Y-50019900D03*
%TO.N,D5*%
X119001600Y-72780000D03*
X58321600Y-50019900D03*
%TO.N,D6*%
X100483300Y-70725000D03*
X54607100Y-51573600D03*
X31581700Y-47156700D03*
X118990200Y-75320000D03*
%TO.N,D7*%
X49767000Y-55167300D03*
%TO.N,DATA_DIR*%
X91888900Y-86417200D03*
%TO.N,DATA_ENABLE*%
X93696900Y-101295300D03*
%TO.N,IORQ_N*%
X97048800Y-77480500D03*
X40237100Y-78097500D03*
%TO.N,MCP_RESET_BASE*%
X86824600Y-102083900D03*
X109061800Y-110894500D03*
%TO.N,MCP_RESET_N*%
X109464800Y-73149700D03*
%TO.N,MCP_SO*%
X77920900Y-85412600D03*
X74540000Y-97784900D03*
%TO.N,PICO_BUSREQ_N*%
X24373800Y-110843600D03*
X78267600Y-93306300D03*
%TO.N,PICO_CE_N*%
X94829800Y-95699500D03*
X26742600Y-110628200D03*
%TO.N,PICO_D1*%
X53639000Y-136214500D03*
%TO.N,PICO_D3*%
X65509600Y-137781800D03*
%TO.N,PICO_OE_N*%
X69372100Y-100291900D03*
X95137000Y-100029200D03*
%TO.N,PICO_RD_N*%
X30058100Y-114281900D03*
X144408200Y-83414500D03*
%TO.N,PICO_SPI_CS_N*%
X117452400Y-85372000D03*
%TO.N,PICO_SPI_MISO*%
X136532600Y-105598700D03*
%TO.N,PICO_SPI_MOSI*%
X85891700Y-102990900D03*
X145745500Y-112443600D03*
%TO.N,PICO_SPI_SCK*%
X82822800Y-113198200D03*
X50386500Y-113481000D03*
%TO.N,PICO_WE_N*%
X107511000Y-98036200D03*
%TO.N,RD_N*%
X128378200Y-57912700D03*
X63182100Y-49828800D03*
%TO.N,RESET_N*%
X58965600Y-54961600D03*
X49543000Y-114246000D03*
%TO.N,SRAM_CE_N*%
X52145200Y-66280000D03*
X45937600Y-62640800D03*
%TO.N,SRAM_CE_PRE_N*%
X93378900Y-70810300D03*
%TO.N,SRAM_OE_N*%
X73385100Y-77599400D03*
X29095500Y-77261500D03*
%TO.N,SRAM_OE_PRE_N*%
X91353300Y-56724200D03*
%TO.N,SRAM_WE_N*%
X74478300Y-76817900D03*
%TO.N,SRAM_WE_PRE_N*%
X87775900Y-64039100D03*
%TO.N,WR_N*%
X50510000Y-84730000D03*
%TD*%
%TO.N,+3V3*%
D28*
X134200000Y-81640000D02*
X134200000Y-55000000D01*
X132000000Y-83840000D02*
X134200000Y-81640000D01*
%TO.N,+5V*%
X113062500Y-52862500D02*
X115200000Y-55000000D01*
X32000000Y-61000000D02*
X34000000Y-63000000D01*
X30121900Y-77250700D02*
X30121900Y-77179800D01*
X113062500Y-38062500D02*
X113062500Y-52862500D01*
X105000000Y-30000000D02*
X113062500Y-38062500D01*
X30000000Y-77372600D02*
X30121900Y-77250700D01*
X30677700Y-43822300D02*
X32000000Y-42500000D01*
X59000000Y-59000000D02*
X59000000Y-62380000D01*
X25160000Y-105000000D02*
X30000000Y-100160000D01*
X34000000Y-63000000D02*
X34000000Y-72000000D01*
X57400000Y-63980000D02*
X57400000Y-78465800D01*
X27000000Y-12000000D02*
X27000000Y-21000000D01*
X28000000Y-22000000D02*
X27477500Y-22522500D01*
X105000000Y-55000000D02*
X98037300Y-61962700D01*
X30000000Y-100160000D02*
X30000000Y-90000000D01*
X32000000Y-61000000D02*
X30677700Y-59677700D01*
X63269300Y-54730700D02*
X63269300Y-51016800D01*
X98037300Y-79962700D02*
X96000000Y-82000000D01*
X34000000Y-72000000D02*
X34000000Y-73301700D01*
X63269300Y-51016800D02*
X71000000Y-43286100D01*
X30000000Y-90000000D02*
X30000000Y-77372600D01*
X59000000Y-62380000D02*
X57400000Y-63980000D01*
X27477500Y-24842500D02*
X25240000Y-27080000D01*
X30677700Y-59677700D02*
X30677700Y-43822300D01*
X27477500Y-22522500D02*
X27477500Y-24842500D01*
X30121900Y-77179800D02*
X34000000Y-73301700D01*
X71000000Y-43286100D02*
X71000000Y-43000000D01*
X98037300Y-61962700D02*
X98037300Y-79962700D01*
X59000000Y-59000000D02*
X63269300Y-54730700D01*
X27000000Y-21000000D02*
X28000000Y-22000000D01*
%TO.N,A0*%
D29*
X11213100Y-51153100D02*
X10000000Y-49940000D01*
X11213100Y-66326900D02*
X11213100Y-51153100D01*
X10540000Y-67000000D02*
X11213100Y-66326900D01*
%TO.N,A1*%
X41524100Y-47160800D02*
X49309200Y-47160800D01*
X11714800Y-65634800D02*
X11714800Y-49114800D01*
X11714800Y-49114800D02*
X10000000Y-47400000D01*
X13080000Y-67000000D02*
X11714800Y-65634800D01*
X40215600Y-48469300D02*
X41524100Y-47160800D01*
%TO.N,A10*%
X30815500Y-63489800D02*
X29324400Y-61998700D01*
X24137400Y-45962600D02*
X24139400Y-45962600D01*
X24077600Y-60578000D02*
X24077600Y-46022400D01*
X37530500Y-31051700D02*
X36302600Y-32279600D01*
X40760100Y-28851500D02*
X38559900Y-31051700D01*
X38559900Y-31051700D02*
X37530500Y-31051700D01*
X36302600Y-33797400D02*
X25240000Y-44860000D01*
X24584700Y-45515300D02*
X25240000Y-44860000D01*
X24139400Y-45962600D02*
X24584700Y-45517300D01*
X29324400Y-61998700D02*
X25498300Y-61998700D01*
X24077600Y-46022400D02*
X24137400Y-45962600D01*
X40760100Y-22406500D02*
X40760100Y-28851500D01*
X24584700Y-45517300D02*
X24584700Y-45515300D01*
X25498300Y-61998700D02*
X24077600Y-60578000D01*
X36302600Y-32279600D02*
X36302600Y-33797400D01*
%TO.N,A11*%
X39152900Y-18152900D02*
X39152900Y-22592800D01*
X38000000Y-17000000D02*
X39152900Y-18152900D01*
X36662700Y-28357300D02*
X25240000Y-39780000D01*
X38395700Y-23350000D02*
X37641300Y-23350000D01*
X37641300Y-23350000D02*
X36662700Y-24328600D01*
X36662700Y-24328600D02*
X36662700Y-28357300D01*
X39152900Y-22592800D02*
X38395700Y-23350000D01*
%TO.N,A12*%
X46700000Y-59982600D02*
X52852600Y-53830000D01*
X53684300Y-53830000D02*
X57569900Y-49944400D01*
X46700000Y-72000000D02*
X46700000Y-59982600D01*
X57569900Y-49944400D02*
X57569900Y-31962600D01*
X57569900Y-31962600D02*
X57649900Y-31882600D01*
X52852600Y-53830000D02*
X53684300Y-53830000D01*
%TO.N,A13*%
X76537000Y-34700000D02*
X61078500Y-50158500D01*
X54996900Y-35396200D02*
X54996900Y-34892900D01*
X61078500Y-50746600D02*
X60050100Y-51775000D01*
X61078500Y-50158500D02*
X61078500Y-50746600D01*
X78000000Y-34700000D02*
X76537000Y-34700000D01*
X59550500Y-51775000D02*
X56837100Y-54488400D01*
X60050100Y-51775000D02*
X59550500Y-51775000D01*
X52806100Y-61450000D02*
X49240000Y-65016100D01*
X54893400Y-60253800D02*
X53697200Y-61450000D01*
X53614000Y-33510000D02*
X52851900Y-33510000D01*
X49240000Y-65016100D02*
X49240000Y-72000000D01*
X54996900Y-34892900D02*
X53614000Y-33510000D01*
X56837100Y-55869800D02*
X54893400Y-57813500D01*
X52851900Y-33510000D02*
X51019400Y-31677500D01*
X56837100Y-54488400D02*
X56837100Y-55869800D01*
X27920000Y-32160000D02*
X25240000Y-32160000D01*
X51019400Y-31677500D02*
X51019400Y-30179200D01*
X38000000Y-22080000D02*
X27920000Y-32160000D01*
X53697200Y-61450000D02*
X52806100Y-61450000D01*
X54893400Y-57813500D02*
X54893400Y-60253800D01*
%TO.N,A14*%
X61580200Y-50505700D02*
X61580200Y-50954300D01*
X60257800Y-52276700D02*
X59809200Y-52276700D01*
X56998300Y-56621300D02*
X56367800Y-57251800D01*
X62430400Y-49655500D02*
X61580200Y-50505700D01*
X57712100Y-55704200D02*
X56998300Y-56418000D01*
X57712100Y-54373800D02*
X57712100Y-55704200D01*
X62870900Y-49075500D02*
X62430400Y-49516000D01*
X53631600Y-63990000D02*
X52873000Y-63990000D01*
X51393500Y-66591200D02*
X51780000Y-66977700D01*
X59809200Y-52276700D02*
X57712100Y-54373800D01*
X56998300Y-56418000D02*
X56998300Y-56621300D01*
X62430400Y-49516000D02*
X62430400Y-49655500D01*
X52873000Y-63990000D02*
X51393500Y-65469500D01*
X51393500Y-65469500D02*
X51393500Y-66591200D01*
X56367800Y-57251800D02*
X56367800Y-61253800D01*
X61580200Y-50954300D02*
X60257800Y-52276700D01*
X51780000Y-67960000D02*
X52156700Y-68336700D01*
X75045900Y-37240000D02*
X63210400Y-49075500D01*
X63210400Y-49075500D02*
X62870900Y-49075500D01*
X52156700Y-68336700D02*
X52156700Y-71623300D01*
X51780000Y-66977700D02*
X51780000Y-67960000D01*
X78000000Y-37240000D02*
X75045900Y-37240000D01*
X52156700Y-71623300D02*
X51780000Y-72000000D01*
X56367800Y-61253800D02*
X53631600Y-63990000D01*
%TO.N,A2*%
X12216500Y-47076500D02*
X10000000Y-44860000D01*
X15620000Y-67000000D02*
X12216500Y-63596500D01*
X12216500Y-63596500D02*
X12216500Y-47076500D01*
X31639100Y-36171800D02*
X31639100Y-37298700D01*
X33982000Y-33828900D02*
X31639100Y-36171800D01*
%TO.N,A3*%
X12949100Y-61789100D02*
X18160000Y-67000000D01*
X10000000Y-42320000D02*
X12949100Y-45269100D01*
X12949100Y-45269100D02*
X12949100Y-61789100D01*
%TO.N,A4*%
X13512800Y-59812800D02*
X20700000Y-67000000D01*
X13512800Y-43292800D02*
X13512800Y-59812800D01*
X10000000Y-39780000D02*
X13512800Y-43292800D01*
%TO.N,A6*%
X25780000Y-67000000D02*
X15674700Y-56894700D01*
X15674700Y-56894700D02*
X15674700Y-40374700D01*
X15674700Y-40374700D02*
X10000000Y-34700000D01*
%TO.N,A7*%
X28320000Y-67000000D02*
X16238400Y-54918400D01*
X16238400Y-54918400D02*
X16238400Y-38398400D01*
X16238400Y-38398400D02*
X10000000Y-32160000D01*
%TO.N,A8*%
X38385800Y-41130000D02*
X37607800Y-41130000D01*
X36295700Y-71755700D02*
X36540000Y-72000000D01*
X41635900Y-37879900D02*
X38385800Y-41130000D01*
X37607800Y-41130000D02*
X36295700Y-42442100D01*
X41635900Y-28413500D02*
X41635900Y-37879900D01*
X36295700Y-42442100D02*
X36295700Y-71755700D01*
%TO.N,A9*%
X23575900Y-44946600D02*
X23575900Y-45001500D01*
X23575900Y-43500600D02*
X23574400Y-43502100D01*
X23575900Y-38904100D02*
X23575900Y-43500600D01*
X28199200Y-64660600D02*
X28614700Y-64660600D01*
X23074200Y-60993400D02*
X25082900Y-63002100D01*
X23074200Y-45503200D02*
X23074200Y-60993400D01*
X28761700Y-64513600D02*
X30782700Y-66534700D01*
X25082900Y-63002100D02*
X26540700Y-63002100D01*
X25240000Y-37240000D02*
X23575900Y-38904100D01*
X23574400Y-43502100D02*
X23574400Y-44945100D01*
X26540700Y-63002100D02*
X28199200Y-64660600D01*
X28614700Y-64660600D02*
X28761700Y-64513600D01*
X23575900Y-45001500D02*
X23074200Y-45503200D01*
X23574400Y-44945100D02*
X23575900Y-44946600D01*
%TO.N,ADDR_ENABLE*%
X92105100Y-46754900D02*
X94000000Y-44860000D01*
X92105100Y-79022700D02*
X92105100Y-46754900D01*
X44511700Y-115908500D02*
X46441900Y-113978300D01*
X91050000Y-98921500D02*
X91050000Y-80077800D01*
X35740000Y-134000000D02*
X44511700Y-125228300D01*
X84971500Y-105000000D02*
X91050000Y-98921500D01*
X91050000Y-80077800D02*
X92105100Y-79022700D01*
X84000000Y-105000000D02*
X84971500Y-105000000D01*
X44511700Y-125228300D02*
X44511700Y-115908500D01*
X46441900Y-113978300D02*
X47080800Y-113978300D01*
%TO.N,BUSACK_N*%
X56335400Y-55577800D02*
X56335400Y-54278800D01*
X80487600Y-8717800D02*
X86717800Y-8717800D01*
X54391700Y-59028300D02*
X54391700Y-57521500D01*
X60576800Y-28628600D02*
X80487600Y-8717800D01*
X88000000Y-18540000D02*
X94000000Y-24540000D01*
X53240000Y-60180000D02*
X54391700Y-59028300D01*
X59842400Y-51273300D02*
X60576800Y-50538900D01*
X59340900Y-51273300D02*
X59842400Y-51273300D01*
X56335400Y-54278800D02*
X59340900Y-51273300D01*
X60576800Y-50538900D02*
X60576800Y-28628600D01*
X54391700Y-57521500D02*
X56335400Y-55577800D01*
X86717800Y-8717800D02*
X88000000Y-10000000D01*
X88000000Y-10000000D02*
X88000000Y-18540000D01*
%TO.N,BUSREQ_N*%
X47970000Y-79670900D02*
X47970000Y-60370000D01*
X77570500Y-41050000D02*
X78360800Y-41050000D01*
X47970000Y-60370000D02*
X53240000Y-55100000D01*
X78360800Y-41050000D02*
X81000000Y-38410800D01*
X81000000Y-38410800D02*
X81000000Y-10000000D01*
X69160000Y-62380000D02*
X69160000Y-49460500D01*
X69160000Y-49460500D02*
X77570500Y-41050000D01*
%TO.N,D0*%
X43532500Y-50020000D02*
X44113900Y-50601400D01*
X38000000Y-50020000D02*
X43532500Y-50020000D01*
%TO.N,D1*%
X36848300Y-51408300D02*
X36848300Y-49511000D01*
X36848300Y-49511000D02*
X37491000Y-48868300D01*
X39411900Y-48868300D02*
X39764600Y-49221000D01*
X48127900Y-49221000D02*
X51466800Y-52559900D01*
X37491000Y-48868300D02*
X39411900Y-48868300D01*
X38000000Y-52560000D02*
X36848300Y-51408300D01*
X39764600Y-49221000D02*
X48127900Y-49221000D01*
%TO.N,D3*%
X25240000Y-60100000D02*
X27913000Y-57427000D01*
X30688900Y-42174900D02*
X32173200Y-40690600D01*
X39178000Y-37817900D02*
X39178000Y-35958000D01*
X27913000Y-57427000D02*
X27913000Y-45662800D01*
X34922100Y-38590000D02*
X38405900Y-38590000D01*
X39178000Y-35958000D02*
X38000000Y-34780000D01*
X38405900Y-38590000D02*
X39178000Y-37817900D01*
X27913000Y-45662800D02*
X30688900Y-42886900D01*
X32173200Y-40690600D02*
X32821500Y-40690600D01*
X30688900Y-42886900D02*
X30688900Y-42174900D01*
X32821500Y-40690600D02*
X34922100Y-38590000D01*
%TO.N,D5*%
X33913300Y-38808400D02*
X33913300Y-38889400D01*
X33472900Y-39329800D02*
X32824600Y-39329800D01*
X26409600Y-53850400D02*
X25240000Y-55020000D01*
X38000000Y-37320000D02*
X35401700Y-37320000D01*
X35401700Y-37320000D02*
X33913300Y-38808400D01*
X26409600Y-45744800D02*
X26409600Y-53850400D01*
X32824600Y-39329800D02*
X26409600Y-45744800D01*
X33913300Y-38889400D02*
X33472900Y-39329800D01*
%TO.N,D6*%
X33250000Y-45488400D02*
X31581700Y-47156700D01*
X33250000Y-42089800D02*
X33250000Y-45488400D01*
X38000000Y-39860000D02*
X35479800Y-39860000D01*
X35479800Y-39860000D02*
X33250000Y-42089800D01*
%TO.N,DATA_DIR*%
X91936900Y-79900300D02*
X91936900Y-86369200D01*
X92606800Y-79230400D02*
X91936900Y-79900300D01*
X94000000Y-47400000D02*
X92606800Y-48793200D01*
X92606800Y-48793200D02*
X92606800Y-79230400D01*
X91936900Y-86369200D02*
X91888900Y-86417200D01*
%TO.N,DATA_ENABLE*%
X93557200Y-79698800D02*
X93557200Y-101155600D01*
X95165600Y-70560100D02*
X94102200Y-71623500D01*
X95165600Y-43485600D02*
X95165600Y-70560100D01*
X94102200Y-79153800D02*
X93557200Y-79698800D01*
X93557200Y-101155600D02*
X93696900Y-101295300D01*
X94000000Y-42320000D02*
X95165600Y-43485600D01*
X94102200Y-71623500D02*
X94102200Y-79153800D01*
%TO.N,GND*%
X34500000Y-42500000D02*
X34500000Y-55000000D01*
X61540000Y-62380000D02*
X59000000Y-64920000D01*
X85620000Y-49940000D02*
X85620000Y-52480000D01*
X115200000Y-37700000D02*
X115200000Y-52500000D01*
X59000000Y-93840000D02*
X59000000Y-70000000D01*
X118000000Y-112840000D02*
X118000000Y-124840000D01*
X34500000Y-55000000D02*
X32000000Y-57500000D01*
X86123300Y-62000000D02*
X86123300Y-55523300D01*
X51138200Y-116061800D02*
X51138200Y-103701800D01*
X150620000Y-72780000D02*
X152280000Y-72780000D01*
X85620000Y-52480000D02*
X85620000Y-55020000D01*
X110000000Y-104840000D02*
X118000000Y-112840000D01*
X60000000Y-94840000D02*
X59000000Y-93840000D01*
X143000000Y-103840000D02*
X143000000Y-77860000D01*
X8783900Y-58883900D02*
X10000000Y-60100000D01*
X152280000Y-72780000D02*
X161500000Y-82000000D01*
X10000000Y-24540000D02*
X8783900Y-25756100D01*
X50980000Y-116220000D02*
X51138200Y-116061800D01*
X51138200Y-103701800D02*
X60000000Y-94840000D01*
X87000000Y-62000000D02*
X86123300Y-62000000D01*
X61500000Y-59000000D02*
X61540000Y-59040000D01*
X86123300Y-55523300D02*
X85620000Y-55020000D01*
X80540000Y-44860000D02*
X78000000Y-44860000D01*
X8783900Y-25756100D02*
X8783900Y-58883900D01*
X59000000Y-64920000D02*
X59000000Y-70000000D01*
X61540000Y-59040000D02*
X61540000Y-62380000D01*
X12880000Y-134000000D02*
X12880000Y-116220000D01*
X107500000Y-30000000D02*
X115200000Y-37700000D01*
X142000000Y-104840000D02*
X143000000Y-103840000D01*
X85620000Y-49940000D02*
X80540000Y-44860000D01*
%TO.N,INT_N*%
X42890000Y-85110000D02*
X42890000Y-63340400D01*
X42890000Y-63340400D02*
X38577900Y-59028300D01*
X37750700Y-59028300D02*
X36826200Y-58103800D01*
X36826200Y-56273800D02*
X38000000Y-55100000D01*
X47780000Y-90000000D02*
X42890000Y-85110000D01*
X38577900Y-59028300D02*
X37750700Y-59028300D01*
X36826200Y-58103800D02*
X36826200Y-56273800D01*
%TO.N,IORQ_N*%
X97048800Y-54511200D02*
X101620000Y-49940000D01*
X40237100Y-78097500D02*
X40237100Y-67497100D01*
X97048800Y-77480500D02*
X97048800Y-54511200D01*
X40160000Y-90000000D02*
X40237100Y-89922900D01*
X40237100Y-67497100D02*
X38000000Y-65260000D01*
X40237100Y-89922900D02*
X40237100Y-78097500D01*
%TO.N,M1_N*%
X43000000Y-39780000D02*
X53240000Y-50020000D01*
X43000000Y-10000000D02*
X43000000Y-39780000D01*
%TO.N,MCP_CS_N*%
X74240000Y-62380000D02*
X74240000Y-51160000D01*
X74240000Y-51160000D02*
X78000000Y-47400000D01*
%TO.N,MCP_RESET_BASE*%
X88544600Y-100363900D02*
X86824600Y-102083900D01*
X88270000Y-62000000D02*
X88270000Y-63101700D01*
X110000000Y-124840000D02*
X108843900Y-123683900D01*
X88544600Y-63376300D02*
X88544600Y-100363900D01*
X108843900Y-111112400D02*
X109061800Y-110894500D01*
X88270000Y-63101700D02*
X88544600Y-63376300D01*
X108843900Y-123683900D02*
X108843900Y-111112400D01*
%TO.N,MCP_RESET_DRIVE*%
X108279700Y-41359700D02*
X108279700Y-133279700D01*
X101620000Y-34700000D02*
X108279700Y-41359700D01*
X108279700Y-133279700D02*
X110000000Y-135000000D01*
%TO.N,MCP_RESET_N*%
X119151700Y-104840600D02*
X109464800Y-95153700D01*
X85620000Y-47400000D02*
X89540000Y-51320000D01*
X89540000Y-51320000D02*
X89540000Y-62000000D01*
X119151700Y-128151700D02*
X119151700Y-104840600D01*
X126000000Y-135000000D02*
X119151700Y-128151700D01*
X109464800Y-95153700D02*
X109464800Y-73149700D01*
%TO.N,MCP_SCK*%
X79704100Y-61995900D02*
X79704100Y-51644100D01*
X79704100Y-51644100D02*
X78000000Y-49940000D01*
X79320000Y-62380000D02*
X79704100Y-61995900D01*
%TO.N,MCP_SI*%
X79320000Y-70000000D02*
X78125000Y-68805000D01*
X79194900Y-57121700D02*
X79194900Y-53674900D01*
X78125000Y-58191600D02*
X79194900Y-57121700D01*
X78125000Y-68805000D02*
X78125000Y-58191600D01*
X79194900Y-53674900D02*
X78000000Y-52480000D01*
%TO.N,MCP_SO*%
X78000000Y-55020000D02*
X75589400Y-57430600D01*
X74540000Y-90000000D02*
X74540000Y-97784900D01*
X75589400Y-83081100D02*
X77920900Y-85412600D01*
X75589400Y-57430600D02*
X75589400Y-83081100D01*
%TO.N,MREQ_N*%
X36824700Y-63895300D02*
X38000000Y-62720000D01*
X36824700Y-67877900D02*
X36824700Y-63895300D01*
X37620000Y-90000000D02*
X37728200Y-89891800D01*
X37728200Y-89891800D02*
X37728200Y-68781400D01*
X37728200Y-68781400D02*
X36824700Y-67877900D01*
%TO.N,NMI_N*%
X45430000Y-65070000D02*
X38000000Y-57640000D01*
X50320000Y-90000000D02*
X45430000Y-85110000D01*
X45430000Y-85110000D02*
X45430000Y-65070000D01*
%TO.N,PICO_BUSREQ_N*%
X66620000Y-77810400D02*
X78267600Y-89458000D01*
X24373800Y-130126200D02*
X24373800Y-110843600D01*
X66620000Y-70000000D02*
X66620000Y-77810400D01*
X78267600Y-89458000D02*
X78267600Y-93306300D01*
X20500000Y-134000000D02*
X24373800Y-130126200D01*
%TO.N,PICO_CE_N*%
X96210100Y-78588700D02*
X96210100Y-39450100D01*
X94829800Y-95699500D02*
X94829800Y-79969000D01*
X96210100Y-39450100D02*
X94000000Y-37240000D01*
X94829800Y-79969000D02*
X96210100Y-78588700D01*
X26742600Y-130297400D02*
X26742600Y-110628200D01*
X23040000Y-134000000D02*
X26742600Y-130297400D01*
%TO.N,PICO_D0*%
X84540000Y-137000000D02*
X97573600Y-123966400D01*
X97573600Y-123966400D02*
X97573600Y-82126200D01*
X97573600Y-82126200D02*
X99690800Y-80009000D01*
X99690800Y-80009000D02*
X99690800Y-62849200D01*
X99690800Y-62849200D02*
X105000000Y-57540000D01*
%TO.N,PICO_D1*%
X45574500Y-136214500D02*
X53639000Y-136214500D01*
X101253800Y-122826200D02*
X101253800Y-63826200D01*
X101253800Y-63826200D02*
X105000000Y-60080000D01*
X43360000Y-134000000D02*
X45574500Y-136214500D01*
X87080000Y-137000000D02*
X101253800Y-122826200D01*
%TO.N,PICO_D2*%
X101755500Y-124864500D02*
X101755500Y-65864500D01*
X89620000Y-137000000D02*
X101755500Y-124864500D01*
X101755500Y-65864500D02*
X105000000Y-62620000D01*
%TO.N,PICO_D3*%
X92160000Y-137000000D02*
X102257200Y-126902800D01*
X102257200Y-67902800D02*
X105000000Y-65160000D01*
X102257200Y-126902800D02*
X102257200Y-67902800D01*
%TO.N,PICO_D4*%
X94700000Y-137000000D02*
X102798200Y-128901800D01*
X102798200Y-128901800D02*
X102798200Y-69901800D01*
X102798200Y-69901800D02*
X105000000Y-67700000D01*
%TO.N,PICO_D5*%
X103339000Y-130901000D02*
X103339000Y-71901000D01*
X103339000Y-71901000D02*
X105000000Y-70240000D01*
X97240000Y-137000000D02*
X103339000Y-130901000D01*
%TO.N,PICO_D6*%
X106196100Y-130583900D02*
X106196100Y-77427300D01*
X106196100Y-77427300D02*
X105477100Y-76708300D01*
X99780000Y-137000000D02*
X106196100Y-130583900D01*
X105477100Y-76708300D02*
X104746400Y-76708300D01*
X104746400Y-76708300D02*
X103848200Y-75810100D01*
X103848200Y-73931800D02*
X105000000Y-72780000D01*
X103848200Y-75810100D02*
X103848200Y-73931800D01*
%TO.N,PICO_D7*%
X106742300Y-132577700D02*
X102320000Y-137000000D01*
X105000000Y-75320000D02*
X106742300Y-77062300D01*
X106742300Y-77062300D02*
X106742300Y-132577700D01*
%TO.N,PICO_OE_N*%
X94577900Y-38628300D02*
X95667400Y-39717800D01*
X94058900Y-79906500D02*
X94058900Y-98951100D01*
X92817200Y-33342800D02*
X92817200Y-37743700D01*
X93701800Y-38628300D02*
X94577900Y-38628300D01*
X95667400Y-39717800D02*
X95667400Y-78298000D01*
X95667400Y-78298000D02*
X94058900Y-79906500D01*
X92817200Y-37743700D02*
X93701800Y-38628300D01*
X94058900Y-98951100D02*
X95137000Y-100029200D01*
X94000000Y-32160000D02*
X92817200Y-33342800D01*
%TO.N,PICO_RD_N*%
X144408200Y-76451800D02*
X144408200Y-83414500D01*
X28120000Y-116220000D02*
X30058100Y-114281900D01*
X150620000Y-70240000D02*
X144408200Y-76451800D01*
%TO.N,PICO_SPI_CS_N*%
X123000000Y-90919600D02*
X117452400Y-85372000D01*
X123000000Y-94000000D02*
X123000000Y-90919600D01*
%TO.N,PICO_SPI_MISO*%
X136532600Y-105598700D02*
X136532600Y-81787400D01*
X136532600Y-81787400D02*
X143000000Y-75320000D01*
%TO.N,PICO_SPI_MOSI*%
X81860000Y-67610400D02*
X85891700Y-71642100D01*
X81860000Y-62380000D02*
X81860000Y-67610400D01*
X85891700Y-71642100D02*
X85891700Y-102990900D01*
%TO.N,PICO_SPI_SCK*%
X48669200Y-116220000D02*
X50386500Y-114502700D01*
X83312800Y-93699800D02*
X82822800Y-94189800D01*
X76780000Y-70000000D02*
X83312800Y-76532800D01*
X82822800Y-94189800D02*
X82822800Y-113198200D01*
X50386500Y-114502700D02*
X50386500Y-113481000D01*
X83312800Y-76532800D02*
X83312800Y-93699800D01*
X48440000Y-116220000D02*
X48669200Y-116220000D01*
%TO.N,PICO_WE_N*%
X94000000Y-27080000D02*
X95389800Y-28469800D01*
X95389800Y-28469800D02*
X95389800Y-37805000D01*
X101174800Y-43590000D02*
X101997000Y-43590000D01*
X101997000Y-43590000D02*
X107511000Y-49104000D01*
X95389800Y-37805000D02*
X101174800Y-43590000D01*
X107511000Y-49104000D02*
X107511000Y-98036200D01*
%TO.N,RD_N*%
X42700000Y-90000000D02*
X43907700Y-91207700D01*
X63182100Y-50061800D02*
X63182100Y-49828800D01*
X43907700Y-91207700D02*
X50790500Y-91207700D01*
X57046300Y-61390800D02*
X57046300Y-60928900D01*
X56869500Y-60752100D02*
X56869500Y-57459500D01*
X60073500Y-52778400D02*
X60465500Y-52778400D01*
X60465500Y-52778400D02*
X63182100Y-50061800D01*
X53240000Y-65260000D02*
X53240000Y-65197100D01*
X57046300Y-60928900D02*
X56869500Y-60752100D01*
X53240000Y-65197100D02*
X57046300Y-61390800D01*
X58213800Y-56115200D02*
X58213800Y-54638100D01*
X50790500Y-91207700D02*
X53050000Y-88948200D01*
X58213800Y-54638100D02*
X60073500Y-52778400D01*
X53050000Y-65450000D02*
X53240000Y-65260000D01*
X56869500Y-57459500D02*
X58213800Y-56115200D01*
X53050000Y-88948200D02*
X53050000Y-65450000D01*
%TO.N,RESET_N*%
X53240000Y-51877800D02*
X53240000Y-52560000D01*
X54397800Y-49548800D02*
X54397800Y-50720000D01*
X54822100Y-96804200D02*
X54822100Y-79778100D01*
X58965600Y-56115100D02*
X58965600Y-54961600D01*
X56549800Y-78050400D02*
X56549800Y-62596700D01*
X56549800Y-62596700D02*
X57621200Y-61525300D01*
X50000000Y-45969500D02*
X52662200Y-48631700D01*
X57621200Y-57459500D02*
X58965600Y-56115100D01*
X49543000Y-114246000D02*
X49543000Y-102083300D01*
X57621200Y-61525300D02*
X57621200Y-57459500D01*
X53480700Y-48631700D02*
X54397800Y-49548800D01*
X54822100Y-79778100D02*
X56549800Y-78050400D01*
X52662200Y-48631700D02*
X53480700Y-48631700D01*
X50000000Y-10000000D02*
X50000000Y-45969500D01*
X54397800Y-50720000D02*
X53240000Y-51877800D01*
X49543000Y-102083300D02*
X54822100Y-96804200D01*
%TO.N,SRAM_CE_N*%
X77080000Y-90000000D02*
X64080000Y-77000000D01*
X64080000Y-77000000D02*
X64080000Y-70000000D01*
%TO.N,SRAM_CE_PRE_N*%
X93307100Y-70882100D02*
X93378900Y-70810300D01*
X92320000Y-90000000D02*
X93055500Y-89264500D01*
X93307100Y-79239500D02*
X93307100Y-70882100D01*
X93055500Y-79491100D02*
X93307100Y-79239500D01*
X93055500Y-89264500D02*
X93055500Y-79491100D01*
%TO.N,SRAM_OE_N*%
X31566900Y-66228300D02*
X29320700Y-63982100D01*
X23825900Y-45460900D02*
X23931700Y-45460900D01*
X23575900Y-45710900D02*
X23825900Y-45460900D01*
X72970000Y-69623300D02*
X72970000Y-77184300D01*
X23575900Y-60785700D02*
X23575900Y-45710900D01*
X28406900Y-64158900D02*
X26748400Y-62500400D01*
X26748400Y-62500400D02*
X25290600Y-62500400D01*
X24083000Y-45309600D02*
X24083000Y-43477000D01*
X23931700Y-45460900D02*
X24083000Y-45309600D01*
X31566900Y-74790100D02*
X31566900Y-66228300D01*
X72191900Y-68845200D02*
X72970000Y-69623300D01*
X25290600Y-62500400D02*
X23575900Y-60785700D01*
X70314800Y-68845200D02*
X72191900Y-68845200D01*
X28407000Y-64158900D02*
X28406900Y-64158900D01*
X73385100Y-83765100D02*
X73385100Y-77599400D01*
X29320700Y-63982100D02*
X28583800Y-63982100D01*
X72970000Y-77184300D02*
X73385100Y-77599400D01*
X24083000Y-43477000D02*
X25240000Y-42320000D01*
X69160000Y-70000000D02*
X70314800Y-68845200D01*
X79620000Y-90000000D02*
X73385100Y-83765100D01*
X29095500Y-77261500D02*
X31566900Y-74790100D01*
X28583800Y-63982100D02*
X28407000Y-64158900D01*
%TO.N,SRAM_OE_PRE_N*%
X89780000Y-79362200D02*
X89780000Y-90000000D01*
X91353300Y-56724200D02*
X91353300Y-77788900D01*
X91353300Y-77788900D02*
X89780000Y-79362200D01*
%TO.N,SRAM_WE_N*%
X74240000Y-70000000D02*
X74240000Y-76579600D01*
X74478300Y-76817900D02*
X74478300Y-83038100D01*
X74240000Y-76579600D02*
X74478300Y-76817900D01*
X81440200Y-90000000D02*
X82160000Y-90000000D01*
X74478300Y-83038100D02*
X81440200Y-90000000D01*
%TO.N,SRAM_WE_PRE_N*%
X87240000Y-90000000D02*
X87775900Y-89464100D01*
X87775900Y-89464100D02*
X87775900Y-64039100D01*
%TO.N,WAIT_N*%
X59634700Y-50771600D02*
X60075100Y-50331200D01*
X53240000Y-57640000D02*
X54832000Y-56048000D01*
X60075100Y-23924900D02*
X74000000Y-10000000D01*
X60075100Y-50331200D02*
X60075100Y-23924900D01*
X59133000Y-50771600D02*
X59634700Y-50771600D01*
X54832000Y-55072600D02*
X59133000Y-50771600D01*
X54832000Y-56048000D02*
X54832000Y-55072600D01*
%TO.N,WR_N*%
X50510000Y-65450000D02*
X50510000Y-84730000D01*
X53240000Y-62720000D02*
X50510000Y-65450000D01*
%TD*%
M02*
