%TF.GenerationSoftware,KiCad,Pcbnew,10.0.6-10.0.6~ubuntu24.04.1*%
%TF.CreationDate,2026-09-12T05:11:53+00:00*%
%TF.ProjectId,z80_romless_sbc,7a38305f-726f-46d6-9c65-73735f736263,rev?*%
%TF.SameCoordinates,Original*%
%TF.FileFunction,Copper,L3,Inr*%
%TF.FilePolarity,Positive*%
%FSLAX46Y46*%
G04 Gerber Fmt 4.6, Leading zero omitted, Abs format (unit mm)*
G04 Created by KiCad (PCBNEW 10.0.6-10.0.6~ubuntu24.04.1) date 2026-09-12 05:11:53*
%MOMM*%
%LPD*%
G01*
G04 APERTURE LIST*
G04 Aperture macros list*
%AMRoundRect*
0 Rectangle with rounded corners*
0 $1 Rounding radius*
0 $2 $3 $4 $5 $6 $7 $8 $9 X,Y pos of 4 corners*
0 Add a 4 corners polygon primitive as box body*
4,1,4,$2,$3,$4,$5,$6,$7,$8,$9,$2,$3,0*
0 Add four circle primitives for the rounded corners*
1,1,$1+$1,$2,$3*
1,1,$1+$1,$4,$5*
1,1,$1+$1,$6,$7*
1,1,$1+$1,$8,$9*
0 Add four rect primitives between the rounded corners*
20,1,$1+$1,$2,$3,$4,$5,0*
20,1,$1+$1,$4,$5,$6,$7,0*
20,1,$1+$1,$6,$7,$8,$9,0*
20,1,$1+$1,$8,$9,$2,$3,0*%
%AMFreePoly0*
4,1,37,0.603843,0.796157,0.639018,0.796157,0.711114,0.766294,0.766294,0.711114,0.796157,0.639018,0.796157,0.603843,0.800000,0.600000,0.800000,-0.600000,0.796157,-0.603843,0.796157,-0.639018,0.766294,-0.711114,0.711114,-0.766294,0.639018,-0.796157,0.603843,-0.796157,0.600000,-0.800000,0.000000,-0.800000,0.000000,-0.796148,-0.078414,-0.796148,-0.232228,-0.765552,-0.377117,-0.705537,
-0.507515,-0.618408,-0.618408,-0.507515,-0.705537,-0.377117,-0.765552,-0.232228,-0.796148,-0.078414,-0.796148,0.078414,-0.765552,0.232228,-0.705537,0.377117,-0.618408,0.507515,-0.507515,0.618408,-0.377117,0.705537,-0.232228,0.765552,-0.078414,0.796148,0.000000,0.796148,0.000000,0.800000,0.600000,0.800000,0.603843,0.796157,0.603843,0.796157,$1*%
%AMFreePoly1*
4,1,37,0.000000,0.796148,0.078414,0.796148,0.232228,0.765552,0.377117,0.705537,0.507515,0.618408,0.618408,0.507515,0.705537,0.377117,0.765552,0.232228,0.796148,0.078414,0.796148,-0.078414,0.765552,-0.232228,0.705537,-0.377117,0.618408,-0.507515,0.507515,-0.618408,0.377117,-0.705537,0.232228,-0.765552,0.078414,-0.796148,0.000000,-0.796148,0.000000,-0.800000,-0.600000,-0.800000,
-0.603843,-0.796157,-0.639018,-0.796157,-0.711114,-0.766294,-0.766294,-0.711114,-0.796157,-0.639018,-0.796157,-0.603843,-0.800000,-0.600000,-0.800000,0.600000,-0.796157,0.603843,-0.796157,0.639018,-0.766294,0.711114,-0.711114,0.766294,-0.639018,0.796157,-0.603843,0.796157,-0.600000,0.800000,0.000000,0.800000,0.000000,0.796148,0.000000,0.796148,$1*%
G04 Aperture macros list end*
%TA.AperFunction,ComponentPad*%
%ADD10C,1.600000*%
%TD*%
%TA.AperFunction,ComponentPad*%
%ADD11RoundRect,0.250000X-0.550000X-0.550000X0.550000X-0.550000X0.550000X0.550000X-0.550000X0.550000X0*%
%TD*%
%TA.AperFunction,ComponentPad*%
%ADD12C,1.800000*%
%TD*%
%TA.AperFunction,ComponentPad*%
%ADD13R,1.050000X1.500000*%
%TD*%
%TA.AperFunction,ComponentPad*%
%ADD14O,1.050000X1.500000*%
%TD*%
%TA.AperFunction,ComponentPad*%
%ADD15R,1.600000X1.600000*%
%TD*%
%TA.AperFunction,ComponentPad*%
%ADD16RoundRect,0.200000X0.600000X-0.600000X0.600000X0.600000X-0.600000X0.600000X-0.600000X-0.600000X0*%
%TD*%
%TA.AperFunction,ComponentPad*%
%ADD17FreePoly0,90.000000*%
%TD*%
%TA.AperFunction,ComponentPad*%
%ADD18FreePoly1,90.000000*%
%TD*%
%TA.AperFunction,ComponentPad*%
%ADD19RoundRect,0.250000X0.550000X-0.550000X0.550000X0.550000X-0.550000X0.550000X-0.550000X-0.550000X0*%
%TD*%
%TA.AperFunction,ComponentPad*%
%ADD20RoundRect,0.249999X-0.850001X-0.850001X0.850001X-0.850001X0.850001X0.850001X-0.850001X0.850001X0*%
%TD*%
%TA.AperFunction,ComponentPad*%
%ADD21C,2.200000*%
%TD*%
%TA.AperFunction,ComponentPad*%
%ADD22RoundRect,0.250000X-0.750000X-0.750000X0.750000X-0.750000X0.750000X0.750000X-0.750000X0.750000X0*%
%TD*%
%TA.AperFunction,ComponentPad*%
%ADD23C,2.000000*%
%TD*%
%TA.AperFunction,ComponentPad*%
%ADD24RoundRect,0.249999X-1.250001X-1.250001X1.250001X-1.250001X1.250001X1.250001X-1.250001X1.250001X0*%
%TD*%
%TA.AperFunction,ComponentPad*%
%ADD25C,3.000000*%
%TD*%
%TA.AperFunction,ViaPad*%
%ADD26C,0.800000*%
%TD*%
%TA.AperFunction,Conductor*%
%ADD27C,0.600000*%
%TD*%
%TA.AperFunction,Conductor*%
%ADD28C,0.300000*%
%TD*%
G04 APERTURE END LIST*
D10*
%TO.N,+3V3*%
%TO.C,C8*%
X134200000Y-55000000D03*
%TO.N,GND*%
X134200000Y-52500000D03*
%TD*%
%TO.N,+5V*%
%TO.C,C4*%
X58000000Y-59000000D03*
%TO.N,GND*%
X60500000Y-59000000D03*
%TD*%
D11*
%TO.N,A8*%
%TO.C,U8*%
X78000000Y-22000000D03*
D10*
%TO.N,A9*%
X78000000Y-24540000D03*
%TO.N,A10*%
X78000000Y-27080000D03*
%TO.N,A11*%
X78000000Y-29620000D03*
%TO.N,A12*%
X78000000Y-32160000D03*
%TO.N,A13*%
X78000000Y-34700000D03*
%TO.N,A14*%
X78000000Y-37240000D03*
%TO.N,A15*%
X78000000Y-39780000D03*
%TO.N,+5V*%
X78000000Y-42320000D03*
%TO.N,GND*%
X78000000Y-44860000D03*
%TO.N,MCP_CS_N*%
X78000000Y-47400000D03*
%TO.N,MCP_SCK*%
X78000000Y-49940000D03*
%TO.N,MCP_SI*%
X78000000Y-52480000D03*
%TO.N,MCP_SO*%
X78000000Y-55020000D03*
%TO.N,GND*%
X85620000Y-55020000D03*
X85620000Y-52480000D03*
X85620000Y-49940000D03*
%TO.N,MCP_RESET_N*%
X85620000Y-47400000D03*
%TO.N,N/C*%
X85620000Y-44860000D03*
X85620000Y-42320000D03*
%TO.N,A0*%
X85620000Y-39780000D03*
%TO.N,A1*%
X85620000Y-37240000D03*
%TO.N,A2*%
X85620000Y-34700000D03*
%TO.N,A3*%
X85620000Y-32160000D03*
%TO.N,A4*%
X85620000Y-29620000D03*
%TO.N,A5*%
X85620000Y-27080000D03*
%TO.N,A6*%
X85620000Y-24540000D03*
%TO.N,A7*%
X85620000Y-22000000D03*
%TD*%
%TO.N,SRAM_WE_PRE_N*%
%TO.C,R14*%
X80800000Y-90000000D03*
%TO.N,+5V*%
X80800000Y-79840000D03*
%TD*%
D11*
%TO.N,+5V*%
%TO.C,C11*%
X158000000Y-82000000D03*
D10*
%TO.N,GND*%
X161500000Y-82000000D03*
%TD*%
D12*
%TO.N,BUSREQ_N*%
%TO.C,TP5*%
X81000000Y-10000000D03*
%TD*%
%TO.N,M1_N*%
%TO.C,TP1*%
X43000000Y-10000000D03*
%TD*%
D13*
%TO.N,GND*%
%TO.C,Q1*%
X86000000Y-62000000D03*
D14*
%TO.N,MCP_RESET_BASE*%
X87270000Y-62000000D03*
%TO.N,MCP_RESET_N*%
X88540000Y-62000000D03*
%TD*%
D10*
%TO.N,WAIT_N*%
%TO.C,R11*%
X64000000Y-90000000D03*
%TO.N,+5V*%
X64000000Y-79840000D03*
%TD*%
%TO.N,+5V*%
%TO.C,C2*%
X28000000Y-22000000D03*
%TO.N,GND*%
X30500000Y-22000000D03*
%TD*%
D15*
%TO.N,+5V*%
%TO.C,RN2*%
X34000000Y-72000000D03*
D10*
%TO.N,A8*%
X36540000Y-72000000D03*
%TO.N,A9*%
X39080000Y-72000000D03*
%TO.N,A10*%
X41620000Y-72000000D03*
%TO.N,A11*%
X44160000Y-72000000D03*
%TO.N,A12*%
X46700000Y-72000000D03*
%TO.N,A13*%
X49240000Y-72000000D03*
%TO.N,A14*%
X51780000Y-72000000D03*
%TO.N,A15*%
X54320000Y-72000000D03*
%TD*%
%TO.N,PICO_BUSREQ_N*%
%TO.C,R17*%
X105000000Y-94000000D03*
%TO.N,+3V3*%
X105000000Y-83840000D03*
%TD*%
%TO.N,IORQ_N*%
%TO.C,R4*%
X24800000Y-90000000D03*
%TO.N,+5V*%
X24800000Y-79840000D03*
%TD*%
D11*
%TO.N,N/C*%
%TO.C,U2*%
X10000000Y-22000000D03*
D10*
%TO.N,GND*%
X10000000Y-24540000D03*
%TO.N,A14*%
X10000000Y-27080000D03*
%TO.N,A12*%
X10000000Y-29620000D03*
%TO.N,A7*%
X10000000Y-32160000D03*
%TO.N,A6*%
X10000000Y-34700000D03*
%TO.N,A5*%
X10000000Y-37240000D03*
%TO.N,A4*%
X10000000Y-39780000D03*
%TO.N,A3*%
X10000000Y-42320000D03*
%TO.N,A2*%
X10000000Y-44860000D03*
%TO.N,A1*%
X10000000Y-47400000D03*
%TO.N,A0*%
X10000000Y-49940000D03*
%TO.N,D0*%
X10000000Y-52480000D03*
%TO.N,D1*%
X10000000Y-55020000D03*
%TO.N,D2*%
X10000000Y-57560000D03*
%TO.N,GND*%
X10000000Y-60100000D03*
%TO.N,D3*%
X25240000Y-60100000D03*
%TO.N,D4*%
X25240000Y-57560000D03*
%TO.N,D5*%
X25240000Y-55020000D03*
%TO.N,D6*%
X25240000Y-52480000D03*
%TO.N,D7*%
X25240000Y-49940000D03*
%TO.N,SRAM_CE_N*%
X25240000Y-47400000D03*
%TO.N,A10*%
X25240000Y-44860000D03*
%TO.N,SRAM_OE_N*%
X25240000Y-42320000D03*
%TO.N,A11*%
X25240000Y-39780000D03*
%TO.N,A9*%
X25240000Y-37240000D03*
%TO.N,A8*%
X25240000Y-34700000D03*
%TO.N,A13*%
X25240000Y-32160000D03*
%TO.N,SRAM_WE_N*%
X25240000Y-29620000D03*
%TO.N,+5V*%
X25240000Y-27080000D03*
%TO.N,A15*%
X25240000Y-24540000D03*
%TO.N,+5V*%
X25240000Y-22000000D03*
%TD*%
%TO.N,SRAM_CE_PRE_N*%
%TO.C,R16*%
X92000000Y-90000000D03*
%TO.N,+5V*%
X92000000Y-79840000D03*
%TD*%
D12*
%TO.N,GND*%
%TO.C,TP7*%
X95000000Y-10000000D03*
%TD*%
D10*
%TO.N,PICO_WE_N*%
%TO.C,R20*%
X132000000Y-94000000D03*
%TO.N,+3V3*%
X132000000Y-83840000D03*
%TD*%
D11*
%TO.N,+5V*%
%TO.C,C9*%
X32000000Y-61000000D03*
D10*
%TO.N,GND*%
X35500000Y-61000000D03*
%TD*%
D11*
%TO.N,RESET_N*%
%TO.C,U3*%
X94000000Y-22000000D03*
D10*
%TO.N,BUSACK_N*%
X94000000Y-24540000D03*
%TO.N,PICO_WE_N*%
X94000000Y-27080000D03*
%TO.N,WR_N*%
X94000000Y-29620000D03*
%TO.N,PICO_OE_N*%
X94000000Y-32160000D03*
%TO.N,RD_N*%
X94000000Y-34700000D03*
%TO.N,PICO_CE_N*%
X94000000Y-37240000D03*
%TO.N,MREQ_N*%
X94000000Y-39780000D03*
%TO.N,DATA_ENABLE*%
X94000000Y-42320000D03*
%TO.N,ADDR_ENABLE*%
X94000000Y-44860000D03*
%TO.N,DATA_DIR*%
X94000000Y-47400000D03*
%TO.N,GND*%
X94000000Y-49940000D03*
%TO.N,IORQ_N*%
X101620000Y-49940000D03*
%TO.N,SRAM_WE_PRE_N*%
X101620000Y-47400000D03*
%TO.N,SRAM_OE_PRE_N*%
X101620000Y-44860000D03*
%TO.N,SRAM_CE_PRE_N*%
X101620000Y-42320000D03*
%TO.N,DATA_UP_OE_N*%
X101620000Y-39780000D03*
%TO.N,DATA_DOWN_OE_N*%
X101620000Y-37240000D03*
%TO.N,MCP_RESET_DRIVE*%
X101620000Y-34700000D03*
%TO.N,WAIT_N*%
X101620000Y-32160000D03*
%TO.N,N/C*%
X101620000Y-29620000D03*
X101620000Y-27080000D03*
X101620000Y-24540000D03*
%TO.N,+5V*%
X101620000Y-22000000D03*
%TD*%
D16*
%TO.N,PICO_BUSACK_N*%
%TO.C,A1*%
X7800000Y-134000000D03*
D10*
%TO.N,PICO_IORQ_N*%
X10340000Y-134000000D03*
D17*
%TO.N,GND*%
X12880000Y-134000000D03*
D10*
%TO.N,PICO_CLK*%
X15420000Y-134000000D03*
%TO.N,RESET_N*%
X17960000Y-134000000D03*
%TO.N,PICO_BUSREQ_N*%
X20500000Y-134000000D03*
%TO.N,PICO_CE_N*%
X23040000Y-134000000D03*
D17*
%TO.N,GND*%
X25580000Y-134000000D03*
D10*
%TO.N,DATA_DIR*%
X28120000Y-134000000D03*
%TO.N,DATA_ENABLE*%
X30660000Y-134000000D03*
%TO.N,N/C*%
X33200000Y-134000000D03*
%TO.N,ADDR_ENABLE*%
X35740000Y-134000000D03*
D17*
%TO.N,GND*%
X38280000Y-134000000D03*
D10*
%TO.N,PICO_D0*%
X40820000Y-134000000D03*
%TO.N,PICO_D1*%
X43360000Y-134000000D03*
%TO.N,PICO_D2*%
X45900000Y-134000000D03*
%TO.N,PICO_D3*%
X48440000Y-134000000D03*
D17*
%TO.N,GND*%
X50980000Y-134000000D03*
D10*
%TO.N,PICO_D4*%
X53520000Y-134000000D03*
%TO.N,PICO_D5*%
X56060000Y-134000000D03*
%TO.N,PICO_D6*%
X56060000Y-116220000D03*
%TO.N,PICO_D7*%
X53520000Y-116220000D03*
D18*
%TO.N,GND*%
X50980000Y-116220000D03*
D10*
%TO.N,PICO_SPI_SCK*%
X48440000Y-116220000D03*
%TO.N,PICO_SPI_MOSI*%
X45900000Y-116220000D03*
%TO.N,PICO_SPI_MISO*%
X43360000Y-116220000D03*
%TO.N,PICO_SPI_CS_N*%
X40820000Y-116220000D03*
D18*
%TO.N,GND*%
X38280000Y-116220000D03*
D10*
%TO.N,PICO_WE_N*%
X35740000Y-116220000D03*
%TO.N,N/C*%
X33200000Y-116220000D03*
%TO.N,PICO_OE_N*%
X30660000Y-116220000D03*
%TO.N,PICO_RD_N*%
X28120000Y-116220000D03*
D18*
%TO.N,GND*%
X25580000Y-116220000D03*
D10*
%TO.N,PICO_WR_N*%
X23040000Y-116220000D03*
%TO.N,N/C*%
X20500000Y-116220000D03*
%TO.N,+3V3*%
X17960000Y-116220000D03*
%TO.N,N/C*%
X15420000Y-116220000D03*
D18*
%TO.N,GND*%
X12880000Y-116220000D03*
D10*
%TO.N,VSYS*%
X10340000Y-116220000D03*
%TO.N,N/C*%
X7800000Y-116220000D03*
%TD*%
%TO.N,SRAM_OE_PRE_N*%
%TO.C,R15*%
X86400000Y-90000000D03*
%TO.N,+5V*%
X86400000Y-79840000D03*
%TD*%
%TO.N,ADDR_ENABLE*%
%TO.C,R26*%
X84000000Y-105000000D03*
%TO.N,GND*%
X84000000Y-94840000D03*
%TD*%
%TO.N,PICO_SPI_CS_N*%
%TO.C,R19*%
X123000000Y-94000000D03*
%TO.N,+3V3*%
X123000000Y-83840000D03*
%TD*%
%TO.N,DATA_ENABLE*%
%TO.C,R24*%
X68000000Y-105000000D03*
%TO.N,GND*%
X68000000Y-94840000D03*
%TD*%
%TO.N,PICO_SPI_SCK*%
%TO.C,R27*%
X142000000Y-115000000D03*
%TO.N,GND*%
X142000000Y-104840000D03*
%TD*%
%TO.N,PICO_OE_N*%
%TO.C,R21*%
X141000000Y-94000000D03*
%TO.N,+3V3*%
X141000000Y-83840000D03*
%TD*%
%TO.N,BUSACK_N*%
%TO.C,R2*%
X13600000Y-90000000D03*
%TO.N,+5V*%
X13600000Y-79840000D03*
%TD*%
D12*
%TO.N,WAIT_N*%
%TO.C,TP4*%
X74000000Y-10000000D03*
%TD*%
D10*
%TO.N,SRAM_WE_N*%
%TO.C,R10*%
X58400000Y-90000000D03*
%TO.N,+5V*%
X58400000Y-79840000D03*
%TD*%
D19*
%TO.N,GND*%
%TO.C,U4*%
X58000000Y-70000000D03*
D10*
%TO.N,PICO_CLK*%
X60540000Y-70000000D03*
%TO.N,SRAM_CE_N*%
X63080000Y-70000000D03*
%TO.N,PICO_BUSREQ_N*%
X65620000Y-70000000D03*
%TO.N,SRAM_OE_N*%
X68160000Y-70000000D03*
%TO.N,PICO_SPI_CS_N*%
X70700000Y-70000000D03*
%TO.N,SRAM_WE_N*%
X73240000Y-70000000D03*
%TO.N,PICO_SPI_SCK*%
X75780000Y-70000000D03*
%TO.N,MCP_SI*%
X78320000Y-70000000D03*
%TO.N,GND*%
X80860000Y-70000000D03*
%TO.N,PICO_SPI_MOSI*%
X80860000Y-62380000D03*
%TO.N,MCP_SCK*%
X78320000Y-62380000D03*
%TO.N,SRAM_WE_PRE_N*%
X75780000Y-62380000D03*
%TO.N,MCP_CS_N*%
X73240000Y-62380000D03*
%TO.N,SRAM_OE_PRE_N*%
X70700000Y-62380000D03*
%TO.N,BUSREQ_N*%
X68160000Y-62380000D03*
%TO.N,SRAM_CE_PRE_N*%
X65620000Y-62380000D03*
%TO.N,Z80_CLK*%
X63080000Y-62380000D03*
%TO.N,GND*%
X60540000Y-62380000D03*
%TO.N,+5V*%
X58000000Y-62380000D03*
%TD*%
%TO.N,RD_N*%
%TO.C,R5*%
X30400000Y-90000000D03*
%TO.N,+5V*%
X30400000Y-79840000D03*
%TD*%
D11*
%TO.N,GND*%
%TO.C,U10*%
X124000000Y-55000000D03*
D10*
%TO.N,PICO_D0*%
X124000000Y-57540000D03*
%TO.N,PICO_D1*%
X124000000Y-60080000D03*
%TO.N,PICO_D2*%
X124000000Y-62620000D03*
%TO.N,PICO_D3*%
X124000000Y-65160000D03*
%TO.N,PICO_D4*%
X124000000Y-67700000D03*
%TO.N,PICO_D5*%
X124000000Y-70240000D03*
%TO.N,PICO_D6*%
X124000000Y-72780000D03*
%TO.N,PICO_D7*%
X124000000Y-75320000D03*
%TO.N,GND*%
X124000000Y-77860000D03*
%TO.N,D7*%
X131620000Y-77860000D03*
%TO.N,D6*%
X131620000Y-75320000D03*
%TO.N,D5*%
X131620000Y-72780000D03*
%TO.N,D4*%
X131620000Y-70240000D03*
%TO.N,D3*%
X131620000Y-67700000D03*
%TO.N,D2*%
X131620000Y-65160000D03*
%TO.N,D1*%
X131620000Y-62620000D03*
%TO.N,D0*%
X131620000Y-60080000D03*
%TO.N,DATA_DOWN_OE_N*%
X131620000Y-57540000D03*
%TO.N,+3V3*%
X131620000Y-55000000D03*
%TD*%
%TO.N,NMI_N*%
%TO.C,R13*%
X75200000Y-90000000D03*
%TO.N,+5V*%
X75200000Y-79840000D03*
%TD*%
%TO.N,WR_N*%
%TO.C,R6*%
X36000000Y-90000000D03*
%TO.N,+5V*%
X36000000Y-79840000D03*
%TD*%
%TO.N,+5V*%
%TO.C,C7*%
X115200000Y-55000000D03*
%TO.N,GND*%
X115200000Y-52500000D03*
%TD*%
%TO.N,+5V*%
%TO.C,C6*%
X71000000Y-43000000D03*
%TO.N,GND*%
X73500000Y-43000000D03*
%TD*%
%TO.N,MCP_SO*%
%TO.C,R7*%
X41600000Y-90000000D03*
%TO.N,+5V*%
X41600000Y-79840000D03*
%TD*%
%TO.N,MREQ_N*%
%TO.C,R3*%
X19200000Y-90000000D03*
%TO.N,+5V*%
X19200000Y-79840000D03*
%TD*%
%TO.N,SRAM_CE_N*%
%TO.C,R8*%
X47200000Y-90000000D03*
%TO.N,+5V*%
X47200000Y-79840000D03*
%TD*%
%TO.N,MCP_RESET_DRIVE*%
%TO.C,R29*%
X110000000Y-135000000D03*
%TO.N,MCP_RESET_BASE*%
X110000000Y-124840000D03*
%TD*%
%TO.N,MCP_RESET_BASE*%
%TO.C,R30*%
X118000000Y-135000000D03*
%TO.N,GND*%
X118000000Y-124840000D03*
%TD*%
D12*
%TO.N,Z80_CLK*%
%TO.C,TP2*%
X85000000Y-68000000D03*
%TD*%
D10*
%TO.N,DATA_DIR*%
%TO.C,R25*%
X76000000Y-105000000D03*
%TO.N,GND*%
X76000000Y-94840000D03*
%TD*%
D12*
%TO.N,BUSACK_N*%
%TO.C,TP6*%
X88000000Y-10000000D03*
%TD*%
D10*
%TO.N,RESET_N*%
%TO.C,R23*%
X110000000Y-115000000D03*
%TO.N,GND*%
X110000000Y-104840000D03*
%TD*%
D15*
%TO.N,+5V*%
%TO.C,RN1*%
X8000000Y-67000000D03*
D10*
%TO.N,A0*%
X10540000Y-67000000D03*
%TO.N,A1*%
X13080000Y-67000000D03*
%TO.N,A2*%
X15620000Y-67000000D03*
%TO.N,A3*%
X18160000Y-67000000D03*
%TO.N,A4*%
X20700000Y-67000000D03*
%TO.N,A5*%
X23240000Y-67000000D03*
%TO.N,A6*%
X25780000Y-67000000D03*
%TO.N,A7*%
X28320000Y-67000000D03*
%TD*%
%TO.N,+5V*%
%TO.C,C3*%
X105000000Y-30000000D03*
%TO.N,GND*%
X107500000Y-30000000D03*
%TD*%
D11*
%TO.N,+5V*%
%TO.C,U9*%
X105000000Y-55000000D03*
D10*
%TO.N,PICO_D0*%
X105000000Y-57540000D03*
%TO.N,PICO_D1*%
X105000000Y-60080000D03*
%TO.N,PICO_D2*%
X105000000Y-62620000D03*
%TO.N,PICO_D3*%
X105000000Y-65160000D03*
%TO.N,PICO_D4*%
X105000000Y-67700000D03*
%TO.N,PICO_D5*%
X105000000Y-70240000D03*
%TO.N,PICO_D6*%
X105000000Y-72780000D03*
%TO.N,PICO_D7*%
X105000000Y-75320000D03*
%TO.N,GND*%
X105000000Y-77860000D03*
%TO.N,D7*%
X112620000Y-77860000D03*
%TO.N,D6*%
X112620000Y-75320000D03*
%TO.N,D5*%
X112620000Y-72780000D03*
%TO.N,D4*%
X112620000Y-70240000D03*
%TO.N,D3*%
X112620000Y-67700000D03*
%TO.N,D2*%
X112620000Y-65160000D03*
%TO.N,D1*%
X112620000Y-62620000D03*
%TO.N,D0*%
X112620000Y-60080000D03*
%TO.N,DATA_UP_OE_N*%
X112620000Y-57540000D03*
%TO.N,+5V*%
X112620000Y-55000000D03*
%TD*%
%TO.N,INT_N*%
%TO.C,R12*%
X69600000Y-90000000D03*
%TO.N,+5V*%
X69600000Y-79840000D03*
%TD*%
D20*
%TO.N,VSYS*%
%TO.C,D1*%
X15000000Y-105000000D03*
D21*
%TO.N,+5V*%
X25160000Y-105000000D03*
%TD*%
D11*
%TO.N,+5V*%
%TO.C,C10*%
X96000000Y-82000000D03*
D10*
%TO.N,GND*%
X99500000Y-82000000D03*
%TD*%
D11*
%TO.N,GND*%
%TO.C,U7*%
X143000000Y-55000000D03*
D10*
%TO.N,BUSACK_N*%
X143000000Y-57540000D03*
%TO.N,N/C*%
X143000000Y-60080000D03*
%TO.N,IORQ_N*%
X143000000Y-62620000D03*
%TO.N,N/C*%
X143000000Y-65160000D03*
%TO.N,RD_N*%
X143000000Y-67700000D03*
%TO.N,N/C*%
X143000000Y-70240000D03*
%TO.N,WR_N*%
X143000000Y-72780000D03*
%TO.N,PICO_SPI_MISO*%
X143000000Y-75320000D03*
%TO.N,GND*%
X143000000Y-77860000D03*
%TO.N,MCP_SO*%
X150620000Y-77860000D03*
%TO.N,PICO_WR_N*%
X150620000Y-75320000D03*
%TO.N,GND*%
X150620000Y-72780000D03*
%TO.N,PICO_RD_N*%
X150620000Y-70240000D03*
%TO.N,GND*%
X150620000Y-67700000D03*
%TO.N,PICO_IORQ_N*%
X150620000Y-65160000D03*
%TO.N,GND*%
X150620000Y-62620000D03*
%TO.N,PICO_BUSACK_N*%
X150620000Y-60080000D03*
%TO.N,GND*%
X150620000Y-57540000D03*
%TO.N,+3V3*%
X150620000Y-55000000D03*
%TD*%
%TO.N,+3V3*%
%TO.C,C5*%
X155000000Y-55000000D03*
%TO.N,GND*%
X155000000Y-52500000D03*
%TD*%
%TO.N,SRAM_OE_N*%
%TO.C,R9*%
X52800000Y-90000000D03*
%TO.N,+5V*%
X52800000Y-79840000D03*
%TD*%
D12*
%TO.N,RESET_N*%
%TO.C,TP3*%
X50000000Y-10000000D03*
%TD*%
D10*
%TO.N,+5V*%
%TO.C,C1*%
X34000000Y-42500000D03*
%TO.N,GND*%
X36500000Y-42500000D03*
%TD*%
%TO.N,MCP_RESET_N*%
%TO.C,R31*%
X126000000Y-135000000D03*
%TO.N,+5V*%
X126000000Y-124840000D03*
%TD*%
%TO.N,PICO_CE_N*%
%TO.C,R18*%
X114000000Y-94000000D03*
%TO.N,+3V3*%
X114000000Y-83840000D03*
%TD*%
%TO.N,PICO_CLK*%
%TO.C,R22*%
X60000000Y-105000000D03*
%TO.N,GND*%
X60000000Y-94840000D03*
%TD*%
D15*
%TO.N,GND*%
%TO.C,RN3*%
X82000000Y-137000000D03*
D10*
%TO.N,PICO_D0*%
X84540000Y-137000000D03*
%TO.N,PICO_D1*%
X87080000Y-137000000D03*
%TO.N,PICO_D2*%
X89620000Y-137000000D03*
%TO.N,PICO_D3*%
X92160000Y-137000000D03*
%TO.N,PICO_D4*%
X94700000Y-137000000D03*
%TO.N,PICO_D5*%
X97240000Y-137000000D03*
%TO.N,PICO_D6*%
X99780000Y-137000000D03*
%TO.N,PICO_D7*%
X102320000Y-137000000D03*
%TD*%
D11*
%TO.N,A11*%
%TO.C,U1*%
X40000000Y-17000000D03*
D10*
%TO.N,A12*%
X40000000Y-19540000D03*
%TO.N,A13*%
X40000000Y-22080000D03*
%TO.N,A14*%
X40000000Y-24620000D03*
%TO.N,A15*%
X40000000Y-27160000D03*
%TO.N,Z80_CLK*%
X40000000Y-29700000D03*
%TO.N,D4*%
X40000000Y-32240000D03*
%TO.N,D3*%
X40000000Y-34780000D03*
%TO.N,D5*%
X40000000Y-37320000D03*
%TO.N,D6*%
X40000000Y-39860000D03*
%TO.N,+5V*%
X40000000Y-42400000D03*
%TO.N,D2*%
X40000000Y-44940000D03*
%TO.N,D7*%
X40000000Y-47480000D03*
%TO.N,D0*%
X40000000Y-50020000D03*
%TO.N,D1*%
X40000000Y-52560000D03*
%TO.N,INT_N*%
X40000000Y-55100000D03*
%TO.N,NMI_N*%
X40000000Y-57640000D03*
%TO.N,N/C*%
X40000000Y-60180000D03*
%TO.N,MREQ_N*%
X40000000Y-62720000D03*
%TO.N,IORQ_N*%
X40000000Y-65260000D03*
%TO.N,RD_N*%
X55240000Y-65260000D03*
%TO.N,WR_N*%
X55240000Y-62720000D03*
%TO.N,BUSACK_N*%
X55240000Y-60180000D03*
%TO.N,WAIT_N*%
X55240000Y-57640000D03*
%TO.N,BUSREQ_N*%
X55240000Y-55100000D03*
%TO.N,RESET_N*%
X55240000Y-52560000D03*
%TO.N,M1_N*%
X55240000Y-50020000D03*
%TO.N,N/C*%
X55240000Y-47480000D03*
%TO.N,GND*%
X55240000Y-44940000D03*
%TO.N,A0*%
X55240000Y-42400000D03*
%TO.N,A1*%
X55240000Y-39860000D03*
%TO.N,A2*%
X55240000Y-37320000D03*
%TO.N,A3*%
X55240000Y-34780000D03*
%TO.N,A4*%
X55240000Y-32240000D03*
%TO.N,A5*%
X55240000Y-29700000D03*
%TO.N,A6*%
X55240000Y-27160000D03*
%TO.N,A7*%
X55240000Y-24620000D03*
%TO.N,A8*%
X55240000Y-22080000D03*
%TO.N,A9*%
X55240000Y-19540000D03*
%TO.N,A10*%
X55240000Y-17000000D03*
%TD*%
D22*
%TO.N,+5V*%
%TO.C,C12*%
X27000000Y-12000000D03*
D23*
%TO.N,GND*%
X32000000Y-12000000D03*
%TD*%
D10*
%TO.N,BUSREQ_N*%
%TO.C,R1*%
X8000000Y-90000000D03*
%TO.N,+5V*%
X8000000Y-79840000D03*
%TD*%
D24*
%TO.N,+5V*%
%TO.C,J1*%
X16000000Y-13000000D03*
D25*
%TO.N,GND*%
X21000000Y-13000000D03*
%TD*%
D10*
%TO.N,PICO_SPI_MOSI*%
%TO.C,R28*%
X150000000Y-115000000D03*
%TO.N,GND*%
X150000000Y-104840000D03*
%TD*%
D26*
%TO.N,A0*%
X37028500Y-63130700D03*
%TO.N,A1*%
X47212800Y-40984700D03*
%TO.N,A10*%
X31279900Y-18280200D03*
%TO.N,A11*%
X28332300Y-45496100D03*
%TO.N,A12*%
X42468600Y-23883000D03*
X44379400Y-54108500D03*
%TO.N,A13*%
X76166600Y-31470400D03*
X48727500Y-58863000D03*
%TO.N,A2*%
X27297900Y-43987100D03*
X46887800Y-42772100D03*
%TO.N,A3*%
X47203800Y-37370500D03*
X35875900Y-39101400D03*
%TO.N,A4*%
X34432900Y-37177200D03*
X47160000Y-32997200D03*
%TO.N,A5*%
X27686100Y-28808600D03*
X48047500Y-31324500D03*
%TO.N,A6*%
X26648900Y-24825700D03*
%TO.N,A7*%
X44143600Y-20662800D03*
%TO.N,A8*%
X22185100Y-55316100D03*
%TO.N,A9*%
X23540200Y-47350600D03*
%TO.N,BUSACK_N*%
X82471500Y-62494100D03*
%TO.N,D0*%
X47205000Y-45058400D03*
X32667200Y-51210000D03*
X69867900Y-58322700D03*
%TO.N,D1*%
X61640900Y-56350600D03*
X101693700Y-57185900D03*
X34487900Y-53791100D03*
%TO.N,D2*%
X99751300Y-57183600D03*
X63304800Y-56596200D03*
X57809300Y-56959500D03*
%TO.N,D3*%
X67748200Y-48478700D03*
X111371200Y-56661000D03*
%TO.N,D5*%
X56898400Y-54446400D03*
%TO.N,D6*%
X34964100Y-40040600D03*
X48742300Y-73530900D03*
X29248300Y-70479300D03*
%TO.N,D7*%
X48732300Y-53966200D03*
X32752700Y-48635800D03*
%TO.N,DATA_ENABLE*%
X50419700Y-110898900D03*
X75650800Y-99994800D03*
%TO.N,GND*%
X79471700Y-82121600D03*
X119005100Y-79877600D03*
%TO.N,INT_N*%
X53469400Y-84172500D03*
X41462000Y-69591800D03*
%TO.N,IORQ_N*%
X60591600Y-56695000D03*
X34901400Y-76773900D03*
%TO.N,MCP_RESET_BASE*%
X105902500Y-73945500D03*
%TO.N,MCP_RESET_DRIVE*%
X103153700Y-43233700D03*
%TO.N,MCP_RESET_N*%
X108201100Y-69039200D03*
%TO.N,MCP_SO*%
X115587300Y-58171900D03*
X56788700Y-80346200D03*
%TO.N,MREQ_N*%
X61374600Y-54390800D03*
X31739800Y-76752100D03*
%TO.N,NMI_N*%
X41946500Y-75209800D03*
X47118500Y-83666100D03*
%TO.N,PICO_BUSREQ_N*%
X29857800Y-104810800D03*
%TO.N,PICO_CE_N*%
X29390000Y-105810100D03*
%TO.N,PICO_D0*%
X114881800Y-57250000D03*
%TO.N,PICO_D2*%
X53450400Y-135464100D03*
%TO.N,PICO_D3*%
X65509600Y-137781800D03*
%TO.N,PICO_D5*%
X117408600Y-70240000D03*
%TO.N,PICO_D6*%
X101352600Y-115566100D03*
%TO.N,PICO_D7*%
X106178900Y-115197500D03*
X117419500Y-75320000D03*
%TO.N,PICO_OE_N*%
X46271500Y-113521700D03*
X99814800Y-36182900D03*
%TO.N,PICO_RD_N*%
X49180300Y-111304100D03*
%TO.N,PICO_SPI_CS_N*%
X58511700Y-98469100D03*
%TO.N,PICO_SPI_MOSI*%
X74381400Y-103826300D03*
X145745500Y-112443600D03*
%TO.N,PICO_SPI_SCK*%
X72224900Y-114030100D03*
%TO.N,RD_N*%
X87073300Y-65207700D03*
X49930800Y-80346200D03*
%TO.N,RESET_N*%
X73624000Y-112900100D03*
%TO.N,SRAM_CE_N*%
X34664800Y-68206500D03*
%TO.N,SRAM_CE_PRE_N*%
X90674200Y-67672400D03*
%TO.N,SRAM_OE_N*%
X27095900Y-45993700D03*
X56021800Y-66468200D03*
X41415000Y-64533600D03*
%TO.N,SRAM_OE_PRE_N*%
X91345800Y-56927500D03*
%TO.N,SRAM_WE_N*%
X46252800Y-61911100D03*
X32628100Y-35842200D03*
X59001800Y-65864100D03*
%TO.N,SRAM_WE_PRE_N*%
X77104900Y-74457100D03*
%TO.N,WAIT_N*%
X63966900Y-49163500D03*
%TO.N,WR_N*%
X97698000Y-32612900D03*
X139705300Y-50445200D03*
%TD*%
%TO.N,+3V3*%
D27*
X41973600Y-91419900D02*
X17960000Y-115433500D01*
X17960000Y-115433500D02*
X17960000Y-116220000D01*
X105000000Y-83840000D02*
X114000000Y-83840000D01*
X116709000Y-91419900D02*
X41973600Y-91419900D01*
X123000000Y-83840000D02*
X123000000Y-85128900D01*
X134200000Y-55000000D02*
X131620000Y-55000000D01*
X123000000Y-85128900D02*
X116709000Y-91419900D01*
%TO.N,+5V*%
X60203500Y-57596700D02*
X69318800Y-57596700D01*
X105000000Y-30000000D02*
X105000000Y-25380000D01*
X52800000Y-79840000D02*
X52404500Y-79444500D01*
X94160000Y-82000000D02*
X92000000Y-79840000D01*
X33001600Y-34940500D02*
X32542900Y-34940500D01*
X158000000Y-101464300D02*
X158000000Y-82000000D01*
X105000000Y-25380000D02*
X101620000Y-22000000D01*
X38760200Y-41160200D02*
X40000000Y-42400000D01*
X41600000Y-79840000D02*
X47200000Y-79840000D01*
X64000000Y-79840000D02*
X69600000Y-79840000D01*
X91239800Y-58096600D02*
X102058200Y-58096600D01*
X66344800Y-47655200D02*
X71000000Y-43000000D01*
X27000000Y-12000000D02*
X25977700Y-10977700D01*
X71000000Y-43000000D02*
X72374500Y-41625500D01*
X28000000Y-22000000D02*
X25240000Y-22000000D01*
X18022300Y-10977700D02*
X16000000Y-13000000D01*
X53195500Y-79444500D02*
X52800000Y-79840000D01*
X66344800Y-48060800D02*
X66344800Y-47655200D01*
X115200000Y-55000000D02*
X112620000Y-55000000D01*
X58004500Y-79444500D02*
X53195500Y-79444500D01*
X75200000Y-79840000D02*
X80800000Y-79840000D01*
X77305500Y-41625500D02*
X78000000Y-42320000D01*
X59689900Y-54715700D02*
X66344800Y-48060800D01*
X36000000Y-79840000D02*
X41600000Y-79840000D01*
X33529800Y-40190900D02*
X33529800Y-35468700D01*
X86400000Y-79840000D02*
X92000000Y-79840000D01*
X59803400Y-57196600D02*
X60203500Y-57596700D01*
X126000000Y-124840000D02*
X134624300Y-124840000D01*
X64000000Y-79840000D02*
X58400000Y-79840000D01*
X96000000Y-82000000D02*
X94160000Y-82000000D01*
X72374500Y-41625500D02*
X77305500Y-41625500D01*
X134624300Y-124840000D02*
X158000000Y-101464300D01*
X58400000Y-79840000D02*
X58004500Y-79444500D01*
X8000000Y-79840000D02*
X13600000Y-79840000D01*
X34000000Y-42500000D02*
X34499100Y-42000900D01*
X47595500Y-79444500D02*
X47200000Y-79840000D01*
X25977700Y-10977700D02*
X18022300Y-10977700D01*
X102058200Y-58096600D02*
X105000000Y-55154800D01*
X32542900Y-34940500D02*
X25240000Y-27637600D01*
X80800000Y-79840000D02*
X86400000Y-79840000D01*
X34499100Y-42000900D02*
X34499100Y-41160200D01*
X34499100Y-41160200D02*
X33529800Y-40190900D01*
X69494500Y-57421000D02*
X90564200Y-57421000D01*
X69600000Y-79840000D02*
X75200000Y-79840000D01*
X13600000Y-79840000D02*
X19200000Y-79840000D01*
X25240000Y-27637600D02*
X25240000Y-27080000D01*
X59803400Y-57196600D02*
X58000000Y-59000000D01*
X34499100Y-41160200D02*
X38760200Y-41160200D01*
X33529800Y-35468700D02*
X33001600Y-34940500D01*
X90564200Y-57421000D02*
X91239800Y-58096600D01*
X52404500Y-79444500D02*
X47595500Y-79444500D01*
X59803400Y-57196600D02*
X59689900Y-57083100D01*
X105000000Y-55154800D02*
X105000000Y-55000000D01*
X69318800Y-57596700D02*
X69494500Y-57421000D01*
X19200000Y-79840000D02*
X24800000Y-79840000D01*
X59689900Y-57083100D02*
X59689900Y-54715700D01*
%TO.N,A1*%
D28*
X35524200Y-44185200D02*
X35972900Y-43736500D01*
X44461000Y-43736500D02*
X47212800Y-40984700D01*
X84388300Y-38471700D02*
X85620000Y-37240000D01*
X33091700Y-44185200D02*
X35524200Y-44185200D01*
X35972900Y-43736500D02*
X44461000Y-43736500D01*
X55949300Y-39860000D02*
X57337600Y-38471700D01*
X30045400Y-41138900D02*
X33091700Y-44185200D01*
X16261100Y-41138900D02*
X30045400Y-41138900D01*
X10000000Y-47400000D02*
X16261100Y-41138900D01*
X55240000Y-39860000D02*
X55949300Y-39860000D01*
X57337600Y-38471700D02*
X84388300Y-38471700D01*
%TO.N,A10*%
X25240000Y-44860000D02*
X25240000Y-45569400D01*
X33194500Y-54233300D02*
X33194500Y-55324200D01*
X34197900Y-64577900D02*
X41620000Y-72000000D01*
X55240000Y-17000000D02*
X54078400Y-15838400D01*
X54078400Y-15838400D02*
X33721700Y-15838400D01*
X34197900Y-56327600D02*
X34197900Y-64577900D01*
X79680100Y-25399900D02*
X79680100Y-21665000D01*
X29545500Y-50584300D02*
X33194500Y-54233300D01*
X79680100Y-21665000D02*
X75015100Y-17000000D01*
X78000000Y-27080000D02*
X79680100Y-25399900D01*
X33194500Y-55324200D02*
X34197900Y-56327600D01*
X29545500Y-49874900D02*
X29545500Y-50584300D01*
X75015100Y-17000000D02*
X55240000Y-17000000D01*
X33721700Y-15838400D02*
X31279900Y-18280200D01*
X25240000Y-45569400D02*
X29545500Y-49874900D01*
%TO.N,A11*%
X40000000Y-17000000D02*
X40000000Y-17582100D01*
X33984800Y-51395000D02*
X40493600Y-51395000D01*
X31169200Y-48333000D02*
X31169200Y-50789200D01*
X40000000Y-17582100D02*
X48306400Y-25888500D01*
X32817900Y-52437900D02*
X32941900Y-52437900D01*
X31169200Y-50789200D02*
X32817900Y-52437900D01*
X55698100Y-25888500D02*
X59429600Y-29620000D01*
X32941900Y-52437900D02*
X33984800Y-51395000D01*
X44160000Y-55061400D02*
X44160000Y-72000000D01*
X40493600Y-51395000D02*
X44160000Y-55061400D01*
X28332300Y-45496100D02*
X31169200Y-48333000D01*
X59429600Y-29620000D02*
X78000000Y-29620000D01*
X48306400Y-25888500D02*
X55698100Y-25888500D01*
%TO.N,A12*%
X77931500Y-32228500D02*
X78000000Y-32160000D01*
X47035400Y-56764500D02*
X44379400Y-54108500D01*
X42468600Y-23883000D02*
X49589300Y-31003700D01*
X46700000Y-72000000D02*
X47035400Y-71664600D01*
X49589300Y-31003700D02*
X58020700Y-31003700D01*
X58020700Y-31003700D02*
X59245500Y-32228500D01*
X59245500Y-32228500D02*
X77931500Y-32228500D01*
X47035400Y-71664600D02*
X47035400Y-56764500D01*
%TO.N,A13*%
X59315200Y-31470400D02*
X56274800Y-28430000D01*
X56274800Y-28430000D02*
X48674600Y-28430000D01*
X49240000Y-72000000D02*
X48727500Y-71487500D01*
X42324600Y-22080000D02*
X40000000Y-22080000D01*
X48727500Y-71487500D02*
X48727500Y-58863000D01*
X48674600Y-28430000D02*
X42324600Y-22080000D01*
X76166600Y-31470400D02*
X59315200Y-31470400D01*
%TO.N,A14*%
X28322600Y-28330000D02*
X40510600Y-28330000D01*
X27402600Y-27410000D02*
X28322600Y-28330000D01*
X41180000Y-27660600D02*
X45446900Y-27660600D01*
X51780000Y-72000000D02*
X51780000Y-38473700D01*
X11178500Y-25901500D02*
X25791100Y-25901500D01*
X51780000Y-38473700D02*
X56272700Y-38473700D01*
X25791100Y-25901500D02*
X27299600Y-27410000D01*
X56272700Y-38473700D02*
X57506400Y-37240000D01*
X41180000Y-27660600D02*
X41180000Y-25800000D01*
X27299600Y-27410000D02*
X27402600Y-27410000D01*
X41180000Y-25800000D02*
X40000000Y-24620000D01*
X45446900Y-27660600D02*
X51780000Y-33993700D01*
X40510600Y-28330000D02*
X41180000Y-27660600D01*
X57506400Y-37240000D02*
X78000000Y-37240000D01*
X51780000Y-33993700D02*
X51780000Y-38473700D01*
X10000000Y-27080000D02*
X11178500Y-25901500D01*
%TO.N,A15*%
X39646300Y-26806300D02*
X40000000Y-27160000D01*
X54811300Y-48750000D02*
X53074800Y-50486500D01*
X78000000Y-39780000D02*
X64606700Y-39780000D01*
X53074800Y-70754800D02*
X54320000Y-72000000D01*
X53074800Y-50486500D02*
X53074800Y-70754800D01*
X64606700Y-39780000D02*
X55636700Y-48750000D01*
X55636700Y-48750000D02*
X54811300Y-48750000D01*
X25240000Y-24540000D02*
X27506300Y-26806300D01*
X27506300Y-26806300D02*
X39646300Y-26806300D01*
%TO.N,A2*%
X41267000Y-46093200D02*
X43035000Y-44325200D01*
X15270200Y-67000000D02*
X8847800Y-60577600D01*
X8847800Y-46012200D02*
X10000000Y-44860000D01*
X27297900Y-43987100D02*
X27903100Y-43987100D01*
X27903100Y-43987100D02*
X30009200Y-46093200D01*
X84308100Y-36011900D02*
X85620000Y-34700000D01*
X43035000Y-44325200D02*
X45334700Y-44325200D01*
X30009200Y-46093200D02*
X41267000Y-46093200D01*
X45334700Y-44325200D02*
X46887800Y-42772100D01*
X8847800Y-60577600D02*
X8847800Y-46012200D01*
X55240000Y-37320000D02*
X56548100Y-36011900D01*
X15620000Y-67000000D02*
X15270200Y-67000000D01*
X56548100Y-36011900D02*
X84308100Y-36011900D01*
%TO.N,A3*%
X85620000Y-32160000D02*
X84267600Y-33512400D01*
X84267600Y-33512400D02*
X56507600Y-33512400D01*
X36387300Y-38590000D02*
X35875900Y-39101400D01*
X56507600Y-33512400D02*
X55240000Y-34780000D01*
X45984300Y-38590000D02*
X36387300Y-38590000D01*
X47203800Y-37370500D02*
X45984300Y-38590000D01*
%TO.N,A4*%
X47160000Y-32997200D02*
X44107200Y-36050000D01*
X44107200Y-36050000D02*
X35560100Y-36050000D01*
X35560100Y-36050000D02*
X34432900Y-37177200D01*
%TO.N,A5*%
X29930000Y-31052500D02*
X47775500Y-31052500D01*
X27686100Y-28808600D02*
X29930000Y-31052500D01*
X47775500Y-31052500D02*
X48047500Y-31324500D01*
%TO.N,A6*%
X76540000Y-30780800D02*
X76477900Y-30718700D01*
X42022900Y-20886900D02*
X37376500Y-20886900D01*
X33437700Y-24825700D02*
X26648900Y-24825700D01*
X59448700Y-30718700D02*
X55890000Y-27160000D01*
X79379200Y-30780800D02*
X76540000Y-30780800D01*
X48296000Y-27160000D02*
X42022900Y-20886900D01*
X55240000Y-27160000D02*
X48296000Y-27160000D01*
X76477900Y-30718700D02*
X59448700Y-30718700D01*
X85620000Y-24540000D02*
X79379200Y-30780800D01*
X55890000Y-27160000D02*
X55240000Y-27160000D01*
X37376500Y-20886900D02*
X33437700Y-24825700D01*
%TO.N,A7*%
X79373700Y-28246300D02*
X58866300Y-28246300D01*
X51282800Y-20662800D02*
X55240000Y-24620000D01*
X58866300Y-28246300D02*
X55240000Y-24620000D01*
X85620000Y-22000000D02*
X79373700Y-28246300D01*
X44143600Y-20662800D02*
X51282800Y-20662800D01*
%TO.N,A8*%
X78485900Y-25700800D02*
X58860800Y-25700800D01*
X36540000Y-72000000D02*
X30674500Y-66134500D01*
X79163800Y-25022900D02*
X78485900Y-25700800D01*
X23236600Y-56367600D02*
X22185100Y-55316100D01*
X78000000Y-22000000D02*
X79163800Y-23163800D01*
X79163800Y-23163800D02*
X79163800Y-25022900D01*
X29530600Y-56367600D02*
X23236600Y-56367600D01*
X30674500Y-66134500D02*
X30674500Y-57511500D01*
X30674500Y-57511500D02*
X29530600Y-56367600D01*
X58860800Y-25700800D02*
X55240000Y-22080000D01*
%TO.N,A9*%
X33194500Y-60031500D02*
X31176200Y-58013200D01*
X31176200Y-54146600D02*
X25699600Y-48670000D01*
X35103300Y-69714300D02*
X33194500Y-67805500D01*
X36794300Y-69714300D02*
X35103300Y-69714300D01*
X33194500Y-67805500D02*
X33194500Y-60031500D01*
X55240000Y-19540000D02*
X73000000Y-19540000D01*
X39080000Y-72000000D02*
X36794300Y-69714300D01*
X31176200Y-58013200D02*
X31176200Y-54146600D01*
X25699600Y-48670000D02*
X24859600Y-48670000D01*
X24859600Y-48670000D02*
X23540200Y-47350600D01*
X73000000Y-19540000D02*
X78000000Y-24540000D01*
%TO.N,ADDR_ENABLE*%
X79099800Y-105000000D02*
X84000000Y-105000000D01*
X35740000Y-134000000D02*
X47170000Y-122570000D01*
X47170000Y-115838600D02*
X49728700Y-113279900D01*
X70819900Y-113279900D02*
X79099800Y-105000000D01*
X49728700Y-113279900D02*
X70819900Y-113279900D01*
X47170000Y-122570000D02*
X47170000Y-115838600D01*
%TO.N,BUSACK_N*%
X100664900Y-35970000D02*
X114065800Y-35970000D01*
X79471700Y-62639800D02*
X80413300Y-63581400D01*
X59270000Y-61951300D02*
X59270000Y-62800600D01*
X58318300Y-60999600D02*
X59270000Y-61951300D01*
X96830300Y-27370300D02*
X96830300Y-32808100D01*
X80413300Y-63581400D02*
X81384200Y-63581400D01*
X61709900Y-61813700D02*
X62503900Y-61019700D01*
X81384200Y-63581400D02*
X82471500Y-62494100D01*
X98059500Y-33364600D02*
X100664900Y-35970000D01*
X97386800Y-33364600D02*
X98059500Y-33364600D01*
X114065800Y-35970000D02*
X131845800Y-53750000D01*
X59270000Y-62800600D02*
X60049700Y-63580300D01*
X61709900Y-62868900D02*
X61709900Y-61813700D01*
X79471700Y-61863700D02*
X79471700Y-62639800D01*
X60998500Y-63580300D02*
X61709900Y-62868900D01*
X60049700Y-63580300D02*
X60998500Y-63580300D01*
X55240000Y-60180000D02*
X56059600Y-60999600D01*
X56059600Y-60999600D02*
X58318300Y-60999600D01*
X96830300Y-32808100D02*
X97386800Y-33364600D01*
X62503900Y-61019700D02*
X78627700Y-61019700D01*
X78627700Y-61019700D02*
X79471700Y-61863700D01*
X94000000Y-24540000D02*
X96830300Y-27370300D01*
X139210000Y-53750000D02*
X143000000Y-57540000D01*
X131845800Y-53750000D02*
X139210000Y-53750000D01*
%TO.N,D0*%
X70355200Y-58810000D02*
X69867900Y-58322700D01*
X130467200Y-58927200D02*
X131620000Y-60080000D01*
X33857200Y-50020000D02*
X40000000Y-50020000D01*
X44961600Y-45058400D02*
X47205000Y-45058400D01*
X110329400Y-58810000D02*
X70355200Y-58810000D01*
X32667200Y-51210000D02*
X33857200Y-50020000D01*
X112620000Y-60080000D02*
X113772800Y-58927200D01*
X112620000Y-60080000D02*
X111599400Y-60080000D01*
X40000000Y-50020000D02*
X44961600Y-45058400D01*
X111599400Y-60080000D02*
X110329400Y-58810000D01*
X113772800Y-58927200D02*
X130467200Y-58927200D01*
%TO.N,D1*%
X63945900Y-56174300D02*
X63616100Y-55844500D01*
X113772800Y-61467200D02*
X130467200Y-61467200D01*
X40000000Y-52560000D02*
X35719000Y-52560000D01*
X101693700Y-57185900D02*
X100181900Y-55674100D01*
X63616100Y-55844500D02*
X62147000Y-55844500D01*
X90134900Y-56174300D02*
X63945900Y-56174300D01*
X90635100Y-55674100D02*
X90134900Y-56174300D01*
X35719000Y-52560000D02*
X34487900Y-53791100D01*
X130467200Y-61467200D02*
X131620000Y-62620000D01*
X62147000Y-55844500D02*
X61640900Y-56350600D01*
X112620000Y-62620000D02*
X113772800Y-61467200D01*
X100181900Y-55674100D02*
X90635100Y-55674100D01*
%TO.N,D2*%
X26986700Y-43235400D02*
X26536200Y-43685900D01*
X90423200Y-56723400D02*
X90970800Y-56175800D01*
X63432000Y-56723400D02*
X90423200Y-56723400D01*
X26536200Y-43686000D02*
X23874000Y-43686000D01*
X40000000Y-44940000D02*
X29667700Y-44940000D01*
X26536200Y-43685900D02*
X26536200Y-43686000D01*
X90970800Y-56175800D02*
X98743500Y-56175800D01*
X63304800Y-56596200D02*
X63432000Y-56723400D01*
X98743500Y-56175800D02*
X99751300Y-57183600D01*
X113329300Y-65160000D02*
X114481000Y-64008300D01*
X23874000Y-43686000D02*
X10000000Y-57560000D01*
X112620000Y-65160000D02*
X113329300Y-65160000D01*
X27963100Y-43235400D02*
X26986700Y-43235400D01*
X114481000Y-64008300D02*
X130468300Y-64008300D01*
X29667700Y-44940000D02*
X27963100Y-43235400D01*
X130468300Y-64008300D02*
X131620000Y-65160000D01*
%TO.N,D3*%
X67939500Y-48670000D02*
X103380200Y-48670000D01*
X67748200Y-48478700D02*
X67939500Y-48670000D01*
X103380200Y-48670000D02*
X111371200Y-56661000D01*
%TO.N,D4*%
X118207000Y-88920000D02*
X118207000Y-69040100D01*
X47970000Y-32240000D02*
X47970000Y-76000000D01*
X130420099Y-69040100D02*
X131620000Y-70240000D01*
X30000000Y-76000000D02*
X47970000Y-76000000D01*
X118207000Y-69040100D02*
X130420099Y-69040100D01*
X30000000Y-57560000D02*
X30000000Y-76000000D01*
X47970000Y-76000000D02*
X102000000Y-76000000D01*
X118207000Y-69040100D02*
X113819900Y-69040100D01*
X25240000Y-57560000D02*
X30000000Y-57560000D01*
X102000000Y-88920000D02*
X118207000Y-88920000D01*
X102000000Y-76000000D02*
X102000000Y-88920000D01*
X113819900Y-69040100D02*
X112620000Y-70240000D01*
X40000000Y-32240000D02*
X47970000Y-32240000D01*
%TO.N,D5*%
X54078200Y-58187200D02*
X54907700Y-59016700D01*
X61370400Y-60210500D02*
X61657800Y-59923100D01*
X61657800Y-59923100D02*
X90793800Y-59923100D01*
X54787500Y-56370000D02*
X54078200Y-57079300D01*
X105436200Y-71430400D02*
X106785800Y-72780000D01*
X54907700Y-59016700D02*
X56335400Y-59016700D01*
X57529200Y-60210500D02*
X61370400Y-60210500D01*
X102301100Y-71430400D02*
X105436200Y-71430400D01*
X56335400Y-59016700D02*
X57529200Y-60210500D01*
X54078200Y-57079300D02*
X54078200Y-58187200D01*
X55609000Y-56370000D02*
X54787500Y-56370000D01*
X56898400Y-55080600D02*
X55609000Y-56370000D01*
X56898400Y-54446400D02*
X56898400Y-55080600D01*
X106785800Y-72780000D02*
X112620000Y-72780000D01*
X90793800Y-59923100D02*
X102301100Y-71430400D01*
%TO.N,D6*%
X23912500Y-52480000D02*
X21431900Y-54960600D01*
X113106000Y-79025200D02*
X113783800Y-78347400D01*
X29471700Y-66522900D02*
X29471700Y-70255900D01*
X25240000Y-52480000D02*
X23912500Y-52480000D01*
X48742300Y-73530900D02*
X50466900Y-75255500D01*
X102749400Y-75987000D02*
X102749400Y-77320500D01*
X102749400Y-77320500D02*
X104454100Y-79025200D01*
X50466900Y-75255500D02*
X102017900Y-75255500D01*
X39819400Y-40040600D02*
X34964100Y-40040600D01*
X21431900Y-54960600D02*
X21431900Y-58483100D01*
X113783800Y-76483800D02*
X112620000Y-75320000D01*
X40000000Y-39860000D02*
X39819400Y-40040600D01*
X29471700Y-70255900D02*
X29248300Y-70479300D01*
X113783800Y-78347400D02*
X113783800Y-76483800D01*
X21431900Y-58483100D02*
X29471700Y-66522900D01*
X102017900Y-75255500D02*
X102749400Y-75987000D01*
X104454100Y-79025200D02*
X113106000Y-79025200D01*
%TO.N,D7*%
X102215700Y-74743900D02*
X88098900Y-74743900D01*
X50510000Y-55743900D02*
X48732300Y-53966200D01*
X86982100Y-73627100D02*
X51736200Y-73627100D01*
X33908500Y-47480000D02*
X32752700Y-48635800D01*
X50510000Y-72400900D02*
X50510000Y-55743900D01*
X103960500Y-76488700D02*
X102215700Y-74743900D01*
X51736200Y-73627100D02*
X50510000Y-72400900D01*
X40000000Y-47480000D02*
X33908500Y-47480000D01*
X111248700Y-76488700D02*
X103960500Y-76488700D01*
X112620000Y-77860000D02*
X111248700Y-76488700D01*
X88098900Y-74743900D02*
X86982100Y-73627100D01*
%TO.N,DATA_DOWN_OE_N*%
X101620000Y-37240000D02*
X111320000Y-37240000D01*
X111320000Y-37240000D02*
X131620000Y-57540000D01*
%TO.N,DATA_ENABLE*%
X62101100Y-110898900D02*
X50419700Y-110898900D01*
X68000000Y-105000000D02*
X62101100Y-110898900D01*
%TO.N,DATA_UP_OE_N*%
X112620000Y-57540000D02*
X112620000Y-56846800D01*
X111024600Y-55251400D02*
X111024600Y-49184600D01*
X111024600Y-49184600D02*
X101620000Y-39780000D01*
X112620000Y-56846800D02*
X111024600Y-55251400D01*
%TO.N,GND*%
X93737400Y-8737400D02*
X95000000Y-10000000D01*
X149468300Y-71628300D02*
X150620000Y-72780000D01*
X14549200Y-117889200D02*
X23910800Y-117889200D01*
X29291500Y-23208500D02*
X11331500Y-23208500D01*
X62277500Y-60465100D02*
X60540000Y-62202600D01*
X150620000Y-56753200D02*
X150620000Y-57540000D01*
X86000000Y-62000000D02*
X85123300Y-62000000D01*
X24172600Y-135407400D02*
X14287400Y-135407400D01*
X60540000Y-62202600D02*
X60540000Y-62380000D01*
X21378100Y-13378100D02*
X21000000Y-13000000D01*
X50980000Y-134056600D02*
X53923400Y-137000000D01*
X11331500Y-23208500D02*
X10000000Y-24540000D01*
X23910800Y-117889200D02*
X25580000Y-116220000D01*
X37105300Y-115045300D02*
X38280000Y-116220000D01*
X124000000Y-77860000D02*
X121022700Y-77860000D01*
X32000000Y-12000000D02*
X35262600Y-8737400D01*
X53923400Y-137000000D02*
X80848300Y-137000000D01*
X34650000Y-43683500D02*
X35833500Y-42500000D01*
X151055600Y-79066500D02*
X144206500Y-79066500D01*
X151836100Y-58756100D02*
X150620000Y-57540000D01*
X151775200Y-78346900D02*
X151055600Y-79066500D01*
X85123300Y-62000000D02*
X83588400Y-60465100D01*
X35262600Y-8737400D02*
X93737400Y-8737400D01*
X68000000Y-94840000D02*
X76000000Y-94840000D01*
X98346000Y-83154000D02*
X80504100Y-83154000D01*
X95000000Y-10000000D02*
X107500000Y-22500000D01*
X25580000Y-116220000D02*
X26754700Y-115045300D01*
X8829300Y-27575300D02*
X9604000Y-28350000D01*
X10000000Y-24540000D02*
X8829300Y-25710700D01*
X83588400Y-60465100D02*
X62277500Y-60465100D01*
X140500000Y-52500000D02*
X143000000Y-55000000D01*
X150620000Y-62620000D02*
X151836100Y-61403900D01*
X115200000Y-52500000D02*
X121500000Y-52500000D01*
X107500000Y-22500000D02*
X107500000Y-30000000D01*
X30500000Y-22000000D02*
X30500000Y-13378100D01*
X30500000Y-22000000D02*
X29291500Y-23208500D01*
X151836100Y-61403900D02*
X151836100Y-58756100D01*
X144753200Y-56753200D02*
X143000000Y-55000000D01*
X73500000Y-43000000D02*
X76140000Y-43000000D01*
X150620000Y-72780000D02*
X151775200Y-73935200D01*
X26732800Y-135152800D02*
X25580000Y-134000000D01*
X142000000Y-104840000D02*
X150000000Y-104840000D01*
X121500000Y-52500000D02*
X124000000Y-55000000D01*
X35833500Y-42500000D02*
X36500000Y-42500000D01*
X14287400Y-135407400D02*
X12880000Y-134000000D01*
X16194000Y-28350000D02*
X23814000Y-35970000D01*
X9604000Y-28350000D02*
X16194000Y-28350000D01*
X82000000Y-137000000D02*
X80848300Y-137000000D01*
X26754700Y-115045300D02*
X37105300Y-115045300D01*
X99500000Y-82000000D02*
X98346000Y-83154000D01*
X30500000Y-13378100D02*
X21378100Y-13378100D01*
X76000000Y-94840000D02*
X84000000Y-94840000D01*
X144206500Y-79066500D02*
X143000000Y-77860000D01*
X149403900Y-63836100D02*
X149403900Y-66483900D01*
X151775200Y-73935200D02*
X151775200Y-78346900D01*
X134200000Y-52500000D02*
X140500000Y-52500000D01*
X32000000Y-12000000D02*
X30621900Y-13378100D01*
X80504100Y-83154000D02*
X79471700Y-82121600D01*
X12880000Y-116220000D02*
X14549200Y-117889200D01*
X8829300Y-25710700D02*
X8829300Y-27575300D01*
X110000000Y-104840000D02*
X142000000Y-104840000D01*
X150620000Y-62620000D02*
X149403900Y-63836100D01*
X50980000Y-134000000D02*
X50980000Y-134056600D01*
X155000000Y-52500000D02*
X150746800Y-56753200D01*
X33375200Y-43683500D02*
X34650000Y-43683500D01*
X149468300Y-68851700D02*
X149468300Y-71628300D01*
X150620000Y-67700000D02*
X149468300Y-68851700D01*
X23814000Y-35970000D02*
X25661700Y-35970000D01*
X37127200Y-135152800D02*
X26732800Y-135152800D01*
X25661700Y-35970000D02*
X33375200Y-43683500D01*
X76140000Y-43000000D02*
X78000000Y-44860000D01*
X150620000Y-56753200D02*
X144753200Y-56753200D01*
X149403900Y-66483900D02*
X150620000Y-67700000D01*
X38280000Y-134000000D02*
X37127200Y-135152800D01*
X94000000Y-49940000D02*
X85620000Y-49940000D01*
X150746800Y-56753200D02*
X150620000Y-56753200D01*
X60000000Y-94840000D02*
X68000000Y-94840000D01*
X30621900Y-13378100D02*
X30500000Y-13378100D01*
X25580000Y-134000000D02*
X24172600Y-135407400D01*
X121022700Y-77860000D02*
X119005100Y-79877600D01*
%TO.N,INT_N*%
X69600000Y-90000000D02*
X63772500Y-84172500D01*
X40000000Y-55100000D02*
X42179600Y-57279600D01*
X63772500Y-84172500D02*
X53469400Y-84172500D01*
X42179600Y-57279600D02*
X42179600Y-68874200D01*
X42179600Y-68874200D02*
X41462000Y-69591800D01*
%TO.N,IORQ_N*%
X100468300Y-51091700D02*
X65836900Y-51091700D01*
X34352600Y-77322700D02*
X34901400Y-76773900D01*
X60591600Y-56337000D02*
X60591600Y-56695000D01*
X24800000Y-90000000D02*
X34352600Y-80447400D01*
X65836900Y-51091700D02*
X60591600Y-56337000D01*
X101620000Y-49940000D02*
X100468300Y-51091700D01*
X34352600Y-80447400D02*
X34352600Y-77322700D01*
%TO.N,MCP_RESET_BASE*%
X87270000Y-63101700D02*
X98113800Y-73945500D01*
X118000000Y-132840000D02*
X118000000Y-135000000D01*
X98113800Y-73945500D02*
X105902500Y-73945500D01*
X110000000Y-124840000D02*
X118000000Y-132840000D01*
X87270000Y-62000000D02*
X87270000Y-63101700D01*
%TO.N,MCP_SO*%
X111161900Y-58695700D02*
X113253200Y-58695700D01*
X56788700Y-80346200D02*
X55471400Y-81663500D01*
X48058200Y-81663500D02*
X45012600Y-84709100D01*
X79190600Y-53829400D02*
X106295600Y-53829400D01*
X45012600Y-86587400D02*
X41600000Y-90000000D01*
X45012600Y-84709100D02*
X45012600Y-86587400D01*
X106295600Y-53829400D02*
X111161900Y-58695700D01*
X78000000Y-55020000D02*
X79190600Y-53829400D01*
X55471400Y-81663500D02*
X48058200Y-81663500D01*
X113253200Y-58695700D02*
X113777000Y-58171900D01*
X113777000Y-58171900D02*
X115587300Y-58171900D01*
%TO.N,MREQ_N*%
X87650000Y-46130000D02*
X69034000Y-46130000D01*
X19200000Y-89291900D02*
X31739800Y-76752100D01*
X69034000Y-46130000D02*
X66996500Y-48167500D01*
X19200000Y-90000000D02*
X19200000Y-89291900D01*
X94000000Y-39780000D02*
X87650000Y-46130000D01*
X66996500Y-48768900D02*
X61374600Y-54390800D01*
X66996500Y-48167500D02*
X66996500Y-48768900D01*
%TO.N,NMI_N*%
X41592300Y-70343500D02*
X42771700Y-71522900D01*
X38848300Y-62242900D02*
X38848300Y-65737000D01*
X38848300Y-65737000D02*
X40477200Y-67365900D01*
X40477300Y-69670000D02*
X41150800Y-70343500D01*
X41175000Y-60733200D02*
X40398800Y-61509400D01*
X40398800Y-61509400D02*
X39581800Y-61509400D01*
X40000000Y-57640000D02*
X41175000Y-58815000D01*
X40477300Y-67365900D02*
X40477300Y-69670000D01*
X42771700Y-71522900D02*
X42771700Y-74384600D01*
X40477200Y-67365900D02*
X40477300Y-67365900D01*
X41150800Y-70343500D02*
X41592300Y-70343500D01*
X42771700Y-74384600D02*
X41946500Y-75209800D01*
X68620800Y-83420800D02*
X47363800Y-83420800D01*
X41175000Y-58815000D02*
X41175000Y-60733200D01*
X75200000Y-90000000D02*
X68620800Y-83420800D01*
X47363800Y-83420800D02*
X47118500Y-83666100D01*
X39581800Y-61509400D02*
X38848300Y-62242900D01*
%TO.N,PICO_BUSACK_N*%
X7800000Y-134000000D02*
X11612700Y-130187300D01*
X20994900Y-117378800D02*
X21770000Y-116603700D01*
X149230200Y-61469800D02*
X150620000Y-60080000D01*
X113964600Y-97214800D02*
X142209400Y-68970000D01*
X142209400Y-68970000D02*
X143370300Y-68970000D01*
X17489500Y-117378800D02*
X20994900Y-117378800D01*
X11612700Y-130187300D02*
X11612700Y-115792000D01*
X16571700Y-115742900D02*
X16571700Y-116461000D01*
X12336400Y-115068300D02*
X15897100Y-115068300D01*
X149230200Y-63110100D02*
X149230200Y-61469800D01*
X21770000Y-116603700D02*
X21770000Y-115836700D01*
X15897100Y-115068300D02*
X16571700Y-115742900D01*
X21770000Y-115836700D02*
X40391900Y-97214800D01*
X143370300Y-68970000D02*
X149230200Y-63110100D01*
X16571700Y-116461000D02*
X17489500Y-117378800D01*
X40391900Y-97214800D02*
X113964600Y-97214800D01*
X11612700Y-115792000D02*
X12336400Y-115068300D01*
%TO.N,PICO_BUSREQ_N*%
X38458000Y-96210600D02*
X29857800Y-104810800D01*
X105000000Y-94000000D02*
X102789400Y-96210600D01*
X102789400Y-96210600D02*
X38458000Y-96210600D01*
%TO.N,PICO_CE_N*%
X39197100Y-96712400D02*
X30099400Y-105810100D01*
X111287600Y-96712400D02*
X39197100Y-96712400D01*
X30099400Y-105810100D02*
X29390000Y-105810100D01*
X114000000Y-94000000D02*
X111287600Y-96712400D01*
%TO.N,PICO_D0*%
X124000000Y-57540000D02*
X123710000Y-57250000D01*
X82973100Y-138566900D02*
X84540000Y-137000000D01*
X47288300Y-133747600D02*
X47288300Y-134484600D01*
X42022800Y-132797200D02*
X46337900Y-132797200D01*
X40820000Y-134000000D02*
X42022800Y-132797200D01*
X51370600Y-138566900D02*
X82973100Y-138566900D01*
X123710000Y-57250000D02*
X114881800Y-57250000D01*
X46337900Y-132797200D02*
X47288300Y-133747600D01*
X47288300Y-134484600D02*
X51370600Y-138566900D01*
%TO.N,PICO_D1*%
X43360000Y-134000000D02*
X48447800Y-139087800D01*
X113218300Y-61270600D02*
X106190600Y-61270600D01*
X84992200Y-139087800D02*
X87080000Y-137000000D01*
X48447800Y-139087800D02*
X84992200Y-139087800D01*
X114408900Y-60080000D02*
X113218300Y-61270600D01*
X124000000Y-60080000D02*
X114408900Y-60080000D01*
X106190600Y-61270600D02*
X105000000Y-60080000D01*
%TO.N,PICO_D2*%
X88306800Y-135686800D02*
X53673100Y-135686800D01*
X89620000Y-137000000D02*
X88306800Y-135686800D01*
X106200100Y-63820100D02*
X105000000Y-62620000D01*
X53673100Y-135686800D02*
X53450400Y-135464100D01*
X114806400Y-62620000D02*
X113606300Y-63820100D01*
X113606300Y-63820100D02*
X106200100Y-63820100D01*
X124000000Y-62620000D02*
X114806400Y-62620000D01*
%TO.N,PICO_D3*%
X122838100Y-66321900D02*
X106161900Y-66321900D01*
X106161900Y-66321900D02*
X105000000Y-65160000D01*
X52221800Y-137781800D02*
X65509600Y-137781800D01*
X124000000Y-65160000D02*
X122838100Y-66321900D01*
X48440000Y-134000000D02*
X52221800Y-137781800D01*
%TO.N,PICO_D4*%
X92870700Y-135170700D02*
X54690700Y-135170700D01*
X54690700Y-135170700D02*
X53520000Y-134000000D01*
X94700000Y-137000000D02*
X92870700Y-135170700D01*
%TO.N,PICO_D5*%
X94240000Y-134000000D02*
X97240000Y-137000000D01*
X116218000Y-71430600D02*
X106190600Y-71430600D01*
X56060000Y-134000000D02*
X94240000Y-134000000D01*
X106190600Y-71430600D02*
X105000000Y-70240000D01*
X117408600Y-70240000D02*
X116218000Y-71430600D01*
%TO.N,PICO_D6*%
X99780000Y-116220000D02*
X99780000Y-137000000D01*
X100698700Y-116220000D02*
X101352600Y-115566100D01*
X56060000Y-116220000D02*
X99780000Y-116220000D01*
X99780000Y-116220000D02*
X100698700Y-116220000D01*
%TO.N,PICO_D7*%
X102320000Y-115197500D02*
X106178900Y-115197500D01*
X116223900Y-74124400D02*
X117419500Y-75320000D01*
X101935300Y-114812800D02*
X102320000Y-115197500D01*
X106786600Y-74124400D02*
X116223900Y-74124400D01*
X54927200Y-114812800D02*
X101935300Y-114812800D01*
X53520000Y-116220000D02*
X54927200Y-114812800D01*
X105591000Y-75320000D02*
X106786600Y-74124400D01*
X102320000Y-115197500D02*
X102320000Y-137000000D01*
X105000000Y-75320000D02*
X105591000Y-75320000D01*
%TO.N,PICO_IORQ_N*%
X46179400Y-114273400D02*
X44630000Y-115822800D01*
X44630000Y-115822800D02*
X44630000Y-116648700D01*
X46806000Y-114273400D02*
X46179400Y-114273400D01*
X71557600Y-103074500D02*
X62518000Y-112114100D01*
X150620000Y-65160000D02*
X152839500Y-67379500D01*
X152839500Y-84544800D02*
X134309800Y-103074500D01*
X134309800Y-103074500D02*
X71557600Y-103074500D01*
X44630000Y-116648700D02*
X43352700Y-117926000D01*
X43352700Y-117926000D02*
X26414000Y-117926000D01*
X48965300Y-112114100D02*
X46806000Y-114273400D01*
X26414000Y-117926000D02*
X10340000Y-134000000D01*
X62518000Y-112114100D02*
X48965300Y-112114100D01*
X152839500Y-67379500D02*
X152839500Y-84544800D01*
%TO.N,PICO_OE_N*%
X58426000Y-101120300D02*
X48993900Y-110552400D01*
X133879700Y-101120300D02*
X58426000Y-101120300D01*
X48428600Y-110992900D02*
X48428600Y-111364600D01*
X48993900Y-110552400D02*
X48869100Y-110552400D01*
X141000000Y-94000000D02*
X133879700Y-101120300D01*
X98022900Y-36182900D02*
X99814800Y-36182900D01*
X48428600Y-111364600D02*
X46271500Y-113521700D01*
X48869100Y-110552400D02*
X48428600Y-110992900D01*
X94000000Y-32160000D02*
X98022900Y-36182900D01*
%TO.N,PICO_RD_N*%
X49668000Y-110587700D02*
X49668000Y-110816400D01*
X50337200Y-110147200D02*
X50108500Y-110147200D01*
X49668000Y-110816400D02*
X49180300Y-111304100D01*
X134679000Y-101995900D02*
X58488500Y-101995900D01*
X150620000Y-70240000D02*
X152309400Y-71929400D01*
X58488500Y-101995900D02*
X50337200Y-110147200D01*
X151953600Y-84429300D02*
X151953600Y-84721300D01*
X151953600Y-84721300D02*
X134679000Y-101995900D01*
X152309400Y-84073500D02*
X151953600Y-84429300D01*
X152309400Y-71929400D02*
X152309400Y-84073500D01*
X50108500Y-110147200D02*
X49668000Y-110587700D01*
%TO.N,PICO_SPI_CS_N*%
X58511700Y-98469100D02*
X58760300Y-98220500D01*
X58760300Y-98220500D02*
X118779500Y-98220500D01*
X118779500Y-98220500D02*
X123000000Y-94000000D01*
%TO.N,PICO_SPI_MISO*%
X43360000Y-115352100D02*
X43360000Y-116220000D01*
X128421600Y-99243100D02*
X59547100Y-99243100D01*
X137310100Y-90354600D02*
X128421600Y-99243100D01*
X137310100Y-81009900D02*
X137310100Y-90354600D01*
X48739500Y-110050700D02*
X48661400Y-110050700D01*
X59547100Y-99243100D02*
X48739500Y-110050700D01*
X48661400Y-110050700D02*
X43360000Y-115352100D01*
X143000000Y-75320000D02*
X137310100Y-81009900D01*
%TO.N,PICO_SPI_MOSI*%
X65553600Y-112654100D02*
X49465900Y-112654100D01*
X94551300Y-112443600D02*
X85934000Y-103826300D01*
X74381400Y-103826300D02*
X65553600Y-112654100D01*
X85934000Y-103826300D02*
X74381400Y-103826300D01*
X49465900Y-112654100D02*
X45900000Y-116220000D01*
X145745500Y-112443600D02*
X94551300Y-112443600D01*
%TO.N,PICO_SPI_SCK*%
X106610000Y-114306000D02*
X108507700Y-116203700D01*
X48440000Y-116220000D02*
X50354000Y-114306000D01*
X140796300Y-116203700D02*
X142000000Y-115000000D01*
X108507700Y-116203700D02*
X140796300Y-116203700D01*
X50354000Y-114306000D02*
X72224900Y-114306000D01*
X72224900Y-114306000D02*
X106610000Y-114306000D01*
X72224900Y-114306000D02*
X72224900Y-114030100D01*
%TO.N,PICO_WE_N*%
X127277800Y-98722200D02*
X132000000Y-94000000D01*
X35740000Y-116220000D02*
X36944300Y-117424300D01*
X39050500Y-117424300D02*
X39547300Y-116927500D01*
X39547300Y-115810700D02*
X56137200Y-99220800D01*
X59321700Y-98722200D02*
X127277800Y-98722200D01*
X39547300Y-116927500D02*
X39547300Y-115810700D01*
X36944300Y-117424300D02*
X39050500Y-117424300D01*
X58823100Y-99220800D02*
X59321700Y-98722200D01*
X56137200Y-99220800D02*
X58823100Y-99220800D01*
%TO.N,PICO_WR_N*%
X114244400Y-97717300D02*
X137832300Y-74129400D01*
X41542700Y-97717300D02*
X114244400Y-97717300D01*
X23040000Y-116220000D02*
X41542700Y-97717300D01*
X137832300Y-74129400D02*
X149429400Y-74129400D01*
X149429400Y-74129400D02*
X150620000Y-75320000D01*
%TO.N,RD_N*%
X87073300Y-65207700D02*
X87073300Y-68045100D01*
X48666100Y-80346200D02*
X41863900Y-87148400D01*
X80858500Y-68198500D02*
X67264200Y-68198500D01*
X85638800Y-69479600D02*
X82139600Y-69479600D01*
X133991700Y-58691700D02*
X143000000Y-67700000D01*
X67264200Y-68198500D02*
X64178100Y-65112400D01*
X41863900Y-87148500D02*
X33251500Y-87148500D01*
X97877500Y-38577500D02*
X110928000Y-38577500D01*
X110928000Y-38577500D02*
X131042200Y-58691700D01*
X33251500Y-87148500D02*
X30400000Y-90000000D01*
X55387600Y-65112400D02*
X55240000Y-65260000D01*
X41863900Y-87148400D02*
X41863900Y-87148500D01*
X131042200Y-58691700D02*
X133991700Y-58691700D01*
X94000000Y-34700000D02*
X97877500Y-38577500D01*
X49930800Y-80346200D02*
X48666100Y-80346200D01*
X64178100Y-65112400D02*
X55387600Y-65112400D01*
X82139600Y-69479600D02*
X80858500Y-68198500D01*
X87073300Y-68045100D02*
X85638800Y-69479600D01*
%TO.N,RESET_N*%
X73878200Y-113154300D02*
X73624000Y-112900100D01*
X50000000Y-10000000D02*
X55812100Y-15812100D01*
X55812100Y-15812100D02*
X87812100Y-15812100D01*
X110000000Y-115000000D02*
X108154300Y-113154300D01*
X108154300Y-113154300D02*
X73878200Y-113154300D01*
X87812100Y-15812100D02*
X94000000Y-22000000D01*
%TO.N,SRAM_CE_N*%
X33696200Y-67237900D02*
X33696200Y-59573600D01*
X34664800Y-68206500D02*
X33696200Y-67237900D01*
X31677900Y-53837900D02*
X25240000Y-47400000D01*
X33696200Y-59573600D02*
X31677900Y-57555300D01*
X31677900Y-57555300D02*
X31677900Y-53837900D01*
%TO.N,SRAM_CE_PRE_N*%
X87457800Y-64456000D02*
X67696000Y-64456000D01*
X90674200Y-67672400D02*
X87457800Y-64456000D01*
X67696000Y-64456000D02*
X65620000Y-62380000D01*
%TO.N,SRAM_OE_N*%
X40367100Y-56370000D02*
X35926900Y-56370000D01*
X35926900Y-56370000D02*
X33696200Y-54139300D01*
X56021800Y-66468200D02*
X56169400Y-66615800D01*
X41677900Y-64270700D02*
X41677900Y-57680800D01*
X41677900Y-57680800D02*
X40367100Y-56370000D01*
X30047200Y-48945000D02*
X27095900Y-45993700D01*
X63909100Y-66615800D02*
X67293300Y-70000000D01*
X33696200Y-54025600D02*
X30047200Y-50376600D01*
X56169400Y-66615800D02*
X63909100Y-66615800D01*
X30047200Y-50376600D02*
X30047200Y-48945000D01*
X41415000Y-64533600D02*
X41677900Y-64270700D01*
X33696200Y-54139300D02*
X33696200Y-54025600D01*
X67293300Y-70000000D02*
X68160000Y-70000000D01*
%TO.N,SRAM_WE_N*%
X67056500Y-68700200D02*
X64220400Y-65864100D01*
X71940200Y-68700200D02*
X67056500Y-68700200D01*
X32628100Y-35842200D02*
X31462200Y-35842200D01*
X64220400Y-65864100D02*
X59001800Y-65864100D01*
X73240000Y-70000000D02*
X71940200Y-68700200D01*
X31462200Y-35842200D02*
X25240000Y-29620000D01*
%TO.N,VSYS*%
D27*
X10340000Y-116220000D02*
X10340000Y-109660000D01*
X10340000Y-109660000D02*
X15000000Y-105000000D01*
%TO.N,WAIT_N*%
D28*
X100230200Y-30770200D02*
X101620000Y-32160000D01*
X100230200Y-26215300D02*
X100230200Y-30770200D01*
X63716500Y-49163500D02*
X63966900Y-49163500D01*
X86718700Y-12703800D02*
X100230200Y-26215300D01*
X74000000Y-10000000D02*
X76703800Y-12703800D01*
X55240000Y-57640000D02*
X63716500Y-49163500D01*
X76703800Y-12703800D02*
X86718700Y-12703800D01*
%TO.N,WR_N*%
X97698000Y-32612900D02*
X98980600Y-32612900D01*
X53576500Y-61056500D02*
X55240000Y-62720000D01*
X86040600Y-38510000D02*
X85120500Y-38510000D01*
X53576500Y-55064800D02*
X53576500Y-61056500D01*
X69309600Y-40972300D02*
X56451900Y-53830000D01*
X90524100Y-33095900D02*
X90524100Y-34026500D01*
X90524100Y-34026500D02*
X86040600Y-38510000D01*
X99835500Y-33467800D02*
X122727900Y-33467800D01*
X85120500Y-38510000D02*
X82658200Y-40972300D01*
X122727900Y-33467800D02*
X139705300Y-50445200D01*
X56451900Y-53830000D02*
X54811300Y-53830000D01*
X82658200Y-40972300D02*
X69309600Y-40972300D01*
X94000000Y-29620000D02*
X90524100Y-33095900D01*
X98980600Y-32612900D02*
X99835500Y-33467800D01*
X54811300Y-53830000D02*
X53576500Y-55064800D01*
%TO.N,Z80_CLK*%
X68196800Y-67496800D02*
X63080000Y-62380000D01*
X84496800Y-67496800D02*
X68196800Y-67496800D01*
X85000000Y-68000000D02*
X84496800Y-67496800D01*
%TD*%
M02*
