%TF.GenerationSoftware,KiCad,Pcbnew,10.0.6*%
%TF.CreationDate,2026-09-11T00:24:39+10:00*%
%TF.ProjectId,z80_romless_sbc,7a38305f-726f-46d6-9c65-73735f736263,rev?*%
%TF.SameCoordinates,Original*%
%TF.FileFunction,Copper,L1,Top*%
%TF.FilePolarity,Positive*%
%FSLAX46Y46*%
G04 Gerber Fmt 4.6, Leading zero omitted, Abs format (unit mm)*
G04 Created by KiCad (PCBNEW 10.0.6) date 2026-09-11 00:24:39*
%MOMM*%
%LPD*%
G01*
G04 APERTURE LIST*
G04 Aperture macros list*
%AMRoundRect*
0 Rectangle with rounded corners*
0 $1 Rounding radius*
0 $2 $3 $4 $5 $6 $7 $8 $9 X,Y pos of 4 corners*
0 Add a 4 corners polygon primitive as box body*
4,1,4,$2,$3,$4,$5,$6,$7,$8,$9,$2,$3,0*
0 Add four circle primitives for the rounded corners*
1,1,$1+$1,$2,$3*
1,1,$1+$1,$4,$5*
1,1,$1+$1,$6,$7*
1,1,$1+$1,$8,$9*
0 Add four rect primitives between the rounded corners*
20,1,$1+$1,$2,$3,$4,$5,0*
20,1,$1+$1,$4,$5,$6,$7,0*
20,1,$1+$1,$6,$7,$8,$9,0*
20,1,$1+$1,$8,$9,$2,$3,0*%
%AMFreePoly0*
4,1,37,0.603843,0.796157,0.639018,0.796157,0.711114,0.766294,0.766294,0.711114,0.796157,0.639018,0.796157,0.603843,0.800000,0.600000,0.800000,-0.600000,0.796157,-0.603843,0.796157,-0.639018,0.766294,-0.711114,0.711114,-0.766294,0.639018,-0.796157,0.603843,-0.796157,0.600000,-0.800000,0.000000,-0.800000,0.000000,-0.796148,-0.078414,-0.796148,-0.232228,-0.765552,-0.377117,-0.705537,
-0.507515,-0.618408,-0.618408,-0.507515,-0.705537,-0.377117,-0.765552,-0.232228,-0.796148,-0.078414,-0.796148,0.078414,-0.765552,0.232228,-0.705537,0.377117,-0.618408,0.507515,-0.507515,0.618408,-0.377117,0.705537,-0.232228,0.765552,-0.078414,0.796148,0.000000,0.796148,0.000000,0.800000,0.600000,0.800000,0.603843,0.796157,0.603843,0.796157,$1*%
%AMFreePoly1*
4,1,37,0.000000,0.796148,0.078414,0.796148,0.232228,0.765552,0.377117,0.705537,0.507515,0.618408,0.618408,0.507515,0.705537,0.377117,0.765552,0.232228,0.796148,0.078414,0.796148,-0.078414,0.765552,-0.232228,0.705537,-0.377117,0.618408,-0.507515,0.507515,-0.618408,0.377117,-0.705537,0.232228,-0.765552,0.078414,-0.796148,0.000000,-0.796148,0.000000,-0.800000,-0.600000,-0.800000,
-0.603843,-0.796157,-0.639018,-0.796157,-0.711114,-0.766294,-0.766294,-0.711114,-0.796157,-0.639018,-0.796157,-0.603843,-0.800000,-0.600000,-0.800000,0.600000,-0.796157,0.603843,-0.796157,0.639018,-0.766294,0.711114,-0.711114,0.766294,-0.639018,0.796157,-0.603843,0.796157,-0.600000,0.800000,0.000000,0.800000,0.000000,0.796148,0.000000,0.796148,$1*%
G04 Aperture macros list end*
%TA.AperFunction,ComponentPad*%
%ADD10C,1.600000*%
%TD*%
%TA.AperFunction,ComponentPad*%
%ADD11R,1.600000X1.600000*%
%TD*%
%TA.AperFunction,ComponentPad*%
%ADD12RoundRect,0.250000X-0.550000X-0.550000X0.550000X-0.550000X0.550000X0.550000X-0.550000X0.550000X0*%
%TD*%
%TA.AperFunction,ComponentPad*%
%ADD13C,1.800000*%
%TD*%
%TA.AperFunction,ComponentPad*%
%ADD14RoundRect,0.250000X-0.750000X-0.750000X0.750000X-0.750000X0.750000X0.750000X-0.750000X0.750000X0*%
%TD*%
%TA.AperFunction,ComponentPad*%
%ADD15C,2.000000*%
%TD*%
%TA.AperFunction,ComponentPad*%
%ADD16RoundRect,0.200000X-0.600000X-0.600000X0.600000X-0.600000X0.600000X0.600000X-0.600000X0.600000X0*%
%TD*%
%TA.AperFunction,ComponentPad*%
%ADD17FreePoly0,0.000000*%
%TD*%
%TA.AperFunction,ComponentPad*%
%ADD18FreePoly1,0.000000*%
%TD*%
%TA.AperFunction,ComponentPad*%
%ADD19RoundRect,0.249999X-0.850001X-0.850001X0.850001X-0.850001X0.850001X0.850001X-0.850001X0.850001X0*%
%TD*%
%TA.AperFunction,ComponentPad*%
%ADD20C,2.200000*%
%TD*%
%TA.AperFunction,ComponentPad*%
%ADD21R,1.050000X1.500000*%
%TD*%
%TA.AperFunction,ComponentPad*%
%ADD22O,1.050000X1.500000*%
%TD*%
%TA.AperFunction,ComponentPad*%
%ADD23RoundRect,0.249999X-1.250001X-1.250001X1.250001X-1.250001X1.250001X1.250001X-1.250001X1.250001X0*%
%TD*%
%TA.AperFunction,ComponentPad*%
%ADD24C,3.000000*%
%TD*%
%TA.AperFunction,ViaPad*%
%ADD25C,0.800000*%
%TD*%
%TA.AperFunction,Conductor*%
%ADD26C,0.600000*%
%TD*%
%TA.AperFunction,Conductor*%
%ADD27C,0.300000*%
%TD*%
G04 APERTURE END LIST*
D10*
%TO.P,C6,1*%
%TO.N,+5V*%
X71000000Y-43000000D03*
%TO.P,C6,2*%
%TO.N,GND*%
X73500000Y-43000000D03*
%TD*%
%TO.P,R16,1*%
%TO.N,SRAM_CE_PRE_N*%
X92000000Y-90000000D03*
%TO.P,R16,2*%
%TO.N,+5V*%
X92000000Y-79840000D03*
%TD*%
D11*
%TO.P,RN3,1*%
%TO.N,GND*%
X148000000Y-112000000D03*
D10*
%TO.P,RN3,2*%
%TO.N,PICO_D0*%
X148000000Y-109460000D03*
%TO.P,RN3,3*%
%TO.N,PICO_D1*%
X148000000Y-106920000D03*
%TO.P,RN3,4*%
%TO.N,PICO_D2*%
X148000000Y-104380000D03*
%TO.P,RN3,5*%
%TO.N,PICO_D3*%
X148000000Y-101840000D03*
%TO.P,RN3,6*%
%TO.N,PICO_D4*%
X148000000Y-99300000D03*
%TO.P,RN3,7*%
%TO.N,PICO_D5*%
X148000000Y-96760000D03*
%TO.P,RN3,8*%
%TO.N,PICO_D6*%
X148000000Y-94220000D03*
%TO.P,RN3,9*%
%TO.N,PICO_D7*%
X148000000Y-91680000D03*
%TD*%
%TO.P,R4,1*%
%TO.N,IORQ_N*%
X24800000Y-90000000D03*
%TO.P,R4,2*%
%TO.N,+5V*%
X24800000Y-79840000D03*
%TD*%
D12*
%TO.P,U9,1*%
%TO.N,+5V*%
X105000000Y-55000000D03*
D10*
%TO.P,U9,2*%
%TO.N,PICO_D0*%
X105000000Y-57540000D03*
%TO.P,U9,3*%
%TO.N,PICO_D1*%
X105000000Y-60080000D03*
%TO.P,U9,4*%
%TO.N,PICO_D2*%
X105000000Y-62620000D03*
%TO.P,U9,5*%
%TO.N,PICO_D3*%
X105000000Y-65160000D03*
%TO.P,U9,6*%
%TO.N,PICO_D4*%
X105000000Y-67700000D03*
%TO.P,U9,7*%
%TO.N,PICO_D5*%
X105000000Y-70240000D03*
%TO.P,U9,8*%
%TO.N,PICO_D6*%
X105000000Y-72780000D03*
%TO.P,U9,9*%
%TO.N,PICO_D7*%
X105000000Y-75320000D03*
%TO.P,U9,10*%
%TO.N,GND*%
X105000000Y-77860000D03*
%TO.P,U9,11*%
%TO.N,D7*%
X112620000Y-77860000D03*
%TO.P,U9,12*%
%TO.N,D6*%
X112620000Y-75320000D03*
%TO.P,U9,13*%
%TO.N,D5*%
X112620000Y-72780000D03*
%TO.P,U9,14*%
%TO.N,D4*%
X112620000Y-70240000D03*
%TO.P,U9,15*%
%TO.N,D3*%
X112620000Y-67700000D03*
%TO.P,U9,16*%
%TO.N,D2*%
X112620000Y-65160000D03*
%TO.P,U9,17*%
%TO.N,D1*%
X112620000Y-62620000D03*
%TO.P,U9,18*%
%TO.N,D0*%
X112620000Y-60080000D03*
%TO.P,U9,19*%
%TO.N,DATA_UP_OE_N*%
X112620000Y-57540000D03*
%TO.P,U9,20*%
%TO.N,+5V*%
X112620000Y-55000000D03*
%TD*%
D13*
%TO.P,TP5,1*%
%TO.N,BUSREQ_N*%
X81000000Y-10000000D03*
%TD*%
D10*
%TO.P,R1,1*%
%TO.N,BUSREQ_N*%
X8000000Y-90000000D03*
%TO.P,R1,2*%
%TO.N,+5V*%
X8000000Y-79840000D03*
%TD*%
D12*
%TO.P,C10,1*%
%TO.N,+5V*%
X61000000Y-72000000D03*
D10*
%TO.P,C10,2*%
%TO.N,GND*%
X64500000Y-72000000D03*
%TD*%
%TO.P,R13,1*%
%TO.N,NMI_N*%
X75200000Y-90000000D03*
%TO.P,R13,2*%
%TO.N,+5V*%
X75200000Y-79840000D03*
%TD*%
%TO.P,R31,1*%
%TO.N,MCP_RESET_N*%
X104000000Y-135000000D03*
%TO.P,R31,2*%
%TO.N,+5V*%
X104000000Y-124840000D03*
%TD*%
D12*
%TO.P,U1,1*%
%TO.N,A11*%
X40000000Y-17000000D03*
D10*
%TO.P,U1,2*%
%TO.N,A12*%
X40000000Y-19540000D03*
%TO.P,U1,3*%
%TO.N,A13*%
X40000000Y-22080000D03*
%TO.P,U1,4*%
%TO.N,A14*%
X40000000Y-24620000D03*
%TO.P,U1,5*%
%TO.N,A15*%
X40000000Y-27160000D03*
%TO.P,U1,6*%
%TO.N,Z80_CLK*%
X40000000Y-29700000D03*
%TO.P,U1,7*%
%TO.N,D4*%
X40000000Y-32240000D03*
%TO.P,U1,8*%
%TO.N,D3*%
X40000000Y-34780000D03*
%TO.P,U1,9*%
%TO.N,D5*%
X40000000Y-37320000D03*
%TO.P,U1,10*%
%TO.N,D6*%
X40000000Y-39860000D03*
%TO.P,U1,11*%
%TO.N,+5V*%
X40000000Y-42400000D03*
%TO.P,U1,12*%
%TO.N,D2*%
X40000000Y-44940000D03*
%TO.P,U1,13*%
%TO.N,D7*%
X40000000Y-47480000D03*
%TO.P,U1,14*%
%TO.N,D0*%
X40000000Y-50020000D03*
%TO.P,U1,15*%
%TO.N,D1*%
X40000000Y-52560000D03*
%TO.P,U1,16*%
%TO.N,INT_N*%
X40000000Y-55100000D03*
%TO.P,U1,17*%
%TO.N,NMI_N*%
X40000000Y-57640000D03*
%TO.P,U1,18*%
%TO.N,N/C*%
X40000000Y-60180000D03*
%TO.P,U1,19*%
%TO.N,MREQ_N*%
X40000000Y-62720000D03*
%TO.P,U1,20*%
%TO.N,IORQ_N*%
X40000000Y-65260000D03*
%TO.P,U1,21*%
%TO.N,RD_N*%
X55240000Y-65260000D03*
%TO.P,U1,22*%
%TO.N,WR_N*%
X55240000Y-62720000D03*
%TO.P,U1,23*%
%TO.N,BUSACK_N*%
X55240000Y-60180000D03*
%TO.P,U1,24*%
%TO.N,WAIT_N*%
X55240000Y-57640000D03*
%TO.P,U1,25*%
%TO.N,BUSREQ_N*%
X55240000Y-55100000D03*
%TO.P,U1,26*%
%TO.N,RESET_N*%
X55240000Y-52560000D03*
%TO.P,U1,27*%
%TO.N,M1_N*%
X55240000Y-50020000D03*
%TO.P,U1,28*%
%TO.N,N/C*%
X55240000Y-47480000D03*
%TO.P,U1,29*%
%TO.N,GND*%
X55240000Y-44940000D03*
%TO.P,U1,30*%
%TO.N,A0*%
X55240000Y-42400000D03*
%TO.P,U1,31*%
%TO.N,A1*%
X55240000Y-39860000D03*
%TO.P,U1,32*%
%TO.N,A2*%
X55240000Y-37320000D03*
%TO.P,U1,33*%
%TO.N,A3*%
X55240000Y-34780000D03*
%TO.P,U1,34*%
%TO.N,A4*%
X55240000Y-32240000D03*
%TO.P,U1,35*%
%TO.N,A5*%
X55240000Y-29700000D03*
%TO.P,U1,36*%
%TO.N,A6*%
X55240000Y-27160000D03*
%TO.P,U1,37*%
%TO.N,A7*%
X55240000Y-24620000D03*
%TO.P,U1,38*%
%TO.N,A8*%
X55240000Y-22080000D03*
%TO.P,U1,39*%
%TO.N,A9*%
X55240000Y-19540000D03*
%TO.P,U1,40*%
%TO.N,A10*%
X55240000Y-17000000D03*
%TD*%
%TO.P,R26,1*%
%TO.N,ADDR_ENABLE*%
X119000000Y-115000000D03*
%TO.P,R26,2*%
%TO.N,GND*%
X119000000Y-104840000D03*
%TD*%
%TO.P,R21,1*%
%TO.N,PICO_OE_N*%
X127000000Y-98000000D03*
%TO.P,R21,2*%
%TO.N,+3V3*%
X127000000Y-87840000D03*
%TD*%
%TO.P,R18,1*%
%TO.N,PICO_CE_N*%
X103000000Y-98000000D03*
%TO.P,R18,2*%
%TO.N,+3V3*%
X103000000Y-87840000D03*
%TD*%
D13*
%TO.P,TP6,1*%
%TO.N,BUSACK_N*%
X88000000Y-10000000D03*
%TD*%
D14*
%TO.P,C12,1*%
%TO.N,+5V*%
X27000000Y-12000000D03*
D15*
%TO.P,C12,2*%
%TO.N,GND*%
X32000000Y-12000000D03*
%TD*%
D10*
%TO.P,C1,1*%
%TO.N,+5V*%
X34000000Y-42500000D03*
%TO.P,C1,2*%
%TO.N,GND*%
X36500000Y-42500000D03*
%TD*%
D13*
%TO.P,TP1,1*%
%TO.N,M1_N*%
X43000000Y-10000000D03*
%TD*%
D10*
%TO.P,C7,1*%
%TO.N,+5V*%
X115200000Y-55000000D03*
%TO.P,C7,2*%
%TO.N,GND*%
X115200000Y-52500000D03*
%TD*%
%TO.P,C3,1*%
%TO.N,+5V*%
X105000000Y-30000000D03*
%TO.P,C3,2*%
%TO.N,GND*%
X107500000Y-30000000D03*
%TD*%
%TO.P,R11,1*%
%TO.N,WAIT_N*%
X64000000Y-90000000D03*
%TO.P,R11,2*%
%TO.N,+5V*%
X64000000Y-79840000D03*
%TD*%
D12*
%TO.P,U10,1*%
%TO.N,GND*%
X124000000Y-55000000D03*
D10*
%TO.P,U10,2*%
%TO.N,PICO_D0*%
X124000000Y-57540000D03*
%TO.P,U10,3*%
%TO.N,PICO_D1*%
X124000000Y-60080000D03*
%TO.P,U10,4*%
%TO.N,PICO_D2*%
X124000000Y-62620000D03*
%TO.P,U10,5*%
%TO.N,PICO_D3*%
X124000000Y-65160000D03*
%TO.P,U10,6*%
%TO.N,PICO_D4*%
X124000000Y-67700000D03*
%TO.P,U10,7*%
%TO.N,PICO_D5*%
X124000000Y-70240000D03*
%TO.P,U10,8*%
%TO.N,PICO_D6*%
X124000000Y-72780000D03*
%TO.P,U10,9*%
%TO.N,PICO_D7*%
X124000000Y-75320000D03*
%TO.P,U10,10*%
%TO.N,GND*%
X124000000Y-77860000D03*
%TO.P,U10,11*%
%TO.N,D7*%
X131620000Y-77860000D03*
%TO.P,U10,12*%
%TO.N,D6*%
X131620000Y-75320000D03*
%TO.P,U10,13*%
%TO.N,D5*%
X131620000Y-72780000D03*
%TO.P,U10,14*%
%TO.N,D4*%
X131620000Y-70240000D03*
%TO.P,U10,15*%
%TO.N,D3*%
X131620000Y-67700000D03*
%TO.P,U10,16*%
%TO.N,D2*%
X131620000Y-65160000D03*
%TO.P,U10,17*%
%TO.N,D1*%
X131620000Y-62620000D03*
%TO.P,U10,18*%
%TO.N,D0*%
X131620000Y-60080000D03*
%TO.P,U10,19*%
%TO.N,DATA_DOWN_OE_N*%
X131620000Y-57540000D03*
%TO.P,U10,20*%
%TO.N,+3V3*%
X131620000Y-55000000D03*
%TD*%
D12*
%TO.P,C11,1*%
%TO.N,+5V*%
X178000000Y-50000000D03*
D10*
%TO.P,C11,2*%
%TO.N,GND*%
X181500000Y-50000000D03*
%TD*%
%TO.P,C2,1*%
%TO.N,+5V*%
X28000000Y-22000000D03*
%TO.P,C2,2*%
%TO.N,GND*%
X30500000Y-22000000D03*
%TD*%
%TO.P,R29,1*%
%TO.N,MCP_RESET_DRIVE*%
X90000000Y-135000000D03*
%TO.P,R29,2*%
%TO.N,MCP_RESET_BASE*%
X90000000Y-124840000D03*
%TD*%
D13*
%TO.P,TP3,1*%
%TO.N,RESET_N*%
X50000000Y-10000000D03*
%TD*%
D10*
%TO.P,R6,1*%
%TO.N,WR_N*%
X36000000Y-90000000D03*
%TO.P,R6,2*%
%TO.N,+5V*%
X36000000Y-79840000D03*
%TD*%
D16*
%TO.P,A1,1*%
%TO.N,PICO_BUSACK_N*%
X155000000Y-88000000D03*
D10*
%TO.P,A1,2*%
%TO.N,PICO_IORQ_N*%
X155000000Y-90540000D03*
D17*
%TO.P,A1,3*%
%TO.N,GND*%
X155000000Y-93080000D03*
D10*
%TO.P,A1,4*%
%TO.N,PICO_CLK*%
X155000000Y-95620000D03*
%TO.P,A1,5*%
%TO.N,RESET_N*%
X155000000Y-98160000D03*
%TO.P,A1,6*%
%TO.N,PICO_BUSREQ_N*%
X155000000Y-100700000D03*
%TO.P,A1,7*%
%TO.N,PICO_CE_N*%
X155000000Y-103240000D03*
D17*
%TO.P,A1,8*%
%TO.N,GND*%
X155000000Y-105780000D03*
D10*
%TO.P,A1,9*%
%TO.N,DATA_DIR*%
X155000000Y-108320000D03*
%TO.P,A1,10*%
%TO.N,DATA_ENABLE*%
X155000000Y-110860000D03*
%TO.P,A1,11*%
%TO.N,N/C*%
X155000000Y-113400000D03*
%TO.P,A1,12*%
%TO.N,ADDR_ENABLE*%
X155000000Y-115940000D03*
D17*
%TO.P,A1,13*%
%TO.N,GND*%
X155000000Y-118480000D03*
D10*
%TO.P,A1,14*%
%TO.N,PICO_D0*%
X155000000Y-121020000D03*
%TO.P,A1,15*%
%TO.N,PICO_D1*%
X155000000Y-123560000D03*
%TO.P,A1,16*%
%TO.N,PICO_D2*%
X155000000Y-126100000D03*
%TO.P,A1,17*%
%TO.N,PICO_D3*%
X155000000Y-128640000D03*
D17*
%TO.P,A1,18*%
%TO.N,GND*%
X155000000Y-131180000D03*
D10*
%TO.P,A1,19*%
%TO.N,PICO_D4*%
X155000000Y-133720000D03*
%TO.P,A1,20*%
%TO.N,PICO_D5*%
X155000000Y-136260000D03*
%TO.P,A1,21*%
%TO.N,PICO_D6*%
X172780000Y-136260000D03*
%TO.P,A1,22*%
%TO.N,PICO_D7*%
X172780000Y-133720000D03*
D18*
%TO.P,A1,23*%
%TO.N,GND*%
X172780000Y-131180000D03*
D10*
%TO.P,A1,24*%
%TO.N,PICO_SPI_SCK*%
X172780000Y-128640000D03*
%TO.P,A1,25*%
%TO.N,PICO_SPI_MOSI*%
X172780000Y-126100000D03*
%TO.P,A1,26*%
%TO.N,PICO_SPI_MISO*%
X172780000Y-123560000D03*
%TO.P,A1,27*%
%TO.N,PICO_SPI_CS_N*%
X172780000Y-121020000D03*
D18*
%TO.P,A1,28*%
%TO.N,GND*%
X172780000Y-118480000D03*
D10*
%TO.P,A1,29*%
%TO.N,PICO_WE_N*%
X172780000Y-115940000D03*
%TO.P,A1,30*%
%TO.N,N/C*%
X172780000Y-113400000D03*
%TO.P,A1,31*%
%TO.N,PICO_OE_N*%
X172780000Y-110860000D03*
%TO.P,A1,32*%
%TO.N,PICO_RD_N*%
X172780000Y-108320000D03*
D18*
%TO.P,A1,33*%
%TO.N,GND*%
X172780000Y-105780000D03*
D10*
%TO.P,A1,34*%
%TO.N,PICO_WR_N*%
X172780000Y-103240000D03*
%TO.P,A1,35*%
%TO.N,N/C*%
X172780000Y-100700000D03*
%TO.P,A1,36*%
%TO.N,+3V3*%
X172780000Y-98160000D03*
%TO.P,A1,37*%
%TO.N,N/C*%
X172780000Y-95620000D03*
D18*
%TO.P,A1,38*%
%TO.N,GND*%
X172780000Y-93080000D03*
D10*
%TO.P,A1,39*%
%TO.N,VSYS*%
X172780000Y-90540000D03*
%TO.P,A1,40*%
%TO.N,N/C*%
X172780000Y-88000000D03*
%TD*%
%TO.P,R10,1*%
%TO.N,SRAM_WE_N*%
X58400000Y-90000000D03*
%TO.P,R10,2*%
%TO.N,+5V*%
X58400000Y-79840000D03*
%TD*%
%TO.P,R7,1*%
%TO.N,MCP_SO*%
X41600000Y-90000000D03*
%TO.P,R7,2*%
%TO.N,+5V*%
X41600000Y-79840000D03*
%TD*%
%TO.P,R15,1*%
%TO.N,SRAM_OE_PRE_N*%
X86400000Y-90000000D03*
%TO.P,R15,2*%
%TO.N,+5V*%
X86400000Y-79840000D03*
%TD*%
D13*
%TO.P,TP7,1*%
%TO.N,GND*%
X95000000Y-10000000D03*
%TD*%
D12*
%TO.P,U7,1*%
%TO.N,GND*%
X143000000Y-55000000D03*
D10*
%TO.P,U7,2*%
%TO.N,BUSACK_N*%
X143000000Y-57540000D03*
%TO.P,U7,3*%
%TO.N,N/C*%
X143000000Y-60080000D03*
%TO.P,U7,4*%
%TO.N,IORQ_N*%
X143000000Y-62620000D03*
%TO.P,U7,5*%
%TO.N,N/C*%
X143000000Y-65160000D03*
%TO.P,U7,6*%
%TO.N,RD_N*%
X143000000Y-67700000D03*
%TO.P,U7,7*%
%TO.N,N/C*%
X143000000Y-70240000D03*
%TO.P,U7,8*%
%TO.N,WR_N*%
X143000000Y-72780000D03*
%TO.P,U7,9*%
%TO.N,PICO_SPI_MISO*%
X143000000Y-75320000D03*
%TO.P,U7,10*%
%TO.N,GND*%
X143000000Y-77860000D03*
%TO.P,U7,11*%
%TO.N,MCP_SO*%
X150620000Y-77860000D03*
%TO.P,U7,12*%
%TO.N,PICO_WR_N*%
X150620000Y-75320000D03*
%TO.P,U7,13*%
%TO.N,GND*%
X150620000Y-72780000D03*
%TO.P,U7,14*%
%TO.N,PICO_RD_N*%
X150620000Y-70240000D03*
%TO.P,U7,15*%
%TO.N,GND*%
X150620000Y-67700000D03*
%TO.P,U7,16*%
%TO.N,PICO_IORQ_N*%
X150620000Y-65160000D03*
%TO.P,U7,17*%
%TO.N,GND*%
X150620000Y-62620000D03*
%TO.P,U7,18*%
%TO.N,PICO_BUSACK_N*%
X150620000Y-60080000D03*
%TO.P,U7,19*%
%TO.N,GND*%
X150620000Y-57540000D03*
%TO.P,U7,20*%
%TO.N,+3V3*%
X150620000Y-55000000D03*
%TD*%
%TO.P,R24,1*%
%TO.N,DATA_ENABLE*%
X103000000Y-115000000D03*
%TO.P,R24,2*%
%TO.N,GND*%
X103000000Y-104840000D03*
%TD*%
D12*
%TO.P,U2,1*%
%TO.N,N/C*%
X10000000Y-22000000D03*
D10*
%TO.P,U2,2*%
%TO.N,GND*%
X10000000Y-24540000D03*
%TO.P,U2,3*%
%TO.N,A14*%
X10000000Y-27080000D03*
%TO.P,U2,4*%
%TO.N,A12*%
X10000000Y-29620000D03*
%TO.P,U2,5*%
%TO.N,A7*%
X10000000Y-32160000D03*
%TO.P,U2,6*%
%TO.N,A6*%
X10000000Y-34700000D03*
%TO.P,U2,7*%
%TO.N,A5*%
X10000000Y-37240000D03*
%TO.P,U2,8*%
%TO.N,A4*%
X10000000Y-39780000D03*
%TO.P,U2,9*%
%TO.N,A3*%
X10000000Y-42320000D03*
%TO.P,U2,10*%
%TO.N,A2*%
X10000000Y-44860000D03*
%TO.P,U2,11*%
%TO.N,A1*%
X10000000Y-47400000D03*
%TO.P,U2,12*%
%TO.N,A0*%
X10000000Y-49940000D03*
%TO.P,U2,13*%
%TO.N,D0*%
X10000000Y-52480000D03*
%TO.P,U2,14*%
%TO.N,D1*%
X10000000Y-55020000D03*
%TO.P,U2,15*%
%TO.N,D2*%
X10000000Y-57560000D03*
%TO.P,U2,16*%
%TO.N,GND*%
X10000000Y-60100000D03*
%TO.P,U2,17*%
%TO.N,D3*%
X25240000Y-60100000D03*
%TO.P,U2,18*%
%TO.N,D4*%
X25240000Y-57560000D03*
%TO.P,U2,19*%
%TO.N,D5*%
X25240000Y-55020000D03*
%TO.P,U2,20*%
%TO.N,D6*%
X25240000Y-52480000D03*
%TO.P,U2,21*%
%TO.N,D7*%
X25240000Y-49940000D03*
%TO.P,U2,22*%
%TO.N,SRAM_CE_N*%
X25240000Y-47400000D03*
%TO.P,U2,23*%
%TO.N,A10*%
X25240000Y-44860000D03*
%TO.P,U2,24*%
%TO.N,SRAM_OE_N*%
X25240000Y-42320000D03*
%TO.P,U2,25*%
%TO.N,A11*%
X25240000Y-39780000D03*
%TO.P,U2,26*%
%TO.N,A9*%
X25240000Y-37240000D03*
%TO.P,U2,27*%
%TO.N,A8*%
X25240000Y-34700000D03*
%TO.P,U2,28*%
%TO.N,A13*%
X25240000Y-32160000D03*
%TO.P,U2,29*%
%TO.N,SRAM_WE_N*%
X25240000Y-29620000D03*
%TO.P,U2,30*%
%TO.N,+5V*%
X25240000Y-27080000D03*
%TO.P,U2,31*%
%TO.N,A15*%
X25240000Y-24540000D03*
%TO.P,U2,32*%
%TO.N,+5V*%
X25240000Y-22000000D03*
%TD*%
D12*
%TO.P,U8,1*%
%TO.N,A8*%
X78000000Y-22000000D03*
D10*
%TO.P,U8,2*%
%TO.N,A9*%
X78000000Y-24540000D03*
%TO.P,U8,3*%
%TO.N,A10*%
X78000000Y-27080000D03*
%TO.P,U8,4*%
%TO.N,A11*%
X78000000Y-29620000D03*
%TO.P,U8,5*%
%TO.N,A12*%
X78000000Y-32160000D03*
%TO.P,U8,6*%
%TO.N,A13*%
X78000000Y-34700000D03*
%TO.P,U8,7*%
%TO.N,A14*%
X78000000Y-37240000D03*
%TO.P,U8,8*%
%TO.N,A15*%
X78000000Y-39780000D03*
%TO.P,U8,9*%
%TO.N,+5V*%
X78000000Y-42320000D03*
%TO.P,U8,10*%
%TO.N,GND*%
X78000000Y-44860000D03*
%TO.P,U8,11*%
%TO.N,MCP_CS_N*%
X78000000Y-47400000D03*
%TO.P,U8,12*%
%TO.N,MCP_SCK*%
X78000000Y-49940000D03*
%TO.P,U8,13*%
%TO.N,MCP_SI*%
X78000000Y-52480000D03*
%TO.P,U8,14*%
%TO.N,MCP_SO*%
X78000000Y-55020000D03*
%TO.P,U8,15*%
%TO.N,GND*%
X85620000Y-55020000D03*
%TO.P,U8,16*%
X85620000Y-52480000D03*
%TO.P,U8,17*%
X85620000Y-49940000D03*
%TO.P,U8,18*%
%TO.N,MCP_RESET_N*%
X85620000Y-47400000D03*
%TO.P,U8,19*%
%TO.N,N/C*%
X85620000Y-44860000D03*
%TO.P,U8,20*%
X85620000Y-42320000D03*
%TO.P,U8,21*%
%TO.N,A0*%
X85620000Y-39780000D03*
%TO.P,U8,22*%
%TO.N,A1*%
X85620000Y-37240000D03*
%TO.P,U8,23*%
%TO.N,A2*%
X85620000Y-34700000D03*
%TO.P,U8,24*%
%TO.N,A3*%
X85620000Y-32160000D03*
%TO.P,U8,25*%
%TO.N,A4*%
X85620000Y-29620000D03*
%TO.P,U8,26*%
%TO.N,A5*%
X85620000Y-27080000D03*
%TO.P,U8,27*%
%TO.N,A6*%
X85620000Y-24540000D03*
%TO.P,U8,28*%
%TO.N,A7*%
X85620000Y-22000000D03*
%TD*%
D13*
%TO.P,TP2,1*%
%TO.N,Z80_CLK*%
X60000000Y-10000000D03*
%TD*%
D19*
%TO.P,D1,1*%
%TO.N,VSYS*%
X139000000Y-84000000D03*
D20*
%TO.P,D1,2*%
%TO.N,+5V*%
X149160000Y-84000000D03*
%TD*%
D10*
%TO.P,R17,1*%
%TO.N,PICO_BUSREQ_N*%
X95000000Y-98000000D03*
%TO.P,R17,2*%
%TO.N,+3V3*%
X95000000Y-87840000D03*
%TD*%
%TO.P,R22,1*%
%TO.N,PICO_CLK*%
X135000000Y-98000000D03*
%TO.P,R22,2*%
%TO.N,GND*%
X135000000Y-87840000D03*
%TD*%
%TO.P,R20,1*%
%TO.N,PICO_WE_N*%
X119000000Y-98000000D03*
%TO.P,R20,2*%
%TO.N,+3V3*%
X119000000Y-87840000D03*
%TD*%
%TO.P,R25,1*%
%TO.N,DATA_DIR*%
X111000000Y-115000000D03*
%TO.P,R25,2*%
%TO.N,GND*%
X111000000Y-104840000D03*
%TD*%
D11*
%TO.P,RN2,1*%
%TO.N,+5V*%
X34000000Y-72000000D03*
D10*
%TO.P,RN2,2*%
%TO.N,A8*%
X36540000Y-72000000D03*
%TO.P,RN2,3*%
%TO.N,A9*%
X39080000Y-72000000D03*
%TO.P,RN2,4*%
%TO.N,A10*%
X41620000Y-72000000D03*
%TO.P,RN2,5*%
%TO.N,A11*%
X44160000Y-72000000D03*
%TO.P,RN2,6*%
%TO.N,A12*%
X46700000Y-72000000D03*
%TO.P,RN2,7*%
%TO.N,A13*%
X49240000Y-72000000D03*
%TO.P,RN2,8*%
%TO.N,A14*%
X51780000Y-72000000D03*
%TO.P,RN2,9*%
%TO.N,A15*%
X54320000Y-72000000D03*
%TD*%
%TO.P,R3,1*%
%TO.N,MREQ_N*%
X19200000Y-90000000D03*
%TO.P,R3,2*%
%TO.N,+5V*%
X19200000Y-79840000D03*
%TD*%
%TO.P,R12,1*%
%TO.N,INT_N*%
X69600000Y-90000000D03*
%TO.P,R12,2*%
%TO.N,+5V*%
X69600000Y-79840000D03*
%TD*%
D21*
%TO.P,Q1,1*%
%TO.N,GND*%
X80000000Y-61000000D03*
D22*
%TO.P,Q1,2*%
%TO.N,MCP_RESET_BASE*%
X81270000Y-61000000D03*
%TO.P,Q1,3*%
%TO.N,MCP_RESET_N*%
X82540000Y-61000000D03*
%TD*%
D10*
%TO.P,R2,1*%
%TO.N,BUSACK_N*%
X13600000Y-90000000D03*
%TO.P,R2,2*%
%TO.N,+5V*%
X13600000Y-79840000D03*
%TD*%
D11*
%TO.P,RN1,1*%
%TO.N,+5V*%
X8000000Y-67000000D03*
D10*
%TO.P,RN1,2*%
%TO.N,A0*%
X10540000Y-67000000D03*
%TO.P,RN1,3*%
%TO.N,A1*%
X13080000Y-67000000D03*
%TO.P,RN1,4*%
%TO.N,A2*%
X15620000Y-67000000D03*
%TO.P,RN1,5*%
%TO.N,A3*%
X18160000Y-67000000D03*
%TO.P,RN1,6*%
%TO.N,A4*%
X20700000Y-67000000D03*
%TO.P,RN1,7*%
%TO.N,A5*%
X23240000Y-67000000D03*
%TO.P,RN1,8*%
%TO.N,A6*%
X25780000Y-67000000D03*
%TO.P,RN1,9*%
%TO.N,A7*%
X28320000Y-67000000D03*
%TD*%
D12*
%TO.P,U4,1*%
%TO.N,GND*%
X60000000Y-20000000D03*
D10*
%TO.P,U4,2*%
%TO.N,PICO_CLK*%
X60000000Y-22540000D03*
%TO.P,U4,3*%
%TO.N,SRAM_CE_N*%
X60000000Y-25080000D03*
%TO.P,U4,4*%
%TO.N,PICO_BUSREQ_N*%
X60000000Y-27620000D03*
%TO.P,U4,5*%
%TO.N,SRAM_OE_N*%
X60000000Y-30160000D03*
%TO.P,U4,6*%
%TO.N,PICO_SPI_CS_N*%
X60000000Y-32700000D03*
%TO.P,U4,7*%
%TO.N,SRAM_WE_N*%
X60000000Y-35240000D03*
%TO.P,U4,8*%
%TO.N,PICO_SPI_SCK*%
X60000000Y-37780000D03*
%TO.P,U4,9*%
%TO.N,MCP_SI*%
X60000000Y-40320000D03*
%TO.P,U4,10*%
%TO.N,GND*%
X60000000Y-42860000D03*
%TO.P,U4,11*%
%TO.N,PICO_SPI_MOSI*%
X67620000Y-42860000D03*
%TO.P,U4,12*%
%TO.N,MCP_SCK*%
X67620000Y-40320000D03*
%TO.P,U4,13*%
%TO.N,SRAM_WE_PRE_N*%
X67620000Y-37780000D03*
%TO.P,U4,14*%
%TO.N,MCP_CS_N*%
X67620000Y-35240000D03*
%TO.P,U4,15*%
%TO.N,SRAM_OE_PRE_N*%
X67620000Y-32700000D03*
%TO.P,U4,16*%
%TO.N,BUSREQ_N*%
X67620000Y-30160000D03*
%TO.P,U4,17*%
%TO.N,SRAM_CE_PRE_N*%
X67620000Y-27620000D03*
%TO.P,U4,18*%
%TO.N,Z80_CLK*%
X67620000Y-25080000D03*
%TO.P,U4,19*%
%TO.N,GND*%
X67620000Y-22540000D03*
%TO.P,U4,20*%
%TO.N,+5V*%
X67620000Y-20000000D03*
%TD*%
%TO.P,R28,1*%
%TO.N,PICO_SPI_MOSI*%
X135000000Y-115000000D03*
%TO.P,R28,2*%
%TO.N,GND*%
X135000000Y-104840000D03*
%TD*%
%TO.P,R19,1*%
%TO.N,PICO_SPI_CS_N*%
X111000000Y-98000000D03*
%TO.P,R19,2*%
%TO.N,+3V3*%
X111000000Y-87840000D03*
%TD*%
%TO.P,C5,1*%
%TO.N,+3V3*%
X155000000Y-55000000D03*
%TO.P,C5,2*%
%TO.N,GND*%
X155000000Y-52500000D03*
%TD*%
D12*
%TO.P,C9,1*%
%TO.N,+5V*%
X32000000Y-61000000D03*
D10*
%TO.P,C9,2*%
%TO.N,GND*%
X35500000Y-61000000D03*
%TD*%
%TO.P,R14,1*%
%TO.N,SRAM_WE_PRE_N*%
X80800000Y-90000000D03*
%TO.P,R14,2*%
%TO.N,+5V*%
X80800000Y-79840000D03*
%TD*%
%TO.P,R5,1*%
%TO.N,RD_N*%
X30400000Y-90000000D03*
%TO.P,R5,2*%
%TO.N,+5V*%
X30400000Y-79840000D03*
%TD*%
%TO.P,R30,1*%
%TO.N,MCP_RESET_BASE*%
X97000000Y-135000000D03*
%TO.P,R30,2*%
%TO.N,GND*%
X97000000Y-124840000D03*
%TD*%
%TO.P,C8,1*%
%TO.N,+3V3*%
X134200000Y-55000000D03*
%TO.P,C8,2*%
%TO.N,GND*%
X134200000Y-52500000D03*
%TD*%
%TO.P,R8,1*%
%TO.N,SRAM_CE_N*%
X47200000Y-90000000D03*
%TO.P,R8,2*%
%TO.N,+5V*%
X47200000Y-79840000D03*
%TD*%
%TO.P,C4,1*%
%TO.N,+5V*%
X62000000Y-15000000D03*
%TO.P,C4,2*%
%TO.N,GND*%
X64500000Y-15000000D03*
%TD*%
D12*
%TO.P,U3,1*%
%TO.N,RESET_N*%
X94000000Y-22000000D03*
D10*
%TO.P,U3,2*%
%TO.N,BUSACK_N*%
X94000000Y-24540000D03*
%TO.P,U3,3*%
%TO.N,PICO_WE_N*%
X94000000Y-27080000D03*
%TO.P,U3,4*%
%TO.N,WR_N*%
X94000000Y-29620000D03*
%TO.P,U3,5*%
%TO.N,PICO_OE_N*%
X94000000Y-32160000D03*
%TO.P,U3,6*%
%TO.N,RD_N*%
X94000000Y-34700000D03*
%TO.P,U3,7*%
%TO.N,PICO_CE_N*%
X94000000Y-37240000D03*
%TO.P,U3,8*%
%TO.N,MREQ_N*%
X94000000Y-39780000D03*
%TO.P,U3,9*%
%TO.N,DATA_ENABLE*%
X94000000Y-42320000D03*
%TO.P,U3,10*%
%TO.N,ADDR_ENABLE*%
X94000000Y-44860000D03*
%TO.P,U3,11*%
%TO.N,DATA_DIR*%
X94000000Y-47400000D03*
%TO.P,U3,12*%
%TO.N,GND*%
X94000000Y-49940000D03*
%TO.P,U3,13*%
%TO.N,IORQ_N*%
X101620000Y-49940000D03*
%TO.P,U3,14*%
%TO.N,SRAM_WE_PRE_N*%
X101620000Y-47400000D03*
%TO.P,U3,15*%
%TO.N,SRAM_OE_PRE_N*%
X101620000Y-44860000D03*
%TO.P,U3,16*%
%TO.N,SRAM_CE_PRE_N*%
X101620000Y-42320000D03*
%TO.P,U3,17*%
%TO.N,DATA_UP_OE_N*%
X101620000Y-39780000D03*
%TO.P,U3,18*%
%TO.N,DATA_DOWN_OE_N*%
X101620000Y-37240000D03*
%TO.P,U3,19*%
%TO.N,MCP_RESET_DRIVE*%
X101620000Y-34700000D03*
%TO.P,U3,20*%
%TO.N,WAIT_N*%
X101620000Y-32160000D03*
%TO.P,U3,21*%
%TO.N,N/C*%
X101620000Y-29620000D03*
%TO.P,U3,22*%
X101620000Y-27080000D03*
%TO.P,U3,23*%
X101620000Y-24540000D03*
%TO.P,U3,24*%
%TO.N,+5V*%
X101620000Y-22000000D03*
%TD*%
%TO.P,R27,1*%
%TO.N,PICO_SPI_SCK*%
X127000000Y-115000000D03*
%TO.P,R27,2*%
%TO.N,GND*%
X127000000Y-104840000D03*
%TD*%
D13*
%TO.P,TP4,1*%
%TO.N,WAIT_N*%
X74000000Y-10000000D03*
%TD*%
D23*
%TO.P,J1,1*%
%TO.N,+5V*%
X16000000Y-13000000D03*
D24*
%TO.P,J1,2*%
%TO.N,GND*%
X21000000Y-13000000D03*
%TD*%
D10*
%TO.P,R9,1*%
%TO.N,SRAM_OE_N*%
X52800000Y-90000000D03*
%TO.P,R9,2*%
%TO.N,+5V*%
X52800000Y-79840000D03*
%TD*%
%TO.P,R23,1*%
%TO.N,RESET_N*%
X95000000Y-115000000D03*
%TO.P,R23,2*%
%TO.N,GND*%
X95000000Y-104840000D03*
%TD*%
D25*
%TO.N,A10*%
X56414600Y-14067200D03*
X71096400Y-13843300D03*
X71096400Y-26222300D03*
X31566900Y-73963700D03*
%TO.N,A11*%
X57815500Y-28392400D03*
X57192800Y-19820700D03*
X27049200Y-25036700D03*
%TO.N,A12*%
X48948100Y-48632900D03*
X79141400Y-49067600D03*
X42216400Y-67015200D03*
%TO.N,A13*%
X41515700Y-63490600D03*
X76219400Y-45203400D03*
X43540800Y-46868400D03*
%TO.N,A14*%
X53301800Y-65706000D03*
X70098700Y-38568200D03*
X42075900Y-62170300D03*
X69020900Y-66056400D03*
%TO.N,A15*%
X30084800Y-23822400D03*
X71425700Y-54224200D03*
X42075800Y-53580400D03*
X41697000Y-60380800D03*
%TO.N,A3*%
X44066700Y-60483900D03*
X45721800Y-34891000D03*
%TO.N,A5*%
X27036800Y-34468500D03*
X27203200Y-32964800D03*
%TO.N,A6*%
X50968500Y-13297800D03*
X50739600Y-16981300D03*
X76215900Y-12645000D03*
X19593300Y-16314100D03*
%TO.N,A7*%
X51754100Y-16538800D03*
%TO.N,A8*%
X29540500Y-29973700D03*
%TO.N,A9*%
X27415900Y-30890000D03*
X32554400Y-73177000D03*
X58454900Y-13319700D03*
X72642900Y-13628100D03*
%TO.N,BUSACK_N*%
X144192400Y-25810000D03*
X71447900Y-60180000D03*
X89570200Y-29175400D03*
%TO.N,BUSREQ_N*%
X63156100Y-30160000D03*
X63317800Y-55007800D03*
%TO.N,D0*%
X36244600Y-50635100D03*
X36244600Y-56179900D03*
%TO.N,D2*%
X44952600Y-57292300D03*
X44911900Y-44940000D03*
X103543500Y-64162100D03*
%TO.N,D3*%
X43514300Y-11624500D03*
X37731800Y-36561500D03*
X130468300Y-8500000D03*
X26806800Y-37645200D03*
X47167800Y-33482900D03*
%TO.N,D4*%
X34618200Y-57560000D03*
X46705500Y-61527100D03*
%TO.N,D5*%
X104013500Y-66232500D03*
X31289200Y-37674800D03*
%TO.N,D6*%
X35400800Y-53640900D03*
X39303000Y-67714300D03*
X60014400Y-80257700D03*
X29461500Y-39860000D03*
X62019900Y-79212900D03*
X107552300Y-74934400D03*
X107552300Y-82397900D03*
%TO.N,D7*%
X111194900Y-75743600D03*
X61768700Y-75446300D03*
X59416300Y-58910000D03*
X48168000Y-58910000D03*
%TO.N,GND*%
X84137800Y-45472300D03*
X63907900Y-43723000D03*
%TO.N,IORQ_N*%
X47032600Y-58972300D03*
X80080600Y-50364800D03*
X80080600Y-59019700D03*
%TO.N,MCP_RESET_BASE*%
X67496500Y-72409700D03*
%TO.N,MCP_RESET_DRIVE*%
X88437300Y-30404700D03*
%TO.N,MCP_SCK*%
X66438200Y-49940000D03*
%TO.N,MCP_SI*%
X61254400Y-51889600D03*
%TO.N,MCP_SO*%
X55471700Y-66662300D03*
X83355200Y-75359600D03*
%TO.N,MREQ_N*%
X88351700Y-80346200D03*
%TO.N,PICO_BUSREQ_N*%
X62845200Y-86719800D03*
%TO.N,PICO_CE_N*%
X93622700Y-88597400D03*
X87099100Y-85598300D03*
%TO.N,PICO_CLK*%
X67622400Y-18368900D03*
X135568900Y-18368900D03*
%TO.N,PICO_D0*%
X135019500Y-109460000D03*
%TO.N,PICO_D1*%
X115485600Y-80145100D03*
X143294900Y-106073900D03*
X128536200Y-80906900D03*
%TO.N,PICO_D2*%
X133188100Y-103397300D03*
%TO.N,PICO_D3*%
X132904300Y-102282300D03*
%TO.N,PICO_D4*%
X140454500Y-99300000D03*
%TO.N,PICO_D7*%
X129894800Y-98877300D03*
%TO.N,PICO_IORQ_N*%
X159040100Y-87606000D03*
%TO.N,PICO_OE_N*%
X95507000Y-91621400D03*
X95977000Y-32160000D03*
%TO.N,PICO_SPI_CS_N*%
X131013900Y-117918500D03*
X65866100Y-33350100D03*
X66412200Y-93033100D03*
%TO.N,PICO_SPI_SCK*%
X60306300Y-77150200D03*
X121515400Y-81998100D03*
%TO.N,PICO_WE_N*%
X140813900Y-117106800D03*
%TO.N,RD_N*%
X141797800Y-35904800D03*
X82961800Y-56987700D03*
%TO.N,RESET_N*%
X74592300Y-53569400D03*
X88756100Y-11815400D03*
X45993000Y-14073500D03*
%TO.N,SRAM_CE_N*%
X29245700Y-78889000D03*
%TO.N,SRAM_OE_N*%
X26893800Y-50172700D03*
X50671600Y-47203300D03*
X49803700Y-30908100D03*
%TO.N,SRAM_WE_N*%
X28788800Y-34211400D03*
%TO.N,SRAM_WE_PRE_N*%
X73500100Y-46224000D03*
%TO.N,WAIT_N*%
X63406200Y-57640000D03*
%TO.N,WR_N*%
X137055300Y-34194600D03*
X80832300Y-55268800D03*
%TD*%
%TO.N,+3V3*%
D26*
X111000000Y-87840000D02*
X119000000Y-87840000D01*
X134200000Y-55000000D02*
X132871300Y-55000000D01*
X103000000Y-87840000D02*
X111000000Y-87840000D01*
X155000000Y-55000000D02*
X150620000Y-55000000D01*
X132871300Y-51919200D02*
X133606400Y-51184100D01*
X146804100Y-51184100D02*
X150620000Y-55000000D01*
X132871300Y-55000000D02*
X132871300Y-51919200D01*
X133606400Y-51184100D02*
X146804100Y-51184100D01*
X132871300Y-55000000D02*
X131620000Y-55000000D01*
X119000000Y-87840000D02*
X127000000Y-87840000D01*
X95000000Y-87840000D02*
X103000000Y-87840000D01*
%TO.N,+5V*%
X92000000Y-79840000D02*
X91604500Y-79444500D01*
X38760200Y-41160200D02*
X40000000Y-42400000D01*
X115840400Y-50000000D02*
X178000000Y-50000000D01*
X25977700Y-10977700D02*
X27000000Y-12000000D01*
X47200000Y-79840000D02*
X52800000Y-79840000D01*
X28507600Y-10492400D02*
X27000000Y-12000000D01*
X41600000Y-79840000D02*
X47200000Y-79840000D01*
X35339800Y-41160200D02*
X38760200Y-41160200D01*
X64000000Y-79840000D02*
X69600000Y-79840000D01*
X28000000Y-22000000D02*
X25240000Y-22000000D01*
X69600000Y-79840000D02*
X75200000Y-79840000D01*
X147554900Y-82394900D02*
X149160000Y-84000000D01*
X19200000Y-79840000D02*
X24800000Y-79840000D01*
X91604500Y-79444500D02*
X86795500Y-79444500D01*
X80800000Y-79840000D02*
X86400000Y-79840000D01*
X86795500Y-79444500D02*
X86400000Y-79840000D01*
X13600000Y-79840000D02*
X19200000Y-79840000D01*
X75200000Y-79840000D02*
X80800000Y-79840000D01*
X62000000Y-15000000D02*
X67000000Y-20000000D01*
X51528500Y-14903500D02*
X49950800Y-14903500D01*
X77305600Y-41625600D02*
X78000000Y-42320000D01*
X92000000Y-79840000D02*
X95459600Y-83299600D01*
X71000000Y-43000000D02*
X72374400Y-41625600D01*
X36000000Y-79840000D02*
X41600000Y-79840000D01*
X115200000Y-55000000D02*
X112620000Y-55000000D01*
X49854300Y-15000000D02*
X43342000Y-15000000D01*
X49950800Y-14903500D02*
X49854300Y-15000000D01*
X58400000Y-79840000D02*
X52800000Y-79840000D01*
X51625000Y-15000000D02*
X51528500Y-14903500D01*
X99620000Y-20000000D02*
X67620000Y-20000000D01*
X43342000Y-15000000D02*
X38834400Y-10492400D01*
X8000000Y-79840000D02*
X13600000Y-79840000D01*
X72374400Y-41625600D02*
X77305600Y-41625600D01*
X16000000Y-13000000D02*
X18022300Y-10977700D01*
X137724400Y-82394900D02*
X147554900Y-82394900D01*
X101620000Y-22000000D02*
X99620000Y-20000000D01*
X34000000Y-42500000D02*
X35339800Y-41160200D01*
X62000000Y-15000000D02*
X51625000Y-15000000D01*
X38834400Y-10492400D02*
X28507600Y-10492400D01*
X112620000Y-53220400D02*
X115840400Y-50000000D01*
X112620000Y-55000000D02*
X112620000Y-53220400D01*
X18022300Y-10977700D02*
X25977700Y-10977700D01*
X36000000Y-79840000D02*
X30400000Y-79840000D01*
X136819700Y-83299600D02*
X137724400Y-82394900D01*
X67000000Y-20000000D02*
X67620000Y-20000000D01*
X95459600Y-83299600D02*
X136819700Y-83299600D01*
%TO.N,A0*%
D27*
X45515000Y-45611100D02*
X45009400Y-46116700D01*
X70599900Y-40973900D02*
X70091100Y-41482700D01*
X52028900Y-45611100D02*
X45515000Y-45611100D01*
X35215700Y-46116700D02*
X32602000Y-48730400D01*
X84426100Y-40973900D02*
X70599900Y-40973900D01*
X70091100Y-41482700D02*
X56157300Y-41482700D01*
X11209600Y-48730400D02*
X10000000Y-49940000D01*
X56157300Y-41482700D02*
X55240000Y-42400000D01*
X85620000Y-39780000D02*
X84426100Y-40973900D01*
X55240000Y-42400000D02*
X52028900Y-45611100D01*
X45009400Y-46116700D02*
X35215700Y-46116700D01*
X32602000Y-48730400D02*
X11209600Y-48730400D01*
%TO.N,A1*%
X69608800Y-39141200D02*
X69787500Y-39319900D01*
X55958800Y-39141200D02*
X69608800Y-39141200D01*
X10000000Y-47400000D02*
X13729900Y-43670100D01*
X51429900Y-43670100D02*
X55240000Y-39860000D01*
X77439400Y-38510000D02*
X84350000Y-38510000D01*
X69787500Y-39319900D02*
X76629500Y-39319900D01*
X13729900Y-43670100D02*
X51429900Y-43670100D01*
X55240000Y-39860000D02*
X55958800Y-39141200D01*
X76629500Y-39319900D02*
X77439400Y-38510000D01*
X84350000Y-38510000D02*
X85620000Y-37240000D01*
%TO.N,A10*%
X71954100Y-27080000D02*
X78000000Y-27080000D01*
X58994300Y-13843300D02*
X71096400Y-13843300D01*
X41620000Y-72000000D02*
X39656300Y-73963700D01*
X58706700Y-14130900D02*
X58994300Y-13843300D01*
X71096400Y-26222300D02*
X71954100Y-27080000D01*
X56478300Y-14130900D02*
X58706700Y-14130900D01*
X39656300Y-73963700D02*
X31566900Y-73963700D01*
X56414600Y-14067200D02*
X56478300Y-14130900D01*
%TO.N,A11*%
X29954300Y-25036700D02*
X27049200Y-25036700D01*
X77289500Y-28909500D02*
X78000000Y-29620000D01*
X37991000Y-17000000D02*
X29954300Y-25036700D01*
X40000000Y-17000000D02*
X37991000Y-17000000D01*
X55582100Y-18210000D02*
X57192800Y-19820700D01*
X40000000Y-17000000D02*
X41210000Y-18210000D01*
X41210000Y-18210000D02*
X55582100Y-18210000D01*
X58332600Y-28909500D02*
X77289500Y-28909500D01*
X57815500Y-28392400D02*
X58332600Y-28909500D01*
%TO.N,A12*%
X10000000Y-29620000D02*
X13728100Y-25891900D01*
X46700000Y-72000000D02*
X42216400Y-67516400D01*
X42216400Y-67516400D02*
X42216400Y-67015200D01*
X79141400Y-49067600D02*
X78706700Y-48632900D01*
X36410300Y-19540000D02*
X40000000Y-19540000D01*
X78706700Y-48632900D02*
X48948100Y-48632900D01*
X30058400Y-25891900D02*
X36410300Y-19540000D01*
X13728100Y-25891900D02*
X30058400Y-25891900D01*
%TO.N,A13*%
X27104700Y-30138300D02*
X26664200Y-30578800D01*
X27261700Y-30138300D02*
X27104700Y-30138300D01*
X26664200Y-30735800D02*
X25240000Y-32160000D01*
X40000000Y-22080000D02*
X35320000Y-22080000D01*
X47922400Y-46141400D02*
X47195400Y-46868400D01*
X76219400Y-45203400D02*
X56976200Y-45203400D01*
X41515700Y-64275700D02*
X41515700Y-63490600D01*
X26664200Y-30578800D02*
X26664200Y-30735800D01*
X47195400Y-46868400D02*
X43540800Y-46868400D01*
X35320000Y-22080000D02*
X27261700Y-30138300D01*
X49240000Y-72000000D02*
X41515700Y-64275700D01*
X56038200Y-46141400D02*
X47922400Y-46141400D01*
X56976200Y-45203400D02*
X56038200Y-46141400D01*
%TO.N,A14*%
X8830700Y-28249300D02*
X10000000Y-27080000D01*
X35754600Y-20905200D02*
X27023200Y-29636600D01*
X42075900Y-62295900D02*
X42075900Y-62170300D01*
X41158500Y-21571600D02*
X40492100Y-20905200D01*
X9492300Y-30802900D02*
X8830700Y-30141300D01*
X26897000Y-29636600D02*
X25730700Y-30802900D01*
X41158500Y-23461500D02*
X41158500Y-21571600D01*
X8830700Y-30141300D02*
X8830700Y-28249300D01*
X40492100Y-20905200D02*
X35754600Y-20905200D01*
X70098700Y-38568200D02*
X71426900Y-37240000D01*
X55057500Y-67461700D02*
X53301800Y-65706000D01*
X67615600Y-67461700D02*
X55057500Y-67461700D01*
X40000000Y-24620000D02*
X41158500Y-23461500D01*
X69020900Y-66056400D02*
X67615600Y-67461700D01*
X51780000Y-72000000D02*
X42075900Y-62295900D01*
X25730700Y-30802900D02*
X9492300Y-30802900D01*
X71426900Y-37240000D02*
X78000000Y-37240000D01*
X27023200Y-29636600D02*
X26897000Y-29636600D01*
%TO.N,A15*%
X71031500Y-53830000D02*
X42325400Y-53830000D01*
X30084800Y-23822400D02*
X25957600Y-23822400D01*
X54320000Y-72000000D02*
X53668000Y-72000000D01*
X71425700Y-54224200D02*
X71031500Y-53830000D01*
X42048800Y-60380800D02*
X41697000Y-60380800D01*
X53668000Y-72000000D02*
X42048800Y-60380800D01*
X42325400Y-53830000D02*
X42075800Y-53580400D01*
X25957600Y-23822400D02*
X25240000Y-24540000D01*
%TO.N,A2*%
X68290000Y-36570000D02*
X68830000Y-36030000D01*
X29172700Y-38638800D02*
X26801100Y-41010400D01*
X55990000Y-36570000D02*
X68290000Y-36570000D01*
X13849600Y-41010400D02*
X10000000Y-44860000D01*
X55240000Y-37320000D02*
X55990000Y-36570000D01*
X55240000Y-37320000D02*
X53921200Y-38638800D01*
X84290000Y-36030000D02*
X85620000Y-34700000D01*
X53921200Y-38638800D02*
X29172700Y-38638800D01*
X68830000Y-36030000D02*
X84290000Y-36030000D01*
X26801100Y-41010400D02*
X13849600Y-41010400D01*
%TO.N,A3*%
X55984000Y-34036000D02*
X65488600Y-34036000D01*
X22113400Y-63046600D02*
X35096400Y-63046600D01*
X66236100Y-34043200D02*
X76824200Y-34043200D01*
X55240000Y-34780000D02*
X55984000Y-34036000D01*
X18160000Y-67000000D02*
X22113400Y-63046600D01*
X42017300Y-58987400D02*
X43513800Y-60483900D01*
X55129000Y-34891000D02*
X45721800Y-34891000D01*
X55240000Y-34780000D02*
X55129000Y-34891000D01*
X65554700Y-34102100D02*
X66177200Y-34102100D01*
X35096400Y-63046600D02*
X39155600Y-58987400D01*
X65488600Y-34036000D02*
X65554700Y-34102100D01*
X39155600Y-58987400D02*
X42017300Y-58987400D01*
X43513800Y-60483900D02*
X44066700Y-60483900D01*
X84290000Y-33490000D02*
X85620000Y-32160000D01*
X77377400Y-33490000D02*
X84290000Y-33490000D01*
X76824200Y-34043200D02*
X77377400Y-33490000D01*
X66177200Y-34102100D02*
X66236100Y-34043200D01*
%TO.N,A4*%
X9506600Y-36088300D02*
X8841500Y-36753400D01*
X47347800Y-32240000D02*
X46156200Y-33431600D01*
X27616800Y-33716700D02*
X26891800Y-33716700D01*
X14714400Y-33535000D02*
X12161100Y-36088300D01*
X55240000Y-32240000D02*
X47347800Y-32240000D01*
X68622600Y-31547300D02*
X69279900Y-30890000D01*
X26891800Y-33716700D02*
X26710100Y-33535000D01*
X55240000Y-32240000D02*
X55932700Y-31547300D01*
X8841500Y-38621500D02*
X10000000Y-39780000D01*
X55932700Y-31547300D02*
X68622600Y-31547300D01*
X26710100Y-33535000D02*
X14714400Y-33535000D01*
X27901900Y-33431600D02*
X27616800Y-33716700D01*
X84350000Y-30890000D02*
X85620000Y-29620000D01*
X69279900Y-30890000D02*
X84350000Y-30890000D01*
X12161100Y-36088300D02*
X9506600Y-36088300D01*
X46156200Y-33431600D02*
X27901900Y-33431600D01*
X8841500Y-36753400D02*
X8841500Y-38621500D01*
%TO.N,A5*%
X57342100Y-27597900D02*
X55743200Y-25999100D01*
X48396000Y-31070100D02*
X29097900Y-31070100D01*
X85620000Y-27080000D02*
X84449800Y-25909800D01*
X70346000Y-25909800D02*
X68701800Y-25909800D01*
X29097900Y-31070100D02*
X27203200Y-32964800D01*
X68178400Y-26433200D02*
X58506800Y-26433200D01*
X77539200Y-25909800D02*
X77537700Y-25908300D01*
X77537700Y-25908300D02*
X71845400Y-25908300D01*
X68701800Y-25909800D02*
X68178400Y-26433200D01*
X20793700Y-37240000D02*
X21945400Y-36088300D01*
X71407700Y-25470600D02*
X70785200Y-25470600D01*
X58506800Y-26433200D02*
X57342100Y-27597900D01*
X55240000Y-29700000D02*
X57342100Y-27597900D01*
X49492500Y-30092100D02*
X49219000Y-30365600D01*
X55743200Y-25999100D02*
X54600900Y-25999100D01*
X49100500Y-30365600D02*
X48396000Y-31070100D01*
X84449800Y-25909800D02*
X77539200Y-25909800D01*
X71845400Y-25908300D02*
X71407700Y-25470600D01*
X50507900Y-30092100D02*
X49492500Y-30092100D01*
X21945400Y-36088300D02*
X25555300Y-36088300D01*
X54600900Y-25999100D02*
X50507900Y-30092100D01*
X27036800Y-34606800D02*
X27036800Y-34468500D01*
X10000000Y-37240000D02*
X20793700Y-37240000D01*
X70785200Y-25470600D02*
X70346000Y-25909800D01*
X25555300Y-36088300D02*
X27036800Y-34606800D01*
X49219000Y-30365600D02*
X49100500Y-30365600D01*
%TO.N,A6*%
X38733800Y-16314100D02*
X38733800Y-16314000D01*
X76215900Y-12645000D02*
X76133900Y-12563000D01*
X39233900Y-15813900D02*
X40766100Y-15813900D01*
X57414000Y-13297700D02*
X57414000Y-13297800D01*
X57414000Y-13297800D02*
X50968500Y-13297800D01*
X38733800Y-16314000D02*
X39233900Y-15813900D01*
X19593300Y-16314100D02*
X38733800Y-16314100D01*
X76133900Y-12563000D02*
X58148700Y-12563000D01*
X41491000Y-16538800D02*
X41491000Y-16663800D01*
X40766100Y-15813900D02*
X41491000Y-16538800D01*
X41491000Y-16663800D02*
X41808500Y-16981300D01*
X58148700Y-12563000D02*
X57414000Y-13297700D01*
X41808500Y-16981300D02*
X50739600Y-16981300D01*
%TO.N,A7*%
X50428400Y-16056900D02*
X50144600Y-16340700D01*
X63474900Y-23894900D02*
X63678000Y-23691800D01*
X55965100Y-23894900D02*
X63474900Y-23894900D01*
X76635100Y-23691800D02*
X76957600Y-23369300D01*
X42002300Y-16340700D02*
X40973800Y-15312200D01*
X40973800Y-15312200D02*
X19227800Y-15312200D01*
X51754100Y-16538800D02*
X51532800Y-16538800D01*
X55240000Y-24620000D02*
X55965100Y-23894900D01*
X51050900Y-16056900D02*
X50428400Y-16056900D01*
X9494300Y-23368600D02*
X8276900Y-24586000D01*
X8276900Y-30436900D02*
X10000000Y-32160000D01*
X8276900Y-24586000D02*
X8276900Y-30436900D01*
X11171400Y-23368600D02*
X9494300Y-23368600D01*
X19227800Y-15312200D02*
X11171400Y-23368600D01*
X63678000Y-23691800D02*
X76635100Y-23691800D01*
X51532800Y-16538800D02*
X51050900Y-16056900D01*
X84250700Y-23369300D02*
X85620000Y-22000000D01*
X76957600Y-23369300D02*
X84250700Y-23369300D01*
X50144600Y-16340700D02*
X42002300Y-16340700D01*
%TO.N,A8*%
X55240000Y-22080000D02*
X49008300Y-28311700D01*
X55240000Y-22080000D02*
X56149200Y-21170800D01*
X77170800Y-21170800D02*
X78000000Y-22000000D01*
X31202500Y-28311700D02*
X29540500Y-29973700D01*
X49008300Y-28311700D02*
X31202500Y-28311700D01*
X56149200Y-21170800D02*
X77170800Y-21170800D01*
%TO.N,A9*%
X72083700Y-13068900D02*
X72642900Y-13628100D01*
X58454900Y-13319700D02*
X58705700Y-13068900D01*
X27415900Y-30890000D02*
X32492500Y-25813400D01*
X48966600Y-25813400D02*
X55240000Y-19540000D01*
X58705700Y-13068900D02*
X72083700Y-13068900D01*
X32492500Y-25813400D02*
X48966600Y-25813400D01*
X37903000Y-73177000D02*
X32554400Y-73177000D01*
X39080000Y-72000000D02*
X37903000Y-73177000D01*
%TO.N,ADDR_ENABLE*%
X155000000Y-115940000D02*
X152902300Y-113842300D01*
X152902300Y-113842300D02*
X120157700Y-113842300D01*
X120157700Y-113842300D02*
X119000000Y-115000000D01*
%TO.N,BUSACK_N*%
X89570200Y-28969800D02*
X94000000Y-24540000D01*
X94000000Y-24540000D02*
X95270000Y-25810000D01*
X89570200Y-29175400D02*
X89570200Y-28969800D01*
X55240000Y-60180000D02*
X71447900Y-60180000D01*
X95270000Y-25810000D02*
X144192400Y-25810000D01*
%TO.N,BUSREQ_N*%
X55332200Y-55007800D02*
X63317800Y-55007800D01*
X55240000Y-55100000D02*
X55332200Y-55007800D01*
X67620000Y-30160000D02*
X63156100Y-30160000D01*
%TO.N,D0*%
X8831700Y-55480400D02*
X9531200Y-56179900D01*
X59970700Y-51210900D02*
X60043700Y-51137900D01*
X9531200Y-56179900D02*
X36244600Y-56179900D01*
X10000000Y-52480000D02*
X8831700Y-53648300D01*
X103677900Y-51137900D02*
X112620000Y-60080000D01*
X40000000Y-50020000D02*
X41190900Y-51210900D01*
X39384900Y-50635100D02*
X36244600Y-50635100D01*
X41190900Y-51210900D02*
X59970700Y-51210900D01*
X8831700Y-53648300D02*
X8831700Y-55480400D01*
X40000000Y-50020000D02*
X39384900Y-50635100D01*
X60043700Y-51137900D02*
X103677900Y-51137900D01*
%TO.N,D1*%
X112620000Y-62620000D02*
X112620000Y-61447400D01*
X28681900Y-51327100D02*
X13692900Y-51327100D01*
X92049600Y-53838300D02*
X77461700Y-53838300D01*
X40000000Y-52567600D02*
X40000000Y-52560000D01*
X40000000Y-52560000D02*
X29914800Y-52560000D01*
X77461700Y-53838300D02*
X75047800Y-56252200D01*
X43684600Y-56252200D02*
X40000000Y-52567600D01*
X29914800Y-52560000D02*
X28681900Y-51327100D01*
X75047800Y-56252200D02*
X43684600Y-56252200D01*
X99658700Y-61447400D02*
X92049600Y-53838300D01*
X131620000Y-62620000D02*
X130447400Y-61447400D01*
X112620000Y-61447400D02*
X99658700Y-61447400D01*
X13692900Y-51327100D02*
X10000000Y-55020000D01*
X130447400Y-61447400D02*
X112620000Y-61447400D01*
%TO.N,D2*%
X10459800Y-48670000D02*
X12999800Y-46130000D01*
X8330000Y-55890000D02*
X8330000Y-49894200D01*
X63055500Y-72245600D02*
X63971600Y-73161700D01*
X63971600Y-73161700D02*
X81731700Y-73161700D01*
X12999800Y-46130000D02*
X26763000Y-46130000D01*
X27953000Y-44940000D02*
X40000000Y-44940000D01*
X45705100Y-58044800D02*
X45705100Y-58754100D01*
X26763000Y-46130000D02*
X27953000Y-44940000D01*
X122220600Y-65160000D02*
X112620000Y-65160000D01*
X51836800Y-66017700D02*
X54352700Y-68533600D01*
X81731700Y-73161700D02*
X90731300Y-64162100D01*
X131620000Y-65160000D02*
X130429400Y-63969400D01*
X63055500Y-71984000D02*
X63055500Y-72245600D01*
X123411200Y-63969400D02*
X122220600Y-65160000D01*
X8330000Y-49894200D02*
X9554200Y-48670000D01*
X51836800Y-64885800D02*
X51836800Y-66017700D01*
X90731300Y-64162100D02*
X103543500Y-64162100D01*
X10000000Y-57560000D02*
X8330000Y-55890000D01*
X9554200Y-48670000D02*
X10459800Y-48670000D01*
X130429400Y-63969400D02*
X123411200Y-63969400D01*
X44952600Y-57292300D02*
X45705100Y-58044800D01*
X45705100Y-58754100D02*
X51836800Y-64885800D01*
X40000000Y-44940000D02*
X44911900Y-44940000D01*
X59605100Y-68533600D02*
X63055500Y-71984000D01*
X54352700Y-68533600D02*
X59605100Y-68533600D01*
%TO.N,D3*%
X123014900Y-66498700D02*
X121815100Y-67698500D01*
X40000000Y-34780000D02*
X40685500Y-34094500D01*
X131620000Y-67700000D02*
X130418700Y-66498700D01*
X43514300Y-11624500D02*
X46638800Y-8500000D01*
X46556200Y-34094500D02*
X47167800Y-33482900D01*
X27890500Y-36561500D02*
X26806800Y-37645200D01*
X130418700Y-66498700D02*
X123014900Y-66498700D01*
X121815100Y-67698500D02*
X112621500Y-67698500D01*
X40685500Y-34094500D02*
X46556200Y-34094500D01*
X37731800Y-36561500D02*
X27890500Y-36561500D01*
X46638800Y-8500000D02*
X130468300Y-8500000D01*
X112621500Y-67698500D02*
X112620000Y-67700000D01*
%TO.N,D4*%
X50833400Y-65751500D02*
X50833400Y-66433100D01*
X97601700Y-73664900D02*
X102178500Y-69088100D01*
X82145600Y-74166600D02*
X82647300Y-73664900D01*
X113819700Y-69040300D02*
X130420300Y-69040300D01*
X112620000Y-70240000D02*
X113819700Y-69040300D01*
X46705500Y-61623600D02*
X50833400Y-65751500D01*
X53937300Y-69537000D02*
X55570800Y-69537000D01*
X55570800Y-69537000D02*
X60200400Y-74166600D01*
X50833400Y-66433100D02*
X53937300Y-69537000D01*
X82647300Y-73664900D02*
X97601700Y-73664900D01*
X105577700Y-69088100D02*
X106729600Y-70240000D01*
X46705500Y-61527100D02*
X46705500Y-61623600D01*
X130420300Y-69040300D02*
X131620000Y-70240000D01*
X106729600Y-70240000D02*
X112620000Y-70240000D01*
X25240000Y-57560000D02*
X34618200Y-57560000D01*
X60200400Y-74166600D02*
X82145600Y-74166600D01*
X102178500Y-69088100D02*
X105577700Y-69088100D01*
%TO.N,D5*%
X36183500Y-53921200D02*
X40494900Y-53921200D01*
X56083100Y-69035300D02*
X60711200Y-73663400D01*
X51335100Y-65521500D02*
X51335100Y-66225400D01*
X130446200Y-71606200D02*
X131620000Y-72780000D01*
X60711200Y-73663400D02*
X81939400Y-73663400D01*
X97082800Y-73163200D02*
X104013500Y-66232500D01*
X48924100Y-62682500D02*
X48924100Y-63110500D01*
X48924100Y-63110500D02*
X51335100Y-65521500D01*
X122220600Y-72780000D02*
X123394400Y-71606200D01*
X31289200Y-37674800D02*
X31644000Y-37320000D01*
X31644000Y-37320000D02*
X40000000Y-37320000D01*
X81939400Y-73663400D02*
X82439600Y-73163200D01*
X123394400Y-71606200D02*
X130446200Y-71606200D01*
X45203400Y-58629700D02*
X45203400Y-58961800D01*
X82439600Y-73163200D02*
X97082800Y-73163200D01*
X40494900Y-53921200D02*
X45203400Y-58629700D01*
X51335100Y-66225400D02*
X54145000Y-69035300D01*
X35084700Y-55020000D02*
X36183500Y-53921200D01*
X25240000Y-55020000D02*
X35084700Y-55020000D01*
X45203400Y-58961800D02*
X48924100Y-62682500D01*
X54145000Y-69035300D02*
X56083100Y-69035300D01*
X112620000Y-72780000D02*
X122220600Y-72780000D01*
%TO.N,D6*%
X40000000Y-39860000D02*
X29461500Y-39860000D01*
X26400900Y-53640900D02*
X35400800Y-53640900D01*
X112620000Y-75320000D02*
X112620000Y-74934400D01*
X130458100Y-74158100D02*
X131620000Y-75320000D01*
X60014300Y-80257700D02*
X60014300Y-79785800D01*
X41516100Y-67714300D02*
X39303000Y-67714300D01*
X60014300Y-79785800D02*
X57459400Y-77230900D01*
X25240000Y-52480000D02*
X26400900Y-53640900D01*
X45430000Y-71628200D02*
X41516100Y-67714300D01*
X62565300Y-78667500D02*
X92456300Y-78667500D01*
X114191200Y-74158100D02*
X130458100Y-74158100D01*
X50297000Y-77230900D02*
X45430000Y-72363900D01*
X112620000Y-74934400D02*
X107552300Y-74934400D01*
X112620000Y-74934400D02*
X113414900Y-74934400D01*
X60014400Y-80257700D02*
X60014300Y-80257700D01*
X96186700Y-82397900D02*
X107552300Y-82397900D01*
X45430000Y-72363900D02*
X45430000Y-71628200D01*
X92456300Y-78667500D02*
X96186700Y-82397900D01*
X113414900Y-74934400D02*
X114191200Y-74158100D01*
X57459400Y-77230900D02*
X50297000Y-77230900D01*
X62019900Y-79212900D02*
X62565300Y-78667500D01*
%TO.N,D7*%
X130468300Y-76708300D02*
X131620000Y-77860000D01*
X105475200Y-74166400D02*
X107052400Y-75743600D01*
X25799900Y-49380100D02*
X25240000Y-49940000D01*
X103672900Y-74343300D02*
X103849800Y-74166400D01*
X81825500Y-75446300D02*
X82928500Y-74343300D01*
X113329300Y-77860000D02*
X114481000Y-76708300D01*
X40000000Y-47480000D02*
X34561900Y-47480000D01*
X107052400Y-75743600D02*
X111194900Y-75743600D01*
X34561900Y-47480000D02*
X32661800Y-49380100D01*
X82928500Y-74343300D02*
X103672900Y-74343300D01*
X59416300Y-58910000D02*
X48168000Y-58910000D01*
X103849800Y-74166400D02*
X105475200Y-74166400D01*
X114481000Y-76708300D02*
X130468300Y-76708300D01*
X61768700Y-75446300D02*
X81825500Y-75446300D01*
X32661800Y-49380100D02*
X25799900Y-49380100D01*
X112620000Y-77860000D02*
X113329300Y-77860000D01*
%TO.N,DATA_DIR*%
X155408700Y-112130000D02*
X152536200Y-112130000D01*
X151514500Y-113151700D02*
X112848300Y-113151700D01*
X152536200Y-112130000D02*
X151514500Y-113151700D01*
X112848300Y-113151700D02*
X111000000Y-115000000D01*
X156179200Y-111359500D02*
X155408700Y-112130000D01*
X155000000Y-108320000D02*
X156179200Y-109499200D01*
X156179200Y-109499200D02*
X156179200Y-111359500D01*
%TO.N,DATA_DOWN_OE_N*%
X130429100Y-56349100D02*
X112311100Y-56349100D01*
X111347300Y-55385300D02*
X111347300Y-46967300D01*
X131620000Y-57540000D02*
X130429100Y-56349100D01*
X111347300Y-46967300D02*
X101620000Y-37240000D01*
X112311100Y-56349100D02*
X111347300Y-55385300D01*
%TO.N,DATA_ENABLE*%
X107196300Y-110803700D02*
X103000000Y-115000000D01*
X155000000Y-110860000D02*
X154943700Y-110803700D01*
X154943700Y-110803700D02*
X107196300Y-110803700D01*
%TO.N,DATA_UP_OE_N*%
X112620000Y-57540000D02*
X103368100Y-48288100D01*
X103368100Y-48288100D02*
X103368100Y-41528100D01*
X103368100Y-41528100D02*
X101620000Y-39780000D01*
%TO.N,GND*%
X97000000Y-124840000D02*
X93818700Y-121658700D01*
X76209400Y-61000000D02*
X79123300Y-61000000D01*
X80000000Y-61000000D02*
X80000000Y-59898300D01*
X135000000Y-87840000D02*
X149760000Y-87840000D01*
X174450000Y-129510000D02*
X174450000Y-120150000D01*
X76140000Y-43000000D02*
X73500000Y-43000000D01*
X65209400Y-72000000D02*
X76209400Y-61000000D01*
X134200000Y-52500000D02*
X140500000Y-52500000D01*
X85620000Y-55392500D02*
X85620000Y-55020000D01*
X174450000Y-120150000D02*
X172780000Y-118480000D01*
X140500000Y-52500000D02*
X143000000Y-55000000D01*
X124000000Y-77860000D02*
X125173900Y-79033900D01*
X172780000Y-131180000D02*
X174450000Y-129510000D01*
X83525500Y-44860000D02*
X84137800Y-45472300D01*
X30621900Y-13378100D02*
X21378100Y-13378100D01*
X60000000Y-20000000D02*
X55749900Y-15749900D01*
X55749900Y-15749900D02*
X51453300Y-15749900D01*
X114800400Y-79057900D02*
X106197900Y-79057900D01*
X115998300Y-77860000D02*
X114800400Y-79057900D01*
X60863000Y-43723000D02*
X63907900Y-43723000D01*
X64500000Y-15000000D02*
X90000000Y-15000000D01*
X119000000Y-104840000D02*
X127000000Y-104840000D01*
X93818700Y-121658700D02*
X93818700Y-106021300D01*
X145540000Y-77860000D02*
X143000000Y-77860000D01*
X57320000Y-42860000D02*
X60000000Y-42860000D01*
X90000000Y-15000000D02*
X95000000Y-10000000D01*
X172780000Y-118480000D02*
X155000000Y-118480000D01*
X106197900Y-79057900D02*
X105000000Y-77860000D01*
X73500000Y-43000000D02*
X72347500Y-44152500D01*
X72347500Y-44152500D02*
X64337400Y-44152500D01*
X150620000Y-72780000D02*
X145540000Y-77860000D01*
X148080000Y-55000000D02*
X143000000Y-55000000D01*
X149760000Y-87840000D02*
X155000000Y-93080000D01*
X50220700Y-15555200D02*
X50026000Y-15749900D01*
X33442900Y-58942900D02*
X35500000Y-61000000D01*
X94000000Y-49940000D02*
X85620000Y-49940000D01*
X51258600Y-15555200D02*
X50220700Y-15555200D01*
X80000000Y-59898300D02*
X81114200Y-59898300D01*
X10000000Y-24540000D02*
X12430400Y-24540000D01*
X50026000Y-15749900D02*
X42120900Y-15749900D01*
X51453300Y-15749900D02*
X51258600Y-15555200D01*
X81114200Y-59898300D02*
X85620000Y-55392500D01*
X42120900Y-15749900D02*
X38371000Y-12000000D01*
X150620000Y-57540000D02*
X148080000Y-55000000D01*
X124000000Y-77860000D02*
X115998300Y-77860000D01*
X29230000Y-23270000D02*
X30500000Y-22000000D01*
X115200000Y-52500000D02*
X121500000Y-52500000D01*
X13700400Y-23270000D02*
X29230000Y-23270000D01*
X181500000Y-50000000D02*
X179000000Y-52500000D01*
X80000000Y-61000000D02*
X79123300Y-61000000D01*
X179000000Y-52500000D02*
X155000000Y-52500000D01*
X93818700Y-106021300D02*
X95000000Y-104840000D01*
X78000000Y-44860000D02*
X83525500Y-44860000D01*
X141826100Y-79033900D02*
X143000000Y-77860000D01*
X11157100Y-58942900D02*
X33442900Y-58942900D01*
X127000000Y-104840000D02*
X135000000Y-104840000D01*
X21378100Y-13378100D02*
X21000000Y-13000000D01*
X64500000Y-72000000D02*
X65209400Y-72000000D01*
X125173900Y-79033900D02*
X141826100Y-79033900D01*
X111000000Y-104840000D02*
X119000000Y-104840000D01*
X32000000Y-12000000D02*
X30621900Y-13378100D01*
X64337400Y-44152500D02*
X63907900Y-43723000D01*
X10000000Y-60100000D02*
X11157100Y-58942900D01*
X60000000Y-42860000D02*
X60863000Y-43723000D01*
X78000000Y-44860000D02*
X76140000Y-43000000D01*
X95000000Y-104840000D02*
X103000000Y-104840000D01*
X103000000Y-104840000D02*
X111000000Y-104840000D01*
X12430400Y-24540000D02*
X13700400Y-23270000D01*
X172780000Y-93080000D02*
X155000000Y-93080000D01*
X55240000Y-44940000D02*
X57320000Y-42860000D01*
X38371000Y-12000000D02*
X32000000Y-12000000D01*
X121500000Y-52500000D02*
X124000000Y-55000000D01*
%TO.N,INT_N*%
X59554600Y-74836600D02*
X59554600Y-77676700D01*
X61268100Y-79649700D02*
X69600000Y-87981600D01*
X50331600Y-66216100D02*
X50331700Y-66216100D01*
X50331700Y-66640800D02*
X53729600Y-70038700D01*
X54756700Y-70038700D02*
X59554600Y-74836600D01*
X45953800Y-60598600D02*
X45953800Y-61838300D01*
X40000000Y-55100000D02*
X40455200Y-55100000D01*
X53729600Y-70038700D02*
X54756700Y-70038700D01*
X45953800Y-61838300D02*
X50331600Y-66216100D01*
X59554600Y-77676700D02*
X61268100Y-79390200D01*
X61268100Y-79390200D02*
X61268100Y-79649700D01*
X69600000Y-87981600D02*
X69600000Y-90000000D01*
X50331700Y-66216100D02*
X50331700Y-66640800D01*
X40455200Y-55100000D02*
X45953800Y-60598600D01*
%TO.N,IORQ_N*%
X38636900Y-65260000D02*
X28374000Y-75522900D01*
X77144800Y-59019700D02*
X80080600Y-59019700D01*
X28374000Y-86426000D02*
X24800000Y-90000000D01*
X47032600Y-58972300D02*
X52400500Y-64340200D01*
X52400500Y-64340200D02*
X52400500Y-65872000D01*
X40000000Y-65260000D02*
X38636900Y-65260000D01*
X54560400Y-68031900D02*
X68132600Y-68031900D01*
X52400500Y-65872000D02*
X54560400Y-68031900D01*
X81696000Y-48749400D02*
X100429400Y-48749400D01*
X80080600Y-50364800D02*
X81696000Y-48749400D01*
X139190000Y-58810000D02*
X112257400Y-58810000D01*
X100429400Y-48749400D02*
X101620000Y-49940000D01*
X68132600Y-68031900D02*
X77144800Y-59019700D01*
X28374000Y-75522900D02*
X28374000Y-86426000D01*
X103387400Y-49940000D02*
X101620000Y-49940000D01*
X112257400Y-58810000D02*
X103387400Y-49940000D01*
X143000000Y-62620000D02*
X139190000Y-58810000D01*
%TO.N,MCP_RESET_BASE*%
X70962000Y-72409700D02*
X67496500Y-72409700D01*
X81270000Y-61000000D02*
X81270000Y-62101700D01*
X81270000Y-62101700D02*
X70962000Y-72409700D01*
%TO.N,MCP_RESET_DRIVE*%
X100290000Y-33370000D02*
X101620000Y-34700000D01*
X91402600Y-33370000D02*
X100290000Y-33370000D01*
X88437300Y-30404700D02*
X91402600Y-33370000D01*
%TO.N,MCP_SCK*%
X78000000Y-49940000D02*
X66438200Y-49940000D01*
%TO.N,MCP_SI*%
X77409600Y-51889600D02*
X61254400Y-51889600D01*
X78000000Y-52480000D02*
X77409600Y-51889600D01*
%TO.N,MCP_SO*%
X115993600Y-79590000D02*
X115796900Y-79393300D01*
X114977700Y-79590000D02*
X105014900Y-79590000D01*
X71570000Y-61450000D02*
X78000000Y-55020000D01*
X100784500Y-75359600D02*
X83355200Y-75359600D01*
X115174400Y-79393300D02*
X114977700Y-79590000D01*
X55471700Y-66662300D02*
X55004000Y-66662300D01*
X54054500Y-62239500D02*
X54844000Y-61450000D01*
X55004000Y-66662300D02*
X54054500Y-65712800D01*
X150620000Y-77860000D02*
X148890000Y-79590000D01*
X115796900Y-79393300D02*
X115174400Y-79393300D01*
X54054500Y-65712800D02*
X54054500Y-62239500D01*
X148890000Y-79590000D02*
X115993600Y-79590000D01*
X54844000Y-61450000D02*
X71570000Y-61450000D01*
X105014900Y-79590000D02*
X100784500Y-75359600D01*
%TO.N,MREQ_N*%
X77024100Y-91673800D02*
X88351700Y-80346200D01*
X20393800Y-91193800D02*
X54573200Y-91193800D01*
X27872300Y-81327700D02*
X19200000Y-90000000D01*
X27872300Y-74847700D02*
X27872300Y-81327700D01*
X54573200Y-91193800D02*
X59799000Y-85968000D01*
X19200000Y-90000000D02*
X20393800Y-91193800D01*
X63210900Y-85968000D02*
X68916700Y-91673800D01*
X68916700Y-91673800D02*
X77024100Y-91673800D01*
X40000000Y-62720000D02*
X27872300Y-74847700D01*
X59799000Y-85968000D02*
X63210900Y-85968000D01*
%TO.N,NMI_N*%
X44865100Y-61883600D02*
X53590500Y-70609000D01*
X54571700Y-70609000D02*
X57619900Y-73657200D01*
X66206100Y-85547300D02*
X66206100Y-88253800D01*
X53590500Y-70609000D02*
X54571700Y-70609000D01*
X69124300Y-91172000D02*
X74028000Y-91172000D01*
X44865100Y-60219300D02*
X44865100Y-61883600D01*
X60766400Y-80107600D02*
X66206100Y-85547300D01*
X74028000Y-91172000D02*
X75200000Y-90000000D01*
X41379400Y-57640000D02*
X43471600Y-59732200D01*
X57619900Y-73657200D02*
X57619900Y-76505200D01*
X66206100Y-88253800D02*
X69124300Y-91172000D01*
X57619900Y-76505200D02*
X60766400Y-79651700D01*
X60766400Y-79651700D02*
X60766400Y-80107600D01*
X44378000Y-59732200D02*
X44865100Y-60219300D01*
X40000000Y-57640000D02*
X41379400Y-57640000D01*
X43471600Y-59732200D02*
X44378000Y-59732200D01*
%TO.N,PICO_BUSREQ_N*%
X95000000Y-96812400D02*
X69114500Y-96812400D01*
X62845200Y-90543100D02*
X62845200Y-86719800D01*
X138774500Y-98110000D02*
X136507200Y-100377300D01*
X69114500Y-96812400D02*
X62845200Y-90543100D01*
X95000000Y-98000000D02*
X95000000Y-96812400D01*
X110338900Y-100377300D02*
X106774000Y-96812400D01*
X152410000Y-98110000D02*
X138774500Y-98110000D01*
X106774000Y-96812400D02*
X95000000Y-96812400D01*
X136507200Y-100377300D02*
X110338900Y-100377300D01*
X155000000Y-100700000D02*
X152410000Y-98110000D01*
%TO.N,PICO_CE_N*%
X103000000Y-98000000D02*
X105914900Y-100914900D01*
X87099100Y-85598300D02*
X90098200Y-88597400D01*
X137140600Y-100657300D02*
X152417300Y-100657300D01*
X105914900Y-100914900D02*
X136883000Y-100914900D01*
X90098200Y-88597400D02*
X93622700Y-88597400D01*
X136883000Y-100914900D02*
X137140600Y-100657300D01*
X152417300Y-100657300D02*
X155000000Y-103240000D01*
%TO.N,PICO_CLK*%
X155000000Y-95620000D02*
X149708300Y-90328300D01*
X142671700Y-90328300D02*
X135000000Y-98000000D01*
X149708300Y-90328300D02*
X142671700Y-90328300D01*
X67622400Y-18368900D02*
X135568900Y-18368900D01*
%TO.N,PICO_D0*%
X148000000Y-109460000D02*
X135019500Y-109460000D01*
%TO.N,PICO_D1*%
X127774400Y-80145100D02*
X115485600Y-80145100D01*
X148000000Y-106920000D02*
X144141000Y-106920000D01*
X128536200Y-80906900D02*
X127774400Y-80145100D01*
X144141000Y-106920000D02*
X143294900Y-106073900D01*
%TO.N,PICO_D2*%
X122809700Y-63810300D02*
X106190300Y-63810300D01*
X124000000Y-62620000D02*
X122809700Y-63810300D01*
X148000000Y-104380000D02*
X147017300Y-103397300D01*
X106190300Y-63810300D02*
X105000000Y-62620000D01*
X147017300Y-103397300D02*
X133188100Y-103397300D01*
%TO.N,PICO_D3*%
X106161900Y-66321900D02*
X105000000Y-65160000D01*
X124000000Y-65160000D02*
X123290700Y-65160000D01*
X122128800Y-66321900D02*
X106161900Y-66321900D01*
X148000000Y-101840000D02*
X133346600Y-101840000D01*
X123290700Y-65160000D02*
X122128800Y-66321900D01*
X133346600Y-101840000D02*
X132904300Y-102282300D01*
%TO.N,PICO_D4*%
X113223300Y-68873800D02*
X106173800Y-68873800D01*
X124000000Y-67700000D02*
X123499800Y-68200200D01*
X148000000Y-99300000D02*
X140454500Y-99300000D01*
X113896900Y-68200200D02*
X113223300Y-68873800D01*
X106173800Y-68873800D02*
X105000000Y-67700000D01*
X123499800Y-68200200D02*
X113896900Y-68200200D01*
%TO.N,PICO_D5*%
X124000000Y-70240000D02*
X122809400Y-71430600D01*
X122809400Y-71430600D02*
X106190600Y-71430600D01*
X106190600Y-71430600D02*
X105000000Y-70240000D01*
%TO.N,PICO_D6*%
X113613300Y-73973100D02*
X106193100Y-73973100D01*
X124000000Y-72780000D02*
X123384200Y-73395800D01*
X114190600Y-73395800D02*
X113613300Y-73973100D01*
X123384200Y-73395800D02*
X114190600Y-73395800D01*
X106193100Y-73973100D02*
X105000000Y-72780000D01*
%TO.N,PICO_D7*%
X113605600Y-76520800D02*
X106200800Y-76520800D01*
X148000000Y-91680000D02*
X143581700Y-91680000D01*
X124000000Y-75320000D02*
X114806400Y-75320000D01*
X143581700Y-91680000D02*
X135887800Y-99373900D01*
X106200800Y-76520800D02*
X105000000Y-75320000D01*
X130391400Y-99373900D02*
X129894800Y-98877300D01*
X114806400Y-75320000D02*
X113605600Y-76520800D01*
X135887800Y-99373900D02*
X130391400Y-99373900D01*
%TO.N,PICO_IORQ_N*%
X157934000Y-87606000D02*
X159040100Y-87606000D01*
X155000000Y-90540000D02*
X157934000Y-87606000D01*
%TO.N,PICO_OE_N*%
X136197500Y-99875600D02*
X140506200Y-95566900D01*
X128875600Y-99875600D02*
X136197500Y-99875600D01*
X152594700Y-96985400D02*
X158905400Y-96985400D01*
X127000000Y-98000000D02*
X120621400Y-91621400D01*
X158905400Y-96985400D02*
X172780000Y-110860000D01*
X151176200Y-95566900D02*
X152594700Y-96985400D01*
X140506200Y-95566900D02*
X151176200Y-95566900D01*
X127000000Y-98000000D02*
X128875600Y-99875600D01*
X120621400Y-91621400D02*
X95507000Y-91621400D01*
X94000000Y-32160000D02*
X95977000Y-32160000D01*
%TO.N,PICO_SPI_CS_N*%
X173948300Y-122188300D02*
X173948300Y-126657900D01*
X173325200Y-127281000D02*
X172231500Y-127281000D01*
X65216000Y-32700000D02*
X65866100Y-33350100D01*
X173948300Y-126657900D02*
X173325200Y-127281000D01*
X172231500Y-127281000D02*
X167240500Y-122290000D01*
X60000000Y-32700000D02*
X65216000Y-32700000D01*
X111000000Y-98000000D02*
X106033100Y-93033100D01*
X106033100Y-93033100D02*
X66412200Y-93033100D01*
X172780000Y-121020000D02*
X173948300Y-122188300D01*
X135385400Y-122290000D02*
X131013900Y-117918500D01*
X167240500Y-122290000D02*
X135385400Y-122290000D01*
%TO.N,PICO_SPI_MOSI*%
X139818400Y-119818400D02*
X135000000Y-115000000D01*
X166498400Y-119818400D02*
X139818400Y-119818400D01*
X172780000Y-126100000D02*
X166498400Y-119818400D01*
%TO.N,PICO_SPI_SCK*%
X127000000Y-115000000D02*
X136757500Y-124757500D01*
X136757500Y-124757500D02*
X168897500Y-124757500D01*
X168897500Y-124757500D02*
X172780000Y-128640000D01*
X121515400Y-81998100D02*
X121013700Y-81496400D01*
X121013700Y-81496400D02*
X100559800Y-81496400D01*
X96213600Y-77150200D02*
X60306300Y-77150200D01*
X100559800Y-81496400D02*
X96213600Y-77150200D01*
%TO.N,PICO_WE_N*%
X171613200Y-117106800D02*
X140813900Y-117106800D01*
X172780000Y-115940000D02*
X171613200Y-117106800D01*
%TO.N,RD_N*%
X94000000Y-34700000D02*
X95204800Y-35904800D01*
X76385600Y-58518000D02*
X69643600Y-65260000D01*
X78536600Y-56987700D02*
X77006300Y-58518000D01*
X95204800Y-35904800D02*
X141797800Y-35904800D01*
X69643600Y-65260000D02*
X55240000Y-65260000D01*
X77006300Y-58518000D02*
X76385600Y-58518000D01*
X82961800Y-56987700D02*
X78536600Y-56987700D01*
%TO.N,RESET_N*%
X151420100Y-105568000D02*
X143852200Y-105568000D01*
X47741900Y-14073500D02*
X50000000Y-11815400D01*
X50000000Y-11815400D02*
X50000000Y-10000000D01*
X74351200Y-53328300D02*
X56008300Y-53328300D01*
X156175600Y-103717600D02*
X155380500Y-104512700D01*
X45993000Y-14073500D02*
X47741900Y-14073500D01*
X100080000Y-109920000D02*
X95000000Y-115000000D01*
X131548800Y-109920000D02*
X100080000Y-109920000D01*
X56008300Y-53328300D02*
X55240000Y-52560000D01*
X136146600Y-105322200D02*
X131548800Y-109920000D01*
X50000000Y-11815400D02*
X88756100Y-11815400D01*
X143852200Y-105568000D02*
X143606400Y-105322200D01*
X143606400Y-105322200D02*
X136146600Y-105322200D01*
X155380500Y-104512700D02*
X152475400Y-104512700D01*
X152475400Y-104512700D02*
X151420100Y-105568000D01*
X74592300Y-53569400D02*
X74351200Y-53328300D01*
X156175600Y-99335600D02*
X156175600Y-103717600D01*
X155000000Y-98160000D02*
X156175600Y-99335600D01*
%TO.N,SRAM_CE_N*%
X29245700Y-80379900D02*
X29245700Y-78889000D01*
X33073300Y-84207500D02*
X29245700Y-80379900D01*
X47200000Y-90000000D02*
X41407500Y-84207500D01*
X41407500Y-84207500D02*
X33073300Y-84207500D01*
%TO.N,SRAM_CE_PRE_N*%
X67620000Y-27620000D02*
X68407800Y-28407800D01*
X93596600Y-38510000D02*
X97810000Y-38510000D01*
X87685600Y-29990200D02*
X87685600Y-32599000D01*
X68407800Y-28407800D02*
X86103200Y-28407800D01*
X86103200Y-28407800D02*
X87685600Y-29990200D01*
X97810000Y-38510000D02*
X101620000Y-42320000D01*
X87685600Y-32599000D02*
X93596600Y-38510000D01*
%TO.N,SRAM_OE_N*%
X26893800Y-50172700D02*
X27183200Y-49883300D01*
X37546400Y-48750000D02*
X44296400Y-48750000D01*
X50256300Y-47618600D02*
X50671600Y-47203300D01*
X60000000Y-30160000D02*
X59251900Y-30908100D01*
X27183200Y-49883300D02*
X36413100Y-49883300D01*
X45427800Y-47618600D02*
X50256300Y-47618600D01*
X59251900Y-30908100D02*
X49803700Y-30908100D01*
X44296400Y-48750000D02*
X45427800Y-47618600D01*
X36413100Y-49883300D02*
X37546400Y-48750000D01*
%TO.N,SRAM_WE_N*%
X36556700Y-34211400D02*
X28788800Y-34211400D01*
X60000000Y-35240000D02*
X59291300Y-35948700D01*
X59291300Y-35948700D02*
X38294000Y-35948700D01*
X38294000Y-35948700D02*
X36556700Y-34211400D01*
%TO.N,SRAM_WE_PRE_N*%
X101620000Y-47400000D02*
X100444000Y-46224000D01*
X100444000Y-46224000D02*
X73500100Y-46224000D01*
%TO.N,VSYS*%
D26*
X141696900Y-86696900D02*
X139000000Y-84000000D01*
X172780000Y-90540000D02*
X168936900Y-86696900D01*
X168936900Y-86696900D02*
X141696900Y-86696900D01*
%TO.N,WAIT_N*%
D27*
X55240000Y-57640000D02*
X63406200Y-57640000D01*
%TO.N,WR_N*%
X79404100Y-55268800D02*
X80832300Y-55268800D01*
X71385500Y-62720000D02*
X76089200Y-58016300D01*
X102747200Y-30890000D02*
X106051800Y-34194600D01*
X95270000Y-30890000D02*
X102747200Y-30890000D01*
X76089200Y-58016300D02*
X76656600Y-58016300D01*
X94000000Y-29620000D02*
X95270000Y-30890000D01*
X106051800Y-34194600D02*
X137055300Y-34194600D01*
X55240000Y-62720000D02*
X71385500Y-62720000D01*
X76656600Y-58016300D02*
X79404100Y-55268800D01*
%TD*%
M02*
