%TF.GenerationSoftware,KiCad,Pcbnew,10.0.6-10.0.6~ubuntu24.04.1*%
%TF.CreationDate,2026-09-12T06:35:36+00:00*%
%TF.ProjectId,z80_romless_sbc,7a38305f-726f-46d6-9c65-73735f736263,rev?*%
%TF.SameCoordinates,Original*%
%TF.FileFunction,Copper,L3,Inr*%
%TF.FilePolarity,Positive*%
%FSLAX46Y46*%
G04 Gerber Fmt 4.6, Leading zero omitted, Abs format (unit mm)*
G04 Created by KiCad (PCBNEW 10.0.6-10.0.6~ubuntu24.04.1) date 2026-09-12 06:35:36*
%MOMM*%
%LPD*%
G01*
G04 APERTURE LIST*
G04 Aperture macros list*
%AMRoundRect*
0 Rectangle with rounded corners*
0 $1 Rounding radius*
0 $2 $3 $4 $5 $6 $7 $8 $9 X,Y pos of 4 corners*
0 Add a 4 corners polygon primitive as box body*
4,1,4,$2,$3,$4,$5,$6,$7,$8,$9,$2,$3,0*
0 Add four circle primitives for the rounded corners*
1,1,$1+$1,$2,$3*
1,1,$1+$1,$4,$5*
1,1,$1+$1,$6,$7*
1,1,$1+$1,$8,$9*
0 Add four rect primitives between the rounded corners*
20,1,$1+$1,$2,$3,$4,$5,0*
20,1,$1+$1,$4,$5,$6,$7,0*
20,1,$1+$1,$6,$7,$8,$9,0*
20,1,$1+$1,$8,$9,$2,$3,0*%
%AMFreePoly0*
4,1,37,0.603843,0.796157,0.639018,0.796157,0.711114,0.766294,0.766294,0.711114,0.796157,0.639018,0.796157,0.603843,0.800000,0.600000,0.800000,-0.600000,0.796157,-0.603843,0.796157,-0.639018,0.766294,-0.711114,0.711114,-0.766294,0.639018,-0.796157,0.603843,-0.796157,0.600000,-0.800000,0.000000,-0.800000,0.000000,-0.796148,-0.078414,-0.796148,-0.232228,-0.765552,-0.377117,-0.705537,
-0.507515,-0.618408,-0.618408,-0.507515,-0.705537,-0.377117,-0.765552,-0.232228,-0.796148,-0.078414,-0.796148,0.078414,-0.765552,0.232228,-0.705537,0.377117,-0.618408,0.507515,-0.507515,0.618408,-0.377117,0.705537,-0.232228,0.765552,-0.078414,0.796148,0.000000,0.796148,0.000000,0.800000,0.600000,0.800000,0.603843,0.796157,0.603843,0.796157,$1*%
%AMFreePoly1*
4,1,37,0.000000,0.796148,0.078414,0.796148,0.232228,0.765552,0.377117,0.705537,0.507515,0.618408,0.618408,0.507515,0.705537,0.377117,0.765552,0.232228,0.796148,0.078414,0.796148,-0.078414,0.765552,-0.232228,0.705537,-0.377117,0.618408,-0.507515,0.507515,-0.618408,0.377117,-0.705537,0.232228,-0.765552,0.078414,-0.796148,0.000000,-0.796148,0.000000,-0.800000,-0.600000,-0.800000,
-0.603843,-0.796157,-0.639018,-0.796157,-0.711114,-0.766294,-0.766294,-0.711114,-0.796157,-0.639018,-0.796157,-0.603843,-0.800000,-0.600000,-0.800000,0.600000,-0.796157,0.603843,-0.796157,0.639018,-0.766294,0.711114,-0.711114,0.766294,-0.639018,0.796157,-0.603843,0.796157,-0.600000,0.800000,0.000000,0.800000,0.000000,0.796148,0.000000,0.796148,$1*%
G04 Aperture macros list end*
%TA.AperFunction,ComponentPad*%
%ADD10C,1.800000*%
%TD*%
%TA.AperFunction,ComponentPad*%
%ADD11RoundRect,0.250000X-0.550000X-0.550000X0.550000X-0.550000X0.550000X0.550000X-0.550000X0.550000X0*%
%TD*%
%TA.AperFunction,ComponentPad*%
%ADD12C,1.600000*%
%TD*%
%TA.AperFunction,ComponentPad*%
%ADD13RoundRect,0.250000X0.550000X-0.550000X0.550000X0.550000X-0.550000X0.550000X-0.550000X-0.550000X0*%
%TD*%
%TA.AperFunction,ComponentPad*%
%ADD14RoundRect,0.200000X0.600000X-0.600000X0.600000X0.600000X-0.600000X0.600000X-0.600000X-0.600000X0*%
%TD*%
%TA.AperFunction,ComponentPad*%
%ADD15FreePoly0,90.000000*%
%TD*%
%TA.AperFunction,ComponentPad*%
%ADD16FreePoly1,90.000000*%
%TD*%
%TA.AperFunction,ComponentPad*%
%ADD17RoundRect,0.250000X-0.750000X-0.750000X0.750000X-0.750000X0.750000X0.750000X-0.750000X0.750000X0*%
%TD*%
%TA.AperFunction,ComponentPad*%
%ADD18C,2.000000*%
%TD*%
%TA.AperFunction,ComponentPad*%
%ADD19R,1.600000X1.600000*%
%TD*%
%TA.AperFunction,ComponentPad*%
%ADD20RoundRect,0.249999X-1.250001X-1.250001X1.250001X-1.250001X1.250001X1.250001X-1.250001X1.250001X0*%
%TD*%
%TA.AperFunction,ComponentPad*%
%ADD21C,3.000000*%
%TD*%
%TA.AperFunction,ComponentPad*%
%ADD22R,1.050000X1.500000*%
%TD*%
%TA.AperFunction,ComponentPad*%
%ADD23O,1.050000X1.500000*%
%TD*%
%TA.AperFunction,ComponentPad*%
%ADD24RoundRect,0.249999X-0.850001X-0.850001X0.850001X-0.850001X0.850001X0.850001X-0.850001X0.850001X0*%
%TD*%
%TA.AperFunction,ComponentPad*%
%ADD25C,2.200000*%
%TD*%
%TA.AperFunction,ViaPad*%
%ADD26C,0.800000*%
%TD*%
%TA.AperFunction,Conductor*%
%ADD27C,0.600000*%
%TD*%
%TA.AperFunction,Conductor*%
%ADD28C,0.300000*%
%TD*%
G04 APERTURE END LIST*
D10*
%TO.N,GND*%
%TO.C,TP7*%
X95000000Y-10000000D03*
%TD*%
D11*
%TO.N,A11*%
%TO.C,U1*%
X40000000Y-17000000D03*
D12*
%TO.N,A12*%
X40000000Y-19540000D03*
%TO.N,A13*%
X40000000Y-22080000D03*
%TO.N,A14*%
X40000000Y-24620000D03*
%TO.N,A15*%
X40000000Y-27160000D03*
%TO.N,Z80_CLK*%
X40000000Y-29700000D03*
%TO.N,D4*%
X40000000Y-32240000D03*
%TO.N,D3*%
X40000000Y-34780000D03*
%TO.N,D5*%
X40000000Y-37320000D03*
%TO.N,D6*%
X40000000Y-39860000D03*
%TO.N,+5V*%
X40000000Y-42400000D03*
%TO.N,D2*%
X40000000Y-44940000D03*
%TO.N,D7*%
X40000000Y-47480000D03*
%TO.N,D0*%
X40000000Y-50020000D03*
%TO.N,D1*%
X40000000Y-52560000D03*
%TO.N,INT_N*%
X40000000Y-55100000D03*
%TO.N,NMI_N*%
X40000000Y-57640000D03*
%TO.N,N/C*%
X40000000Y-60180000D03*
%TO.N,MREQ_N*%
X40000000Y-62720000D03*
%TO.N,IORQ_N*%
X40000000Y-65260000D03*
%TO.N,RD_N*%
X55240000Y-65260000D03*
%TO.N,WR_N*%
X55240000Y-62720000D03*
%TO.N,BUSACK_N*%
X55240000Y-60180000D03*
%TO.N,WAIT_N*%
X55240000Y-57640000D03*
%TO.N,BUSREQ_N*%
X55240000Y-55100000D03*
%TO.N,RESET_N*%
X55240000Y-52560000D03*
%TO.N,M1_N*%
X55240000Y-50020000D03*
%TO.N,N/C*%
X55240000Y-47480000D03*
%TO.N,GND*%
X55240000Y-44940000D03*
%TO.N,A0*%
X55240000Y-42400000D03*
%TO.N,A1*%
X55240000Y-39860000D03*
%TO.N,A2*%
X55240000Y-37320000D03*
%TO.N,A3*%
X55240000Y-34780000D03*
%TO.N,A4*%
X55240000Y-32240000D03*
%TO.N,A5*%
X55240000Y-29700000D03*
%TO.N,A6*%
X55240000Y-27160000D03*
%TO.N,A7*%
X55240000Y-24620000D03*
%TO.N,A8*%
X55240000Y-22080000D03*
%TO.N,A9*%
X55240000Y-19540000D03*
%TO.N,A10*%
X55240000Y-17000000D03*
%TD*%
%TO.N,ADDR_ENABLE*%
%TO.C,R26*%
X84000000Y-105000000D03*
%TO.N,GND*%
X84000000Y-94840000D03*
%TD*%
D13*
%TO.N,GND*%
%TO.C,U4*%
X58000000Y-70000000D03*
D12*
%TO.N,PICO_CLK*%
X60540000Y-70000000D03*
%TO.N,SRAM_CE_N*%
X63080000Y-70000000D03*
%TO.N,PICO_BUSREQ_N*%
X65620000Y-70000000D03*
%TO.N,SRAM_OE_N*%
X68160000Y-70000000D03*
%TO.N,PICO_SPI_CS_N*%
X70700000Y-70000000D03*
%TO.N,SRAM_WE_N*%
X73240000Y-70000000D03*
%TO.N,PICO_SPI_SCK*%
X75780000Y-70000000D03*
%TO.N,MCP_SI*%
X78320000Y-70000000D03*
%TO.N,GND*%
X80860000Y-70000000D03*
%TO.N,PICO_SPI_MOSI*%
X80860000Y-62380000D03*
%TO.N,MCP_SCK*%
X78320000Y-62380000D03*
%TO.N,SRAM_WE_PRE_N*%
X75780000Y-62380000D03*
%TO.N,MCP_CS_N*%
X73240000Y-62380000D03*
%TO.N,SRAM_OE_PRE_N*%
X70700000Y-62380000D03*
%TO.N,BUSREQ_N*%
X68160000Y-62380000D03*
%TO.N,SRAM_CE_PRE_N*%
X65620000Y-62380000D03*
%TO.N,Z80_CLK*%
X63080000Y-62380000D03*
%TO.N,GND*%
X60540000Y-62380000D03*
%TO.N,+5V*%
X58000000Y-62380000D03*
%TD*%
D11*
%TO.N,+5V*%
%TO.C,U9*%
X105000000Y-55000000D03*
D12*
%TO.N,PICO_D0*%
X105000000Y-57540000D03*
%TO.N,PICO_D1*%
X105000000Y-60080000D03*
%TO.N,PICO_D2*%
X105000000Y-62620000D03*
%TO.N,PICO_D3*%
X105000000Y-65160000D03*
%TO.N,PICO_D4*%
X105000000Y-67700000D03*
%TO.N,PICO_D5*%
X105000000Y-70240000D03*
%TO.N,PICO_D6*%
X105000000Y-72780000D03*
%TO.N,PICO_D7*%
X105000000Y-75320000D03*
%TO.N,GND*%
X105000000Y-77860000D03*
%TO.N,D7*%
X112620000Y-77860000D03*
%TO.N,D6*%
X112620000Y-75320000D03*
%TO.N,D5*%
X112620000Y-72780000D03*
%TO.N,D4*%
X112620000Y-70240000D03*
%TO.N,D3*%
X112620000Y-67700000D03*
%TO.N,D2*%
X112620000Y-65160000D03*
%TO.N,D1*%
X112620000Y-62620000D03*
%TO.N,D0*%
X112620000Y-60080000D03*
%TO.N,DATA_UP_OE_N*%
X112620000Y-57540000D03*
%TO.N,+5V*%
X112620000Y-55000000D03*
%TD*%
%TO.N,+5V*%
%TO.C,C1*%
X34000000Y-42500000D03*
%TO.N,GND*%
X36500000Y-42500000D03*
%TD*%
D14*
%TO.N,PICO_BUSACK_N*%
%TO.C,A1*%
X7800000Y-134000000D03*
D12*
%TO.N,PICO_IORQ_N*%
X10340000Y-134000000D03*
D15*
%TO.N,GND*%
X12880000Y-134000000D03*
D12*
%TO.N,PICO_CLK*%
X15420000Y-134000000D03*
%TO.N,RESET_N*%
X17960000Y-134000000D03*
%TO.N,PICO_BUSREQ_N*%
X20500000Y-134000000D03*
%TO.N,PICO_CE_N*%
X23040000Y-134000000D03*
D15*
%TO.N,GND*%
X25580000Y-134000000D03*
D12*
%TO.N,DATA_DIR*%
X28120000Y-134000000D03*
%TO.N,DATA_ENABLE*%
X30660000Y-134000000D03*
%TO.N,N/C*%
X33200000Y-134000000D03*
%TO.N,ADDR_ENABLE*%
X35740000Y-134000000D03*
D15*
%TO.N,GND*%
X38280000Y-134000000D03*
D12*
%TO.N,PICO_D0*%
X40820000Y-134000000D03*
%TO.N,PICO_D1*%
X43360000Y-134000000D03*
%TO.N,PICO_D2*%
X45900000Y-134000000D03*
%TO.N,PICO_D3*%
X48440000Y-134000000D03*
D15*
%TO.N,GND*%
X50980000Y-134000000D03*
D12*
%TO.N,PICO_D4*%
X53520000Y-134000000D03*
%TO.N,PICO_D5*%
X56060000Y-134000000D03*
%TO.N,PICO_D6*%
X56060000Y-116220000D03*
%TO.N,PICO_D7*%
X53520000Y-116220000D03*
D16*
%TO.N,GND*%
X50980000Y-116220000D03*
D12*
%TO.N,PICO_SPI_SCK*%
X48440000Y-116220000D03*
%TO.N,PICO_SPI_MOSI*%
X45900000Y-116220000D03*
%TO.N,PICO_SPI_MISO*%
X43360000Y-116220000D03*
%TO.N,PICO_SPI_CS_N*%
X40820000Y-116220000D03*
D16*
%TO.N,GND*%
X38280000Y-116220000D03*
D12*
%TO.N,PICO_WE_N*%
X35740000Y-116220000D03*
%TO.N,N/C*%
X33200000Y-116220000D03*
%TO.N,PICO_OE_N*%
X30660000Y-116220000D03*
%TO.N,PICO_RD_N*%
X28120000Y-116220000D03*
D16*
%TO.N,GND*%
X25580000Y-116220000D03*
D12*
%TO.N,PICO_WR_N*%
X23040000Y-116220000D03*
%TO.N,N/C*%
X20500000Y-116220000D03*
%TO.N,+3V3*%
X17960000Y-116220000D03*
%TO.N,N/C*%
X15420000Y-116220000D03*
D16*
%TO.N,GND*%
X12880000Y-116220000D03*
D12*
%TO.N,VSYS*%
X10340000Y-116220000D03*
%TO.N,N/C*%
X7800000Y-116220000D03*
%TD*%
D10*
%TO.N,M1_N*%
%TO.C,TP1*%
X43000000Y-10000000D03*
%TD*%
%TO.N,BUSREQ_N*%
%TO.C,TP5*%
X81000000Y-10000000D03*
%TD*%
D17*
%TO.N,+5V*%
%TO.C,C12*%
X27000000Y-12000000D03*
D18*
%TO.N,GND*%
X32000000Y-12000000D03*
%TD*%
D12*
%TO.N,MCP_RESET_BASE*%
%TO.C,R30*%
X118000000Y-135000000D03*
%TO.N,GND*%
X118000000Y-124840000D03*
%TD*%
D10*
%TO.N,Z80_CLK*%
%TO.C,TP2*%
X85000000Y-68000000D03*
%TD*%
D11*
%TO.N,RESET_N*%
%TO.C,U3*%
X94000000Y-22000000D03*
D12*
%TO.N,BUSACK_N*%
X94000000Y-24540000D03*
%TO.N,PICO_WE_N*%
X94000000Y-27080000D03*
%TO.N,WR_N*%
X94000000Y-29620000D03*
%TO.N,PICO_OE_N*%
X94000000Y-32160000D03*
%TO.N,RD_N*%
X94000000Y-34700000D03*
%TO.N,PICO_CE_N*%
X94000000Y-37240000D03*
%TO.N,MREQ_N*%
X94000000Y-39780000D03*
%TO.N,DATA_ENABLE*%
X94000000Y-42320000D03*
%TO.N,ADDR_ENABLE*%
X94000000Y-44860000D03*
%TO.N,DATA_DIR*%
X94000000Y-47400000D03*
%TO.N,GND*%
X94000000Y-49940000D03*
%TO.N,IORQ_N*%
X101620000Y-49940000D03*
%TO.N,SRAM_WE_PRE_N*%
X101620000Y-47400000D03*
%TO.N,SRAM_OE_PRE_N*%
X101620000Y-44860000D03*
%TO.N,SRAM_CE_PRE_N*%
X101620000Y-42320000D03*
%TO.N,DATA_UP_OE_N*%
X101620000Y-39780000D03*
%TO.N,DATA_DOWN_OE_N*%
X101620000Y-37240000D03*
%TO.N,MCP_RESET_DRIVE*%
X101620000Y-34700000D03*
%TO.N,WAIT_N*%
X101620000Y-32160000D03*
%TO.N,N/C*%
X101620000Y-29620000D03*
X101620000Y-27080000D03*
X101620000Y-24540000D03*
%TO.N,+5V*%
X101620000Y-22000000D03*
%TD*%
%TO.N,PICO_SPI_CS_N*%
%TO.C,R19*%
X123000000Y-94000000D03*
%TO.N,+3V3*%
X123000000Y-83840000D03*
%TD*%
%TO.N,+3V3*%
%TO.C,C8*%
X134200000Y-55000000D03*
%TO.N,GND*%
X134200000Y-52500000D03*
%TD*%
%TO.N,PICO_WE_N*%
%TO.C,R20*%
X132000000Y-94000000D03*
%TO.N,+3V3*%
X132000000Y-83840000D03*
%TD*%
D11*
%TO.N,N/C*%
%TO.C,U2*%
X10000000Y-22000000D03*
D12*
%TO.N,GND*%
X10000000Y-24540000D03*
%TO.N,A14*%
X10000000Y-27080000D03*
%TO.N,A12*%
X10000000Y-29620000D03*
%TO.N,A7*%
X10000000Y-32160000D03*
%TO.N,A6*%
X10000000Y-34700000D03*
%TO.N,A5*%
X10000000Y-37240000D03*
%TO.N,A4*%
X10000000Y-39780000D03*
%TO.N,A3*%
X10000000Y-42320000D03*
%TO.N,A2*%
X10000000Y-44860000D03*
%TO.N,A1*%
X10000000Y-47400000D03*
%TO.N,A0*%
X10000000Y-49940000D03*
%TO.N,D0*%
X10000000Y-52480000D03*
%TO.N,D1*%
X10000000Y-55020000D03*
%TO.N,D2*%
X10000000Y-57560000D03*
%TO.N,GND*%
X10000000Y-60100000D03*
%TO.N,D3*%
X25240000Y-60100000D03*
%TO.N,D4*%
X25240000Y-57560000D03*
%TO.N,D5*%
X25240000Y-55020000D03*
%TO.N,D6*%
X25240000Y-52480000D03*
%TO.N,D7*%
X25240000Y-49940000D03*
%TO.N,SRAM_CE_N*%
X25240000Y-47400000D03*
%TO.N,A10*%
X25240000Y-44860000D03*
%TO.N,SRAM_OE_N*%
X25240000Y-42320000D03*
%TO.N,A11*%
X25240000Y-39780000D03*
%TO.N,A9*%
X25240000Y-37240000D03*
%TO.N,A8*%
X25240000Y-34700000D03*
%TO.N,A13*%
X25240000Y-32160000D03*
%TO.N,SRAM_WE_N*%
X25240000Y-29620000D03*
%TO.N,+5V*%
X25240000Y-27080000D03*
%TO.N,A15*%
X25240000Y-24540000D03*
%TO.N,+5V*%
X25240000Y-22000000D03*
%TD*%
D19*
%TO.N,+5V*%
%TO.C,RN4*%
X30000000Y-90000000D03*
D12*
%TO.N,BUSREQ_N*%
X32540000Y-90000000D03*
%TO.N,BUSACK_N*%
X35080000Y-90000000D03*
%TO.N,MREQ_N*%
X37620000Y-90000000D03*
%TO.N,IORQ_N*%
X40160000Y-90000000D03*
%TO.N,RD_N*%
X42700000Y-90000000D03*
%TO.N,WR_N*%
X45240000Y-90000000D03*
%TO.N,INT_N*%
X47780000Y-90000000D03*
%TO.N,NMI_N*%
X50320000Y-90000000D03*
%TD*%
%TO.N,RESET_N*%
%TO.C,R23*%
X110000000Y-115000000D03*
%TO.N,GND*%
X110000000Y-104840000D03*
%TD*%
%TO.N,+5V*%
%TO.C,C3*%
X105000000Y-30000000D03*
%TO.N,GND*%
X107500000Y-30000000D03*
%TD*%
%TO.N,PICO_CE_N*%
%TO.C,R18*%
X114000000Y-94000000D03*
%TO.N,+3V3*%
X114000000Y-83840000D03*
%TD*%
%TO.N,MCP_RESET_N*%
%TO.C,R31*%
X126000000Y-135000000D03*
%TO.N,+5V*%
X126000000Y-124840000D03*
%TD*%
D20*
%TO.N,+5V*%
%TO.C,J1*%
X16000000Y-13000000D03*
D21*
%TO.N,GND*%
X21000000Y-13000000D03*
%TD*%
D12*
%TO.N,+3V3*%
%TO.C,C5*%
X155000000Y-55000000D03*
%TO.N,GND*%
X155000000Y-52500000D03*
%TD*%
%TO.N,PICO_OE_N*%
%TO.C,R21*%
X141000000Y-94000000D03*
%TO.N,+3V3*%
X141000000Y-83840000D03*
%TD*%
D22*
%TO.N,GND*%
%TO.C,Q1*%
X86000000Y-62000000D03*
D23*
%TO.N,MCP_RESET_BASE*%
X87270000Y-62000000D03*
%TO.N,MCP_RESET_N*%
X88540000Y-62000000D03*
%TD*%
D10*
%TO.N,WAIT_N*%
%TO.C,TP4*%
X74000000Y-10000000D03*
%TD*%
D11*
%TO.N,GND*%
%TO.C,U10*%
X124000000Y-55000000D03*
D12*
%TO.N,PICO_D0*%
X124000000Y-57540000D03*
%TO.N,PICO_D1*%
X124000000Y-60080000D03*
%TO.N,PICO_D2*%
X124000000Y-62620000D03*
%TO.N,PICO_D3*%
X124000000Y-65160000D03*
%TO.N,PICO_D4*%
X124000000Y-67700000D03*
%TO.N,PICO_D5*%
X124000000Y-70240000D03*
%TO.N,PICO_D6*%
X124000000Y-72780000D03*
%TO.N,PICO_D7*%
X124000000Y-75320000D03*
%TO.N,GND*%
X124000000Y-77860000D03*
%TO.N,D7*%
X131620000Y-77860000D03*
%TO.N,D6*%
X131620000Y-75320000D03*
%TO.N,D5*%
X131620000Y-72780000D03*
%TO.N,D4*%
X131620000Y-70240000D03*
%TO.N,D3*%
X131620000Y-67700000D03*
%TO.N,D2*%
X131620000Y-65160000D03*
%TO.N,D1*%
X131620000Y-62620000D03*
%TO.N,D0*%
X131620000Y-60080000D03*
%TO.N,DATA_DOWN_OE_N*%
X131620000Y-57540000D03*
%TO.N,+3V3*%
X131620000Y-55000000D03*
%TD*%
D11*
%TO.N,GND*%
%TO.C,U7*%
X143000000Y-55000000D03*
D12*
%TO.N,BUSACK_N*%
X143000000Y-57540000D03*
%TO.N,N/C*%
X143000000Y-60080000D03*
%TO.N,IORQ_N*%
X143000000Y-62620000D03*
%TO.N,N/C*%
X143000000Y-65160000D03*
%TO.N,RD_N*%
X143000000Y-67700000D03*
%TO.N,N/C*%
X143000000Y-70240000D03*
%TO.N,WR_N*%
X143000000Y-72780000D03*
%TO.N,PICO_SPI_MISO*%
X143000000Y-75320000D03*
%TO.N,GND*%
X143000000Y-77860000D03*
%TO.N,MCP_SO*%
X150620000Y-77860000D03*
%TO.N,PICO_WR_N*%
X150620000Y-75320000D03*
%TO.N,GND*%
X150620000Y-72780000D03*
%TO.N,PICO_RD_N*%
X150620000Y-70240000D03*
%TO.N,GND*%
X150620000Y-67700000D03*
%TO.N,PICO_IORQ_N*%
X150620000Y-65160000D03*
%TO.N,GND*%
X150620000Y-62620000D03*
%TO.N,PICO_BUSACK_N*%
X150620000Y-60080000D03*
%TO.N,GND*%
X150620000Y-57540000D03*
%TO.N,+3V3*%
X150620000Y-55000000D03*
%TD*%
D10*
%TO.N,BUSACK_N*%
%TO.C,TP6*%
X88000000Y-10000000D03*
%TD*%
D11*
%TO.N,A8*%
%TO.C,U8*%
X78000000Y-22000000D03*
D12*
%TO.N,A9*%
X78000000Y-24540000D03*
%TO.N,A10*%
X78000000Y-27080000D03*
%TO.N,A11*%
X78000000Y-29620000D03*
%TO.N,A12*%
X78000000Y-32160000D03*
%TO.N,A13*%
X78000000Y-34700000D03*
%TO.N,A14*%
X78000000Y-37240000D03*
%TO.N,A15*%
X78000000Y-39780000D03*
%TO.N,+5V*%
X78000000Y-42320000D03*
%TO.N,GND*%
X78000000Y-44860000D03*
%TO.N,MCP_CS_N*%
X78000000Y-47400000D03*
%TO.N,MCP_SCK*%
X78000000Y-49940000D03*
%TO.N,MCP_SI*%
X78000000Y-52480000D03*
%TO.N,MCP_SO*%
X78000000Y-55020000D03*
%TO.N,GND*%
X85620000Y-55020000D03*
X85620000Y-52480000D03*
X85620000Y-49940000D03*
%TO.N,MCP_RESET_N*%
X85620000Y-47400000D03*
%TO.N,N/C*%
X85620000Y-44860000D03*
X85620000Y-42320000D03*
%TO.N,A0*%
X85620000Y-39780000D03*
%TO.N,A1*%
X85620000Y-37240000D03*
%TO.N,A2*%
X85620000Y-34700000D03*
%TO.N,A3*%
X85620000Y-32160000D03*
%TO.N,A4*%
X85620000Y-29620000D03*
%TO.N,A5*%
X85620000Y-27080000D03*
%TO.N,A6*%
X85620000Y-24540000D03*
%TO.N,A7*%
X85620000Y-22000000D03*
%TD*%
%TO.N,PICO_SPI_SCK*%
%TO.C,R27*%
X142000000Y-115000000D03*
%TO.N,GND*%
X142000000Y-104840000D03*
%TD*%
D19*
%TO.N,GND*%
%TO.C,RN3*%
X82000000Y-137000000D03*
D12*
%TO.N,PICO_D0*%
X84540000Y-137000000D03*
%TO.N,PICO_D1*%
X87080000Y-137000000D03*
%TO.N,PICO_D2*%
X89620000Y-137000000D03*
%TO.N,PICO_D3*%
X92160000Y-137000000D03*
%TO.N,PICO_D4*%
X94700000Y-137000000D03*
%TO.N,PICO_D5*%
X97240000Y-137000000D03*
%TO.N,PICO_D6*%
X99780000Y-137000000D03*
%TO.N,PICO_D7*%
X102320000Y-137000000D03*
%TD*%
D19*
%TO.N,+5V*%
%TO.C,RN2*%
X34000000Y-72000000D03*
D12*
%TO.N,A8*%
X36540000Y-72000000D03*
%TO.N,A9*%
X39080000Y-72000000D03*
%TO.N,A10*%
X41620000Y-72000000D03*
%TO.N,A11*%
X44160000Y-72000000D03*
%TO.N,A12*%
X46700000Y-72000000D03*
%TO.N,A13*%
X49240000Y-72000000D03*
%TO.N,A14*%
X51780000Y-72000000D03*
%TO.N,A15*%
X54320000Y-72000000D03*
%TD*%
%TO.N,DATA_DIR*%
%TO.C,R25*%
X76000000Y-105000000D03*
%TO.N,GND*%
X76000000Y-94840000D03*
%TD*%
D11*
%TO.N,+5V*%
%TO.C,C10*%
X96000000Y-82000000D03*
D12*
%TO.N,GND*%
X99500000Y-82000000D03*
%TD*%
%TO.N,+5V*%
%TO.C,C2*%
X28000000Y-22000000D03*
%TO.N,GND*%
X30500000Y-22000000D03*
%TD*%
%TO.N,+5V*%
%TO.C,C6*%
X71000000Y-43000000D03*
%TO.N,GND*%
X73500000Y-43000000D03*
%TD*%
D19*
%TO.N,+5V*%
%TO.C,RN1*%
X8000000Y-67000000D03*
D12*
%TO.N,A0*%
X10540000Y-67000000D03*
%TO.N,A1*%
X13080000Y-67000000D03*
%TO.N,A2*%
X15620000Y-67000000D03*
%TO.N,A3*%
X18160000Y-67000000D03*
%TO.N,A4*%
X20700000Y-67000000D03*
%TO.N,A5*%
X23240000Y-67000000D03*
%TO.N,A6*%
X25780000Y-67000000D03*
%TO.N,A7*%
X28320000Y-67000000D03*
%TD*%
D11*
%TO.N,+5V*%
%TO.C,C11*%
X158000000Y-82000000D03*
D12*
%TO.N,GND*%
X161500000Y-82000000D03*
%TD*%
%TO.N,DATA_ENABLE*%
%TO.C,R24*%
X68000000Y-105000000D03*
%TO.N,GND*%
X68000000Y-94840000D03*
%TD*%
%TO.N,+5V*%
%TO.C,C7*%
X115200000Y-55000000D03*
%TO.N,GND*%
X115200000Y-52500000D03*
%TD*%
%TO.N,PICO_BUSREQ_N*%
%TO.C,R17*%
X105000000Y-94000000D03*
%TO.N,+3V3*%
X105000000Y-83840000D03*
%TD*%
D11*
%TO.N,+5V*%
%TO.C,C9*%
X32000000Y-61000000D03*
D12*
%TO.N,GND*%
X35500000Y-61000000D03*
%TD*%
%TO.N,MCP_RESET_DRIVE*%
%TO.C,R29*%
X110000000Y-135000000D03*
%TO.N,MCP_RESET_BASE*%
X110000000Y-124840000D03*
%TD*%
%TO.N,PICO_SPI_MOSI*%
%TO.C,R28*%
X150000000Y-115000000D03*
%TO.N,GND*%
X150000000Y-104840000D03*
%TD*%
D19*
%TO.N,+5V*%
%TO.C,RN5*%
X72000000Y-90000000D03*
D12*
%TO.N,MCP_SO*%
X74540000Y-90000000D03*
%TO.N,SRAM_CE_N*%
X77080000Y-90000000D03*
%TO.N,SRAM_OE_N*%
X79620000Y-90000000D03*
%TO.N,SRAM_WE_N*%
X82160000Y-90000000D03*
%TO.N,WAIT_N*%
X84700000Y-90000000D03*
%TO.N,SRAM_WE_PRE_N*%
X87240000Y-90000000D03*
%TO.N,SRAM_OE_PRE_N*%
X89780000Y-90000000D03*
%TO.N,SRAM_CE_PRE_N*%
X92320000Y-90000000D03*
%TD*%
%TO.N,+5V*%
%TO.C,C4*%
X58000000Y-59000000D03*
%TO.N,GND*%
X60500000Y-59000000D03*
%TD*%
%TO.N,PICO_CLK*%
%TO.C,R22*%
X60000000Y-105000000D03*
%TO.N,GND*%
X60000000Y-94840000D03*
%TD*%
D10*
%TO.N,RESET_N*%
%TO.C,TP3*%
X50000000Y-10000000D03*
%TD*%
D24*
%TO.N,VSYS*%
%TO.C,D1*%
X15000000Y-105000000D03*
D25*
%TO.N,+5V*%
X25160000Y-105000000D03*
%TD*%
D26*
%TO.N,A0*%
X47215000Y-42023700D03*
%TO.N,A1*%
X47217200Y-38416900D03*
%TO.N,A10*%
X30083200Y-32592600D03*
X30780400Y-58809900D03*
%TO.N,A11*%
X31387500Y-55694600D03*
X74923800Y-25116100D03*
X36810600Y-35451700D03*
%TO.N,A12*%
X75482700Y-30011200D03*
%TO.N,A14*%
X50302300Y-34722700D03*
%TO.N,A15*%
X53159800Y-40247100D03*
X49238900Y-29686000D03*
%TO.N,A2*%
X15681800Y-44860000D03*
X39162900Y-38500000D03*
%TO.N,A4*%
X48158400Y-30756200D03*
X38409700Y-28689400D03*
%TO.N,A6*%
X30267200Y-24581000D03*
%TO.N,A7*%
X27155000Y-24565400D03*
%TO.N,A8*%
X33446800Y-33252900D03*
%TO.N,A9*%
X30760600Y-63680600D03*
%TO.N,BUSACK_N*%
X50510000Y-77255100D03*
X97826500Y-25632600D03*
%TO.N,BUSREQ_N*%
X49338400Y-70507000D03*
%TO.N,D0*%
X57670800Y-53770000D03*
%TO.N,D1*%
X59184600Y-64412100D03*
X47193200Y-61583200D03*
%TO.N,D2*%
X50779600Y-50133500D03*
%TO.N,D3*%
X26835800Y-50162500D03*
X66638200Y-65650600D03*
X38993700Y-46012300D03*
X66037000Y-60830600D03*
X53289700Y-55080300D03*
%TO.N,D5*%
X99980400Y-76761600D03*
X29228400Y-75957100D03*
%TO.N,D6*%
X80929500Y-47906000D03*
X82758700Y-68812300D03*
X53049700Y-42952600D03*
%TO.N,D7*%
X50277900Y-53066900D03*
%TO.N,DATA_DIR*%
X55618500Y-107012200D03*
%TO.N,DATA_ENABLE*%
X88627900Y-102337600D03*
%TO.N,GND*%
X39256600Y-43657100D03*
X117388700Y-77370600D03*
%TO.N,IORQ_N*%
X63926500Y-56177700D03*
%TO.N,MCP_RESET_BASE*%
X86989200Y-67435800D03*
X108675500Y-75911400D03*
%TO.N,MCP_RESET_DRIVE*%
X120761900Y-118229200D03*
X110304500Y-52051800D03*
%TO.N,MCP_RESET_N*%
X106405800Y-67466800D03*
%TO.N,MCP_SO*%
X69529800Y-56610000D03*
X72177600Y-88405100D03*
X74540000Y-95611600D03*
%TO.N,PICO_BUSREQ_N*%
X65840200Y-92645900D03*
X31718900Y-107755000D03*
%TO.N,PICO_CE_N*%
X29390000Y-110437900D03*
%TO.N,PICO_D1*%
X53639000Y-136214500D03*
%TO.N,PICO_D3*%
X65509600Y-137781800D03*
%TO.N,PICO_D5*%
X117430500Y-70240000D03*
%TO.N,PICO_D7*%
X106824500Y-114567000D03*
%TO.N,PICO_OE_N*%
X94768000Y-100475500D03*
X47059100Y-114068600D03*
%TO.N,PICO_RD_N*%
X134250300Y-92788100D03*
%TO.N,PICO_SPI_CS_N*%
X70196600Y-92583500D03*
%TO.N,PICO_SPI_MOSI*%
X145745500Y-112443600D03*
X93254500Y-63184800D03*
X88647000Y-101255500D03*
%TO.N,PICO_SPI_SCK*%
X73279500Y-113964900D03*
%TO.N,PICO_WR_N*%
X43776400Y-112066900D03*
X141249900Y-76471700D03*
%TO.N,RD_N*%
X56777200Y-77253500D03*
%TO.N,RESET_N*%
X92106800Y-96462200D03*
X92027300Y-62695800D03*
X57871800Y-17503800D03*
%TO.N,SRAM_CE_N*%
X53928000Y-69699000D03*
%TO.N,SRAM_OE_PRE_N*%
X83706100Y-82906100D03*
%TO.N,SRAM_WE_N*%
X55974300Y-70675800D03*
X74337200Y-72422300D03*
X26966900Y-64116400D03*
%TO.N,WAIT_N*%
X76300100Y-33592200D03*
X64468300Y-61486200D03*
%TO.N,WR_N*%
X139538200Y-62679600D03*
%TO.N,Z80_CLK*%
X63080000Y-67184100D03*
%TD*%
%TO.N,+3V3*%
D27*
X116709000Y-91419900D02*
X71017700Y-91419900D01*
X67692000Y-91240900D02*
X67513000Y-91419900D01*
X66421500Y-91242400D02*
X52531500Y-91242400D01*
X51552300Y-92221600D02*
X41958400Y-92221600D01*
X69062600Y-91240900D02*
X67692000Y-91240900D01*
X69375600Y-91419900D02*
X69241600Y-91419900D01*
X123000000Y-85128900D02*
X116709000Y-91419900D01*
X70777800Y-91180000D02*
X69615500Y-91180000D01*
X123000000Y-83840000D02*
X123000000Y-85128900D01*
X105000000Y-83840000D02*
X114000000Y-83840000D01*
X69241600Y-91419900D02*
X69062600Y-91240900D01*
X41958400Y-92221600D02*
X17960000Y-116220000D01*
X131620000Y-55000000D02*
X134200000Y-55000000D01*
X71017700Y-91419900D02*
X70777800Y-91180000D01*
X69615500Y-91180000D02*
X69375600Y-91419900D01*
X67513000Y-91419900D02*
X66599000Y-91419900D01*
X52531500Y-91242400D02*
X51552300Y-92221600D01*
X66599000Y-91419900D02*
X66421500Y-91242400D01*
%TO.N,+5V*%
X96000000Y-82000000D02*
X80000000Y-82000000D01*
X38858300Y-91301700D02*
X50938200Y-91301700D01*
X52239900Y-90000000D02*
X72000000Y-90000000D01*
X158000000Y-101464300D02*
X158000000Y-82000000D01*
X67427100Y-63745500D02*
X65849400Y-63745500D01*
X50938200Y-91301700D02*
X52239900Y-90000000D01*
X71000000Y-43000000D02*
X72377400Y-41622600D01*
X60146900Y-64099200D02*
X58427700Y-62380000D01*
X105000000Y-25380000D02*
X101620000Y-22000000D01*
X35339800Y-41160200D02*
X38760200Y-41160200D01*
X77302600Y-41622600D02*
X78000000Y-42320000D01*
X95900800Y-64099200D02*
X67780800Y-64099200D01*
X18022300Y-10977700D02*
X16000000Y-13000000D01*
X58427700Y-62380000D02*
X58000000Y-62380000D01*
X38760200Y-41160200D02*
X40000000Y-42400000D01*
X25977700Y-10977700D02*
X18022300Y-10977700D01*
X65849400Y-63745500D02*
X65495700Y-64099200D01*
X115200000Y-55000000D02*
X112620000Y-55000000D01*
X25160000Y-105000000D02*
X38858300Y-91301700D01*
X65495700Y-64099200D02*
X60146900Y-64099200D01*
X28000000Y-22000000D02*
X25240000Y-22000000D01*
X80000000Y-82000000D02*
X72000000Y-90000000D01*
X67780800Y-64099200D02*
X67427100Y-63745500D01*
X34000000Y-42500000D02*
X35339800Y-41160200D01*
X27000000Y-12000000D02*
X25977700Y-10977700D01*
X105000000Y-55000000D02*
X95900800Y-64099200D01*
X72377400Y-41622600D02*
X77302600Y-41622600D01*
X105000000Y-30000000D02*
X105000000Y-25380000D01*
X134624300Y-124840000D02*
X158000000Y-101464300D01*
X126000000Y-124840000D02*
X134624300Y-124840000D01*
%TO.N,A0*%
D28*
X10000000Y-49478900D02*
X10000000Y-49940000D01*
X55949300Y-42400000D02*
X57416100Y-40933200D01*
X32215300Y-41110000D02*
X18368900Y-41110000D01*
X41314700Y-36123400D02*
X37201900Y-36123400D01*
X57416100Y-40933200D02*
X84466800Y-40933200D01*
X55240000Y-42400000D02*
X55949300Y-42400000D01*
X18368900Y-41110000D02*
X10000000Y-49478900D01*
X84466800Y-40933200D02*
X85620000Y-39780000D01*
X47215000Y-42023700D02*
X41314700Y-36123400D01*
X37201900Y-36123400D02*
X32215300Y-41110000D01*
%TO.N,A1*%
X36777200Y-33586700D02*
X42387000Y-33586700D01*
X55240000Y-39860000D02*
X55949300Y-39860000D01*
X55949300Y-39860000D02*
X57237800Y-38571500D01*
X42387000Y-33586700D02*
X47217200Y-38416900D01*
X57237800Y-38571500D02*
X84288500Y-38571500D01*
X84288500Y-38571500D02*
X85620000Y-37240000D01*
X31853900Y-38510000D02*
X36777200Y-33586700D01*
X10000000Y-47400000D02*
X18890000Y-38510000D01*
X18890000Y-38510000D02*
X31853900Y-38510000D01*
%TO.N,A10*%
X31796700Y-58809900D02*
X30780400Y-58809900D01*
X79670800Y-21699800D02*
X76360800Y-18389800D01*
X56629800Y-18389800D02*
X55240000Y-17000000D01*
X76360800Y-18389800D02*
X56629800Y-18389800D01*
X33911700Y-60924900D02*
X31796700Y-58809900D01*
X78000000Y-27080000D02*
X79670800Y-25409200D01*
X33911700Y-64291700D02*
X33911700Y-60924900D01*
X41620000Y-72000000D02*
X33911700Y-64291700D01*
X79670800Y-25409200D02*
X79670800Y-21699800D01*
%TO.N,A11*%
X40384200Y-61450000D02*
X39308100Y-61450000D01*
X39308100Y-61450000D02*
X33552700Y-55694600D01*
X53345200Y-20810000D02*
X49535200Y-17000000D01*
X33552700Y-55694600D02*
X31387500Y-55694600D01*
X44160000Y-65225800D02*
X40384200Y-61450000D01*
X70617700Y-20810000D02*
X53345200Y-20810000D01*
X32482300Y-39780000D02*
X36810600Y-35451700D01*
X44160000Y-72000000D02*
X44160000Y-65225800D01*
X25240000Y-39780000D02*
X32482300Y-39780000D01*
X74923800Y-25116100D02*
X70617700Y-20810000D01*
X49535200Y-17000000D02*
X40000000Y-17000000D01*
%TO.N,A12*%
X53670000Y-25890000D02*
X55699600Y-25890000D01*
X47320000Y-19540000D02*
X53670000Y-25890000D01*
X59820800Y-30011200D02*
X75482700Y-30011200D01*
X55699600Y-25890000D02*
X59820800Y-30011200D01*
X40000000Y-19540000D02*
X47320000Y-19540000D01*
%TO.N,A13*%
X43148800Y-22080000D02*
X40000000Y-22080000D01*
X62072600Y-34700000D02*
X55684300Y-28311700D01*
X78000000Y-34700000D02*
X62072600Y-34700000D01*
X49380500Y-28311700D02*
X43148800Y-22080000D01*
X55684300Y-28311700D02*
X49380500Y-28311700D01*
%TO.N,A14*%
X40000000Y-24620000D02*
X38768800Y-25851200D01*
X49024400Y-67556800D02*
X49024400Y-43215700D01*
X57506400Y-37240000D02*
X56260300Y-38486100D01*
X53754000Y-38174400D02*
X53754000Y-38486100D01*
X51780000Y-70312400D02*
X49024400Y-67556800D01*
X56260300Y-38486100D02*
X53754000Y-38486100D01*
X51780000Y-72000000D02*
X51780000Y-70312400D01*
X49024400Y-43215700D02*
X53754000Y-38486100D01*
X50302300Y-34722700D02*
X53754000Y-38174400D01*
X38768800Y-25851200D02*
X11228800Y-25851200D01*
X11228800Y-25851200D02*
X10000000Y-27080000D01*
X78000000Y-37240000D02*
X57506400Y-37240000D01*
%TO.N,A15*%
X46712900Y-27160000D02*
X49238900Y-29686000D01*
X49526100Y-67206100D02*
X54320000Y-72000000D01*
X53809400Y-41013300D02*
X49526100Y-45296600D01*
X37287300Y-25332700D02*
X39181600Y-23438400D01*
X56273100Y-41013300D02*
X53809400Y-41013300D01*
X49526100Y-45296600D02*
X49526100Y-67206100D01*
X78000000Y-39780000D02*
X57506400Y-39780000D01*
X53159800Y-40247100D02*
X53809400Y-40896700D01*
X57506400Y-39780000D02*
X56273100Y-41013300D01*
X26032700Y-25332700D02*
X37287300Y-25332700D01*
X41172600Y-25987400D02*
X40000000Y-27160000D01*
X25240000Y-24540000D02*
X26032700Y-25332700D01*
X40000000Y-27160000D02*
X46712900Y-27160000D01*
X53809400Y-40896700D02*
X53809400Y-41013300D01*
X40498000Y-23438400D02*
X41172600Y-24113000D01*
X41172600Y-24113000D02*
X41172600Y-25987400D01*
X39181600Y-23438400D02*
X40498000Y-23438400D01*
%TO.N,A2*%
X12059600Y-63836800D02*
X8315900Y-60093100D01*
X15681800Y-44860000D02*
X16951800Y-43590000D01*
X12456800Y-63836800D02*
X12059600Y-63836800D01*
X8315900Y-60093100D02*
X8315900Y-46544100D01*
X56661700Y-35898300D02*
X84421700Y-35898300D01*
X8315900Y-46544100D02*
X10000000Y-44860000D01*
X84421700Y-35898300D02*
X85620000Y-34700000D01*
X55240000Y-37320000D02*
X56661700Y-35898300D01*
X36056400Y-38500000D02*
X39162900Y-38500000D01*
X16951800Y-43590000D02*
X30966400Y-43590000D01*
X15620000Y-67000000D02*
X12456800Y-63836800D01*
X30966400Y-43590000D02*
X36056400Y-38500000D01*
%TO.N,A3*%
X38074300Y-31070100D02*
X47409400Y-31070100D01*
X47847200Y-31507900D02*
X51967900Y-31507900D01*
X51967900Y-31507900D02*
X55240000Y-34780000D01*
X10000000Y-42320000D02*
X16352700Y-35967300D01*
X33177100Y-35967300D02*
X38074300Y-31070100D01*
X47409400Y-31070100D02*
X47847200Y-31507900D01*
X16352700Y-35967300D02*
X33177100Y-35967300D01*
%TO.N,A4*%
X32563700Y-32399300D02*
X31533000Y-33430000D01*
X16350000Y-33430000D02*
X10000000Y-39780000D01*
X34699800Y-32399300D02*
X32563700Y-32399300D01*
X31533000Y-33430000D02*
X16350000Y-33430000D01*
X38409700Y-28689400D02*
X34699800Y-32399300D01*
%TO.N,A5*%
X39095000Y-28311700D02*
X38721000Y-27937700D01*
X48907600Y-30442400D02*
X46776900Y-28311700D01*
X54497600Y-30442400D02*
X48907600Y-30442400D01*
X37724500Y-28311700D02*
X18928300Y-28311700D01*
X38098500Y-27937700D02*
X37724500Y-28311700D01*
X18928300Y-28311700D02*
X10000000Y-37240000D01*
X55240000Y-29700000D02*
X54497600Y-30442400D01*
X38721000Y-27937700D02*
X38098500Y-27937700D01*
X46776900Y-28311700D02*
X39095000Y-28311700D01*
%TO.N,A6*%
X30267200Y-24581000D02*
X33585600Y-24581000D01*
X85620000Y-24540000D02*
X79379200Y-30780800D01*
X52251500Y-27160000D02*
X55240000Y-27160000D01*
X55970800Y-27160000D02*
X55240000Y-27160000D01*
X37250500Y-20916100D02*
X46007600Y-20916100D01*
X79379200Y-30780800D02*
X59591600Y-30780800D01*
X59591600Y-30780800D02*
X55970800Y-27160000D01*
X33585600Y-24581000D02*
X37250500Y-20916100D01*
X46007600Y-20916100D02*
X52251500Y-27160000D01*
%TO.N,A7*%
X79373700Y-28246300D02*
X58866300Y-28246300D01*
X29197600Y-24565400D02*
X27155000Y-24565400D01*
X31259800Y-23703500D02*
X30059500Y-23703500D01*
X58866300Y-28246300D02*
X55240000Y-24620000D01*
X48989300Y-18369300D02*
X36594000Y-18369300D01*
X85620000Y-22000000D02*
X79373700Y-28246300D01*
X55240000Y-24620000D02*
X48989300Y-18369300D01*
X36594000Y-18369300D02*
X31259800Y-23703500D01*
X30059500Y-23703500D02*
X29197600Y-24565400D01*
%TO.N,A8*%
X59027800Y-25867800D02*
X78318900Y-25867800D01*
X78318900Y-25867800D02*
X79163800Y-25022900D01*
X79163800Y-23163800D02*
X78000000Y-22000000D01*
X79163800Y-25022900D02*
X79163800Y-23163800D01*
X55240000Y-22080000D02*
X59027800Y-25867800D01*
%TO.N,A9*%
X73000000Y-19540000D02*
X78000000Y-24540000D01*
X39080000Y-72000000D02*
X30760600Y-63680600D01*
X55240000Y-19540000D02*
X73000000Y-19540000D01*
%TO.N,ADDR_ENABLE*%
X47170000Y-115796900D02*
X55203000Y-107763900D01*
X47170000Y-122570000D02*
X47170000Y-115796900D01*
X55203000Y-107763900D02*
X81236100Y-107763900D01*
X81236100Y-107763900D02*
X84000000Y-105000000D01*
X35740000Y-134000000D02*
X47170000Y-122570000D01*
%TO.N,BUSACK_N*%
X47824900Y-77255100D02*
X50510000Y-77255100D01*
X138449600Y-57540000D02*
X134754600Y-53845000D01*
X132394500Y-53845000D02*
X109701200Y-31151700D01*
X100406900Y-28213000D02*
X97826500Y-25632600D01*
X109701200Y-31151700D02*
X104523000Y-31151700D01*
X101233800Y-30890000D02*
X100406900Y-30063100D01*
X100406900Y-30063100D02*
X100406900Y-28213000D01*
X143000000Y-57540000D02*
X138449600Y-57540000D01*
X35080000Y-90000000D02*
X47824900Y-77255100D01*
X134754600Y-53845000D02*
X132394500Y-53845000D01*
X104261300Y-30890000D02*
X101233800Y-30890000D01*
X104523000Y-31151700D02*
X104261300Y-30890000D01*
%TO.N,BUSREQ_N*%
X65355800Y-59086400D02*
X63643600Y-59086400D01*
X68160000Y-62380000D02*
X68160000Y-61890600D01*
X63643600Y-59086400D02*
X59657200Y-55100000D01*
X68160000Y-61890600D02*
X65355800Y-59086400D01*
X59657200Y-55100000D02*
X55240000Y-55100000D01*
%TO.N,D0*%
X112620000Y-60080000D02*
X106325100Y-53785100D01*
X40000000Y-50020000D02*
X39290700Y-50020000D01*
X64065300Y-57379800D02*
X60455500Y-53770000D01*
X38161500Y-51149200D02*
X11330800Y-51149200D01*
X103453300Y-53785100D02*
X99356900Y-57881500D01*
X66558900Y-57379800D02*
X64065300Y-57379800D01*
X67060600Y-57881500D02*
X66558900Y-57379800D01*
X60455500Y-53770000D02*
X57670800Y-53770000D01*
X129860200Y-60080000D02*
X131620000Y-60080000D01*
X99356900Y-57881500D02*
X67060600Y-57881500D01*
X39290700Y-50020000D02*
X38161500Y-51149200D01*
X11330800Y-51149200D02*
X10000000Y-52480000D01*
X112620000Y-60080000D02*
X113820600Y-58879400D01*
X106325100Y-53785100D02*
X103453300Y-53785100D01*
X113820600Y-58879400D02*
X128659600Y-58879400D01*
X128659600Y-58879400D02*
X129860200Y-60080000D01*
%TO.N,D1*%
X112620000Y-62620000D02*
X113810600Y-63810600D01*
X111350000Y-63890000D02*
X104470000Y-63890000D01*
X130429400Y-63810600D02*
X131620000Y-62620000D01*
X104470000Y-63890000D02*
X103572200Y-64787800D01*
X11271500Y-53748500D02*
X10000000Y-55020000D01*
X113810600Y-63810600D02*
X130429400Y-63810600D01*
X40000000Y-52560000D02*
X38811500Y-53748500D01*
X67547800Y-64787800D02*
X67157200Y-64397200D01*
X59560300Y-64787800D02*
X59184600Y-64412100D01*
X112620000Y-62620000D02*
X111350000Y-63890000D01*
X66119300Y-64397200D02*
X65728700Y-64787800D01*
X103572200Y-64787800D02*
X67547800Y-64787800D01*
X65728700Y-64787800D02*
X59560300Y-64787800D01*
X38811500Y-53748500D02*
X11271500Y-53748500D01*
X67157200Y-64397200D02*
X66119300Y-64397200D01*
%TO.N,D2*%
X66949500Y-64898900D02*
X66327000Y-64898900D01*
X112620000Y-65160000D02*
X113810600Y-66350600D01*
X66327000Y-64898900D02*
X65826200Y-65399700D01*
X56439600Y-62206600D02*
X55683000Y-61450000D01*
X59109300Y-65399700D02*
X56439600Y-62730000D01*
X112620000Y-65160000D02*
X111461000Y-66319000D01*
X87560400Y-65399800D02*
X67450400Y-65399800D01*
X113810600Y-66350600D02*
X130429400Y-66350600D01*
X29429600Y-44940000D02*
X40000000Y-44940000D01*
X10000000Y-57560000D02*
X8847800Y-56407800D01*
X55683000Y-61450000D02*
X54790800Y-61450000D01*
X111461000Y-66319000D02*
X88479600Y-66319000D01*
X52492200Y-59151400D02*
X52492200Y-51846100D01*
X67450400Y-65399800D02*
X66949500Y-64898900D01*
X9559500Y-51210000D02*
X10476500Y-51210000D01*
X56439600Y-62730000D02*
X56439600Y-62206600D01*
X54790800Y-61450000D02*
X52492200Y-59151400D01*
X10476500Y-51210000D02*
X13016500Y-48670000D01*
X88479600Y-66319000D02*
X87560400Y-65399800D01*
X8847800Y-56407800D02*
X8847800Y-51921700D01*
X25699600Y-48670000D02*
X29429600Y-44940000D01*
X13016500Y-48670000D02*
X25699600Y-48670000D01*
X52492200Y-51846100D02*
X50779600Y-50133500D01*
X8847800Y-51921700D02*
X9559500Y-51210000D01*
X130429400Y-66350600D02*
X131620000Y-65160000D01*
X65826200Y-65399700D02*
X59109300Y-65399700D01*
%TO.N,D3*%
X54579400Y-56370000D02*
X60059500Y-56370000D01*
X26835800Y-50162500D02*
X28248200Y-48750100D01*
X60059500Y-56370000D02*
X63929500Y-60240000D01*
X111429400Y-68890600D02*
X99801700Y-68890600D01*
X40439000Y-48750100D02*
X41195400Y-47993700D01*
X98249600Y-67338500D02*
X88664500Y-67338500D01*
X88664500Y-67338500D02*
X87227500Y-65901500D01*
X41195400Y-47993700D02*
X41195400Y-47039700D01*
X41195400Y-47039700D02*
X40365700Y-46210000D01*
X39191400Y-46210000D02*
X38993700Y-46012300D01*
X99801700Y-68890600D02*
X98249600Y-67338500D01*
X53289700Y-55080300D02*
X54579400Y-56370000D01*
X28248200Y-48750100D02*
X40439000Y-48750100D01*
X65446400Y-60240000D02*
X66037000Y-60830600D01*
X87227500Y-65901500D02*
X66889100Y-65901500D01*
X40365700Y-46210000D02*
X39191400Y-46210000D01*
X63929500Y-60240000D02*
X65446400Y-60240000D01*
X66889100Y-65901500D02*
X66638200Y-65650600D01*
X112620000Y-67700000D02*
X111429400Y-68890600D01*
%TO.N,D4*%
X118207000Y-69040100D02*
X130420099Y-69040100D01*
X40000000Y-32240000D02*
X47970000Y-32240000D01*
X30000000Y-57560000D02*
X30000000Y-76000000D01*
X118207000Y-69040100D02*
X113819900Y-69040100D01*
X25240000Y-57560000D02*
X30000000Y-57560000D01*
X118207000Y-88920000D02*
X118207000Y-69040100D01*
X30000000Y-76000000D02*
X47970000Y-76000000D01*
X47970000Y-76000000D02*
X102000000Y-76000000D01*
X47970000Y-32240000D02*
X47970000Y-76000000D01*
X102000000Y-76000000D02*
X102000000Y-88920000D01*
X102000000Y-88920000D02*
X118207000Y-88920000D01*
X130420099Y-69040100D02*
X131620000Y-70240000D01*
X113819900Y-69040100D02*
X112620000Y-70240000D01*
%TO.N,D5*%
X25240000Y-55020000D02*
X25350700Y-54909300D01*
X38411700Y-54909300D02*
X39394300Y-53926700D01*
X29773000Y-76501700D02*
X29228400Y-75957100D01*
X42198800Y-52056900D02*
X42198800Y-39518800D01*
X25350700Y-54909300D02*
X38411700Y-54909300D01*
X40329000Y-53926700D02*
X42198800Y-52056900D01*
X39394300Y-53926700D02*
X40329000Y-53926700D01*
X99720500Y-76501700D02*
X29773000Y-76501700D01*
X42198800Y-39518800D02*
X40000000Y-37320000D01*
X99980400Y-76761600D02*
X99720500Y-76501700D01*
%TO.N,D6*%
X113144300Y-79048400D02*
X113793400Y-78399300D01*
X108608600Y-79048400D02*
X113144300Y-79048400D01*
X113793400Y-78399300D02*
X113793400Y-76493400D01*
X40272200Y-51400700D02*
X41697100Y-49975800D01*
X113793400Y-76493400D02*
X112620000Y-75320000D01*
X54885200Y-46248300D02*
X79271800Y-46248300D01*
X106150200Y-76590000D02*
X108608600Y-79048400D01*
X82758700Y-68812300D02*
X88496700Y-74550300D01*
X53049700Y-42952600D02*
X53049700Y-44412800D01*
X102500800Y-74550300D02*
X104540500Y-76590000D01*
X37893600Y-52480000D02*
X38972900Y-51400700D01*
X88496700Y-74550300D02*
X102500800Y-74550300D01*
X41697100Y-49975800D02*
X41697100Y-41557100D01*
X79271800Y-46248300D02*
X80929500Y-47906000D01*
X38972900Y-51400700D02*
X40272200Y-51400700D01*
X104540500Y-76590000D02*
X106150200Y-76590000D01*
X41697100Y-41557100D02*
X40000000Y-39860000D01*
X53049700Y-44412800D02*
X54885200Y-46248300D01*
X25240000Y-52480000D02*
X37893600Y-52480000D01*
%TO.N,D7*%
X87019800Y-66403200D02*
X92035200Y-71418600D01*
X58301700Y-65901500D02*
X65826200Y-65901500D01*
X50277900Y-53066900D02*
X50277900Y-59423800D01*
X66327900Y-66403200D02*
X87019800Y-66403200D01*
X50277900Y-59423800D02*
X54844100Y-63990000D01*
X27700000Y-47480000D02*
X40000000Y-47480000D01*
X54844100Y-63990000D02*
X56390200Y-63990000D01*
X112619900Y-77860000D02*
X112620000Y-77860000D01*
X25240000Y-49940000D02*
X27700000Y-47480000D01*
X56390200Y-63990000D02*
X58301700Y-65901500D01*
X106178500Y-71418600D02*
X112619900Y-77860000D01*
X65826200Y-65901500D02*
X66327900Y-66403200D01*
X92035200Y-71418600D02*
X106178500Y-71418600D01*
%TO.N,DATA_DIR*%
X55618500Y-107012200D02*
X73987800Y-107012200D01*
X73987800Y-107012200D02*
X76000000Y-105000000D01*
%TO.N,DATA_DOWN_OE_N*%
X101620000Y-37240000D02*
X110332800Y-37240000D01*
X130632800Y-57540000D02*
X131620000Y-57540000D01*
X110332800Y-37240000D02*
X130632800Y-57540000D01*
%TO.N,DATA_ENABLE*%
X68000000Y-105000000D02*
X70662400Y-102337600D01*
X70662400Y-102337600D02*
X88627900Y-102337600D01*
%TO.N,DATA_UP_OE_N*%
X103009800Y-47929800D02*
X103009800Y-41169800D01*
X103009800Y-41169800D02*
X101620000Y-39780000D01*
X112620000Y-57540000D02*
X103009800Y-47929800D01*
%TO.N,GND*%
X105000000Y-77860000D02*
X106690100Y-79550100D01*
X71560000Y-44940000D02*
X73500000Y-43000000D01*
X115209200Y-79550100D02*
X117388700Y-77370600D01*
X76000000Y-94840000D02*
X84000000Y-94840000D01*
X35500000Y-61000000D02*
X30869200Y-56369200D01*
X24428300Y-135151700D02*
X25580000Y-134000000D01*
X68000000Y-94840000D02*
X76000000Y-94840000D01*
X37105300Y-115045300D02*
X38280000Y-116220000D01*
X144753200Y-56753200D02*
X143000000Y-55000000D01*
X59747600Y-68252400D02*
X58000000Y-70000000D01*
X80860000Y-70000000D02*
X79112400Y-68252400D01*
X144151700Y-79011700D02*
X143000000Y-77860000D01*
X30869200Y-56369200D02*
X13730800Y-56369200D01*
X151129100Y-79011700D02*
X144151700Y-79011700D01*
X50980000Y-134000000D02*
X50980000Y-134620000D01*
X19348300Y-133735600D02*
X19348300Y-134577800D01*
X150620000Y-62620000D02*
X151833600Y-61406400D01*
X38280000Y-115659200D02*
X38280000Y-116220000D01*
X95000000Y-10000000D02*
X107500000Y-22500000D01*
X53360000Y-137000000D02*
X82000000Y-137000000D01*
X37127200Y-135152800D02*
X26732800Y-135152800D01*
X136700000Y-55000000D02*
X134200000Y-52500000D01*
X29230000Y-23270000D02*
X11270000Y-23270000D01*
X110000000Y-104840000D02*
X142000000Y-104840000D01*
X151833600Y-61406400D02*
X151833600Y-58753600D01*
X60000000Y-94840000D02*
X68000000Y-94840000D01*
X155000000Y-52500000D02*
X150746800Y-56753200D01*
X85913400Y-75053400D02*
X102193400Y-75053400D01*
X107500000Y-22500000D02*
X107500000Y-30000000D01*
X150620000Y-56753200D02*
X150620000Y-57540000D01*
X102193400Y-75053400D02*
X105000000Y-77860000D01*
X60000000Y-94840000D02*
X59099200Y-94840000D01*
X19922200Y-135151700D02*
X24428300Y-135151700D01*
X21378100Y-13378100D02*
X21000000Y-13000000D01*
X30500000Y-22000000D02*
X30500000Y-13378100D01*
X26732800Y-135152800D02*
X25580000Y-134000000D01*
X150620000Y-56753200D02*
X144753200Y-56753200D01*
X76140000Y-43000000D02*
X78000000Y-44860000D01*
X30500000Y-13378100D02*
X21378100Y-13378100D01*
X26754700Y-115045300D02*
X37105300Y-115045300D01*
X18261000Y-132648300D02*
X19348300Y-133735600D01*
X73500000Y-43000000D02*
X76140000Y-43000000D01*
X149463200Y-66543200D02*
X149463200Y-63776800D01*
X37657100Y-43657100D02*
X39256600Y-43657100D01*
X79112400Y-68252400D02*
X59747600Y-68252400D01*
X12880000Y-134000000D02*
X14231700Y-132648300D01*
X19348300Y-134577800D02*
X19922200Y-135151700D01*
X55240000Y-44940000D02*
X71560000Y-44940000D01*
X80860000Y-70000000D02*
X85913400Y-75053400D01*
X149403900Y-68916100D02*
X149403900Y-71563900D01*
X32000000Y-12000000D02*
X30621900Y-13378100D01*
X38280000Y-134000000D02*
X37127200Y-135152800D01*
X106690100Y-79550100D02*
X115209200Y-79550100D01*
X25580000Y-116220000D02*
X26754700Y-115045300D01*
X151833600Y-58753600D02*
X150620000Y-57540000D01*
X150620000Y-72780000D02*
X151834600Y-73994600D01*
X36500000Y-42500000D02*
X37657100Y-43657100D01*
X59099200Y-94840000D02*
X38280000Y-115659200D01*
X11270000Y-23270000D02*
X10000000Y-24540000D01*
X150620000Y-67700000D02*
X149403900Y-68916100D01*
X14231700Y-132648300D02*
X18261000Y-132648300D01*
X150746800Y-56753200D02*
X150620000Y-56753200D01*
X50980000Y-134620000D02*
X53360000Y-137000000D01*
X30621900Y-13378100D02*
X30500000Y-13378100D01*
X149463200Y-63776800D02*
X150620000Y-62620000D01*
X115200000Y-52500000D02*
X121500000Y-52500000D01*
X142000000Y-104840000D02*
X150000000Y-104840000D01*
X150620000Y-67700000D02*
X149463200Y-66543200D01*
X30500000Y-22000000D02*
X29230000Y-23270000D01*
X13730800Y-56369200D02*
X10000000Y-60100000D01*
X151834600Y-73994600D02*
X151834600Y-78306200D01*
X94000000Y-49940000D02*
X85620000Y-49940000D01*
X143000000Y-55000000D02*
X136700000Y-55000000D01*
X121500000Y-52500000D02*
X124000000Y-55000000D01*
X149403900Y-71563900D02*
X150620000Y-72780000D01*
X151834600Y-78306200D02*
X151129100Y-79011700D01*
%TO.N,IORQ_N*%
X101620000Y-49940000D02*
X94198300Y-57361700D01*
X94198300Y-57361700D02*
X67250300Y-57361700D01*
X67250300Y-57361700D02*
X66066400Y-56177800D01*
X63926500Y-56177800D02*
X63926500Y-56177700D01*
X66066400Y-56177800D02*
X63926500Y-56177800D01*
%TO.N,MCP_RESET_BASE*%
X110000000Y-124840000D02*
X118000000Y-132840000D01*
X93597900Y-74044500D02*
X106808600Y-74044500D01*
X86989200Y-67435800D02*
X93597900Y-74044500D01*
X106808600Y-74044500D02*
X108675500Y-75911400D01*
X118000000Y-132840000D02*
X118000000Y-135000000D01*
%TO.N,MCP_RESET_DRIVE*%
X108848300Y-124346300D02*
X114965400Y-118229200D01*
X110304500Y-52051800D02*
X110304500Y-46833800D01*
X108848300Y-133848300D02*
X108848300Y-124346300D01*
X101222400Y-38510000D02*
X100466600Y-37754200D01*
X101980700Y-38510000D02*
X101222400Y-38510000D01*
X110304500Y-46833800D02*
X101980700Y-38510000D01*
X100466600Y-37754200D02*
X100466600Y-35853400D01*
X114965400Y-118229200D02*
X120761900Y-118229200D01*
X100466600Y-35853400D02*
X101620000Y-34700000D01*
X110000000Y-135000000D02*
X108848300Y-133848300D01*
%TO.N,MCP_SO*%
X91493400Y-96012700D02*
X74941100Y-96012700D01*
X133699600Y-84987700D02*
X122976800Y-95710500D01*
X133699600Y-82933800D02*
X133699600Y-84987700D01*
X91795600Y-95710500D02*
X91493400Y-96012700D01*
X150620000Y-77860000D02*
X146919100Y-74159100D01*
X74941100Y-96012700D02*
X74540000Y-95611600D01*
X146919100Y-74159100D02*
X142474300Y-74159100D01*
X78000000Y-55020000D02*
X71119800Y-55020000D01*
X122976800Y-95710500D02*
X91795600Y-95710500D01*
X142474300Y-74159100D02*
X133699600Y-82933800D01*
X71119800Y-55020000D02*
X69529800Y-56610000D01*
%TO.N,PICO_BUSACK_N*%
X69638200Y-92078900D02*
X69885400Y-91831700D01*
X69885400Y-91831700D02*
X70507900Y-91831700D01*
X58284700Y-91894100D02*
X66151600Y-91894100D01*
X70507900Y-91831700D02*
X70755100Y-92078900D01*
X149230200Y-63187500D02*
X149230200Y-61469800D01*
X24428300Y-117371700D02*
X24428300Y-113982700D01*
X66336400Y-92078900D02*
X67775600Y-92078900D01*
X142470000Y-68970000D02*
X143447700Y-68970000D01*
X68979000Y-92078900D02*
X69638200Y-92078900D01*
X67775600Y-92078900D02*
X67961900Y-91892600D01*
X119361100Y-92078900D02*
X142470000Y-68970000D01*
X52737600Y-97441200D02*
X58284700Y-91894100D01*
X143447700Y-68970000D02*
X149230200Y-63187500D01*
X66151600Y-91894100D02*
X66336400Y-92078900D01*
X70755100Y-92078900D02*
X119361100Y-92078900D01*
X68792700Y-91892600D02*
X68979000Y-92078900D01*
X7800000Y-134000000D02*
X24428300Y-117371700D01*
X40969800Y-97441200D02*
X52737600Y-97441200D01*
X67961900Y-91892600D02*
X68792700Y-91892600D01*
X149230200Y-61469800D02*
X150620000Y-60080000D01*
X24428300Y-113982700D02*
X40969800Y-97441200D01*
%TO.N,PICO_BUSREQ_N*%
X68585000Y-92394300D02*
X68169600Y-92394300D01*
X44063700Y-107755000D02*
X31718900Y-107755000D01*
X104159000Y-93159000D02*
X72589000Y-93159000D01*
X72412800Y-93335200D02*
X69525900Y-93335200D01*
X69525900Y-93335200D02*
X68585000Y-92394300D01*
X72589000Y-93159000D02*
X72412800Y-93335200D01*
X67918000Y-92645900D02*
X65840200Y-92645900D01*
X65840200Y-92645900D02*
X59172800Y-92645900D01*
X105000000Y-94000000D02*
X104159000Y-93159000D01*
X59172800Y-92645900D02*
X44063700Y-107755000D01*
X68169600Y-92394300D02*
X67918000Y-92645900D01*
%TO.N,PICO_CE_N*%
X68315300Y-92958000D02*
X68439300Y-92958000D01*
X69318200Y-93836900D02*
X72620500Y-93836900D01*
X112803800Y-95196200D02*
X114000000Y-94000000D01*
X67648900Y-93624400D02*
X68315300Y-92958000D01*
X72620500Y-93836900D02*
X72796700Y-93660700D01*
X29390000Y-110437900D02*
X42275300Y-110437900D01*
X84650000Y-93660700D02*
X86185500Y-95196200D01*
X68439300Y-92958000D02*
X69318200Y-93836900D01*
X42275300Y-110437900D02*
X59088800Y-93624400D01*
X86185500Y-95196200D02*
X112803800Y-95196200D01*
X59088800Y-93624400D02*
X67648900Y-93624400D01*
X72796700Y-93660700D02*
X84650000Y-93660700D01*
%TO.N,PICO_D0*%
X82982600Y-138557400D02*
X51267900Y-138557400D01*
X51267900Y-138557400D02*
X47288300Y-134577800D01*
X46382400Y-132841700D02*
X41978300Y-132841700D01*
X47288300Y-133747600D02*
X46382400Y-132841700D01*
X47288300Y-134577800D02*
X47288300Y-133747600D01*
X41978300Y-132841700D02*
X40820000Y-134000000D01*
X84540000Y-137000000D02*
X82982600Y-138557400D01*
%TO.N,PICO_D1*%
X54035200Y-135818300D02*
X53639000Y-136214500D01*
X87080000Y-137000000D02*
X85898300Y-135818300D01*
X122838100Y-61241900D02*
X124000000Y-60080000D01*
X106161900Y-61241900D02*
X122838100Y-61241900D01*
X105000000Y-60080000D02*
X106161900Y-61241900D01*
X85898300Y-135818300D02*
X54035200Y-135818300D01*
%TO.N,PICO_D2*%
X45900000Y-134000000D02*
X50997600Y-139097600D01*
X87522400Y-139097600D02*
X89620000Y-137000000D01*
X50997600Y-139097600D02*
X87522400Y-139097600D01*
%TO.N,PICO_D3*%
X48440000Y-134000000D02*
X52221800Y-137781800D01*
X52221800Y-137781800D02*
X65509600Y-137781800D01*
%TO.N,PICO_D4*%
X94700000Y-137000000D02*
X92872100Y-135172100D01*
X54692100Y-135172100D02*
X53520000Y-134000000D01*
X92872100Y-135172100D02*
X54692100Y-135172100D01*
%TO.N,PICO_D5*%
X106888300Y-71418900D02*
X105709400Y-70240000D01*
X94240000Y-134000000D02*
X97240000Y-137000000D01*
X105709400Y-70240000D02*
X105000000Y-70240000D01*
X117430500Y-70240000D02*
X116251600Y-71418900D01*
X56060000Y-134000000D02*
X94240000Y-134000000D01*
X116251600Y-71418900D02*
X106888300Y-71418900D01*
%TO.N,PICO_D6*%
X79000000Y-116220000D02*
X99780000Y-137000000D01*
X56060000Y-116220000D02*
X79000000Y-116220000D01*
%TO.N,PICO_D7*%
X53520000Y-116220000D02*
X54719900Y-115020100D01*
X102320000Y-115020100D02*
X102320000Y-137000000D01*
X102320000Y-115020100D02*
X106371400Y-115020100D01*
X54719900Y-115020100D02*
X102320000Y-115020100D01*
X106371400Y-115020100D02*
X106824500Y-114567000D01*
%TO.N,PICO_IORQ_N*%
X10340000Y-134000000D02*
X25912300Y-118427700D01*
X152363900Y-66903900D02*
X150620000Y-65160000D01*
X25912300Y-118427700D02*
X42851000Y-118427700D01*
X44630000Y-115434700D02*
X60342200Y-99722500D01*
X42851000Y-118427700D02*
X44630000Y-116648700D01*
X152363900Y-78523300D02*
X152363900Y-66903900D01*
X131164700Y-99722500D02*
X152363900Y-78523300D01*
X60342200Y-99722500D02*
X131164700Y-99722500D01*
X44630000Y-116648700D02*
X44630000Y-115434700D01*
%TO.N,PICO_OE_N*%
X94768000Y-100475500D02*
X60382900Y-100475500D01*
X47059100Y-113799300D02*
X47059100Y-114068600D01*
X94768000Y-100475500D02*
X134524500Y-100475500D01*
X134524500Y-100475500D02*
X141000000Y-94000000D01*
X60382900Y-100475500D02*
X47059100Y-113799300D01*
%TO.N,PICO_RD_N*%
X133943900Y-94428200D02*
X133943900Y-93094500D01*
X42090000Y-115842700D02*
X59715300Y-98217400D01*
X133943900Y-93094500D02*
X134250300Y-92788100D01*
X132068800Y-96303300D02*
X133943900Y-94428200D01*
X130829300Y-96303300D02*
X132068800Y-96303300D01*
X128915200Y-98217400D02*
X130829300Y-96303300D01*
X42090000Y-116628900D02*
X42090000Y-115842700D01*
X59715300Y-98217400D02*
X128915200Y-98217400D01*
X28120000Y-116220000D02*
X29826000Y-117926000D01*
X40792900Y-117926000D02*
X42090000Y-116628900D01*
X29826000Y-117926000D02*
X40792900Y-117926000D01*
%TO.N,PICO_SPI_CS_N*%
X123000000Y-94000000D02*
X121583500Y-92583500D01*
X121583500Y-92583500D02*
X70196600Y-92583500D01*
%TO.N,PICO_SPI_MISO*%
X43360000Y-115984500D02*
X60625400Y-98719100D01*
X139347200Y-88754200D02*
X139347200Y-79437400D01*
X134552800Y-94528700D02*
X134552800Y-93548500D01*
X43360000Y-116220000D02*
X43360000Y-115984500D01*
X60625400Y-98719100D02*
X130362400Y-98719100D01*
X134552900Y-93548500D02*
X139347200Y-88754200D01*
X143000000Y-75784600D02*
X143000000Y-75320000D01*
X139347200Y-79437400D02*
X143000000Y-75784600D01*
X130362400Y-98719100D02*
X134552800Y-94528700D01*
X134552800Y-93548500D02*
X134552900Y-93548500D01*
%TO.N,PICO_SPI_MOSI*%
X92991800Y-63447500D02*
X93254500Y-63184800D01*
X45970900Y-116220000D02*
X45900000Y-116220000D01*
X54866800Y-106701000D02*
X54866800Y-107324100D01*
X54866800Y-107324100D02*
X45970900Y-116220000D01*
X88647000Y-101255500D02*
X99835100Y-112443600D01*
X99835100Y-112443600D02*
X145745500Y-112443600D01*
X88647000Y-101255500D02*
X60933400Y-101255500D01*
X80860000Y-62380000D02*
X81927500Y-63447500D01*
X81927500Y-63447500D02*
X92991800Y-63447500D01*
X55307300Y-106260500D02*
X54866800Y-106701000D01*
X55928400Y-106260500D02*
X55307300Y-106260500D01*
X60933400Y-101255500D02*
X55928400Y-106260500D01*
%TO.N,PICO_SPI_SCK*%
X48440000Y-116220000D02*
X50695100Y-113964900D01*
X142000000Y-115000000D02*
X140809400Y-113809400D01*
X73435000Y-113809400D02*
X73279500Y-113964900D01*
X140809400Y-113809400D02*
X73435000Y-113809400D01*
X50695100Y-113964900D02*
X73279500Y-113964900D01*
%TO.N,PICO_WE_N*%
X128076700Y-97214000D02*
X57566400Y-97214000D01*
X39547300Y-115233100D02*
X39547300Y-116927500D01*
X132000000Y-94000000D02*
X131290700Y-94000000D01*
X57566400Y-97214000D02*
X39547300Y-115233100D01*
X39547300Y-116927500D02*
X39050500Y-117424300D01*
X36944300Y-117424300D02*
X35740000Y-116220000D01*
X39050500Y-117424300D02*
X36944300Y-117424300D01*
X131290700Y-94000000D02*
X128076700Y-97214000D01*
%TO.N,PICO_WR_N*%
X133247300Y-92635100D02*
X136370900Y-89511500D01*
X131861000Y-95801600D02*
X133247300Y-94415300D01*
X43776400Y-112066900D02*
X58127600Y-97715700D01*
X136370900Y-81350700D02*
X141249900Y-76471700D01*
X136370900Y-89511500D02*
X136370900Y-81350700D01*
X133247300Y-94415300D02*
X133247300Y-92635100D01*
X58127600Y-97715700D02*
X128707500Y-97715700D01*
X128707500Y-97715700D02*
X130621600Y-95801600D01*
X130621600Y-95801600D02*
X131861000Y-95801600D01*
%TO.N,RD_N*%
X107358300Y-33518400D02*
X130181400Y-56341500D01*
X95181600Y-33518400D02*
X107358300Y-33518400D01*
X134288600Y-56341500D02*
X140380900Y-62433800D01*
X130181400Y-56341500D02*
X134288600Y-56341500D01*
X55446500Y-77253500D02*
X56777200Y-77253500D01*
X140380900Y-62433800D02*
X140380900Y-65080900D01*
X42700000Y-90000000D02*
X55446500Y-77253500D01*
X94000000Y-34700000D02*
X95181600Y-33518400D01*
X140380900Y-65080900D02*
X143000000Y-67700000D01*
%TO.N,RESET_N*%
X89503800Y-17503800D02*
X57871800Y-17503800D01*
X66806100Y-58586200D02*
X66101400Y-57881500D01*
X92027300Y-62695800D02*
X87917700Y-58586200D01*
X59828700Y-54560000D02*
X57240000Y-54560000D01*
X63150200Y-57881500D02*
X59828700Y-54560000D01*
X57503800Y-17503800D02*
X50000000Y-10000000D01*
X66101400Y-57881500D02*
X63150200Y-57881500D01*
X94000000Y-22000000D02*
X89503800Y-17503800D01*
X57871800Y-17503800D02*
X57503800Y-17503800D01*
X57240000Y-54560000D02*
X55240000Y-52560000D01*
X87917700Y-58586200D02*
X66806100Y-58586200D01*
%TO.N,SRAM_CE_N*%
X61403900Y-71853400D02*
X63080000Y-70177300D01*
X53928000Y-69699000D02*
X56082400Y-71853400D01*
X56082400Y-71853400D02*
X61403900Y-71853400D01*
X63080000Y-70177300D02*
X63080000Y-70000000D01*
%TO.N,SRAM_OE_PRE_N*%
X89780000Y-88980000D02*
X83706100Y-82906100D01*
X89780000Y-90000000D02*
X89780000Y-88980000D01*
%TO.N,SRAM_WE_N*%
X73240000Y-71325100D02*
X73240000Y-70000000D01*
X61928300Y-70535700D02*
X61112300Y-71351700D01*
X61928300Y-69509200D02*
X61928300Y-70535700D01*
X61112300Y-71351700D02*
X56650200Y-71351700D01*
X56650200Y-71351700D02*
X55974300Y-70675800D01*
X62636500Y-68801000D02*
X61928300Y-69509200D01*
X72041000Y-68801000D02*
X62636500Y-68801000D01*
X74337200Y-72422300D02*
X73240000Y-71325100D01*
X73240000Y-70000000D02*
X72041000Y-68801000D01*
%TO.N,VSYS*%
D27*
X10340000Y-116220000D02*
X10340000Y-109660000D01*
X10340000Y-109660000D02*
X15000000Y-105000000D01*
%TO.N,WAIT_N*%
D28*
X94642100Y-23369300D02*
X94642100Y-23511100D01*
X74000000Y-10000000D02*
X76703800Y-12703800D01*
X86097400Y-30890000D02*
X80898800Y-30890000D01*
X94642100Y-23369300D02*
X93497300Y-23369300D01*
X76703800Y-12703800D02*
X86718700Y-12703800D01*
X87906700Y-28959900D02*
X87906700Y-29080700D01*
X56629800Y-59029800D02*
X56629900Y-59029800D01*
X87906700Y-29080700D02*
X86097400Y-30890000D01*
X55240000Y-57640000D02*
X56629800Y-59029800D01*
X86718700Y-12703800D02*
X95156300Y-21141400D01*
X56629900Y-59286800D02*
X58084800Y-60741700D01*
X76580600Y-33311700D02*
X76300100Y-33592200D01*
X56629900Y-59029800D02*
X56629900Y-59286800D01*
X93497300Y-23369300D02*
X87906700Y-28959900D01*
X99728500Y-28597500D02*
X99728500Y-30268500D01*
X78477100Y-33311700D02*
X76580600Y-33311700D01*
X95156300Y-22855100D02*
X94642100Y-23369300D01*
X99728500Y-30268500D02*
X101620000Y-32160000D01*
X94642100Y-23511100D02*
X99728500Y-28597500D01*
X58084800Y-60741700D02*
X63723800Y-60741700D01*
X63723800Y-60741700D02*
X64468300Y-61486200D01*
X95156300Y-21141400D02*
X95156300Y-22855100D01*
X80898800Y-30890000D02*
X78477100Y-33311700D01*
%TO.N,WR_N*%
X85866100Y-41168300D02*
X85116500Y-41168300D01*
X130596500Y-58702600D02*
X135561200Y-58702600D01*
X135561200Y-58702600D02*
X139538200Y-62679600D01*
X51149000Y-48670000D02*
X83622300Y-48670000D01*
X51029600Y-52755600D02*
X50027900Y-51753900D01*
X94000000Y-29620000D02*
X86829600Y-36790400D01*
X85116500Y-41168300D02*
X84423200Y-41861600D01*
X51029600Y-58509600D02*
X51029600Y-52755600D01*
X86829600Y-40204800D02*
X85866100Y-41168300D01*
X84423200Y-41861600D02*
X84423200Y-47869100D01*
X113200900Y-58736000D02*
X115567600Y-56369300D01*
X85224100Y-48670000D02*
X102109900Y-48670000D01*
X83622300Y-48670000D02*
X84423200Y-47869100D01*
X115567600Y-56369300D02*
X128263200Y-56369300D01*
X50027900Y-49791100D02*
X51149000Y-48670000D01*
X86829600Y-36790400D02*
X86829600Y-40204800D01*
X50027900Y-51753900D02*
X50027900Y-49791100D01*
X128263200Y-56369300D02*
X130596500Y-58702600D01*
X55240000Y-62720000D02*
X51029600Y-58509600D01*
X102109900Y-48670000D02*
X112175900Y-58736000D01*
X84423200Y-47869100D02*
X85224100Y-48670000D01*
X112175900Y-58736000D02*
X113200900Y-58736000D01*
%TO.N,Z80_CLK*%
X85000000Y-68000000D02*
X84184100Y-67184100D01*
X84184100Y-67184100D02*
X63080000Y-67184100D01*
%TD*%
M02*
