%TF.GenerationSoftware,KiCad,Pcbnew,10.0.6-10.0.6~ubuntu24.04.1*%
%TF.CreationDate,2026-09-12T05:11:53+00:00*%
%TF.ProjectId,z80_romless_sbc,7a38305f-726f-46d6-9c65-73735f736263,rev?*%
%TF.SameCoordinates,Original*%
%TF.FileFunction,Copper,L1,Top*%
%TF.FilePolarity,Positive*%
%FSLAX46Y46*%
G04 Gerber Fmt 4.6, Leading zero omitted, Abs format (unit mm)*
G04 Created by KiCad (PCBNEW 10.0.6-10.0.6~ubuntu24.04.1) date 2026-09-12 05:11:53*
%MOMM*%
%LPD*%
G01*
G04 APERTURE LIST*
G04 Aperture macros list*
%AMRoundRect*
0 Rectangle with rounded corners*
0 $1 Rounding radius*
0 $2 $3 $4 $5 $6 $7 $8 $9 X,Y pos of 4 corners*
0 Add a 4 corners polygon primitive as box body*
4,1,4,$2,$3,$4,$5,$6,$7,$8,$9,$2,$3,0*
0 Add four circle primitives for the rounded corners*
1,1,$1+$1,$2,$3*
1,1,$1+$1,$4,$5*
1,1,$1+$1,$6,$7*
1,1,$1+$1,$8,$9*
0 Add four rect primitives between the rounded corners*
20,1,$1+$1,$2,$3,$4,$5,0*
20,1,$1+$1,$4,$5,$6,$7,0*
20,1,$1+$1,$6,$7,$8,$9,0*
20,1,$1+$1,$8,$9,$2,$3,0*%
%AMFreePoly0*
4,1,37,0.603843,0.796157,0.639018,0.796157,0.711114,0.766294,0.766294,0.711114,0.796157,0.639018,0.796157,0.603843,0.800000,0.600000,0.800000,-0.600000,0.796157,-0.603843,0.796157,-0.639018,0.766294,-0.711114,0.711114,-0.766294,0.639018,-0.796157,0.603843,-0.796157,0.600000,-0.800000,0.000000,-0.800000,0.000000,-0.796148,-0.078414,-0.796148,-0.232228,-0.765552,-0.377117,-0.705537,
-0.507515,-0.618408,-0.618408,-0.507515,-0.705537,-0.377117,-0.765552,-0.232228,-0.796148,-0.078414,-0.796148,0.078414,-0.765552,0.232228,-0.705537,0.377117,-0.618408,0.507515,-0.507515,0.618408,-0.377117,0.705537,-0.232228,0.765552,-0.078414,0.796148,0.000000,0.796148,0.000000,0.800000,0.600000,0.800000,0.603843,0.796157,0.603843,0.796157,$1*%
%AMFreePoly1*
4,1,37,0.000000,0.796148,0.078414,0.796148,0.232228,0.765552,0.377117,0.705537,0.507515,0.618408,0.618408,0.507515,0.705537,0.377117,0.765552,0.232228,0.796148,0.078414,0.796148,-0.078414,0.765552,-0.232228,0.705537,-0.377117,0.618408,-0.507515,0.507515,-0.618408,0.377117,-0.705537,0.232228,-0.765552,0.078414,-0.796148,0.000000,-0.796148,0.000000,-0.800000,-0.600000,-0.800000,
-0.603843,-0.796157,-0.639018,-0.796157,-0.711114,-0.766294,-0.766294,-0.711114,-0.796157,-0.639018,-0.796157,-0.603843,-0.800000,-0.600000,-0.800000,0.600000,-0.796157,0.603843,-0.796157,0.639018,-0.766294,0.711114,-0.711114,0.766294,-0.639018,0.796157,-0.603843,0.796157,-0.600000,0.800000,0.000000,0.800000,0.000000,0.796148,0.000000,0.796148,$1*%
G04 Aperture macros list end*
%TA.AperFunction,ComponentPad*%
%ADD10C,1.600000*%
%TD*%
%TA.AperFunction,ComponentPad*%
%ADD11RoundRect,0.250000X-0.550000X-0.550000X0.550000X-0.550000X0.550000X0.550000X-0.550000X0.550000X0*%
%TD*%
%TA.AperFunction,ComponentPad*%
%ADD12C,1.800000*%
%TD*%
%TA.AperFunction,ComponentPad*%
%ADD13R,1.050000X1.500000*%
%TD*%
%TA.AperFunction,ComponentPad*%
%ADD14O,1.050000X1.500000*%
%TD*%
%TA.AperFunction,ComponentPad*%
%ADD15R,1.600000X1.600000*%
%TD*%
%TA.AperFunction,ComponentPad*%
%ADD16RoundRect,0.200000X0.600000X-0.600000X0.600000X0.600000X-0.600000X0.600000X-0.600000X-0.600000X0*%
%TD*%
%TA.AperFunction,ComponentPad*%
%ADD17FreePoly0,90.000000*%
%TD*%
%TA.AperFunction,ComponentPad*%
%ADD18FreePoly1,90.000000*%
%TD*%
%TA.AperFunction,ComponentPad*%
%ADD19RoundRect,0.250000X0.550000X-0.550000X0.550000X0.550000X-0.550000X0.550000X-0.550000X-0.550000X0*%
%TD*%
%TA.AperFunction,ComponentPad*%
%ADD20RoundRect,0.249999X-0.850001X-0.850001X0.850001X-0.850001X0.850001X0.850001X-0.850001X0.850001X0*%
%TD*%
%TA.AperFunction,ComponentPad*%
%ADD21C,2.200000*%
%TD*%
%TA.AperFunction,ComponentPad*%
%ADD22RoundRect,0.250000X-0.750000X-0.750000X0.750000X-0.750000X0.750000X0.750000X-0.750000X0.750000X0*%
%TD*%
%TA.AperFunction,ComponentPad*%
%ADD23C,2.000000*%
%TD*%
%TA.AperFunction,ComponentPad*%
%ADD24RoundRect,0.249999X-1.250001X-1.250001X1.250001X-1.250001X1.250001X1.250001X-1.250001X1.250001X0*%
%TD*%
%TA.AperFunction,ComponentPad*%
%ADD25C,3.000000*%
%TD*%
%TA.AperFunction,ViaPad*%
%ADD26C,0.800000*%
%TD*%
%TA.AperFunction,Conductor*%
%ADD27C,0.600000*%
%TD*%
%TA.AperFunction,Conductor*%
%ADD28C,0.300000*%
%TD*%
G04 APERTURE END LIST*
D10*
%TO.P,C8,1*%
%TO.N,+3V3*%
X134200000Y-55000000D03*
%TO.P,C8,2*%
%TO.N,GND*%
X134200000Y-52500000D03*
%TD*%
%TO.P,C4,1*%
%TO.N,+5V*%
X58000000Y-59000000D03*
%TO.P,C4,2*%
%TO.N,GND*%
X60500000Y-59000000D03*
%TD*%
D11*
%TO.P,U8,1*%
%TO.N,A8*%
X78000000Y-22000000D03*
D10*
%TO.P,U8,2*%
%TO.N,A9*%
X78000000Y-24540000D03*
%TO.P,U8,3*%
%TO.N,A10*%
X78000000Y-27080000D03*
%TO.P,U8,4*%
%TO.N,A11*%
X78000000Y-29620000D03*
%TO.P,U8,5*%
%TO.N,A12*%
X78000000Y-32160000D03*
%TO.P,U8,6*%
%TO.N,A13*%
X78000000Y-34700000D03*
%TO.P,U8,7*%
%TO.N,A14*%
X78000000Y-37240000D03*
%TO.P,U8,8*%
%TO.N,A15*%
X78000000Y-39780000D03*
%TO.P,U8,9*%
%TO.N,+5V*%
X78000000Y-42320000D03*
%TO.P,U8,10*%
%TO.N,GND*%
X78000000Y-44860000D03*
%TO.P,U8,11*%
%TO.N,MCP_CS_N*%
X78000000Y-47400000D03*
%TO.P,U8,12*%
%TO.N,MCP_SCK*%
X78000000Y-49940000D03*
%TO.P,U8,13*%
%TO.N,MCP_SI*%
X78000000Y-52480000D03*
%TO.P,U8,14*%
%TO.N,MCP_SO*%
X78000000Y-55020000D03*
%TO.P,U8,15*%
%TO.N,GND*%
X85620000Y-55020000D03*
%TO.P,U8,16*%
X85620000Y-52480000D03*
%TO.P,U8,17*%
X85620000Y-49940000D03*
%TO.P,U8,18*%
%TO.N,MCP_RESET_N*%
X85620000Y-47400000D03*
%TO.P,U8,19*%
%TO.N,N/C*%
X85620000Y-44860000D03*
%TO.P,U8,20*%
X85620000Y-42320000D03*
%TO.P,U8,21*%
%TO.N,A0*%
X85620000Y-39780000D03*
%TO.P,U8,22*%
%TO.N,A1*%
X85620000Y-37240000D03*
%TO.P,U8,23*%
%TO.N,A2*%
X85620000Y-34700000D03*
%TO.P,U8,24*%
%TO.N,A3*%
X85620000Y-32160000D03*
%TO.P,U8,25*%
%TO.N,A4*%
X85620000Y-29620000D03*
%TO.P,U8,26*%
%TO.N,A5*%
X85620000Y-27080000D03*
%TO.P,U8,27*%
%TO.N,A6*%
X85620000Y-24540000D03*
%TO.P,U8,28*%
%TO.N,A7*%
X85620000Y-22000000D03*
%TD*%
%TO.P,R14,1*%
%TO.N,SRAM_WE_PRE_N*%
X80800000Y-90000000D03*
%TO.P,R14,2*%
%TO.N,+5V*%
X80800000Y-79840000D03*
%TD*%
D11*
%TO.P,C11,1*%
%TO.N,+5V*%
X158000000Y-82000000D03*
D10*
%TO.P,C11,2*%
%TO.N,GND*%
X161500000Y-82000000D03*
%TD*%
D12*
%TO.P,TP5,1*%
%TO.N,BUSREQ_N*%
X81000000Y-10000000D03*
%TD*%
%TO.P,TP1,1*%
%TO.N,M1_N*%
X43000000Y-10000000D03*
%TD*%
D13*
%TO.P,Q1,1*%
%TO.N,GND*%
X86000000Y-62000000D03*
D14*
%TO.P,Q1,2*%
%TO.N,MCP_RESET_BASE*%
X87270000Y-62000000D03*
%TO.P,Q1,3*%
%TO.N,MCP_RESET_N*%
X88540000Y-62000000D03*
%TD*%
D10*
%TO.P,R11,1*%
%TO.N,WAIT_N*%
X64000000Y-90000000D03*
%TO.P,R11,2*%
%TO.N,+5V*%
X64000000Y-79840000D03*
%TD*%
%TO.P,C2,1*%
%TO.N,+5V*%
X28000000Y-22000000D03*
%TO.P,C2,2*%
%TO.N,GND*%
X30500000Y-22000000D03*
%TD*%
D15*
%TO.P,RN2,1*%
%TO.N,+5V*%
X34000000Y-72000000D03*
D10*
%TO.P,RN2,2*%
%TO.N,A8*%
X36540000Y-72000000D03*
%TO.P,RN2,3*%
%TO.N,A9*%
X39080000Y-72000000D03*
%TO.P,RN2,4*%
%TO.N,A10*%
X41620000Y-72000000D03*
%TO.P,RN2,5*%
%TO.N,A11*%
X44160000Y-72000000D03*
%TO.P,RN2,6*%
%TO.N,A12*%
X46700000Y-72000000D03*
%TO.P,RN2,7*%
%TO.N,A13*%
X49240000Y-72000000D03*
%TO.P,RN2,8*%
%TO.N,A14*%
X51780000Y-72000000D03*
%TO.P,RN2,9*%
%TO.N,A15*%
X54320000Y-72000000D03*
%TD*%
%TO.P,R17,1*%
%TO.N,PICO_BUSREQ_N*%
X105000000Y-94000000D03*
%TO.P,R17,2*%
%TO.N,+3V3*%
X105000000Y-83840000D03*
%TD*%
%TO.P,R4,1*%
%TO.N,IORQ_N*%
X24800000Y-90000000D03*
%TO.P,R4,2*%
%TO.N,+5V*%
X24800000Y-79840000D03*
%TD*%
D11*
%TO.P,U2,1*%
%TO.N,N/C*%
X10000000Y-22000000D03*
D10*
%TO.P,U2,2*%
%TO.N,GND*%
X10000000Y-24540000D03*
%TO.P,U2,3*%
%TO.N,A14*%
X10000000Y-27080000D03*
%TO.P,U2,4*%
%TO.N,A12*%
X10000000Y-29620000D03*
%TO.P,U2,5*%
%TO.N,A7*%
X10000000Y-32160000D03*
%TO.P,U2,6*%
%TO.N,A6*%
X10000000Y-34700000D03*
%TO.P,U2,7*%
%TO.N,A5*%
X10000000Y-37240000D03*
%TO.P,U2,8*%
%TO.N,A4*%
X10000000Y-39780000D03*
%TO.P,U2,9*%
%TO.N,A3*%
X10000000Y-42320000D03*
%TO.P,U2,10*%
%TO.N,A2*%
X10000000Y-44860000D03*
%TO.P,U2,11*%
%TO.N,A1*%
X10000000Y-47400000D03*
%TO.P,U2,12*%
%TO.N,A0*%
X10000000Y-49940000D03*
%TO.P,U2,13*%
%TO.N,D0*%
X10000000Y-52480000D03*
%TO.P,U2,14*%
%TO.N,D1*%
X10000000Y-55020000D03*
%TO.P,U2,15*%
%TO.N,D2*%
X10000000Y-57560000D03*
%TO.P,U2,16*%
%TO.N,GND*%
X10000000Y-60100000D03*
%TO.P,U2,17*%
%TO.N,D3*%
X25240000Y-60100000D03*
%TO.P,U2,18*%
%TO.N,D4*%
X25240000Y-57560000D03*
%TO.P,U2,19*%
%TO.N,D5*%
X25240000Y-55020000D03*
%TO.P,U2,20*%
%TO.N,D6*%
X25240000Y-52480000D03*
%TO.P,U2,21*%
%TO.N,D7*%
X25240000Y-49940000D03*
%TO.P,U2,22*%
%TO.N,SRAM_CE_N*%
X25240000Y-47400000D03*
%TO.P,U2,23*%
%TO.N,A10*%
X25240000Y-44860000D03*
%TO.P,U2,24*%
%TO.N,SRAM_OE_N*%
X25240000Y-42320000D03*
%TO.P,U2,25*%
%TO.N,A11*%
X25240000Y-39780000D03*
%TO.P,U2,26*%
%TO.N,A9*%
X25240000Y-37240000D03*
%TO.P,U2,27*%
%TO.N,A8*%
X25240000Y-34700000D03*
%TO.P,U2,28*%
%TO.N,A13*%
X25240000Y-32160000D03*
%TO.P,U2,29*%
%TO.N,SRAM_WE_N*%
X25240000Y-29620000D03*
%TO.P,U2,30*%
%TO.N,+5V*%
X25240000Y-27080000D03*
%TO.P,U2,31*%
%TO.N,A15*%
X25240000Y-24540000D03*
%TO.P,U2,32*%
%TO.N,+5V*%
X25240000Y-22000000D03*
%TD*%
%TO.P,R16,1*%
%TO.N,SRAM_CE_PRE_N*%
X92000000Y-90000000D03*
%TO.P,R16,2*%
%TO.N,+5V*%
X92000000Y-79840000D03*
%TD*%
D12*
%TO.P,TP7,1*%
%TO.N,GND*%
X95000000Y-10000000D03*
%TD*%
D10*
%TO.P,R20,1*%
%TO.N,PICO_WE_N*%
X132000000Y-94000000D03*
%TO.P,R20,2*%
%TO.N,+3V3*%
X132000000Y-83840000D03*
%TD*%
D11*
%TO.P,C9,1*%
%TO.N,+5V*%
X32000000Y-61000000D03*
D10*
%TO.P,C9,2*%
%TO.N,GND*%
X35500000Y-61000000D03*
%TD*%
D11*
%TO.P,U3,1*%
%TO.N,RESET_N*%
X94000000Y-22000000D03*
D10*
%TO.P,U3,2*%
%TO.N,BUSACK_N*%
X94000000Y-24540000D03*
%TO.P,U3,3*%
%TO.N,PICO_WE_N*%
X94000000Y-27080000D03*
%TO.P,U3,4*%
%TO.N,WR_N*%
X94000000Y-29620000D03*
%TO.P,U3,5*%
%TO.N,PICO_OE_N*%
X94000000Y-32160000D03*
%TO.P,U3,6*%
%TO.N,RD_N*%
X94000000Y-34700000D03*
%TO.P,U3,7*%
%TO.N,PICO_CE_N*%
X94000000Y-37240000D03*
%TO.P,U3,8*%
%TO.N,MREQ_N*%
X94000000Y-39780000D03*
%TO.P,U3,9*%
%TO.N,DATA_ENABLE*%
X94000000Y-42320000D03*
%TO.P,U3,10*%
%TO.N,ADDR_ENABLE*%
X94000000Y-44860000D03*
%TO.P,U3,11*%
%TO.N,DATA_DIR*%
X94000000Y-47400000D03*
%TO.P,U3,12*%
%TO.N,GND*%
X94000000Y-49940000D03*
%TO.P,U3,13*%
%TO.N,IORQ_N*%
X101620000Y-49940000D03*
%TO.P,U3,14*%
%TO.N,SRAM_WE_PRE_N*%
X101620000Y-47400000D03*
%TO.P,U3,15*%
%TO.N,SRAM_OE_PRE_N*%
X101620000Y-44860000D03*
%TO.P,U3,16*%
%TO.N,SRAM_CE_PRE_N*%
X101620000Y-42320000D03*
%TO.P,U3,17*%
%TO.N,DATA_UP_OE_N*%
X101620000Y-39780000D03*
%TO.P,U3,18*%
%TO.N,DATA_DOWN_OE_N*%
X101620000Y-37240000D03*
%TO.P,U3,19*%
%TO.N,MCP_RESET_DRIVE*%
X101620000Y-34700000D03*
%TO.P,U3,20*%
%TO.N,WAIT_N*%
X101620000Y-32160000D03*
%TO.P,U3,21*%
%TO.N,N/C*%
X101620000Y-29620000D03*
%TO.P,U3,22*%
X101620000Y-27080000D03*
%TO.P,U3,23*%
X101620000Y-24540000D03*
%TO.P,U3,24*%
%TO.N,+5V*%
X101620000Y-22000000D03*
%TD*%
D16*
%TO.P,A1,1*%
%TO.N,PICO_BUSACK_N*%
X7800000Y-134000000D03*
D10*
%TO.P,A1,2*%
%TO.N,PICO_IORQ_N*%
X10340000Y-134000000D03*
D17*
%TO.P,A1,3*%
%TO.N,GND*%
X12880000Y-134000000D03*
D10*
%TO.P,A1,4*%
%TO.N,PICO_CLK*%
X15420000Y-134000000D03*
%TO.P,A1,5*%
%TO.N,RESET_N*%
X17960000Y-134000000D03*
%TO.P,A1,6*%
%TO.N,PICO_BUSREQ_N*%
X20500000Y-134000000D03*
%TO.P,A1,7*%
%TO.N,PICO_CE_N*%
X23040000Y-134000000D03*
D17*
%TO.P,A1,8*%
%TO.N,GND*%
X25580000Y-134000000D03*
D10*
%TO.P,A1,9*%
%TO.N,DATA_DIR*%
X28120000Y-134000000D03*
%TO.P,A1,10*%
%TO.N,DATA_ENABLE*%
X30660000Y-134000000D03*
%TO.P,A1,11*%
%TO.N,N/C*%
X33200000Y-134000000D03*
%TO.P,A1,12*%
%TO.N,ADDR_ENABLE*%
X35740000Y-134000000D03*
D17*
%TO.P,A1,13*%
%TO.N,GND*%
X38280000Y-134000000D03*
D10*
%TO.P,A1,14*%
%TO.N,PICO_D0*%
X40820000Y-134000000D03*
%TO.P,A1,15*%
%TO.N,PICO_D1*%
X43360000Y-134000000D03*
%TO.P,A1,16*%
%TO.N,PICO_D2*%
X45900000Y-134000000D03*
%TO.P,A1,17*%
%TO.N,PICO_D3*%
X48440000Y-134000000D03*
D17*
%TO.P,A1,18*%
%TO.N,GND*%
X50980000Y-134000000D03*
D10*
%TO.P,A1,19*%
%TO.N,PICO_D4*%
X53520000Y-134000000D03*
%TO.P,A1,20*%
%TO.N,PICO_D5*%
X56060000Y-134000000D03*
%TO.P,A1,21*%
%TO.N,PICO_D6*%
X56060000Y-116220000D03*
%TO.P,A1,22*%
%TO.N,PICO_D7*%
X53520000Y-116220000D03*
D18*
%TO.P,A1,23*%
%TO.N,GND*%
X50980000Y-116220000D03*
D10*
%TO.P,A1,24*%
%TO.N,PICO_SPI_SCK*%
X48440000Y-116220000D03*
%TO.P,A1,25*%
%TO.N,PICO_SPI_MOSI*%
X45900000Y-116220000D03*
%TO.P,A1,26*%
%TO.N,PICO_SPI_MISO*%
X43360000Y-116220000D03*
%TO.P,A1,27*%
%TO.N,PICO_SPI_CS_N*%
X40820000Y-116220000D03*
D18*
%TO.P,A1,28*%
%TO.N,GND*%
X38280000Y-116220000D03*
D10*
%TO.P,A1,29*%
%TO.N,PICO_WE_N*%
X35740000Y-116220000D03*
%TO.P,A1,30*%
%TO.N,N/C*%
X33200000Y-116220000D03*
%TO.P,A1,31*%
%TO.N,PICO_OE_N*%
X30660000Y-116220000D03*
%TO.P,A1,32*%
%TO.N,PICO_RD_N*%
X28120000Y-116220000D03*
D18*
%TO.P,A1,33*%
%TO.N,GND*%
X25580000Y-116220000D03*
D10*
%TO.P,A1,34*%
%TO.N,PICO_WR_N*%
X23040000Y-116220000D03*
%TO.P,A1,35*%
%TO.N,N/C*%
X20500000Y-116220000D03*
%TO.P,A1,36*%
%TO.N,+3V3*%
X17960000Y-116220000D03*
%TO.P,A1,37*%
%TO.N,N/C*%
X15420000Y-116220000D03*
D18*
%TO.P,A1,38*%
%TO.N,GND*%
X12880000Y-116220000D03*
D10*
%TO.P,A1,39*%
%TO.N,VSYS*%
X10340000Y-116220000D03*
%TO.P,A1,40*%
%TO.N,N/C*%
X7800000Y-116220000D03*
%TD*%
%TO.P,R15,1*%
%TO.N,SRAM_OE_PRE_N*%
X86400000Y-90000000D03*
%TO.P,R15,2*%
%TO.N,+5V*%
X86400000Y-79840000D03*
%TD*%
%TO.P,R26,1*%
%TO.N,ADDR_ENABLE*%
X84000000Y-105000000D03*
%TO.P,R26,2*%
%TO.N,GND*%
X84000000Y-94840000D03*
%TD*%
%TO.P,R19,1*%
%TO.N,PICO_SPI_CS_N*%
X123000000Y-94000000D03*
%TO.P,R19,2*%
%TO.N,+3V3*%
X123000000Y-83840000D03*
%TD*%
%TO.P,R24,1*%
%TO.N,DATA_ENABLE*%
X68000000Y-105000000D03*
%TO.P,R24,2*%
%TO.N,GND*%
X68000000Y-94840000D03*
%TD*%
%TO.P,R27,1*%
%TO.N,PICO_SPI_SCK*%
X142000000Y-115000000D03*
%TO.P,R27,2*%
%TO.N,GND*%
X142000000Y-104840000D03*
%TD*%
%TO.P,R21,1*%
%TO.N,PICO_OE_N*%
X141000000Y-94000000D03*
%TO.P,R21,2*%
%TO.N,+3V3*%
X141000000Y-83840000D03*
%TD*%
%TO.P,R2,1*%
%TO.N,BUSACK_N*%
X13600000Y-90000000D03*
%TO.P,R2,2*%
%TO.N,+5V*%
X13600000Y-79840000D03*
%TD*%
D12*
%TO.P,TP4,1*%
%TO.N,WAIT_N*%
X74000000Y-10000000D03*
%TD*%
D10*
%TO.P,R10,1*%
%TO.N,SRAM_WE_N*%
X58400000Y-90000000D03*
%TO.P,R10,2*%
%TO.N,+5V*%
X58400000Y-79840000D03*
%TD*%
D19*
%TO.P,U4,1*%
%TO.N,GND*%
X58000000Y-70000000D03*
D10*
%TO.P,U4,2*%
%TO.N,PICO_CLK*%
X60540000Y-70000000D03*
%TO.P,U4,3*%
%TO.N,SRAM_CE_N*%
X63080000Y-70000000D03*
%TO.P,U4,4*%
%TO.N,PICO_BUSREQ_N*%
X65620000Y-70000000D03*
%TO.P,U4,5*%
%TO.N,SRAM_OE_N*%
X68160000Y-70000000D03*
%TO.P,U4,6*%
%TO.N,PICO_SPI_CS_N*%
X70700000Y-70000000D03*
%TO.P,U4,7*%
%TO.N,SRAM_WE_N*%
X73240000Y-70000000D03*
%TO.P,U4,8*%
%TO.N,PICO_SPI_SCK*%
X75780000Y-70000000D03*
%TO.P,U4,9*%
%TO.N,MCP_SI*%
X78320000Y-70000000D03*
%TO.P,U4,10*%
%TO.N,GND*%
X80860000Y-70000000D03*
%TO.P,U4,11*%
%TO.N,PICO_SPI_MOSI*%
X80860000Y-62380000D03*
%TO.P,U4,12*%
%TO.N,MCP_SCK*%
X78320000Y-62380000D03*
%TO.P,U4,13*%
%TO.N,SRAM_WE_PRE_N*%
X75780000Y-62380000D03*
%TO.P,U4,14*%
%TO.N,MCP_CS_N*%
X73240000Y-62380000D03*
%TO.P,U4,15*%
%TO.N,SRAM_OE_PRE_N*%
X70700000Y-62380000D03*
%TO.P,U4,16*%
%TO.N,BUSREQ_N*%
X68160000Y-62380000D03*
%TO.P,U4,17*%
%TO.N,SRAM_CE_PRE_N*%
X65620000Y-62380000D03*
%TO.P,U4,18*%
%TO.N,Z80_CLK*%
X63080000Y-62380000D03*
%TO.P,U4,19*%
%TO.N,GND*%
X60540000Y-62380000D03*
%TO.P,U4,20*%
%TO.N,+5V*%
X58000000Y-62380000D03*
%TD*%
%TO.P,R5,1*%
%TO.N,RD_N*%
X30400000Y-90000000D03*
%TO.P,R5,2*%
%TO.N,+5V*%
X30400000Y-79840000D03*
%TD*%
D11*
%TO.P,U10,1*%
%TO.N,GND*%
X124000000Y-55000000D03*
D10*
%TO.P,U10,2*%
%TO.N,PICO_D0*%
X124000000Y-57540000D03*
%TO.P,U10,3*%
%TO.N,PICO_D1*%
X124000000Y-60080000D03*
%TO.P,U10,4*%
%TO.N,PICO_D2*%
X124000000Y-62620000D03*
%TO.P,U10,5*%
%TO.N,PICO_D3*%
X124000000Y-65160000D03*
%TO.P,U10,6*%
%TO.N,PICO_D4*%
X124000000Y-67700000D03*
%TO.P,U10,7*%
%TO.N,PICO_D5*%
X124000000Y-70240000D03*
%TO.P,U10,8*%
%TO.N,PICO_D6*%
X124000000Y-72780000D03*
%TO.P,U10,9*%
%TO.N,PICO_D7*%
X124000000Y-75320000D03*
%TO.P,U10,10*%
%TO.N,GND*%
X124000000Y-77860000D03*
%TO.P,U10,11*%
%TO.N,D7*%
X131620000Y-77860000D03*
%TO.P,U10,12*%
%TO.N,D6*%
X131620000Y-75320000D03*
%TO.P,U10,13*%
%TO.N,D5*%
X131620000Y-72780000D03*
%TO.P,U10,14*%
%TO.N,D4*%
X131620000Y-70240000D03*
%TO.P,U10,15*%
%TO.N,D3*%
X131620000Y-67700000D03*
%TO.P,U10,16*%
%TO.N,D2*%
X131620000Y-65160000D03*
%TO.P,U10,17*%
%TO.N,D1*%
X131620000Y-62620000D03*
%TO.P,U10,18*%
%TO.N,D0*%
X131620000Y-60080000D03*
%TO.P,U10,19*%
%TO.N,DATA_DOWN_OE_N*%
X131620000Y-57540000D03*
%TO.P,U10,20*%
%TO.N,+3V3*%
X131620000Y-55000000D03*
%TD*%
%TO.P,R13,1*%
%TO.N,NMI_N*%
X75200000Y-90000000D03*
%TO.P,R13,2*%
%TO.N,+5V*%
X75200000Y-79840000D03*
%TD*%
%TO.P,R6,1*%
%TO.N,WR_N*%
X36000000Y-90000000D03*
%TO.P,R6,2*%
%TO.N,+5V*%
X36000000Y-79840000D03*
%TD*%
%TO.P,C7,1*%
%TO.N,+5V*%
X115200000Y-55000000D03*
%TO.P,C7,2*%
%TO.N,GND*%
X115200000Y-52500000D03*
%TD*%
%TO.P,C6,1*%
%TO.N,+5V*%
X71000000Y-43000000D03*
%TO.P,C6,2*%
%TO.N,GND*%
X73500000Y-43000000D03*
%TD*%
%TO.P,R7,1*%
%TO.N,MCP_SO*%
X41600000Y-90000000D03*
%TO.P,R7,2*%
%TO.N,+5V*%
X41600000Y-79840000D03*
%TD*%
%TO.P,R3,1*%
%TO.N,MREQ_N*%
X19200000Y-90000000D03*
%TO.P,R3,2*%
%TO.N,+5V*%
X19200000Y-79840000D03*
%TD*%
%TO.P,R8,1*%
%TO.N,SRAM_CE_N*%
X47200000Y-90000000D03*
%TO.P,R8,2*%
%TO.N,+5V*%
X47200000Y-79840000D03*
%TD*%
%TO.P,R29,1*%
%TO.N,MCP_RESET_DRIVE*%
X110000000Y-135000000D03*
%TO.P,R29,2*%
%TO.N,MCP_RESET_BASE*%
X110000000Y-124840000D03*
%TD*%
%TO.P,R30,1*%
%TO.N,MCP_RESET_BASE*%
X118000000Y-135000000D03*
%TO.P,R30,2*%
%TO.N,GND*%
X118000000Y-124840000D03*
%TD*%
D12*
%TO.P,TP2,1*%
%TO.N,Z80_CLK*%
X85000000Y-68000000D03*
%TD*%
D10*
%TO.P,R25,1*%
%TO.N,DATA_DIR*%
X76000000Y-105000000D03*
%TO.P,R25,2*%
%TO.N,GND*%
X76000000Y-94840000D03*
%TD*%
D12*
%TO.P,TP6,1*%
%TO.N,BUSACK_N*%
X88000000Y-10000000D03*
%TD*%
D10*
%TO.P,R23,1*%
%TO.N,RESET_N*%
X110000000Y-115000000D03*
%TO.P,R23,2*%
%TO.N,GND*%
X110000000Y-104840000D03*
%TD*%
D15*
%TO.P,RN1,1*%
%TO.N,+5V*%
X8000000Y-67000000D03*
D10*
%TO.P,RN1,2*%
%TO.N,A0*%
X10540000Y-67000000D03*
%TO.P,RN1,3*%
%TO.N,A1*%
X13080000Y-67000000D03*
%TO.P,RN1,4*%
%TO.N,A2*%
X15620000Y-67000000D03*
%TO.P,RN1,5*%
%TO.N,A3*%
X18160000Y-67000000D03*
%TO.P,RN1,6*%
%TO.N,A4*%
X20700000Y-67000000D03*
%TO.P,RN1,7*%
%TO.N,A5*%
X23240000Y-67000000D03*
%TO.P,RN1,8*%
%TO.N,A6*%
X25780000Y-67000000D03*
%TO.P,RN1,9*%
%TO.N,A7*%
X28320000Y-67000000D03*
%TD*%
%TO.P,C3,1*%
%TO.N,+5V*%
X105000000Y-30000000D03*
%TO.P,C3,2*%
%TO.N,GND*%
X107500000Y-30000000D03*
%TD*%
D11*
%TO.P,U9,1*%
%TO.N,+5V*%
X105000000Y-55000000D03*
D10*
%TO.P,U9,2*%
%TO.N,PICO_D0*%
X105000000Y-57540000D03*
%TO.P,U9,3*%
%TO.N,PICO_D1*%
X105000000Y-60080000D03*
%TO.P,U9,4*%
%TO.N,PICO_D2*%
X105000000Y-62620000D03*
%TO.P,U9,5*%
%TO.N,PICO_D3*%
X105000000Y-65160000D03*
%TO.P,U9,6*%
%TO.N,PICO_D4*%
X105000000Y-67700000D03*
%TO.P,U9,7*%
%TO.N,PICO_D5*%
X105000000Y-70240000D03*
%TO.P,U9,8*%
%TO.N,PICO_D6*%
X105000000Y-72780000D03*
%TO.P,U9,9*%
%TO.N,PICO_D7*%
X105000000Y-75320000D03*
%TO.P,U9,10*%
%TO.N,GND*%
X105000000Y-77860000D03*
%TO.P,U9,11*%
%TO.N,D7*%
X112620000Y-77860000D03*
%TO.P,U9,12*%
%TO.N,D6*%
X112620000Y-75320000D03*
%TO.P,U9,13*%
%TO.N,D5*%
X112620000Y-72780000D03*
%TO.P,U9,14*%
%TO.N,D4*%
X112620000Y-70240000D03*
%TO.P,U9,15*%
%TO.N,D3*%
X112620000Y-67700000D03*
%TO.P,U9,16*%
%TO.N,D2*%
X112620000Y-65160000D03*
%TO.P,U9,17*%
%TO.N,D1*%
X112620000Y-62620000D03*
%TO.P,U9,18*%
%TO.N,D0*%
X112620000Y-60080000D03*
%TO.P,U9,19*%
%TO.N,DATA_UP_OE_N*%
X112620000Y-57540000D03*
%TO.P,U9,20*%
%TO.N,+5V*%
X112620000Y-55000000D03*
%TD*%
%TO.P,R12,1*%
%TO.N,INT_N*%
X69600000Y-90000000D03*
%TO.P,R12,2*%
%TO.N,+5V*%
X69600000Y-79840000D03*
%TD*%
D20*
%TO.P,D1,1*%
%TO.N,VSYS*%
X15000000Y-105000000D03*
D21*
%TO.P,D1,2*%
%TO.N,+5V*%
X25160000Y-105000000D03*
%TD*%
D11*
%TO.P,C10,1*%
%TO.N,+5V*%
X96000000Y-82000000D03*
D10*
%TO.P,C10,2*%
%TO.N,GND*%
X99500000Y-82000000D03*
%TD*%
D11*
%TO.P,U7,1*%
%TO.N,GND*%
X143000000Y-55000000D03*
D10*
%TO.P,U7,2*%
%TO.N,BUSACK_N*%
X143000000Y-57540000D03*
%TO.P,U7,3*%
%TO.N,N/C*%
X143000000Y-60080000D03*
%TO.P,U7,4*%
%TO.N,IORQ_N*%
X143000000Y-62620000D03*
%TO.P,U7,5*%
%TO.N,N/C*%
X143000000Y-65160000D03*
%TO.P,U7,6*%
%TO.N,RD_N*%
X143000000Y-67700000D03*
%TO.P,U7,7*%
%TO.N,N/C*%
X143000000Y-70240000D03*
%TO.P,U7,8*%
%TO.N,WR_N*%
X143000000Y-72780000D03*
%TO.P,U7,9*%
%TO.N,PICO_SPI_MISO*%
X143000000Y-75320000D03*
%TO.P,U7,10*%
%TO.N,GND*%
X143000000Y-77860000D03*
%TO.P,U7,11*%
%TO.N,MCP_SO*%
X150620000Y-77860000D03*
%TO.P,U7,12*%
%TO.N,PICO_WR_N*%
X150620000Y-75320000D03*
%TO.P,U7,13*%
%TO.N,GND*%
X150620000Y-72780000D03*
%TO.P,U7,14*%
%TO.N,PICO_RD_N*%
X150620000Y-70240000D03*
%TO.P,U7,15*%
%TO.N,GND*%
X150620000Y-67700000D03*
%TO.P,U7,16*%
%TO.N,PICO_IORQ_N*%
X150620000Y-65160000D03*
%TO.P,U7,17*%
%TO.N,GND*%
X150620000Y-62620000D03*
%TO.P,U7,18*%
%TO.N,PICO_BUSACK_N*%
X150620000Y-60080000D03*
%TO.P,U7,19*%
%TO.N,GND*%
X150620000Y-57540000D03*
%TO.P,U7,20*%
%TO.N,+3V3*%
X150620000Y-55000000D03*
%TD*%
%TO.P,C5,1*%
%TO.N,+3V3*%
X155000000Y-55000000D03*
%TO.P,C5,2*%
%TO.N,GND*%
X155000000Y-52500000D03*
%TD*%
%TO.P,R9,1*%
%TO.N,SRAM_OE_N*%
X52800000Y-90000000D03*
%TO.P,R9,2*%
%TO.N,+5V*%
X52800000Y-79840000D03*
%TD*%
D12*
%TO.P,TP3,1*%
%TO.N,RESET_N*%
X50000000Y-10000000D03*
%TD*%
D10*
%TO.P,C1,1*%
%TO.N,+5V*%
X34000000Y-42500000D03*
%TO.P,C1,2*%
%TO.N,GND*%
X36500000Y-42500000D03*
%TD*%
%TO.P,R31,1*%
%TO.N,MCP_RESET_N*%
X126000000Y-135000000D03*
%TO.P,R31,2*%
%TO.N,+5V*%
X126000000Y-124840000D03*
%TD*%
%TO.P,R18,1*%
%TO.N,PICO_CE_N*%
X114000000Y-94000000D03*
%TO.P,R18,2*%
%TO.N,+3V3*%
X114000000Y-83840000D03*
%TD*%
%TO.P,R22,1*%
%TO.N,PICO_CLK*%
X60000000Y-105000000D03*
%TO.P,R22,2*%
%TO.N,GND*%
X60000000Y-94840000D03*
%TD*%
D15*
%TO.P,RN3,1*%
%TO.N,GND*%
X82000000Y-137000000D03*
D10*
%TO.P,RN3,2*%
%TO.N,PICO_D0*%
X84540000Y-137000000D03*
%TO.P,RN3,3*%
%TO.N,PICO_D1*%
X87080000Y-137000000D03*
%TO.P,RN3,4*%
%TO.N,PICO_D2*%
X89620000Y-137000000D03*
%TO.P,RN3,5*%
%TO.N,PICO_D3*%
X92160000Y-137000000D03*
%TO.P,RN3,6*%
%TO.N,PICO_D4*%
X94700000Y-137000000D03*
%TO.P,RN3,7*%
%TO.N,PICO_D5*%
X97240000Y-137000000D03*
%TO.P,RN3,8*%
%TO.N,PICO_D6*%
X99780000Y-137000000D03*
%TO.P,RN3,9*%
%TO.N,PICO_D7*%
X102320000Y-137000000D03*
%TD*%
D11*
%TO.P,U1,1*%
%TO.N,A11*%
X40000000Y-17000000D03*
D10*
%TO.P,U1,2*%
%TO.N,A12*%
X40000000Y-19540000D03*
%TO.P,U1,3*%
%TO.N,A13*%
X40000000Y-22080000D03*
%TO.P,U1,4*%
%TO.N,A14*%
X40000000Y-24620000D03*
%TO.P,U1,5*%
%TO.N,A15*%
X40000000Y-27160000D03*
%TO.P,U1,6*%
%TO.N,Z80_CLK*%
X40000000Y-29700000D03*
%TO.P,U1,7*%
%TO.N,D4*%
X40000000Y-32240000D03*
%TO.P,U1,8*%
%TO.N,D3*%
X40000000Y-34780000D03*
%TO.P,U1,9*%
%TO.N,D5*%
X40000000Y-37320000D03*
%TO.P,U1,10*%
%TO.N,D6*%
X40000000Y-39860000D03*
%TO.P,U1,11*%
%TO.N,+5V*%
X40000000Y-42400000D03*
%TO.P,U1,12*%
%TO.N,D2*%
X40000000Y-44940000D03*
%TO.P,U1,13*%
%TO.N,D7*%
X40000000Y-47480000D03*
%TO.P,U1,14*%
%TO.N,D0*%
X40000000Y-50020000D03*
%TO.P,U1,15*%
%TO.N,D1*%
X40000000Y-52560000D03*
%TO.P,U1,16*%
%TO.N,INT_N*%
X40000000Y-55100000D03*
%TO.P,U1,17*%
%TO.N,NMI_N*%
X40000000Y-57640000D03*
%TO.P,U1,18*%
%TO.N,N/C*%
X40000000Y-60180000D03*
%TO.P,U1,19*%
%TO.N,MREQ_N*%
X40000000Y-62720000D03*
%TO.P,U1,20*%
%TO.N,IORQ_N*%
X40000000Y-65260000D03*
%TO.P,U1,21*%
%TO.N,RD_N*%
X55240000Y-65260000D03*
%TO.P,U1,22*%
%TO.N,WR_N*%
X55240000Y-62720000D03*
%TO.P,U1,23*%
%TO.N,BUSACK_N*%
X55240000Y-60180000D03*
%TO.P,U1,24*%
%TO.N,WAIT_N*%
X55240000Y-57640000D03*
%TO.P,U1,25*%
%TO.N,BUSREQ_N*%
X55240000Y-55100000D03*
%TO.P,U1,26*%
%TO.N,RESET_N*%
X55240000Y-52560000D03*
%TO.P,U1,27*%
%TO.N,M1_N*%
X55240000Y-50020000D03*
%TO.P,U1,28*%
%TO.N,N/C*%
X55240000Y-47480000D03*
%TO.P,U1,29*%
%TO.N,GND*%
X55240000Y-44940000D03*
%TO.P,U1,30*%
%TO.N,A0*%
X55240000Y-42400000D03*
%TO.P,U1,31*%
%TO.N,A1*%
X55240000Y-39860000D03*
%TO.P,U1,32*%
%TO.N,A2*%
X55240000Y-37320000D03*
%TO.P,U1,33*%
%TO.N,A3*%
X55240000Y-34780000D03*
%TO.P,U1,34*%
%TO.N,A4*%
X55240000Y-32240000D03*
%TO.P,U1,35*%
%TO.N,A5*%
X55240000Y-29700000D03*
%TO.P,U1,36*%
%TO.N,A6*%
X55240000Y-27160000D03*
%TO.P,U1,37*%
%TO.N,A7*%
X55240000Y-24620000D03*
%TO.P,U1,38*%
%TO.N,A8*%
X55240000Y-22080000D03*
%TO.P,U1,39*%
%TO.N,A9*%
X55240000Y-19540000D03*
%TO.P,U1,40*%
%TO.N,A10*%
X55240000Y-17000000D03*
%TD*%
D22*
%TO.P,C12,1*%
%TO.N,+5V*%
X27000000Y-12000000D03*
D23*
%TO.P,C12,2*%
%TO.N,GND*%
X32000000Y-12000000D03*
%TD*%
D10*
%TO.P,R1,1*%
%TO.N,BUSREQ_N*%
X8000000Y-90000000D03*
%TO.P,R1,2*%
%TO.N,+5V*%
X8000000Y-79840000D03*
%TD*%
D24*
%TO.P,J1,1*%
%TO.N,+5V*%
X16000000Y-13000000D03*
D25*
%TO.P,J1,2*%
%TO.N,GND*%
X21000000Y-13000000D03*
%TD*%
D10*
%TO.P,R28,1*%
%TO.N,PICO_SPI_MOSI*%
X150000000Y-115000000D03*
%TO.P,R28,2*%
%TO.N,GND*%
X150000000Y-104840000D03*
%TD*%
D26*
%TO.N,A0*%
X37028500Y-63130700D03*
%TO.N,A1*%
X47212800Y-40984700D03*
%TO.N,A10*%
X31279900Y-18280200D03*
%TO.N,A11*%
X28332300Y-45496100D03*
%TO.N,A12*%
X42468600Y-23883000D03*
X44379400Y-54108500D03*
%TO.N,A13*%
X76166600Y-31470400D03*
X48727500Y-58863000D03*
%TO.N,A2*%
X27297900Y-43987100D03*
X46887800Y-42772100D03*
%TO.N,A3*%
X47203800Y-37370500D03*
X35875900Y-39101400D03*
%TO.N,A4*%
X34432900Y-37177200D03*
X47160000Y-32997200D03*
%TO.N,A5*%
X27686100Y-28808600D03*
X48047500Y-31324500D03*
%TO.N,A6*%
X26648900Y-24825700D03*
%TO.N,A7*%
X44143600Y-20662800D03*
%TO.N,A8*%
X22185100Y-55316100D03*
%TO.N,A9*%
X23540200Y-47350600D03*
%TO.N,BUSACK_N*%
X82471500Y-62494100D03*
%TO.N,D0*%
X47205000Y-45058400D03*
X32667200Y-51210000D03*
X69867900Y-58322700D03*
%TO.N,D1*%
X61640900Y-56350600D03*
X101693700Y-57185900D03*
X34487900Y-53791100D03*
%TO.N,D2*%
X99751300Y-57183600D03*
X63304800Y-56596200D03*
X57809300Y-56959500D03*
%TO.N,D3*%
X67748200Y-48478700D03*
X111371200Y-56661000D03*
%TO.N,D5*%
X56898400Y-54446400D03*
%TO.N,D6*%
X34964100Y-40040600D03*
X48742300Y-73530900D03*
X29248300Y-70479300D03*
%TO.N,D7*%
X48732300Y-53966200D03*
X32752700Y-48635800D03*
%TO.N,DATA_ENABLE*%
X50419700Y-110898900D03*
X75650800Y-99994800D03*
%TO.N,GND*%
X79471700Y-82121600D03*
X119005100Y-79877600D03*
%TO.N,INT_N*%
X53469400Y-84172500D03*
X41462000Y-69591800D03*
%TO.N,IORQ_N*%
X60591600Y-56695000D03*
X34901400Y-76773900D03*
%TO.N,MCP_RESET_BASE*%
X105902500Y-73945500D03*
%TO.N,MCP_RESET_DRIVE*%
X103153700Y-43233700D03*
%TO.N,MCP_RESET_N*%
X108201100Y-69039200D03*
%TO.N,MCP_SO*%
X115587300Y-58171900D03*
X56788700Y-80346200D03*
%TO.N,MREQ_N*%
X61374600Y-54390800D03*
X31739800Y-76752100D03*
%TO.N,NMI_N*%
X41946500Y-75209800D03*
X47118500Y-83666100D03*
%TO.N,PICO_BUSREQ_N*%
X29857800Y-104810800D03*
%TO.N,PICO_CE_N*%
X29390000Y-105810100D03*
%TO.N,PICO_D0*%
X114881800Y-57250000D03*
%TO.N,PICO_D2*%
X53450400Y-135464100D03*
%TO.N,PICO_D3*%
X65509600Y-137781800D03*
%TO.N,PICO_D5*%
X117408600Y-70240000D03*
%TO.N,PICO_D6*%
X101352600Y-115566100D03*
%TO.N,PICO_D7*%
X106178900Y-115197500D03*
X117419500Y-75320000D03*
%TO.N,PICO_OE_N*%
X46271500Y-113521700D03*
X99814800Y-36182900D03*
%TO.N,PICO_RD_N*%
X49180300Y-111304100D03*
%TO.N,PICO_SPI_CS_N*%
X58511700Y-98469100D03*
%TO.N,PICO_SPI_MOSI*%
X74381400Y-103826300D03*
X145745500Y-112443600D03*
%TO.N,PICO_SPI_SCK*%
X72224900Y-114030100D03*
%TO.N,RD_N*%
X87073300Y-65207700D03*
X49930800Y-80346200D03*
%TO.N,RESET_N*%
X73624000Y-112900100D03*
%TO.N,SRAM_CE_N*%
X34664800Y-68206500D03*
%TO.N,SRAM_CE_PRE_N*%
X90674200Y-67672400D03*
%TO.N,SRAM_OE_N*%
X27095900Y-45993700D03*
X56021800Y-66468200D03*
X41415000Y-64533600D03*
%TO.N,SRAM_OE_PRE_N*%
X91345800Y-56927500D03*
%TO.N,SRAM_WE_N*%
X46252800Y-61911100D03*
X32628100Y-35842200D03*
X59001800Y-65864100D03*
%TO.N,SRAM_WE_PRE_N*%
X77104900Y-74457100D03*
%TO.N,WAIT_N*%
X63966900Y-49163500D03*
%TO.N,WR_N*%
X97698000Y-32612900D03*
X139705300Y-50445200D03*
%TD*%
%TO.N,+3V3*%
D27*
X123000000Y-83840000D02*
X132000000Y-83840000D01*
X149295300Y-53675300D02*
X150620000Y-55000000D01*
X155000000Y-55000000D02*
X150620000Y-55000000D01*
X132000000Y-83840000D02*
X141000000Y-83840000D01*
X134200000Y-55000000D02*
X135524700Y-53675300D01*
X135524700Y-53675300D02*
X149295300Y-53675300D01*
X123000000Y-83840000D02*
X114000000Y-83840000D01*
%TO.N,+5V*%
X24800000Y-79840000D02*
X30400000Y-79840000D01*
X30400000Y-79840000D02*
X33922800Y-79840000D01*
X33922800Y-79840000D02*
X33922800Y-73378900D01*
X34000000Y-72000000D02*
X34000000Y-73301700D01*
X112620000Y-55000000D02*
X105000000Y-55000000D01*
X154850200Y-85149800D02*
X99149800Y-85149800D01*
X99149800Y-85149800D02*
X96000000Y-82000000D01*
X158000000Y-82000000D02*
X154850200Y-85149800D01*
X33922800Y-79840000D02*
X36000000Y-79840000D01*
X33922800Y-73378900D02*
X34000000Y-73301700D01*
%TO.N,A0*%
D28*
X55240000Y-42400000D02*
X56471700Y-41168300D01*
X10540000Y-67000000D02*
X14409300Y-63130700D01*
X56471700Y-41168300D02*
X84231700Y-41168300D01*
X14409300Y-63130700D02*
X37028500Y-63130700D01*
X84231700Y-41168300D02*
X85620000Y-39780000D01*
%TO.N,A12*%
X20080000Y-19540000D02*
X10000000Y-29620000D01*
X40000000Y-19540000D02*
X20080000Y-19540000D01*
%TO.N,A13*%
X36187000Y-22080000D02*
X40000000Y-22080000D01*
X25240000Y-32160000D02*
X26107000Y-32160000D01*
X26107000Y-32160000D02*
X36187000Y-22080000D01*
%TO.N,A15*%
X47710200Y-33510000D02*
X71730000Y-33510000D01*
X46588900Y-33748900D02*
X47471300Y-33748900D01*
X40000000Y-27160000D02*
X46588900Y-33748900D01*
X71730000Y-33510000D02*
X78000000Y-39780000D01*
X47471300Y-33748900D02*
X47710200Y-33510000D01*
%TO.N,A2*%
X46887800Y-42772100D02*
X49787900Y-42772100D01*
X10000000Y-44860000D02*
X11151700Y-43708300D01*
X11151700Y-43708300D02*
X27019100Y-43708300D01*
X27019100Y-43708300D02*
X27297900Y-43987100D01*
X49787900Y-42772100D02*
X55240000Y-37320000D01*
%TO.N,A3*%
X34802200Y-39101400D02*
X35875900Y-39101400D01*
X11270000Y-41050000D02*
X32853600Y-41050000D01*
X32853600Y-41050000D02*
X34802200Y-39101400D01*
X10000000Y-42320000D02*
X11270000Y-41050000D01*
X52649500Y-37370500D02*
X47203800Y-37370500D01*
X55240000Y-34780000D02*
X52649500Y-37370500D01*
%TO.N,A4*%
X76530900Y-30771700D02*
X76477900Y-30718700D01*
X54482800Y-32997200D02*
X55240000Y-32240000D01*
X56761300Y-30718700D02*
X55240000Y-32240000D01*
X10000000Y-39780000D02*
X11270000Y-38510000D01*
X33100100Y-38510000D02*
X34432900Y-37177200D01*
X84468300Y-30771700D02*
X76530900Y-30771700D01*
X47160000Y-32997200D02*
X54482800Y-32997200D01*
X85620000Y-29620000D02*
X84468300Y-30771700D01*
X11270000Y-38510000D02*
X33100100Y-38510000D01*
X76477900Y-30718700D02*
X56761300Y-30718700D01*
%TO.N,A5*%
X16352800Y-30887200D02*
X25607500Y-30887200D01*
X55240000Y-29700000D02*
X56649900Y-28290100D01*
X10000000Y-37240000D02*
X16352800Y-30887200D01*
X56649900Y-28290100D02*
X84409900Y-28290100D01*
X49672000Y-29700000D02*
X48047500Y-31324500D01*
X84409900Y-28290100D02*
X85620000Y-27080000D01*
X25607500Y-30887200D02*
X27686100Y-28808600D01*
X55240000Y-29700000D02*
X49672000Y-29700000D01*
%TO.N,A6*%
X25603500Y-25871200D02*
X25603500Y-25871100D01*
X25603500Y-25871100D02*
X26648900Y-24825700D01*
X18828800Y-25871200D02*
X25603500Y-25871200D01*
X10000000Y-34700000D02*
X18828800Y-25871200D01*
%TO.N,A7*%
X41418200Y-20662800D02*
X44143600Y-20662800D01*
X10000000Y-32160000D02*
X18946200Y-23213800D01*
X36275800Y-20928300D02*
X41152700Y-20928300D01*
X18946200Y-23213800D02*
X33990300Y-23213800D01*
X41152700Y-20928300D02*
X41418200Y-20662800D01*
X33990300Y-23213800D02*
X36275800Y-20928300D01*
%TO.N,A8*%
X51311700Y-26008300D02*
X33931700Y-26008300D01*
X33931700Y-26008300D02*
X25240000Y-34700000D01*
X55240000Y-22080000D02*
X51311700Y-26008300D01*
%TO.N,A9*%
X25596000Y-33432800D02*
X35678800Y-23350000D01*
X53365500Y-21414500D02*
X55240000Y-19540000D01*
X24830400Y-33432800D02*
X25596000Y-33432800D01*
X43872600Y-21414500D02*
X53365500Y-21414500D01*
X35678800Y-23350000D02*
X41937100Y-23350000D01*
X25240000Y-37240000D02*
X24034000Y-36034000D01*
X24034000Y-34229200D02*
X24830400Y-33432800D01*
X24034000Y-36034000D02*
X24034000Y-34229200D01*
X41937100Y-23350000D02*
X43872600Y-21414500D01*
%TO.N,BUSREQ_N*%
X55436200Y-55296200D02*
X55240000Y-55100000D01*
X62553100Y-56907400D02*
X62553100Y-56199800D01*
X68160000Y-62380000D02*
X68025700Y-62380000D01*
X68025700Y-62380000D02*
X62553100Y-56907400D01*
X62553100Y-56199800D02*
X61649500Y-55296200D01*
X61649500Y-55296200D02*
X55436200Y-55296200D01*
%TO.N,D0*%
X32667200Y-51210000D02*
X11270000Y-51210000D01*
X11270000Y-51210000D02*
X10000000Y-52480000D01*
X69867900Y-58322700D02*
X62776700Y-51231500D01*
X62776700Y-51231500D02*
X53378100Y-51231500D01*
X53378100Y-51231500D02*
X47205000Y-45058400D01*
%TO.N,D1*%
X57908000Y-55797900D02*
X57450200Y-56255700D01*
X11228900Y-53791100D02*
X34487900Y-53791100D01*
X10000000Y-55020000D02*
X11228900Y-53791100D01*
X58908900Y-56176300D02*
X58530500Y-55797900D01*
X57450200Y-56255700D02*
X43695700Y-56255700D01*
X61640900Y-56350600D02*
X61233600Y-55943300D01*
X101693700Y-57185900D02*
X103257800Y-58750000D01*
X58530500Y-55797900D02*
X57908000Y-55797900D01*
X59032900Y-56176300D02*
X58908900Y-56176300D01*
X108750000Y-58750000D02*
X112620000Y-62620000D01*
X103257800Y-58750000D02*
X108750000Y-58750000D01*
X59265900Y-55943300D02*
X59032900Y-56176300D01*
X43695700Y-56255700D02*
X40000000Y-52560000D01*
X61233600Y-55943300D02*
X59265900Y-55943300D01*
%TO.N,D2*%
X49181700Y-58110000D02*
X44739600Y-58110000D01*
X55928900Y-58839900D02*
X49911600Y-58839900D01*
X39554100Y-53830000D02*
X38848300Y-53124200D01*
X38848300Y-53124200D02*
X38848300Y-46091700D01*
X49911600Y-58839900D02*
X49181700Y-58110000D01*
X38848300Y-46091700D02*
X40000000Y-44940000D01*
X112620000Y-65160000D02*
X108810000Y-61350000D01*
X108810000Y-61350000D02*
X103917700Y-61350000D01*
X57809300Y-56959500D02*
X55928900Y-58839900D01*
X103917700Y-61350000D02*
X99751300Y-57183600D01*
X40459600Y-53830000D02*
X39554100Y-53830000D01*
X44739600Y-58110000D02*
X40459600Y-53830000D01*
%TO.N,D3*%
X131620000Y-67700000D02*
X130429400Y-68890600D01*
X65479500Y-46210000D02*
X49419600Y-46210000D01*
X67748200Y-48478700D02*
X65479500Y-46210000D01*
X45313300Y-40093300D02*
X40000000Y-34780000D01*
X47338000Y-44304800D02*
X47338000Y-44304700D01*
X113810600Y-68890600D02*
X112620000Y-67700000D01*
X49419600Y-46210000D02*
X47514400Y-44304800D01*
X47338000Y-44304700D02*
X45313300Y-42280000D01*
X47514400Y-44304800D02*
X47338000Y-44304800D01*
X130429400Y-68890600D02*
X113810600Y-68890600D01*
X45313300Y-42280000D02*
X45313300Y-40093300D01*
%TO.N,D5*%
X40000000Y-37676100D02*
X45846700Y-43522800D01*
X130429400Y-73970600D02*
X113810600Y-73970600D01*
X45846700Y-44849700D02*
X54767000Y-53770000D01*
X113810600Y-73970600D02*
X112620000Y-72780000D01*
X131620000Y-72780000D02*
X130429400Y-73970600D01*
X40000000Y-37320000D02*
X40000000Y-37676100D01*
X45846700Y-43522800D02*
X45846700Y-44849700D01*
X56222000Y-53770000D02*
X56898400Y-54446400D01*
X54767000Y-53770000D02*
X56222000Y-53770000D01*
%TO.N,D6*%
X46576700Y-73530900D02*
X45430000Y-72384200D01*
X48742300Y-73530900D02*
X46576700Y-73530900D01*
X45430000Y-71618100D02*
X42647800Y-68835900D01*
X42647800Y-68835900D02*
X37875700Y-68835900D01*
X45430000Y-72384200D02*
X45430000Y-71618100D01*
X130429400Y-76510600D02*
X113810600Y-76510600D01*
X113810600Y-76510600D02*
X112620000Y-75320000D01*
X36232300Y-70479300D02*
X29248300Y-70479300D01*
X131620000Y-75320000D02*
X130429400Y-76510600D01*
X37875700Y-68835900D02*
X36232300Y-70479300D01*
%TO.N,D7*%
X131620000Y-77860000D02*
X130427200Y-79052800D01*
X25240000Y-49940000D02*
X26544200Y-48635800D01*
X40000000Y-47480000D02*
X42246100Y-47480000D01*
X130427200Y-79052800D02*
X113812800Y-79052800D01*
X113812800Y-79052800D02*
X112620000Y-77860000D01*
X42246100Y-47480000D02*
X48732300Y-53966200D01*
X26544200Y-48635800D02*
X32752700Y-48635800D01*
%TO.N,DATA_DIR*%
X37012800Y-125107200D02*
X37012800Y-115825500D01*
X28120000Y-134000000D02*
X37012800Y-125107200D01*
X66624800Y-114375200D02*
X76000000Y-105000000D01*
X38463100Y-114375200D02*
X66624800Y-114375200D01*
X37012800Y-115825500D02*
X38463100Y-114375200D01*
%TO.N,DATA_ENABLE*%
X73005200Y-99994800D02*
X75650800Y-99994800D01*
X68000000Y-105000000D02*
X73005200Y-99994800D01*
%TO.N,GND*%
X85620000Y-49940000D02*
X80540000Y-44860000D01*
X80860000Y-66263300D02*
X85123300Y-62000000D01*
X126500000Y-52500000D02*
X134200000Y-52500000D01*
X129840600Y-77860000D02*
X131031200Y-76669400D01*
X46377100Y-132848300D02*
X39431700Y-132848300D01*
X107017600Y-79877600D02*
X105000000Y-77860000D01*
X10000000Y-60100000D02*
X11190600Y-58909400D01*
X119005100Y-79877600D02*
X107017600Y-79877600D01*
X80860000Y-70000000D02*
X80860000Y-66263300D01*
X131031200Y-76669400D02*
X141809400Y-76669400D01*
X49788900Y-115028900D02*
X50980000Y-116220000D01*
X80540000Y-44860000D02*
X78000000Y-44860000D01*
X71560000Y-44940000D02*
X73500000Y-43000000D01*
X124000000Y-55000000D02*
X126500000Y-52500000D01*
X49827300Y-135152700D02*
X47963600Y-135152700D01*
X39471100Y-115028900D02*
X49788900Y-115028900D01*
X33409400Y-58909400D02*
X35500000Y-61000000D01*
X47051700Y-133522900D02*
X46377100Y-132848300D01*
X141809400Y-76669400D02*
X143000000Y-77860000D01*
X55240000Y-44940000D02*
X71560000Y-44940000D01*
X47963600Y-135152700D02*
X47051700Y-134240800D01*
X86000000Y-62000000D02*
X85123300Y-62000000D01*
X99500000Y-82000000D02*
X100860000Y-82000000D01*
X39431700Y-132848300D02*
X38280000Y-134000000D01*
X47051700Y-134240800D02*
X47051700Y-133522900D01*
X124000000Y-77860000D02*
X129840600Y-77860000D01*
X50980000Y-134000000D02*
X49827300Y-135152700D01*
X11190600Y-58909400D02*
X33409400Y-58909400D01*
X38280000Y-116220000D02*
X39471100Y-115028900D01*
X100860000Y-82000000D02*
X105000000Y-77860000D01*
%TO.N,INT_N*%
X43007100Y-71136900D02*
X41462000Y-69591800D01*
X45135800Y-74645200D02*
X43007100Y-72516500D01*
X53469400Y-84172500D02*
X53469400Y-82758900D01*
X43007100Y-72516500D02*
X43007100Y-71136900D01*
X53469400Y-82758900D02*
X45355700Y-74645200D01*
X45355700Y-74645200D02*
X45135800Y-74645200D01*
%TO.N,IORQ_N*%
X57250100Y-61450100D02*
X46854800Y-61450100D01*
X46854800Y-61450100D02*
X46564000Y-61159300D01*
X40000000Y-64885700D02*
X40000000Y-65260000D01*
X59250000Y-59450200D02*
X57250100Y-61450100D01*
X43726400Y-61159300D02*
X40000000Y-64885700D01*
X120163100Y-61468300D02*
X115193100Y-56498300D01*
X113910000Y-55397400D02*
X113910000Y-54644700D01*
X59250000Y-58036600D02*
X59250000Y-59450200D01*
X141848300Y-61468300D02*
X120163100Y-61468300D01*
X115010900Y-56498300D02*
X113910000Y-55397400D01*
X109205300Y-49940000D02*
X101620000Y-49940000D01*
X46564000Y-61159300D02*
X43726400Y-61159300D01*
X143000000Y-62620000D02*
X141848300Y-61468300D01*
X115193100Y-56498300D02*
X115010900Y-56498300D01*
X113910000Y-54644700D02*
X109205300Y-49940000D01*
X60591600Y-56695000D02*
X59250000Y-58036600D01*
%TO.N,MCP_RESET_DRIVE*%
X103153700Y-43233700D02*
X103153700Y-36233700D01*
X103153700Y-36233700D02*
X101620000Y-34700000D01*
%TO.N,MCP_RESET_N*%
X88540000Y-62000000D02*
X89416700Y-62000000D01*
X89416700Y-62000000D02*
X96455900Y-69039200D01*
X96455900Y-69039200D02*
X108201100Y-69039200D01*
%TO.N,MCP_SO*%
X64350000Y-70430800D02*
X64350000Y-69470000D01*
X64350000Y-69470000D02*
X69430000Y-64390000D01*
X69430000Y-61977900D02*
X76387900Y-55020000D01*
X150620000Y-77860000D02*
X146810000Y-74050000D01*
X76387900Y-55020000D02*
X78000000Y-55020000D01*
X124477100Y-64008300D02*
X121423700Y-64008300D01*
X132150000Y-66430000D02*
X126898800Y-66430000D01*
X56788700Y-80346200D02*
X56788700Y-77992100D01*
X126898800Y-66430000D02*
X124477100Y-64008300D01*
X69430000Y-64390000D02*
X69430000Y-61977900D01*
X56788700Y-77992100D02*
X64350000Y-70430800D01*
X139770000Y-74050000D02*
X132150000Y-66430000D01*
X146810000Y-74050000D02*
X139770000Y-74050000D01*
X121423700Y-64008300D02*
X115587300Y-58171900D01*
%TO.N,NMI_N*%
X41946500Y-75209800D02*
X41946500Y-78494100D01*
X41946500Y-78494100D02*
X47118500Y-83666100D01*
%TO.N,PICO_BUSREQ_N*%
X80710100Y-77083500D02*
X90565900Y-86939300D01*
X65620000Y-70000000D02*
X72703500Y-77083500D01*
X72703500Y-77083500D02*
X80710100Y-77083500D01*
X90565900Y-86939300D02*
X97939300Y-86939300D01*
X97939300Y-86939300D02*
X105000000Y-94000000D01*
%TO.N,PICO_CLK*%
X6400000Y-100000000D02*
X45000000Y-100000000D01*
X15420000Y-137000000D02*
X6400000Y-137000000D01*
X55600000Y-93000000D02*
X55600000Y-76000000D01*
X45000000Y-100000000D02*
X55600000Y-93000000D01*
X15420000Y-134000000D02*
X15420000Y-137000000D01*
X45000000Y-100000000D02*
X60000000Y-105000000D01*
X6400000Y-137000000D02*
X6400000Y-100000000D01*
X60540000Y-73000000D02*
X60540000Y-70000000D01*
X55600000Y-76000000D02*
X60540000Y-73000000D01*
%TO.N,PICO_D0*%
X114881800Y-57250000D02*
X113963000Y-56331200D01*
X111682500Y-55909300D02*
X106630700Y-55909300D01*
X113963000Y-56331200D02*
X112104400Y-56331200D01*
X112104400Y-56331200D02*
X111682500Y-55909300D01*
X106630700Y-55909300D02*
X105000000Y-57540000D01*
%TO.N,PICO_D3*%
X90961500Y-135801500D02*
X92160000Y-137000000D01*
X65509600Y-137781800D02*
X67489900Y-135801500D01*
X67489900Y-135801500D02*
X90961500Y-135801500D01*
%TO.N,PICO_D4*%
X122809400Y-66509400D02*
X106190600Y-66509400D01*
X124000000Y-67700000D02*
X122809400Y-66509400D01*
X106190600Y-66509400D02*
X105000000Y-67700000D01*
%TO.N,PICO_D5*%
X124000000Y-70240000D02*
X117408600Y-70240000D01*
%TO.N,PICO_D6*%
X106190600Y-71589400D02*
X105000000Y-72780000D01*
X124000000Y-72780000D02*
X122809400Y-71589400D01*
X122809400Y-71589400D02*
X106190600Y-71589400D01*
%TO.N,PICO_D7*%
X124000000Y-75320000D02*
X117419500Y-75320000D01*
%TO.N,PICO_OE_N*%
X30660000Y-116220000D02*
X33358300Y-113521700D01*
X33358300Y-113521700D02*
X46271500Y-113521700D01*
%TO.N,PICO_RD_N*%
X28120000Y-116220000D02*
X33035900Y-111304100D01*
X33035900Y-111304100D02*
X49180300Y-111304100D01*
%TO.N,PICO_SPI_MOSI*%
X150000000Y-115000000D02*
X148301900Y-115000000D01*
X148301900Y-115000000D02*
X145745500Y-112443600D01*
%TO.N,RESET_N*%
X17960000Y-134000000D02*
X20184500Y-136224500D01*
X20184500Y-136224500D02*
X55672300Y-136224500D01*
X55672300Y-136224500D02*
X73624000Y-118272800D01*
X73624000Y-118272800D02*
X73624000Y-112900100D01*
%TO.N,SRAM_CE_N*%
X63080000Y-70000000D02*
X61286500Y-68206500D01*
X61286500Y-68206500D02*
X34664800Y-68206500D01*
%TO.N,SRAM_OE_N*%
X56021800Y-66468200D02*
X43349600Y-66468200D01*
X43349600Y-66468200D02*
X41415000Y-64533600D01*
%TO.N,SRAM_OE_PRE_N*%
X90449200Y-56030800D02*
X91345800Y-56927500D01*
X70700000Y-62380000D02*
X76371300Y-56708700D01*
X90449200Y-56030800D02*
X101620000Y-44860000D01*
X76371300Y-56708700D02*
X89771300Y-56708700D01*
X89771300Y-56708700D02*
X90449200Y-56030800D01*
%TO.N,SRAM_WE_N*%
X57127700Y-63990000D02*
X48331700Y-63990000D01*
X59001800Y-65864100D02*
X57127700Y-63990000D01*
X48331700Y-63990000D02*
X46252800Y-61911100D01*
%TO.N,SRAM_WE_PRE_N*%
X77050000Y-74402200D02*
X77104900Y-74457100D01*
X91658700Y-57679200D02*
X101620000Y-47717900D01*
X81353900Y-57679200D02*
X91658700Y-57679200D01*
X101620000Y-47717900D02*
X101620000Y-47400000D01*
X75780000Y-62380000D02*
X77050000Y-62380000D01*
X77050000Y-62380000D02*
X77050000Y-61983100D01*
X77050000Y-62380000D02*
X77050000Y-74402200D01*
X77050000Y-61983100D02*
X81353900Y-57679200D01*
%TO.N,Z80_CLK*%
X38000000Y-67500000D02*
X38000000Y-29700000D01*
X63080000Y-62380000D02*
X63080000Y-67500000D01*
X38000000Y-29700000D02*
X40000000Y-29700000D01*
X63080000Y-67500000D02*
X38000000Y-67500000D01*
%TD*%
M02*
