<?xml version="1.0" encoding="UTF-8"?>
<svg xmlns="http://www.w3.org/2000/svg" width="1060" height="1110" viewBox="0 0 1060 1110" role="img" aria-labelledby="title description">
  <title id="title">Three side-by-side BB830 breadboards with chip placement and grouped connections</title>
  <desc id="description">Memory, Core, and Peripheral breadboards share aligned row numbers. Colored lines show grouped package-level signal relationships; power and ground are omitted.</desc>
  <style>
    text { font-family: Avenir Next, Helvetica Neue, sans-serif; fill: #111827; }
    .title { font-size: 25px; font-weight: 700; text-anchor: middle; }
    .subtitle { font-size: 14px; text-anchor: middle; fill: #4b5563; }
    .board-title { font-size: 18px; font-weight: 700; text-anchor: middle; }
    .board-axis { font-size: 9px; font-weight: 650; text-anchor: middle; fill: #4b5563; }
    .board-outline { fill: #fff; stroke: #111827; stroke-width: 2; }
    .terminal-field { fill: #fff; stroke: #9ca3af; stroke-width: 1; }
    .power-rail { fill: #fee2e2; stroke: #ef4444; stroke-width: 1.5; }
    .center-gap { fill: #f3f4f6; stroke: #d1d5db; stroke-width: 1; }
    .row-line { stroke: #d1d5db; stroke-width: 0.55; stroke-dasharray: 2 5; }
    .row-number { font-size: 10px; text-anchor: end; fill: #6b7280; }
    .chip { stroke: #111827; stroke-width: 2; fill-opacity: 0.96; }
    .chip-label { font-size: 10px; font-weight: 650; text-anchor: middle; }
    .narrow-label { font-size: 8.5px; }
    .supply-label { font-size: 9px; }
    .notch-marker { fill: none; stroke: #111827; stroke-width: 2.5; }
    .pin-one { fill: #fde047; stroke: #111827; stroke-width: 1; }
    .pin-one-label { font-size: 7px; font-weight: 800; text-anchor: middle; fill: #111827; }
    .usb-marker { fill: #e5e7eb; stroke: #111827; stroke-width: 1.2; }
    .marker-label { font-size: 7px; font-weight: 800; text-anchor: middle; fill: #111827; }
    .connection-halo { fill: none; stroke: white; stroke-width: 8; stroke-opacity: 0.85; }
    .connection { stroke-linecap: round; stroke-linejoin: round; opacity: 0.92; }
    .legend-text { font-size: 13px; }
    .note { font-size: 12px; text-anchor: middle; fill: #4b5563; }
    .direct-label { font-size: 12px; font-weight: 650; text-anchor: middle; fill: #b45309; }
  </style>

  <rect width="1060" height="1110" fill="#fafafa"/>
  <text x="530" y="38" class="title">BB830 physical placement and grouped chip connections</text>
  <text x="530" y="64" class="subtitle">Boards are side by side with long edges parallel; equal terminal-row numbers align laterally</text>
  <text x="530" y="91" class="direct-label">GAL controls data OE# and MCP RESET#; MCP ports connect directly to pulled-up A0-A15</text>


    <g id="board-memory">
      <text x="200" y="145" class="board-title">Memory Board (left)</text>
      <text x="200" y="159" class="board-axis">row 1 ↑ · A-E left · F-J right</text>
      <rect x="50" y="162" width="300" height="816" class="board-outline"/>
      <rect x="62" y="180" width="18" height="780" class="power-rail"/>
      <rect x="320" y="180" width="18" height="780" class="power-rail"/>
      <rect x="96" y="180" width="208" height="780" class="terminal-field"/>
      <rect x="193" y="180" width="14" height="780" class="center-gap"/>
      <line x1="96" y1="180.00" x2="304.00" y2="180.00" class="row-line"/>
<line x1="96" y1="192.58" x2="304.00" y2="192.58" class="row-line"/>
<line x1="96" y1="205.16" x2="304.00" y2="205.16" class="row-line"/>
<line x1="96" y1="217.74" x2="304.00" y2="217.74" class="row-line"/>
<line x1="96" y1="230.32" x2="304.00" y2="230.32" class="row-line"/>
<line x1="96" y1="242.90" x2="304.00" y2="242.90" class="row-line"/>
<line x1="96" y1="255.48" x2="304.00" y2="255.48" class="row-line"/>
<line x1="96" y1="268.06" x2="304.00" y2="268.06" class="row-line"/>
<line x1="96" y1="280.65" x2="304.00" y2="280.65" class="row-line"/>
<line x1="96" y1="293.23" x2="304.00" y2="293.23" class="row-line"/>
<line x1="96" y1="305.81" x2="304.00" y2="305.81" class="row-line"/>
<line x1="96" y1="318.39" x2="304.00" y2="318.39" class="row-line"/>
<line x1="96" y1="330.97" x2="304.00" y2="330.97" class="row-line"/>
<line x1="96" y1="343.55" x2="304.00" y2="343.55" class="row-line"/>
<line x1="96" y1="356.13" x2="304.00" y2="356.13" class="row-line"/>
<line x1="96" y1="368.71" x2="304.00" y2="368.71" class="row-line"/>
<line x1="96" y1="381.29" x2="304.00" y2="381.29" class="row-line"/>
<line x1="96" y1="393.87" x2="304.00" y2="393.87" class="row-line"/>
<line x1="96" y1="406.45" x2="304.00" y2="406.45" class="row-line"/>
<line x1="96" y1="419.03" x2="304.00" y2="419.03" class="row-line"/>
<line x1="96" y1="431.61" x2="304.00" y2="431.61" class="row-line"/>
<line x1="96" y1="444.19" x2="304.00" y2="444.19" class="row-line"/>
<line x1="96" y1="456.77" x2="304.00" y2="456.77" class="row-line"/>
<line x1="96" y1="469.35" x2="304.00" y2="469.35" class="row-line"/>
<line x1="96" y1="481.94" x2="304.00" y2="481.94" class="row-line"/>
<line x1="96" y1="494.52" x2="304.00" y2="494.52" class="row-line"/>
<line x1="96" y1="507.10" x2="304.00" y2="507.10" class="row-line"/>
<line x1="96" y1="519.68" x2="304.00" y2="519.68" class="row-line"/>
<line x1="96" y1="532.26" x2="304.00" y2="532.26" class="row-line"/>
<line x1="96" y1="544.84" x2="304.00" y2="544.84" class="row-line"/>
<line x1="96" y1="557.42" x2="304.00" y2="557.42" class="row-line"/>
<line x1="96" y1="570.00" x2="304.00" y2="570.00" class="row-line"/>
<line x1="96" y1="582.58" x2="304.00" y2="582.58" class="row-line"/>
<line x1="96" y1="595.16" x2="304.00" y2="595.16" class="row-line"/>
<line x1="96" y1="607.74" x2="304.00" y2="607.74" class="row-line"/>
<line x1="96" y1="620.32" x2="304.00" y2="620.32" class="row-line"/>
<line x1="96" y1="632.90" x2="304.00" y2="632.90" class="row-line"/>
<line x1="96" y1="645.48" x2="304.00" y2="645.48" class="row-line"/>
<line x1="96" y1="658.06" x2="304.00" y2="658.06" class="row-line"/>
<line x1="96" y1="670.65" x2="304.00" y2="670.65" class="row-line"/>
<line x1="96" y1="683.23" x2="304.00" y2="683.23" class="row-line"/>
<line x1="96" y1="695.81" x2="304.00" y2="695.81" class="row-line"/>
<line x1="96" y1="708.39" x2="304.00" y2="708.39" class="row-line"/>
<line x1="96" y1="720.97" x2="304.00" y2="720.97" class="row-line"/>
<line x1="96" y1="733.55" x2="304.00" y2="733.55" class="row-line"/>
<line x1="96" y1="746.13" x2="304.00" y2="746.13" class="row-line"/>
<line x1="96" y1="758.71" x2="304.00" y2="758.71" class="row-line"/>
<line x1="96" y1="771.29" x2="304.00" y2="771.29" class="row-line"/>
<line x1="96" y1="783.87" x2="304.00" y2="783.87" class="row-line"/>
<line x1="96" y1="796.45" x2="304.00" y2="796.45" class="row-line"/>
<line x1="96" y1="809.03" x2="304.00" y2="809.03" class="row-line"/>
<line x1="96" y1="821.61" x2="304.00" y2="821.61" class="row-line"/>
<line x1="96" y1="834.19" x2="304.00" y2="834.19" class="row-line"/>
<line x1="96" y1="846.77" x2="304.00" y2="846.77" class="row-line"/>
<line x1="96" y1="859.35" x2="304.00" y2="859.35" class="row-line"/>
<line x1="96" y1="871.94" x2="304.00" y2="871.94" class="row-line"/>
<line x1="96" y1="884.52" x2="304.00" y2="884.52" class="row-line"/>
<line x1="96" y1="897.10" x2="304.00" y2="897.10" class="row-line"/>
<line x1="96" y1="909.68" x2="304.00" y2="909.68" class="row-line"/>
<line x1="96" y1="922.26" x2="304.00" y2="922.26" class="row-line"/>
<line x1="96" y1="934.84" x2="304.00" y2="934.84" class="row-line"/>
<line x1="96" y1="947.42" x2="304.00" y2="947.42" class="row-line"/>
<line x1="96" y1="960.00" x2="304.00" y2="960.00" class="row-line"/>
      <text x="85" y="184.00" class="row-number">1</text>
<text x="85" y="246.90" class="row-number">6</text>
<text x="85" y="309.81" class="row-number">11</text>
<text x="85" y="372.71" class="row-number">16</text>
<text x="85" y="435.61" class="row-number">21</text>
<text x="85" y="498.52" class="row-number">26</text>
<text x="85" y="561.42" class="row-number">31</text>
<text x="85" y="624.32" class="row-number">36</text>
<text x="85" y="687.23" class="row-number">41</text>
<text x="85" y="750.13" class="row-number">46</text>
<text x="85" y="813.03" class="row-number">51</text>
<text x="85" y="875.94" class="row-number">56</text>
<text x="85" y="938.84" class="row-number">61</text>
    </g>

    <g id="board-core">
      <text x="530" y="145" class="board-title">Core Board (center)</text>
      <text x="530" y="159" class="board-axis">row 1 ↑ · A-E left · F-J right</text>
      <rect x="380" y="162" width="300" height="816" class="board-outline"/>
      <rect x="392" y="180" width="18" height="780" class="power-rail"/>
      <rect x="650" y="180" width="18" height="780" class="power-rail"/>
      <rect x="426" y="180" width="208" height="780" class="terminal-field"/>
      <rect x="523" y="180" width="14" height="780" class="center-gap"/>
      <line x1="426" y1="180.00" x2="634.00" y2="180.00" class="row-line"/>
<line x1="426" y1="192.58" x2="634.00" y2="192.58" class="row-line"/>
<line x1="426" y1="205.16" x2="634.00" y2="205.16" class="row-line"/>
<line x1="426" y1="217.74" x2="634.00" y2="217.74" class="row-line"/>
<line x1="426" y1="230.32" x2="634.00" y2="230.32" class="row-line"/>
<line x1="426" y1="242.90" x2="634.00" y2="242.90" class="row-line"/>
<line x1="426" y1="255.48" x2="634.00" y2="255.48" class="row-line"/>
<line x1="426" y1="268.06" x2="634.00" y2="268.06" class="row-line"/>
<line x1="426" y1="280.65" x2="634.00" y2="280.65" class="row-line"/>
<line x1="426" y1="293.23" x2="634.00" y2="293.23" class="row-line"/>
<line x1="426" y1="305.81" x2="634.00" y2="305.81" class="row-line"/>
<line x1="426" y1="318.39" x2="634.00" y2="318.39" class="row-line"/>
<line x1="426" y1="330.97" x2="634.00" y2="330.97" class="row-line"/>
<line x1="426" y1="343.55" x2="634.00" y2="343.55" class="row-line"/>
<line x1="426" y1="356.13" x2="634.00" y2="356.13" class="row-line"/>
<line x1="426" y1="368.71" x2="634.00" y2="368.71" class="row-line"/>
<line x1="426" y1="381.29" x2="634.00" y2="381.29" class="row-line"/>
<line x1="426" y1="393.87" x2="634.00" y2="393.87" class="row-line"/>
<line x1="426" y1="406.45" x2="634.00" y2="406.45" class="row-line"/>
<line x1="426" y1="419.03" x2="634.00" y2="419.03" class="row-line"/>
<line x1="426" y1="431.61" x2="634.00" y2="431.61" class="row-line"/>
<line x1="426" y1="444.19" x2="634.00" y2="444.19" class="row-line"/>
<line x1="426" y1="456.77" x2="634.00" y2="456.77" class="row-line"/>
<line x1="426" y1="469.35" x2="634.00" y2="469.35" class="row-line"/>
<line x1="426" y1="481.94" x2="634.00" y2="481.94" class="row-line"/>
<line x1="426" y1="494.52" x2="634.00" y2="494.52" class="row-line"/>
<line x1="426" y1="507.10" x2="634.00" y2="507.10" class="row-line"/>
<line x1="426" y1="519.68" x2="634.00" y2="519.68" class="row-line"/>
<line x1="426" y1="532.26" x2="634.00" y2="532.26" class="row-line"/>
<line x1="426" y1="544.84" x2="634.00" y2="544.84" class="row-line"/>
<line x1="426" y1="557.42" x2="634.00" y2="557.42" class="row-line"/>
<line x1="426" y1="570.00" x2="634.00" y2="570.00" class="row-line"/>
<line x1="426" y1="582.58" x2="634.00" y2="582.58" class="row-line"/>
<line x1="426" y1="595.16" x2="634.00" y2="595.16" class="row-line"/>
<line x1="426" y1="607.74" x2="634.00" y2="607.74" class="row-line"/>
<line x1="426" y1="620.32" x2="634.00" y2="620.32" class="row-line"/>
<line x1="426" y1="632.90" x2="634.00" y2="632.90" class="row-line"/>
<line x1="426" y1="645.48" x2="634.00" y2="645.48" class="row-line"/>
<line x1="426" y1="658.06" x2="634.00" y2="658.06" class="row-line"/>
<line x1="426" y1="670.65" x2="634.00" y2="670.65" class="row-line"/>
<line x1="426" y1="683.23" x2="634.00" y2="683.23" class="row-line"/>
<line x1="426" y1="695.81" x2="634.00" y2="695.81" class="row-line"/>
<line x1="426" y1="708.39" x2="634.00" y2="708.39" class="row-line"/>
<line x1="426" y1="720.97" x2="634.00" y2="720.97" class="row-line"/>
<line x1="426" y1="733.55" x2="634.00" y2="733.55" class="row-line"/>
<line x1="426" y1="746.13" x2="634.00" y2="746.13" class="row-line"/>
<line x1="426" y1="758.71" x2="634.00" y2="758.71" class="row-line"/>
<line x1="426" y1="771.29" x2="634.00" y2="771.29" class="row-line"/>
<line x1="426" y1="783.87" x2="634.00" y2="783.87" class="row-line"/>
<line x1="426" y1="796.45" x2="634.00" y2="796.45" class="row-line"/>
<line x1="426" y1="809.03" x2="634.00" y2="809.03" class="row-line"/>
<line x1="426" y1="821.61" x2="634.00" y2="821.61" class="row-line"/>
<line x1="426" y1="834.19" x2="634.00" y2="834.19" class="row-line"/>
<line x1="426" y1="846.77" x2="634.00" y2="846.77" class="row-line"/>
<line x1="426" y1="859.35" x2="634.00" y2="859.35" class="row-line"/>
<line x1="426" y1="871.94" x2="634.00" y2="871.94" class="row-line"/>
<line x1="426" y1="884.52" x2="634.00" y2="884.52" class="row-line"/>
<line x1="426" y1="897.10" x2="634.00" y2="897.10" class="row-line"/>
<line x1="426" y1="909.68" x2="634.00" y2="909.68" class="row-line"/>
<line x1="426" y1="922.26" x2="634.00" y2="922.26" class="row-line"/>
<line x1="426" y1="934.84" x2="634.00" y2="934.84" class="row-line"/>
<line x1="426" y1="947.42" x2="634.00" y2="947.42" class="row-line"/>
<line x1="426" y1="960.00" x2="634.00" y2="960.00" class="row-line"/>
      <text x="415" y="184.00" class="row-number">1</text>
<text x="415" y="246.90" class="row-number">6</text>
<text x="415" y="309.81" class="row-number">11</text>
<text x="415" y="372.71" class="row-number">16</text>
<text x="415" y="435.61" class="row-number">21</text>
<text x="415" y="498.52" class="row-number">26</text>
<text x="415" y="561.42" class="row-number">31</text>
<text x="415" y="624.32" class="row-number">36</text>
<text x="415" y="687.23" class="row-number">41</text>
<text x="415" y="750.13" class="row-number">46</text>
<text x="415" y="813.03" class="row-number">51</text>
<text x="415" y="875.94" class="row-number">56</text>
<text x="415" y="938.84" class="row-number">61</text>
    </g>

    <g id="board-peripheral">
      <text x="860" y="145" class="board-title">Peripheral Board (right)</text>
      <text x="860" y="159" class="board-axis">row 1 ↑ · A-E left · F-J right</text>
      <rect x="710" y="162" width="300" height="816" class="board-outline"/>
      <rect x="722" y="180" width="18" height="780" class="power-rail"/>
      <rect x="980" y="180" width="18" height="780" class="power-rail"/>
      <rect x="756" y="180" width="208" height="780" class="terminal-field"/>
      <rect x="853" y="180" width="14" height="780" class="center-gap"/>
      <line x1="756" y1="180.00" x2="964.00" y2="180.00" class="row-line"/>
<line x1="756" y1="192.58" x2="964.00" y2="192.58" class="row-line"/>
<line x1="756" y1="205.16" x2="964.00" y2="205.16" class="row-line"/>
<line x1="756" y1="217.74" x2="964.00" y2="217.74" class="row-line"/>
<line x1="756" y1="230.32" x2="964.00" y2="230.32" class="row-line"/>
<line x1="756" y1="242.90" x2="964.00" y2="242.90" class="row-line"/>
<line x1="756" y1="255.48" x2="964.00" y2="255.48" class="row-line"/>
<line x1="756" y1="268.06" x2="964.00" y2="268.06" class="row-line"/>
<line x1="756" y1="280.65" x2="964.00" y2="280.65" class="row-line"/>
<line x1="756" y1="293.23" x2="964.00" y2="293.23" class="row-line"/>
<line x1="756" y1="305.81" x2="964.00" y2="305.81" class="row-line"/>
<line x1="756" y1="318.39" x2="964.00" y2="318.39" class="row-line"/>
<line x1="756" y1="330.97" x2="964.00" y2="330.97" class="row-line"/>
<line x1="756" y1="343.55" x2="964.00" y2="343.55" class="row-line"/>
<line x1="756" y1="356.13" x2="964.00" y2="356.13" class="row-line"/>
<line x1="756" y1="368.71" x2="964.00" y2="368.71" class="row-line"/>
<line x1="756" y1="381.29" x2="964.00" y2="381.29" class="row-line"/>
<line x1="756" y1="393.87" x2="964.00" y2="393.87" class="row-line"/>
<line x1="756" y1="406.45" x2="964.00" y2="406.45" class="row-line"/>
<line x1="756" y1="419.03" x2="964.00" y2="419.03" class="row-line"/>
<line x1="756" y1="431.61" x2="964.00" y2="431.61" class="row-line"/>
<line x1="756" y1="444.19" x2="964.00" y2="444.19" class="row-line"/>
<line x1="756" y1="456.77" x2="964.00" y2="456.77" class="row-line"/>
<line x1="756" y1="469.35" x2="964.00" y2="469.35" class="row-line"/>
<line x1="756" y1="481.94" x2="964.00" y2="481.94" class="row-line"/>
<line x1="756" y1="494.52" x2="964.00" y2="494.52" class="row-line"/>
<line x1="756" y1="507.10" x2="964.00" y2="507.10" class="row-line"/>
<line x1="756" y1="519.68" x2="964.00" y2="519.68" class="row-line"/>
<line x1="756" y1="532.26" x2="964.00" y2="532.26" class="row-line"/>
<line x1="756" y1="544.84" x2="964.00" y2="544.84" class="row-line"/>
<line x1="756" y1="557.42" x2="964.00" y2="557.42" class="row-line"/>
<line x1="756" y1="570.00" x2="964.00" y2="570.00" class="row-line"/>
<line x1="756" y1="582.58" x2="964.00" y2="582.58" class="row-line"/>
<line x1="756" y1="595.16" x2="964.00" y2="595.16" class="row-line"/>
<line x1="756" y1="607.74" x2="964.00" y2="607.74" class="row-line"/>
<line x1="756" y1="620.32" x2="964.00" y2="620.32" class="row-line"/>
<line x1="756" y1="632.90" x2="964.00" y2="632.90" class="row-line"/>
<line x1="756" y1="645.48" x2="964.00" y2="645.48" class="row-line"/>
<line x1="756" y1="658.06" x2="964.00" y2="658.06" class="row-line"/>
<line x1="756" y1="670.65" x2="964.00" y2="670.65" class="row-line"/>
<line x1="756" y1="683.23" x2="964.00" y2="683.23" class="row-line"/>
<line x1="756" y1="695.81" x2="964.00" y2="695.81" class="row-line"/>
<line x1="756" y1="708.39" x2="964.00" y2="708.39" class="row-line"/>
<line x1="756" y1="720.97" x2="964.00" y2="720.97" class="row-line"/>
<line x1="756" y1="733.55" x2="964.00" y2="733.55" class="row-line"/>
<line x1="756" y1="746.13" x2="964.00" y2="746.13" class="row-line"/>
<line x1="756" y1="758.71" x2="964.00" y2="758.71" class="row-line"/>
<line x1="756" y1="771.29" x2="964.00" y2="771.29" class="row-line"/>
<line x1="756" y1="783.87" x2="964.00" y2="783.87" class="row-line"/>
<line x1="756" y1="796.45" x2="964.00" y2="796.45" class="row-line"/>
<line x1="756" y1="809.03" x2="964.00" y2="809.03" class="row-line"/>
<line x1="756" y1="821.61" x2="964.00" y2="821.61" class="row-line"/>
<line x1="756" y1="834.19" x2="964.00" y2="834.19" class="row-line"/>
<line x1="756" y1="846.77" x2="964.00" y2="846.77" class="row-line"/>
<line x1="756" y1="859.35" x2="964.00" y2="859.35" class="row-line"/>
<line x1="756" y1="871.94" x2="964.00" y2="871.94" class="row-line"/>
<line x1="756" y1="884.52" x2="964.00" y2="884.52" class="row-line"/>
<line x1="756" y1="897.10" x2="964.00" y2="897.10" class="row-line"/>
<line x1="756" y1="909.68" x2="964.00" y2="909.68" class="row-line"/>
<line x1="756" y1="922.26" x2="964.00" y2="922.26" class="row-line"/>
<line x1="756" y1="934.84" x2="964.00" y2="934.84" class="row-line"/>
<line x1="756" y1="947.42" x2="964.00" y2="947.42" class="row-line"/>
<line x1="756" y1="960.00" x2="964.00" y2="960.00" class="row-line"/>
      <text x="745" y="184.00" class="row-number">1</text>
<text x="745" y="246.90" class="row-number">6</text>
<text x="745" y="309.81" class="row-number">11</text>
<text x="745" y="372.71" class="row-number">16</text>
<text x="745" y="435.61" class="row-number">21</text>
<text x="745" y="498.52" class="row-number">26</text>
<text x="745" y="561.42" class="row-number">31</text>
<text x="745" y="624.32" class="row-number">36</text>
<text x="745" y="687.23" class="row-number">41</text>
<text x="745" y="750.13" class="row-number">46</text>
<text x="745" y="813.03" class="row-number">51</text>
<text x="745" y="875.94" class="row-number">56</text>
<text x="745" y="938.84" class="row-number">61</text>
    </g>

    <path d="M 598.00 525.97 Q 641.00 425.32, 564.00 324.68" class="connection-halo"/>
    <path d="M 598.00 525.97 Q 641.00 425.32, 564.00 324.68" fill="none" stroke="#d62828" stroke-width="4.5" class="connection"/>

    <path d="M 894.00 639.19 Q 971.00 469.35, 952.00 299.52" class="connection-halo"/>
    <path d="M 894.00 639.19 Q 971.00 469.35, 952.00 299.52" fill="none" stroke="#1769e0" stroke-width="3" class="connection"/>

    <path d="M 894.00 777.58 Q 971.00 538.55, 952.00 299.52" class="connection-halo"/>
    <path d="M 894.00 777.58 Q 971.00 538.55, 952.00 299.52" fill="none" stroke="#1769e0" stroke-width="3" class="connection"/>

    <path d="M 234.00 299.52 C 299.00 299.52, 761.00 639.19, 826.00 639.19" class="connection-halo"/>
    <path d="M 234.00 299.52 C 299.00 299.52, 761.00 639.19, 826.00 639.19" fill="none" stroke="#d97706" stroke-width="2.5" class="connection"/>

    <path d="M 234.00 299.52 C 299.00 299.52, 761.00 777.58, 826.00 777.58" class="connection-halo"/>
    <path d="M 234.00 299.52 C 299.00 299.52, 761.00 777.58, 826.00 777.58" fill="none" stroke="#d97706" stroke-width="2.5" class="connection"/>

    <path d="M 894.00 500.81 Q 971.00 400.16, 952.00 299.52" class="connection-halo"/>
    <path d="M 894.00 500.81 Q 971.00 400.16, 952.00 299.52" fill="none" stroke="#d97706" stroke-width="2.5" class="connection"/>

    <path d="M 234.00 689.52 C 279.00 689.52, 279.00 130, 344.00 130 L 716.00 130 C 781.00 130, 781.00 500.81, 826.00 500.81" class="connection-halo"/>
    <path d="M 234.00 689.52 C 279.00 689.52, 279.00 130, 344.00 130 L 716.00 130 C 781.00 130, 781.00 500.81, 826.00 500.81" fill="none" stroke="#079455" stroke-width="2.5" stroke-dasharray="9 6" class="connection"/>

    <path d="M 234.00 299.52 C 299.00 299.52, 397.00 525.97, 462.00 525.97" class="connection-halo"/>
    <path d="M 234.00 299.52 C 299.00 299.52, 397.00 525.97, 462.00 525.97" fill="none" stroke="#d97706" stroke-width="2.5" class="connection"/>

    <path d="M 234.00 299.52 C 299.00 299.52, 431.00 324.68, 496.00 324.68" class="connection-halo"/>
    <path d="M 234.00 299.52 C 299.00 299.52, 431.00 324.68, 496.00 324.68" fill="none" stroke="#d97706" stroke-width="2.5" class="connection"/>

    <path d="M 268.00 488.23 C 333.00 488.23, 431.00 324.68, 496.00 324.68" class="connection-halo"/>
    <path d="M 268.00 488.23 C 333.00 488.23, 431.00 324.68, 496.00 324.68" fill="none" stroke="#d97706" stroke-width="2.5" class="connection"/>

    <path d="M 268.00 488.23 C 333.00 488.23, 397.00 525.97, 462.00 525.97" class="connection-halo"/>
    <path d="M 268.00 488.23 C 333.00 488.23, 397.00 525.97, 462.00 525.97" fill="none" stroke="#1769e0" stroke-width="3" class="connection"/>

    <path d="M 564.00 324.68 C 629.00 324.68, 703.00 299.52, 768.00 299.52" class="connection-halo"/>
    <path d="M 564.00 324.68 C 629.00 324.68, 703.00 299.52, 768.00 299.52" fill="none" stroke="#d62828" stroke-width="4.5" class="connection"/>

    <path d="M 234.00 689.52 C 299.00 689.52, 431.00 324.68, 496.00 324.68" class="connection-halo"/>
    <path d="M 234.00 689.52 C 299.00 689.52, 431.00 324.68, 496.00 324.68" fill="none" stroke="#079455" stroke-width="2.5" stroke-dasharray="9 6" class="connection"/>

    <path d="M 234.00 689.52 C 299.00 689.52, 397.00 525.97, 462.00 525.97" class="connection-halo"/>
    <path d="M 234.00 689.52 C 299.00 689.52, 397.00 525.97, 462.00 525.97" fill="none" stroke="#1769e0" stroke-width="3" class="connection"/>

    <path d="M 234.00 689.52 Q 311.00 588.87, 268.00 488.23" class="connection-halo"/>
    <path d="M 234.00 689.52 Q 311.00 588.87, 268.00 488.23" fill="none" stroke="#1769e0" stroke-width="3" class="connection"/>

    <path d="M 234.00 299.52 Q 311.00 494.52, 234.00 689.52" class="connection-halo"/>
    <path d="M 234.00 299.52 Q 311.00 494.52, 234.00 689.52" fill="none" stroke="#d97706" stroke-width="2.5" class="connection"/>

    <path d="M 598.00 525.97 C 663.00 525.97, 761.00 500.81, 826.00 500.81" class="connection-halo"/>
    <path d="M 598.00 525.97 C 663.00 525.97, 761.00 500.81, 826.00 500.81" fill="none" stroke="#d97706" stroke-width="2.5" class="connection"/>

    <path d="M 598.00 525.97 C 663.00 525.97, 761.00 639.19, 826.00 639.19" class="connection-halo"/>
    <path d="M 598.00 525.97 C 663.00 525.97, 761.00 639.19, 826.00 639.19" fill="none" stroke="#1769e0" stroke-width="3" class="connection"/>

    <path d="M 598.00 525.97 C 663.00 525.97, 761.00 777.58, 826.00 777.58" class="connection-halo"/>
    <path d="M 598.00 525.97 C 663.00 525.97, 761.00 777.58, 826.00 777.58" fill="none" stroke="#1769e0" stroke-width="3" class="connection"/>

    <path d="M 598.00 525.97 C 663.00 525.97, 703.00 299.52, 768.00 299.52" class="connection-halo"/>
    <path d="M 598.00 525.97 C 663.00 525.97, 703.00 299.52, 768.00 299.52" fill="none" stroke="#d97706" stroke-width="2.5" class="connection"/>

    <path d="M 234.00 299.52 C 279.00 299.52, 279.00 112, 344.00 112 L 658.00 112 C 723.00 112, 723.00 299.52, 768.00 299.52" class="connection-halo"/>
    <path d="M 234.00 299.52 C 279.00 299.52, 279.00 112, 344.00 112 L 658.00 112 C 723.00 112, 723.00 299.52, 768.00 299.52" fill="none" stroke="#d97706" stroke-width="2.5" class="connection"/>

    <g id="chip-GAL">
      <rect x="166.00" y="224.66" width="68" height="149.71" rx="5" fill="#36a2bd" class="chip"/>
      <text class="chip-label narrow-label"><tspan x="200" y="280.02">ATF22V10B/C</tspan><tspan x="200" y="293.02">GAL (24-pin)</tspan><tspan x="200" y="306.02">rows 5-16</tspan><tspan x="200" y="319.02">0.3in pin-row span</tspan></text>

      <path d="M 191 225.66129032258064 Q 200 232.66129032258064 209 225.66129032258064" class="notch-marker"/>
      <circle cx="173" cy="232.66129032258064" r="4" class="pin-one"/><text x="173" y="235.16129032258064" class="pin-one-label">1</text>
    </g>

    <g id="chip-SRAM">
      <rect x="132.00" y="388.21" width="136" height="200.03" rx="5" fill="#8ecae6" class="chip"/>
      <text class="chip-label wide-label"><tspan x="200" y="468.73">AS6C1008-55PCN</tspan><tspan x="200" y="481.73">SRAM (32-pin)</tspan><tspan x="200" y="494.73">rows 18-33</tspan><tspan x="200" y="507.73">0.6in pin-row span</tspan></text>

      <path d="M 191 389.2096774193549 Q 200 396.2096774193549 209 389.2096774193549" class="notch-marker"/>
      <circle cx="139" cy="396.2096774193549" r="4" class="pin-one"/><text x="139" y="398.7096774193549" class="pin-one-label">1</text>
    </g>

    <g id="chip-MCP">
      <rect x="166.00" y="602.08" width="68" height="174.87" rx="5" fill="#91cf35" class="chip"/>
      <text class="chip-label narrow-label"><tspan x="200" y="663.52">MCP23S17-E/SP</tspan><tspan x="200" y="676.52">28-pin SPDIP</tspan><tspan x="200" y="689.52">+ Q1 / 2x SIP pulls</tspan><tspan x="200" y="702.52">rows 35-48</tspan><tspan x="200" y="715.52">0.3in pin-row span</tspan></text>

      <path d="M 191 775.9516129032259 Q 200 768.9516129032259 209 775.9516129032259" class="notch-marker"/>
      <circle cx="227" cy="768.9516129032259" r="4" class="pin-one"/><text x="227" y="771.4516129032259" class="pin-one-label">1</text>
    </g>

    <g id="chip-SUPPLY">
      <rect x="405.00" y="174.34" width="250" height="36.48" rx="5" fill="#d2d2d2" class="chip"/>
      <text class="chip-label supply-label"><tspan x="530" y="186.08">5 V supply clearance</tspan><tspan x="530" y="199.08">rows 1-3 reserved</tspan></text>

    </g>

    <g id="chip-AHCT244">
      <rect x="496.00" y="262.40" width="68" height="124.55" rx="5" fill="#ffbd20" class="chip"/>
      <text class="chip-label narrow-label"><tspan x="530" y="305.18">SN74AHCT244N</tspan><tspan x="530" y="318.18">buffer (20-pin)</tspan><tspan x="530" y="331.18">rows 8-17</tspan><tspan x="530" y="344.18">0.3in pin-row span</tspan></text>

      <path d="M 521 385.9516129032258 Q 530 378.9516129032258 539 385.9516129032258" class="notch-marker"/>
      <circle cx="557" cy="378.9516129032258" r="4" class="pin-one"/><text x="557" y="381.4516129032258" class="pin-one-label">1</text>
    </g>

    <g id="chip-Z80">
      <rect x="462.00" y="400.79" width="136" height="250.35" rx="5" fill="#fb8500" class="chip"/>
      <text class="chip-label wide-label"><tspan x="530" y="506.47">Z84C0020PEC</tspan><tspan x="530" y="519.47">Z80 CPU (40-pin)</tspan><tspan x="530" y="532.47">rows 19-38</tspan><tspan x="530" y="545.47">0.6in pin-row span</tspan></text>

      <path d="M 521 401.7903225806452 Q 530 408.7903225806452 539 401.7903225806452" class="notch-marker"/>
      <circle cx="469" cy="408.7903225806452" r="4" class="pin-one"/><text x="469" y="411.2903225806452" class="pin-one-label">1</text>
    </g>

    <g id="chip-PICO">
      <rect x="768.00" y="174.34" width="184" height="250.35" rx="5" fill="#91cf35" class="chip"/>
      <text class="chip-label pico-label"><tspan x="860" y="280.02">Raspberry Pi Pico 2 W</tspan><tspan x="860" y="293.02">2x20-pin module</tspan><tspan x="860" y="306.02">rows 1-20</tspan><tspan x="860" y="319.02">0.7in header span</tspan></text>

      <rect x="847" y="176.33870967741936" width="26" height="8" rx="2" class="usb-marker"/>
      <text x="860" y="183.33870967741936" class="marker-label">USB ↑</text>
      <circle cx="775" cy="182.33870967741936" r="4" class="pin-one"/><text x="775" y="184.83870967741936" class="pin-one-label">1</text>
    </g>

    <g id="chip-LVC244">
      <rect x="826.00" y="438.53" width="68" height="124.55" rx="5" fill="#5fbc98" class="chip"/>
      <text class="chip-label narrow-label"><tspan x="860" y="481.31">SN74LVC244AN</tspan><tspan x="860" y="494.31">monitor (20-pin)</tspan><tspan x="860" y="507.31">rows 22-31</tspan><tspan x="860" y="520.31">0.3in pin-row span</tspan></text>

      <path d="M 851 439.53225806451616 Q 860 446.53225806451616 869 439.53225806451616" class="notch-marker"/>
      <circle cx="833" cy="446.53225806451616" r="4" class="pin-one"/><text x="833" y="449.03225806451616" class="pin-one-label">1</text>
    </g>

    <g id="chip-UP245">
      <rect x="826.00" y="576.92" width="68" height="124.55" rx="5" fill="#52b788" class="chip"/>
      <text class="chip-label narrow-label"><tspan x="860" y="613.19">SN74AHCT245N</tspan><tspan x="860" y="626.19">Pico -&gt; 5 V bus</tspan><tspan x="860" y="639.19">+ RN3 data pulls</tspan><tspan x="860" y="652.19">rows 33-42</tspan><tspan x="860" y="665.19">0.3in pin-row span</tspan></text>

      <path d="M 851 700.4677419354839 Q 860 693.4677419354839 869 700.4677419354839" class="notch-marker"/>
      <circle cx="887" cy="693.4677419354839" r="4" class="pin-one"/><text x="887" y="695.9677419354839" class="pin-one-label">1</text>
    </g>

    <g id="chip-DOWN245">
      <rect x="826.00" y="715.31" width="68" height="124.55" rx="5" fill="#52b788" class="chip"/>
      <text class="chip-label narrow-label"><tspan x="860" y="758.08">SN74LVC245AN</tspan><tspan x="860" y="771.08">5 V bus -&gt; Pico</tspan><tspan x="860" y="784.08">rows 44-53</tspan><tspan x="860" y="797.08">0.3in pin-row span</tspan></text>

      <path d="M 851 838.8548387096774 Q 860 831.8548387096774 869 838.8548387096774" class="notch-marker"/>
      <circle cx="887" cy="831.8548387096774" r="4" class="pin-one"/><text x="887" y="834.3548387096774" class="pin-one-label">1</text>
    </g>

  <g id="legend">
    <line x1="70" y1="1012" x2="125" y2="1012" stroke="#1769e0" stroke-width="3"/><text x="138" y="1017" class="legend-text">Address/data bus group</text>
    <line x1="335" y1="1012" x2="390" y2="1012" stroke="#d97706" stroke-width="2.5"/><text x="403" y="1017" class="legend-text">Control/status group</text>
    <line x1="600" y1="1012" x2="655" y2="1012" stroke="#079455" stroke-width="2.5" stroke-dasharray="9 6"/><text x="668" y="1017" class="legend-text">SPI group</text>
    <line x1="790" y1="1012" x2="845" y2="1012" stroke="#d62828" stroke-width="4.5"/><text x="858" y="1017" class="legend-text">Path containing CLK</text>
  </g>
  <text x="530" y="1048" class="note">One line represents a signal group. Blue paths are shared trunks; intermediate chips are taps, not series logic.</text>
  <text x="530" y="1071" class="note">Power, ground, pull resistors, and decoupling are intentionally omitted.</text>
  <text x="530" y="1094" class="note">Yellow dot = pin 1. Curved edge = DIP notch. Pico USB and all notch directions must match the mounting table.</text>
</svg>
